<svg width="24" height="24" viewBox="0 0 24 24" fill="none" xmlns="http://www.w3.org/2000/svg">
<g id="body icon">
<path id="Body" fill-rule="evenodd" clip-rule="evenodd" d="M4.44065 3.1735e-05L4.44255 0.00168325L4.44336 0.00238111M4.44065 3.1735e-05L4.44336 0.00238111C4.44789 0.00659467 4.45709 0.0154956 4.47008 0.0287105C4.49605 0.0551454 4.53757 0.0998163 4.58932 0.163849C4.69276 0.291827 4.83727 0.49734 4.98062 0.789794C5.26569 1.37137 5.55436 2.31332 5.49025 3.70102C5.46067 4.34122 5.24037 5.02079 4.89767 5.7732C4.64908 6.319 4.3515 6.87214 4.03491 7.46061C3.91183 7.68939 3.78587 7.92351 3.65881 8.16462C3.5565 8.35875 3.45404 8.55634 3.35304 8.75746C3.34891 8.7652 3.34499 8.77302 3.34128 8.78091C2.78096 9.89945 2.26763 11.1268 2.07771 12.4731C2.07522 12.4869 2.0733 12.5008 2.07194 12.5148C2.00466 13.0101 1.98137 13.5214 2.01576 14.0494C2.07961 15.03 2.24778 16.0601 2.46646 17.0622C2.67011 18.1168 3.26095 20.0377 3.52612 20.8543L3.52737 20.8581C3.80452 21.6897 4.06623 22.3949 4.25886 22.8926C4.35521 23.1416 4.43438 23.3389 4.48967 23.4745C4.51732 23.5423 4.53901 23.5947 4.5539 23.6304L4.57104 23.6713L4.5756 23.6821L4.5773 23.6861C4.65831 23.8764 4.84424 24 5.04989 24H18.9501C19.1558 24 19.3416 23.8766 19.4226 23.6863L18.9501 23.4824C19.4226 23.6863 19.4226 23.6863 19.4226 23.6863L19.4247 23.6815L19.4299 23.6692L19.4495 23.6222C19.4666 23.5812 19.4915 23.521 19.5231 23.4433C19.5862 23.2878 19.6764 23.0619 19.7853 22.7782C20.0029 22.2109 20.2958 21.4109 20.5973 20.4785C21.1976 18.6222 21.8437 16.2067 21.9842 14.0494C22.0246 13.4296 21.9855 12.8327 21.889 12.2578C21.8878 12.2494 21.8864 12.2411 21.8848 12.2328C21.6282 10.7311 20.9817 9.38 20.3412 8.16462C20.2141 7.92354 20.0882 7.68944 19.9651 7.46068C19.6485 6.87218 19.3509 6.31902 19.1023 5.77321C18.7596 5.02079 18.5393 4.34123 18.5098 3.70103C18.4456 2.31333 18.7343 1.37137 19.0193 0.789791C19.1627 0.497337 19.3072 0.291825 19.4106 0.163848C19.4624 0.0998154 19.5039 0.0551447 19.5299 0.02871C19.5429 0.0154953 19.552 0.00685108 19.5565 0.00263759L19.5585 0.000744257M19.5593 0L19.5585 0.000744257L19.5593 0ZM18.3003 0H12.2261L5.72607 9.22975e-05C5.76165 0.0648204 5.86726 0.259536 5.90263 0.331685C6.26489 1.07076 6.58948 2.18694 6.5173 3.74913C6.47874 4.58385 6.19651 5.40496 5.83226 6.20469C5.56837 6.78408 5.24597 7.38334 4.92318 7.98332C4.80354 8.20571 4.68384 8.4282 4.56704 8.64981C4.53077 8.71864 4.49469 8.78755 4.45886 8.85654C6.11866 10.0666 8.85271 10.8911 11.9999 10.8911C15.1472 10.8911 17.8813 10.0666 19.541 8.85641C19.5052 8.78746 19.4692 8.7186 19.4329 8.64981C19.3161 8.42822 19.1965 8.20574 19.0768 7.98337C18.754 7.38338 18.4316 6.7841 18.1677 6.20469C17.8035 5.40495 17.5213 4.58384 17.4827 3.74912C17.4105 2.18693 17.7351 1.07076 18.0973 0.331688C18.1327 0.259539 18.2647 0.0647291 18.3003 0ZM20.0048 9.79415C18.1106 11.1134 15.205 11.9263 11.9999 11.9263C8.79482 11.9263 5.88935 11.1135 3.99516 9.79428C3.61282 10.6179 3.29825 11.4613 3.13958 12.3432L10.4561 18.0035C10.8194 18.2846 11.3129 18.4413 11.8211 18.4481C11.8719 18.4487 11.9225 18.4479 11.9726 18.4456L11.9785 18.4453C12.428 18.4236 12.8442 18.2834 13.1492 18.0475L20.816 12.1162C20.647 11.3161 20.3542 10.5469 20.0048 9.79415ZM20.9668 13.305L13.7756 18.8683C13.4074 19.1532 12.9693 19.3341 12.5141 19.4214V22.9648H18.6064C18.6641 22.8216 18.7388 22.6328 18.8262 22.4052C19.0386 21.8513 19.325 21.0692 19.6196 20.158C20.2118 18.3269 20.8262 16.009 20.9583 13.9816C20.9732 13.7532 20.9756 13.5278 20.9668 13.305ZM11.4859 22.9648V19.4644C10.8953 19.4033 10.3079 19.1943 9.8296 18.8243L3.02812 13.5625C3.02812 13.7011 3.03255 13.8408 3.04173 13.9816C3.10132 14.8969 3.25992 15.8754 3.47201 16.8461L3.4748 16.8589C3.66313 17.8386 4.23458 19.7046 4.50278 20.5307C4.77351 21.343 5.02912 22.0317 5.21688 22.5168C5.28587 22.6951 5.34565 22.8457 5.39359 22.9648H11.4859ZM12 6.18398C12.2839 6.18398 12.5141 6.41571 12.5141 6.70157V8.17901C12.5141 8.46487 12.2839 8.6966 12 8.6966C11.7161 8.6966 11.4859 8.46487 11.4859 8.17901V6.70157C11.4859 6.41571 11.7161 6.18398 12 6.18398Z" fill="#A96FE7"/>
<path id="Union" fill-rule="evenodd" clip-rule="evenodd" d="M3.31897 4.35895C3.25199 4.42937 3.21435 4.52489 3.21433 4.62449C3.21435 4.69877 3.2353 4.77137 3.27455 4.83312C3.31379 4.89487 3.36956 4.94299 3.43482 4.97141C3.50007 4.99984 3.57187 5.00727 3.64114 4.99279C3.71041 4.9783 3.77404 4.94254 3.82398 4.89003L4.89543 3.76327C4.96239 3.69284 5 3.59732 5 3.49773C5 3.39814 4.96239 3.30263 4.89543 3.23219L3.82398 2.10543C3.75663 2.03702 3.66641 1.99916 3.57277 2.00001C3.47912 2.00087 3.38954 2.04037 3.32333 2.11001C3.25711 2.17964 3.21955 2.27385 3.21873 2.37232C3.21792 2.4708 3.25392 2.56568 3.31898 2.63651L3.78348 3.125L0.422091 3.125C0.310148 3.125 0.202788 3.16451 0.123632 3.23483C0.0444755 3.30516 6.13766e-06 3.40054 6.13332e-06 3.5C6.12897e-06 3.59946 0.0444755 3.69484 0.123632 3.76517C0.202788 3.83549 0.310148 3.875 0.422091 3.875L3.77917 3.875L3.31897 4.35895Z" fill="#A96FE7"/>
<path id="Union_2" fill-rule="evenodd" clip-rule="evenodd" d="M20.681 2.64105C20.748 2.57063 20.7856 2.47511 20.7857 2.37551C20.7857 2.30123 20.7647 2.22863 20.7255 2.16688C20.6862 2.10513 20.6304 2.05701 20.5652 2.02858C20.4999 2.00016 20.4281 1.99273 20.3589 2.00721C20.2896 2.0217 20.226 2.05746 20.176 2.10997L19.1046 3.23673C19.0376 3.30716 19 3.40268 19 3.50227C19 3.60186 19.0376 3.69737 19.1046 3.76781L20.176 4.89457C20.2434 4.96298 20.3336 5.00084 20.4272 4.99999C20.5209 4.99913 20.6105 4.95963 20.6767 4.88999C20.7429 4.82036 20.7805 4.72615 20.7813 4.62768C20.7821 4.5292 20.7461 4.43432 20.681 4.36349L20.2165 3.875L23.5779 3.875C23.6899 3.875 23.7972 3.83549 23.8764 3.76517C23.9555 3.69484 24 3.59946 24 3.5C24 3.40054 23.9555 3.30516 23.8764 3.23483C23.7972 3.16451 23.6899 3.125 23.5779 3.125L20.2208 3.125L20.681 2.64105Z" fill="#A96FE7"/>
</g>
</svg>
