<svg width="24" height="23" viewBox="0 0 24 23" fill="none" xmlns="http://www.w3.org/2000/svg">
<g id="Dermis">
<path id="Oval_73_" d="M1.875 15C2.08211 15 2.25 14.8321 2.25 14.625C2.25 14.4179 2.08211 14.25 1.875 14.25C1.66789 14.25 1.5 14.4179 1.5 14.625C1.5 14.8321 1.66789 15 1.875 15Z" fill="#A96FE7"/>
<path id="Oval_72_" d="M4.875 15C5.08211 15 5.25 14.8321 5.25 14.625C5.25 14.4179 5.08211 14.25 4.875 14.25C4.66789 14.25 4.5 14.4179 4.5 14.625C4.5 14.8321 4.66789 15 4.875 15Z" fill="#A96FE7"/>
<path id="Oval_71_" d="M0.375 16.5C0.582107 16.5 0.75 16.3321 0.75 16.125C0.75 15.9179 0.582107 15.75 0.375 15.75C0.167893 15.75 0 15.9179 0 16.125C0 16.3321 0.167893 16.5 0.375 16.5Z" fill="#A96FE7"/>
<path id="Oval_70_" d="M3.375 16.5C3.58211 16.5 3.75 16.3321 3.75 16.125C3.75 15.9179 3.58211 15.75 3.375 15.75C3.16789 15.75 3 15.9179 3 16.125C3 16.3321 3.16789 16.5 3.375 16.5Z" fill="#A96FE7"/>
<path id="Oval_69_" d="M1.875 18C2.08211 18 2.25 17.8321 2.25 17.625C2.25 17.4179 2.08211 17.25 1.875 17.25C1.66789 17.25 1.5 17.4179 1.5 17.625C1.5 17.8321 1.66789 18 1.875 18Z" fill="#A96FE7"/>
<path id="Oval_68_" d="M4.875 18C5.08211 18 5.25 17.8321 5.25 17.625C5.25 17.4179 5.08211 17.25 4.875 17.25C4.66789 17.25 4.5 17.4179 4.5 17.625C4.5 17.8321 4.66789 18 4.875 18Z" fill="#A96FE7"/>
<path id="Oval_67_" d="M0.375 19.5C0.582107 19.5 0.75 19.3321 0.75 19.125C0.75 18.9179 0.582107 18.75 0.375 18.75C0.167893 18.75 0 18.9179 0 19.125C0 19.3321 0.167893 19.5 0.375 19.5Z" fill="#A96FE7"/>
<path id="Oval_66_" d="M3.375 19.5C3.58211 19.5 3.75 19.3321 3.75 19.125C3.75 18.9179 3.58211 18.75 3.375 18.75C3.16789 18.75 3 18.9179 3 19.125C3 19.3321 3.16789 19.5 3.375 19.5Z" fill="#A96FE7"/>
<path id="Oval_65_" d="M6.375 19.5C6.58211 19.5 6.75 19.3321 6.75 19.125C6.75 18.9179 6.58211 18.75 6.375 18.75C6.16789 18.75 6 18.9179 6 19.125C6 19.3321 6.16789 19.5 6.375 19.5Z" fill="#A96FE7"/>
<path id="Oval_64_" d="M1.875 21C2.08211 21 2.25 20.8321 2.25 20.625C2.25 20.4179 2.08211 20.25 1.875 20.25C1.66789 20.25 1.5 20.4179 1.5 20.625C1.5 20.8321 1.66789 21 1.875 21Z" fill="#A96FE7"/>
<path id="Oval_63_" d="M4.875 21C5.08211 21 5.25 20.8321 5.25 20.625C5.25 20.4179 5.08211 20.25 4.875 20.25C4.66789 20.25 4.5 20.4179 4.5 20.625C4.5 20.8321 4.66789 21 4.875 21Z" fill="#A96FE7"/>
<path id="Oval_62_" d="M7.875 21C8.08211 21 8.25 20.8321 8.25 20.625C8.25 20.4179 8.08211 20.25 7.875 20.25C7.66789 20.25 7.5 20.4179 7.5 20.625C7.5 20.8321 7.66789 21 7.875 21Z" fill="#A96FE7"/>
<path id="Oval_61_" d="M10.5 21C10.7071 21 10.875 20.8321 10.875 20.625C10.875 20.4179 10.7071 20.25 10.5 20.25C10.2929 20.25 10.125 20.4179 10.125 20.625C10.125 20.8321 10.2929 21 10.5 21Z" fill="#A96FE7"/>
<path id="Oval_60_" d="M13.5 21C13.7071 21 13.875 20.8321 13.875 20.625C13.875 20.4179 13.7071 20.25 13.5 20.25C13.2929 20.25 13.125 20.4179 13.125 20.625C13.125 20.8321 13.2929 21 13.5 21Z" fill="#A96FE7"/>
<path id="Oval_59_" d="M22.125 15C22.3321 15 22.5 14.8321 22.5 14.625C22.5 14.4179 22.3321 14.25 22.125 14.25C21.9179 14.25 21.75 14.4179 21.75 14.625C21.75 14.8321 21.9179 15 22.125 15Z" fill="#A96FE7"/>
<path id="Oval_58_" d="M19.125 15C19.3321 15 19.5 14.8321 19.5 14.625C19.5 14.4179 19.3321 14.25 19.125 14.25C18.9179 14.25 18.75 14.4179 18.75 14.625C18.75 14.8321 18.9179 15 19.125 15Z" fill="#A96FE7"/>
<path id="Oval_57_" d="M23.625 16.5C23.8321 16.5 24 16.3321 24 16.125C24 15.9179 23.8321 15.75 23.625 15.75C23.4179 15.75 23.25 15.9179 23.25 16.125C23.25 16.3321 23.4179 16.5 23.625 16.5Z" fill="#A96FE7"/>
<path id="Oval_56_" d="M20.625 16.5C20.8321 16.5 21 16.3321 21 16.125C21 15.9179 20.8321 15.75 20.625 15.75C20.4179 15.75 20.25 15.9179 20.25 16.125C20.25 16.3321 20.4179 16.5 20.625 16.5Z" fill="#A96FE7"/>
<path id="Oval_55_" d="M22.125 18C22.3321 18 22.5 17.8321 22.5 17.625C22.5 17.4179 22.3321 17.25 22.125 17.25C21.9179 17.25 21.75 17.4179 21.75 17.625C21.75 17.8321 21.9179 18 22.125 18Z" fill="#A96FE7"/>
<path id="Oval_54_" d="M19.125 18C19.3321 18 19.5 17.8321 19.5 17.625C19.5 17.4179 19.3321 17.25 19.125 17.25C18.9179 17.25 18.75 17.4179 18.75 17.625C18.75 17.8321 18.9179 18 19.125 18Z" fill="#A96FE7"/>
<path id="Oval_53_" d="M23.625 19.5C23.8321 19.5 24 19.3321 24 19.125C24 18.9179 23.8321 18.75 23.625 18.75C23.4179 18.75 23.25 18.9179 23.25 19.125C23.25 19.3321 23.4179 19.5 23.625 19.5Z" fill="#A96FE7"/>
<path id="Oval_52_" d="M20.625 19.5C20.8321 19.5 21 19.3321 21 19.125C21 18.9179 20.8321 18.75 20.625 18.75C20.4179 18.75 20.25 18.9179 20.25 19.125C20.25 19.3321 20.4179 19.5 20.625 19.5Z" fill="#A96FE7"/>
<path id="Oval_51_" d="M17.625 19.5C17.8321 19.5 18 19.3321 18 19.125C18 18.9179 17.8321 18.75 17.625 18.75C17.4179 18.75 17.25 18.9179 17.25 19.125C17.25 19.3321 17.4179 19.5 17.625 19.5Z" fill="#A96FE7"/>
<path id="Oval_49_" d="M22.125 21C22.3321 21 22.5 20.8321 22.5 20.625C22.5 20.4179 22.3321 20.25 22.125 20.25C21.9179 20.25 21.75 20.4179 21.75 20.625C21.75 20.8321 21.9179 21 22.125 21Z" fill="#A96FE7"/>
<path id="Oval_48_" d="M19.125 21C19.3321 21 19.5 20.8321 19.5 20.625C19.5 20.4179 19.3321 20.25 19.125 20.25C18.9179 20.25 18.75 20.4179 18.75 20.625C18.75 20.8321 18.9179 21 19.125 21Z" fill="#A96FE7"/>
<path id="Oval_47_" d="M16.125 21C16.3321 21 16.5 20.8321 16.5 20.625C16.5 20.4179 16.3321 20.25 16.125 20.25C15.9179 20.25 15.75 20.4179 15.75 20.625C15.75 20.8321 15.9179 21 16.125 21Z" fill="#A96FE7"/>
<path id="Oval_45_" d="M3.375 22.5C3.58211 22.5 3.75 22.3321 3.75 22.125C3.75 21.9179 3.58211 21.75 3.375 21.75C3.16789 21.75 3 21.9179 3 22.125C3 22.3321 3.16789 22.5 3.375 22.5Z" fill="#A96FE7"/>
<path id="Oval_44_" d="M6.375 22.5C6.58211 22.5 6.75 22.3321 6.75 22.125C6.75 21.9179 6.58211 21.75 6.375 21.75C6.16789 21.75 6 21.9179 6 22.125C6 22.3321 6.16789 22.5 6.375 22.5Z" fill="#A96FE7"/>
<path id="Oval_43_" d="M9.375 22.5C9.58211 22.5 9.75 22.3321 9.75 22.125C9.75 21.9179 9.58211 21.75 9.375 21.75C9.16789 21.75 9 21.9179 9 22.125C9 22.3321 9.16789 22.5 9.375 22.5Z" fill="#A96FE7"/>
<path id="Oval_42_" d="M12 22.5C12.2071 22.5 12.375 22.3321 12.375 22.125C12.375 21.9179 12.2071 21.75 12 21.75C11.7929 21.75 11.625 21.9179 11.625 22.125C11.625 22.3321 11.7929 22.5 12 22.5Z" fill="#A96FE7"/>
<path id="Oval_39_" d="M20.625 22.5C20.8321 22.5 21 22.3321 21 22.125C21 21.9179 20.8321 21.75 20.625 21.75C20.4179 21.75 20.25 21.9179 20.25 22.125C20.25 22.3321 20.4179 22.5 20.625 22.5Z" fill="#A96FE7"/>
<path id="Oval_38_" d="M17.625 22.5C17.8321 22.5 18 22.3321 18 22.125C18 21.9179 17.8321 21.75 17.625 21.75C17.4179 21.75 17.25 21.9179 17.25 22.125C17.25 22.3321 17.4179 22.5 17.625 22.5Z" fill="#A96FE7"/>
<path id="Oval_37_" d="M14.625 22.5C14.8321 22.5 15 22.3321 15 22.125C15 21.9179 14.8321 21.75 14.625 21.75C14.4179 21.75 14.25 21.9179 14.25 22.125C14.25 22.3321 14.4179 22.5 14.625 22.5Z" fill="#A96FE7"/>
<path id="Shape_23_" d="M23.6062 11.625H16.6157C16.4751 11.625 16.3438 11.6987 16.2735 11.8139C16.2032 11.929 16.1985 12.0764 16.2594 12.2008C17.3096 14.1861 16.7986 16.6229 15.0311 18.0371C13.2635 19.4512 10.7318 19.4512 8.96894 18.0371C7.2061 16.6229 6.69037 14.1861 7.74057 12.2008C7.80621 12.081 7.80152 11.9336 7.72651 11.8139C7.65618 11.6941 7.52491 11.625 7.38426 11.625H0.398515C0.17816 11.625 0 11.8 0 12.0165C0 12.233 0.17816 12.4081 0.398515 12.4081H6.77007C5.87927 14.6974 6.6388 17.2954 8.63137 18.7695C10.624 20.2435 13.376 20.2435 15.3686 18.7695C17.3612 17.2954 18.1207 14.6974 17.2299 12.4081H23.6015C23.8218 12.4081 24 12.233 24 12.0165C24 11.8 23.8265 11.625 23.6062 11.625Z" fill="#A96FE7"/>
<path id="Shape_22_" d="M14.3072 0.288188C13.0901 1.73426 11.4785 4.38456 10.7328 8.79187C10.5308 9.84804 10.0208 10.8203 9.27998 11.5853C7.93777 13.0166 7.9041 15.272 9.1982 16.7477C10.4923 18.2234 12.6812 18.4208 14.211 17.2018C15.7408 15.9827 16.092 13.7569 15.0144 12.1035C14.1677 10.8795 13.7877 9.37424 13.9512 7.88375C14.1966 5.57893 14.7739 3.32345 15.6735 1.1963C15.8467 0.816274 15.7168 0.362219 15.3752 0.135191C15.0289 -0.0918373 14.5766 -0.0276772 14.3072 0.288188ZM13.1382 7.77517C12.9554 9.46801 13.3788 11.1757 14.3265 12.5724C15.1636 13.8556 14.8893 15.5879 13.7011 16.5355C12.5128 17.4831 10.8098 17.3301 9.80435 16.1801C8.79409 15.0302 8.82296 13.2781 9.86689 12.1627C10.7232 11.2793 11.3053 10.154 11.541 8.93499C12.2578 4.72017 13.7829 2.20312 14.9326 0.836016C13.9945 3.04707 13.3932 5.38645 13.1382 7.77517Z" fill="#A96FE7"/>
</g>
</svg>
