<svg width="24" height="24" viewBox="0 0 24 24" fill="none" xmlns="http://www.w3.org/2000/svg">
<g id="skin icon">
<g id="Dermis">
<path id="Oval_64_" d="M2 22C2.27614 22 2.5 21.7761 2.5 21.5C2.5 21.2239 2.27614 21 2 21C1.72386 21 1.5 21.2239 1.5 21.5C1.5 21.7761 1.72386 22 2 22Z" fill="#A96FE7"/>
<path id="Oval_63_" d="M5 22C5.27614 22 5.5 21.7761 5.5 21.5C5.5 21.2239 5.27614 21 5 21C4.72386 21 4.5 21.2239 4.5 21.5C4.5 21.7761 4.72386 22 5 22Z" fill="#A96FE7"/>
<path id="Oval_62_" d="M8 22C8.27614 22 8.5 21.7761 8.5 21.5C8.5 21.2239 8.27614 21 8 21C7.72386 21 7.5 21.2239 7.5 21.5C7.5 21.7761 7.72386 22 8 22Z" fill="#A96FE7"/>
<path id="Oval_61_" d="M11 22C11.2761 22 11.5 21.7761 11.5 21.5C11.5 21.2239 11.2761 21 11 21C10.7239 21 10.5 21.2239 10.5 21.5C10.5 21.7761 10.7239 22 11 22Z" fill="#A96FE7"/>
<path id="Oval_60_" d="M14 22C14.2761 22 14.5 21.7761 14.5 21.5C14.5 21.2239 14.2761 21 14 21C13.7239 21 13.5 21.2239 13.5 21.5C13.5 21.7761 13.7239 22 14 22Z" fill="#A96FE7"/>
<path id="Oval_49_" d="M23 22C23.2761 22 23.5 21.7761 23.5 21.5C23.5 21.2239 23.2761 21 23 21C22.7239 21 22.5 21.2239 22.5 21.5C22.5 21.7761 22.7239 22 23 22Z" fill="#A96FE7"/>
<path id="Oval_48_" d="M20 22C20.2761 22 20.5 21.7761 20.5 21.5C20.5 21.2239 20.2761 21 20 21C19.7239 21 19.5 21.2239 19.5 21.5C19.5 21.7761 19.7239 22 20 22Z" fill="#A96FE7"/>
<path id="Oval_47_" d="M17 22C17.2761 22 17.5 21.7761 17.5 21.5C17.5 21.2239 17.2761 21 17 21C16.7239 21 16.5 21.2239 16.5 21.5C16.5 21.7761 16.7239 22 17 22Z" fill="#A96FE7"/>
<path id="Oval_64__2" d="M2 18C2.27614 18 2.5 17.7761 2.5 17.5C2.5 17.2239 2.27614 17 2 17C1.72386 17 1.5 17.2239 1.5 17.5C1.5 17.7761 1.72386 18 2 18Z" fill="#A96FE7"/>
<path id="Oval_63__2" d="M5 18C5.27614 18 5.5 17.7761 5.5 17.5C5.5 17.2239 5.27614 17 5 17C4.72386 17 4.5 17.2239 4.5 17.5C4.5 17.7761 4.72386 18 5 18Z" fill="#A96FE7"/>
<path id="Oval_62__2" d="M8 18C8.27614 18 8.5 17.7761 8.5 17.5C8.5 17.2239 8.27614 17 8 17C7.72386 17 7.5 17.2239 7.5 17.5C7.5 17.7761 7.72386 18 8 18Z" fill="#A96FE7"/>
<path id="Oval_61__2" d="M11 18C11.2761 18 11.5 17.7761 11.5 17.5C11.5 17.2239 11.2761 17 11 17C10.7239 17 10.5 17.2239 10.5 17.5C10.5 17.7761 10.7239 18 11 18Z" fill="#A96FE7"/>
<path id="Oval_60__2" d="M14 18C14.2761 18 14.5 17.7761 14.5 17.5C14.5 17.2239 14.2761 17 14 17C13.7239 17 13.5 17.2239 13.5 17.5C13.5 17.7761 13.7239 18 14 18Z" fill="#A96FE7"/>
<path id="Oval_49__2" d="M23 18C23.2761 18 23.5 17.7761 23.5 17.5C23.5 17.2239 23.2761 17 23 17C22.7239 17 22.5 17.2239 22.5 17.5C22.5 17.7761 22.7239 18 23 18Z" fill="#A96FE7"/>
<path id="Oval_48__2" d="M20 18C20.2761 18 20.5 17.7761 20.5 17.5C20.5 17.2239 20.2761 17 20 17C19.7239 17 19.5 17.2239 19.5 17.5C19.5 17.7761 19.7239 18 20 18Z" fill="#A96FE7"/>
<path id="Oval_47__2" d="M17 18C17.2761 18 17.5 17.7761 17.5 17.5C17.5 17.2239 17.2761 17 17 17C16.7239 17 16.5 17.2239 16.5 17.5C16.5 17.7761 16.7239 18 17 18Z" fill="#A96FE7"/>
<path id="Oval_45_" d="M3.5 24C3.77614 24 4 23.7761 4 23.5C4 23.2239 3.77614 23 3.5 23C3.22386 23 3 23.2239 3 23.5C3 23.7761 3.22386 24 3.5 24Z" fill="#A96FE7"/>
<path id="Oval_44_" d="M6.5 24C6.77614 24 7 23.7761 7 23.5C7 23.2239 6.77614 23 6.5 23C6.22386 23 6 23.2239 6 23.5C6 23.7761 6.22386 24 6.5 24Z" fill="#A96FE7"/>
<path id="Oval_43_" d="M9.5 24C9.77614 24 10 23.7761 10 23.5C10 23.2239 9.77614 23 9.5 23C9.22386 23 9 23.2239 9 23.5C9 23.7761 9.22386 24 9.5 24Z" fill="#A96FE7"/>
<path id="Oval_42_" d="M12.5 24C12.7761 24 13 23.7761 13 23.5C13 23.2239 12.7761 23 12.5 23C12.2239 23 12 23.2239 12 23.5C12 23.7761 12.2239 24 12.5 24Z" fill="#A96FE7"/>
<path id="Oval_39_" d="M21.5 24C21.7761 24 22 23.7761 22 23.5C22 23.2239 21.7761 23 21.5 23C21.2239 23 21 23.2239 21 23.5C21 23.7761 21.2239 24 21.5 24Z" fill="#A96FE7"/>
<path id="Oval_38_" d="M18.5 24C18.7761 24 19 23.7761 19 23.5C19 23.2239 18.7761 23 18.5 23C18.2239 23 18 23.2239 18 23.5C18 23.7761 18.2239 24 18.5 24Z" fill="#A96FE7"/>
<path id="Oval_37_" d="M15.5 24C15.7761 24 16 23.7761 16 23.5C16 23.2239 15.7761 23 15.5 23C15.2239 23 15 23.2239 15 23.5C15 23.7761 15.2239 24 15.5 24Z" fill="#A96FE7"/>
<path id="Oval_46_" d="M0.5 20C0.776142 20 1 19.7761 1 19.5C1 19.2239 0.776142 19 0.5 19C0.223858 19 0 19.2239 0 19.5C0 19.7761 0.223858 20 0.5 20Z" fill="#A96FE7"/>
<path id="Oval_45__2" d="M3.5 20C3.77614 20 4 19.7761 4 19.5C4 19.2239 3.77614 19 3.5 19C3.22386 19 3 19.2239 3 19.5C3 19.7761 3.22386 20 3.5 20Z" fill="#A96FE7"/>
<path id="Oval_44__2" d="M6.5 20C6.77614 20 7 19.7761 7 19.5C7 19.2239 6.77614 19 6.5 19C6.22386 19 6 19.2239 6 19.5C6 19.7761 6.22386 20 6.5 20Z" fill="#A96FE7"/>
<path id="Oval_43__2" d="M9.5 20C9.77614 20 10 19.7761 10 19.5C10 19.2239 9.77614 19 9.5 19C9.22386 19 9 19.2239 9 19.5C9 19.7761 9.22386 20 9.5 20Z" fill="#A96FE7"/>
<path id="Oval_42__2" d="M12.5 20C12.7761 20 13 19.7761 13 19.5C13 19.2239 12.7761 19 12.5 19C12.2239 19 12 19.2239 12 19.5C12 19.7761 12.2239 20 12.5 20Z" fill="#A96FE7"/>
<path id="Oval_39__2" d="M21.5 20C21.7761 20 22 19.7761 22 19.5C22 19.2239 21.7761 19 21.5 19C21.2239 19 21 19.2239 21 19.5C21 19.7761 21.2239 20 21.5 20Z" fill="#A96FE7"/>
<path id="Oval_38__2" d="M18.5 20C18.7761 20 19 19.7761 19 19.5C19 19.2239 18.7761 19 18.5 19C18.2239 19 18 19.2239 18 19.5C18 19.7761 18.2239 20 18.5 20Z" fill="#A96FE7"/>
<path id="Oval_37__2" d="M15.5 20C15.7761 20 16 19.7761 16 19.5C16 19.2239 15.7761 19 15.5 19C15.2239 19 15 19.2239 15 19.5C15 19.7761 15.2239 20 15.5 20Z" fill="#A96FE7"/>
<path id="Oval_46__2" d="M0.5 16C0.776142 16 1 15.7761 1 15.5C1 15.2239 0.776142 15 0.5 15C0.223858 15 0 15.2239 0 15.5C0 15.7761 0.223858 16 0.5 16Z" fill="#A96FE7"/>
<path id="Oval_45__3" d="M3.5 16C3.77614 16 4 15.7761 4 15.5C4 15.2239 3.77614 15 3.5 15C3.22386 15 3 15.2239 3 15.5C3 15.7761 3.22386 16 3.5 16Z" fill="#A96FE7"/>
<path id="Oval_44__3" d="M6.5 16C6.77614 16 7 15.7761 7 15.5C7 15.2239 6.77614 15 6.5 15C6.22386 15 6 15.2239 6 15.5C6 15.7761 6.22386 16 6.5 16Z" fill="#A96FE7"/>
<path id="Oval_43__3" d="M9.5 16C9.77614 16 10 15.7761 10 15.5C10 15.2239 9.77614 15 9.5 15C9.22386 15 9 15.2239 9 15.5C9 15.7761 9.22386 16 9.5 16Z" fill="#A96FE7"/>
<path id="Oval_42__3" d="M12.5 16C12.7761 16 13 15.7761 13 15.5C13 15.2239 12.7761 15 12.5 15C12.2239 15 12 15.2239 12 15.5C12 15.7761 12.2239 16 12.5 16Z" fill="#A96FE7"/>
<path id="Oval_39__3" d="M21.5 16C21.7761 16 22 15.7761 22 15.5C22 15.2239 21.7761 15 21.5 15C21.2239 15 21 15.2239 21 15.5C21 15.7761 21.2239 16 21.5 16Z" fill="#A96FE7"/>
<path id="Oval_38__3" d="M18.5 16C18.7761 16 19 15.7761 19 15.5C19 15.2239 18.7761 15 18.5 15C18.2239 15 18 15.2239 18 15.5C18 15.7761 18.2239 16 18.5 16Z" fill="#A96FE7"/>
<path id="Oval_37__3" d="M15.5 16C15.7761 16 16 15.7761 16 15.5C16 15.2239 15.7761 15 15.5 15C15.2239 15 15 15.2239 15 15.5C15 15.7761 15.2239 16 15.5 16Z" fill="#A96FE7"/>
</g>
<path id="line" fill-rule="evenodd" clip-rule="evenodd" d="M17.6939 7.00174C16.5983 6.97409 15.5156 7.27676 14.5655 7.87844L14.5645 7.87908C13.7921 8.37383 12.9053 8.62422 12.0055 8.59948L11.9945 8.59948C11.0947 8.62405 10.208 8.37367 9.43548 7.87906L9.43449 7.87843C8.48438 7.27683 7.40171 6.97418 6.30612 7.00174C5.21076 6.97424 4.12834 7.2769 3.17847 7.87844L3.1775 7.87906C2.40479 8.37381 1.51783 8.6242 0.617734 8.59948L0.612245 8.5994C0.458674 8.5994 0.306372 8.66541 0.189927 8.79201C0.0725316 8.91965 0 9.10098 0 9.2988C0 9.49663 0.0725316 9.67795 0.189927 9.80559C0.305641 9.9314 0.456765 9.99737 0.609355 9.99819C1.70593 10.0264 2.78967 9.7237 3.74061 9.12157L3.74161 9.12094C4.51409 8.6263 5.4008 8.37591 6.30065 8.40053L6.31158 8.40053C7.21144 8.37595 8.09814 8.62634 8.87064 9.12094L8.87163 9.12157C9.82174 9.72317 10.9044 10.0258 12 9.99827C13.0955 10.0259 14.1781 9.72321 15.128 9.12156L15.129 9.12094C15.9016 8.62623 16.7884 8.37584 17.6884 8.40053L17.6994 8.40053C18.5995 8.37564 19.4865 8.62604 20.2591 9.12092L20.2601 9.12155C21.2108 9.72371 22.2943 10.0264 23.3907 9.99819C23.5432 9.99737 23.6944 9.9314 23.8101 9.80559C23.9275 9.67795 24 9.49662 24 9.2988C24 9.10098 23.9275 8.91965 23.8101 8.79201C23.6936 8.66541 23.5413 8.5994 23.3878 8.5994L23.3822 8.59948C22.4821 8.62436 21.5952 8.37396 20.8225 7.87908L20.8215 7.87845C19.8717 7.27687 18.7892 6.9742 17.6939 7.00174Z" fill="#A96FE7"/>
<path id="line_2" fill-rule="evenodd" clip-rule="evenodd" d="M17.6939 11.0017C16.5983 10.9741 15.5156 11.2768 14.5655 11.8784L14.5645 11.8791C13.7921 12.3738 12.9053 12.6242 12.0055 12.5995L11.9945 12.5995C11.0947 12.6241 10.208 12.3737 9.43548 11.8791L9.43449 11.8784C8.48438 11.2768 7.40171 10.9742 6.30612 11.0017C5.21076 10.9742 4.12834 11.2769 3.17847 11.8784L3.1775 11.8791C2.40479 12.3738 1.51783 12.6242 0.617734 12.5995L0.612245 12.5994C0.458674 12.5994 0.306372 12.6654 0.189927 12.792C0.0725316 12.9196 0 13.101 0 13.2988C0 13.4966 0.0725316 13.678 0.189927 13.8056C0.305641 13.9314 0.456765 13.9974 0.609355 13.9982C1.70593 14.0264 2.78967 13.7237 3.74061 13.1216L3.74161 13.1209C4.51409 12.6263 5.4008 12.3759 6.30065 12.4005L6.31158 12.4005C7.21144 12.376 8.09814 12.6263 8.87064 13.1209L8.87163 13.1216C9.82174 13.7232 10.9044 14.0258 12 13.9983C13.0955 14.0259 14.1781 13.7232 15.128 13.1216L15.129 13.1209C15.9016 12.6262 16.7884 12.3758 17.6884 12.4005L17.6994 12.4005C18.5995 12.3756 19.4865 12.626 20.2591 13.1209L20.2601 13.1216C21.2108 13.7237 22.2943 14.0264 23.3907 13.9982C23.5432 13.9974 23.6944 13.9314 23.8101 13.8056C23.9275 13.678 24 13.4966 24 13.2988C24 13.101 23.9275 12.9196 23.8101 12.792C23.6936 12.6654 23.5413 12.5994 23.3878 12.5994L23.3822 12.5995C22.4821 12.6244 21.5952 12.374 20.8225 11.8791L20.8215 11.8784C19.8717 11.2769 18.7892 10.9742 17.6939 11.0017Z" fill="#A96FE7"/>
<path id="Union" fill-rule="evenodd" clip-rule="evenodd" d="M4.64105 3.31897C4.57063 3.25199 4.47511 3.21435 4.37551 3.21433C4.30123 3.21435 4.22863 3.2353 4.16688 3.27455C4.10513 3.31379 4.05701 3.36956 4.02859 3.43481C4.00016 3.50007 3.99273 3.57186 4.00721 3.64114C4.0217 3.71041 4.05746 3.77404 4.10997 3.82398L5.23673 4.89543C5.30716 4.96239 5.40268 5 5.50227 5C5.60186 5 5.69737 4.96239 5.76781 4.89543L6.89457 3.82398C6.96298 3.75663 7.00084 3.66641 6.99999 3.57277C6.99913 3.47912 6.95963 3.38954 6.88999 3.32333C6.82036 3.25711 6.72615 3.21955 6.62768 3.21873C6.5292 3.21792 6.43432 3.25392 6.36349 3.31898L5.875 3.78348L5.875 0.422091C5.875 0.310148 5.83549 0.202788 5.76517 0.123632C5.69484 0.0444754 5.59946 6.07644e-06 5.5 6.06775e-06C5.40054 6.05905e-06 5.30516 0.0444754 5.23483 0.123632C5.16451 0.202788 5.125 0.310148 5.125 0.422091L5.125 3.77917L4.64105 3.31897Z" fill="#A96FE7"/>
<path id="Union_2" fill-rule="evenodd" clip-rule="evenodd" d="M17.641 3.319C17.5706 3.25202 17.4751 3.21438 17.3755 3.21436C17.3012 3.21438 17.2286 3.23533 17.1669 3.27458C17.1051 3.31382 17.057 3.36959 17.0286 3.43484C17.0002 3.50009 16.9927 3.57189 17.0072 3.64116C17.0217 3.71043 17.0575 3.77406 17.11 3.824L18.2367 4.89543C18.3072 4.96239 18.4027 5 18.5023 5C18.6019 5 18.6974 4.96239 18.7678 4.89543L19.8946 3.824C19.963 3.75665 20.0008 3.66643 20 3.57279C19.9991 3.47915 19.9596 3.38957 19.89 3.32336C19.8204 3.25714 19.7262 3.21958 19.6277 3.21876C19.5292 3.21795 19.4343 3.25395 19.3635 3.319L18.875 3.7835L18.875 0.422104C18.875 0.310162 18.8355 0.202804 18.7652 0.123649C18.6948 0.0444945 18.5995 2.56268e-05 18.5 2.56181e-05C18.4005 2.56094e-05 18.3052 0.0444945 18.2348 0.123649C18.1645 0.202804 18.125 0.310162 18.125 0.422104L18.125 3.77919L17.641 3.319Z" fill="#A96FE7"/>
</g>
</svg>
