<svg width="54" height="64" viewBox="0 0 54 64" fill="none" xmlns="http://www.w3.org/2000/svg">
<g id="Group">
<g id="Ellipse 1">
<ellipse cx="27" cy="28" rx="12" ry="9" fill="white"/>
<ellipse cx="27" cy="28" rx="12" ry="9" fill="#EBFF0D" fill-opacity="0.5"/>
<ellipse cx="27" cy="28" rx="12" ry="9" stroke="#101828" stroke-miterlimit="4.80973" stroke-linecap="round" stroke-linejoin="round" stroke-dasharray="2 4"/>
</g>
<path id="Vector" d="M2.3176 64H0C0 58.3837 5.33047 56.0913 10.4292 53.7989C15.7597 51.5065 20.7425 49.2141 20.7425 43.827H23.0601C23.0601 50.7042 16.8026 53.455 11.3562 55.862C6.48927 58.0398 2.3176 59.8737 2.3176 64Z" fill="#101828"/>
<path id="Vector_2" d="M54 64H51.6824C51.6824 59.8737 47.5108 58.0398 42.6438 55.862C37.1975 53.455 30.9399 50.7042 30.9399 43.827H33.2575C33.2575 49.2141 38.2404 51.3919 43.5708 53.7989C48.6696 56.0913 54 58.3837 54 64Z" fill="#101828"/>
<path id="Vector_3" d="M39.5151 62.3953H14.3692C12.0516 62.3953 9.96572 61.0199 9.03868 58.9568L7.87988 56.2059L9.96572 55.2889L11.1245 58.0398C11.7039 59.3006 12.8627 60.103 14.2533 60.103H39.3992C40.7898 60.103 42.0644 59.3006 42.528 58.0398L43.6867 55.2889L45.7726 56.2059L44.6138 58.9568C43.9185 61.0199 41.8327 62.3953 39.5151 62.3953Z" fill="#101828"/>
<path id="Vector_4" d="M39.7469 40.6177C38.9357 40.6177 38.1246 40.5031 37.3134 40.3884L37.6611 38.0961C41.7169 38.7838 42.8757 37.523 43.5709 36.1476C44.1503 35.116 44.0345 34.199 43.8027 32.0213C43.6868 31.4482 43.6868 30.7604 43.5709 29.9581C43.3392 26.8634 43.8027 25.2587 44.2662 23.7687C44.6139 22.5078 44.9615 21.4763 44.9615 19.6423C44.9615 18.84 44.6139 11.7336 38.9357 7.49273C36.0387 5.31497 31.983 4.39799 30.5924 4.28337H30.3606L30.1289 4.16875C28.2748 3.02255 26.3048 2.44949 24.3349 2.33487C16.8027 1.87639 12.5151 6.1173 11.0087 7.9512C7.99583 11.619 6.95291 15.7453 7.87995 19.9862L7.99583 20.4447C8.22759 21.3617 8.45935 22.6225 8.45935 24.4564C8.34347 26.2903 7.87995 27.4365 7.53231 28.3534C7.30055 28.9265 7.18467 29.2704 7.18467 29.6142C7.06879 30.5312 7.41643 32.9382 9.15463 34.7721C10.6611 36.3768 12.8628 37.2937 15.8757 37.2937V39.5861C12.2834 39.5861 9.38639 38.4399 7.41643 36.3768C5.33059 34.0844 4.75119 30.9897 4.86707 29.385C4.98295 28.6973 5.09883 28.1242 5.44647 27.5511C5.79411 26.7488 6.14175 25.7172 6.14175 24.2271C6.25763 22.7371 6.02587 21.7055 5.79411 20.9032L5.67823 20.4447C4.63531 15.4015 5.90999 10.702 9.27051 6.46113C10.6611 4.85646 15.6439 -0.530615 24.5666 0.0424813C26.8842 0.157101 29.2018 0.844802 31.2877 2.10561C33.2576 2.33485 37.4293 3.36643 40.4422 5.65882C46.9314 10.5874 47.395 18.6108 47.395 19.5278C47.395 21.7055 47.0473 23.0809 46.6997 24.3417C46.2362 25.7172 45.8885 26.978 46.1203 29.6142C46.1203 30.4166 46.2362 30.9897 46.3521 31.5628C46.5838 33.7405 46.6997 35.2306 45.8885 36.9499C44.3821 39.93 42.0645 40.6177 39.7469 40.6177Z" fill="#101828"/>
<path id="Vector_5" d="M26.9999 46.1194C19.4677 46.1194 12.9784 39.7007 11.3561 30.4166L11.2402 29.7288L11.7038 29.2704C15.6437 25.9464 16.2231 23.3102 16.5707 19.9862C16.6866 19.0693 16.8025 18.1523 16.8025 17.4646C17.0342 14.4845 17.266 12.5359 19.0042 10.1289C19.4677 9.44123 20.8583 7.49269 23.2917 7.14883C25.8411 6.69036 28.2746 7.37808 30.2445 8.98275C32.5621 10.8167 34.3003 14.1406 35.1115 17.923C35.6909 15.9745 35.4591 14.5991 35.3432 13.6821C35.2274 12.8798 35.1115 11.8482 36.0385 11.3898C36.7338 11.0459 37.545 11.1605 38.472 11.7336C39.7467 12.5359 42.0643 14.7137 42.5278 20.6739C44.6136 21.1324 46.1201 23.3102 46.1201 26.061C46.1201 28.8119 44.4977 31.1043 42.4119 31.4481C40.5578 40.0446 34.3003 46.1194 26.9999 46.1194ZM13.6737 30.5312C15.296 38.2106 20.7424 43.7124 26.884 43.7124C33.2574 43.7124 38.8196 37.8668 40.2102 29.8435L40.442 28.6973L41.7166 28.9265C42.8754 28.9265 43.8025 27.4365 43.8025 25.8318C43.8025 24.1125 42.8754 22.7371 41.8325 22.7371H41.6007L40.3261 22.9663L40.2102 21.7055C39.9784 16.7769 38.5879 14.5991 37.545 13.7968C37.7767 15.5161 37.8926 18.4961 35.2274 22.5078L33.2574 25.4879L33.1415 21.9347C33.0256 17.0061 31.2874 12.6506 28.7381 10.5874C27.2317 9.44122 25.4935 8.98273 23.5235 9.32659C22.1329 9.55583 21.09 10.9313 20.7424 11.3898C19.3518 13.3383 19.2359 14.8283 19.0042 17.5792C18.8883 18.3815 18.8883 19.1838 18.7724 20.2154C18.4248 23.654 17.8454 26.8633 13.6737 30.5312Z" fill="#101828"/>
</g>
</svg>
