<svg width="54" height="64" viewBox="0 0 54 64" fill="none" xmlns="http://www.w3.org/2000/svg">
<g id="Group">
<path id="Vector" d="M2.3176 64H0C0 56.1647 5.21459 54.7182 9.84978 53.5127C15.0644 52.0662 19.5837 50.8608 19.5837 42.1816H21.9013C21.9013 52.7895 15.5279 54.4771 10.4292 55.803C5.90987 57.0085 2.3176 57.9728 2.3176 64Z" fill="#101828"/>
<path id="Vector_2" d="M53.9999 64H51.6823C51.6823 57.9729 48.0901 57.0085 43.5707 55.8031C38.472 54.4771 32.0986 52.6689 32.0986 42.1816H34.4162C34.4162 50.8608 38.9356 52.0662 44.1501 53.5127C48.7853 54.7182 53.9999 56.1647 53.9999 64Z" fill="#101828"/>
<path id="Vector_3" d="M27.0001 45.1952C19.6996 45.1952 13.4421 38.8064 11.588 29.6451C9.5022 29.2834 7.87988 26.8726 7.87988 23.9795C7.87988 21.0865 9.5022 18.6756 11.588 18.314C11.7039 17.9523 11.8198 17.4702 11.8198 17.1085L14.0215 17.7112C13.9056 18.314 13.6739 19.0372 13.558 19.7605L13.3262 20.9659L11.9357 20.7248C10.8928 20.7248 9.96572 22.2919 9.96572 23.9795C9.96572 25.6671 10.8928 27.2342 11.9357 27.2342L13.2104 26.9931L13.4421 28.1985C14.8327 36.6366 20.5108 42.7843 26.7683 42.7843C33.1417 42.7843 38.7039 36.6366 40.0945 28.1985L40.3262 26.9931L41.6009 27.2342C42.7597 27.2342 43.6867 25.6671 43.6867 23.9795C43.6867 22.1714 42.7597 20.7248 41.7168 20.7248H41.485L41.2533 19.5194L41.1374 18.314C41.2533 18.314 41.485 18.1934 41.6009 18.1934C44.0344 18.1934 45.8885 20.7248 45.8885 23.859C45.8885 26.752 44.2662 29.1629 42.1803 29.5245C40.558 38.8064 34.3005 45.1952 27.0001 45.1952Z" fill="#101828"/>
<path id="Vector_4" d="M13.3264 19.0372L12.3993 18.555C11.1247 17.8318 9.84999 15.7825 9.38647 13.4922C8.80707 10.4786 9.61823 7.58556 11.7041 5.17469C14.8328 1.43784 17.4981 1.0762 23.292 1.0762H23.4079C25.0302 1.0762 26.0732 0.835117 27.232 0.473486C28.7384 0.111855 30.1289 -0.249776 32.0989 0.232399C35.4594 1.19675 36.85 5.53632 37.1976 7.82665L37.3135 8.30882L36.9659 8.67046C34.1848 12.1662 30.0131 12.2868 25.9573 12.4073C23.4079 12.5279 20.9745 12.5279 19.0045 13.4922C16.3393 14.6976 15.2963 15.5414 14.0217 17.9523L13.3264 19.0372ZM23.292 3.48708C17.7298 3.48708 15.9916 3.84871 13.4423 6.74176C11.4723 9.03209 11.3564 11.443 11.7041 13.01C11.9358 14.0949 12.2835 14.9387 12.6311 15.5414C13.9058 13.6127 15.2963 12.5279 17.9616 11.443C20.2792 10.3581 23.0603 10.3581 25.7255 10.2375C29.2019 10.117 32.5624 9.99644 34.6483 7.70611C34.3006 6.13904 33.3736 3.24599 31.4036 2.64327C30.0131 2.28164 29.086 2.52273 27.6955 2.88436C26.6526 3.12545 25.262 3.48708 23.292 3.48708Z" fill="#101828"/>
<path id="Vector_5" d="M40.7897 21.9303L40.0944 20.7248C39.0515 18.9167 38.3562 17.7113 37.6609 16.5058C37.3133 15.9031 36.9656 15.3004 36.618 14.5771C35.3433 12.4073 34.7639 9.63483 34.7639 7.94722V7.22395L35.4592 6.86232C36.5021 6.38015 37.7768 6.2596 38.8197 6.38015C41.3691 6.74178 43.6867 8.67048 44.4978 11.3224C45.5407 14.4566 44.3819 18.4345 41.7167 20.9659L40.7897 21.9303ZM37.0815 8.91156C37.1974 10.2375 37.7768 12.0457 38.4721 13.4922C38.8197 14.2155 39.1674 14.8182 39.515 15.4209C39.9785 16.2647 40.442 17.1085 41.0214 18.1934C42.1802 16.5058 42.8755 14.2155 42.1802 12.2868C41.6008 10.5992 40.0944 9.15265 38.3562 9.03211C38.1244 8.67048 37.545 8.79102 37.0815 8.91156Z" fill="#101828"/>
<g id="Subtract">
<path fill-rule="evenodd" clip-rule="evenodd" d="M13.3828 18.9491C14.8539 23.5668 20.3923 27 27 27C32.8509 27 37.8636 24.308 39.9563 20.4854L37.6609 16.5058C37.3132 15.9031 36.9656 15.3004 36.618 14.5771C35.8643 13.2942 35.3537 11.8005 35.0622 10.445C32.4565 12.2142 29.1772 12.3116 25.9695 12.4069L25.9572 12.4073C25.6892 12.42 25.4225 12.4313 25.1574 12.4426C22.9013 12.5385 20.7673 12.6292 19.0045 13.4922C16.3392 14.6976 15.2963 15.5414 14.0216 17.9523L13.3828 18.9491Z" fill="white"/>
<path fill-rule="evenodd" clip-rule="evenodd" d="M13.3828 18.9491C14.8539 23.5668 20.3923 27 27 27C32.8509 27 37.8636 24.308 39.9563 20.4854L37.6609 16.5058C37.3132 15.9031 36.9656 15.3004 36.618 14.5771C35.8643 13.2942 35.3537 11.8005 35.0622 10.445C32.4565 12.2142 29.1772 12.3116 25.9695 12.4069L25.9572 12.4073C25.6892 12.42 25.4225 12.4313 25.1574 12.4426C22.9013 12.5385 20.7673 12.6292 19.0045 13.4922C16.3392 14.6976 15.2963 15.5414 14.0216 17.9523L13.3828 18.9491Z" fill="#EBFF0D" fill-opacity="0.5"/>
</g>
<path id="Vector_6" d="M27.0001 62.0712C22.5967 62.0712 18.5409 60.7453 15.0645 57.9727C13.9057 57.0084 12.7469 55.9235 11.8198 54.7181L13.558 53.151C14.3692 54.2359 15.4121 55.2002 16.455 56.0441C19.5838 58.4549 23.0602 59.6604 27.0001 59.6604C30.94 59.6604 34.5323 58.4549 37.5452 56.0441C38.5881 55.2002 39.631 54.2359 40.4422 53.151L42.1803 54.7181C41.2533 55.9235 40.0945 57.0084 38.9357 57.9727C35.4593 60.6247 31.4035 62.0712 27.0001 62.0712Z" fill="#101828"/>
<path id="Ellipse (Stroke)" fill-rule="evenodd" clip-rule="evenodd" d="M14.3976 21.1016C14.6212 20.9396 14.9338 20.9895 15.0958 21.2131C15.4864 21.7522 15.9429 22.2634 16.4585 22.7404C16.6612 22.9279 16.6735 23.2443 16.486 23.447C16.2984 23.6497 15.9821 23.662 15.7794 23.4744C15.2185 22.9555 14.7176 22.3954 14.2861 21.7999C14.124 21.5763 14.174 21.2637 14.3976 21.1016ZM39.6026 21.1016C39.8262 21.2637 39.8761 21.5763 39.7141 21.7999C39.2826 22.3954 38.7817 22.9555 38.2208 23.4744C38.0181 23.662 37.7017 23.6497 37.5142 23.447C37.3266 23.2443 37.3389 22.9279 37.5416 22.7404C38.0572 22.2634 38.5137 21.7522 38.9043 21.2131C39.0664 20.9895 39.379 20.9396 39.6026 21.1016ZM19.2416 25.2506C19.3569 24.9997 19.6538 24.8898 19.9047 25.0051C20.5212 25.2884 21.1712 25.5362 21.8496 25.7444C22.1136 25.8253 22.2619 26.105 22.1809 26.369C22.0999 26.633 21.8203 26.7814 21.5563 26.7004C20.8365 26.4795 20.1449 26.216 19.4871 25.9138C19.2362 25.7984 19.1263 25.5016 19.2416 25.2506ZM34.7586 25.2506C34.8739 25.5016 34.764 25.7984 34.513 25.9138C33.8553 26.216 33.1637 26.4795 32.4439 26.7004C32.1799 26.7814 31.9002 26.633 31.8192 26.369C31.7382 26.105 31.8866 25.8253 32.1506 25.7444C32.8289 25.5362 33.4789 25.2884 34.0955 25.0051C34.3464 24.8898 34.6433 24.9997 34.7586 25.2506ZM25.4258 26.9411C25.4415 26.6654 25.6778 26.4546 25.9535 26.4703C26.2988 26.49 26.6478 26.5 27.0001 26.5C27.3523 26.5 27.7014 26.49 28.0467 26.4703C28.3224 26.4546 28.5586 26.6654 28.5743 26.9411C28.59 27.2168 28.3793 27.453 28.1036 27.4687C27.7393 27.4894 27.3713 27.5 27.0001 27.5C26.6289 27.5 26.2609 27.4894 25.8966 27.4687C25.6209 27.453 25.4101 27.2168 25.4258 26.9411Z" fill="#101828"/>
</g>
</svg>
