<svg width="54" height="64" viewBox="0 0 54 64" fill="none" xmlns="http://www.w3.org/2000/svg">
<g id="Group">
<g id="Intersect">
<path fill-rule="evenodd" clip-rule="evenodd" d="M38.9305 38.9739C38.9764 38.654 39 38.3291 39 38C39 33.0294 33.6274 29 27 29C20.3726 29 15 33.0294 15 38C15 38.5432 15.0642 39.0752 15.1871 39.5919C18.1008 43.5823 22.263 46.0108 26.837 46.0108C31.6304 46.0108 35.9715 43.3438 38.9305 38.9739Z" fill="white"/>
<path fill-rule="evenodd" clip-rule="evenodd" d="M38.9305 38.9739C38.9764 38.654 39 38.3291 39 38C39 33.0294 33.6274 29 27 29C20.3726 29 15 33.0294 15 38C15 38.5432 15.0642 39.0752 15.1871 39.5919C18.1008 43.5823 22.263 46.0108 26.837 46.0108C31.6304 46.0108 35.9715 43.3438 38.9305 38.9739Z" fill="#d4b7f3" fill-opacity="0.5"/>
</g>
<path id="Vector" d="M26.837 46.0108C19.5807 46.0108 13.3609 39.8991 11.518 31.1351C9.4448 30.7892 7.83228 28.4829 7.83228 25.7153C7.83228 22.9477 9.4448 20.6414 11.518 20.2955C11.7484 19.2576 11.9788 18.3351 12.3243 17.4126L14.5127 18.2198C14.1672 19.2576 13.8217 20.4108 13.5913 21.6793L13.3609 22.8324L12.0939 22.6018C10.9421 22.6018 10.0207 24.1009 10.0207 25.7153C10.0207 27.445 10.9421 28.8288 11.9788 28.8288H12.2091L13.3609 28.5982L13.5913 29.7513C14.9735 37.8234 20.6173 43.7045 26.837 43.7045C33.1719 43.7045 38.7006 37.8234 40.0828 29.7513L40.3131 28.5982L41.6953 28.8288C42.7319 28.8288 43.6533 27.3297 43.6533 25.7153C43.6533 23.9856 42.7319 22.6018 41.6953 22.6018L40.4283 22.8324L40.1979 21.6793C39.9676 20.6414 39.7372 19.6036 39.3917 18.5658L41.5801 17.7585C41.8105 18.5657 42.0408 19.373 42.2712 20.1802C44.3444 20.5261 45.9569 22.8324 45.9569 25.6C45.9569 28.3675 44.3444 30.6738 42.2712 31.0198C40.3131 39.8991 34.0934 46.0108 26.837 46.0108Z" fill="#A96FE7"/>
<path id="Vector_2" d="M2.30361 63.9999H0C0 58.3495 5.29829 56.0432 10.3662 53.7369C15.6645 51.4305 20.6173 49.1242 20.6173 43.7044H22.9209C22.9209 50.6233 16.7011 53.3909 11.2877 55.8125C6.4501 58.0035 2.30361 59.8486 2.30361 63.9999Z" fill="#A96FE7"/>
<path id="Vector_3" d="M53.6738 63.9998H51.3702C51.3702 59.8485 47.2237 58.0034 42.3861 55.8125C36.9727 53.3908 30.7529 50.6233 30.7529 43.7043H33.0565C33.0565 49.1242 38.0093 51.3152 43.3076 53.7368C48.3755 55.9278 53.6738 58.3494 53.6738 63.9998Z" fill="#A96FE7"/>
<path id="Vector_4" d="M37.779 62.6163H15.8947L13.1304 53.6217L15.3188 52.9298L17.5072 60.31H36.1664L38.47 52.9298L40.6585 53.6217L37.779 62.6163Z" fill="#A96FE7"/>
<path id="Vector_5" d="M47.5696 57.8883L46.7633 55.6973C50.7947 54.1982 52.4072 51.5459 51.4857 47.8559C49.4125 48.7784 47.5696 48.8937 45.9571 48.2018C43.5383 47.164 42.6168 44.627 42.2713 43.2432C41.5802 40.591 42.9624 38.0541 44.1142 36.0937C44.3446 35.7478 44.4597 35.4018 44.6901 35.1712C48.3759 28.0216 47.6848 23.0631 47.1089 19.1423L46.9937 18.3351C46.4178 14.4144 43.7687 6.80361 37.8945 5.53514C35.9364 5.07388 34.5542 5.41983 33.1721 5.88109L32.1354 6.34234L31.6747 5.30451C31.4444 4.95857 28.9104 1.96036 24.8791 1.96036C17.6227 1.96036 11.9789 6.1117 8.52348 13.7225C7.2565 16.4901 6.21988 19.7189 6.21988 25.3694C6.21988 31.1351 7.94758 34.8252 9.21456 37.7081C10.136 39.7838 11.0574 41.6288 11.0574 43.5892C11.0574 45.7802 10.136 47.6252 8.63866 48.6631C7.48686 49.355 5.64398 49.9315 2.64929 49.009C2.76447 52.5838 5.75915 54.8901 7.14131 55.8126L6.56541 56.8505L5.98951 57.8883C4.37699 56.9658 -0.690939 53.2757 0.460863 47.2793L0.69122 45.8955L2.07339 46.4721C4.377 47.5099 6.21988 47.6252 7.37168 46.9333C8.29312 46.3568 8.75384 45.2036 8.75384 43.8198C8.75384 42.3207 8.06276 40.8216 7.14131 38.9766C5.64397 35.8631 3.91627 31.9423 3.91627 25.7153C3.91627 19.6036 5.18325 16.0288 6.45023 13.1459C10.2512 4.61261 16.7013 0 24.8791 0C29.0256 0 31.9051 2.30631 33.1721 3.80541C34.439 3.34415 36.0516 3.11352 38.3552 3.57478C47.3392 5.41983 49.1821 17.7586 49.2973 18.3351L49.4125 19.1423C49.9884 23.1784 50.7947 28.8288 46.7633 36.555C46.6482 36.9009 46.4178 37.2469 46.1874 37.5928C45.1508 39.4378 44.2294 41.2829 44.5749 43.0126C44.8053 43.8198 45.3812 45.7802 46.8785 46.4721C48.0303 46.9333 49.6428 46.7027 51.6009 45.5495L52.7527 44.8577L53.2134 46.1261C55.2867 51.3153 53.2134 55.6973 47.5696 57.8883Z" fill="#A96FE7"/>
<path id="Vector_6" d="M42.5014 19.373C37.4335 19.373 32.9415 17.0667 30.9834 13.6072C27.2976 17.0667 19.3502 19.7189 9.67505 18.7964L9.90541 16.4901C19.5806 17.4126 27.8735 14.2991 30.4075 10.8396L31.7897 8.87927L32.4807 11.1856C33.4022 14.5297 37.6639 17.0667 42.5014 17.0667H42.6166L42.5014 19.373C42.6166 19.373 42.6166 19.373 42.5014 19.373Z" fill="#A96FE7"/>
<path id="Ellipse 3 (Stroke)" fill-rule="evenodd" clip-rule="evenodd" d="M26.05 28.5269C26.3636 28.5091 26.6804 28.5 26.9999 28.5C27.3195 28.5 27.6362 28.5091 27.9498 28.5269C28.2255 28.5427 28.4363 28.7789 28.4206 29.0546C28.4049 29.3303 28.1687 29.541 27.893 29.5253C27.5983 29.5085 27.3005 29.5 26.9999 29.5C26.6994 29.5 26.4016 29.5085 26.1069 29.5253C25.8312 29.541 25.595 29.3303 25.5793 29.0546C25.5636 28.7789 25.7743 28.5427 26.05 28.5269ZM22.9375 29.5199C23.0185 29.7839 22.8702 30.0636 22.6062 30.1446C22.0277 30.322 21.4735 30.5333 20.948 30.7748C20.6971 30.8901 20.4002 30.7802 20.2849 30.5293C20.1696 30.2784 20.2795 29.9815 20.5304 29.8662C21.0972 29.6057 21.6929 29.3787 22.3129 29.1885C22.5769 29.1075 22.8565 29.2559 22.9375 29.5199ZM31.0623 29.5199C31.1433 29.2559 31.423 29.1075 31.687 29.1885C32.3069 29.3787 32.9027 29.6057 33.4694 29.8662C33.7204 29.9815 33.8303 30.2784 33.715 30.5293C33.5997 30.7802 33.3028 30.8901 33.0519 30.7748C32.5264 30.5333 31.9722 30.322 31.3937 30.1446C31.1297 30.0636 30.9813 29.7839 31.0623 29.5199ZM18.0403 31.9969C18.2278 32.1996 18.2155 32.516 18.0128 32.7035C17.5741 33.1094 17.186 33.5441 16.8541 34.0021C16.6921 34.2257 16.3795 34.2756 16.1559 34.1136C15.9323 33.9516 15.8823 33.6389 16.0444 33.4153C16.4171 32.9009 16.8497 32.4173 17.3337 31.9695C17.5364 31.7819 17.8527 31.7942 18.0403 31.9969ZM35.9596 31.9969C36.1471 31.7942 36.4635 31.7819 36.6662 31.9695C37.1502 32.4173 37.5827 32.9009 37.9555 33.4153C38.1175 33.6389 38.0676 33.9516 37.844 34.1136C37.6204 34.2756 37.3078 34.2257 37.1457 34.0021C36.8139 33.5441 36.4258 33.1094 35.987 32.7035C35.7844 32.516 35.7721 32.1996 35.9596 31.9969Z" fill="#A96FE7"/>
</g>
</svg>
