<svg width="48" height="43" viewBox="0 0 48 43" fill="none" xmlns="http://www.w3.org/2000/svg">
<g id="Group 2">
<g id="package">
<path id="Vector" d="M45.1636 8.64777L25.8466 0.384954C24.6564 -0.127243 23.3453 -0.128854 22.1582 0.383344L2.8348 8.64777C1.11298 9.38385 0 11.0686 0 12.9435V29.5818C0 31.4389 1.10654 33.1221 2.82997 33.8775L22.1534 42.1371C22.7493 42.3948 23.3759 42.5237 24.0008 42.5237C24.6257 42.5237 25.2491 42.3948 25.8418 42.1403L45.1829 33.8727C46.8951 33.1221 48 31.4389 48 29.5818V12.9435C47.9984 11.0686 46.8854 9.38385 45.1636 8.64777ZM23.3002 3.04742C23.5289 2.94916 23.7624 2.89923 23.9976 2.89923C24.2327 2.89923 24.4711 2.94916 24.7031 3.04903L42.8329 10.8045L35.1822 14.0806L16.83 5.81618L23.3002 3.04742ZM24.7192 18.5599C24.2553 18.7532 23.7431 18.7516 23.2969 18.568L5.16546 10.8045L13.2076 7.36405L31.5614 15.6301L24.7192 18.5599ZM3.98 31.2167C3.32284 30.93 2.89923 30.2873 2.89923 29.5818V12.9869L22.1743 21.2401C22.2967 21.29 22.4239 21.3142 22.548 21.3528V39.1541L3.98 31.2167ZM44.0313 31.2118L25.4488 39.1557V21.3528C25.5793 21.311 25.713 21.2868 25.8418 21.2337L45.0992 12.9869V29.5802C45.0992 30.2873 44.6755 30.93 44.0313 31.2118Z" fill="#7A8AC4"/>
<g id="Vector_2">
<path d="M10.9848 28.5607L7.12725 26.9129C6.39278 26.6005 5.53912 26.9403 5.22503 27.6764C4.91095 28.4125 5.25241 29.2645 5.9885 29.5786L9.84609 31.2263C10.0313 31.3053 10.2246 31.3439 10.4163 31.3439C10.9784 31.3439 11.5148 31.0137 11.7483 30.4629C12.0624 29.7268 11.7209 28.8747 10.9848 28.5607Z" fill="white"/>
<path d="M10.9848 28.5607L7.12725 26.9129C6.39278 26.6005 5.53912 26.9403 5.22503 27.6764C4.91095 28.4125 5.25241 29.2645 5.9885 29.5786L9.84609 31.2263C10.0313 31.3053 10.2246 31.3439 10.4163 31.3439C10.9784 31.3439 11.5148 31.0137 11.7483 30.4629C12.0624 29.7268 11.7209 28.8747 10.9848 28.5607Z" fill="#7A8AC4" fill-opacity="0.5"/>
</g>
</g>
</g>
</svg>
