<svg width="48" height="44" viewBox="0 0 48 44" fill="none" xmlns="http://www.w3.org/2000/svg">
<g id="Group 2">
<g id="Booking">
<path id="Vector" d="M23.9992 36.271H6.61991C4.5679 36.271 2.89923 34.6023 2.89923 32.5503V8.81044C2.89923 6.75843 4.5679 5.08976 6.61991 5.08976H10.1183V5.96597C10.1183 6.76649 10.7674 7.41559 11.5679 7.41559C12.3684 7.41559 13.0175 6.76649 13.0175 5.96597V5.08976H30.355V5.96597C30.355 6.76649 31.0041 7.41559 31.8046 7.41559C32.6051 7.41559 33.2542 6.76649 33.2542 5.96597V5.08976H36.7397C38.7901 5.08976 40.4604 6.75843 40.4604 8.81044V19.1671C40.4604 19.9677 41.1095 20.6168 41.91 20.6168C42.7105 20.6168 43.3596 19.9677 43.3596 19.1671V8.81044C43.3596 5.16063 40.3895 2.19053 36.7397 2.19053H33.2542V1.44962C33.2542 0.649106 32.6051 0 31.8046 0C31.0041 0 30.355 0.649106 30.355 1.44962V2.19053H13.0175V1.44962C13.0175 0.649106 12.3684 0 11.5679 0C10.7674 0 10.1183 0.649106 10.1183 1.44962V2.19053H6.61991C2.9701 2.19053 0 5.16063 0 8.81044V32.5519C0 36.2034 2.9701 39.1718 6.61991 39.1718H23.9992C24.7997 39.1718 25.4488 38.5227 25.4488 37.7222C25.4488 36.9217 24.7997 36.271 23.9992 36.271Z" fill="#7A8AC4"/>
<path id="Vector_2" d="M11.2652 15.6139C10.3406 15.6139 9.59165 16.3629 9.59165 17.2874C9.59165 18.2119 10.3406 18.9609 11.2652 18.9609C12.1897 18.9609 12.9387 18.2119 12.9387 17.2874C12.9387 16.3629 12.1897 15.6139 11.2652 15.6139Z" fill="#7A8AC4"/>
<path id="Vector_3" d="M21.6847 15.6139C20.7601 15.6139 20.0112 16.3629 20.0112 17.2874C20.0112 18.2119 20.7601 18.9609 21.6847 18.9609C22.6092 18.9609 23.3582 18.2119 23.3582 17.2874C23.3582 16.3629 22.6076 15.6139 21.6847 15.6139Z" fill="#7A8AC4"/>
<path id="Vector_4" d="M30.4291 17.2874C30.4291 18.2119 31.1781 18.9609 32.1026 18.9609C33.0271 18.9609 33.7761 18.2119 33.7761 17.2874C33.7761 16.3629 33.0271 15.6139 32.1026 15.6139C31.1781 15.6139 30.4291 16.3629 30.4291 17.2874Z" fill="#7A8AC4"/>
<path id="Vector_5" d="M11.2652 24.7321C10.3406 24.7321 9.59165 25.481 9.59165 26.4056C9.59165 27.3301 10.3406 28.0791 11.2652 28.0791C12.1897 28.0791 12.9387 27.3301 12.9387 26.4056C12.9387 25.481 12.1897 24.7321 11.2652 24.7321Z" fill="#7A8AC4"/>
<path id="Vector_6" d="M21.6847 24.7321C20.7601 24.7321 20.0112 25.481 20.0112 26.4056C20.0112 27.3301 20.7601 28.0791 21.6847 28.0791C22.6092 28.0791 23.3582 27.3301 23.3582 26.4056C23.3582 25.481 22.6076 24.7321 21.6847 24.7321Z" fill="#7A8AC4"/>
<g id="Vector_7">
<path d="M37.7013 22.7347C32.0236 22.7347 27.4026 27.3542 27.4026 33.0318C27.4026 38.7079 32.022 43.3289 37.7013 43.3289C43.3806 43.3289 48 38.7095 48 33.0318C47.9984 27.3526 43.3789 22.7347 37.7013 22.7347ZM37.7013 40.4265C33.623 40.4265 30.3034 37.1085 30.3034 33.0302C30.3034 28.952 33.623 25.6324 37.7013 25.6324C41.7795 25.6324 45.0992 28.952 45.0992 33.0302C45.0992 37.1085 41.7795 40.4265 37.7013 40.4265Z" fill="white"/>
<path d="M37.7013 22.7347C32.0236 22.7347 27.4026 27.3542 27.4026 33.0318C27.4026 38.7079 32.022 43.3289 37.7013 43.3289C43.3806 43.3289 48 38.7095 48 33.0318C47.9984 27.3526 43.3789 22.7347 37.7013 22.7347ZM37.7013 40.4265C33.623 40.4265 30.3034 37.1085 30.3034 33.0302C30.3034 28.952 33.623 25.6324 37.7013 25.6324C41.7795 25.6324 45.0992 28.952 45.0992 33.0302C45.0992 37.1085 41.7795 40.4265 37.7013 40.4265Z" fill="#7A8AC4" fill-opacity="0.5"/>
</g>
<g id="Vector_8">
<path d="M39.8016 30.3951L36.6253 32.9545L35.8345 31.9446C35.3384 31.3148 34.4316 31.2053 33.7986 31.6998C33.1688 32.1943 33.0593 33.1043 33.5538 33.7357L35.2514 35.9005C35.4898 36.2049 35.8409 36.403 36.2259 36.4465C36.2807 36.4529 36.3354 36.4561 36.3918 36.4561C36.7204 36.4561 37.0425 36.3434 37.3002 36.1356L41.6201 32.6565C42.245 32.1524 42.3417 31.2408 41.8407 30.6174C41.3382 29.9941 40.4249 29.891 39.8016 30.3951Z" fill="white"/>
<path d="M39.8016 30.3951L36.6253 32.9545L35.8345 31.9446C35.3384 31.3148 34.4316 31.2053 33.7986 31.6998C33.1688 32.1943 33.0593 33.1043 33.5538 33.7357L35.2514 35.9005C35.4898 36.2049 35.8409 36.403 36.2259 36.4465C36.2807 36.4529 36.3354 36.4561 36.3918 36.4561C36.7204 36.4561 37.0425 36.3434 37.3002 36.1356L41.6201 32.6565C42.245 32.1524 42.3417 31.2408 41.8407 30.6174C41.3382 29.9941 40.4249 29.891 39.8016 30.3951Z" fill="#7A8AC4" fill-opacity="0.5"/>
</g>
</g>
</g>
</svg>
