<svg width="64" height="64" viewBox="0 0 64 64" fill="none" xmlns="http://www.w3.org/2000/svg">
<g id="icon pack">
<rect id="Icon Background" width="64" height="64" rx="16" fill="#EFE8E2"/>
<path id="Ellipse 438" d="M32 16C27.7565 16 23.6869 17.6857 20.6863 20.6863C17.6857 23.6869 16 27.7565 16 32C16 36.2435 17.6857 40.3131 20.6863 43.3137C23.6869 46.3143 27.7565 48 32 48L32 32V16Z" fill="#23D9B7"/>
<path id="Ellipse 439" d="M32 48C36.2435 48 40.3131 46.3143 43.3137 43.3137C46.3143 40.3131 48 36.2435 48 32C48 27.7565 46.3143 23.6869 43.3137 20.6863C40.3131 17.6857 36.2435 16 32 16L32 32L32 48Z" fill="#23D9B7" fill-opacity="0.2"/>
</g>
</svg>
