<svg width="48" height="45" viewBox="0 0 48 45" fill="none" xmlns="http://www.w3.org/2000/svg">
<g id="Group 2">
<g id="online_learning">
<path id="Vector" d="M45.2779 30.6474H44.8591V23.6166C44.8591 22.816 44.2099 22.1669 43.4094 22.1669C42.6089 22.1669 41.9597 22.816 41.9597 23.6166V30.6474H32.4193C30.9117 30.6474 29.5538 31.5446 28.9627 32.9298L28.5987 33.7819C28.4634 34.0976 28.1525 34.3022 27.8078 34.3022H20.1938C19.8491 34.3022 19.5383 34.0976 19.403 33.7819L19.0389 32.9298C18.4478 31.5446 17.0899 30.6474 15.5823 30.6474H6.04027V8.4579C6.04027 7.35615 6.93584 6.46219 8.03758 6.46219H24.2094C25.0099 6.46219 25.6591 5.81307 25.6591 5.01253C25.6591 4.21199 25.0099 3.56287 24.2094 3.56287H8.03758C5.33799 3.56287 3.14094 5.75991 3.14094 8.45951V30.6474H2.72215C1.22094 30.6474 0 31.87 0 33.3696V36.736C0 40.99 3.46148 44.4515 7.71544 44.4515H40.2846C44.5385 44.4515 48 40.99 48 36.736V33.3696C48 31.8684 46.7791 30.6474 45.2779 30.6474ZM45.1007 36.736C45.1007 39.3905 42.9407 41.5505 40.2846 41.5505H7.71544C5.05933 41.5505 2.89933 39.3905 2.89933 36.736V33.5484H15.5823C15.927 33.5484 16.2379 33.7529 16.3732 34.0686L16.7372 34.9207C17.3299 36.306 18.6862 37.2031 20.1938 37.2031H27.8078C29.3154 37.2031 30.6717 36.306 31.2644 34.9207L31.6285 34.0686C31.7638 33.7529 32.073 33.5484 32.4193 33.5484H45.1007V36.736Z" fill="#7A8AC4"/>
<g id="Group">
<g id="Vector_2">
<path d="M37.7025 20.5981C43.3804 20.5981 48 15.9785 48 10.2991C48 4.6196 43.3804 0 37.7025 0C32.0247 0 27.4051 4.6196 27.4051 10.2991C27.4051 15.9785 32.0247 20.5981 37.7025 20.5981ZM37.7025 2.90255C41.7825 2.90255 45.1006 6.22228 45.1006 10.3007C45.1006 14.3791 41.7809 17.6988 37.7025 17.6988C33.6241 17.6988 30.3044 14.3791 30.3044 10.3007C30.3044 6.22228 33.6241 2.90255 37.7025 2.90255Z" fill="white"/>
<path d="M37.7025 20.5981C43.3804 20.5981 48 15.9785 48 10.2991C48 4.6196 43.3804 0 37.7025 0C32.0247 0 27.4051 4.6196 27.4051 10.2991C27.4051 15.9785 32.0247 20.5981 37.7025 20.5981ZM37.7025 2.90255C41.7825 2.90255 45.1006 6.22228 45.1006 10.3007C45.1006 14.3791 41.7809 17.6988 37.7025 17.6988C33.6241 17.6988 30.3044 14.3791 30.3044 10.3007C30.3044 6.22228 33.6241 2.90255 37.7025 2.90255Z" fill="#7A8AC4" fill-opacity="0.5"/>
</g>
<g id="Vector_3">
<path d="M35.6681 14.6271C36.0821 14.8429 36.5315 14.9476 36.9777 14.9476C37.5543 14.9476 38.1261 14.772 38.619 14.4257L41.1688 12.6233C41.9226 12.0918 42.3736 11.2236 42.3736 10.3022C42.3736 9.37929 41.9242 8.5111 41.1704 7.97794L38.6206 6.17714C37.7476 5.55862 36.6152 5.4813 35.6714 5.97258C34.7226 6.46385 34.1331 7.43029 34.1331 8.49821V12.103C34.1315 13.1694 34.7194 14.1374 35.6681 14.6271ZM39.4356 10.3006L37.0308 12.103L36.9454 8.54331L39.4356 10.3006Z" fill="white"/>
<path d="M35.6681 14.6271C36.0821 14.8429 36.5315 14.9476 36.9777 14.9476C37.5543 14.9476 38.1261 14.772 38.619 14.4257L41.1688 12.6233C41.9226 12.0918 42.3736 11.2236 42.3736 10.3022C42.3736 9.37929 41.9242 8.5111 41.1704 7.97794L38.6206 6.17714C37.7476 5.55862 36.6152 5.4813 35.6714 5.97258C34.7226 6.46385 34.1331 7.43029 34.1331 8.49821V12.103C34.1315 13.1694 34.7194 14.1374 35.6681 14.6271ZM39.4356 10.3006L37.0308 12.103L36.9454 8.54331L39.4356 10.3006Z" fill="#7A8AC4" fill-opacity="0.5"/>
</g>
</g>
</g>
</g>
</svg>
