<svg width="64" height="64" viewBox="0 0 64 64" fill="none" xmlns="http://www.w3.org/2000/svg">
<g id="acne">
<path id="Vector" d="M18.6665 32C17.0843 32 15.5375 31.5308 14.2219 30.6518C12.9064 29.7727 11.881 28.5233 11.2755 27.0615C10.67 25.5997 10.5115 23.9911 10.8202 22.4393C11.1289 20.8874 11.8908 19.462 13.0097 18.3432C14.1285 17.2243 15.5539 16.4624 17.1058 16.1537C18.6576 15.845 20.2662 16.0035 21.728 16.609C23.1898 17.2145 24.4392 18.2398 25.3183 19.5554C26.1973 20.871 26.6665 22.4178 26.6665 24C26.6647 26.1212 25.8213 28.155 24.3214 29.6549C22.8215 31.1548 20.7877 31.9982 18.6665 32ZM18.6665 20.004C17.8754 20.004 17.102 20.2386 16.4442 20.6781C15.7864 21.1176 15.2737 21.7424 14.971 22.4733C14.6682 23.2042 14.589 24.0084 14.7434 24.7844C14.8977 25.5603 15.2787 26.273 15.8381 26.8324C16.3975 27.3918 17.1102 27.7728 17.8861 27.9271C18.6621 28.0815 19.4663 28.0023 20.1972 27.6995C20.9281 27.3968 21.5529 26.8841 21.9924 26.2263C22.4319 25.5685 22.6665 24.7951 22.6665 24.004C22.667 23.4784 22.564 22.9578 22.3632 22.472C22.1624 21.9863 21.8678 21.5449 21.4963 21.173C21.1249 20.8011 20.6837 20.5061 20.1982 20.3049C19.7126 20.1036 19.1921 20 18.6665 20V20.004Z" fill="#1FA6A6"/>
<path id="Vector_2" d="M47.9998 61.3334C45.3628 61.3334 42.7849 60.5514 40.5922 59.0863C38.3996 57.6212 36.6906 55.5388 35.6814 53.1025C34.6723 50.6661 34.4082 47.9852 34.9227 45.3988C35.4372 42.8124 36.7071 40.4366 38.5718 38.5719C40.4365 36.7072 42.8122 35.4374 45.3986 34.9229C47.985 34.4084 50.6659 34.6725 53.1023 35.6816C55.5386 36.6908 57.621 38.3998 59.0861 40.5924C60.5512 42.7851 61.3332 45.3629 61.3332 48C61.3299 51.5352 59.9241 54.9247 57.4243 57.4245C54.9246 59.9243 51.5351 61.3301 47.9998 61.3334ZM47.9998 41.34C46.6813 41.34 45.3924 41.731 44.296 42.4636C43.1997 43.1961 42.3452 44.2373 41.8406 45.4555C41.3361 46.6736 41.204 48.0141 41.4613 49.3073C41.7185 50.6005 42.3534 51.7884 43.2858 52.7207C44.2181 53.6531 45.406 54.288 46.6992 54.5452C47.9924 54.8025 49.3329 54.6705 50.5511 54.1659C51.7692 53.6613 52.8104 52.8068 53.543 51.7105C54.2755 50.6142 54.6665 49.3252 54.6665 48.0067C54.6665 46.2386 53.9641 44.5429 52.7139 43.2926C51.4636 42.0424 49.7679 41.34 47.9998 41.34Z" fill="#1FA6A6"/>
<path id="Vector_3" d="M7.99984 56C6.945 56 5.91386 55.6872 5.0368 55.1012C4.15974 54.5151 3.47615 53.6822 3.07248 52.7076C2.66881 51.7331 2.5632 50.6607 2.76898 49.6262C2.97477 48.5916 3.48272 47.6413 4.2286 46.8954C4.97448 46.1495 5.92479 45.6416 6.95936 45.4358C7.99392 45.23 9.06627 45.3356 10.0408 45.7393C11.0154 46.143 11.8483 46.8265 12.4343 47.7036C13.0204 48.5807 13.3332 49.6118 13.3332 50.6666C13.3319 52.0807 12.7696 53.4365 11.7696 54.4365C10.7697 55.4364 9.41393 55.9987 7.99984 56ZM7.99984 48.0026C7.47242 48.0026 6.95685 48.159 6.51832 48.4521C6.07979 48.7451 5.738 49.1616 5.53616 49.6488C5.33433 50.1361 5.28152 50.6723 5.38441 51.1896C5.48731 51.7068 5.74128 52.182 6.11422 52.5549C6.48716 52.9279 6.96232 53.1818 7.4796 53.2847C7.99688 53.3876 8.53306 53.3348 9.02033 53.133C9.5076 52.9312 9.92407 52.5894 10.2171 52.1508C10.5101 51.7123 10.6665 51.1967 10.6665 50.6693C10.6665 49.9621 10.3856 49.2838 9.88546 48.7837C9.38536 48.2836 8.70708 48.0026 7.99984 48.0026Z" fill="#1FA6A6"/>
<path id="Vector_4" d="M45.3332 24C43.2235 24 41.1612 23.3744 39.4071 22.2024C37.653 21.0303 36.2858 19.3644 35.4785 17.4153C34.6711 15.4662 34.4599 13.3215 34.8715 11.2524C35.283 9.18327 36.2989 7.28265 37.7907 5.79089C39.2825 4.29913 41.1831 3.28322 43.2522 2.87165C45.3213 2.46007 47.466 2.67131 49.4151 3.47865C51.3642 4.28598 53.0301 5.65315 54.2022 7.40728C55.3742 9.1614 55.9998 11.2237 55.9998 13.3334C55.9975 16.1616 54.8729 18.8734 52.873 20.8732C50.8732 22.8731 48.1614 23.9977 45.3332 24ZM45.3332 8.00002C44.2783 8.00002 43.2472 8.31282 42.3701 8.89885C41.4931 9.48489 40.8095 10.3178 40.4058 11.2924C40.0022 12.2669 39.8965 13.3393 40.1023 14.3738C40.3081 15.4084 40.8161 16.3587 41.5619 17.1046C42.3078 17.8505 43.2581 18.3584 44.2927 18.5642C45.3273 18.77 46.3996 18.6644 47.3741 18.2607C48.3487 17.8571 49.1816 17.1735 49.7677 16.2964C50.3537 15.4193 50.6665 14.3882 50.6665 13.3334C50.6665 11.9189 50.1046 10.5623 49.1044 9.56213C48.1042 8.56194 46.7477 8.00002 45.3332 8.00002Z" fill="#1FA6A6"/>
</g>
</svg>
