<svg width="64" height="64" viewBox="0 0 64 64" fill="none" xmlns="http://www.w3.org/2000/svg">
<g id="Antiaging">
<path id="cream icon" d="M64 29.2889C63.9015 27.1651 62.8668 25.1475 61.2902 23.8732C61.2902 23.8201 61.2902 23.767 61.2902 23.7139V16.8116C61.2902 9.85607 46.6082 6.0863 32.7637 6.0863C31.8768 6.0863 31.0393 6.0863 30.2017 6.1394C29.1671 4.59963 28.3788 2.84749 27.9846 0.989153C27.8368 0.298914 27.2456 -0.125848 26.6051 0.0334377C26.5558 0.0334377 26.5065 0.086533 26.4573 0.086533C21.9738 1.94487 18.8699 4.49344 17.244 7.78535C9.01617 9.64369 4.28637 12.8825 4.28637 16.7585V22.8113C1.42879 24.8289 0 26.8997 0 29.2889V51.058C0.492687 68.314 63.5073 68.314 64 51.058V48.9873V29.2889ZM16.3079 10.4932C15.7167 13.2542 15.963 16.1213 17.047 18.723C17.3426 19.307 18.0323 19.5725 18.5743 19.2539C19.1162 18.9354 19.3626 18.2451 19.1162 17.608C16.9484 12.3515 18.9192 5.98011 26.2109 2.79439C27.3934 6.35178 31.729 15.5373 44.736 15.6966C45.3764 15.6966 45.8691 15.1125 45.8691 14.4223C45.8691 13.7851 45.3764 13.2542 44.736 13.2011C38.6759 13.0949 34.7837 10.9711 32.271 8.47559C54.4419 8.26321 71.9815 17.9266 46.3126 23.767C46.214 23.767 46.1647 23.8201 46.0662 23.8201C43.2579 24.4042 39.6613 24.8289 33.4042 24.9882C12.7113 25.2537 -5.0254 16.6523 16.3079 10.4932ZM6.55273 21.2185C14.7806 28.3863 37.8876 28.4925 47.1008 26.1563C47.1501 26.1563 47.1994 26.1563 47.2487 26.1032C52.6682 24.9351 56.659 23.2361 58.9746 21.1654C59.0239 22.1211 58.9746 23.1299 58.9253 24.0856C58.1863 27.8554 47.495 31.9437 32.7637 31.9437C17.3426 31.9437 6.55273 27.5899 6.55273 23.6608V21.2185ZM4.63126 25.5192C9.85373 37.2532 53.8999 37.1471 60.4527 26.4218C61.1917 27.1651 61.6351 28.1739 61.6844 29.2889C61.6844 33.2711 54.639 37.1471 44.1447 38.9523C36.1139 40.2266 27.9846 40.2266 19.9538 38.9523C16.7021 38.4744 13.4996 37.6249 10.3957 36.4568C10.3957 36.4568 10.3957 36.4568 10.3464 36.4568C6.25712 34.864 -1.7244 30.5101 4.63126 25.5192ZM61.6844 51.058C61.6844 56.1021 49.4657 61.6771 31.9754 61.6771C14.485 61.6771 2.26636 56.1021 2.26636 51.058V34.333C4.53272 36.8285 9.1147 38.6868 10.2972 39.0585C24.3387 44.1556 51.0423 44.1556 61.6844 34.2799V48.244V51.058Z" fill="#1FA6A6"/>
</g>
</svg>
