<svg width="64" height="64" viewBox="0 0 64 64" fill="none" xmlns="http://www.w3.org/2000/svg">
<g id="lineas">
<path id="Vector" d="M62.4327 50.9425C60.3429 50.9425 58.5143 52.046 57.4694 53.7012C56.6857 54.8046 56.1633 55.3563 54.8571 55.3563C53.551 55.3563 53.0286 54.8046 52.2449 53.977C51.7224 53.4253 51.4612 52.8736 50.6775 52.3219C49.3714 51.2184 47.8041 50.9425 45.9755 51.2184C44.4082 51.4943 42.8408 52.5977 42.0571 53.7012C41.2735 54.8046 40.751 55.3563 39.4449 55.3563C38.1388 55.3563 37.6163 54.8046 36.8327 53.977C36.5714 53.1494 36.049 52.5977 35.5265 52.046C34.2204 50.9425 32.6531 50.6667 30.8245 50.9425C29.2571 51.2184 27.6898 52.3219 26.9061 53.4253C26.1224 54.2529 25.6 55.0805 24.2939 55.0805C23.249 55.0805 22.4653 54.5288 21.6816 53.4253C20.3755 51.7701 18.5469 50.6667 16.7184 50.6667C14.6286 50.6667 12.8 51.7701 11.7551 53.4253C10.9714 54.5288 10.449 55.0805 9.14286 55.0805C7.83673 55.0805 7.31429 54.5288 6.53061 53.4253C5.22449 51.7701 3.39592 50.6667 1.56735 50.6667C0.783673 50.9425 0 51.7701 0 52.5977C0 53.7012 0.783673 54.2529 1.56735 54.2529C2.61224 54.2529 3.39592 54.8046 4.17959 55.9081C5.48571 57.5632 7.31429 58.6667 9.14286 58.6667C11.2327 58.6667 13.0612 57.5632 14.1061 55.9081C14.8898 55.0805 15.4122 54.2529 16.7184 54.2529C17.7633 54.2529 18.5469 54.8046 19.3306 55.9081C20.6367 57.5632 22.4653 58.6667 24.2939 58.6667C26.3837 58.6667 28.2122 57.5632 29.2571 55.9081C30.0408 54.8046 30.5633 54.2529 31.8694 54.2529C33.1755 54.2529 33.698 54.8046 34.4816 55.6322C35.0041 56.1839 35.2653 56.7357 36.049 57.2874C37.0939 58.115 38.4 58.3908 39.7061 58.3908C39.9673 58.3908 40.4898 58.3908 40.751 58.3908C42.3184 58.115 43.8857 57.0115 44.6694 55.9081C45.4531 54.8046 45.9755 54.2529 47.2816 54.2529C48.5878 54.2529 49.1102 54.8046 49.8939 55.9081C51.2 57.5632 53.0286 58.6667 54.8571 58.6667C56.9469 58.6667 58.7755 57.5632 59.8204 55.9081C60.6041 55.0805 61.1265 54.2529 62.4327 54.2529C63.4776 54.2529 64 53.4253 64 52.5977C64 51.7701 63.2163 50.9425 62.4327 50.9425Z" fill="#1FA6A6"/>
<path id="Vector_2" d="M1.56735 40H10.9714C16.4571 40 21.6816 37.3611 25.3388 33.1387C25.8612 32.6109 26.1224 32.0831 26.6449 31.8192C28.4735 30.4998 30.5633 29.7081 32.9143 29.972C35.2653 30.2359 37.0939 31.2915 38.6612 33.1387C42.0571 37.625 47.2816 40 53.0286 40H62.4327C63.4776 40 64 39.2083 64 38.4166C64 37.3611 63.2163 36.8333 62.4327 36.8333H53.0286C48.3265 36.8333 44.1469 34.7221 41.2735 31.0276C40.751 30.2359 39.9673 29.7081 39.4449 29.1803C34.4816 25.2218 26.9061 26.0135 22.9878 31.0276C19.8531 34.7221 15.6735 36.8333 11.2327 36.8333H1.56735C0.783673 36.8333 0 37.625 0 38.4166C0 39.4722 0.783673 40 1.56735 40Z" fill="#1FA6A6"/>
<g id="Vector_3">
<path fill-rule="evenodd" clip-rule="evenodd" d="M53.333 21.4357C53.3337 21.2473 53.2972 21.0605 53.2254 20.8862C53.1536 20.712 53.048 20.5536 52.9147 20.4204C52.7814 20.2871 52.6231 20.1816 52.4488 20.1098C52.2745 20.0381 52.0877 20.0015 51.8992 20.0023C51.7108 20.0031 51.5243 20.0412 51.3506 20.1144C51.178 20.1872 51.0213 20.2933 50.8897 20.4265L47.0853 24.2299C46.9526 24.3624 46.8467 24.5203 46.775 24.6935C46.7031 24.867 46.6661 25.053 46.6663 25.2408C46.6668 25.5229 46.7508 25.799 46.9079 26.0335C47.0649 26.2679 47.2879 26.4506 47.5487 26.5584C47.8094 26.6662 48.0963 26.6943 48.3731 26.6392C48.6498 26.5841 48.9039 26.4482 49.1035 26.2487L52.9088 22.4457C53.0422 22.3139 53.1482 22.1572 53.221 21.9844C53.2942 21.8107 53.3323 21.6242 53.333 21.4357Z" fill="#1FA6A6"/>
<path d="M49.2291 25.7761C49.3008 25.5988 49.3361 25.4088 49.3328 25.2175C49.3295 25.0262 49.2877 24.8375 49.2099 24.6627C49.134 24.492 49.0252 24.3379 48.8899 24.2093L45.0985 20.4177C44.8992 20.2185 44.6453 20.0827 44.369 20.0278C44.0926 19.9728 43.8062 20.001 43.5459 20.1089C43.2856 20.2167 43.0631 20.3992 42.9066 20.6335C42.75 20.8677 42.6664 21.1431 42.6663 21.4249C42.6662 21.6121 42.7031 21.7975 42.7747 21.9704C42.8464 22.1432 42.9514 22.3003 43.0838 22.4324L46.8749 26.2229C47.0034 26.3582 47.1573 26.467 47.3278 26.5431C47.5025 26.621 47.6911 26.663 47.8824 26.6665C48.0737 26.6699 48.2638 26.6348 48.4412 26.5632C48.6187 26.4917 48.7799 26.3851 48.9152 26.2499C49.0506 26.1146 49.1573 25.9535 49.2291 25.7761Z" fill="#1FA6A6"/>
<path fill-rule="evenodd" clip-rule="evenodd" d="M48.9425 26.3414C49.1925 26.1331 49.333 25.8506 49.333 25.556L49.333 11.7773C49.333 11.4828 49.1925 11.2003 48.9425 10.992C48.6924 10.7837 48.3533 10.6667 47.9997 10.6667C47.6461 10.6667 47.3069 10.7837 47.0569 10.992C46.8068 11.2003 46.6663 11.4828 46.6663 11.7773L46.6663 25.556C46.6663 25.8506 46.8068 26.1331 47.0569 26.3414C47.3069 26.5497 47.6461 26.6667 47.9997 26.6667C48.3533 26.6667 48.6924 26.5497 48.9425 26.3414Z" fill="#1FA6A6"/>
</g>
<g id="Vector_4">
<path fill-rule="evenodd" clip-rule="evenodd" d="M21.333 21.4357C21.3337 21.2473 21.2972 21.0605 21.2254 20.8862C21.1536 20.712 21.048 20.5536 20.9147 20.4204C20.7814 20.2871 20.6231 20.1816 20.4488 20.1098C20.2745 20.0381 20.0877 20.0015 19.8992 20.0023C19.7108 20.0031 19.5243 20.0412 19.3506 20.1144C19.178 20.1872 19.0213 20.2933 18.8897 20.4265L15.0853 24.2299C14.9526 24.3624 14.8467 24.5203 14.775 24.6935C14.7031 24.867 14.6661 25.053 14.6663 25.2408C14.6668 25.5229 14.7508 25.799 14.9079 26.0335C15.0649 26.2679 15.2879 26.4506 15.5487 26.5584C15.8094 26.6662 16.0963 26.6943 16.373 26.6392C16.6498 26.5841 16.9039 26.4482 17.1035 26.2487L20.9088 22.4457C21.0422 22.3139 21.1482 22.1572 21.221 21.9844C21.2942 21.8107 21.3323 21.6242 21.333 21.4357Z" fill="#1FA6A6"/>
<path d="M17.2291 25.7761C17.3008 25.5988 17.3361 25.4088 17.3328 25.2175C17.3295 25.0262 17.2877 24.8375 17.2099 24.6627C17.134 24.492 17.0252 24.3379 16.8899 24.2093L13.0985 20.4177C12.8992 20.2185 12.6453 20.0827 12.369 20.0278C12.0926 19.9728 11.8062 20.001 11.5459 20.1089C11.2856 20.2167 11.0631 20.3992 10.9066 20.6335C10.75 20.8677 10.6664 21.1431 10.6663 21.4249C10.6662 21.6121 10.703 21.7975 10.7747 21.9704C10.8464 22.1432 10.9514 22.3003 11.0838 22.4324L14.8749 26.2229C15.0034 26.3582 15.1573 26.467 15.3278 26.5431C15.5025 26.621 15.6911 26.663 15.8824 26.6665C16.0737 26.6699 16.2638 26.6348 16.4412 26.5632C16.6187 26.4917 16.7799 26.3851 16.9152 26.2499C17.0506 26.1146 17.1573 25.9535 17.2291 25.7761Z" fill="#1FA6A6"/>
<path fill-rule="evenodd" clip-rule="evenodd" d="M16.9425 26.3414C17.1925 26.1331 17.333 25.8506 17.333 25.556L17.333 11.7773C17.333 11.4828 17.1925 11.2003 16.9425 10.992C16.6924 10.7837 16.3533 10.6667 15.9997 10.6667C15.6461 10.6667 15.3069 10.7837 15.0569 10.992C14.8068 11.2003 14.6663 11.4828 14.6663 11.7773L14.6663 25.556C14.6663 25.8506 14.8068 26.1331 15.0569 26.3414C15.3069 26.5497 15.6461 26.6667 15.9997 26.6667C16.3533 26.6667 16.6924 26.5497 16.9425 26.3414Z" fill="#1FA6A6"/>
</g>
<g id="Vector_5">
<path fill-rule="evenodd" clip-rule="evenodd" d="M37.333 16.1024C37.3337 15.9139 37.2972 15.7271 37.2254 15.5529C37.1536 15.3786 37.048 15.2203 36.9147 15.087C36.7814 14.9538 36.6231 14.8482 36.4488 14.7765C36.2745 14.7047 36.0877 14.6682 35.8992 14.669C35.7108 14.6697 35.5243 14.7078 35.3506 14.7811C35.178 14.8538 35.0213 14.9599 34.8897 15.0931L31.0853 18.8965C30.9526 19.029 30.8467 19.1869 30.775 19.3602C30.7031 19.5336 30.6661 19.7196 30.6663 19.9074C30.6668 20.1896 30.7508 20.4656 30.9079 20.7001C31.0649 20.9345 31.2879 21.1172 31.5487 21.225C31.8094 21.3328 32.0963 21.3609 32.3731 21.3058C32.6498 21.2507 32.9039 21.1148 33.1035 20.9153L36.9088 17.1123C37.0422 16.9805 37.1482 16.8238 37.221 16.651C37.2942 16.4773 37.3323 16.2908 37.333 16.1024Z" fill="#1FA6A6"/>
<path d="M33.2291 20.4428C33.3008 20.2654 33.3361 20.0754 33.3328 19.8841C33.3295 19.6928 33.2877 19.5041 33.2099 19.3293C33.134 19.1586 33.0252 19.0046 32.8899 18.8759L29.0985 15.0843C28.8992 14.8851 28.6453 14.7494 28.369 14.6944C28.0926 14.6395 27.8062 14.6677 27.5459 14.7755C27.2856 14.8833 27.0631 15.0659 26.9066 15.3001C26.75 15.5343 26.6664 15.8098 26.6663 16.0915C26.6662 16.2787 26.703 16.4641 26.7747 16.637C26.8464 16.8099 26.9514 16.9669 27.0838 17.0991L30.8749 20.8895C31.0034 21.0248 31.1573 21.1336 31.3278 21.2097C31.5025 21.2877 31.6911 21.3296 31.8824 21.3331C32.0737 21.3365 32.2638 21.3014 32.4412 21.2299C32.6187 21.1583 32.7799 21.0517 32.9152 20.9165C33.0506 20.7813 33.1573 20.6201 33.2291 20.4428Z" fill="#1FA6A6"/>
<path fill-rule="evenodd" clip-rule="evenodd" d="M32.9425 21.008C33.1925 20.7997 33.333 20.5172 33.333 20.2227L33.333 6.44397C33.333 6.14941 33.1925 5.86691 32.9425 5.65862C32.6924 5.45033 32.3533 5.33331 31.9997 5.33331C31.6461 5.33331 31.3069 5.45033 31.0569 5.65862C30.8068 5.86691 30.6663 6.14941 30.6663 6.44397L30.6663 20.2227C30.6663 20.5172 30.8068 20.7997 31.0569 21.008C31.3069 21.2163 31.6461 21.3333 31.9997 21.3333C32.3533 21.3333 32.6924 21.2163 32.9425 21.008Z" fill="#1FA6A6"/>
</g>
</g>
</svg>
