<svg width="64" height="64" viewBox="0 0 64 64" fill="none" xmlns="http://www.w3.org/2000/svg">
<g id="Melasma">
<g id="Melasma icon">
<path d="M0.100157 45.3333L7.31142 57.9933C7.57851 58.3973 7.97913 58.6667 8.5133 58.6667H23.0694C23.6035 58.6667 24.0042 58.3973 24.2713 57.9933L31.0819 46.0067H39.228C39.7621 46.0067 40.1628 45.7374 40.4298 45.3333L47.2405 33.3468H55.3865C55.9207 33.3468 56.3213 33.0774 56.5884 32.6734L63.7997 20.0135C64.0668 19.6094 64.0668 19.0707 63.7997 18.6667L56.5884 6.00673C56.3213 5.60269 55.9207 5.33333 55.3865 5.33333H40.964C40.4298 5.33333 40.0292 5.60269 39.7621 6.00673L32.9515 17.9933H24.8054C24.2713 17.9933 23.8706 18.2626 23.6035 18.6667L16.7929 30.6532H8.5133C7.97913 30.6532 7.57851 30.9226 7.31142 31.3266L0.100157 43.9865C-0.0333855 44.3906 -0.0333855 44.9293 0.100157 45.3333ZM41.7653 8.02694H54.7188L61.2624 19.3401L54.7188 30.6532C54.4517 30.6532 41.6317 30.6532 41.7653 30.6532L35.2217 19.3401L41.7653 8.02694ZM25.4731 20.6869H32.9515L39.7621 32.6734C40.0292 33.0774 40.4298 33.3468 40.964 33.3468H44.169L38.4267 43.3131H25.4731L19.0631 32L25.4731 20.6869ZM9.31455 33.3468H16.7929L23.6035 45.3333C23.8706 45.7374 24.2713 46.0067 24.8054 46.0067H28.0104L22.2681 55.9731H9.31455L2.771 44.6599L9.31455 33.3468Z" fill="#1FA6A6"/>
<path d="M9.53846 40H10.4615C11.3846 40 12 39.4667 12 38.6667C12 37.8667 11.3846 37.3333 10.4615 37.3333H9.53846C8.61539 37.3333 8 37.8667 8 38.6667C8 39.4667 8.61539 40 9.53846 40Z" fill="#1FA6A6"/>
<path d="M17.5385 40.8958H18.4615C19.3846 40.8958 20 40.3625 20 39.5625C20 38.7625 19.3846 38.2292 18.4615 38.2292H17.5385C16.6154 38.2292 16 38.7625 16 39.5625C16 40.3625 16.7692 40.8958 17.5385 40.8958Z" fill="#1FA6A6"/>
<path d="M30.8718 26.6667H31.7949C32.7179 26.6667 33.3333 26.1333 33.3333 25.3333C33.3333 24.5333 32.7179 24 31.7949 24H30.8718C29.9487 24 29.3333 24.5333 29.3333 25.3333C29.3333 26.1333 30.1026 26.6667 30.8718 26.6667Z" fill="#1FA6A6"/>
<path d="M25.5385 32H26.4615C27.3846 32 28 31.4667 28 30.6667C28 29.8667 27.3846 29.3333 26.4615 29.3333H25.5385C24.6154 29.3333 24 29.8667 24 30.6667C24 31.4667 24.7692 32 25.5385 32Z" fill="#1FA6A6"/>
<path d="M32.2051 32C31.2821 32 30.6667 32.5333 30.6667 33.3333C30.6667 34.1333 31.2821 34.6667 32.2051 34.6667H33.1282C34.0513 34.6667 34.6667 34.1333 34.6667 33.3333C34.6667 32.5333 34.0513 32 33.1282 32H32.2051Z" fill="#1FA6A6"/>
<path d="M26.8718 40H27.7949C28.7179 40 29.3333 39.4667 29.3333 38.6667C29.3333 37.8667 28.7179 37.3333 27.7949 37.3333H26.8718C25.9487 37.3333 25.3333 37.8667 25.3333 38.6667C25.3333 39.4667 26.1026 40 26.8718 40Z" fill="#1FA6A6"/>
<path d="M37.5385 37.3333H38.4615C39.3846 37.3333 40 36.8 40 36C40 35.2 39.3846 34.6667 38.4615 34.6667H37.5385C36.6154 34.6667 36 35.2 36 36C36 36.8 36.7692 37.3333 37.5385 37.3333Z" fill="#1FA6A6"/>
<path d="M14.8718 45.3333H15.7949C16.7179 45.3333 17.3333 44.8 17.3333 44C17.3333 43.2 16.7179 42.6667 15.7949 42.6667H14.8718C13.9487 42.6667 13.3333 43.2 13.3333 44C13.3333 44.8 13.9487 45.3333 14.8718 45.3333Z" fill="#1FA6A6"/>
<path d="M9.33333 44C9.33333 43.2 8.71795 42.6667 7.79487 42.6667H6.87179C5.94872 42.6667 5.33333 43.2 5.33333 44C5.33333 44.8 5.94872 45.3333 6.87179 45.3333H7.79487C8.5641 45.3333 9.33333 44.6667 9.33333 44Z" fill="#1FA6A6"/>
<path d="M18.6667 45.3333C18.6667 46.1333 19.2821 46.6667 20.2051 46.6667H21.1282C22.0513 46.6667 22.6667 46.1333 22.6667 45.3333C22.6667 44.5333 22.0513 44 21.1282 44H20.2051C19.2821 44 18.6667 44.5333 18.6667 45.3333Z" fill="#1FA6A6"/>
<path d="M15.7949 52H14.8718C13.9487 52 13.3333 52.5333 13.3333 53.3333C13.3333 54.1333 13.9487 54.6667 14.8718 54.6667H15.7949C16.7179 54.6667 17.3333 54.1333 17.3333 53.3333C17.3333 52.5333 16.5641 52 15.7949 52Z" fill="#1FA6A6"/>
<path d="M16 49.3333C16 50.1333 16.6154 50.6667 17.5385 50.6667H18.4615C19.3846 50.6667 20 50.1333 20 49.3333C20 48.5333 19.3846 48 18.4615 48H17.5385C16.7692 48 16 48.5333 16 49.3333Z" fill="#1FA6A6"/>
<path d="M11.7949 50.112C12.7179 50.112 13.3333 49.5786 13.3333 48.7786C13.3333 47.9786 12.7179 47.4453 11.7949 47.4453H10.8718C9.94872 47.4453 9.33333 47.9786 9.33333 48.7786C9.33333 49.5786 9.94872 50.112 10.8718 50.112H11.7949Z" fill="#1FA6A6"/>
<path d="M48.0013 52.0135C48.0013 51.3401 47.4399 50.8013 46.7382 50.6667L40.4223 50.6667C39.7205 50.6667 39.0188 51.2054 39.0188 52.0135C39.0188 52.8216 39.5802 53.3603 40.4223 53.3603L43.6503 53.495L35.089 61.7104C34.5276 62.2492 34.5276 63.0572 35.089 63.596C35.6504 64.1347 36.4925 64.1347 37.0539 63.596L45.3345 55.6499L45.1942 58.2088C45.1942 59.0169 45.7555 59.5556 46.5976 59.5556C47.2994 59.5556 48.0011 59.0169 48.0011 58.2088C48.0011 54.9765 48.0013 52.4175 48.0013 52.0135Z" fill="#1FA6A6"/>
<path d="M29.3333 1.3468C29.3333 0.673398 28.7719 0.13468 28.0702 0L21.7543 5.4583e-05C21.0526 5.4583e-05 20.3508 0.538773 20.3508 1.34685C20.3508 2.15493 20.9122 2.69365 21.7543 2.69365L24.9823 2.82832L16.421 11.0438C15.8597 11.5825 15.8597 12.3906 16.421 12.9293C16.9824 13.468 17.8245 13.468 18.3859 12.9293L26.6665 4.9832L26.5262 7.54211C26.5262 8.35019 27.0876 8.88891 27.9297 8.88891C28.6314 8.88891 29.3332 8.35019 29.3332 7.54211C29.3332 4.3098 29.3333 1.75083 29.3333 1.3468Z" fill="#1FA6A6"/>
</g>
</g>
</svg>
