<svg width="64" height="64" viewBox="0 0 64 64" fill="none" xmlns="http://www.w3.org/2000/svg">
<g id="Pieles secas">
<path id="dry skin icon" d="M32 64C49.6 64 64 49.6 64 32C64 14.4 49.6 0 32 0C14.4 0 0 14.4 0 32C0 49.6 14.4 64 32 64ZM8.4 49.3333L17.2 43.3333L20 50V58.6667C15.3333 56.6667 11.3333 53.3333 8.4 49.3333ZM23.2 51.4667C26.5333 50.1333 27.8667 50.1333 30.2667 52.2667C30.4 52.4 30.5333 52.4 30.6667 52.5333V61.3333C28 61.2 25.4667 60.8 23.0667 60C23.3333 59.2 23.2 59.3333 23.2 51.4667ZM30.6667 9.86667C28.4 7.33333 26.1333 5.6 23.3333 4C25.6 3.33333 28.1333 2.8 30.6667 2.66667V9.86667ZM30.6667 17.6V31.6C28.5333 29.0667 26 26.2667 23.7333 23.8667C25.8667 21.8667 28.4 19.7333 30.6667 17.6ZM30.6667 36.5333V48.5333C27.8667 46.8 25.6 47.0667 22.6667 48.1333L19.7333 41.2L27.0667 32.5333C30.4 36.4 30 36.2667 30.6667 36.5333ZM61.3333 32C61.3333 47.7333 48.9333 60.5333 33.3333 61.3333V2.66667C48.9333 3.46667 61.3333 16.2667 61.3333 32ZM19.4667 5.46667C21.0667 6.8 25.6 8.13333 29.7333 14.1333C27.4667 16.2667 24.1333 19.2 21.6 21.6C20.4 20.2667 19.3333 19.0667 18.4 17.8667C17.8667 17.2 16.8 17.0667 16.1333 17.6C15.4667 18.1333 15.3333 19.2 15.8667 19.8667C18.2667 22.9333 21.7333 26.6667 24.8 30.1333L16.6667 39.8667C16 40.1333 17.2 39.4667 6.53333 46.6667C5.33333 44.6667 4.4 42.4 3.73333 40.1333L10.5333 38.6667C11.4667 38.5333 12 37.6 11.7333 36.6667C11.6 35.7333 10.6667 35.2 9.73333 35.4667L2.93333 36.9333C2.8 35.2 2.66667 33.6 2.66667 32C2.66667 30.1333 2.8 28.4 3.2 26.5333L9.6 28.5333L14 33.8667C14.5333 34.5333 15.6 34.6667 16.2667 34.1333C16.9333 33.6 17.0667 32.5333 16.5333 31.8667L11.8667 26.1333C11.6 25.8667 11.3333 25.7333 11.0667 25.6L4 23.3333C4.4 22.1333 4.8 20.9333 5.33333 19.8667C6.66667 20.2667 7.2 19.0667 20.1333 13.0667L22.6667 16.2667C23.2 16.9333 24.2667 17.0667 24.9333 16.5333C25.6 16 25.7333 14.9333 25.2 14.2667L21.7333 10.1333C20.2667 8.4 18.8 10.6667 7.73333 15.6C10.6667 11.2 14.8 7.73333 19.4667 5.46667Z" fill="#1FA6A6"/>
</g>
</svg>
