<svg width="64" height="64" viewBox="0 0 64 64" fill="none" xmlns="http://www.w3.org/2000/svg">
<g id="Pieles grasas">
<g id="oily skin icon ">
<path d="M63.9989 31.9358C63.978 23.4001 60.6452 15.3821 54.6117 9.35581C48.5715 3.32266 40.5412 0 32 0C23.4588 0 15.4284 3.32266 9.38827 9.35567C3.356 15.3808 0.0235999 23.3967 0.00106659 31.9305C0.000533256 31.948 0 31.9681 0 31.9944C0 40.5459 3.32867 48.584 9.3728 54.6283C15.4161 60.6717 23.452 64 32 64C40.5483 64 48.5841 60.6728 54.6271 54.6313C60.6712 48.5884 64 40.5511 64 32C64 31.9739 63.9995 31.9509 63.9989 31.9358ZM32 2.66806C47.7036 2.66806 60.5783 15.0965 61.3009 30.6382H2.6992C3.42173 15.0965 16.2964 2.66806 32 2.66806ZM32 61.3319C16.2648 61.3319 3.38373 48.8771 2.6956 33.3063H61.3045C60.6195 48.8768 47.7371 61.3319 32 61.3319Z" fill="#1FA6A6"/>
<path d="M21.3661 52.7673C21.6271 53.1262 22.0335 53.3168 22.4456 53.3168C22.7176 53.3168 22.992 53.2339 23.2288 53.0615C23.8243 52.6282 23.956 51.7939 23.5229 51.198L14.634 38.9694C14.2008 38.3737 13.3672 38.2415 12.7715 38.6752C12.176 39.1085 12.0443 39.9428 12.4773 40.5387L21.3661 52.7673Z" fill="#1FA6A6"/>
<path d="M30.2551 52.7673C30.516 53.1262 30.9224 53.3168 31.3345 53.3168C31.6065 53.3168 31.8809 53.2339 32.1177 53.0615C32.7133 52.6282 32.8449 51.7939 32.4117 51.198L23.5228 38.9694C23.0897 38.3737 22.2559 38.2415 21.6603 38.6752C21.0648 39.1085 20.9331 39.9428 21.3661 40.5387L30.2551 52.7673Z" fill="#1FA6A6"/>
<path d="M39.144 52.7673C39.4049 53.1262 39.8112 53.3168 40.2233 53.3168C40.4953 53.3168 40.7699 53.2339 41.0065 53.0615C41.6021 52.6282 41.7337 51.7939 41.3005 51.198L32.4116 38.9694C31.9785 38.3736 31.1447 38.2415 30.5491 38.6752C29.9536 39.1085 29.8219 39.9428 30.2549 40.5387L39.144 52.7673Z" fill="#1FA6A6"/>
<path d="M46.9217 51.6557C47.1827 52.0146 47.5889 52.2052 48.0011 52.2052C48.2731 52.2052 48.5476 52.1222 48.7843 51.9499C49.3799 51.5166 49.5115 50.6823 49.0783 50.0864L40.1893 37.8577C39.7563 37.2618 38.9223 37.1301 38.3268 37.5636C37.7312 37.9969 37.5996 38.8312 38.0328 39.4271L46.9217 51.6557Z" fill="#1FA6A6"/>
<path d="M25.1212 7.04087C24.8695 6.7758 24.52 6.62572 24.1545 6.62572C24.1537 6.62572 24.1552 6.62572 24.1545 6.62572C23.7883 6.62639 23.4361 6.77766 23.1848 7.0442C22.5531 7.71402 16.9839 13.6823 15.9901 16.9355C15.2527 19.3498 15.7639 21.9973 17.3925 24.1993C19.0868 26.4901 21.7491 27.9702 24.1749 27.9702C26.6037 27.9702 29.2684 26.4874 30.9636 24.1927C32.5903 21.9908 33.0989 19.3451 32.3592 16.934C31.3587 13.6725 25.7567 7.71002 25.1212 7.04087ZM28.8191 22.6068C27.628 24.219 25.7617 25.3021 24.1749 25.3021C22.5903 25.3021 20.7261 24.2211 19.536 22.6122C18.8775 21.7218 17.8724 19.9018 18.5404 17.7152C19.1168 15.8281 22.2243 12.091 24.1579 9.93037C26.1024 12.0886 29.2296 15.8252 29.8099 17.7168C30.4791 19.8985 29.4763 21.717 28.8191 22.6068Z" fill="#1FA6A6"/>
<path d="M42.1333 14.8967C39.6336 14.8967 37.6 16.9314 37.6 19.4324C37.6 21.9334 39.6336 23.9681 42.1333 23.9681C44.6331 23.9681 46.6667 21.9334 46.6667 19.4324C46.6667 16.9314 44.6331 14.8967 42.1333 14.8967ZM42.1333 21.3C41.104 21.3 40.2667 20.4623 40.2667 19.4324C40.2667 18.4025 41.104 17.5647 42.1333 17.5647C43.1627 17.5647 44 18.4025 44 19.4324C44 20.4623 43.1627 21.3 42.1333 21.3Z" fill="#1FA6A6"/>
</g>
</g>
</svg>
