<svg width="64" height="64" viewBox="0 0 64 64" fill="none" xmlns="http://www.w3.org/2000/svg">
<g id="Rosacea">
<path id="Vector (Stroke)" fill-rule="evenodd" clip-rule="evenodd" d="M0.406464 53.7238C0.66672 53.4738 1.0197 53.3333 1.38776 53.3333H62.6122C62.9803 53.3333 63.3333 53.4738 63.5935 53.7238C63.8538 53.9739 64 54.313 64 54.6666C64 55.0203 63.8538 55.3594 63.5935 55.6095C63.3333 55.8595 62.9803 56 62.6122 56H1.38776C1.0197 56 0.66672 55.8595 0.406464 55.6095C0.146209 55.3594 0 55.0203 0 54.6666C0 54.313 0.146209 53.9739 0.406464 53.7238Z" fill="#1FA6A6"/>
<path id="Vector (Stroke)_2" d="M21.7277 33.2033C23.9944 29.1469 27.8223 26.6667 32 26.6667C36.1777 26.6667 40.0056 29.1469 42.2723 33.2033C44.5778 37.3291 48.8366 39.8789 53.3737 39.8789H62.6122C62.9803 39.8789 63.3333 40.0257 63.5935 40.2872C63.8538 40.5486 64 40.9031 64 41.2728C64 41.6425 63.8538 41.997 63.5935 42.2584C63.3333 42.5198 62.9803 42.6667 62.6122 42.6667H53.3737C47.8149 42.6667 42.6395 39.5565 39.8521 34.5681C38.0396 31.3242 35.0894 29.4545 32 29.4545C28.9107 29.4545 25.9614 31.3241 24.1481 34.5682C21.3605 39.5566 16.1834 42.6667 10.6263 42.6667H1.38776C1.0197 42.6667 0.666717 42.5198 0.406464 42.2584C0.14621 41.997 0 41.6425 0 41.2728C0 40.9031 0.146209 40.5486 0.406464 40.2872C0.66672 40.0257 1.0197 39.8789 1.38776 39.8789H10.6263C15.1632 39.8789 19.4222 37.3291 21.7277 33.2033Z" fill="#1FA6A6"/>
<path id="Vector (Stroke)_3" fill-rule="evenodd" clip-rule="evenodd" d="M29.9193 8.62838C30.2944 8.22604 30.8031 8 31.3335 8C31.8639 8 32.3726 8.22604 32.7477 8.62838C33.1228 9.03073 33.3335 9.57643 33.3335 10.1454V16.5212C33.3335 17.0902 33.1228 17.6359 32.7477 18.0383C32.3726 18.4406 31.8639 18.6667 31.3335 18.6667C30.8031 18.6667 30.2944 18.4406 29.9193 18.0383C29.5442 17.6359 29.3335 17.0902 29.3335 16.5212V10.1454C29.3335 9.57643 29.5442 9.03073 29.9193 8.62838Z" fill="#1FA6A6"/>
<path id="Vector (Stroke)_4" fill-rule="evenodd" clip-rule="evenodd" d="M47.6062 16.2662C48.0751 16.0026 48.6321 15.9312 49.1549 16.0679C49.6776 16.2047 50.1233 16.5382 50.3937 16.9951C50.6642 17.4521 50.7374 17.9951 50.5971 18.5046C50.4569 19.014 50.1148 19.4483 49.6461 19.712L44.3991 22.664L44.3965 22.6655C44.0861 22.8411 43.7336 22.9335 43.3747 22.9333C42.9256 22.9335 42.489 22.7893 42.1326 22.523C41.7758 22.2564 41.5193 21.8824 41.403 21.4591C41.2867 21.0359 41.317 20.587 41.4893 20.1823C41.6615 19.7779 41.9658 19.4402 42.355 19.2216" fill="#1FA6A6"/>
<path id="Vector (Stroke)_5" fill-rule="evenodd" clip-rule="evenodd" d="M15.0607 16.2662C14.5919 16.0026 14.0349 15.9312 13.5121 16.0679C12.9894 16.2047 12.5437 16.5382 12.2733 16.9951C12.0028 17.4521 11.9296 17.9951 12.0699 18.5046C12.2101 19.014 12.5522 19.4483 13.0209 19.712L18.2679 22.664L18.2705 22.6655C18.5809 22.8411 18.9334 22.9335 19.2923 22.9333C19.7414 22.9335 20.178 22.7893 20.5344 22.523C20.8912 22.2564 21.1477 21.8824 21.264 21.4591C21.3803 21.0359 21.35 20.587 21.1776 20.1823C21.0055 19.7779 20.7012 19.4402 20.312 19.2216" fill="#1FA6A6"/>
</g>
</svg>
