<svg width="280" height="264" viewBox="0 0 280 264" fill="none" xmlns="http://www.w3.org/2000/svg">
<rect x="128" width="16" height="264" rx="8" fill="url(#paint0_linear_3126_9936)"/>
<path d="M136.866 238.5C136.481 239.167 135.519 239.167 135.134 238.5L131.67 232.5C131.285 231.833 131.766 231 132.536 231L139.464 231C140.234 231 140.715 231.833 140.33 232.5L136.866 238.5Z" fill="white"/>
<path d="M136.866 202.5C136.481 203.167 135.519 203.167 135.134 202.5L131.67 196.5C131.285 195.833 131.766 195 132.536 195L139.464 195C140.234 195 140.715 195.833 140.33 196.5L136.866 202.5Z" fill="white"/>
<path d="M136.866 166.5C136.481 167.167 135.519 167.167 135.134 166.5L131.67 160.5C131.285 159.833 131.766 159 132.536 159L139.464 159C140.234 159 140.715 159.833 140.33 160.5L136.866 166.5Z" fill="white"/>
<path d="M135.134 97.5C135.519 96.8333 136.481 96.8333 136.866 97.5L140.33 103.5C140.715 104.167 140.234 105 139.464 105H132.536C131.766 105 131.285 104.167 131.67 103.5L135.134 97.5Z" fill="white"/>
<path d="M135.134 61.5C135.519 60.8333 136.481 60.8333 136.866 61.5L140.33 67.5C140.715 68.1667 140.234 69 139.464 69H132.536C131.766 69 131.285 68.1667 131.67 67.5L135.134 61.5Z" fill="white"/>
<path d="M135.134 25.5C135.519 24.8333 136.481 24.8333 136.866 25.5L140.33 31.5C140.715 32.1667 140.234 33 139.464 33H132.536C131.766 33 131.285 32.1667 131.67 31.5L135.134 25.5Z" fill="white"/>
<path d="M156.516 255.812C156.516 254.996 156.7 254.264 157.068 253.616C157.444 252.96 157.952 252.452 158.592 252.092C159.232 251.724 159.94 251.54 160.716 251.54C161.604 251.54 162.388 251.76 163.068 252.2C163.756 252.64 164.256 253.26 164.568 254.06H163.26C163.028 253.572 162.692 253.196 162.252 252.932C161.812 252.66 161.3 252.524 160.716 252.524C160.132 252.524 159.604 252.66 159.132 252.932C158.668 253.196 158.3 253.58 158.028 254.084C157.764 254.58 157.632 255.156 157.632 255.812C157.632 256.468 157.764 257.044 158.028 257.54C158.3 258.036 158.668 258.42 159.132 258.692C159.604 258.956 160.132 259.088 160.716 259.088C161.54 259.088 162.216 258.844 162.744 258.356C163.272 257.86 163.576 257.192 163.656 256.352H160.32V255.488H164.82V256.328C164.756 257.016 164.54 257.648 164.172 258.224C163.804 258.792 163.32 259.244 162.72 259.58C162.12 259.908 161.452 260.072 160.716 260.072C159.94 260.072 159.232 259.892 158.592 259.532C157.952 259.164 157.444 258.656 157.068 258.008C156.7 257.36 156.516 256.628 156.516 255.812ZM172.264 256.436C172.264 256.636 172.252 256.852 172.228 257.084H166.972C167.004 257.732 167.22 258.244 167.62 258.62C168.028 258.996 168.524 259.184 169.108 259.184C169.58 259.184 169.972 259.076 170.284 258.86C170.604 258.636 170.828 258.34 170.956 257.972H172.132C171.956 258.604 171.604 259.12 171.076 259.52C170.548 259.912 169.892 260.108 169.108 260.108C168.484 260.108 167.924 259.968 167.428 259.688C166.94 259.408 166.556 259.012 166.276 258.5C165.996 257.98 165.856 257.38 165.856 256.7C165.856 256.02 165.992 255.424 166.264 254.912C166.536 254.4 166.916 254.008 167.404 253.736C167.9 253.456 168.468 253.316 169.108 253.316C169.732 253.316 170.28 253.452 170.752 253.724C171.232 253.996 171.604 254.368 171.868 254.84C172.132 255.312 172.264 255.844 172.264 256.436ZM171.136 256.292C171.136 255.86 171.044 255.492 170.86 255.188C170.676 254.876 170.424 254.64 170.104 254.48C169.792 254.32 169.444 254.24 169.06 254.24C168.5 254.24 168.024 254.424 167.632 254.792C167.24 255.152 167.024 255.652 166.984 256.292H171.136ZM174.797 251.12V260H173.705V251.12H174.797ZM181.325 251.12V260H180.233V251.12H181.325ZM183.75 252.356C183.542 252.356 183.366 252.284 183.222 252.14C183.078 251.996 183.006 251.82 183.006 251.612C183.006 251.404 183.078 251.228 183.222 251.084C183.366 250.94 183.542 250.868 183.75 250.868C183.95 250.868 184.118 250.94 184.254 251.084C184.398 251.228 184.47 251.404 184.47 251.612C184.47 251.82 184.398 251.996 184.254 252.14C184.118 252.284 183.95 252.356 183.75 252.356ZM184.278 253.424V260H183.186V253.424H184.278ZM188.851 253.316C189.419 253.316 189.915 253.44 190.339 253.688C190.771 253.936 191.091 254.248 191.299 254.624V253.424H192.403V260.144C192.403 260.744 192.275 261.276 192.019 261.74C191.763 262.212 191.395 262.58 190.915 262.844C190.443 263.108 189.891 263.24 189.259 263.24C188.395 263.24 187.675 263.036 187.099 262.628C186.523 262.22 186.183 261.664 186.079 260.96H187.159C187.279 261.36 187.527 261.68 187.903 261.92C188.279 262.168 188.731 262.292 189.259 262.292C189.859 262.292 190.347 262.104 190.723 261.728C191.107 261.352 191.299 260.824 191.299 260.144V258.764C191.083 259.148 190.763 259.468 190.339 259.724C189.915 259.98 189.419 260.108 188.851 260.108C188.267 260.108 187.735 259.964 187.255 259.676C186.783 259.388 186.411 258.984 186.139 258.464C185.867 257.944 185.731 257.352 185.731 256.688C185.731 256.016 185.867 255.428 186.139 254.924C186.411 254.412 186.783 254.016 187.255 253.736C187.735 253.456 188.267 253.316 188.851 253.316ZM191.299 256.7C191.299 256.204 191.199 255.772 190.999 255.404C190.799 255.036 190.527 254.756 190.183 254.564C189.847 254.364 189.475 254.264 189.067 254.264C188.659 254.264 188.287 254.36 187.951 254.552C187.615 254.744 187.347 255.024 187.147 255.392C186.947 255.76 186.847 256.192 186.847 256.688C186.847 257.192 186.947 257.632 187.147 258.008C187.347 258.376 187.615 258.66 187.951 258.86C188.287 259.052 188.659 259.148 189.067 259.148C189.475 259.148 189.847 259.052 190.183 258.86C190.527 258.66 190.799 258.376 190.999 258.008C191.199 257.632 191.299 257.196 191.299 256.7ZM200.248 256.436C200.248 256.636 200.236 256.852 200.212 257.084H194.956C194.988 257.732 195.204 258.244 195.604 258.62C196.012 258.996 196.508 259.184 197.092 259.184C197.564 259.184 197.956 259.076 198.268 258.86C198.588 258.636 198.812 258.34 198.94 257.972H200.116C199.94 258.604 199.588 259.12 199.06 259.52C198.532 259.912 197.876 260.108 197.092 260.108C196.468 260.108 195.908 259.968 195.412 259.688C194.924 259.408 194.54 259.012 194.26 258.5C193.98 257.98 193.84 257.38 193.84 256.7C193.84 256.02 193.976 255.424 194.248 254.912C194.52 254.4 194.9 254.008 195.388 253.736C195.884 253.456 196.452 253.316 197.092 253.316C197.716 253.316 198.264 253.452 198.736 253.724C199.216 253.996 199.588 254.368 199.852 254.84C200.116 255.312 200.248 255.844 200.248 256.436ZM199.12 256.292C199.12 255.86 199.028 255.492 198.844 255.188C198.66 254.876 198.408 254.64 198.088 254.48C197.776 254.32 197.428 254.24 197.044 254.24C196.484 254.24 196.008 254.424 195.616 254.792C195.224 255.152 195.008 255.652 194.968 256.292H199.12ZM202.782 254.672C202.974 254.24 203.246 253.904 203.598 253.664C203.958 253.424 204.394 253.304 204.906 253.304V254.432H204.618C203.394 254.432 202.782 255.096 202.782 256.424V260H201.69V253.424H202.782V254.672ZM209.034 260.108C208.418 260.108 207.858 259.968 207.354 259.688C206.858 259.408 206.466 259.012 206.178 258.5C205.898 257.98 205.758 257.38 205.758 256.7C205.758 256.028 205.902 255.436 206.19 254.924C206.486 254.404 206.886 254.008 207.39 253.736C207.894 253.456 208.458 253.316 209.082 253.316C209.706 253.316 210.27 253.456 210.774 253.736C211.278 254.008 211.674 254.4 211.962 254.912C212.258 255.424 212.406 256.02 212.406 256.7C212.406 257.38 212.254 257.98 211.95 258.5C211.654 259.012 211.25 259.408 210.738 259.688C210.226 259.968 209.658 260.108 209.034 260.108ZM209.034 259.184C209.426 259.184 209.794 259.092 210.138 258.908C210.482 258.716 210.758 258.432 210.966 258.056C211.182 257.68 211.29 257.228 211.29 256.7C211.29 256.172 211.186 255.724 210.978 255.356C210.77 254.98 210.498 254.7 210.162 254.516C209.826 254.332 209.462 254.24 209.07 254.24C208.67 254.24 208.302 254.332 207.966 254.516C207.638 254.7 207.374 254.98 207.174 255.356C206.974 255.724 206.874 256.172 206.874 256.7C206.874 257.236 206.97 257.692 207.162 258.068C207.362 258.436 207.626 258.716 207.954 258.908C208.282 259.092 208.642 259.184 209.034 259.184Z" fill="#98A2B3"/>
<path d="M42.0649 254.216C42.0649 254.664 41.9569 255.084 41.7409 255.476C41.5329 255.868 41.2009 256.184 40.7449 256.424C40.2969 256.664 39.7289 256.784 39.0409 256.784H37.6369V260H35.9569V251.624H39.0409C39.6889 251.624 40.2409 251.736 40.6969 251.96C41.1529 252.184 41.4929 252.492 41.7169 252.884C41.9489 253.276 42.0649 253.72 42.0649 254.216ZM38.9689 255.464C39.4249 255.464 39.7649 255.352 39.9889 255.128C40.2209 254.904 40.3369 254.6 40.3369 254.216C40.3369 253.816 40.2249 253.508 40.0009 253.292C39.7769 253.068 39.4329 252.956 38.9689 252.956H37.6369V255.464H38.9689ZM44.1097 252.56C43.8137 252.56 43.5657 252.468 43.3657 252.284C43.1737 252.092 43.0777 251.856 43.0777 251.576C43.0777 251.296 43.1737 251.064 43.3657 250.88C43.5657 250.688 43.8137 250.592 44.1097 250.592C44.4057 250.592 44.6497 250.688 44.8417 250.88C45.0417 251.064 45.1417 251.296 45.1417 251.576C45.1417 251.856 45.0417 252.092 44.8417 252.284C44.6497 252.468 44.4057 252.56 44.1097 252.56ZM44.9377 253.352V260H43.2577V253.352H44.9377ZM52.7775 256.52C52.7775 256.744 52.7615 256.952 52.7295 257.144H47.8695C47.9015 257.632 48.0655 258.016 48.3615 258.296C48.6575 258.576 49.0255 258.716 49.4655 258.716C50.0895 258.716 50.5335 258.448 50.7975 257.912H52.6095C52.4175 258.552 52.0495 259.08 51.5055 259.496C50.9615 259.904 50.2935 260.108 49.5015 260.108C48.8615 260.108 48.2855 259.968 47.7735 259.688C47.2695 259.4 46.8735 258.996 46.5855 258.476C46.3055 257.956 46.1655 257.356 46.1655 256.676C46.1655 255.988 46.3055 255.384 46.5855 254.864C46.8655 254.344 47.2575 253.944 47.7615 253.664C48.2655 253.384 48.8455 253.244 49.5015 253.244C50.1335 253.244 50.6975 253.38 51.1935 253.652C51.6975 253.924 52.0855 254.308 52.3575 254.804C52.6375 255.3 52.7775 255.872 52.7775 256.52ZM51.0375 256.124C51.0295 255.66 50.8735 255.296 50.5695 255.032C50.2735 254.76 49.9015 254.624 49.4535 254.624C49.0295 254.624 48.6735 254.76 48.3855 255.032C48.0975 255.296 47.9255 255.66 47.8695 256.124H51.0375ZM55.6838 251.12V260H54.0038V251.12H55.6838ZM63.5236 256.52C63.5236 256.744 63.5076 256.952 63.4756 257.144H58.6156C58.6476 257.632 58.8116 258.016 59.1076 258.296C59.4036 258.576 59.7716 258.716 60.2116 258.716C60.8356 258.716 61.2796 258.448 61.5436 257.912H63.3556C63.1636 258.552 62.7956 259.08 62.2516 259.496C61.7076 259.904 61.0396 260.108 60.2476 260.108C59.6076 260.108 59.0316 259.968 58.5196 259.688C58.0156 259.4 57.6196 258.996 57.3316 258.476C57.0516 257.956 56.9116 257.356 56.9116 256.676C56.9116 255.988 57.0516 255.384 57.3316 254.864C57.6116 254.344 58.0036 253.944 58.5076 253.664C59.0116 253.384 59.5916 253.244 60.2476 253.244C60.8796 253.244 61.4436 253.38 61.9396 253.652C62.4436 253.924 62.8316 254.308 63.1036 254.804C63.3836 255.3 63.5236 255.872 63.5236 256.52ZM61.7836 256.124C61.7756 255.66 61.6196 255.296 61.3156 255.032C61.0196 254.76 60.6476 254.624 60.1996 254.624C59.7756 254.624 59.4196 254.76 59.1316 255.032C58.8436 255.296 58.6716 255.66 58.6156 256.124H61.7836ZM67.2819 260.108C66.7379 260.108 66.2499 260.012 65.8179 259.82C65.3939 259.62 65.0539 259.352 64.7979 259.016C64.5499 258.68 64.4139 258.308 64.3899 257.9H66.0819C66.1139 258.18 66.2379 258.408 66.4539 258.584C66.6699 258.752 66.9459 258.836 67.2819 258.836C67.6019 258.836 67.8499 258.772 68.0259 258.644C68.2099 258.508 68.3019 258.328 68.3019 258.104C68.3019 257.888 68.1899 257.724 67.9659 257.612C67.7499 257.5 67.3979 257.384 66.9099 257.264C66.4219 257.144 66.0219 257.024 65.7099 256.904C65.3979 256.776 65.1299 256.58 64.9059 256.316C64.6819 256.052 64.5699 255.704 64.5699 255.272C64.5699 254.896 64.6699 254.556 64.8699 254.252C65.0779 253.94 65.3779 253.696 65.7699 253.52C66.1699 253.336 66.6379 253.244 67.1739 253.244C67.9659 253.244 68.5979 253.444 69.0699 253.844C69.5419 254.236 69.8019 254.768 69.8499 255.44H68.2419C68.2179 255.16 68.1059 254.936 67.9059 254.768C67.7139 254.6 67.4539 254.516 67.1259 254.516C66.8219 254.516 66.5859 254.58 66.4179 254.708C66.2579 254.828 66.1779 254.996 66.1779 255.212C66.1779 255.436 66.2899 255.608 66.5139 255.728C66.7379 255.84 67.0859 255.956 67.5579 256.076C68.0379 256.196 68.4339 256.32 68.7459 256.448C69.0579 256.576 69.3259 256.772 69.5499 257.036C69.7739 257.292 69.8859 257.64 69.8859 258.08C69.8859 258.464 69.7819 258.812 69.5739 259.124C69.3659 259.428 69.0659 259.668 68.6739 259.844C68.2819 260.02 67.8179 260.108 67.2819 260.108ZM77.1039 253.244C77.5999 253.244 78.0359 253.344 78.4119 253.544C78.7879 253.736 79.0839 253.988 79.2999 254.3V253.352H80.9919V260.048C80.9919 260.664 80.8679 261.212 80.6199 261.692C80.3719 262.18 79.9999 262.564 79.5039 262.844C79.0079 263.132 78.4079 263.276 77.7039 263.276C76.7599 263.276 75.9839 263.056 75.3759 262.616C74.7759 262.176 74.4359 261.576 74.3559 260.816H76.0239C76.1119 261.12 76.2999 261.36 76.5879 261.536C76.8839 261.72 77.2399 261.812 77.6559 261.812C78.1439 261.812 78.5399 261.664 78.8439 261.368C79.1479 261.08 79.2999 260.64 79.2999 260.048V259.016C79.0839 259.328 78.7839 259.588 78.3999 259.796C78.0239 260.004 77.5919 260.108 77.1039 260.108C76.5439 260.108 76.0319 259.964 75.5679 259.676C75.1039 259.388 74.7359 258.984 74.4639 258.464C74.1999 257.936 74.0679 257.332 74.0679 256.652C74.0679 255.98 74.1999 255.384 74.4639 254.864C74.7359 254.344 75.0999 253.944 75.5559 253.664C76.0199 253.384 76.5359 253.244 77.1039 253.244ZM79.2999 256.676C79.2999 256.268 79.2199 255.92 79.0599 255.632C78.8999 255.336 78.6839 255.112 78.4119 254.96C78.1399 254.8 77.8479 254.72 77.5359 254.72C77.2239 254.72 76.9359 254.796 76.6719 254.948C76.4079 255.1 76.1919 255.324 76.0239 255.62C75.8639 255.908 75.7839 256.252 75.7839 256.652C75.7839 257.052 75.8639 257.404 76.0239 257.708C76.1919 258.004 76.4079 258.232 76.6719 258.392C76.9439 258.552 77.2319 258.632 77.5359 258.632C77.8479 258.632 78.1399 258.556 78.4119 258.404C78.6839 258.244 78.8999 258.02 79.0599 257.732C79.2199 257.436 79.2999 257.084 79.2999 256.676ZM84.3127 254.528C84.5287 254.128 84.8087 253.816 85.1527 253.592C85.5047 253.368 85.9047 253.256 86.3527 253.256V255.02H85.9087C85.3807 255.02 84.9807 255.144 84.7087 255.392C84.4447 255.64 84.3127 256.072 84.3127 256.688V260H82.6327V253.352H84.3127V254.528ZM87.0522 256.652C87.0522 255.98 87.1842 255.384 87.4482 254.864C87.7203 254.344 88.0843 253.944 88.5403 253.664C89.0043 253.384 89.5203 253.244 90.0883 253.244C90.5843 253.244 91.0163 253.344 91.3843 253.544C91.7603 253.744 92.0603 253.996 92.2843 254.3V253.352H93.9763V260H92.2843V259.028C92.0683 259.34 91.7683 259.6 91.3843 259.808C91.0083 260.008 90.5723 260.108 90.0763 260.108C89.5163 260.108 89.0043 259.964 88.5403 259.676C88.0843 259.388 87.7203 258.984 87.4482 258.464C87.1842 257.936 87.0522 257.332 87.0522 256.652ZM92.2843 256.676C92.2843 256.268 92.2043 255.92 92.0443 255.632C91.8843 255.336 91.6683 255.112 91.3963 254.96C91.1243 254.8 90.8323 254.72 90.5203 254.72C90.2083 254.72 89.9203 254.796 89.6562 254.948C89.3923 255.1 89.1763 255.324 89.0083 255.62C88.8483 255.908 88.7683 256.252 88.7683 256.652C88.7683 257.052 88.8483 257.404 89.0083 257.708C89.1763 258.004 89.3923 258.232 89.6562 258.392C89.9283 258.552 90.2163 258.632 90.5203 258.632C90.8323 258.632 91.1243 258.556 91.3963 258.404C91.6683 258.244 91.8843 258.02 92.0443 257.732C92.2043 257.436 92.2843 257.084 92.2843 256.676ZM98.1491 260.108C97.6051 260.108 97.1171 260.012 96.6851 259.82C96.2611 259.62 95.9211 259.352 95.6651 259.016C95.4171 258.68 95.2811 258.308 95.2571 257.9H96.9491C96.9811 258.18 97.1051 258.408 97.3211 258.584C97.5371 258.752 97.8131 258.836 98.1491 258.836C98.4691 258.836 98.7171 258.772 98.8931 258.644C99.0771 258.508 99.1691 258.328 99.1691 258.104C99.1691 257.888 99.0571 257.724 98.8331 257.612C98.6171 257.5 98.2651 257.384 97.7771 257.264C97.2891 257.144 96.8891 257.024 96.5771 256.904C96.2651 256.776 95.9971 256.58 95.7731 256.316C95.5491 256.052 95.4371 255.704 95.4371 255.272C95.4371 254.896 95.5371 254.556 95.7371 254.252C95.9451 253.94 96.2451 253.696 96.6371 253.52C97.0371 253.336 97.5051 253.244 98.0411 253.244C98.8331 253.244 99.4651 253.444 99.9371 253.844C100.409 254.236 100.669 254.768 100.717 255.44H99.1091C99.0851 255.16 98.9731 254.936 98.7731 254.768C98.5811 254.6 98.3211 254.516 97.9931 254.516C97.6891 254.516 97.4531 254.58 97.2851 254.708C97.1251 254.828 97.0451 254.996 97.0451 255.212C97.0451 255.436 97.1571 255.608 97.3811 255.728C97.6051 255.84 97.9531 255.956 98.4251 256.076C98.9051 256.196 99.3011 256.32 99.6131 256.448C99.9251 256.576 100.193 256.772 100.417 257.036C100.641 257.292 100.753 257.64 100.753 258.08C100.753 258.464 100.649 258.812 100.441 259.124C100.233 259.428 99.9331 259.668 99.5411 259.844C99.1491 260.02 98.6851 260.108 98.1491 260.108ZM101.724 256.652C101.724 255.98 101.856 255.384 102.12 254.864C102.392 254.344 102.756 253.944 103.212 253.664C103.676 253.384 104.192 253.244 104.76 253.244C105.256 253.244 105.688 253.344 106.056 253.544C106.432 253.744 106.732 253.996 106.956 254.3V253.352H108.648V260H106.956V259.028C106.74 259.34 106.44 259.6 106.056 259.808C105.68 260.008 105.244 260.108 104.748 260.108C104.188 260.108 103.676 259.964 103.212 259.676C102.756 259.388 102.392 258.984 102.12 258.464C101.856 257.936 101.724 257.332 101.724 256.652ZM106.956 256.676C106.956 256.268 106.876 255.92 106.716 255.632C106.556 255.336 106.34 255.112 106.068 254.96C105.796 254.8 105.504 254.72 105.192 254.72C104.88 254.72 104.592 254.796 104.328 254.948C104.064 255.1 103.848 255.324 103.68 255.62C103.52 255.908 103.44 256.252 103.44 256.652C103.44 257.052 103.52 257.404 103.68 257.708C103.848 258.004 104.064 258.232 104.328 258.392C104.6 258.552 104.888 258.632 105.192 258.632C105.504 258.632 105.796 258.556 106.068 258.404C106.34 258.244 106.556 258.02 106.716 257.732C106.876 257.436 106.956 257.084 106.956 256.676ZM112.821 260.108C112.277 260.108 111.789 260.012 111.357 259.82C110.933 259.62 110.593 259.352 110.337 259.016C110.089 258.68 109.953 258.308 109.929 257.9H111.621C111.653 258.18 111.777 258.408 111.993 258.584C112.209 258.752 112.485 258.836 112.821 258.836C113.141 258.836 113.389 258.772 113.565 258.644C113.749 258.508 113.841 258.328 113.841 258.104C113.841 257.888 113.729 257.724 113.505 257.612C113.289 257.5 112.937 257.384 112.449 257.264C111.961 257.144 111.561 257.024 111.249 256.904C110.937 256.776 110.669 256.58 110.445 256.316C110.221 256.052 110.109 255.704 110.109 255.272C110.109 254.896 110.209 254.556 110.409 254.252C110.617 253.94 110.917 253.696 111.309 253.52C111.709 253.336 112.177 253.244 112.713 253.244C113.505 253.244 114.137 253.444 114.609 253.844C115.081 254.236 115.341 254.768 115.389 255.44H113.781C113.757 255.16 113.645 254.936 113.445 254.768C113.253 254.6 112.993 254.516 112.665 254.516C112.361 254.516 112.125 254.58 111.957 254.708C111.797 254.828 111.717 254.996 111.717 255.212C111.717 255.436 111.829 255.608 112.053 255.728C112.277 255.84 112.625 255.956 113.097 256.076C113.577 256.196 113.973 256.32 114.285 256.448C114.597 256.576 114.865 256.772 115.089 257.036C115.313 257.292 115.425 257.64 115.425 258.08C115.425 258.464 115.321 258.812 115.113 259.124C114.905 259.428 114.605 259.668 114.213 259.844C113.821 260.02 113.357 260.108 112.821 260.108Z" fill="#112959"/>
<path d="M159.528 3.636C160.44 3.636 161.228 3.808 161.892 4.152C162.564 4.488 163.076 4.972 163.428 5.604C163.788 6.236 163.968 6.98 163.968 7.836C163.968 8.692 163.788 9.436 163.428 10.068C163.076 10.692 162.564 11.172 161.892 11.508C161.228 11.836 160.44 12 159.528 12H156.924V3.636L159.528 3.636ZM159.528 11.16C160.6 11.16 161.42 10.868 161.988 10.284C162.564 9.692 162.852 8.876 162.852 7.836C162.852 6.796 162.564 5.984 161.988 5.4C161.42 4.816 160.6 4.524 159.528 4.524L158.016 4.524V11.16H159.528ZM171.408 8.436C171.408 8.636 171.396 8.852 171.372 9.084H166.116C166.148 9.732 166.364 10.244 166.764 10.62C167.172 10.996 167.668 11.184 168.252 11.184C168.724 11.184 169.116 11.076 169.428 10.86C169.748 10.636 169.972 10.34 170.1 9.972H171.276C171.1 10.604 170.748 11.12 170.22 11.52C169.692 11.912 169.036 12.108 168.252 12.108C167.628 12.108 167.068 11.968 166.572 11.688C166.084 11.408 165.7 11.012 165.42 10.5C165.14 9.98 165 9.38 165 8.7C165 8.02 165.136 7.424 165.408 6.912C165.68 6.4 166.06 6.008 166.548 5.736C167.044 5.456 167.612 5.316 168.252 5.316C168.876 5.316 169.424 5.452 169.896 5.724C170.376 5.996 170.748 6.368 171.012 6.84C171.276 7.312 171.408 7.844 171.408 8.436ZM170.28 8.292C170.28 7.86 170.188 7.492 170.004 7.188C169.82 6.876 169.568 6.64 169.248 6.48C168.936 6.32 168.588 6.24 168.204 6.24C167.644 6.24 167.168 6.424 166.776 6.792C166.384 7.152 166.168 7.652 166.128 8.292H170.28ZM176.054 5.304C176.854 5.304 177.502 5.548 177.998 6.036C178.494 6.516 178.742 7.212 178.742 8.124V12H177.662V8.28C177.662 7.624 177.498 7.124 177.17 6.78C176.842 6.428 176.394 6.252 175.826 6.252C175.25 6.252 174.79 6.432 174.446 6.792C174.11 7.152 173.942 7.676 173.942 8.364V12H172.85V5.424H173.942V6.36C174.158 6.024 174.45 5.764 174.818 5.58C175.194 5.396 175.606 5.304 176.054 5.304ZM182.842 12.108C182.338 12.108 181.886 12.024 181.486 11.856C181.094 11.68 180.782 11.44 180.55 11.136C180.318 10.824 180.19 10.468 180.166 10.068H181.294C181.326 10.412 181.478 10.692 181.75 10.908C182.03 11.124 182.394 11.232 182.842 11.232C183.266 11.232 183.594 11.14 183.826 10.956C184.066 10.764 184.186 10.516 184.186 10.212C184.186 9.924 184.058 9.712 183.802 9.576C183.546 9.432 183.15 9.292 182.614 9.156C182.126 9.028 181.73 8.9 181.426 8.772C181.122 8.644 180.862 8.456 180.646 8.208C180.43 7.952 180.322 7.616 180.322 7.2C180.322 6.856 180.418 6.54 180.61 6.252C180.802 5.964 181.078 5.736 181.438 5.568C181.806 5.4 182.23 5.316 182.71 5.316C183.438 5.316 184.026 5.5 184.474 5.868C184.922 6.236 185.162 6.74 185.194 7.38H184.102C184.078 7.02 183.938 6.732 183.682 6.516C183.434 6.3 183.098 6.192 182.674 6.192C182.274 6.192 181.958 6.28 181.726 6.456C181.502 6.632 181.39 6.864 181.39 7.152C181.39 7.376 181.462 7.56 181.606 7.704C181.75 7.84 181.926 7.948 182.134 8.028C182.342 8.1 182.638 8.192 183.022 8.304C183.502 8.432 183.886 8.56 184.174 8.688C184.462 8.808 184.71 8.988 184.918 9.228C185.126 9.468 185.23 9.788 185.23 10.188C185.23 10.556 185.13 10.884 184.93 11.172C184.738 11.46 184.462 11.688 184.102 11.856C183.742 12.024 183.322 12.108 182.842 12.108ZM186.387 8.688C186.387 8.016 186.523 7.428 186.795 6.924C187.067 6.412 187.439 6.016 187.911 5.736C188.391 5.456 188.923 5.316 189.507 5.316C190.083 5.316 190.583 5.44 191.007 5.688C191.431 5.936 191.747 6.248 191.955 6.624V5.424H193.059V12H191.955V10.776C191.739 11.16 191.415 11.48 190.983 11.736C190.559 11.984 190.063 12.108 189.495 12.108C188.911 12.108 188.383 11.964 187.911 11.676C187.439 11.388 187.067 10.984 186.795 10.464C186.523 9.944 186.387 9.352 186.387 8.688ZM191.955 8.7C191.955 8.204 191.855 7.772 191.655 7.404C191.455 7.036 191.183 6.756 190.839 6.564C190.503 6.364 190.131 6.264 189.723 6.264C189.315 6.264 188.943 6.36 188.607 6.552C188.271 6.744 188.003 7.024 187.803 7.392C187.603 7.76 187.503 8.192 187.503 8.688C187.503 9.192 187.603 9.632 187.803 10.008C188.003 10.376 188.271 10.66 188.607 10.86C188.943 11.052 189.315 11.148 189.723 11.148C190.131 11.148 190.503 11.052 190.839 10.86C191.183 10.66 191.455 10.376 191.655 10.008C191.855 9.632 191.955 9.196 191.955 8.7ZM204.479 8.436C204.479 8.636 204.467 8.852 204.443 9.084H199.187C199.219 9.732 199.435 10.244 199.835 10.62C200.243 10.996 200.739 11.184 201.323 11.184C201.795 11.184 202.187 11.076 202.499 10.86C202.819 10.636 203.043 10.34 203.171 9.972H204.347C204.171 10.604 203.819 11.12 203.291 11.52C202.763 11.912 202.107 12.108 201.323 12.108C200.699 12.108 200.139 11.968 199.643 11.688C199.155 11.408 198.771 11.012 198.491 10.5C198.211 9.98 198.071 9.38 198.071 8.7C198.071 8.02 198.207 7.424 198.479 6.912C198.751 6.4 199.131 6.008 199.619 5.736C200.115 5.456 200.683 5.316 201.323 5.316C201.947 5.316 202.495 5.452 202.967 5.724C203.447 5.996 203.819 6.368 204.083 6.84C204.347 7.312 204.479 7.844 204.479 8.436ZM203.351 8.292C203.351 7.86 203.259 7.492 203.075 7.188C202.891 6.876 202.639 6.64 202.319 6.48C202.007 6.32 201.659 6.24 201.275 6.24C200.715 6.24 200.239 6.424 199.847 6.792C199.455 7.152 199.239 7.652 199.199 8.292H203.351ZM212.758 5.304C213.254 5.304 213.702 5.412 214.102 5.628C214.502 5.836 214.814 6.152 215.038 6.576C215.27 7 215.386 7.516 215.386 8.124V12H214.306V8.28C214.306 7.624 214.142 7.124 213.814 6.78C213.486 6.428 213.038 6.252 212.47 6.252C211.894 6.252 211.434 6.432 211.09 6.792C210.754 7.152 210.586 7.676 210.586 8.364V12H209.494V3.12L210.586 3.12V6.36C210.802 6.024 211.098 5.764 211.474 5.58C211.858 5.396 212.286 5.304 212.758 5.304ZM217.734 4.356C217.526 4.356 217.35 4.284 217.206 4.14C217.062 3.996 216.99 3.82 216.99 3.612C216.99 3.404 217.062 3.228 217.206 3.084C217.35 2.94 217.526 2.868 217.734 2.868C217.934 2.868 218.102 2.94 218.238 3.084C218.382 3.228 218.454 3.404 218.454 3.612C218.454 3.82 218.382 3.996 218.238 4.14C218.102 4.284 217.934 4.356 217.734 4.356ZM218.262 5.424V12H217.17V5.424H218.262ZM219.715 8.688C219.715 8.016 219.851 7.428 220.123 6.924C220.395 6.412 220.767 6.016 221.239 5.736C221.719 5.456 222.255 5.316 222.847 5.316C223.359 5.316 223.835 5.436 224.275 5.676C224.715 5.908 225.051 6.216 225.283 6.6V3.12H226.387V12H225.283V10.764C225.067 11.156 224.747 11.48 224.323 11.736C223.899 11.984 223.403 12.108 222.835 12.108C222.251 12.108 221.719 11.964 221.239 11.676C220.767 11.388 220.395 10.984 220.123 10.464C219.851 9.944 219.715 9.352 219.715 8.688ZM225.283 8.7C225.283 8.204 225.183 7.772 224.983 7.404C224.783 7.036 224.511 6.756 224.167 6.564C223.831 6.364 223.459 6.264 223.051 6.264C222.643 6.264 222.271 6.36 221.935 6.552C221.599 6.744 221.331 7.024 221.131 7.392C220.931 7.76 220.831 8.192 220.831 8.688C220.831 9.192 220.931 9.632 221.131 10.008C221.331 10.376 221.599 10.66 221.935 10.86C222.271 11.052 222.643 11.148 223.051 11.148C223.459 11.148 223.831 11.052 224.167 10.86C224.511 10.66 224.783 10.376 224.983 10.008C225.183 9.632 225.283 9.196 225.283 8.7ZM229.325 6.672C229.517 6.24 229.789 5.904 230.141 5.664C230.501 5.424 230.937 5.304 231.449 5.304V6.432H231.161C229.937 6.432 229.325 7.096 229.325 8.424V12H228.233V5.424H229.325V6.672ZM232.301 8.688C232.301 8.016 232.437 7.428 232.709 6.924C232.981 6.412 233.353 6.016 233.825 5.736C234.305 5.456 234.837 5.316 235.421 5.316C235.997 5.316 236.497 5.44 236.921 5.688C237.345 5.936 237.661 6.248 237.869 6.624V5.424H238.973V12L237.869 12V10.776C237.653 11.16 237.329 11.48 236.897 11.736C236.473 11.984 235.977 12.108 235.409 12.108C234.825 12.108 234.297 11.964 233.825 11.676C233.353 11.388 232.981 10.984 232.709 10.464C232.437 9.944 232.301 9.352 232.301 8.688ZM237.869 8.7C237.869 8.204 237.769 7.772 237.569 7.404C237.369 7.036 237.097 6.756 236.753 6.564C236.417 6.364 236.045 6.264 235.637 6.264C235.229 6.264 234.857 6.36 234.521 6.552C234.185 6.744 233.917 7.024 233.717 7.392C233.517 7.76 233.417 8.192 233.417 8.688C233.417 9.192 233.517 9.632 233.717 10.008C233.917 10.376 234.185 10.66 234.521 10.86C234.857 11.052 235.229 11.148 235.637 11.148C236.045 11.148 236.417 11.052 236.753 10.86C237.097 10.66 237.369 10.376 237.569 10.008C237.769 9.632 237.869 9.196 237.869 8.7ZM242.151 6.324V10.2C242.151 10.52 242.219 10.748 242.355 10.884C242.491 11.012 242.727 11.076 243.063 11.076H243.867V12H242.883C242.275 12 241.819 11.86 241.515 11.58C241.211 11.3 241.059 10.84 241.059 10.2V6.324H240.207V5.424H241.059V3.768H242.151V5.424H243.867V6.324H242.151ZM244.782 8.688C244.782 8.016 244.918 7.428 245.19 6.924C245.462 6.412 245.834 6.016 246.306 5.736C246.786 5.456 247.318 5.316 247.902 5.316C248.478 5.316 248.978 5.44 249.402 5.688C249.826 5.936 250.142 6.248 250.35 6.624V5.424H251.454V12H250.35V10.776C250.134 11.16 249.81 11.48 249.378 11.736C248.954 11.984 248.458 12.108 247.89 12.108C247.306 12.108 246.778 11.964 246.306 11.676C245.834 11.388 245.462 10.984 245.19 10.464C244.918 9.944 244.782 9.352 244.782 8.688ZM250.35 8.7C250.35 8.204 250.25 7.772 250.05 7.404C249.85 7.036 249.578 6.756 249.234 6.564C248.898 6.364 248.526 6.264 248.118 6.264C247.71 6.264 247.338 6.36 247.002 6.552C246.666 6.744 246.398 7.024 246.198 7.392C245.998 7.76 245.898 8.192 245.898 8.688C245.898 9.192 245.998 9.632 246.198 10.008C246.398 10.376 246.666 10.66 247.002 10.86C247.338 11.052 247.71 11.148 248.118 11.148C248.526 11.148 248.898 11.052 249.234 10.86C249.578 10.66 249.85 10.376 250.05 10.008C250.25 9.632 250.35 9.196 250.35 8.7ZM256.503 5.304C257.303 5.304 257.951 5.548 258.447 6.036C258.943 6.516 259.191 7.212 259.191 8.124V12H258.111V8.28C258.111 7.624 257.947 7.124 257.619 6.78C257.291 6.428 256.843 6.252 256.275 6.252C255.699 6.252 255.239 6.432 254.895 6.792C254.559 7.152 254.391 7.676 254.391 8.364V12H253.299V5.424H254.391V6.36C254.607 6.024 254.899 5.764 255.267 5.58C255.643 5.396 256.055 5.304 256.503 5.304ZM262.307 6.324V10.2C262.307 10.52 262.375 10.748 262.511 10.884C262.647 11.012 262.883 11.076 263.219 11.076H264.023V12H263.039C262.431 12 261.975 11.86 261.671 11.58C261.367 11.3 261.215 10.84 261.215 10.2V6.324H260.363V5.424H261.215V3.768H262.307V5.424L264.023 5.424V6.324L262.307 6.324ZM271.346 8.436C271.346 8.636 271.334 8.852 271.31 9.084H266.054C266.086 9.732 266.302 10.244 266.702 10.62C267.11 10.996 267.606 11.184 268.19 11.184C268.662 11.184 269.054 11.076 269.366 10.86C269.686 10.636 269.91 10.34 270.038 9.972H271.214C271.038 10.604 270.686 11.12 270.158 11.52C269.63 11.912 268.974 12.108 268.19 12.108C267.566 12.108 267.006 11.968 266.51 11.688C266.022 11.408 265.638 11.012 265.358 10.5C265.078 9.98 264.938 9.38 264.938 8.7C264.938 8.02 265.074 7.424 265.346 6.912C265.618 6.4 265.998 6.008 266.486 5.736C266.982 5.456 267.55 5.316 268.19 5.316C268.814 5.316 269.362 5.452 269.834 5.724C270.314 5.996 270.686 6.368 270.95 6.84C271.214 7.312 271.346 7.844 271.346 8.436ZM270.218 8.292C270.218 7.86 270.126 7.492 269.942 7.188C269.758 6.876 269.506 6.64 269.186 6.48C268.874 6.32 268.526 6.24 268.142 6.24C267.582 6.24 267.106 6.424 266.714 6.792C266.322 7.152 266.106 7.652 266.066 8.292H270.218Z" fill="#98A2B3"/>
<path d="M48.5571 6.216C48.5571 6.664 48.4491 7.084 48.2331 7.476C48.0251 7.868 47.6931 8.184 47.2371 8.424C46.7891 8.664 46.2211 8.784 45.5331 8.784H44.1291V12H42.4491V3.624L45.5331 3.624C46.1811 3.624 46.7331 3.736 47.1891 3.96C47.6451 4.184 47.9851 4.492 48.2091 4.884C48.4411 5.276 48.5571 5.72 48.5571 6.216ZM45.4611 7.464C45.9171 7.464 46.2571 7.352 46.4811 7.128C46.7131 6.904 46.8291 6.6 46.8291 6.216C46.8291 5.816 46.7171 5.508 46.4931 5.292C46.2691 5.068 45.9251 4.956 45.4611 4.956H44.1291V7.464H45.4611ZM50.6019 4.56C50.3059 4.56 50.0579 4.468 49.8579 4.284C49.6659 4.092 49.5699 3.856 49.5699 3.576C49.5699 3.296 49.6659 3.064 49.8579 2.88C50.0579 2.688 50.3059 2.592 50.6019 2.592C50.8979 2.592 51.1419 2.688 51.3339 2.88C51.5339 3.064 51.6339 3.296 51.6339 3.576C51.6339 3.856 51.5339 4.092 51.3339 4.284C51.1419 4.468 50.8979 4.56 50.6019 4.56ZM51.4299 5.352V12H49.7499V5.352H51.4299ZM59.2697 8.52C59.2697 8.744 59.2537 8.952 59.2217 9.144H54.3617C54.3937 9.632 54.5577 10.016 54.8537 10.296C55.1497 10.576 55.5177 10.716 55.9577 10.716C56.5817 10.716 57.0257 10.448 57.2897 9.912H59.1017C58.9097 10.552 58.5417 11.08 57.9977 11.496C57.4537 11.904 56.7857 12.108 55.9937 12.108C55.3537 12.108 54.7777 11.968 54.2657 11.688C53.7617 11.4 53.3657 10.996 53.0777 10.476C52.7977 9.956 52.6577 9.356 52.6577 8.676C52.6577 7.988 52.7977 7.384 53.0777 6.864C53.3577 6.344 53.7497 5.944 54.2537 5.664C54.7577 5.384 55.3377 5.244 55.9937 5.244C56.6257 5.244 57.1897 5.38 57.6857 5.652C58.1897 5.924 58.5777 6.308 58.8497 6.804C59.1297 7.3 59.2697 7.872 59.2697 8.52ZM57.5297 8.124C57.5217 7.66 57.3657 7.296 57.0617 7.032C56.7657 6.76 56.3937 6.624 55.9457 6.624C55.5217 6.624 55.1657 6.76 54.8777 7.032C54.5897 7.296 54.4177 7.66 54.3617 8.124H57.5297ZM62.176 3.12V12L60.496 12V3.12L62.176 3.12ZM70.0158 8.52C70.0158 8.744 69.9998 8.952 69.9678 9.144H65.1078C65.1398 9.632 65.3038 10.016 65.5998 10.296C65.8958 10.576 66.2638 10.716 66.7038 10.716C67.3278 10.716 67.7718 10.448 68.0358 9.912H69.8478C69.6558 10.552 69.2878 11.08 68.7438 11.496C68.1998 11.904 67.5318 12.108 66.7398 12.108C66.0998 12.108 65.5238 11.968 65.0118 11.688C64.5078 11.4 64.1118 10.996 63.8238 10.476C63.5438 9.956 63.4038 9.356 63.4038 8.676C63.4038 7.988 63.5438 7.384 63.8238 6.864C64.1038 6.344 64.4958 5.944 64.9998 5.664C65.5038 5.384 66.0838 5.244 66.7398 5.244C67.3718 5.244 67.9358 5.38 68.4318 5.652C68.9358 5.924 69.3238 6.308 69.5958 6.804C69.8758 7.3 70.0158 7.872 70.0158 8.52ZM68.2758 8.124C68.2678 7.66 68.1118 7.296 67.8078 7.032C67.5118 6.76 67.1398 6.624 66.6918 6.624C66.2678 6.624 65.9118 6.76 65.6238 7.032C65.3358 7.296 65.1638 7.66 65.1078 8.124H68.2758ZM73.7741 12.108C73.2301 12.108 72.7421 12.012 72.3101 11.82C71.8861 11.62 71.5461 11.352 71.2901 11.016C71.0421 10.68 70.9061 10.308 70.8821 9.9L72.5741 9.9C72.6061 10.18 72.7301 10.408 72.9461 10.584C73.1621 10.752 73.4381 10.836 73.7741 10.836C74.0941 10.836 74.3421 10.772 74.5181 10.644C74.7021 10.508 74.7941 10.328 74.7941 10.104C74.7941 9.888 74.6821 9.724 74.4581 9.612C74.2421 9.5 73.8901 9.384 73.4021 9.264C72.9141 9.144 72.5141 9.024 72.2021 8.904C71.8901 8.776 71.6221 8.58 71.3981 8.316C71.1741 8.052 71.0621 7.704 71.0621 7.272C71.0621 6.896 71.1621 6.556 71.3621 6.252C71.5701 5.94 71.8701 5.696 72.2621 5.52C72.6621 5.336 73.1301 5.244 73.6661 5.244C74.4581 5.244 75.0901 5.444 75.5621 5.844C76.0341 6.236 76.2941 6.768 76.3421 7.44H74.7341C74.7101 7.16 74.5981 6.936 74.3981 6.768C74.2061 6.6 73.9461 6.516 73.6181 6.516C73.3141 6.516 73.0781 6.58 72.9101 6.708C72.7501 6.828 72.6701 6.996 72.6701 7.212C72.6701 7.436 72.7821 7.608 73.0061 7.728C73.2301 7.84 73.5781 7.956 74.0501 8.076C74.5301 8.196 74.9261 8.32 75.2381 8.448C75.5501 8.576 75.8181 8.772 76.0421 9.036C76.2661 9.292 76.3781 9.64 76.3781 10.08C76.3781 10.464 76.2741 10.812 76.0661 11.124C75.8581 11.428 75.5581 11.668 75.1661 11.844C74.7741 12.02 74.3101 12.108 73.7741 12.108ZM83.5241 12.108C82.9801 12.108 82.4921 12.012 82.0601 11.82C81.6361 11.62 81.2961 11.352 81.0401 11.016C80.7921 10.68 80.6561 10.308 80.6321 9.9H82.3241C82.3561 10.18 82.4801 10.408 82.6961 10.584C82.9121 10.752 83.1881 10.836 83.5241 10.836C83.8441 10.836 84.0921 10.772 84.2681 10.644C84.4521 10.508 84.5441 10.328 84.5441 10.104C84.5441 9.888 84.4321 9.724 84.2081 9.612C83.9921 9.5 83.6401 9.384 83.1521 9.264C82.6641 9.144 82.2641 9.024 81.9521 8.904C81.6401 8.776 81.3721 8.58 81.1481 8.316C80.9241 8.052 80.8121 7.704 80.8121 7.272C80.8121 6.896 80.9121 6.556 81.1121 6.252C81.3201 5.94 81.6201 5.696 82.0121 5.52C82.4121 5.336 82.8801 5.244 83.4161 5.244C84.2081 5.244 84.8401 5.444 85.3121 5.844C85.7841 6.236 86.0441 6.768 86.0921 7.44L84.4841 7.44C84.4601 7.16 84.3481 6.936 84.1481 6.768C83.9561 6.6 83.6961 6.516 83.3681 6.516C83.0641 6.516 82.8281 6.58 82.6601 6.708C82.5001 6.828 82.4201 6.996 82.4201 7.212C82.4201 7.436 82.5321 7.608 82.7561 7.728C82.9801 7.84 83.3281 7.956 83.8001 8.076C84.2801 8.196 84.6761 8.32 84.9881 8.448C85.3001 8.576 85.5681 8.772 85.7921 9.036C86.0161 9.292 86.1281 9.64 86.1281 10.08C86.1281 10.464 86.0241 10.812 85.8161 11.124C85.6081 11.428 85.3081 11.668 84.9161 11.844C84.5241 12.02 84.0601 12.108 83.5241 12.108ZM93.7111 8.52C93.7111 8.744 93.6951 8.952 93.6631 9.144H88.8031C88.8351 9.632 88.9991 10.016 89.2951 10.296C89.5911 10.576 89.9591 10.716 90.3991 10.716C91.0231 10.716 91.4671 10.448 91.7311 9.912H93.5431C93.3511 10.552 92.9831 11.08 92.4391 11.496C91.8951 11.904 91.2271 12.108 90.4351 12.108C89.7951 12.108 89.2191 11.968 88.7071 11.688C88.2031 11.4 87.8071 10.996 87.5191 10.476C87.2391 9.956 87.0991 9.356 87.0991 8.676C87.0991 7.988 87.2391 7.384 87.5191 6.864C87.7991 6.344 88.1911 5.944 88.6951 5.664C89.1991 5.384 89.7791 5.244 90.4351 5.244C91.0671 5.244 91.6311 5.38 92.1271 5.652C92.6311 5.924 93.0191 6.308 93.2911 6.804C93.5711 7.3 93.7111 7.872 93.7111 8.52ZM91.9711 8.124C91.9631 7.66 91.8071 7.296 91.5031 7.032C91.2071 6.76 90.8351 6.624 90.3871 6.624C89.9631 6.624 89.6071 6.76 89.3191 7.032C89.0311 7.296 88.8591 7.66 88.8031 8.124H91.9711ZM94.5054 8.676C94.5054 7.988 94.6454 7.388 94.9254 6.876C95.2054 6.356 95.5934 5.956 96.0894 5.676C96.5854 5.388 97.1534 5.244 97.7934 5.244C98.6174 5.244 99.2974 5.452 99.8334 5.868C100.377 6.276 100.741 6.852 100.925 7.596H99.1134C99.0174 7.308 98.8534 7.084 98.6214 6.924C98.3974 6.756 98.1174 6.672 97.7814 6.672C97.3014 6.672 96.9214 6.848 96.6414 7.2C96.3614 7.544 96.2214 8.036 96.2214 8.676C96.2214 9.308 96.3614 9.8 96.6414 10.152C96.9214 10.496 97.3014 10.668 97.7814 10.668C98.4614 10.668 98.9054 10.364 99.1134 9.756H100.925C100.741 10.476 100.377 11.048 99.8334 11.472C99.2894 11.896 98.6094 12.108 97.7934 12.108C97.1534 12.108 96.5854 11.968 96.0894 11.688C95.5934 11.4 95.2054 11 94.9254 10.488C94.6454 9.968 94.5054 9.364 94.5054 8.676ZM101.724 8.652C101.724 7.98 101.856 7.384 102.12 6.864C102.392 6.344 102.756 5.944 103.212 5.664C103.676 5.384 104.192 5.244 104.76 5.244C105.256 5.244 105.688 5.344 106.056 5.544C106.432 5.744 106.732 5.996 106.956 6.3V5.352L108.648 5.352V12H106.956V11.028C106.74 11.34 106.44 11.6 106.056 11.808C105.68 12.008 105.244 12.108 104.748 12.108C104.188 12.108 103.676 11.964 103.212 11.676C102.756 11.388 102.392 10.984 102.12 10.464C101.856 9.936 101.724 9.332 101.724 8.652ZM106.956 8.676C106.956 8.268 106.876 7.92 106.716 7.632C106.556 7.336 106.34 7.112 106.068 6.96C105.796 6.8 105.504 6.72 105.192 6.72C104.88 6.72 104.592 6.796 104.328 6.948C104.064 7.1 103.848 7.324 103.68 7.62C103.52 7.908 103.44 8.252 103.44 8.652C103.44 9.052 103.52 9.404 103.68 9.708C103.848 10.004 104.064 10.232 104.328 10.392C104.6 10.552 104.888 10.632 105.192 10.632C105.504 10.632 105.796 10.556 106.068 10.404C106.34 10.244 106.556 10.02 106.716 9.732C106.876 9.436 106.956 9.084 106.956 8.676ZM112.821 12.108C112.277 12.108 111.789 12.012 111.357 11.82C110.933 11.62 110.593 11.352 110.337 11.016C110.089 10.68 109.953 10.308 109.929 9.9H111.621C111.653 10.18 111.777 10.408 111.993 10.584C112.209 10.752 112.485 10.836 112.821 10.836C113.141 10.836 113.389 10.772 113.565 10.644C113.749 10.508 113.841 10.328 113.841 10.104C113.841 9.888 113.729 9.724 113.505 9.612C113.289 9.5 112.937 9.384 112.449 9.264C111.961 9.144 111.561 9.024 111.249 8.904C110.937 8.776 110.669 8.58 110.445 8.316C110.221 8.052 110.109 7.704 110.109 7.272C110.109 6.896 110.209 6.556 110.409 6.252C110.617 5.94 110.917 5.696 111.309 5.52C111.709 5.336 112.177 5.244 112.713 5.244C113.505 5.244 114.137 5.444 114.609 5.844C115.081 6.236 115.341 6.768 115.389 7.44H113.781C113.757 7.16 113.645 6.936 113.445 6.768C113.253 6.6 112.993 6.516 112.665 6.516C112.361 6.516 112.125 6.58 111.957 6.708C111.797 6.828 111.717 6.996 111.717 7.212C111.717 7.436 111.829 7.608 112.053 7.728C112.277 7.84 112.625 7.956 113.097 8.076C113.577 8.196 113.973 8.32 114.285 8.448C114.597 8.576 114.865 8.772 115.089 9.036C115.313 9.292 115.425 9.64 115.425 10.08C115.425 10.464 115.321 10.812 115.113 11.124C114.905 11.428 114.605 11.668 114.213 11.844C113.821 12.02 113.357 12.108 112.821 12.108Z" fill="#112959"/>
<path d="M175.084 211.242V212.236H172.424V221H171.15V212.236H168.476V211.242H175.084ZM183.456 213.328V221H182.182V219.866C181.94 220.258 181.599 220.566 181.16 220.79C180.731 221.005 180.255 221.112 179.732 221.112C179.135 221.112 178.598 220.991 178.122 220.748C177.646 220.496 177.268 220.123 176.988 219.628C176.718 219.133 176.582 218.531 176.582 217.822V213.328H177.842V217.654C177.842 218.41 178.034 218.993 178.416 219.404C178.799 219.805 179.322 220.006 179.984 220.006C180.666 220.006 181.202 219.796 181.594 219.376C181.986 218.956 182.182 218.345 182.182 217.542V213.328H183.456ZM191.051 214.742C191.303 214.303 191.677 213.939 192.171 213.65C192.675 213.351 193.259 213.202 193.921 213.202C194.603 213.202 195.219 213.365 195.769 213.692C196.329 214.019 196.768 214.481 197.085 215.078C197.403 215.666 197.561 216.352 197.561 217.136C197.561 217.911 197.403 218.601 197.085 219.208C196.768 219.815 196.329 220.286 195.769 220.622C195.219 220.958 194.603 221.126 193.921 221.126C193.268 221.126 192.689 220.981 192.185 220.692C191.691 220.393 191.313 220.025 191.051 219.586V224.64H189.777V213.328H191.051V214.742ZM196.259 217.136C196.259 216.557 196.143 216.053 195.909 215.624C195.676 215.195 195.359 214.868 194.957 214.644C194.565 214.42 194.131 214.308 193.655 214.308C193.189 214.308 192.755 214.425 192.353 214.658C191.961 214.882 191.644 215.213 191.401 215.652C191.168 216.081 191.051 216.581 191.051 217.15C191.051 217.729 191.168 218.237 191.401 218.676C191.644 219.105 191.961 219.437 192.353 219.67C192.755 219.894 193.189 220.006 193.655 220.006C194.131 220.006 194.565 219.894 194.957 219.67C195.359 219.437 195.676 219.105 195.909 218.676C196.143 218.237 196.259 217.724 196.259 217.136ZM199.896 212.082C199.653 212.082 199.448 211.998 199.28 211.83C199.112 211.662 199.028 211.457 199.028 211.214C199.028 210.971 199.112 210.766 199.28 210.598C199.448 210.43 199.653 210.346 199.896 210.346C200.129 210.346 200.325 210.43 200.484 210.598C200.652 210.766 200.736 210.971 200.736 211.214C200.736 211.457 200.652 211.662 200.484 211.83C200.325 211.998 200.129 212.082 199.896 212.082ZM200.512 213.328V221H199.238V213.328H200.512ZM209.683 216.842C209.683 217.075 209.669 217.327 209.641 217.598H203.509C203.547 218.354 203.799 218.951 204.265 219.39C204.741 219.829 205.32 220.048 206.001 220.048C206.552 220.048 207.009 219.922 207.373 219.67C207.747 219.409 208.008 219.063 208.157 218.634H209.529C209.324 219.371 208.913 219.973 208.297 220.44C207.681 220.897 206.916 221.126 206.001 221.126C205.273 221.126 204.62 220.963 204.041 220.636C203.472 220.309 203.024 219.847 202.697 219.25C202.371 218.643 202.207 217.943 202.207 217.15C202.207 216.357 202.366 215.661 202.683 215.064C203.001 214.467 203.444 214.009 204.013 213.692C204.592 213.365 205.255 213.202 206.001 213.202C206.729 213.202 207.369 213.361 207.919 213.678C208.479 213.995 208.913 214.429 209.221 214.98C209.529 215.531 209.683 216.151 209.683 216.842ZM208.367 216.674C208.367 216.17 208.26 215.741 208.045 215.386C207.831 215.022 207.537 214.747 207.163 214.56C206.799 214.373 206.393 214.28 205.945 214.28C205.292 214.28 204.737 214.495 204.279 214.924C203.822 215.344 203.57 215.927 203.523 216.674H208.367ZM212.639 210.64V221H211.365V210.64H212.639Z" fill="#23D9B7"/>
<circle cx="136" cy="216" r="32" fill="url(#paint1_radial_3126_9936)"/>
<circle cx="136" cy="216" r="24" fill="url(#paint2_radial_3126_9936)"/>
<circle cx="136" cy="216" r="16" fill="url(#paint3_radial_3126_9936)"/>
<circle cx="136" cy="216" r="6" fill="#23D9B7"/>
<defs>
<linearGradient id="paint0_linear_3126_9936" x1="136" y1="0" x2="136" y2="264" gradientUnits="userSpaceOnUse">
<stop stop-color="#99F2E2" stop-opacity="0.2"/>
<stop offset="0.495" stop-color="#1FA6A6" stop-opacity="0.3"/>
<stop offset="1" stop-color="#99F2E2" stop-opacity="0.2"/>
</linearGradient>
<radialGradient id="paint1_radial_3126_9936" cx="0" cy="0" r="1" gradientUnits="userSpaceOnUse" gradientTransform="translate(136 216) rotate(90) scale(62)">
<stop offset="0.435" stop-color="#23D9B7" stop-opacity="0"/>
<stop offset="1" stop-color="#23D9B7" stop-opacity="0.2"/>
</radialGradient>
<radialGradient id="paint2_radial_3126_9936" cx="0" cy="0" r="1" gradientUnits="userSpaceOnUse" gradientTransform="translate(136 216) rotate(90) scale(46.5)">
<stop offset="0.38" stop-color="#23D9B7" stop-opacity="0"/>
<stop offset="1" stop-color="#23D9B7" stop-opacity="0.2"/>
</radialGradient>
<radialGradient id="paint3_radial_3126_9936" cx="0" cy="0" r="1" gradientUnits="userSpaceOnUse" gradientTransform="translate(136 216) rotate(90) scale(31)">
<stop offset="0.3" stop-color="#23D9B7" stop-opacity="0"/>
<stop offset="1" stop-color="#23D9B7" stop-opacity="0.5"/>
</radialGradient>
</defs>
</svg>
