<svg id="logo-seme" xmlns="http://www.w3.org/2000/svg" width="600" height="260" viewBox="0 0 600 260"><path id="logo-seme-letras" d="M134.53 166.25c6.03-6.67 9.05-16.21 9.05-28.63 0-4.52-0.31-8.83-0.94-12.94 1.32 3.62 2.86 7.12 4.64 10.46 6.85 12.91 15.97 23.19 27.37 30.82 0.18 0.12 0.37 0.23 0.54 0.35 3.9-0.61 7.88-1.09 11.87-1.37 21.44-2.03 41.92 1.43 47.17 2.16 7.09 1.52 14.05 3.46 20.83 5.81 8.5-2.53 17.07-6.45 25.69-11.77l-1.45 13.74h22.33l6.29-83.92 11.49 83.93h7.73l12.53-83.92 5.55 83.93h23.08l-4.3-43.48c12.26 27.11 36.99 46.82 72.37 46.82 28.31 0 46.55-6.33 66.66-19.74v-32.03c-19.36 12.66-38.36 20.11-58.46 20.11 -32.04 0-51.02-17.13-56.24-50.28h117.68c0-61.82-28.3-91.99-72.61-91.99 -38.82 0-67.62 24.21-75.83 62.01l-6.32-63.94h-18.88l-8.56 95.46 -7.53-95.46h-18.83l-13.06 124.09c-18.31 13.36-38.28 20.05-59.92 20.05 -15.64 0-28.4-4.73-38.28-14.19 -9.88-9.46-15.25-22.19-16.09-38.19h117.65v-4.18c0-26.06-6.61-46.85-19.82-62.37 -13.22-15.51-30.92-23.28-53.1-23.28 -23.03 0-41.76 7.98-56.19 23.92C144.21 44.16 137 64.86 137 90.32c0 5.25 0.33 10.3 0.98 15.16 -2.08-7.01-4.63-14.48-7.67-22.46 -4.18-11-7.14-20.21-8.87-27.62 -0.9-3.95-1.36-7.98-1.36-12.06 0-6.21 1.38-10.94 4.13-14.18 2.75-3.24 6.1-4.87 10.05-4.87 2.68 0 5.64 0.78 8.89 2.33V3.65C137.58 1.89 132.64 1 128.33 1c-9.24 0-16.74 3.39-22.49 10.16 -5.75 6.77-8.62 17.57-8.62 32.38 0 6.84 0.64 13.06 1.9 18.63 2.25 9.81 5.75 20.73 10.48 32.75 4.73 12.03 7.97 21.81 9.74 29.37 0.92 3.81 1.38 7.8 1.38 11.97 0 5.22-1.22 9.17-3.65 11.85 -2.44 2.68-5.73 4.02-9.9 4.02 -3.03 0-6.35-0.77-9.94-2.33V173.5c5.85 1.84 10.76 2.75 14.71 2.75C120.96 176.25 128.49 172.92 134.53 166.25zM434.13 32.99c23.46 0 37.98 16.01 39.11 41.33h-84.17C393.54 47.89 408.81 32.99 434.13 32.99zM185.64 43.77c7.57-7.15 17.3-10.72 29.18-10.72 11.88 0 21.34 3.58 28.37 10.73 7.03 7.15 10.97 17.34 11.82 30.55h-84.19C173.12 61.11 178.06 50.92 185.64 43.77z"></path><path id="logo-seme-adorno" d="M396.03 209.13c-43.66 4.93-93.59-15.74-140.38-31.59 -29.26-10.35-63.92-9.02-93.76-0.98 -30.26 7.78-57.57 20.15-83.24 30.19 0.51 1.3 5.58 1.55 1.54 3.92 -16.39 8.6-15.5 11.03-14.55 13.73 0.49 1.37 13.05-4.83 9.2-1.89 13.04-4.93 34.99-13.23 22.49-6.61 -3.81 3.1-21.71 8.67-25.39 12.18 -3.69 3.63 5.88 2.31 2.19 5.92 -4.45 1.65-13.42 4.82-18.01 6.21 -4.16 2.78 5.87 2.56 1.27 4.01 -6.7 2.88-14.9 5.43-23.98 7.36 -4.52 0.97-9.47 1.77-13.61 2.5 -4.73 0.9-10.93 1.62-17.22 1.07 0.77 1.28-7.02 2.55 6.34 3.73 46.67-4.42 84.61-23.23 122.81-37.29 37.69-14.43 76.14-24.18 111.25-14.47 37.47 9.76 76.39 30.29 123.1 33.52 23.3 1.05 44.47-1.32 66.25-5.69 21.46-5.05 43.53-10.15 64.42-28.67 9.12-10.28 8.2-12.13 5.34-9.58 -3.31 2.89-10.57 9.28-18.1 12.55 5.01-2.47 3.68-4.27 8.39-7.52 -1.65-1.52-11.6 4.29-29.7 10.74 4.49-1.84 8.91-3.91 13.2-6.38 3.89-3.09-1.06-1.74-1.76-3.03 -4.13 2.35-8.4 4.37-8.72 3.64 -0.29-0.63-0.87-1.91-1.16-2.56 4.29-1.68 12.1-6.33 15.61-9.1 -3.63 2.61-7.42 5.09-7.84 4.38 -0.35-0.6-1.05-1.82-1.41-2.43 -7.66 3.86-19.93 9.79-28.95 11.44l-0.56-2.03c8.5-2.96 21.25-6.84 28.46-11.23 -4.1 1.4-4.38 0.76-5.02-0.48 -11.22 5.05-23.78 10.66-37.31 11.38 4.4-0.82 8.66-1.99 12.95-3.05C430.96 202.18 409.63 208.86 396.03 209.13z" fill="#335FA6"></path></svg>