<svg width="140" height="140" viewBox="0 0 140 140" fill="none" xmlns="http://www.w3.org/2000/svg">
<g id="Atoms / Resources / Halos">
<g id="Halo 2" filter="url(#filter0_f_2256_10578)">
<path d="M129.488 84.3881L130.256 80.5678C125.825 78.556 122.664 76.6595 120.651 74.8893C118.62 73.1022 118.034 71.6964 118.061 70.6414C118.087 69.5755 118.756 68.1672 120.887 66.4191C122.994 64.6911 126.253 62.8684 130.776 60.9631L130.084 57.1216C125.181 56.9154 121.497 56.3431 118.93 55.4574C116.333 54.5617 115.231 53.4754 114.844 52.4887C114.459 51.506 114.53 49.9749 115.831 47.5798C117.119 45.2094 119.442 42.3206 122.917 38.8817L120.862 35.5682C116.319 37.1251 112.692 37.9415 109.912 38.0903C107.108 38.2405 105.462 37.6983 104.531 36.8963C103.647 36.1351 103.016 34.7959 103.044 32.377C103.072 29.94 103.777 26.6794 105.272 22.5108L107.801 15.4582L102.094 20.3122C98.7257 23.1766 95.9337 24.9809 93.6779 25.8625C91.4381 26.7378 89.988 26.6127 88.9922 26.0621C87.9393 25.4797 86.8734 24.1402 86.0526 21.4658C85.2399 18.8177 84.7577 15.1441 84.6505 10.3576L80.8305 9.57417C78.8083 14.0195 76.9046 17.1998 75.1297 19.2317C73.3348 21.2864 71.927 21.8859 70.8803 21.8687C69.8341 21.8514 68.4471 21.2061 66.7216 19.0913C65.0151 16.9998 63.2179 13.7536 61.3442 9.23405L57.4989 9.90591C57.2677 14.8138 56.6791 18.5045 55.7834 21.0816C54.8771 23.689 53.7857 24.8052 52.7953 25.2001C51.8169 25.5902 50.3007 25.5281 47.9297 24.2441C45.5804 22.9718 42.7177 20.6669 39.3097 17.2124L35.9904 19.255C37.5153 23.7847 38.3085 27.4041 38.4411 30.1793C38.575 32.9789 38.0259 34.6286 37.216 35.5654C36.4471 36.4549 35.1037 37.087 32.6928 37.0613C30.2621 37.0354 27.0121 36.3334 22.8576 34.8404L15.825 32.313L20.6551 38.0152C23.5042 41.3787 25.2951 44.1707 26.1661 46.4299C27.0301 48.6708 26.9033 50.1362 26.3412 51.153C25.7476 52.2265 24.3945 53.3071 21.7198 54.1456C19.0696 54.9765 15.3971 55.48 10.616 55.6118L9.84462 59.4323C14.2595 61.4359 17.4076 63.3238 19.4096 65.0858C21.4305 66.8644 22.0072 68.2603 21.9773 69.3058C21.947 70.3652 21.2758 71.7702 19.1367 73.5168C17.0232 75.2426 13.7575 77.0638 9.22489 78.9694L9.91583 82.8113C14.8114 83.0175 18.4861 83.5878 21.0446 84.4703C23.6325 85.363 24.7201 86.4434 25.098 87.4194C25.4753 88.3941 25.3987 89.9212 24.0836 92.3172C22.7831 94.6865 20.4442 97.5748 16.9522 101.014L19.0011 104.332C23.544 102.783 27.1723 101.971 29.9513 101.822C32.7578 101.671 34.3977 102.211 35.3187 103.004C36.1883 103.752 36.8101 105.072 36.7656 107.471C36.7207 109.889 35.9932 113.128 34.4657 117.271L31.869 124.316L37.626 119.497C41.0173 116.658 43.8302 114.876 46.1044 114.012C48.3609 113.155 49.8353 113.287 50.8558 113.855C51.9314 114.454 53.0085 115.813 53.8357 118.492C54.6555 121.147 55.1417 124.824 55.2488 129.609L59.0662 130.398C61.1049 125.953 63.0223 122.775 64.809 120.746C66.6144 118.696 68.0333 118.095 69.0945 118.114C70.1565 118.134 71.5549 118.789 73.2883 120.906C75.0035 123.001 76.8087 126.249 78.6906 130.769L82.5347 130.094C82.7658 125.195 83.3563 121.512 84.2544 118.941C85.1627 116.34 86.2565 115.225 87.2516 114.831C88.2363 114.44 89.759 114.505 92.1328 115.789C94.4851 117.062 97.3499 119.367 100.757 122.821L104.077 120.778C102.552 116.249 101.758 112.631 101.625 109.859C101.49 107.062 102.038 105.419 102.842 104.49C103.605 103.609 104.939 102.982 107.34 103.015C109.761 103.047 112.999 103.757 117.137 105.258L124.13 107.795L119.352 102.093C116.519 98.7133 114.739 95.9092 113.877 93.6402C113.021 91.3899 113.151 89.9142 113.721 88.8869C114.321 87.8037 115.683 86.7179 118.363 85.874C121.019 85.0377 124.698 84.5281 129.488 84.3881Z" stroke="#D600BF" stroke-width="4"/>
</g>
</g>
<defs>
<filter id="filter0_f_2256_10578" x="0.449768" y="0.46814" width="139.103" height="139.069" filterUnits="userSpaceOnUse" color-interpolation-filters="sRGB">
<feFlood flood-opacity="0" result="BackgroundImageFix"/>
<feBlend mode="normal" in="SourceGraphic" in2="BackgroundImageFix" result="shape"/>
<feGaussianBlur stdDeviation="4" result="effect1_foregroundBlur_2256_10578"/>
</filter>
</defs>
</svg>
