<svg width="48" height="48" viewBox="0 0 48 48" fill="none" xmlns="http://www.w3.org/2000/svg">
<path d="M44 19.0745C44 7.82574 33.7133 -1.28043 21.7432 0.14799C12.5787 1.04075 5.28445 8.00429 4.16226 16.5748C3.2271 23.7169 6.40664 30.3233 11.8306 34.2515C16.6934 37.8225 20.621 42.4649 23.8006 47.6429L23.9876 48L24.3617 47.4643C27.5412 42.2863 31.4689 37.644 36.5187 33.8944C41.0075 30.5019 44 25.1453 44 19.0745Z" fill="#A96FE7"/>
<path d="M24 32C30.6274 32 36 26.6274 36 20C36 13.3726 30.6274 8 24 8C17.3726 8 12 13.3726 12 20C12 26.6274 17.3726 32 24 32Z" fill="white"/>
</svg>
