<svg width="188" height="40" viewBox="0 0 188 40" fill="none" xmlns="http://www.w3.org/2000/svg">
<path d="M0.871207 0C1.34032 0 1.72008 0.378479 1.72008 0.846011V12.1336C2.50193 10.8423 3.57418 9.84045 4.93684 9.10575C6.2995 8.37106 7.81853 7.99258 9.49392 7.99258C12.1522 7.99258 14.2297 8.74954 15.7264 10.2857C17.2231 11.8219 17.9826 13.9369 17.9826 16.6753V27.295C17.9826 27.7625 17.6029 28.141 17.1337 28.141C16.6646 28.141 16.2849 27.7625 16.2849 27.295V16.7644C16.2849 14.449 15.6817 12.6902 14.4978 11.4657C13.3138 10.2412 11.6161 9.61781 9.42691 9.61781C7.93022 9.61781 6.61224 9.95176 5.42829 10.5974C4.24434 11.2653 3.32846 12.1558 2.68064 13.2913C2.03282 14.4267 1.69774 15.6957 1.69774 17.0983V27.3173C1.69774 27.7848 1.31798 28.1633 0.848868 28.1633C0.379757 28.1633 0 27.7848 0 27.3173V0.846011C0.0223386 0.378479 0.402096 0 0.871207 0Z" fill="#6B1FE0"/>
<path d="M27.3265 22.7752C28.0611 24.0975 29.0628 25.1113 30.3539 25.8606C31.645 26.61 33.1141 26.9846 34.7169 26.9846C36.3418 26.9846 37.7888 26.61 39.0798 25.8606C40.3709 25.1113 41.3949 24.0975 42.1295 22.7752C42.8641 21.4528 43.2425 19.9982 43.2425 18.3673C43.2425 16.7585 42.8641 15.2819 42.1295 13.9595C41.3949 12.6372 40.3709 11.6234 39.0798 10.8741C37.7888 10.1247 36.3196 9.75008 34.7169 9.75008C33.0919 9.75008 31.645 10.1247 30.3539 10.8741C29.0628 11.6234 28.0388 12.6372 27.3265 13.9595C26.5919 15.2819 26.2358 16.7365 26.2358 18.3673C26.2358 19.9982 26.6142 21.4528 27.3265 22.7752ZM29.4857 27.2491C27.9275 26.3675 26.7255 25.1554 25.8351 23.6126C24.9669 22.0699 24.5217 20.3068 24.5217 18.3673C24.5217 16.4279 24.9669 14.6868 25.8351 13.1221C26.7032 11.5793 27.9275 10.3451 29.4857 9.48561C31.0439 8.60405 32.7802 8.16327 34.7169 8.16327C36.6757 8.16327 38.4566 8.60405 39.9925 9.48561C41.5507 10.3672 42.7528 11.5793 43.6432 13.1221C44.5113 14.6648 44.9565 16.4279 44.9565 18.3673C44.9565 20.3068 44.5113 22.0479 43.6432 23.6126C42.775 25.1554 41.5507 26.3896 39.9925 27.2491C38.4343 28.1306 36.6757 28.5714 34.7169 28.5714C32.8025 28.5714 31.0439 28.1306 29.4857 27.2491Z" fill="#6B1FE0"/>
<path d="M52.3131 0C52.7648 0 53.1305 0.378778 53.1305 0.84668V27.3166C53.1305 27.7845 52.7648 28.1633 52.3131 28.1633C51.8613 28.1633 51.4957 27.7845 51.4957 27.3166V0.84668C51.4957 0.378778 51.8613 0 52.3131 0Z" fill="#6B1FE0"/>
<path d="M62.4734 22.8385C63.1912 24.1445 64.2007 25.1627 65.4792 25.871C66.7578 26.6014 68.2158 26.9556 69.8757 26.9556C71.5132 26.9556 72.9712 26.6014 74.2498 25.871C75.5508 25.1627 76.5378 24.1445 77.278 22.8385C77.9958 21.5326 78.3547 20.0274 78.3547 18.3231C78.3547 16.6187 77.9958 15.1136 77.278 13.8076C76.5602 12.5017 75.5508 11.4835 74.2498 10.7752C72.9488 10.0668 71.4908 9.69056 69.8757 9.69056C68.2158 9.69056 66.7578 10.0447 65.4792 10.7752C64.2007 11.5056 63.2137 12.5017 62.4734 13.8076C61.7557 15.1136 61.3968 16.6187 61.3968 18.3231C61.3743 20.0274 61.7332 21.5326 62.4734 22.8385ZM64.5147 27.2212C62.9894 26.358 61.8005 25.1406 60.9481 23.6133C60.0958 22.0638 59.6696 20.3152 59.6696 18.3452C59.6696 16.3752 60.0958 14.6045 60.9481 13.0772C61.8005 11.5277 62.9894 10.3325 64.5147 9.46921C66.04 8.60596 67.7672 8.16327 69.7411 8.16327C71.6702 8.16327 73.3974 8.58382 74.9452 9.44708C76.4705 10.3103 77.6369 11.4613 78.3996 12.9222L78.4444 9.29213C78.4444 8.84944 78.8033 8.49529 79.2744 8.49529C79.723 8.49529 80.1043 8.84944 80.1043 9.31427V27.4426C80.1043 27.8853 79.7454 28.2615 79.2744 28.2615C78.8258 28.2615 78.4669 27.9074 78.4444 27.4647L78.3996 23.8567C77.6369 25.3176 76.4929 26.4686 74.9452 27.3098C73.4199 28.1509 71.6702 28.5714 69.7411 28.5714C67.7896 28.5272 66.04 28.0845 64.5147 27.2212Z" fill="#6B1FE0"/>
<path d="M93.0501 21.8877C94.2128 22.965 95.7631 23.5037 97.6783 23.5037C99.5934 23.5037 101.121 22.965 102.307 21.8877C103.469 20.8104 104.062 19.3964 104.062 17.6233C104.062 15.8503 103.492 14.3914 102.329 13.3141C101.167 12.2143 99.6162 11.6757 97.6783 11.6757C95.7403 11.6757 94.19 12.2143 93.0273 13.3141C91.8645 14.4139 91.2945 15.8503 91.2945 17.6233C91.2717 19.374 91.8645 20.7879 93.0501 21.8877ZM91.8189 38.8778C90.1546 38.1371 88.9006 37.0823 88.0342 35.7132C87.6695 35.1521 87.3959 34.5461 87.1907 33.9177C86.7347 32.4588 87.8518 30.9775 89.4022 30.9775C90.4282 30.9775 91.2945 31.6733 91.6137 32.6159C91.8645 33.3566 92.3433 34.0075 93.0273 34.5461C94.1672 35.4439 95.7176 35.8928 97.6555 35.8928C99.525 35.8928 101.03 35.5112 102.17 34.7257C103.31 33.9401 103.88 32.9077 103.88 31.6508C103.88 30.3715 103.332 29.384 102.238 28.6658C101.144 27.9476 99.639 27.5885 97.7467 27.5885C95.5124 27.5885 93.5516 27.1845 91.8873 26.3765C90.223 25.5685 88.9234 24.4014 88.0114 22.8977C87.0995 21.3939 86.6435 19.6209 86.6435 17.6233C86.6435 15.6932 87.1223 13.965 88.057 12.4388C88.9918 10.8901 90.2914 9.70062 91.9785 8.8253C93.6428 7.94999 95.5124 7.52355 97.5871 7.52355C99.7758 7.52355 101.623 7.97243 103.15 8.87019L104.495 7.27667C105.202 6.42379 106.479 6.28913 107.368 6.94001C108.325 7.65821 108.462 9.0273 107.687 9.90261L106.274 11.4961C107.14 12.5061 107.755 13.4712 108.143 14.4139C108.531 15.3565 108.713 16.4338 108.713 17.6233C108.713 19.3964 108.28 20.9451 107.391 22.2693C106.502 23.571 105.202 24.6034 103.492 25.3216C105.111 25.9052 106.388 26.758 107.254 27.8354C108.143 28.9127 108.576 30.192 108.576 31.6957C108.576 33.379 108.12 34.8379 107.231 36.0947C106.342 37.3516 105.065 38.3167 103.424 38.99C101.782 39.6633 99.867 40 97.6783 40C95.4212 40 93.4832 39.6185 91.8189 38.8778Z" fill="#6B1FE0"/>
<path d="M117.5 0C118.734 0 119.748 1.02412 119.748 2.27087V25.8924C119.748 27.1391 118.734 28.1633 117.5 28.1633C116.266 28.1633 115.252 27.1391 115.252 25.8924V2.27087C115.252 1.02412 116.266 0 117.5 0Z" fill="#6B1FE0"/>
<path d="M131.567 21.5932C132.077 22.5735 132.787 23.3486 133.719 23.9185C134.65 24.4885 135.715 24.7849 136.935 24.7849C138.133 24.7849 139.22 24.4885 140.13 23.9185C141.061 23.3486 141.771 22.5735 142.259 21.5932C142.747 20.6129 143.014 19.5414 143.014 18.356C143.014 17.1705 142.77 16.099 142.259 15.1187C141.771 14.1384 141.039 13.3633 140.13 12.7934C139.198 12.2234 138.133 11.9271 136.935 11.9271C135.715 11.9271 134.65 12.2234 133.719 12.7934C132.787 13.3633 132.077 14.1384 131.567 15.1187C131.056 16.099 130.79 17.1705 130.79 18.356C130.812 19.5414 131.056 20.6129 131.567 21.5932ZM131.323 27.6117C129.703 26.6998 128.461 25.4232 127.596 23.8274C126.731 22.2315 126.287 20.4077 126.287 18.3787C126.287 16.3498 126.731 14.526 127.596 12.9301C128.461 11.3343 129.703 10.0577 131.323 9.14575C132.942 8.23385 134.806 7.7551 136.935 7.7551C139.021 7.7551 140.884 8.21106 142.503 9.14575C144.123 10.0577 145.365 11.3343 146.23 12.9301C147.095 14.526 147.539 16.3498 147.539 18.3787C147.539 20.4077 147.095 22.2315 146.23 23.8274C145.365 25.4232 144.123 26.6998 142.503 27.6117C140.884 28.5236 139.043 28.9796 136.935 28.9796C134.806 28.9796 132.942 28.5236 131.323 27.6117Z" fill="#6B1FE0"/>
<path d="M177.215 11.1229C177.125 11.1229 177.013 11.1453 176.923 11.1453L175.601 15.5624L173.584 22.3337C173.517 22.5803 173.181 22.5803 173.091 22.3337L168.878 10.0243C168.497 8.9256 167.466 8.18569 166.301 8.18569C165.136 8.18569 164.105 8.9256 163.724 10.0018L159.466 22.244C159.376 22.4906 159.04 22.4682 158.973 22.2216L157.046 15.5399L155.253 9.77762C154.962 8.81349 154.065 8.16327 153.079 8.16327C151.533 8.16327 150.435 9.68793 150.928 11.1677L155.858 25.8538C156.329 27.244 157.628 28.1633 159.085 28.1633C160.542 28.1633 161.842 27.2216 162.312 25.8538L163.455 22.4682L166.346 14.4413L169.237 22.4682L170.38 25.8763C170.85 27.244 172.128 28.1633 173.562 28.1633C175.019 28.1633 176.296 27.244 176.744 25.8538L180.643 14.1947C180.621 14.1274 180.599 14.0825 180.599 14.0153C180.531 13.5444 180.038 11.1229 177.215 11.1229Z" fill="#6B1FE0"/>
<path d="M187.681 7.00237C187.659 7.00237 187.659 7.00237 187.636 7.00237C187.23 7.07 186.824 7.09254 186.462 7.09254C182.197 7.09254 181.452 3.21539 181.384 2.71948C181.362 2.60677 181.294 2.5166 181.181 2.47152C181.159 2.47152 181.113 2.44898 181.091 2.44898C181.023 2.44898 180.956 2.47152 180.888 2.53914C180.798 2.60677 180.775 2.71948 180.752 2.80964C180.82 3.35064 181.317 7.94912 175.99 8.71553C175.832 8.73807 175.719 8.89587 175.742 9.05366C175.765 9.21145 175.9 9.32415 176.035 9.32415C176.058 9.32415 176.058 9.32415 176.081 9.32415C176.509 9.25653 176.893 9.23399 177.254 9.23399C177.344 9.23399 177.435 9.25653 177.548 9.25653C179.692 9.3467 180.888 10.4512 181.565 11.5332C182.152 12.48 182.31 13.4042 182.355 13.6071C182.355 13.6747 182.4 13.7423 182.445 13.7874C182.468 13.8325 182.535 13.855 182.558 13.855C182.58 13.855 182.626 13.8776 182.671 13.8776C182.738 13.8776 182.806 13.855 182.874 13.8099C182.964 13.7423 183.009 13.6296 182.987 13.5169V13.4943C182.896 12.9533 182.423 8.37741 187.749 7.611C187.907 7.58845 188.02 7.43066 187.997 7.27287C187.975 7.11508 187.839 7.00237 187.681 7.00237Z" fill="#6B1FE0"/>
</svg>
