<svg width="272" height="272" viewBox="0 0 272 272" fill="none" xmlns="http://www.w3.org/2000/svg">
<g filter="url(#filter0_d_62_588)">
<path d="M232 72.3336V175.666C232 200.159 212.162 220 187.675 220H84.325C59.8375 220.037 40 200.196 40 175.704V72.3336C40 47.8414 59.8375 28 84.325 28H187.638C212.163 28 232 47.8414 232 72.3336Z" fill="url(#paint0_linear_62_588)"/>
</g>
<path opacity="0.7" d="M84.5984 218C61.0984 218 42 198.902 42 175.402V72.5984C42 49.0984 61.0984 30 84.5984 30H187.364C210.902 30 230 49.0984 230 72.5984V175.364C230 198.864 210.902 217.963 187.402 217.963H84.5984V218Z" fill="url(#paint1_linear_62_588)"/>
<path d="M199.914 60L72 186.632L103.242 218H187.424C210.912 218 230 198.835 230 175.253V90.2824L199.914 60Z" fill="url(#paint2_linear_62_588)" fill-opacity="0.5"/>
<path opacity="0.3" d="M188.685 56.2933H137.114H85.5807C75.9575 56.2933 68.155 64.1902 68.155 73.8921V119.882V167.714V176.401C68.155 186.14 75.9575 194 85.5435 194H137.077H188.611C198.234 194 206 186.103 206 176.401V167.714V119.882V73.8921C206.074 64.1902 198.271 56.2933 188.685 56.2933Z" fill="#667085"/>
<path d="M185.527 191.744H84.3917C74.2484 191.744 66 183.396 66 173.13V72.614C66 62.3481 74.2484 54 84.3917 54H185.527C195.67 54 203.919 62.3481 203.919 72.614V173.13C203.919 183.396 195.67 191.744 185.527 191.744Z" fill="url(#paint3_linear_62_588)"/>
<path d="M186.493 54H134.959V191.744H186.493C196.116 191.744 203.882 183.847 203.882 174.145V71.5987C203.919 61.8969 196.116 54 186.493 54Z" fill="url(#paint4_linear_62_588)"/>
<path d="M186.493 54H134.959H83.3885C73.7654 54 66 61.8969 66 71.5987V119.431V167.264C66 177.003 73.8025 184.862 83.3885 184.862H134.922V119.431H203.882V71.5987C203.919 61.8969 196.116 54 186.493 54Z" fill="url(#paint5_linear_62_588)"/>
<path d="M134.959 119.431V54.9023H186.493C195.596 54.9023 202.99 62.3856 202.99 71.5986V119.431H134.959Z" fill="url(#paint6_linear_62_588)"/>
<path d="M134.959 119.431V184.862H186.493C196.116 184.862 203.882 176.965 203.882 167.264V119.431H134.959Z" fill="url(#paint7_linear_62_588)"/>
<path d="M134.959 183.96V119.431H202.99V167.264C202.99 176.477 195.596 183.96 186.493 183.96H134.959Z" fill="url(#paint8_linear_62_588)"/>
<path d="M66.8917 119.431V71.5986C66.8917 62.3856 74.2855 54.9023 83.3885 54.9023H134.922V119.431H66.8917Z" fill="url(#paint9_linear_62_588)"/>
<path d="M83.3885 183.96C74.2855 183.96 66.8917 176.477 66.8917 167.264V119.431H134.922V183.96H83.3885Z" fill="url(#paint10_linear_62_588)"/>
<path d="M116.613 83.739H106.899V74.0252C106.899 71.8707 105.161 70.1321 103.006 70.1321C100.852 70.1321 99.1133 71.8707 99.1133 74.0252V83.739H89.3994C87.245 83.739 85.5063 85.4777 85.5063 87.6321C85.5063 89.7865 87.245 91.5252 89.3994 91.5252H99.1133V101.239C99.1133 103.393 100.852 105.132 103.006 105.132C105.161 105.132 106.899 103.393 106.899 101.239V91.5252H116.613C118.768 91.5252 120.506 89.7865 120.506 87.6321C120.506 85.4777 118.768 83.739 116.613 83.739Z" fill="url(#paint11_linear_62_588)" fill-opacity="0.5"/>
<path d="M115.684 82.8366H105.97V73.1228C105.97 70.9683 104.232 69.2297 102.077 69.2297C99.923 69.2297 98.1843 70.9683 98.1843 73.1228V82.8366H88.4705C86.3161 82.8366 84.5774 84.5753 84.5774 86.7297C84.5774 88.8841 86.3161 90.6228 88.4705 90.6228H98.1843V100.337C98.1843 102.491 99.923 104.23 102.077 104.23C104.232 104.23 105.97 102.491 105.97 100.337V90.6228H115.684C117.839 90.6228 119.577 88.8841 119.577 86.7297C119.577 84.5753 117.839 82.8366 115.684 82.8366Z" fill="url(#paint12_linear_62_588)"/>
<path d="M115.684 80.9939H105.97V71.2801C105.97 69.1257 104.232 67.387 102.077 67.387C99.923 67.387 98.1843 69.1257 98.1843 71.2801V80.9939H88.4705C86.3161 80.9939 84.5774 82.7326 84.5774 84.887C84.5774 87.0415 86.3161 88.7801 88.4705 88.7801H98.1843V98.4939C98.1843 100.648 99.923 102.387 102.077 102.387C104.232 102.387 105.97 100.648 105.97 98.4939V88.7801H115.684C117.839 88.7801 119.577 87.0415 119.577 84.887C119.577 82.7326 117.839 80.9939 115.684 80.9939Z" fill="url(#paint13_linear_62_588)"/>
<path d="M184.821 140.941H158.07C155.952 140.941 154.243 142.67 154.243 144.813C154.243 146.956 155.952 148.686 158.07 148.686H184.821C186.939 148.686 188.648 146.956 188.648 144.813C188.648 142.67 186.939 140.941 184.821 140.941Z" fill="#667085" fill-opacity="0.5"/>
<path d="M184.821 156.396H158.07C155.952 156.396 154.243 158.125 154.243 160.268C154.243 162.411 155.952 164.141 158.07 164.141H184.821C186.939 164.141 188.648 162.411 188.648 160.268C188.648 158.125 186.939 156.396 184.821 156.396Z" fill="#667085" fill-opacity="0.5"/>
<path d="M156.575 90.9962H183.789C185.944 90.9962 187.682 89.2594 187.682 87.1073C187.682 84.9552 185.944 83.2184 183.789 83.2184H156.575C154.421 83.2184 152.682 84.9552 152.682 87.1073C152.682 89.2594 154.421 90.9962 156.575 90.9962Z" fill="url(#paint14_linear_62_588)" fill-opacity="0.5"/>
<path d="M155.647 90.0936H182.86C185.015 90.0936 186.753 88.3568 186.753 86.2047C186.753 84.0526 185.015 82.3158 182.86 82.3158H155.647C153.492 82.3158 151.753 84.0526 151.753 86.2047C151.753 88.3568 153.492 90.0936 155.647 90.0936Z" fill="url(#paint15_linear_62_588)"/>
<path d="M155.647 88.7023H182.86C185.015 88.7023 186.753 86.9655 186.753 84.8134C186.753 82.6613 185.015 80.9245 182.86 80.9245H155.647C153.492 80.9245 151.753 82.6613 151.753 84.8134C151.753 86.9655 153.492 88.7023 155.647 88.7023Z" fill="url(#paint16_linear_62_588)"/>
<path d="M115.342 141.137C113.828 139.622 111.367 139.622 109.815 141.137L102.962 148.027L96.0719 141.137C94.5954 139.585 92.0967 139.547 90.5445 141.023C88.9922 142.5 88.9544 144.998 90.4309 146.551C90.4688 146.588 90.5066 146.626 90.5445 146.664L97.4349 153.555L90.5445 160.445C88.9922 161.921 88.9544 164.42 90.4309 165.972C91.9074 167.525 94.4061 167.563 95.9583 166.086C95.9962 166.048 96.0341 166.01 96.0719 165.972L102.962 159.082L109.853 165.972C111.329 167.525 113.828 167.563 115.38 166.086C116.932 164.61 116.97 162.111 115.494 160.559C115.456 160.521 115.418 160.483 115.38 160.445L108.452 153.555L115.342 146.664C116.857 145.15 116.857 142.651 115.342 141.137Z" fill="url(#paint17_linear_62_588)" fill-opacity="0.5"/>
<path d="M114.451 139.783C112.937 138.269 110.476 138.269 108.924 139.783L102.033 146.673L95.1431 139.783C93.6666 138.231 91.1679 138.193 89.6156 139.669C88.0634 141.146 88.0256 143.645 89.5021 145.197C89.5399 145.235 89.5778 145.273 89.6156 145.311L96.506 152.201L89.6156 159.091C88.0634 160.568 88.0256 163.067 89.5021 164.619C90.9786 166.171 93.4773 166.209 95.0295 164.732C95.0674 164.694 95.1052 164.657 95.1431 164.619L102.033 157.728L108.924 164.619C110.4 166.171 112.899 166.209 114.451 164.732C116.004 163.256 116.041 160.757 114.565 159.205C114.527 159.167 114.489 159.129 114.451 159.091L107.561 152.201L114.451 145.311C115.966 143.758 115.966 141.297 114.451 139.783Z" fill="url(#paint18_linear_62_588)"/>
<path d="M114.451 137.489C112.937 135.975 110.476 135.975 108.924 137.489L102.033 144.38L95.1431 137.489C93.6666 135.937 91.1679 135.899 89.6156 137.376C88.0634 138.852 88.0256 141.351 89.5021 142.903C89.5399 142.941 89.5778 142.979 89.6156 143.017L96.506 149.907L89.6156 156.797C88.0634 158.274 88.0256 160.773 89.5021 162.325C90.9786 163.877 93.4773 163.915 95.0295 162.438C95.0674 162.401 95.1052 162.363 95.1431 162.325L102.033 155.434L108.924 162.325C110.4 163.877 112.899 163.915 114.451 162.438C116.004 160.962 116.041 158.463 114.565 156.911C114.527 156.873 114.489 156.835 114.451 156.797L107.561 149.907L114.451 143.017C115.966 141.464 115.966 139.003 114.451 137.489Z" fill="url(#paint19_linear_62_588)"/>
<path d="M183.892 140.001H157.141C155.023 140.001 153.314 141.73 153.314 143.873C153.314 146.016 155.023 147.745 157.141 147.745H183.892C186.01 147.745 187.719 146.016 187.719 143.873C187.719 141.73 186.01 140.001 183.892 140.001Z" fill="url(#paint20_linear_62_588)" fill-opacity="0.5"/>
<path d="M183.892 155.493H157.141C155.023 155.493 153.314 157.223 153.314 159.366C153.314 161.509 155.023 163.238 157.141 163.238H183.892C186.01 163.238 187.719 161.509 187.719 159.366C187.719 157.223 186.01 155.493 183.892 155.493Z" fill="url(#paint21_linear_62_588)" fill-opacity="0.5"/>
<path d="M184.607 138.158H157.393C155.239 138.158 153.5 139.895 153.5 142.047C153.5 144.199 155.239 145.936 157.393 145.936H184.607C186.761 145.936 188.5 144.199 188.5 142.047C188.5 139.895 186.761 138.158 184.607 138.158Z" fill="url(#paint22_linear_62_588)"/>
<path d="M184.607 153.651H157.393C155.239 153.651 153.5 155.388 153.5 157.54C153.5 159.692 155.239 161.429 157.393 161.429H184.607C186.761 161.429 188.5 159.692 188.5 157.54C188.5 155.388 186.761 153.651 184.607 153.651Z" fill="url(#paint23_linear_62_588)"/>
<defs>
<filter id="filter0_d_62_588" x="0" y="0" width="272" height="272" filterUnits="userSpaceOnUse" color-interpolation-filters="sRGB">
<feFlood flood-opacity="0" result="BackgroundImageFix"/>
<feColorMatrix in="SourceAlpha" type="matrix" values="0 0 0 0 0 0 0 0 0 0 0 0 0 0 0 0 0 0 127 0" result="hardAlpha"/>
<feOffset dy="12"/>
<feGaussianBlur stdDeviation="20"/>
<feComposite in2="hardAlpha" operator="out"/>
<feColorMatrix type="matrix" values="0 0 0 0 0.596373 0 0 0 0 0.635165 0 0 0 0 0.701667 0 0 0 0.3 0"/>
<feBlend mode="normal" in2="BackgroundImageFix" result="effect1_dropShadow_62_588"/>
<feBlend mode="normal" in="SourceGraphic" in2="effect1_dropShadow_62_588" result="shape"/>
</filter>
<linearGradient id="paint0_linear_62_588" x1="136" y1="29.8754" x2="136" y2="221.178" gradientUnits="userSpaceOnUse">
<stop stop-color="#FDFFE7"/>
<stop offset="1" stop-color="#F5FF86"/>
</linearGradient>
<linearGradient id="paint1_linear_62_588" x1="136" y1="31.836" x2="136" y2="219.115" gradientUnits="userSpaceOnUse">
<stop stop-color="white"/>
<stop offset="1" stop-color="#F2F4F7"/>
</linearGradient>
<linearGradient id="paint2_linear_62_588" x1="135.161" y1="122.517" x2="222.703" y2="209.704" gradientUnits="userSpaceOnUse">
<stop stop-color="#A96FE7" stop-opacity="0.3"/>
<stop offset="1" stop-color="#A96FE7" stop-opacity="0"/>
</linearGradient>
<linearGradient id="paint3_linear_62_588" x1="134.949" y1="70.0904" x2="134.949" y2="206.538" gradientUnits="userSpaceOnUse">
<stop offset="0.005" stop-color="#A96FE7"/>
<stop offset="1" stop-color="#8E5EC1"/>
</linearGradient>
<linearGradient id="paint4_linear_62_588" x1="169.426" y1="70.0904" x2="169.426" y2="206.538" gradientUnits="userSpaceOnUse">
<stop stop-color="#98A2B3"/>
<stop offset="0.995" stop-color="#667085"/>
</linearGradient>
<linearGradient id="paint5_linear_62_588" x1="134.949" y1="22.7259" x2="134.949" y2="183.162" gradientUnits="userSpaceOnUse">
<stop stop-color="#BBC7FF"/>
<stop offset="1" stop-color="#A96FE7"/>
</linearGradient>
<linearGradient id="paint6_linear_62_588" x1="168.972" y1="116.433" x2="168.972" y2="44.2889" gradientUnits="userSpaceOnUse">
<stop offset="0.005" stop-color="#A96FE7"/>
<stop offset="1" stop-color="#D4B7F3"/>
</linearGradient>
<linearGradient id="paint7_linear_62_588" x1="169.426" y1="114.605" x2="169.426" y2="185.349" gradientUnits="userSpaceOnUse">
<stop stop-color="#F9FAFB"/>
<stop offset="0.995" stop-color="white"/>
</linearGradient>
<linearGradient id="paint8_linear_62_588" x1="168.972" y1="114.674" x2="168.972" y2="184.426" gradientUnits="userSpaceOnUse">
<stop stop-color="#F9FAFB"/>
<stop offset="0.995" stop-color="#D0D5DD"/>
</linearGradient>
<linearGradient id="paint9_linear_62_588" x1="100.925" y1="120.719" x2="100.925" y2="56.3697" gradientUnits="userSpaceOnUse">
<stop offset="0.005" stop-color="#A96FE7"/>
<stop offset="1" stop-color="#D4B7F3"/>
</linearGradient>
<linearGradient id="paint10_linear_62_588" x1="101.347" y1="99.9396" x2="100.915" y2="183.112" gradientUnits="userSpaceOnUse">
<stop offset="0.005" stop-color="#A96FE7"/>
<stop offset="1" stop-color="#D4B7F3"/>
</linearGradient>
<linearGradient id="paint11_linear_62_588" x1="102.993" y1="70.0833" x2="102.993" y2="101.245" gradientUnits="userSpaceOnUse">
<stop offset="0.005" stop-color="#344054"/>
<stop offset="1" stop-color="#667085"/>
</linearGradient>
<linearGradient id="paint12_linear_62_588" x1="102.085" y1="69.1648" x2="102.085" y2="100.326" gradientUnits="userSpaceOnUse">
<stop stop-color="#98A2B3"/>
<stop offset="0.995" stop-color="#667085"/>
</linearGradient>
<linearGradient id="paint13_linear_62_588" x1="102.085" y1="67.3276" x2="102.085" y2="98.4886" gradientUnits="userSpaceOnUse">
<stop stop-color="white"/>
<stop offset="1" stop-color="#EDF2F0"/>
</linearGradient>
<linearGradient id="paint14_linear_62_588" x1="170.177" y1="69.5694" x2="170.177" y2="100.698" gradientUnits="userSpaceOnUse">
<stop offset="0.005" stop-color="#344054"/>
<stop offset="1" stop-color="#667085"/>
</linearGradient>
<linearGradient id="paint15_linear_62_588" x1="169.27" y1="68.6507" x2="169.27" y2="99.7784" gradientUnits="userSpaceOnUse">
<stop stop-color="#98A2B3"/>
<stop offset="0.995" stop-color="#667085"/>
</linearGradient>
<linearGradient id="paint16_linear_62_588" x1="169.27" y1="67.2729" x2="169.27" y2="98.4003" gradientUnits="userSpaceOnUse">
<stop stop-color="white"/>
<stop offset="1" stop-color="#EDF2F0"/>
</linearGradient>
<linearGradient id="paint17_linear_62_588" x1="102.949" y1="138.775" x2="102.949" y2="164.162" gradientUnits="userSpaceOnUse">
<stop offset="0.005" stop-color="#344054"/>
<stop offset="1" stop-color="#667085"/>
</linearGradient>
<linearGradient id="paint18_linear_62_588" x1="102.041" y1="137.397" x2="102.041" y2="162.784" gradientUnits="userSpaceOnUse">
<stop stop-color="#98A2B3"/>
<stop offset="0.995" stop-color="#667085"/>
</linearGradient>
<linearGradient id="paint19_linear_62_588" x1="102.041" y1="135.1" x2="102.041" y2="160.487" gradientUnits="userSpaceOnUse">
<stop stop-color="white"/>
<stop offset="1" stop-color="#EDF2F0"/>
</linearGradient>
<linearGradient id="paint20_linear_62_588" x1="170.523" y1="136.946" x2="170.523" y2="162.157" gradientUnits="userSpaceOnUse">
<stop stop-color="#98A2B3"/>
<stop offset="1" stop-color="#344054"/>
</linearGradient>
<linearGradient id="paint21_linear_62_588" x1="170.523" y1="136.949" x2="170.523" y2="162.16" gradientUnits="userSpaceOnUse">
<stop stop-color="#98A2B3"/>
<stop offset="1" stop-color="#344054"/>
</linearGradient>
<linearGradient id="paint22_linear_62_588" x1="162.118" y1="133.011" x2="172.179" y2="155.169" gradientUnits="userSpaceOnUse">
<stop stop-color="#F2F3F9"/>
<stop offset="1" stop-color="#BCC4E1"/>
</linearGradient>
<linearGradient id="paint23_linear_62_588" x1="160.102" y1="148.05" x2="172.183" y2="161.152" gradientUnits="userSpaceOnUse">
<stop stop-color="#F2F3F9"/>
<stop offset="1" stop-color="#BCC4E1"/>
</linearGradient>
</defs>
</svg>
