<svg width="272" height="272" viewBox="0 0 272 272" fill="none" xmlns="http://www.w3.org/2000/svg">
<g filter="url(#filter0_d_62_365)">
<path d="M232 72.3336V175.666C232 200.159 212.162 220 187.675 220H84.325C59.8375 220.037 40 200.196 40 175.704V72.3336C40 47.8414 59.8375 28 84.325 28H187.638C212.163 28 232 47.8414 232 72.3336Z" fill="url(#paint0_linear_62_365)"/>
</g>
<path opacity="0.7" d="M84.5984 218C61.0984 218 42 198.902 42 175.402V72.5984C42 49.0984 61.0984 30 84.5984 30H187.364C210.902 30 230 49.0984 230 72.5984V175.364C230 198.864 210.902 217.963 187.402 217.963H84.5984V218Z" fill="url(#paint1_linear_62_365)"/>
<path d="M172.099 128.744L176.746 127.213C182.733 125.218 186.78 119.613 186.78 113.298V106.218C186.78 102.882 183.526 100.531 180.355 101.57L172.126 104.304V128.744H172.099Z" fill="url(#paint2_linear_62_365)"/>
<path d="M172.099 128.744L176.746 127.213C182.733 125.218 186.78 119.613 186.78 113.298V106.218C186.78 102.882 183.526 100.531 180.355 101.57L172.126 104.304V128.744H172.099Z" fill="url(#paint3_linear_62_365)"/>
<path d="M100.118 128.471L95.4703 126.94C89.5106 124.944 85.4646 119.34 85.4646 113.025V105.944C85.4646 102.609 88.7452 100.258 91.889 101.297L100.118 104.031V128.471Z" fill="url(#paint4_linear_62_365)"/>
<path d="M193.887 193.973L162.23 178.144V150.232H109.741V178.144L78.0834 193.973H193.887Z" fill="url(#paint5_linear_62_365)"/>
<path d="M109.741 166.252C112.42 168.111 115.29 169.943 118.38 171.72C129.26 178.035 142.711 178.035 153.591 171.72C156.68 169.943 159.551 168.111 162.23 166.252V150.232H109.741V166.252Z" fill="#FFAB91"/>
<path d="M135.985 167.728C131.338 167.728 126.772 166.498 122.754 164.174C108.866 156.082 92.2445 143.179 92.2445 127.623V96.8679C92.5179 72.9745 112.092 53.7831 135.985 54.0019C159.879 53.7831 179.453 72.9745 179.726 96.8679V127.623C179.726 143.179 163.105 156.082 149.19 164.174C145.198 166.498 140.633 167.728 135.985 167.728Z" fill="url(#paint6_linear_62_365)"/>
<path d="M75.787 54.002C70.3741 54.002 66 58.376 66 63.789V75.6537C66 77.7587 67.695 79.4263 69.7727 79.4263C71.8503 79.4263 73.5453 77.7314 73.5453 75.6537V63.789C73.5453 62.5314 74.5568 61.5473 75.787 61.5473H87.6791C89.7568 61.5473 91.4517 59.8523 91.4517 57.7746C91.4244 55.6969 89.7568 54.002 87.6791 54.002H75.787Z" fill="url(#paint7_linear_62_365)"/>
<path d="M196.184 193.973C201.597 193.973 205.971 189.599 205.971 184.186V172.321C205.971 170.243 204.276 168.548 202.198 168.548C200.121 168.548 198.426 170.243 198.426 172.321V184.213C198.426 185.47 197.414 186.455 196.184 186.455H184.292C182.214 186.455 180.519 188.15 180.519 190.227C180.519 192.305 182.214 194 184.292 194L196.184 193.973Z" fill="url(#paint8_linear_62_365)"/>
<path d="M205.971 63.7889C205.971 58.376 201.597 54.0019 196.184 54.0019H184.319C182.214 54.0019 180.546 55.6969 180.546 57.7745C180.546 59.8522 182.241 61.5472 184.319 61.5472H196.211C197.469 61.5472 198.453 62.5587 198.453 63.7889V75.681C198.453 77.7587 200.148 79.4536 202.225 79.4536C204.303 79.4536 205.998 77.7587 205.998 75.681L205.971 63.7889Z" fill="url(#paint9_linear_62_365)"/>
<path d="M66 184.186C66 189.599 70.3741 193.973 75.787 193.973H87.6517C89.7294 193.973 91.4244 192.278 91.4244 190.2C91.4244 188.122 89.7294 186.427 87.6517 186.427H75.787C74.5295 186.427 73.5453 185.416 73.5453 184.186V172.294C73.5453 170.216 71.8503 168.521 69.7727 168.521C67.695 168.548 66 170.216 66 172.294V184.186Z" fill="url(#paint10_linear_62_365)"/>
<path d="M136.029 79.4377L165.567 87.8938L165.481 133.584L165.08 133.806H166.37L166.456 87.5611C166.456 87.367 166.342 87.2006 166.141 87.1452L136.172 78.6059C136.086 78.5782 136 78.5782 135.943 78.6059L105.773 86.6739C105.572 86.7293 105.458 86.8957 105.458 87.0897V134.388H106.519L106.318 134.277V87.3947L136.029 79.4377Z" fill="white"/>
<path d="M135.856 151.744L115.552 150.663L105.515 134.748L106.26 134.305L116.068 149.831L135.885 150.884L135.856 151.744Z" fill="white"/>
<path d="M136.2 151.577C135.971 151.577 135.77 151.411 135.77 151.189C135.77 150.968 135.942 150.746 136.172 150.746L155.988 149.692L165.223 134.139L146.381 134.305C146.152 134.305 145.951 134.111 145.951 133.889C145.951 133.667 146.152 133.473 146.381 133.473L165.968 133.307C166.14 133.307 166.284 133.39 166.341 133.529C166.427 133.667 166.427 133.834 166.341 133.944L156.648 150.302C156.562 150.413 156.447 150.496 156.304 150.524L136.2 151.577C136.229 151.577 136.229 151.577 136.2 151.577Z" fill="white"/>
<path d="M126.306 134.111L125.589 133.612L135.598 120.331V78.9937H136.487V120.609L136.401 120.72L126.306 134.111Z" fill="white"/>
<path d="M146.066 134.111L135.684 120.747L136.401 120.221L146.783 133.612L146.066 134.111Z" fill="white"/>
<path d="M136.258 93.9652H136.143L105.773 87.4776L105.973 86.6736L136.258 93.1057L165.94 87.1449L166.112 87.9767L136.258 93.9652Z" fill="white"/>
<path d="M135.741 120.443L119.337 105.388L106.461 113.151L106.002 112.43L119.452 104.334L119.71 104.556L136.344 119.833L135.741 120.443Z" fill="white"/>
<path d="M135.856 157.677L135.684 157.622L115.667 150.635L115.954 149.859L135.856 156.762L156.132 149.692L156.419 150.469L135.856 157.677Z" fill="white"/>
<path d="M137.979 120.969C137.979 121.996 137.119 122.855 136.029 122.855C134.967 122.855 134.078 122.023 134.078 120.969C134.078 119.943 134.939 119.084 136.029 119.084C137.09 119.112 137.979 119.943 137.979 120.969Z" fill="white"/>
<path d="M138.065 93.3557C138.065 94.3817 137.205 95.2413 136.115 95.2413C135.054 95.2413 134.164 94.4094 134.164 93.3557C134.164 92.3296 135.025 91.47 136.115 91.47C137.176 91.4977 138.065 92.3296 138.065 93.3557Z" fill="white"/>
<path d="M138.123 79.216C138.123 80.242 137.262 81.1017 136.172 81.1017C135.111 81.1017 134.222 80.2698 134.222 79.216C134.222 78.19 135.082 77.3303 136.172 77.3303C137.233 77.3581 138.123 78.19 138.123 79.216Z" fill="white"/>
<path d="M167.948 87.4224C167.948 88.4485 167.088 89.3081 165.998 89.3081C164.936 89.3081 164.047 88.4762 164.047 87.4224C164.047 86.3964 164.908 85.5367 165.998 85.5367C167.088 85.5645 167.948 86.3964 167.948 87.4224Z" fill="white"/>
<path d="M168.063 112.708C168.063 113.734 167.202 114.593 166.112 114.593C165.051 114.593 164.162 113.761 164.162 112.708C164.162 111.681 165.022 110.822 166.112 110.822C167.202 110.822 168.063 111.654 168.063 112.708Z" fill="white"/>
<path d="M156.792 104.861C156.792 105.887 155.932 106.747 154.842 106.747C153.78 106.747 152.891 105.915 152.891 104.861C152.891 103.835 153.752 102.976 154.842 102.976C155.903 102.976 156.792 103.808 156.792 104.861Z" fill="white"/>
<path d="M121.346 104.861C121.346 105.887 120.485 106.747 119.395 106.747C118.334 106.747 117.445 105.915 117.445 104.861C117.445 103.835 118.305 102.976 119.395 102.976C120.457 102.976 121.346 103.808 121.346 104.861Z" fill="white"/>
<path d="M148.361 133.862C148.361 134.888 147.5 135.747 146.41 135.747C145.349 135.747 144.46 134.915 144.46 133.862C144.46 132.836 145.32 131.976 146.41 131.976C147.5 131.976 148.361 132.808 148.361 133.862Z" fill="white"/>
<path d="M167.547 133.695C167.547 134.721 166.686 135.581 165.596 135.581C164.535 135.581 163.646 134.749 163.646 133.695C163.646 132.669 164.506 131.81 165.596 131.81C166.686 131.81 167.547 132.669 167.547 133.695Z" fill="white"/>
<path d="M127.885 133.862C127.885 134.888 127.024 135.747 125.934 135.747C124.873 135.747 123.984 134.915 123.984 133.862C123.984 132.836 124.844 131.976 125.934 131.976C127.024 131.976 127.885 132.808 127.885 133.862Z" fill="white"/>
<path d="M107.81 134.194C107.81 135.22 106.949 136.08 105.859 136.08C104.798 136.08 103.909 135.248 103.909 134.194C103.909 133.168 104.769 132.309 105.859 132.309C106.949 132.309 107.81 133.141 107.81 134.194Z" fill="white"/>
<path d="M137.721 151.079C137.721 152.105 136.861 152.964 135.771 152.964C134.709 152.964 133.82 152.133 133.82 151.079C133.82 150.053 134.681 149.193 135.771 149.193C136.861 149.193 137.721 150.053 137.721 151.079Z" fill="white"/>
<path d="M158.341 149.997C158.341 151.023 157.48 151.883 156.39 151.883C155.329 151.883 154.44 151.051 154.44 149.997C154.44 148.971 155.3 148.112 156.39 148.112C157.48 148.139 158.341 148.971 158.341 149.997Z" fill="white"/>
<path d="M137.635 157.095C137.635 158.121 136.775 158.981 135.685 158.981C134.623 158.981 133.734 158.149 133.734 157.095C133.734 156.069 134.595 155.209 135.685 155.209C136.775 155.209 137.635 156.069 137.635 157.095Z" fill="white"/>
<path d="M117.79 150.164C117.79 151.19 116.929 152.05 115.839 152.05C114.778 152.05 113.889 151.218 113.889 150.164C113.889 149.138 114.749 148.278 115.839 148.278C116.929 148.306 117.79 149.138 117.79 150.164Z" fill="white"/>
<path d="M108.154 112.791C108.154 113.817 107.293 114.676 106.203 114.676C105.142 114.676 104.253 113.845 104.253 112.791C104.253 111.765 105.113 110.905 106.203 110.905C107.293 110.905 108.154 111.737 108.154 112.791Z" fill="white"/>
<path d="M108.412 87.2007C108.412 88.2268 107.551 89.0864 106.461 89.0864C105.4 89.0864 104.511 88.2545 104.511 87.2007C104.511 86.1747 105.371 85.3151 106.461 85.3151C107.523 85.3151 108.412 86.147 108.412 87.2007Z" fill="white"/>
<path d="M165.424 112.735H166.685L166.771 112.624L155.386 104.501L155.099 104.307L135.77 119.805L136.315 120.442L155.128 105.388L165.424 112.735Z" fill="white"/>
<path d="M124.672 133.113L124.987 133.473L105.859 134.083L105.888 134.943L126.909 134.249L125.848 133.113H124.672Z" fill="white"/>
<path d="M135.77 152.16L125.819 134.36L126.765 133.861L135.828 149.997L145.951 133.584L146.897 134.139L135.77 152.16Z" fill="white"/>
<path d="M92.2445 114.72V127.623C92.2445 143.179 108.866 156.082 122.754 164.174C126.772 166.498 131.338 167.728 135.985 167.728C140.633 167.728 145.198 166.498 149.19 164.174C163.105 156.082 179.726 143.179 179.726 127.623V114.72H92.2445Z" fill="url(#paint11_linear_62_365)"/>
<path d="M69.1439 114.938H202.827C204.577 114.938 205.971 113.544 205.971 111.795C205.971 110.045 204.577 108.651 202.827 108.651H69.1439C67.3942 108.651 66 110.045 66 111.795C66 113.544 67.3942 114.938 69.1439 114.938Z" fill="url(#paint12_linear_62_365)"/>
<defs>
<filter id="filter0_d_62_365" x="0" y="0" width="272" height="272" filterUnits="userSpaceOnUse" color-interpolation-filters="sRGB">
<feFlood flood-opacity="0" result="BackgroundImageFix"/>
<feColorMatrix in="SourceAlpha" type="matrix" values="0 0 0 0 0 0 0 0 0 0 0 0 0 0 0 0 0 0 127 0" result="hardAlpha"/>
<feOffset dy="12"/>
<feGaussianBlur stdDeviation="20"/>
<feComposite in2="hardAlpha" operator="out"/>
<feColorMatrix type="matrix" values="0 0 0 0 0.596373 0 0 0 0 0.635165 0 0 0 0 0.701667 0 0 0 0.3 0"/>
<feBlend mode="normal" in2="BackgroundImageFix" result="effect1_dropShadow_62_365"/>
<feBlend mode="normal" in="SourceGraphic" in2="effect1_dropShadow_62_365" result="shape"/>
</filter>
<linearGradient id="paint0_linear_62_365" x1="136" y1="29.8754" x2="136" y2="221.178" gradientUnits="userSpaceOnUse">
<stop stop-color="#FDFFE7"/>
<stop offset="1" stop-color="#F5FF86"/>
</linearGradient>
<linearGradient id="paint1_linear_62_365" x1="136" y1="31.836" x2="136" y2="219.115" gradientUnits="userSpaceOnUse">
<stop stop-color="white"/>
<stop offset="1" stop-color="#F2F4F7"/>
</linearGradient>
<linearGradient id="paint2_linear_62_365" x1="172.092" y1="115.035" x2="186.752" y2="115.035" gradientUnits="userSpaceOnUse">
<stop stop-color="#FFDFCF"/>
<stop offset="1" stop-color="#FFA78F"/>
</linearGradient>
<linearGradient id="paint3_linear_62_365" x1="172.092" y1="115.035" x2="186.752" y2="115.035" gradientUnits="userSpaceOnUse">
<stop stop-color="#C5715A"/>
<stop offset="1" stop-color="#F89580" stop-opacity="0"/>
</linearGradient>
<linearGradient id="paint4_linear_62_365" x1="85.4653" y1="114.762" x2="100.125" y2="114.762" gradientUnits="userSpaceOnUse">
<stop stop-color="#FFDFCF"/>
<stop offset="1" stop-color="#FFA78F"/>
</linearGradient>
<linearGradient id="paint5_linear_62_365" x1="78.0908" y1="172.103" x2="193.88" y2="172.103" gradientUnits="userSpaceOnUse">
<stop stop-color="#FFDFCF"/>
<stop offset="1" stop-color="#FFA78F"/>
</linearGradient>
<linearGradient id="paint6_linear_62_365" x1="92.245" y1="110.865" x2="179.726" y2="110.865" gradientUnits="userSpaceOnUse">
<stop stop-color="#FFDFCF"/>
<stop offset="1" stop-color="#FFA78F"/>
</linearGradient>
<linearGradient id="paint7_linear_62_365" x1="60.4337" y1="48.4362" x2="90.2998" y2="78.3023" gradientUnits="userSpaceOnUse">
<stop stop-color="#E5D4F8"/>
<stop offset="1" stop-color="#A96FE7"/>
</linearGradient>
<linearGradient id="paint8_linear_62_365" x1="211.551" y1="199.52" x2="181.685" y2="169.654" gradientUnits="userSpaceOnUse">
<stop stop-color="#E5D4F8"/>
<stop offset="1" stop-color="#A96FE7"/>
</linearGradient>
<linearGradient id="paint9_linear_62_365" x1="211.532" y1="48.4192" x2="181.666" y2="78.2853" gradientUnits="userSpaceOnUse">
<stop stop-color="#E5D4F8"/>
<stop offset="1" stop-color="#A96FE7"/>
</linearGradient>
<linearGradient id="paint10_linear_62_365" x1="60.4485" y1="199.537" x2="90.3146" y2="169.671" gradientUnits="userSpaceOnUse">
<stop stop-color="#E5D4F8"/>
<stop offset="1" stop-color="#A96FE7"/>
</linearGradient>
<linearGradient id="paint11_linear_62_365" x1="135.985" y1="167.728" x2="135.985" y2="106.416" gradientUnits="userSpaceOnUse">
<stop offset="0.4736" stop-color="#0593FC" stop-opacity="0"/>
<stop offset="0.8769" stop-color="#0389FC" stop-opacity="0.683"/>
<stop offset="1" stop-color="#0182FC"/>
</linearGradient>
<linearGradient id="paint12_linear_62_365" x1="135.984" y1="108.071" x2="135.984" y2="115.019" gradientUnits="userSpaceOnUse">
<stop stop-color="#62DBFB"/>
<stop offset="0.1912" stop-color="#57D5FA"/>
<stop offset="0.5232" stop-color="#3BC5F7"/>
<stop offset="0.954" stop-color="#0DABF2"/>
<stop offset="1" stop-color="#08A9F1"/>
</linearGradient>
</defs>
</svg>
