<svg width="332" height="11" viewBox="0 0 332 11" fill="none" xmlns="http://www.w3.org/2000/svg">
<path d="M0.333333 8C0.333333 9.47276 1.52724 10.6667 3 10.6667C4.47276 10.6667 5.66667 9.47276 5.66667 8C5.66667 6.52724 4.47276 5.33333 3 5.33333C1.52724 5.33333 0.333333 6.52724 0.333333 8ZM326.333 8C326.333 9.47276 327.527 10.6667 329 10.6667C330.473 10.6667 331.667 9.47276 331.667 8C331.667 6.52724 330.473 5.33333 329 5.33333C327.527 5.33333 326.333 6.52724 326.333 8ZM3 8.5H329V7.5H3V8.5Z" fill="#D0D5DD"/>
<line x1="166.5" y1="-2.18561e-08" x2="166.5" y2="8" stroke="#D0D5DD"/>
</svg>
