<svg width="32" height="32" viewBox="0 0 32 32" fill="none" xmlns="http://www.w3.org/2000/svg">
<g clip-path="url(#clip0_2133_9275)">
<path d="M16 32C24.8366 32 32 24.8366 32 16C32 7.16344 24.8366 0 16 0C7.16344 0 0 7.16344 0 16C0 24.8366 7.16344 32 16 32Z" fill="white"/>
<path d="M1 11.25C0.504328 12.8117 0 14.2187 0 15.9418C0 21.3088 2.7336 25.8172 6.75 28.75L16 15.9857L1 11.25Z" fill="#1FA6A6" fill-opacity="0.4"/>
<path d="M31 11.4064C28.9633 4.78695 23.0319 0 16.0357 0C16.0286 0 16.0286 0 16.0286 0L16 16.5L31 11.4064Z" fill="#1FA6A6" fill-opacity="0.1"/>
<path d="M16 0.5C8.98375 0.507026 3.04252 5.00385 1 11.2221L15.9785 16L16 0.5Z" fill="#1FA6A6" fill-opacity="0.2"/>
<path d="M6.75 28.75C9.35291 30.668 12.2938 31.75 15.75 31.75C19.2062 31.75 22.4043 30.8696 25 28.959L16 16L6.75 28.75Z" fill="#1FA6A6" fill-opacity="0.6"/>
<path d="M32 16.3057C32 14.6255 31.5007 12.7665 31 11.25L16 16.25L25.25 28.75C29.2554 25.9022 32 21.5315 32 16.3057Z" fill="#1FA6A6" fill-opacity="0.8"/>
<path fill-rule="evenodd" clip-rule="evenodd" d="M16 0C16.1381 0 16.25 0.111929 16.25 0.25V16.25C16.25 16.3881 16.1381 16.25 16 16.25C15.8619 16.25 15.75 16.3881 15.75 16.25V0.25C15.75 0.111929 15.8619 0 16 0Z" fill="#1FA6A6"/>
<path fill-rule="evenodd" clip-rule="evenodd" d="M15.8551 15.7963C15.9676 15.7163 16.1237 15.7426 16.2037 15.8551L25.3088 28.6514C25.3888 28.7639 25.3625 28.92 25.25 29C25.1375 29.08 24.9814 29.0537 24.9014 28.9412L15.7963 16.145C15.7163 16.0325 15.7426 15.8764 15.8551 15.7963Z" fill="#1FA6A6"/>
<path fill-rule="evenodd" clip-rule="evenodd" d="M31.2505 11.25C31.2927 11.3814 31.2202 11.5222 31.0887 11.5643L15.8387 16.451C15.7073 16.4931 15.7283 16.4137 15.6861 16.2822C15.644 16.1507 15.5547 16.017 15.6862 15.9748L30.9362 11.0882C31.0677 11.046 31.2084 11.1185 31.2505 11.25Z" fill="#1FA6A6"/>
<path fill-rule="evenodd" clip-rule="evenodd" d="M16.1482 15.7995C16.2589 15.882 16.2818 16.0387 16.1993 16.1494L6.89972 28.7987C6.81723 28.9095 6.6606 28.9323 6.54988 28.8498C6.43916 28.7673 6.41628 28.6107 6.49878 28.5L15.7983 15.8506C15.8808 15.7399 16.0374 15.717 16.1482 15.7995Z" fill="#1FA6A6"/>
<path fill-rule="evenodd" clip-rule="evenodd" d="M0.749658 11.2499C0.790719 11.1181 0.930869 11.0445 1.06269 11.0856L15.9996 15.7499C16.1315 15.791 16.205 15.9312 16.164 16.063C16.1229 16.1948 15.9828 16.2684 15.8509 16.2273L0.914002 11.563C0.782177 11.5219 0.708598 11.3818 0.749658 11.2499Z" fill="#1FA6A6"/>
<path fill-rule="evenodd" clip-rule="evenodd" d="M16 0.492308C7.43534 0.492308 0.492308 7.43534 0.492308 16C0.492308 24.5647 7.43534 31.5077 16 31.5077C24.5647 31.5077 31.5077 24.5647 31.5077 16C31.5077 7.43534 24.5647 0.492308 16 0.492308ZM0 16C0 7.16344 7.16344 0 16 0C24.8366 0 32 7.16344 32 16C32 24.8366 24.8366 32 16 32C7.16344 32 0 24.8366 0 16Z" fill="#1FA6A6"/>
</g>
<defs>
<clipPath id="clip0_2133_9275">
<rect width="32" height="32" fill="white"/>
</clipPath>
</defs>
</svg>
