<svg width="32" height="32" viewBox="0 0 32 32" fill="none" xmlns="http://www.w3.org/2000/svg">
<g clip-path="url(#clip0_2133_9313)">
<path d="M16 32C24.8366 32 32 24.8366 32 16C32 7.16344 24.8366 0 16 0C7.16344 0 0 7.16344 0 16C0 24.8366 7.16344 32 16 32Z" fill="white"/>
<path d="M16 32C24.8366 32 32 24.8366 32 16C32 7.16344 24.8366 0 16 0C7.16344 0 0 7.16344 0 16C0 24.8366 7.16344 32 16 32Z" fill="#99F2E2" fill-opacity="0.2"/>
<path d="M17.9836 26.9812V20.4264C17.9836 20.4264 23.06 20.4264 23.06 15.7093V12.0339C23.06 11.3104 22.4418 10.7244 21.6855 10.7244C20.9291 10.7244 20.3109 11.3177 20.3109 12.0339V15.7093C20.3109 17.5469 17.9764 17.5469 17.9764 17.5469V8.09812C17.9764 6.94777 16.9873 6 15.78 6C14.5727 6 13.5836 6.94054 13.5836 8.09812V14.653C13.5836 14.653 11.2491 14.653 11.2491 13.6039V10.4567C11.2491 9.73321 10.6309 9.14719 9.87454 9.14719C9.11818 9.14719 8.5 9.74045 8.5 10.4567V13.8643C8.5 17.5324 13.5764 17.5324 13.5764 17.5324V26.974H17.9836V26.9812Z" fill="#23D9B7" fill-opacity="0.2"/>
<path d="M27.6961 26.9355H4.28516C7.20879 30.0538 11.3688 32 15.987 32C20.6052 32 24.7724 30.0538 27.6961 26.9355Z" fill="url(#paint0_linear_2133_9313)"/>
<path fill-rule="evenodd" clip-rule="evenodd" d="M13.0921 7.77391C13.0921 6.19203 14.4487 5 16 5C17.5384 5 18.9079 6.18989 18.9079 7.77391V16.2028C18.979 16.183 19.051 16.1597 19.122 16.1324C19.3486 16.0452 19.5281 15.9314 19.6464 15.7949C19.7521 15.6729 19.8357 15.5042 19.8357 15.2288V11.6299C19.8357 10.4691 20.8223 9.62717 21.9179 9.62717C22.9992 9.62717 24 10.4657 24 11.6299V15.2288C24 16.5288 23.6391 17.5493 23.0644 18.3327C22.496 19.1074 21.7497 19.6083 21.0362 19.9325C20.3234 20.2563 19.6201 20.4147 19.1017 20.4932C19.0341 20.5035 18.9694 20.5124 18.9079 20.5202V26.2826C18.9079 26.6788 18.5919 27 18.202 27H13.798C13.4082 27 13.0921 26.6788 13.0921 26.2826V17.7033C13.0375 17.6978 12.9804 17.6916 12.9211 17.6846C12.4122 17.6247 11.7212 17.5037 11.0201 17.256C9.63855 16.7678 8 15.6876 8 13.4293V10.0875C8 8.92674 8.98652 8.08478 10.0821 8.08478C11.1635 8.08478 12.1643 8.92332 12.1643 10.0875V13.1328C12.1736 13.1407 12.1876 13.1514 12.2081 13.1649C12.322 13.24 12.5174 13.3137 12.7774 13.3708C12.8825 13.3939 12.989 13.4124 13.0921 13.4271V7.77391ZM13.798 14.2005C13.798 14.9179 13.7977 14.9179 13.7977 14.9179L13.7964 14.9179L13.7939 14.9179L13.7864 14.9179L13.7616 14.9176C13.7408 14.9173 13.7118 14.9167 13.6757 14.9156C13.6036 14.9133 13.5024 14.9089 13.3817 14.9C13.1431 14.8825 12.8151 14.8471 12.479 14.7732C12.1541 14.7018 11.7645 14.5827 11.4398 14.3686C11.1033 14.1468 10.7525 13.7587 10.7525 13.1723V10.0875C10.7525 9.83268 10.5041 9.51957 10.0821 9.51957C9.65328 9.51957 9.41176 9.82926 9.41176 10.0875V13.4293C9.41176 14.77 10.3193 15.4893 11.4838 15.9008C12.0557 16.1029 12.6378 16.2069 13.0836 16.2594C13.3048 16.2855 13.4881 16.2984 13.6142 16.3047C13.6772 16.3079 13.7257 16.3094 13.7572 16.3102C13.7729 16.3106 13.7844 16.3107 13.7913 16.3108L13.7982 16.3109C13.9853 16.311 14.1649 16.3866 14.2971 16.521C14.4295 16.6555 14.5039 16.838 14.5039 17.0283V26H17.4961V19.856C17.4961 19.4603 17.8113 19.1394 18.2005 19.1386L18.2012 19.1386L18.2064 19.1385C18.2126 19.1384 18.2232 19.1382 18.2382 19.1378C18.268 19.1369 18.3147 19.135 18.3758 19.131C18.4983 19.1231 18.6772 19.1069 18.8936 19.0741C19.3299 19.008 19.8997 18.8772 20.46 18.6227C21.0195 18.3685 21.5462 18.0017 21.9326 17.4751C22.3126 16.957 22.5882 16.2424 22.5882 15.2288V11.6299C22.5882 11.3751 22.3398 11.062 21.9179 11.062C21.489 11.062 21.2475 11.3716 21.2475 11.6299V15.2288C21.2475 15.8532 21.0387 16.3592 20.7057 16.7433C20.3854 17.1129 19.9799 17.3365 19.6216 17.4743C19.2606 17.6131 18.9097 17.6794 18.6559 17.7119C18.5272 17.7284 18.4188 17.7368 18.3406 17.7411C18.3014 17.7432 18.2695 17.7444 18.2461 17.745C18.2344 17.7453 18.2247 17.7455 18.2173 17.7455L18.2079 17.7456L18.2045 17.7456L18.2032 17.7457L18.2026 17.7457C18.2026 17.7457 18.202 17.7457 18.202 17.0283V17.7457C17.8122 17.7457 17.4961 17.4245 17.4961 17.0283V7.77391C17.4961 7.09576 16.8753 6.43478 16 6.43478C15.1164 6.43478 14.5039 7.09362 14.5039 7.77391V14.2005C14.5039 14.3908 14.4295 14.5733 14.2971 14.7078C14.1648 14.8424 13.9849 14.9179 13.7977 14.9179L13.798 14.2005ZM12.1477 13.1162C12.1477 13.1162 12.1496 13.1178 12.1517 13.1212C12.1485 13.1178 12.1477 13.1162 12.1477 13.1162Z" fill="#1FA6A6"/>
<path fill-rule="evenodd" clip-rule="evenodd" d="M4.25146 26.5C4.25146 26.2239 3.7368 26 4.00143 26H28.0015C28.2661 26 27.7515 26.2239 27.7515 26.5C27.7515 26.7761 27.287 27 27.0223 27H4.98065C4.71601 27 4.25146 26.7761 4.25146 26.5Z" fill="#1FA6A6"/>
<path fill-rule="evenodd" clip-rule="evenodd" d="M16 0.492308C7.43534 0.492308 0.492308 7.43534 0.492308 16C0.492308 24.5647 7.43534 31.5077 16 31.5077C24.5647 31.5077 31.5077 24.5647 31.5077 16C31.5077 7.43534 24.5647 0.492308 16 0.492308ZM0 16C0 7.16344 7.16344 0 16 0C24.8366 0 32 7.16344 32 16C32 24.8366 24.8366 32 16 32C7.16344 32 0 24.8366 0 16Z" fill="#1FA6A6"/>
</g>
<defs>
<linearGradient id="paint0_linear_2133_9313" x1="7.25159" y1="27.0001" x2="26.5016" y2="29.5001" gradientUnits="userSpaceOnUse">
<stop stop-color="#23D9B7"/>
<stop offset="1" stop-color="#23D9B7" stop-opacity="0.2"/>
</linearGradient>
<clipPath id="clip0_2133_9313">
<rect width="32" height="32" fill="white"/>
</clipPath>
</defs>
</svg>
