<svg width="32" height="32" viewBox="0 0 32 32" fill="none" xmlns="http://www.w3.org/2000/svg">
<g clip-path="url(#clip0_2133_9257)">
<path d="M16 32C24.8366 32 32 24.8366 32 16C32 7.16344 24.8366 0 16 0C7.16344 0 0 7.16344 0 16C0 24.8366 7.16344 32 16 32Z" fill="white"/>
<path d="M16 32C24.8366 32 32 24.8366 32 16C32 7.16344 24.8366 0 16 0C7.16344 0 0 7.16344 0 16C0 24.8366 7.16344 32 16 32Z" fill="#99F2E2" fill-opacity="0.2"/>
<path d="M5 27.25C3.00517 25.2259 1.40794 22.8906 0.75 20H12.25L5 27.25Z" fill="url(#paint0_linear_2133_9257)"/>
<path d="M11.8585 20V15.7812C11.8585 15.7812 15 15.7812 15 12.7438V10.3813C15 9.9155 14.6147 9.5375 14.1509 9.5375C13.6807 9.5375 13.3019 9.9155 13.3019 10.3813V12.7438C13.3019 13.925 11.8585 13.925 11.8585 13.925V7.85C11.8585 7.1075 11.2446 6.5 10.5 6.5C9.74891 6.5 9.14151 7.1075 9.14151 7.85V12.0688C9.14151 12.0688 7.69811 12.0687 7.69811 11.3937V9.36875C7.69811 8.903 7.31277 8.525 6.84906 8.525C6.37881 8.525 6 8.903 6 9.36875V11.5625C6 13.925 9.14151 13.925 9.14151 13.925V20H11.8585Z" fill="#23D9B7" fill-opacity="0.2"/>
<path fill-rule="evenodd" clip-rule="evenodd" d="M8.68258 7.82826C8.68258 6.78566 9.53042 6 10.5 6C11.4615 6 12.3174 6.78424 12.3174 7.82826V13.3837C12.3619 13.3706 12.4069 13.3552 12.4512 13.3372C12.5929 13.2798 12.705 13.2048 12.779 13.1148C12.8451 13.0344 12.8973 12.9232 12.8973 12.7417V10.3697C12.8973 9.60466 13.5139 9.04973 14.1987 9.04973C14.8745 9.04973 15.5 9.6024 15.5 10.3697V12.7417C15.5 13.5985 15.2744 14.2712 14.9152 14.7875C14.56 15.2981 14.0936 15.6282 13.6476 15.8419C13.2021 16.0553 12.7626 16.1597 12.4386 16.2114C12.3963 16.2182 12.3559 16.2241 12.3174 16.2292V20.0272C12.3174 20.2883 12.1199 20.5 11.8763 20.5H9.12376C8.8801 20.5 8.68258 20.2883 8.68258 20.0272V14.3726C8.64845 14.369 8.61277 14.3649 8.57568 14.3603C8.25762 14.3208 7.82574 14.2411 7.38757 14.0778C6.52409 13.756 5.5 13.0441 5.5 11.5557V9.35312C5.5 8.58808 6.11658 8.03315 6.80133 8.03315C7.47718 8.03315 8.10266 8.58583 8.10266 9.35312V11.3603C8.1085 11.3655 8.11727 11.3725 8.13006 11.3814C8.20126 11.4309 8.32338 11.4795 8.48586 11.5171C8.55155 11.5324 8.61814 11.5445 8.68258 11.5543V7.82826ZM9.12376 12.064C9.12376 12.5368 9.12355 12.5368 9.12355 12.5368L9.12274 12.5368L9.12118 12.5368L9.11648 12.5368L9.10098 12.5366C9.08801 12.5364 9.06988 12.536 9.0473 12.5353C9.00223 12.5338 8.93901 12.5308 8.86356 12.525C8.71444 12.5135 8.50945 12.4901 8.29938 12.4414C8.0963 12.3944 7.85284 12.3159 7.64988 12.1748C7.43956 12.0286 7.22031 11.7728 7.22031 11.3863V9.35312C7.22031 9.18517 7.06504 8.9788 6.80133 8.9788C6.5333 8.9788 6.38235 9.18292 6.38235 9.35312V11.5557C6.38235 12.4393 6.94955 12.9134 7.67736 13.1846C8.03484 13.3178 8.3986 13.3864 8.67727 13.421C8.81548 13.4381 8.93004 13.4466 9.00889 13.4508C9.04826 13.4529 9.07855 13.4539 9.09824 13.4544C9.10808 13.4547 9.11525 13.4548 9.11958 13.4548L9.12388 13.4549C9.2408 13.455 9.35304 13.5048 9.43572 13.5934C9.51845 13.6821 9.56493 13.8023 9.56493 13.9277V19.8409H11.4351V15.7914C11.4351 15.5306 11.6321 15.3192 11.8753 15.3186L11.8758 15.3186L11.879 15.3186C11.8829 15.3185 11.8895 15.3184 11.8988 15.3181C11.9175 15.3175 11.9467 15.3162 11.9849 15.3136C12.0614 15.3084 12.1733 15.2977 12.3085 15.2761C12.5812 15.2326 12.9373 15.1463 13.2875 14.9786C13.6372 14.811 13.9664 14.5693 14.2079 14.2222C14.4454 13.8808 14.6176 13.4098 14.6176 12.7417V10.3697C14.6176 10.2017 14.4624 9.99538 14.1987 9.99538C13.9306 9.99538 13.7797 10.1995 13.7797 10.3697V12.7417C13.7797 13.1532 13.6492 13.4867 13.4411 13.7399C13.2409 13.9835 12.9874 14.1309 12.7635 14.2217C12.5379 14.3132 12.3186 14.3569 12.1599 14.3783C12.0795 14.3892 12.0118 14.3947 11.9629 14.3975C11.9384 14.399 11.9184 14.3997 11.9038 14.4001C11.8965 14.4003 11.8904 14.4004 11.8858 14.4005L11.88 14.4005L11.8778 14.4005L11.877 14.4005L11.8766 14.4005C11.8766 14.4005 11.8763 14.4005 11.8763 13.9277V14.4005C11.6326 14.4005 11.4351 14.1889 11.4351 13.9277V7.82826C11.4351 7.3813 11.0471 6.94565 10.5 6.94565C9.94776 6.94565 9.56493 7.37989 9.56493 7.82826V12.064C9.56493 12.1894 9.51845 12.3097 9.43572 12.3983C9.35298 12.487 9.24056 12.5368 9.12355 12.5368L9.12376 12.064ZM8.09232 11.3493C8.09232 11.3493 8.09348 11.3504 8.0948 11.3526C8.09281 11.3504 8.09232 11.3493 8.09232 11.3493Z" fill="#1FA6A6"/>
<path fill-rule="evenodd" clip-rule="evenodd" d="M27.2511 4.75006C27.4464 4.94532 27.5499 5.15837 27.3546 5.35363L5.35459 27.3536C5.15933 27.5489 4.94635 27.4453 4.75108 27.2501C4.55582 27.0548 4.45222 26.8418 4.64748 26.6465L26.6475 4.64652C26.8427 4.45126 27.0558 4.5548 27.2511 4.75006Z" fill="#1FA6A6"/>
<path fill-rule="evenodd" clip-rule="evenodd" d="M0.750659 20C0.750659 19.7239 0.724569 19.5 1.00071 19.5H12.0007C12.2769 19.5 12.2506 19.7239 12.2506 20C12.2506 20.2761 12.2769 20.5 12.0007 20.5H1.00071C0.724569 20.5 0.750659 20.2761 0.750659 20Z" fill="#1FA6A6"/>
<path d="M25.9927 22.8888C25.8327 19.6069 22 14 22 14C22 14 18.1673 19.5998 18.0073 22.8888C18.0073 22.8959 18 23.0376 18 23.1014C18 25.2563 19.7891 27 22 27C24.2109 27 26 25.2563 26 23.1014C26 23.0376 25.9927 22.8959 25.9927 22.8888Z" fill="#23D9B7"/>
<path fill-rule="evenodd" clip-rule="evenodd" d="M22.4128 13.7178L22 14L21.5874 13.7176C21.6806 13.5814 21.8351 13.5 22.0001 13.5C22.1652 13.5 22.3196 13.5816 22.4128 13.7178ZM26.4925 22.8746C26.4924 22.8712 26.4923 22.8678 26.4921 22.8644C26.4483 21.9655 26.1571 20.9416 25.7677 19.935C25.3757 18.9216 24.8713 17.893 24.3763 16.9761C23.8808 16.0581 23.3908 15.2451 23.025 14.6617C22.8419 14.3698 22.6895 14.1349 22.5827 13.9725C22.5292 13.8912 22.4871 13.8281 22.4582 13.7851C22.4437 13.7635 22.4326 13.747 22.4249 13.7357L22.4161 13.7227L22.4131 13.7183C22.413 13.7182 22.4128 13.7178 22 14C21.5874 13.7176 21.5875 13.7175 21.5874 13.7176L21.584 13.7225L21.5752 13.7354C21.5676 13.7467 21.5564 13.7632 21.542 13.7847C21.513 13.8278 21.4709 13.8908 21.4175 13.972C21.3106 14.1342 21.1582 14.3689 20.9752 14.6605C20.6093 15.2434 20.1193 16.0558 19.6237 16.9734C19.1287 17.8899 18.6243 18.9183 18.2323 19.932C17.8429 20.9391 17.5517 21.9639 17.5079 22.8645C17.5077 22.8678 17.5076 22.8712 17.5075 22.8746L17.5074 22.8761L17.5066 22.8937C17.506 22.909 17.505 22.9303 17.5041 22.9533C17.5023 22.9962 17.5 23.0577 17.5 23.1014C17.5 25.5444 19.5251 27.5 22 27.5C24.4749 27.5 26.5 25.5444 26.5 23.1014C26.5 23.0577 26.4977 22.9962 26.4959 22.9533C26.495 22.9305 26.4941 22.9095 26.4934 22.8943L26.4926 22.8761L26.4925 22.8746ZM21.9998 14.9118C21.9448 14.9977 21.8854 15.0915 21.8221 15.1922C21.4644 15.7621 20.9861 16.5552 20.5036 17.4486C20.0204 18.3432 19.5366 19.3315 19.165 20.2927C18.7915 21.2587 18.5438 22.1656 18.5069 22.9087L18.5068 22.9101L18.5065 22.9185L18.5032 22.9943C18.5013 23.04 18.5 23.0814 18.5 23.1014C18.5 24.9681 20.0531 26.5 22 26.5C23.9469 26.5 25.5 24.9681 25.5 23.1014C25.5 23.0814 25.4987 23.04 25.4968 22.9943L25.4935 22.9185L25.4932 22.9101L25.4931 22.9088C25.4562 22.1675 25.2086 21.2615 24.835 20.2957C24.4634 19.3348 23.9796 18.3463 23.4964 17.4512C23.0138 16.5572 22.5355 15.7635 22.1778 15.193C22.1144 15.092 22.0549 14.998 21.9998 14.9118Z" fill="#1FA6A6"/>
<path fill-rule="evenodd" clip-rule="evenodd" d="M20 22.5C20.2761 22.5 20.5 22.7239 20.5 23C20.5 23.8298 21.1702 24.5 22 24.5C22.2761 24.5 22.5 24.7239 22.5 25C22.5 25.2761 22.2761 25.5 22 25.5C20.6179 25.5 19.5 24.3821 19.5 23C19.5 22.7239 19.7239 22.5 20 22.5Z" fill="#1FA6A6"/>
<path fill-rule="evenodd" clip-rule="evenodd" d="M16 0.492308C7.43534 0.492308 0.492308 7.43534 0.492308 16C0.492308 24.5647 7.43534 31.5077 16 31.5077C24.5647 31.5077 31.5077 24.5647 31.5077 16C31.5077 7.43534 24.5647 0.492308 16 0.492308ZM0 16C0 7.16344 7.16344 0 16 0C24.8366 0 32 7.16344 32 16C32 24.8366 24.8366 32 16 32C7.16344 32 0 24.8366 0 16Z" fill="#1FA6A6"/>
</g>
<defs>
<linearGradient id="paint0_linear_2133_9257" x1="4.75" y1="21.5" x2="9.75" y2="24.5" gradientUnits="userSpaceOnUse">
<stop stop-color="#23D9B7"/>
<stop offset="1" stop-color="#23D9B7" stop-opacity="0.2"/>
</linearGradient>
<clipPath id="clip0_2133_9257">
<rect width="32" height="32" fill="white"/>
</clipPath>
</defs>
</svg>
