<svg width="32" height="32" viewBox="0 0 32 32" fill="none" xmlns="http://www.w3.org/2000/svg">
<g clip-path="url(#clip0_2133_9300)">
<path d="M16 32C24.8366 32 32 24.8366 32 16C32 7.16344 24.8366 0 16 0C7.16344 0 0 7.16344 0 16C0 24.8366 7.16344 32 16 32Z" fill="white"/>
<path d="M16 32C24.8366 32 32 24.8366 32 16C32 7.16344 24.8366 0 16 0C7.16344 0 0 7.16344 0 16C0 24.8366 7.16344 32 16 32Z" fill="#99F2E2" fill-opacity="0.2"/>
<path fill-rule="evenodd" clip-rule="evenodd" d="M16 0.492308C7.43534 0.492308 0.492308 7.43534 0.492308 16C0.492308 24.5647 7.43534 31.5077 16 31.5077C24.5647 31.5077 31.5077 24.5647 31.5077 16C31.5077 7.43534 24.5647 0.492308 16 0.492308ZM0 16C0 7.16344 7.16344 0 16 0C24.8366 0 32 7.16344 32 16C32 24.8366 24.8366 32 16 32C7.16344 32 0 24.8366 0 16Z" fill="#1FA6A6"/>
<path d="M26.5 16.5C26.5 18.4313 24.9327 20 23 20C21.0673 20 19.5 18.4313 19.5 16.5H26.5Z" fill="#23D9B7"/>
<path d="M12.5 16.5C12.5 18.4313 10.9327 20 9 20C7.06727 20 5.5 18.4313 5.5 16.5H12.5Z" fill="#23D9B7"/>
<path fill-rule="evenodd" clip-rule="evenodd" d="M9.38197 8.92257L8.98543 9.18767L8.58889 8.92257C8.67829 8.794 8.82673 8.71708 8.98543 8.71708C9.14413 8.71708 9.29257 8.794 9.38197 8.92257ZM8.98543 10.0431C8.9407 10.1111 8.89296 10.1841 8.8426 10.2617C8.5171 10.7632 8.08379 11.4531 7.65115 12.2085C7.21768 12.9653 6.78946 13.7799 6.47093 14.5321C6.24748 15.0598 6.08964 15.5306 6.01287 15.9166H11.958C11.8812 15.5306 11.7234 15.0598 11.4999 14.5321C11.1814 13.7799 10.7532 12.9653 10.3197 12.2085C9.88707 11.4531 9.45376 10.7632 9.12826 10.2617C9.07791 10.1841 9.03016 10.1111 8.98543 10.0431ZM12.3864 14.1712C12.7189 14.9563 12.9709 15.7489 12.9709 16.3872C12.9709 16.6471 12.756 16.8578 12.4909 16.8578H5.47994C5.21488 16.8578 5 16.6471 5 16.3872C5 15.7489 5.25201 14.9563 5.58442 14.1712C5.92316 13.3712 6.37132 12.5209 6.81422 11.7476C7.25796 10.9729 7.70102 10.2676 8.0328 9.75641C8.19883 9.50061 8.33732 9.29292 8.43453 9.14884C8.48315 9.07679 8.52146 9.02063 8.54775 8.98227L8.57797 8.93834L8.58593 8.92685L8.58889 8.92257C8.58895 8.92249 8.58889 8.92257 8.98543 9.18767C9.38197 8.92257 9.38192 8.92249 9.38197 8.92257L9.38494 8.92685L9.39289 8.93834L9.42311 8.98227C9.4494 9.02063 9.48771 9.07679 9.53633 9.14884C9.63354 9.29292 9.77203 9.50061 9.93806 9.75641C10.2698 10.2676 10.7129 10.9729 11.1566 11.7476C11.5995 12.5209 12.0477 13.3712 12.3864 14.1712Z" fill="#1FA6A6"/>
<path fill-rule="evenodd" clip-rule="evenodd" d="M5 16.3872C5 16.1273 5.21488 15.9166 5.47994 15.9166H12.4909C12.756 15.9166 12.9709 16.1273 12.9709 16.3872C12.9709 18.6126 11.207 20.4575 8.98543 20.4575C6.76381 20.4575 5 18.6126 5 16.3872ZM5.99372 16.8578C6.21443 18.3763 7.48679 19.5164 8.98543 19.5164C10.4841 19.5164 11.7564 18.3763 11.9771 16.8578H5.99372Z" fill="#1FA6A6"/>
<path fill-rule="evenodd" clip-rule="evenodd" d="M23.4111 8.92257L23.0146 9.18767L22.618 8.92257C22.7074 8.794 22.8559 8.71708 23.0146 8.71708C23.1733 8.71708 23.3217 8.794 23.4111 8.92257ZM23.0146 10.0431C22.9698 10.1111 22.9221 10.1841 22.8717 10.2617C22.5462 10.7632 22.1129 11.4531 21.6803 12.2085C21.2468 12.9653 20.8186 13.7799 20.5001 14.5321C20.2766 15.0598 20.1188 15.5306 20.042 15.9166H25.9871C25.9104 15.5306 25.7525 15.0598 25.5291 14.5321C25.2105 13.7799 24.7823 12.9653 24.3488 12.2085C23.9162 11.4531 23.4829 10.7632 23.1574 10.2617C23.107 10.1841 23.0593 10.1111 23.0146 10.0431ZM23.0146 9.18767C22.618 8.92257 22.6181 8.92249 22.618 8.92257L22.6151 8.92685L22.6071 8.93834L22.5769 8.98227C22.5506 9.02063 22.5123 9.07679 22.4637 9.14884C22.3665 9.29292 22.228 9.50061 22.0619 9.75641C21.7302 10.2676 21.2871 10.9729 20.8434 11.7476C20.4005 12.5209 19.9523 13.3712 19.6136 14.1712C19.2811 14.9563 19.0291 15.7489 19.0291 16.3872C19.0291 16.6471 19.244 16.8578 19.5091 16.8578H26.5201C26.7851 16.8578 27 16.6471 27 16.3872C27 15.7489 26.748 14.9563 26.4156 14.1712C26.0768 13.3712 25.6287 12.5209 25.1858 11.7476C24.742 10.9729 24.299 10.2676 23.9672 9.75641C23.8012 9.50061 23.6627 9.29292 23.5655 9.14884C23.5169 9.07679 23.4785 9.02063 23.4522 8.98227L23.422 8.93834L23.4141 8.92685L23.4111 8.92257C23.4111 8.92249 23.4111 8.92257 23.0146 9.18767Z" fill="#1FA6A6"/>
<path fill-rule="evenodd" clip-rule="evenodd" d="M19.0291 16.3872C19.0291 16.1273 19.244 15.9166 19.5091 15.9166H26.5201C26.7851 15.9166 27 16.1273 27 16.3872C27 18.6126 25.2362 20.4575 23.0146 20.4575C20.793 20.4575 19.0291 18.6126 19.0291 16.3872ZM20.0229 16.8578C20.2436 18.3763 21.5159 19.5164 23.0146 19.5164C24.5132 19.5164 25.7856 18.3763 26.0063 16.8578H20.0229Z" fill="#1FA6A6"/>
<path fill-rule="evenodd" clip-rule="evenodd" d="M8.5057 9.18767C8.5057 8.92777 8.72037 8.71708 8.98543 8.71708H23.0146C23.2796 8.71708 23.4946 8.92777 23.4946 9.18767C23.4946 9.44757 23.2797 9.65826 23.0146 9.65826H8.98564C8.72058 9.65826 8.5057 9.44757 8.5057 9.18767Z" fill="#1FA6A6"/>
<path d="M15.9965 9.90476C16.3852 9.90476 16.7004 9.58371 16.7004 9.18767C16.7004 8.79164 16.3852 8.47059 15.9965 8.47059C15.6077 8.47059 15.2926 8.79164 15.2926 9.18767C15.2926 9.58371 15.6077 9.90476 15.9965 9.90476Z" fill="#1FA6A6"/>
<path fill-rule="evenodd" clip-rule="evenodd" d="M15.9965 8.94117C15.8899 8.94117 15.7725 9.03442 15.7725 9.18767C15.7725 9.34092 15.8899 9.43417 15.9965 9.43417C16.103 9.43417 16.2204 9.34092 16.2204 9.18767C16.2204 9.03442 16.103 8.94117 15.9965 8.94117ZM14.8126 9.18767C14.8126 8.54885 15.3255 8 15.9965 8C16.6674 8 17.1803 8.54885 17.1803 9.18767C17.1803 9.82649 16.6674 10.3753 15.9965 10.3753C15.3255 10.3753 14.8126 9.82649 14.8126 9.18767Z" fill="#1FA6A6"/>
<path fill-rule="evenodd" clip-rule="evenodd" d="M8.5057 23.5294C8.5057 23.2695 8.72058 23.0588 8.98564 23.0588H23.0146C23.2797 23.0588 23.4946 23.2695 23.4946 23.5294C23.4946 23.7893 23.2797 24 23.0146 24H8.98564C8.72058 24 8.5057 23.7893 8.5057 23.5294Z" fill="#1FA6A6"/>
<path fill-rule="evenodd" clip-rule="evenodd" d="M15.9966 8.71708C16.2616 8.71708 16.4765 8.92777 16.4765 9.18767V23.5294C16.4765 23.7893 16.2616 24 15.9966 24C15.7315 24 15.5166 23.7893 15.5166 23.5294V9.18767C15.5166 8.92777 15.7315 8.71708 15.9966 8.71708Z" fill="#1FA6A6"/>
</g>
<defs>
<clipPath id="clip0_2133_9300">
<rect width="32" height="32" fill="white"/>
</clipPath>
</defs>
</svg>
