<svg width="32" height="32" viewBox="0 0 32 32" fill="none" xmlns="http://www.w3.org/2000/svg">
<g clip-path="url(#clip0_2133_9293)">
<path d="M16 32C24.8366 32 32 24.8366 32 16C32 7.16344 24.8366 0 16 0C7.16344 0 0 7.16344 0 16C0 24.8366 7.16344 32 16 32Z" fill="white"/>
<path d="M16 32C24.8366 32 32 24.8366 32 16C32 7.16344 24.8366 0 16 0C7.16344 0 0 7.16344 0 16C0 24.8366 7.16344 32 16 32Z" fill="#99F2E2" fill-opacity="0.2"/>
<path d="M21.9923 19.4931C21.7462 14.6919 16 6.5 16 6.5C16 6.5 10.2538 14.6919 10.0077 19.4931C10.0077 19.5004 10 19.705 10 19.8C10 22.9496 12.6846 25.5 16 25.5C19.3154 25.5 22 22.9496 22 19.8C22 19.705 21.9923 19.5004 21.9923 19.4931Z" fill="#23D9B7"/>
<path fill-rule="evenodd" clip-rule="evenodd" d="M16.4093 6.21287L16 6.5L15.5907 6.21287C15.6843 6.07944 15.837 6 16 6C16.163 6 16.3157 6.07944 16.4093 6.21287ZM9.5078 19.4825C9.50791 19.4775 9.50809 19.4725 9.50835 19.4675C9.57399 18.1871 10.002 16.7156 10.5832 15.2528C11.167 13.7831 11.9191 12.2888 12.6588 10.9538C13.3992 9.61761 14.1312 8.43389 14.6779 7.58441C14.9514 7.15946 15.1788 6.81761 15.3383 6.58155C15.418 6.4635 15.4807 6.37187 15.5237 6.30949C15.5452 6.2783 15.5617 6.25442 15.573 6.2382L15.5859 6.21966L15.5907 6.21287C15.5907 6.21276 15.5907 6.21287 16 6.5C16.4093 6.21287 16.4093 6.21276 16.4093 6.21287L16.4141 6.21966L16.427 6.2382C16.4383 6.25442 16.4548 6.2783 16.4763 6.30949C16.5193 6.37187 16.582 6.4635 16.6617 6.58155C16.8212 6.81761 17.0486 7.15946 17.3221 7.58441C17.8688 8.43389 18.6008 9.61761 19.3412 10.9538C20.0809 12.2888 20.833 13.7831 21.4168 15.2528C21.998 16.7156 22.426 18.1871 22.4917 19.4675C22.4919 19.4725 22.4921 19.4775 22.4922 19.4824C22.4922 19.4835 22.4923 19.4854 22.4924 19.4882L22.4932 19.5141C22.494 19.536 22.4949 19.5658 22.4959 19.5986C22.4978 19.6618 22.5 19.7439 22.5 19.8C22.5 23.2496 19.5671 26 16 26C12.4329 26 9.5 23.2496 9.5 19.8C9.5 19.7439 9.50217 19.6618 9.50407 19.5986C9.50506 19.5658 9.50604 19.536 9.50676 19.5141L9.50762 19.4882C9.50772 19.4854 9.50777 19.4835 9.5078 19.4825ZM16 7.39023C15.8657 7.59193 15.7029 7.83946 15.5188 8.1256C14.9804 8.96214 14.2605 10.1265 13.5335 11.4384C12.8059 12.7515 12.0753 14.2054 11.5125 15.622C10.948 17.043 10.5659 18.3936 10.5074 19.5126L10.5071 19.5207L10.5062 19.5474C10.5055 19.5689 10.5046 19.5975 10.5036 19.6287C10.5017 19.6934 10.5 19.7611 10.5 19.8C10.5 22.6496 12.9363 25 16 25C19.0637 25 21.5 22.6496 21.5 19.8C21.5 19.7611 21.4983 19.6934 21.4964 19.6287C21.4954 19.5975 21.4945 19.5689 21.4938 19.5474L21.4929 19.5207L21.4927 19.5126C21.4342 18.3936 21.052 17.043 20.4875 15.622C19.9247 14.2054 19.1941 12.7515 18.4665 11.4384C17.7395 10.1265 17.0196 8.96214 16.4812 8.1256C16.2971 7.83946 16.1343 7.59193 16 7.39023Z" fill="#1FA6A6"/>
<path fill-rule="evenodd" clip-rule="evenodd" d="M12.9 19C13.1209 19 13.3 19.1791 13.3 19.4C13.3 20.948 14.5569 22.2 16.1 22.2C16.3209 22.2 16.5 22.3791 16.5 22.6C16.5 22.8209 16.3209 23 16.1 23C14.1161 23 12.5 21.3907 12.5 19.4C12.5 19.1791 12.6791 19 12.9 19Z" fill="#1FA6A6"/>
<path fill-rule="evenodd" clip-rule="evenodd" d="M16 0.492308C7.43534 0.492308 0.492308 7.43534 0.492308 16C0.492308 24.5647 7.43534 31.5077 16 31.5077C24.5647 31.5077 31.5077 24.5647 31.5077 16C31.5077 7.43534 24.5647 0.492308 16 0.492308ZM0 16C0 7.16344 7.16344 0 16 0C24.8366 0 32 7.16344 32 16C32 24.8366 24.8366 32 16 32C7.16344 32 0 24.8366 0 16Z" fill="#1FA6A6"/>
</g>
<defs>
<clipPath id="clip0_2133_9293">
<rect width="32" height="32" fill="white"/>
</clipPath>
</defs>
</svg>
