<svg width="72" height="72" viewBox="0 0 72 72" fill="none" xmlns="http://www.w3.org/2000/svg">
<path d="M36 0L39.2857 2.59061L43.0136 0.695042L45.7464 3.88592L49.7745 2.73278L51.8122 6.39754L55.9982 6.06582L57.2936 10.0465L61.448 10.5362L61.9377 14.7065L65.9342 16.0018L65.6025 20.172L69.2514 22.2255L68.1141 26.2536L71.305 28.9706L69.3936 32.7143L72 36L69.3936 39.2857L71.305 43.0136L68.1141 45.7464L69.2514 49.7745L65.6025 51.8122L65.9342 55.9982L61.9377 57.2936L61.448 61.448L57.2936 61.9377L55.9982 65.9342L51.8122 65.6025L49.7745 69.2514L45.7464 68.1141L43.0136 71.305L39.2857 69.3936L36 72L32.7143 69.3936L28.9706 71.305L26.2536 68.1141L22.2255 69.2514L20.172 65.6025L16.0018 65.9342L14.7065 61.9377L10.5362 61.448L10.0465 57.2936L6.06582 55.9982L6.39754 51.8122L2.73278 49.7745L3.88592 45.7464L0.695042 43.0136L2.59061 39.2857L0 36L2.59061 32.7143L0.695042 28.9706L3.88592 26.2536L2.73278 22.2255L6.39754 20.172L6.06582 16.0018L10.0465 14.7065L10.5362 10.5362L14.7065 10.0465L16.0018 6.06582L20.172 6.39754L22.2255 2.73278L26.2536 3.88592L28.9706 0.695042L32.7143 2.59061L36 0Z" fill="url(#paint0_linear_2265_6397)"/>
<path d="M17.2332 55.6583C16.7723 55.7515 16.3114 55.7204 15.8659 55.5496C15.4203 55.3788 15.0209 55.0993 14.6676 54.6955C14.2528 54.1986 14.0069 53.6861 13.9609 53.1426C13.9148 52.5991 14.053 52.0867 14.3757 51.6208L15.3282 52.7389C15.2514 52.9252 15.236 53.1271 15.2821 53.329C15.3282 53.5308 15.4357 53.7327 15.5893 53.9191C15.8659 54.2452 16.1885 54.416 16.5726 54.4315C16.9567 54.4471 17.31 54.2918 17.6634 53.9967C18.0321 53.6706 18.2472 53.3134 18.2779 52.9252C18.3086 52.537 18.1857 52.1643 17.8784 51.8071C17.6634 51.5587 17.4329 51.4034 17.1564 51.3413C16.8798 51.2792 16.6033 51.3102 16.296 51.4344L17.3868 52.7078L16.6648 53.3445L14.8058 51.1549L15.7276 50.3474C16.0349 50.2077 16.3729 50.13 16.7416 50.13C17.1103 50.13 17.479 50.1921 17.8324 50.3629C18.2011 50.5182 18.5237 50.7822 18.8156 51.1239C19.1689 51.5276 19.384 51.978 19.4762 52.4438C19.5684 52.9097 19.5377 53.3756 19.3687 53.8259C19.1997 54.2762 18.9231 54.68 18.5237 55.0372C18.1396 55.3322 17.7095 55.5651 17.2332 55.6583Z" fill="#23D9B7"/>
<path d="M14.3449 45.6732L15.2206 47.5056L16.2192 47.3814L16.8184 48.6393L11.1187 49.2138L10.4581 47.8318L14.4525 43.701L15.0516 44.9744L14.3449 45.6732ZM13.5768 46.4186L12.0712 47.9094L14.1452 47.6454L13.5768 46.4186Z" fill="#23D9B7"/>
<path d="M13.7305 40.207L11.9637 41.7289L12.0252 42.0395L14.0224 41.6202L14.2835 42.9246L9.01399 44.0272L8.56846 41.8531C8.47628 41.4338 8.47628 41.0611 8.56846 40.735C8.64528 40.4089 8.81427 40.1449 9.02936 39.943C9.24444 39.7412 9.52098 39.6169 9.82824 39.5393C10.1816 39.4616 10.5196 39.4927 10.8268 39.648C11.1495 39.7878 11.3953 40.0362 11.595 40.4089L13.4386 38.7473L13.7305 40.207ZM11.1187 42.2258L10.9497 41.4183C10.9037 41.1854 10.8115 41.0145 10.6732 40.9214C10.5349 40.8282 10.3659 40.7971 10.1509 40.8437C9.95114 40.8903 9.79751 40.9835 9.70533 41.1232C9.61315 41.263 9.58243 41.4649 9.64388 41.6978L9.81288 42.5053L11.1187 42.2258Z" fill="#23D9B7"/>
<path d="M12.5014 34.3371L12.4246 36.3714L13.3617 36.7285L13.3156 38.1106L8 35.9365L8.06145 34.3992L13.5154 32.6444L13.4693 34.042L12.5014 34.3371ZM11.4874 34.6321L9.47486 35.2377L11.4413 35.9831L11.4874 34.6321Z" fill="#23D9B7"/>
<path d="M15.1131 27.2249L14.7291 28.4982L10.9036 29.6319L14.0838 30.6257L13.6997 31.8991L8.53772 30.2685L8.9218 28.9952L12.7626 27.8771L9.56705 26.8832L9.95113 25.6099L15.1131 27.2249Z" fill="#23D9B7"/>
<path d="M12.9623 20.066L13.8534 20.594L13.1313 21.8363L16.8952 24.057L16.2346 25.2061L12.4707 22.9855L11.7486 24.2278L10.8575 23.6998L12.9623 20.066Z" fill="#23D9B7"/>
<path d="M14.2682 16.7428L13.6844 18.6684L12.993 18.0938L13.5 16.0751L14.2682 16.7428ZM14.9442 17.628L19.0768 21.122L18.2472 22.1314L14.1145 18.6374L14.9442 17.628Z" fill="#23D9B7"/>
<path d="M21.7961 17.2708L20.2444 18.5597L20.5978 19.507L19.5377 20.3921L17.6173 14.926L18.7849 13.9476L23.7165 16.8981L22.641 17.7833L21.7961 17.2708ZM20.905 16.6963L19.1229 15.5782L19.8757 17.5659L20.905 16.6963Z" fill="#23D9B7"/>
<path d="M27.8799 9.55286C28.3561 9.6305 28.771 9.81685 29.1243 10.1274C29.4777 10.438 29.7388 10.8418 29.9232 11.3542C30.0922 11.8511 30.1383 12.3481 30.0615 12.8139C29.9846 13.2798 29.7696 13.6991 29.4469 14.0563C29.1243 14.4134 28.6941 14.6929 28.1564 14.8793L26.2514 15.5626L24.4539 10.4225L26.3589 9.73921C26.8967 9.53733 27.4036 9.47522 27.8799 9.55286ZM28.6634 13.0469C28.8324 12.6897 28.8324 12.2704 28.6634 11.8046C28.4944 11.3387 28.2332 11.0126 27.8799 10.8418C27.5265 10.6709 27.1117 10.6709 26.6508 10.8418L26.067 11.0436L27.1117 14.0407L27.6955 13.8389C28.1718 13.6525 28.4944 13.404 28.6634 13.0469Z" fill="#23D9B7"/>
<path d="M32.5656 9.27337L32.7039 10.3915L34.4553 10.1896L34.5782 11.1834L32.8268 11.3853L32.9651 12.5966L34.9469 12.3636L35.0698 13.4041L31.7975 13.7923L31.1676 8.38822L34.4092 8L34.5321 9.04044L32.5656 9.27337Z" fill="#23D9B7"/>
<path d="M42.6285 9.13358C42.9972 9.44416 43.2584 9.81685 43.412 10.2672C43.5656 10.7175 43.581 11.1989 43.4734 11.7269C43.3659 12.2549 43.1662 12.6897 42.8589 13.0469C42.5517 13.404 42.1676 13.6525 41.7067 13.7923C41.2458 13.932 40.7388 13.9476 40.1857 13.8233L38.1885 13.4351L39.2486 8.09314L41.2304 8.49689C41.7835 8.62112 42.2598 8.823 42.6285 9.13358ZM41.5223 12.5344C41.845 12.317 42.06 11.9598 42.1522 11.4629C42.2444 10.966 42.1983 10.5622 41.9679 10.2361C41.7528 9.91003 41.3994 9.69262 40.9078 9.59945L40.2933 9.47522L39.6634 12.5965L40.2779 12.7208C40.7849 12.8139 41.1997 12.7518 41.5223 12.5344Z" fill="#23D9B7"/>
<path d="M46.7919 11.3387L46.331 12.3636L47.9288 13.0935L47.514 14.0097L45.9162 13.2798L45.4246 14.3824L47.2374 15.2054L46.8073 16.1527L43.7961 14.8017L46.0237 9.8324L49.0349 11.2145L48.6047 12.1617L46.7919 11.3387Z" fill="#23D9B7"/>
<path d="M51.7849 12.9227L50.4022 17.0068L53.9204 14.5377L55.0419 15.3918L50.2639 18.5752L48.9581 17.5814L50.6787 12.0686L51.7849 12.9227Z" fill="#23D9B7"/>
<path d="M53.2291 21.0132C53.1522 20.5318 53.2137 20.066 53.3981 19.6001C53.5824 19.1342 53.8743 18.746 54.3045 18.4199C54.7193 18.0938 55.1648 17.9074 55.6564 17.8453C56.1327 17.7832 56.6089 17.8453 57.0545 18.0472C57.5 18.2335 57.8687 18.5441 58.1913 18.9479C58.4986 19.3516 58.6983 19.802 58.7598 20.2834C58.8212 20.7648 58.7751 21.2306 58.5908 21.681C58.4064 22.1313 58.1145 22.5195 57.6844 22.8456C57.2696 23.1718 56.824 23.3736 56.3324 23.4357C55.8408 23.4979 55.3799 23.4357 54.9344 23.2494C54.4888 23.063 54.1201 22.768 53.8129 22.3642C53.5056 21.9605 53.3059 21.5102 53.2291 21.0132ZM55.7333 22.1624C56.1173 22.1934 56.486 22.0692 56.8701 21.7741C57.2388 21.4791 57.4539 21.153 57.5307 20.7648C57.5922 20.3765 57.5 20.0194 57.2388 19.6777C56.9777 19.3361 56.655 19.1342 56.271 19.1032C55.8869 19.0721 55.5182 19.1963 55.1341 19.4914C54.7654 19.7864 54.5503 20.1125 54.4735 20.5008C54.412 20.889 54.5042 21.2462 54.7807 21.5878C55.0265 21.945 55.3492 22.1313 55.7333 22.1624Z" fill="#23D9B7"/>
<path d="M57.3463 26.1999L58.0684 27.7838L57.162 28.1876L55.8868 25.4079L60.7723 23.1096L61.3254 24.3209L57.3463 26.1999Z" fill="#23D9B7"/>
<path d="M63.0307 29.0417L59.8966 29.7716C59.5893 29.8492 59.3589 29.9734 59.2206 30.1753C59.0824 30.3772 59.0516 30.6257 59.1285 30.9207C59.1899 31.2158 59.3282 31.4332 59.5433 31.5574C59.743 31.6816 60.0042 31.6972 60.3268 31.635L63.4609 30.9052L63.7528 32.1941L60.6187 32.924C60.1424 33.0327 59.7276 33.0171 59.3589 32.8929C58.9902 32.7687 58.6829 32.5513 58.4371 32.2562C58.1913 31.9612 58.0223 31.5885 57.9301 31.1692C57.838 30.7499 57.838 30.3617 57.9148 29.989C58.0069 29.6163 58.1913 29.3057 58.4678 29.0417C58.7444 28.7777 59.1285 28.5914 59.5893 28.4827L62.7234 27.7528L63.0307 29.0417Z" fill="#23D9B7"/>
<path d="M62.7388 34.7719C63.1536 35.0203 63.4609 35.3465 63.6913 35.7813C63.9064 36.2005 64.0139 36.6819 63.9986 37.2099C63.9832 37.8621 63.7989 38.4057 63.4455 38.856C63.0921 39.3063 62.6313 39.6014 62.0321 39.7412L62.0782 38.2814C62.3086 38.1727 62.4776 38.0174 62.6005 37.8311C62.7234 37.6447 62.7849 37.4118 62.8003 37.1633C62.8156 36.7596 62.6773 36.418 62.4162 36.154C62.1396 35.89 61.7709 35.7502 61.31 35.7347C60.8491 35.7192 60.4651 35.8279 60.1732 36.0763C59.8813 36.3248 59.7276 36.6509 59.7276 37.0546C59.7276 37.3031 59.7737 37.536 59.8813 37.7379C59.9888 37.9398 60.1578 38.0951 60.3729 38.2193L60.3268 39.679C59.743 39.5082 59.2975 39.1821 58.9748 38.7162C58.6522 38.2504 58.4986 37.6913 58.5293 37.0391C58.5447 36.5111 58.6829 36.0453 58.9134 35.6415C59.1592 35.2378 59.4972 34.9116 59.912 34.6942C60.3268 34.4768 60.803 34.3681 61.3408 34.3837C61.8631 34.3992 62.3394 34.5234 62.7388 34.7719Z" fill="#23D9B7"/>
<path d="M63.1228 43.111L57.8687 41.9152L58.1606 40.6263L63.4147 41.8221L63.1228 43.111Z" fill="#23D9B7"/>
<path d="M57.4846 44.3067C57.8687 44.0117 58.2989 43.8409 58.7905 43.7788C59.2821 43.7166 59.7584 43.7943 60.25 44.0117C60.7416 44.2291 61.1103 44.5397 61.4022 44.9279C61.6787 45.3317 61.8477 45.7665 61.8938 46.2634C61.9399 46.7448 61.8631 47.2262 61.648 47.6921C61.4483 48.1579 61.141 48.5462 60.757 48.8412C60.3729 49.1363 59.9427 49.3071 59.4511 49.3692C58.9748 49.4158 58.4832 49.3381 58.007 49.1207C57.5307 48.9033 57.1466 48.5927 56.8547 48.2045C56.5628 47.8163 56.3938 47.366 56.3477 46.8846C56.3017 46.4032 56.3785 45.9218 56.5782 45.4559C56.8086 44.9745 57.1005 44.6018 57.4846 44.3067ZM57.6843 47.0709C57.838 47.4281 58.1299 47.6921 58.56 47.8939C58.9902 48.0803 59.3896 48.1269 59.743 48.0026C60.1117 47.8784 60.3729 47.6144 60.5419 47.2262C60.7109 46.8224 60.7262 46.4497 60.5726 46.0926C60.419 45.7354 60.1271 45.4714 59.6969 45.2695C59.2667 45.0832 58.8673 45.0366 58.5139 45.1608C58.1452 45.2851 57.8841 45.5491 57.7151 45.9528C57.5307 46.341 57.5307 46.7137 57.6843 47.0709ZM62.2164 48.9344L62.2472 46.9001L63.0768 47.2728L63.1382 49.3537L62.2164 48.9344Z" fill="#23D9B7"/>
<path d="M51.9846 52.5681L52.8142 51.5432L56.7779 51.9314L54.1969 49.8195L55.0265 48.7946L59.2206 52.2265L58.391 53.2514L54.412 52.8476L57.0084 54.9751L56.1788 56L51.9846 52.5681Z" fill="#23D9B7"/>
<path d="M41 57.8376L37.5845 57.2472L36 54L34.4155 57.2472L31 57.8376L33.4296 60.4207L32.9014 64L36 62.3764L39.0986 64L38.5704 60.4207L41 57.8376Z" fill="#EFE8E2"/>
<path d="M43.48 26.2129L33.8787 35.4961C33.585 35.78 33.1299 35.78 32.8363 35.4961L28.5495 31.3513C28.2558 31.0674 27.8007 31.0674 27.5071 31.3513L23.2203 35.4961C22.9267 35.78 22.9267 36.22 23.2203 36.5039L32.8216 45.7871C33.1153 46.071 33.5704 46.071 33.864 45.7871L48.7798 31.3655C49.0735 31.0816 49.0735 30.6416 48.7798 30.3577L44.5224 26.2129C44.2287 25.929 43.759 25.929 43.48 26.2129Z" fill="url(#paint1_linear_2265_6397)"/>
<path opacity="0.1" d="M66.9206 27.0883L68.0102 23.0798L64.4886 21.0429L64.8045 16.8876L60.967 15.6166L60.4933 11.4777L56.4821 10.9888L55.2346 7.02916L51.2076 7.35506L49.2336 3.72127L45.3488 4.84563L42.7274 1.68439L39.1268 3.57461L36 1L32.8258 3.57461L29.2253 1.68439L26.6038 4.84563L22.719 3.72127L20.745 7.35506L16.7181 7.02916L15.4705 10.9888L11.4594 11.4777L10.9856 15.6166L7.17975 16.9039L7.49559 21.0592L3.97399 23.0961L5.06363 27.1046L2 29.8096L3.83186 33.5249L3.12123 34.47C12.6122 37.3379 23.8876 39 36 39C48.1124 39 59.372 37.3379 68.8788 34.47L68.1681 33.5249L70 29.8096L66.9206 27.0883Z" fill="white"/>
<defs>
<linearGradient id="paint0_linear_2265_6397" x1="17.5" y1="14" x2="72" y2="80" gradientUnits="userSpaceOnUse">
<stop stop-color="#112959"/>
<stop offset="1" stop-color="#030140"/>
</linearGradient>
<linearGradient id="paint1_linear_2265_6397" x1="29.9705" y1="31.4999" x2="35.6704" y2="46.0113" gradientUnits="userSpaceOnUse">
<stop stop-color="#23D9B7"/>
<stop offset="1" stop-color="#99F2E2"/>
</linearGradient>
</defs>
</svg>
