<svg width="72" height="72" viewBox="0 0 72 72" fill="none" xmlns="http://www.w3.org/2000/svg">
<path d="M36 0L39.2857 2.59061L43.0136 0.695042L45.7464 3.88592L49.7745 2.73278L51.8122 6.39754L55.9982 6.06582L57.2936 10.0465L61.448 10.5362L61.9377 14.7065L65.9342 16.0018L65.6025 20.172L69.2514 22.2255L68.1141 26.2536L71.305 28.9706L69.3936 32.7143L72 36L69.3936 39.2857L71.305 43.0136L68.1141 45.7464L69.2514 49.7745L65.6025 51.8122L65.9342 55.9982L61.9377 57.2936L61.448 61.448L57.2936 61.9377L55.9982 65.9342L51.8122 65.6025L49.7745 69.2514L45.7464 68.1141L43.0136 71.305L39.2857 69.3936L36 72L32.7143 69.3936L28.9706 71.305L26.2536 68.1141L22.2255 69.2514L20.172 65.6025L16.0018 65.9342L14.7065 61.9377L10.5362 61.448L10.0465 57.2936L6.06582 55.9982L6.39754 51.8122L2.73278 49.7745L3.88592 45.7464L0.695042 43.0136L2.59061 39.2857L0 36L2.59061 32.7143L0.695042 28.9706L3.88592 26.2536L2.73278 22.2255L6.39754 20.172L6.06582 16.0018L10.0465 14.7065L10.5362 10.5362L14.7065 10.0465L16.0018 6.06582L20.172 6.39754L22.2255 2.73278L26.2536 3.88592L28.9706 0.695042L32.7143 2.59061L36 0Z" fill="url(#paint0_linear_2274_6744)"/>
<path d="M18.5788 55.9086C18.1175 56.0303 17.6562 56.0303 17.1949 55.9086C16.7337 55.7718 16.3185 55.5284 15.9495 55.1482C15.5036 54.6919 15.2268 54.2052 15.1345 53.6729C15.0423 53.1406 15.1499 52.6387 15.4421 52.152L16.4569 53.171C16.3954 53.3687 16.3954 53.5512 16.4569 53.7489C16.5184 53.9467 16.626 54.1292 16.8105 54.2965C17.1027 54.6007 17.441 54.7375 17.8254 54.7223C18.2098 54.7071 18.5634 54.5398 18.8863 54.2204C19.24 53.8706 19.4245 53.5056 19.4399 53.1254C19.4552 52.7451 19.2861 52.3801 18.9632 52.0455C18.7326 51.8174 18.4865 51.6805 18.2098 51.6349C17.933 51.5892 17.6562 51.6501 17.3641 51.787L18.5327 52.9581L17.8561 53.6273L15.8572 51.6197L16.7337 50.768C17.0412 50.6159 17.3641 50.5094 17.7331 50.479C18.1021 50.4486 18.4712 50.4942 18.8402 50.6311C19.2092 50.768 19.5629 50.9809 19.8858 51.3003C20.2548 51.6805 20.5162 52.0911 20.6392 52.5474C20.7622 53.0037 20.7622 53.46 20.6392 53.9162C20.5162 54.3725 20.2548 54.7832 19.8704 55.1482C19.4552 55.5284 19.0401 55.7718 18.5788 55.9086Z" fill="#23D9B7"/>
<path d="M14.9193 46.1748L15.888 47.9086L16.872 47.7261L17.5332 48.9124L11.8902 49.825L11.1521 48.5018L14.9193 44.228L15.5958 45.4295L14.9193 46.1748ZM14.212 46.9353L12.7974 48.4714L14.8578 48.0911L14.212 46.9353Z" fill="#23D9B7"/>
<path d="M13.9506 40.6691L12.2592 42.2508L12.3361 42.555L14.3042 42.0531L14.6425 43.3155L9.42999 44.6539L8.87644 42.5398C8.76881 42.1292 8.75343 41.7641 8.81494 41.4448C8.87644 41.1254 9.0302 40.8516 9.23009 40.6539C9.44536 40.4409 9.70676 40.3041 10.0143 40.228C10.3679 40.1368 10.6908 40.152 11.0137 40.2736C11.3366 40.3953 11.6134 40.6387 11.8133 40.9733L13.5662 39.2546L13.9506 40.6691ZM11.4443 42.7832L11.2444 42.0075C11.1829 41.7794 11.0752 41.6121 10.9368 41.536C10.7985 41.4448 10.614 41.4295 10.4141 41.4904C10.2142 41.536 10.0604 41.6425 9.98353 41.7946C9.89127 41.9467 9.89127 42.1292 9.95277 42.3573L10.1527 43.133L11.4443 42.7832Z" fill="#23D9B7"/>
<path d="M12.4437 34.7986L12.4591 36.791L13.4124 37.1103V38.464L8 36.5628V35.0571L13.3817 33.1104V34.4792L12.4437 34.7986ZM11.4443 35.1332L9.46074 35.8176L11.4596 36.4716L11.4443 35.1332Z" fill="#23D9B7"/>
<path d="M14.8116 27.5588L14.4734 28.806L10.6908 30.0531L13.9044 30.9201L13.5662 32.1672L8.36903 30.768L8.7073 29.5208L12.5052 28.2889L9.27622 27.422L9.6145 26.1748L14.8116 27.5588Z" fill="#23D9B7"/>
<path d="M12.5821 20.4106L13.4893 20.9125L12.782 22.1445L16.5799 24.2433L15.9341 25.384L12.1516 23.2852L11.4596 24.5171L10.5524 24.0152L12.5821 20.4106Z" fill="#23D9B7"/>
<path d="M13.9198 16.9735L13.3663 18.8746L12.659 18.3119L13.1203 16.3347L13.9198 16.9735ZM14.6271 17.8252L18.8248 21.1712L17.9945 22.1902L13.7968 18.8442L14.6271 17.8252Z" fill="#23D9B7"/>
<path d="M21.6233 17.2318L20.0857 18.5094L20.4547 19.4372L19.3937 20.3193L17.4256 14.9961L18.5942 14.0227L23.5607 16.8668L22.4997 17.7489L21.6233 17.2318ZM20.7315 16.6843L18.9325 15.6045L19.7013 17.536L20.7315 16.6843Z" fill="#23D9B7"/>
<path d="M28.0659 9.49052C28.5426 9.56656 28.9577 9.74907 29.3114 10.0533C29.665 10.3574 29.9264 10.7529 30.0956 11.2548C30.2647 11.7415 30.3108 12.2282 30.2186 12.6844C30.1263 13.1407 29.9264 13.5514 29.5881 13.9012C29.2652 14.251 28.8193 14.5095 28.2965 14.692L26.3899 15.346L24.6216 10.3118L26.5283 9.65782C27.0818 9.47531 27.5892 9.41447 28.0659 9.49052ZM28.8193 12.9126C28.9885 12.5628 28.9885 12.1521 28.8347 11.6958C28.6656 11.2244 28.4195 10.9202 28.0659 10.7529C27.7122 10.5856 27.2971 10.5856 26.8358 10.7377L26.2515 10.9354L27.2817 13.886L27.866 13.6882C28.3273 13.5057 28.6502 13.2624 28.8193 12.9126Z" fill="#23D9B7"/>
<path d="M32.9709 9.21673L33.0785 10.327L34.8314 10.1445L34.939 11.1179L33.1862 11.3004L33.3092 12.4867L35.2927 12.289L35.4003 13.308L32.1098 13.6426L31.5563 8.3346L34.8468 8L34.9544 9.01901L32.9709 9.21673Z" fill="#23D9B7"/>
<path d="M41.5969 14.0381L40.9358 11.8328L40.6282 11.7719L40.1823 13.7339L38.9061 13.4449L40.0747 8.24341L42.2274 8.71489C42.6425 8.80615 42.9808 8.95824 43.2422 9.15596C43.5036 9.36888 43.6727 9.61223 43.765 9.88599C43.8572 10.175 43.8572 10.4639 43.7957 10.7681C43.7188 11.1179 43.5497 11.4069 43.2883 11.635C43.0269 11.8632 42.6886 12.0001 42.2889 12.0153L43.0423 14.3423L41.5969 14.0381ZM40.8281 10.8746L41.6277 11.0419C41.8583 11.0875 42.0582 11.0723 42.1966 10.9811C42.335 10.8898 42.4272 10.7377 42.4734 10.54C42.5195 10.3423 42.4887 10.1598 42.4119 10.0229C42.3196 9.88599 42.1505 9.77953 41.9198 9.7339L41.1203 9.5666L40.8281 10.8746Z" fill="#23D9B7"/>
<path d="M47.1785 11.4526L46.7018 12.4564L48.3009 13.2016L47.8858 14.0838L46.2867 13.3537L45.7792 14.4336L47.5782 15.2701L47.1323 16.1978L44.134 14.7986L46.4404 9.97729L49.4234 11.3613L48.9775 12.2891L47.1785 11.4526Z" fill="#23D9B7"/>
<path d="M49.0082 17.2472C48.8391 16.9582 48.7468 16.6541 48.7622 16.3499C48.7622 16.0457 48.8699 15.7415 49.0697 15.4525L50.1768 16.289C50.0692 16.4563 50.0231 16.6236 50.0538 16.7757C50.0846 16.9278 50.1768 17.0647 50.3152 17.1864C50.469 17.308 50.6227 17.3537 50.7611 17.3537C50.9149 17.3537 51.0225 17.2776 51.1301 17.156C51.207 17.0495 51.2378 16.943 51.2224 16.8214C51.207 16.6997 51.1609 16.578 51.084 16.4563C51.0071 16.3347 50.8995 16.1674 50.7611 15.9696C50.5459 15.6807 50.3921 15.4221 50.2845 15.2092C50.1768 14.9963 50.1153 14.7529 50.1153 14.4944C50.1153 14.2358 50.223 13.9772 50.4228 13.7035C50.7304 13.308 51.1148 13.1103 51.5761 13.0951C52.0373 13.0799 52.4986 13.2624 52.9599 13.6122C53.4366 13.962 53.7287 14.3727 53.8517 14.8137C53.9747 15.2548 53.8825 15.6807 53.5903 16.0913L52.4525 15.2396C52.5601 15.0875 52.5909 14.9354 52.5601 14.7985C52.5294 14.6617 52.4371 14.5248 52.2834 14.4031C52.1603 14.3118 52.022 14.2662 51.899 14.2814C51.7759 14.2966 51.6529 14.3575 51.5607 14.4944C51.453 14.6312 51.4377 14.7833 51.5146 14.9658C51.5914 15.1331 51.7298 15.3765 51.9297 15.6807C52.1296 15.9849 52.2987 16.2434 52.4064 16.4563C52.514 16.6693 52.5755 16.9126 52.5755 17.156C52.5755 17.4145 52.4832 17.6731 52.2834 17.9164C52.0988 18.1598 51.8682 18.3271 51.5914 18.4335C51.3147 18.54 51.0071 18.5552 50.6842 18.4944C50.3613 18.4335 50.0384 18.2814 49.7155 18.0381C49.4234 17.7947 49.1774 17.5362 49.0082 17.2472Z" fill="#23D9B7"/>
<path d="M57.2037 17.6123L54.6974 19.6047C54.4514 19.8024 54.2976 20.0153 54.2669 20.2435C54.2361 20.4716 54.313 20.6997 54.4975 20.9431C54.6974 21.1864 54.9127 21.3081 55.1433 21.3233C55.374 21.3385 55.62 21.2473 55.8814 21.0495L58.3877 19.0571L59.218 20.0762L56.7117 22.0685C56.3427 22.3727 55.9583 22.54 55.5739 22.5857C55.1895 22.6313 54.8204 22.5857 54.4668 22.4184C54.1131 22.2511 53.8056 22.0077 53.5442 21.6883C53.2828 21.3537 53.0983 21.0191 53.0214 20.6541C52.9445 20.2891 52.9753 19.9393 53.1137 19.5742C53.2521 19.2092 53.5134 18.8898 53.8825 18.5857L56.3888 16.5933L57.2037 17.6123Z" fill="#23D9B7"/>
<path d="M57.1269 25.3233L57.8957 26.8442L57.0038 27.2853L55.6661 24.5933L60.4942 22.2358L61.0785 23.4069L57.1269 25.3233Z" fill="#23D9B7"/>
<path d="M63.5848 30.5703L62.5854 30.8289L62.2164 29.46L58.0033 30.5703L57.665 29.308L61.8781 28.1977L61.5091 26.8289L62.5085 26.5703L63.5848 30.5703Z" fill="#23D9B7"/>
<path d="M59.5717 36.2737L59.5255 34.2813L58.5722 33.9771L58.5415 32.6235L63.9692 34.4486L64 35.9543L58.6491 37.9924L58.6183 36.6235L59.5717 36.2737ZM60.5557 35.9239L62.5393 35.2243L60.5404 34.6007L60.5557 35.9239Z" fill="#23D9B7"/>
<path d="M62.5393 43.5133C62.2164 43.8631 61.832 44.1064 61.3861 44.2281C60.9401 44.3498 60.4481 44.3498 59.9407 44.2281C59.4333 44.1064 59.0027 43.8783 58.6645 43.5589C58.3262 43.2395 58.0956 42.844 57.9879 42.3726C57.8803 41.9011 57.8803 41.3992 58.0187 40.8669L58.5107 38.9353L63.7386 40.2281L63.2466 42.1596C63.0928 42.7072 62.8622 43.1634 62.5393 43.5133ZM59.218 42.2661C59.4179 42.6007 59.7562 42.8288 60.2482 42.9505C60.7249 43.0722 61.14 43.0266 61.4783 42.8288C61.8166 42.6311 62.0472 42.2965 62.1702 41.8098L62.324 41.2167L59.2641 40.4562L59.1104 41.0494C58.9874 41.5361 59.0181 41.9315 59.218 42.2661Z" fill="#23D9B7"/>
<path d="M56.5733 45.7337C56.9885 45.4904 57.4344 45.3535 57.9264 45.3535C58.4184 45.3535 58.8951 45.4752 59.3564 45.7337C59.8177 45.9923 60.1713 46.3269 60.402 46.7528C60.648 47.1786 60.7556 47.6197 60.7556 48.1064C60.7556 48.5779 60.6172 49.0493 60.3712 49.4752C60.1252 49.9163 59.7869 50.2509 59.3718 50.4942C58.9566 50.7375 58.5107 50.8744 58.0187 50.8744C57.5266 50.8744 57.0653 50.7528 56.6041 50.4942C56.1428 50.2356 55.7891 49.901 55.5431 49.4752C55.2971 49.0493 55.1741 48.6083 55.1741 48.1368C55.1741 47.6653 55.2971 47.209 55.5585 46.768C55.8352 46.3269 56.1581 45.9771 56.5733 45.7337ZM56.4964 48.4562C56.6194 48.8212 56.8808 49.1102 57.2806 49.3383C57.6958 49.5664 58.0802 49.6425 58.4492 49.5512C58.8182 49.46 59.1104 49.2471 59.3256 48.8668C59.5409 48.4866 59.587 48.1216 59.4794 47.7718C59.3564 47.4067 59.095 47.1178 58.6952 46.8896C58.2801 46.6615 57.8957 46.5855 57.5266 46.6767C57.1576 46.768 56.8655 46.9961 56.6502 47.3611C56.4195 47.7261 56.3734 48.0912 56.4964 48.4562Z" fill="#23D9B7"/>
<path d="M52.9907 50.6921C53.2982 50.5552 53.6057 50.5096 53.9132 50.5552C54.2208 50.6008 54.5129 50.7377 54.7743 50.9658L53.8056 51.9544C53.6518 51.8328 53.4827 51.7719 53.3289 51.7719C53.1752 51.7871 53.0214 51.848 52.8984 51.9849C52.76 52.1217 52.6831 52.2586 52.6831 52.4107C52.6678 52.5628 52.7293 52.6845 52.8369 52.7909C52.9292 52.8822 53.0368 52.9278 53.1752 52.9278C53.2982 52.9278 53.4212 52.8974 53.5596 52.8366C53.698 52.7757 53.8671 52.6997 54.0824 52.578C54.4053 52.4107 54.682 52.2738 54.9127 52.1978C55.1433 52.1217 55.3893 52.0913 55.6507 52.1217C55.9121 52.1522 56.1582 52.289 56.4042 52.5172C56.7578 52.867 56.927 53.2624 56.8655 53.7187C56.8193 54.175 56.5887 54.6008 56.1735 55.0267C55.7584 55.4525 55.3278 55.6959 54.8666 55.7567C54.4053 55.8176 53.9901 55.6807 53.6057 55.3461L54.5898 54.3423C54.7282 54.4639 54.8819 54.5096 55.0203 54.5096C55.1587 54.5096 55.3125 54.4183 55.4509 54.2814C55.5585 54.175 55.62 54.0533 55.62 53.9164C55.62 53.7947 55.5739 53.6731 55.4509 53.5514C55.3278 53.4297 55.1741 53.3993 54.9896 53.4449C54.8051 53.4906 54.559 53.597 54.2208 53.7795C53.8979 53.9468 53.6211 54.0685 53.3904 54.1446C53.1598 54.2206 52.9138 54.251 52.6678 54.2206C52.4064 54.1902 52.1604 54.0685 51.9297 53.8404C51.7144 53.6274 51.5607 53.3841 51.4992 53.0951C51.4223 52.8061 51.4377 52.5172 51.5453 52.1978C51.6529 51.8784 51.8375 51.5894 52.1142 51.3004C52.391 51.0419 52.6831 50.829 52.9907 50.6921Z" fill="#23D9B7"/>
<path d="M41 57.8376L37.5845 57.2472L36 54L34.4155 57.2472L31 57.8376L33.4296 60.4207L32.9014 64L36 62.3764L39.0986 64L38.5704 60.4207L41 57.8376Z" fill="#EFE8E2"/>
<path d="M43.48 26.2129L33.8787 35.4961C33.585 35.78 33.1299 35.78 32.8363 35.4961L28.5495 31.3513C28.2558 31.0674 27.8007 31.0674 27.5071 31.3513L23.2203 35.4961C22.9267 35.78 22.9267 36.22 23.2203 36.5039L32.8216 45.7871C33.1153 46.071 33.5704 46.071 33.864 45.7871L48.7798 31.3655C49.0735 31.0816 49.0735 30.6416 48.7798 30.3577L44.5224 26.2129C44.2287 25.929 43.759 25.929 43.48 26.2129Z" fill="url(#paint1_linear_2274_6744)"/>
<path opacity="0.1" d="M66.9206 27.0883L68.0102 23.0798L64.4886 21.0429L64.8045 16.8876L60.967 15.6166L60.4933 11.4777L56.4821 10.9888L55.2346 7.02916L51.2076 7.35506L49.2336 3.72127L45.3488 4.84563L42.7274 1.68439L39.1268 3.57461L36 1L32.8258 3.57461L29.2253 1.68439L26.6038 4.84563L22.719 3.72127L20.745 7.35506L16.7181 7.02916L15.4705 10.9888L11.4594 11.4777L10.9856 15.6166L7.17975 16.9039L7.49559 21.0592L3.97399 23.0961L5.06363 27.1046L2 29.8096L3.83186 33.5249L3.12123 34.47C12.6122 37.3379 23.8876 39 36 39C48.1124 39 59.372 37.3379 68.8788 34.47L68.1681 33.5249L70 29.8096L66.9206 27.0883Z" fill="white"/>
<defs>
<linearGradient id="paint0_linear_2274_6744" x1="17.5" y1="14" x2="72" y2="80" gradientUnits="userSpaceOnUse">
<stop stop-color="#112959"/>
<stop offset="1" stop-color="#030140"/>
</linearGradient>
<linearGradient id="paint1_linear_2274_6744" x1="29.9705" y1="31.4999" x2="35.6704" y2="46.0113" gradientUnits="userSpaceOnUse">
<stop stop-color="#23D9B7"/>
<stop offset="1" stop-color="#99F2E2"/>
</linearGradient>
</defs>
</svg>
