<svg width="134" height="164" viewBox="0 0 134 164" fill="none" xmlns="http://www.w3.org/2000/svg">
<mask id="mask0_2415_14987" style="mask-type:alpha" maskUnits="userSpaceOnUse" x="0" y="0" width="134" height="164">
<rect width="134" height="164" fill="white"/>
</mask>
<g mask="url(#mask0_2415_14987)">
<rect y="8" width="134" height="148" rx="67" fill="url(#paint0_linear_2415_14987)"/>
<mask id="mask1_2415_14987" style="mask-type:alpha" maskUnits="userSpaceOnUse" x="0" y="8" width="134" height="148">
<rect y="8" width="134" height="148" rx="67" fill="#23D9B7"/>
</mask>
<g mask="url(#mask1_2415_14987)">
<path d="M17 36.2767V143.723C17 148.294 20.7181 151.999 25.3048 151.999H112.695C117.282 151.999 121 148.294 121 143.723V73.5004L100.763 46.924L75.3448 28H25.3048C20.7181 28 17 31.7055 17 36.2767Z" fill="#F9FAFB"/>
<path d="M33 152H24.9072C20.5406 152 17 148.294 17 143.723V36.2778C17 31.7069 20.5406 28.0005 24.9072 28.0005H33C28.6334 28.0005 25.0928 31.7069 25.0928 36.2778V143.723C25.0928 148.294 28.6334 152 33 152Z" fill="#F2F5F7"/>
<path d="M95.2069 35.8126C90.2046 30.8102 83.4202 28 76.3458 28H67.3027C78.3978 27.9979 87.3923 36.9925 87.3923 48.0896V55.8327C87.3923 59.0221 89.9779 61.6077 93.1673 61.6077H100.91C112.008 61.6077 121.002 70.6022 121 81.6973V72.6577C121 65.5811 118.189 58.7944 113.185 53.7903L104.197 44.8024L95.2069 35.8126Z" fill="#F2F5F7"/>
<path d="M48.976 76.0001H35.025C33.9066 76.0001 33.0005 75.1046 33.0005 74.0001C33.0005 72.8955 33.9069 72.0001 35.025 72.0001H48.976C50.0944 72.0001 51.0005 72.8955 51.0005 74.0001C51.0005 75.1044 50.0941 76.0001 48.976 76.0001Z" fill="#112959" fill-opacity="0.5"/>
<path d="M107.011 84H34.9888C33.8901 84 33 83.1046 33 82C33 80.8954 33.8904 80 34.9888 80H107.011C108.11 80 109 80.8954 109 82C109 83.1043 108.11 84 107.011 84Z" fill="#112959" fill-opacity="0.5"/>
<path d="M48.9755 96H35.0245C33.9061 96 33 95.1046 33 94C33 92.8954 33.9064 92 35.0245 92H48.9755C50.0939 92 51 92.8954 51 94C51 95.1046 50.0936 96 48.9755 96Z" fill="#112959" fill-opacity="0.5"/>
<path d="M107.011 104H34.9888C33.8901 104 33 103.105 33 102C33 100.895 33.8904 100 34.9888 100H107.011C108.11 100 109 100.895 109 102C109 103.105 108.11 104 107.011 104Z" fill="#112959" fill-opacity="0.5"/>
<path d="M100.009 146C108.297 146 115.017 139.284 115.017 131C115.017 122.716 108.297 116 100.009 116C91.7195 116 85 122.716 85 131C85 139.284 91.7195 146 100.009 146Z" fill="#FD8087"/>
<path d="M92.8647 127.025H96.0278V123.864C96.0278 122.834 96.8626 122 97.8924 122H102.118C103.148 122 103.982 122.834 103.982 123.864V127.025H107.146C108.175 127.025 109.01 127.859 109.01 128.889V133.111C109.01 134.141 108.175 134.975 107.146 134.975H103.982V138.136C103.982 139.166 103.148 140 102.118 140H97.8924C96.8626 140 96.0278 139.166 96.0278 138.136V134.975H92.8647C91.8349 134.975 91 134.141 91 133.111V128.889C90.9998 127.859 91.8347 127.025 92.8647 127.025Z" fill="#F9FAFB"/>
<path d="M75.2157 129H60.7843C59.7986 129 59 128.105 59 127C59 125.895 59.7988 125 60.7843 125H75.2157C76.2014 125 77 125.895 77 127C77 128.105 76.2014 129 75.2157 129Z" fill="#D0D5DD"/>
<path d="M75.2157 137H60.7843C59.7986 137 59 136.105 59 135C59 133.895 59.7988 133 60.7843 133H75.2157C76.2014 133 77 133.895 77 135C77 136.105 76.2014 137 75.2157 137Z" fill="#D0D5DD"/>
<path d="M80.2296 43.9162C75.9125 51.1818 75.7589 50.9452 69.3394 37.2403C69.1295 36.7895 68.4512 37.0262 68.5636 37.5108C71.0857 48.4845 69.7216 48.3154 62.5864 37.4883C62.3053 37.0638 61.6532 37.4244 61.8669 37.8865C67.4319 50.1788 68.6873 51.7829 59.3598 42.4435C59.0075 42.0941 58.4529 42.5449 58.7227 42.9619C65.8879 54.0783 65.1272 54.4615 57.6771 48.4243C57.3174 48.1313 56.819 48.5671 57.0663 48.9653C63.1522 58.7706 72.5772 63.7333 78.1535 52.8123C79.274 50.6183 80.2409 47.7819 80.9904 44.213C81.0841 43.7546 80.4695 43.5104 80.2296 43.9162Z" fill="#1FA6A6"/>
</g>
</g>
<defs>
<linearGradient id="paint0_linear_2415_14987" x1="67" y1="16.371" x2="67" y2="143.847" gradientUnits="userSpaceOnUse">
<stop stop-color="#23D9B7" stop-opacity="0.6"/>
<stop offset="0.9" stop-color="#FFC7C7" stop-opacity="0.05"/>
</linearGradient>
</defs>
</svg>
