<svg width="56" height="32" viewBox="0 0 56 32" fill="none" xmlns="http://www.w3.org/2000/svg">
<g id="alma">
<rect width="56" height="32" rx="10" fill="#FA5022"/>
<path id="Alma_logo" d="M45.0696 19.7382C43.71 19.7382 42.6119 18.6255 42.6119 17.2582C42.6119 15.8909 43.71 14.7782 45.0696 14.7782C46.4292 14.7782 47.5273 15.8909 47.5273 17.2582C47.5273 18.6255 46.4217 19.7382 45.0696 19.7382ZM47.5199 12.7345V13.9927C47.1613 13.5273 46.6981 13.1564 46.1677 12.8945C45.6374 12.6327 45.0472 12.5018 44.457 12.5018C42.0143 12.5018 40.1243 14.6255 40.1243 17.2509C40.1243 19.8764 42.0143 22 44.457 22C45.092 22 45.7195 21.8473 46.2798 21.5491C46.8401 21.2582 47.3182 20.8291 47.6693 20.3127V21.7673H50V12.7345H47.5199ZM19.0805 10.2327H21.5606V21.7745H19.0805V10.2327ZM24.4143 16.6473C24.4143 14.16 25.983 12.5091 28.1494 12.5091C29.4941 12.5091 30.5623 13.0909 31.2048 14.0873C31.8472 13.0909 32.9154 12.5091 34.2601 12.5091C36.434 12.5091 37.9952 14.1745 37.9952 16.6473V21.7745H35.5151V16.3927C35.5151 15.4255 34.8577 14.7927 33.9837 14.7927C33.1097 14.7927 32.4523 15.4255 32.4523 16.3927V21.7745H29.9722V16.3927C29.9722 15.4255 29.3148 14.7927 28.4407 14.7927C27.5667 14.7927 26.9093 15.4255 26.9093 16.3927V21.7745H24.4217L24.4143 16.6473ZM14.5834 12.8291C13.9932 10.6836 12.7531 10 11.5654 10C10.3776 10 9.13752 10.6836 8.55484 12.8291L6 21.7745H8.51749C8.68183 21.1127 9.07776 20.5164 9.63056 20.0945C10.1834 19.6727 10.8632 19.44 11.5728 19.44C12.275 19.44 12.9548 19.6727 13.5151 20.0945C14.0679 20.5164 14.4564 21.1055 14.6282 21.7745H17.1457L14.5834 12.8291ZM11.5654 17.36C10.8034 17.3527 10.0638 17.6364 9.50357 18.1382L10.9453 12.9309C11.0798 12.4364 11.289 12.2764 11.5654 12.2764C11.8418 12.2764 12.0509 12.4291 12.1854 12.9309L13.6272 18.1382C13.0669 17.6364 12.3273 17.36 11.5654 17.36Z" fill="white"/>
</g>
</svg>
