<svg width="56" height="32" viewBox="0 0 56 32" fill="none" xmlns="http://www.w3.org/2000/svg">
<rect width="56" height="32" rx="10" fill="#101828"/>
<path fill-rule="evenodd" clip-rule="evenodd" d="M15.3089 10.0628C14.8401 10.6032 14.0901 11.0295 13.34 10.9686C13.2462 10.2379 13.6134 9.46147 14.0432 8.98192C14.512 8.42626 15.3324 8.03045 15.9965 8C16.0747 8.76118 15.7699 9.50714 15.3089 10.0628ZM15.9885 11.1132C15.3277 11.0762 14.7247 11.3068 14.2377 11.4931C13.9243 11.613 13.6589 11.7145 13.457 11.7145C13.2304 11.7145 12.954 11.6076 12.6437 11.4875C12.2372 11.3301 11.7723 11.1502 11.2849 11.1589C10.1675 11.1741 9.12836 11.7907 8.55798 12.7726C7.38597 14.7364 8.25326 17.6441 9.3862 19.2426C9.94095 20.0342 10.6051 20.902 11.4802 20.8715C11.8652 20.8574 12.1421 20.7429 12.4287 20.6244C12.7587 20.488 13.1015 20.3463 13.6367 20.3463C14.1534 20.3463 14.4811 20.4843 14.7958 20.6168C15.095 20.7428 15.3823 20.8637 15.8088 20.8563C16.7152 20.8411 17.2855 20.0647 17.8403 19.2731C18.439 18.4234 18.7021 17.5942 18.742 17.4684L18.7467 17.4538C18.7467 17.4538 18.7383 17.4496 18.7253 17.4438C18.5251 17.3545 16.9955 16.6723 16.9808 14.843C16.9661 13.3075 18.1941 12.5296 18.3874 12.4071C18.3992 12.3996 18.4071 12.3946 18.4107 12.392C17.6293 11.2654 16.4104 11.1437 15.9885 11.1132ZM22.2628 20.7726V8.90578H26.8337C29.1933 8.90578 30.8419 10.489 30.8419 12.803C30.8419 15.117 29.1621 16.7155 26.7712 16.7155H24.1537V20.7726H22.2628ZM24.1533 10.4586H26.3333C27.9741 10.4586 28.9117 11.3111 28.9117 12.8107C28.9117 14.3102 27.9741 15.1703 26.3254 15.1703H24.1533V10.4586ZM37.0847 19.3492C36.5846 20.2778 35.4829 20.8639 34.2953 20.8639C32.5373 20.8639 31.3106 19.844 31.3106 18.3064C31.3106 16.784 32.4982 15.9087 34.6938 15.7793L37.0534 15.6422V14.9876C37.0534 14.0209 36.4049 13.4957 35.2485 13.4957C34.2953 13.4957 33.5999 13.9753 33.4592 14.706H31.7559C31.8106 13.1684 33.2952 12.0495 35.3032 12.0495C37.4675 12.0495 38.8739 13.1532 38.8739 14.8658V20.7726H37.1237V19.3492H37.0847ZM34.8032 19.4558C33.7953 19.4558 33.1546 18.9838 33.1546 18.2607C33.1546 17.5147 33.7719 17.0809 34.9517 17.0124L37.0535 16.883V17.5528C37.0535 18.6641 36.0846 19.4558 34.8032 19.4558ZM44.6793 21.2369C43.9214 23.3149 43.0541 24 41.2102 24C41.0695 24 40.6007 23.9848 40.4913 23.9543V22.5309C40.6085 22.5461 40.8976 22.5614 41.0461 22.5614C41.8821 22.5614 42.3509 22.2188 42.64 21.3283L42.8119 20.803L39.6084 12.1636H41.5852L43.812 19.1741H43.8511L46.0779 12.1636H48L44.6793 21.2369Z" fill="white"/>
</svg>
