<svg xmlns:dc="http://purl.org/dc/elements/1.1/" xmlns:cc="http://creativecommons.org/ns#"
 xmlns:rdf="http://www.w3.org/1999/02/22-rdf-syntax-ns#" xmlns:svg="http://www.w3.org/2000/svg" xmlns="http://www.w3.org/2000/svg" 
 xmlns:sodipodi="http://sodipodi.sourceforge.net/DTD/sodipodi-0.dtd" xmlns:inkscape="http://www.inkscape.org/namespaces/inkscape" 
 id="Capa_1" x="0px" y="0px" width="539.59003" height="156.75" viewBox="0 0 539.59004 156.75" xml:space="preserve" 
 sodipodi:docname="logo-principal-frakmenta-fragmenta.svg" inkscape:version="0.92.1 r15371">
 <metadata></metadata><defs id="defs35"></defs>
 <g id="g20" transform="matrix(1.2205094,0,0,1.2205094,-7.9220454,2.6221361)" style="stroke-width:0.81933004">
 <path d="m 100.224,84.868 h -2.432 c -3.014,0 -4.267,-1.227 -4.267,-3.686 0,-2.461 1.254,-3.689 4.267,-3.689 h 2.432 v -5.606 c 0,-7.067 5.597,-10.828 11.855,-10.828 3.902,0 7.068,1.612 7.068,5.373 0,2.077 -1.545,3.844 -3.459,3.844 -0.811,0 -1.545,-0.234 -2.357,-0.234 -1.542,0 -2.353,1.077 -2.353,2.611 v 4.839 h 3.314 c 3.163,0 4.856,0.999 4.856,3.689 0,2.688 -1.693,3.686 -4.856,3.686 h -3.314 v 28.187 c 0,3.683 -2.134,5.606 -5.373,5.606 -3.242,0 -5.38,-1.923 -5.38,-5.606 V 84.868 Z" id="path2" inkscape:connector-curvature="0" style="fill:#3b3f51;stroke-width:0.81933004"></path><path d="m 122.824,81.716 c 0,-3.38 2.137,-5.224 4.859,-5.224 2.726,0 4.859,1.845 4.859,5.224 v 4.3 h 0.148 c 1.255,-4.684 3.68,-9.524 8.911,-9.524 3.385,0 5.891,2.307 5.891,5.454 0,4.151 -2.651,5.608 -5.302,5.608 h -1.914 c -4.346,0 -6.701,3.15 -6.701,12.443 v 13.058 c 0,2.992 -1.174,5.603 -5.374,5.603 -4.199,0 -5.376,-2.611 -5.376,-5.603 V 81.716 Z" id="path4" inkscape:connector-curvature="0" style="fill:#3b3f51;stroke-width:0.81933004"></path><path d="m 173.993,98.766 c -1.177,1.156 -3.387,1.54 -4.638,1.77 l -3.902,0.614 c -4.491,0.688 -6.922,2.149 -6.922,5.528 0,2.533 2.283,4.607 5.965,4.607 5.89,0 9.498,-3.993 9.498,-8.138 v -4.381 z m 10.75,8.063 c 0,4.684 1.102,5.766 1.102,7.527 0,2.536 -2.279,4.306 -4.859,4.306 -4.636,0 -6.184,-3.073 -6.333,-6.535 -4.194,4.839 -9.053,6.535 -14.723,6.535 -6.11,0 -12.15,-4.383 -12.15,-11.45 0,-9.291 6.777,-11.902 15.021,-12.903 l 6.554,-0.765 c 2.577,-0.307 4.638,-0.924 4.638,-4.151 0,-3.224 -3.163,-4.604 -6.773,-4.604 -7.953,0 -8.17,6.142 -12.443,6.142 -2.726,0 -4.565,-1.997 -4.565,-4.298 0,-4.454 6.039,-10.143 17.08,-10.143 10.307,0 17.452,3.462 17.452,11.525 v 18.814 z" id="path6" inkscape:connector-curvature="0" style="fill:#3b3f51;stroke-width:0.81933004"></path><path d="m 192.172,66.971 c 0,-3.686 2.137,-5.608 5.377,-5.608 3.238,0 5.373,1.922 5.373,5.608 V 92.47 l 11.927,-13.823 c 1.105,-1.231 2.502,-2.151 4.125,-2.151 2.432,0 5.079,2.226 5.079,5.068 0,1.997 -0.663,2.611 -1.62,3.687 l -7.95,8.681 11.193,15.665 c 0.362,0.539 1.102,1.766 1.102,3.612 0,2.839 -2.211,5.453 -5.083,5.453 -2.647,0 -4.048,-1.382 -4.856,-2.613 l -10.162,-14.977 -3.756,3.459 v 8.523 c 0,3.687 -2.135,5.608 -5.373,5.608 -3.24,0 -5.377,-1.922 -5.377,-5.608 V 66.971 Z" id="path8" inkscape:connector-curvature="0" style="fill:#3b3f51;stroke-width:0.81933004"></path><path d="m 229.862,82.1 c 0,-3.38 1.914,-5.608 5.082,-5.608 3.169,0 5.083,2.228 5.083,5.608 v 1.461 h 0.145 c 2.796,-4.455 7.508,-7.069 12.961,-7.069 3.683,0 8.319,1.767 10.305,7.069 3.022,-4.378 6.848,-7.069 12.667,-7.069 7.434,0 13.398,3.534 13.398,13.595 v 22.965 c 0,2.998 -1.179,5.612 -5.376,5.612 -4.197,0 -5.373,-2.613 -5.373,-5.612 V 92.929 c 0,-3.992 -1.694,-7.22 -5.888,-7.22 -4.125,0 -7.807,3.457 -7.807,8.681 v 18.662 c 0,2.998 -1.177,5.612 -5.373,5.612 -4.194,0 -5.373,-2.613 -5.373,-5.612 V 92.929 c 0,-3.992 -1.697,-7.22 -5.893,-7.22 -4.12,0 -7.802,3.457 -7.802,8.681 v 18.662 c 0,2.998 -1.177,5.612 -5.377,5.612 -4.199,0 -5.376,-2.613 -5.376,-5.612 V 82.1 Z" id="path10" inkscape:connector-curvature="0" style="fill:#3b3f51;stroke-width:0.81933004"></path><path d="m 324.17,93.237 c -0.588,-5.146 -4.271,-8.907 -9.056,-8.907 -5.377,0 -8.617,3.454 -9.793,8.907 z m -18.849,6.451 c 0,5.915 3.683,10.215 9.938,10.215 8.099,0 8.099,-5.531 12.444,-5.531 2.579,0 4.416,2.304 4.416,4.378 0,6.764 -10.382,9.908 -16.861,9.908 -15.017,0 -20.685,-10.6 -20.685,-20.353 0,-13.056 7.579,-21.814 20.319,-21.814 12.37,0 19.44,9.139 19.44,18.357 0,3.841 -1.107,4.839 -4.715,4.839 h -24.296 z" id="path12" inkscape:connector-curvature="0" style="fill:#3b3f51;stroke-width:0.81933004"></path><path d="m 339.405,82.1 c 0,-3.38 1.475,-5.608 4.859,-5.608 3.387,0 4.859,2.228 4.859,5.608 v 1.461 h 0.149 c 3.019,-4.149 6.921,-7.069 13.032,-7.069 6.479,0 13.549,3.382 13.549,14.747 v 21.812 c 0,2.998 -1.179,5.612 -5.376,5.612 -4.197,0 -5.377,-2.613 -5.377,-5.612 V 93.469 c 0,-4.532 -2.134,-7.761 -6.773,-7.761 -3.753,0 -8.172,3.228 -8.172,8.832 v 18.511 c 0,2.998 -1.177,5.612 -5.373,5.612 -4.2,0 -5.377,-2.613 -5.377,-5.612 z" id="path14" inkscape:connector-curvature="0" style="fill:#3b3f51;stroke-width:0.81933004"></path><path d="m 385.341,84.868 h -1.84 c -3.02,0 -4.271,-1.227 -4.271,-3.686 0,-2.461 1.251,-3.689 4.271,-3.689 h 1.84 v -6.835 c 0,-3.687 2.137,-5.606 5.376,-5.606 3.243,0 5.374,1.919 5.374,5.606 v 6.835 h 3.24 c 3.165,0 4.862,0.999 4.862,3.689 0,2.688 -1.697,3.686 -4.862,3.686 h -3.24 v 22.423 c 0,1.69 0.883,2.611 2.797,2.611 h 1.545 c 2.357,0 3.76,1.382 3.76,3.766 0,3.228 -2.651,4.992 -7.807,4.992 -7.805,0 -11.044,-3.38 -11.044,-9.986 V 84.868 Z" id="path16" inkscape:connector-curvature="0" style="fill:#3b3f51;stroke-width:0.81933004"></path><path d="m 432.9,98.766 c -1.177,1.156 -3.387,1.54 -4.639,1.77 l -3.9,0.614 c -4.493,0.688 -6.922,2.149 -6.922,5.528 0,2.533 2.283,4.607 5.963,4.607 5.887,0 9.498,-3.993 9.498,-8.138 z m 10.751,8.063 c 0,4.684 1.102,5.766 1.102,7.527 0,2.536 -2.279,4.306 -4.858,4.306 -4.637,0 -6.182,-3.073 -6.334,-6.535 -4.194,4.839 -9.053,6.535 -14.723,6.535 -6.11,0 -12.146,-4.383 -12.146,-11.45 0,-9.291 6.769,-11.902 15.017,-12.903 l 6.554,-0.765 c 2.577,-0.307 4.639,-0.924 4.639,-4.151 0,-3.224 -3.165,-4.604 -6.773,-4.604 -7.953,0 -8.172,6.142 -12.447,6.142 -2.722,0 -4.561,-1.997 -4.561,-4.298 0,-4.454 6.036,-10.143 17.08,-10.143 10.31,0 17.452,3.462 17.452,11.525 v 18.814 z" id="path18" inkscape:connector-curvature="0" style="fill:#3b3f51;stroke-width:0.81933004"></path></g><path d="M 47.097297,15.57052 C 32.111883,15.6523 20.969853,26.736961 21.025997,41.503904 21.080917,55.410389 32.764856,66.731834 46.987452,66.657383 61.163668,66.582932 72.819533,55.090615 72.768272,41.241494 72.714569,26.891965 61.316232,15.492408 47.097297,15.57052" id="head" inkscape:connector-curvature="0" style="fill:#3ab5a7;stroke-width:1"></path><path d="m 23.108186,107.35528 c 0,0 2.056558,-2.44469 5.254292,0 3.200176,2.44467 9.825101,8.55699 9.825101,8.55699 0,0 2.398301,2.33361 0,4.77707 -2.399521,2.44468 -26.276347,23.78161 -26.276347,23.78161 0,0 -1.141176,1.22295 -2.7412634,0.77747 -1.5988673,-0.44427 -2.170066,-1.55616 -2.170066,-2.66682 v -19.0021 c 0,0 0,-1.66721 1.1436175,-2.66681 1.1411763,-0.9996 14.9646659,-13.55741 14.9646659,-13.55741" id="leftLeg" inkscape:connector-curvature="0" style="fill:#3ab5a7;stroke-width:1"></path><path style="fill:#3ab5a7;stroke-width:1" inkscape:connector-curvature="0" id="rightArm" d="m 82.929013,96.619668 c 0,0 3.214822,0.440603 3.862912,-3.465027 L 86.679638,80.384452 c 0,0 0.136697,-3.296596 -3.33077,-3.511406 -3.466247,-0.21603 -34.175484,-0.155005 -34.175484,-0.155005 0,0 -1.691626,-0.14524 -2.558187,1.236376 -0.866562,1.381617 -0.511394,2.575275 0.262409,3.391796 0.775024,0.817741 15.527321,13.96873 15.527321,13.96873 0,0 1.163145,1.225391 2.699767,1.207084 1.537841,-0.01709 17.824319,0.09764 17.824319,0.09764"></path><path d="m 80.913952,146.35908 c 0,0 2.239634,2.00896 3.770153,1.44386 2.10782,-0.77746 2.10782,-3.22214 2.10782,-3.22214 v -17.66932 c 0,-2.6668 -1.423114,-3.55533 -1.423114,-3.55533 L 37.046402,80.241652 c 0,0 -2.473971,-3.153797 -5.941439,-3.368606 -3.467467,-0.21481 -21.042802,-0.153785 -21.042802,-0.153785 0,0 -1.6916265,-0.14524 -2.5569672,1.236377 -0.8665617,1.381617 -0.5113936,2.575275 0.2624088,3.391796 z" id="armLeg" inkscape:connector-curvature="0" style="fill:#3ab5a7;stroke-width:1">
 </path></svg>