<svg width="56" height="32" viewBox="0 0 56 32" fill="none" xmlns="http://www.w3.org/2000/svg">
<rect width="56" height="32" rx="10" fill="#101828"/>
<path fill-rule="evenodd" clip-rule="evenodd" d="M26.5059 20.533V15.8612H28.9939C30.0134 15.8612 30.8739 15.5301 31.5754 14.8772L31.7437 14.7117C33.0251 13.3598 32.9409 11.2538 31.5754 10.0031C30.8926 9.34094 29.9572 8.98228 28.9939 9.00067H25V20.533H26.5059ZM26.5059 14.4449V10.4169H29.0317C29.5743 10.4169 30.0888 10.6192 30.4723 10.987C31.2862 11.7595 31.3049 13.047 30.5191 13.8471C30.1356 14.2426 29.593 14.4633 29.0317 14.4449H26.5059Z" fill="white"/>
<path fill-rule="evenodd" clip-rule="evenodd" d="M38.7682 13.2586C38.1228 12.6792 37.2436 12.3849 36.1306 12.3849C34.6995 12.3849 33.6239 12.8999 32.9131 13.9207L34.2412 14.7392C34.7276 14.0403 35.3917 13.6908 36.2335 13.6908C36.7666 13.6908 37.281 13.8839 37.6832 14.2334C38.0761 14.5645 38.3005 15.0427 38.3005 15.5485V15.8888C37.7206 15.5761 36.9911 15.4105 36.0932 15.4105C35.0456 15.4105 34.2038 15.6497 33.5771 16.1371C32.9505 16.6245 32.6325 17.2682 32.6325 18.0867C32.6137 18.8316 32.9411 19.5397 33.521 20.018C34.1103 20.533 34.8585 20.7905 35.7377 20.7905C36.776 20.7905 37.599 20.3398 38.2257 19.4386H38.2912V20.533H39.7316V15.668C39.7316 14.6472 39.4136 13.838 38.7682 13.2586ZM34.6811 19.08C34.3724 18.8592 34.1853 18.5006 34.1853 18.1143C34.1853 17.6821 34.3911 17.3234 34.7934 17.0383C35.205 16.7533 35.7195 16.6061 36.3276 16.6061C37.1695 16.5969 37.8243 16.7808 38.2921 17.1487C38.2921 17.7741 38.0395 18.3166 37.5437 18.7765C37.0947 19.2179 36.4866 19.4662 35.8505 19.4662C35.4295 19.4754 35.0179 19.3375 34.6811 19.08Z" fill="white"/>
<path d="M42.9679 24L48 12.6424H46.3632L44.0342 18.3074H44.0061L41.6211 12.6424H39.9842L43.2859 20.0271L41.4153 24H42.9679Z" fill="white"/>
<path d="M21 14.6446C21 14.2023 20.9632 13.7599 20.8895 13.3266H14.6346V15.8272H18.218C18.0706 16.6307 17.5916 17.3529 16.8915 17.8042V19.4292H19.0287C20.2815 18.3008 21 16.6307 21 14.6446Z" fill="#4285F4"/>
<path d="M14.6349 21C16.422 21 17.9325 20.4222 19.0287 19.4292L16.8915 17.8042C16.2928 18.2015 15.5285 18.4272 14.6349 18.4272C12.9031 18.4272 11.4384 17.2807 10.9133 15.746H8.71173V17.4251C9.83557 19.6188 12.1293 21 14.6349 21Z" fill="#34A853"/>
<path d="M10.9133 15.746C10.637 14.9426 10.6373 14.0669 10.9137 13.2544V11.5843H8.71172C7.76276 13.4169 7.76276 15.5835 8.71172 17.4161L10.9133 15.746Z" fill="#FBBC04"/>
<path d="M14.6349 10.5732C15.5837 10.5552 16.4957 10.9072 17.1774 11.5482L19.075 9.68853C17.8683 8.58718 16.2838 7.98234 14.6349 8.00039C12.1293 8.00039 9.83556 9.39063 8.71172 11.5843L10.9133 13.2634C11.4384 11.7197 12.9031 10.5732 14.6349 10.5732Z" fill="#EA4335"/>
</svg>
