<svg width="56" height="32" viewBox="0 0 56 32" fill="none" xmlns="http://www.w3.org/2000/svg">
<rect width="56" height="32" rx="10" fill="#101828"/>
<path d="M28 22.85C26.4112 24.1907 24.3503 25 22.0983 25C17.0735 25 13 20.9706 13 16C13 11.0294 17.0735 7 22.0983 7C24.3503 7 26.4112 7.80934 28 9.15001C29.5887 7.80934 31.6496 7 33.9016 7C38.9265 7 42.9999 11.0294 42.9999 16C42.9999 20.9706 38.9265 25 33.9016 25C31.6496 25 29.5887 24.1907 28 22.85Z" fill="#ED0006"/>
<path d="M28 22.8499C29.9562 21.1992 31.1966 18.7429 31.1966 16C31.1966 13.2571 29.9562 10.8008 28 9.15005C29.5888 7.80935 31.6497 7 33.9017 7C38.9266 7 43 11.0294 43 16C43 20.9706 38.9266 25 33.9017 25C31.6497 25 29.5888 24.1906 28 22.8499Z" fill="#F9A000"/>
<path d="M28.0004 22.85C29.9566 21.1992 31.197 18.7429 31.197 16C31.197 13.2571 29.9566 10.8008 28.0004 9.15002C26.0441 10.8008 24.8037 13.2571 24.8037 16C24.8037 18.7429 26.0441 21.1992 28.0004 22.85Z" fill="#FF5E00"/>
</svg>
