<svg width="56" height="32" viewBox="0 0 56 32" fill="none" xmlns="http://www.w3.org/2000/svg">
<rect width="56" height="32" rx="10" fill="#FF3333"/>
<path fill-rule="evenodd" clip-rule="evenodd" d="M25.0452 12.749C23.948 12.8219 24.1148 13.4852 23.3776 13.9804C23.2088 14.093 23.0068 14.1458 22.8042 14.1304C22.6016 14.115 22.41 14.0321 22.2604 13.8952C22.1618 13.803 22.0846 13.6905 22.0343 13.5654C21.984 13.4404 21.9617 13.3059 21.9692 13.1714C21.9957 12.5366 22.9171 11.0081 25.1598 11.0081C28.0883 11.0081 28.6822 13.111 28.6822 14.6744C28.6822 16.2378 28.0032 18.2968 25.1598 18.2968C24.6929 18.2968 24.226 18.238 23.8864 18.0839V20.7663C23.8864 20.8884 23.8458 21 23.7129 21C21.8452 21 21.9781 19.3335 21.9781 19.3335V15.8014C21.9781 15.2219 22.8355 14.9579 23.3764 15.3134C24.1212 15.7975 23.948 16.4703 25.0465 16.5431C26.5883 16.5431 26.7863 15.3645 26.7863 14.6744C26.7863 13.9842 26.4314 12.749 25.0452 12.749ZM32.7181 12.749C34.103 12.749 34.458 13.9838 34.458 14.6744C34.458 15.365 34.26 16.5431 32.7181 16.5431C31.6197 16.4703 31.7924 15.7975 31.048 15.3134C30.5071 14.9579 29.6498 15.2219 29.6498 15.8014V19.3323C29.6498 19.3323 29.5168 20.9987 31.3845 20.9987C31.517 20.9987 31.5581 20.8872 31.5581 20.7649V18.0826C31.8976 18.2376 32.3645 18.2955 32.831 18.2955C35.6749 18.2955 36.3538 16.2365 36.3538 14.6731C36.3538 13.1097 35.7612 11.0081 32.8323 11.0081C30.5901 11.0081 29.6682 12.5366 29.6421 13.1714C29.6349 13.3053 29.6571 13.4392 29.7071 13.5638C29.7571 13.6883 29.8337 13.8005 29.9316 13.8927C30.0813 14.0296 30.2729 14.1125 30.4757 14.1279C30.6783 14.1433 30.8804 14.0905 31.0493 13.9778C31.7877 13.4843 31.6209 12.821 32.7194 12.7482L32.7181 12.749ZM48.8131 11.0792C48.5012 11.0378 48.1871 11.014 47.8725 11.0081C47.2195 11.0081 46.6277 11.1605 46.0659 11.5262L45.9846 11.3134C45.961 11.2457 45.9168 11.187 45.8584 11.1451C45.8 11.1033 45.73 11.0804 45.658 11.0796H44.8422C44.7801 11.0803 44.7208 11.1051 44.6769 11.1488C44.6331 11.1925 44.6081 11.2516 44.6074 11.3134V17.9702C44.6081 18.032 44.6331 18.0911 44.6769 18.1348C44.7208 18.1785 44.7801 18.2033 44.8422 18.204H46.2711C46.3332 18.2033 46.3925 18.1785 46.4364 18.1348C46.4803 18.0911 46.5052 18.032 46.5059 17.9702V13.3349C46.771 12.8879 47.2101 12.7559 47.6603 12.7559C47.8249 12.7587 47.9891 12.7713 48.1521 12.7938L48.2624 12.8065C48.3283 12.8183 48.3963 12.8064 48.4542 12.7729C48.5121 12.7395 48.5563 12.6867 48.5788 12.6239L48.997 11.3232C49.0171 11.2316 48.9354 11.0992 48.8131 11.0792ZM10.0799 12.749C11.4648 12.749 11.8197 13.9838 11.8197 14.6744C11.8197 15.365 11.6213 16.5431 10.0799 16.5431C8.9814 16.4703 9.15414 15.7975 8.40929 15.3134C7.86798 14.9596 7.01068 15.2219 7.01068 15.8014V19.3323C7.01068 19.3323 6.87813 20.9987 8.74581 20.9987C8.87835 20.9987 8.9194 20.8872 8.9194 20.7649V18.0826C9.2589 18.2376 9.72582 18.2955 10.1923 18.2955C13.0357 18.2968 13.7143 16.2369 13.7143 14.6744C13.7143 13.1118 13.1212 11.0081 10.1923 11.0081C7.95008 11.0081 7.02864 12.5366 7.00127 13.1714C6.99422 13.3054 7.01654 13.4393 7.06667 13.5639C7.1168 13.6884 7.19356 13.8006 7.2916 13.8927C7.44126 14.0296 7.6328 14.1124 7.83543 14.1278C8.03807 14.1433 8.24003 14.0904 8.40887 13.9778C9.14773 13.4852 8.98097 12.8219 10.0799 12.749ZM14.6742 14.6429C14.6742 13.1714 15.3759 11 18.0701 11C19.9578 11 20.999 12.2445 21.0093 14.074C21.0075 14.3565 20.9904 14.6386 20.958 14.9192C20.957 14.9515 20.9495 14.9832 20.936 15.0125C20.9225 15.0419 20.9032 15.0682 20.8793 15.09C20.8554 15.1118 20.8273 15.1286 20.7967 15.1394C20.7662 15.1502 20.7337 15.1548 20.7014 15.1529H16.5188C16.6308 15.9759 17.1516 16.5333 18.0701 16.5333C18.5904 16.5333 19.1416 16.3604 19.6414 16.0351C19.6666 16.0157 19.6955 16.0015 19.7263 15.9935C19.7571 15.9855 19.7893 15.9838 19.8208 15.9885C19.8523 15.9932 19.8825 16.0043 19.9096 16.021C19.9367 16.0378 19.9601 16.0598 19.9783 16.0858L20.6317 16.9701C20.6696 17.025 20.6853 17.0919 20.6758 17.1578C20.6663 17.2237 20.6322 17.2836 20.5804 17.3256C19.7949 17.9353 19.0291 18.2968 18.0701 18.2968C15.3759 18.2968 14.6742 16.1573 14.6742 14.6429ZM16.5697 13.8603C16.7835 13.2102 17.2739 12.7184 18.0701 12.7184C18.8863 12.7388 19.0907 13.2813 19.1006 13.8603H16.5697ZM37.3142 14.6616C37.3142 13.188 38.0159 11.0183 40.7101 11.0183C42.5982 11.0183 43.639 12.2633 43.6492 14.0923C43.6474 14.3681 43.6304 14.6436 43.5983 14.9175C43.5974 14.9498 43.5899 14.9815 43.5764 15.0108C43.5629 15.0402 43.5436 15.0665 43.5197 15.0883C43.4958 15.1101 43.4677 15.1269 43.4371 15.1377C43.4066 15.1485 43.3742 15.1531 43.3418 15.1512H39.1588C39.2712 15.9742 39.7916 16.5516 40.7101 16.5516C41.2304 16.5516 41.7815 16.3787 42.2818 16.0539C42.307 16.0344 42.3358 16.0202 42.3666 16.0122C42.3974 16.0042 42.4295 16.0025 42.461 16.0073C42.4925 16.012 42.5227 16.0231 42.5497 16.0398C42.5768 16.0565 42.6001 16.0785 42.6183 16.1045L43.2717 16.9884C43.3096 17.0433 43.3253 17.1103 43.3159 17.1763C43.3065 17.2422 43.2725 17.3022 43.2208 17.3443C42.4349 17.954 41.6695 18.3151 40.7101 18.3151C38.0159 18.3168 37.3142 16.1773 37.3142 14.6616ZM39.2096 13.879C39.4234 13.2285 39.9139 12.7371 40.7101 12.7371C41.5263 12.7576 41.7307 13.2996 41.7409 13.879H39.2096Z" fill="white"/>
</svg>
