<svg width="56" height="32" viewBox="0 0 56 32" fill="none" xmlns="http://www.w3.org/2000/svg">
<rect width="56" height="32" rx="10" fill="#00579F"/>
<path d="M33.5559 10C34.684 10 35.5964 10.2595 36.1716 10.4946L35.775 13.003L35.5112 12.8796C34.9835 12.6447 34.2869 12.41 33.3389 12.4348C32.1875 12.4348 31.6711 12.9412 31.6592 13.4356C31.6592 13.9794 32.2838 14.3378 33.3038 14.8693C34.984 15.6973 35.7633 16.7105 35.7517 18.0329C35.7281 20.4428 33.736 22 30.676 22C29.3677 21.9875 28.1076 21.7027 27.4236 21.3818L27.8317 18.7742L28.2157 18.9598C29.1638 19.3927 29.7876 19.5777 30.9519 19.5777C31.7915 19.5777 32.6917 19.2189 32.7032 18.4407C32.7032 17.934 32.3197 17.563 31.1914 16.9945C30.0876 16.4382 28.6117 15.5115 28.6356 13.8431C28.648 11.5817 30.676 10 33.5559 10Z" fill="white"/>
<path d="M22.6836 21.8269H25.5999L27.4238 10.2106H24.5077L22.6836 21.8269Z" fill="white"/>
<path fill-rule="evenodd" clip-rule="evenodd" d="M43.6472 10.2106H41.3915C40.6959 10.2106 40.1674 10.4205 39.8673 11.1744L35.5356 21.8267H38.5955C38.5955 21.8267 39.0993 20.393 39.2076 20.0842H42.9518C43.0355 20.492 43.2997 21.8267 43.2997 21.8267H45.9999L43.6472 10.2106ZM40.0475 17.7116C40.2877 17.0443 41.2118 14.4615 41.2118 14.4615C41.2069 14.4715 41.245 14.3626 41.3018 14.2006C41.3855 13.9616 41.5096 13.6071 41.5955 13.3494L41.7993 14.3503C41.7993 14.3503 42.3515 17.1309 42.4714 17.7116H40.0475Z" fill="white"/>
<path d="M17.3919 18.1318L20.2478 10.2106H23.3315L18.7477 21.8146H15.6638L13.0479 11.6561C14.8958 12.6575 16.5518 14.6716 17.0798 16.5253L17.3919 18.1318Z" fill="white"/>
<path d="M14.74 10.2106H10.048L10 10.4453C13.66 11.4093 16.084 13.7329 17.0799 16.5258L16.0599 11.187C15.892 10.4451 15.3759 10.235 14.74 10.2106Z" fill="#FAA61A"/>
</svg>
