<svg width="196" height="230" viewBox="0 0 196 230" fill="none" xmlns="http://www.w3.org/2000/svg">
<path d="M68.1998 94.4027C67.813 96.9952 69.8066 99.7665 72.5144 99.7367C74.1807 99.7069 75.6387 98.7235 76.3826 97.2336C76.8587 96.28 77.2753 94.1643 76.2636 93.3895C75.4007 92.734 74.0914 92.734 73.05 92.6446C72.3061 92.585 71.5324 92.585 70.7885 92.6744C70.1042 92.7638 69.3008 92.8532 68.7057 93.2107C68.3188 93.4491 68.2593 93.9855 68.1998 94.4027Z" fill="#CBD2E0"/>
<path d="M69.6876 96.0119C70.9968 95.416 72.4548 95.1776 73.8831 95.2968C75.0138 95.3862 76.4123 96.1013 76.1148 97.4721C75.8767 98.4852 74.746 99.26 73.7938 99.5282C72.3358 99.9454 70.7588 99.5282 69.5983 98.6044C69.1817 98.2766 68.7056 97.8297 68.5271 97.2933C68.3486 96.6973 68.9437 96.3993 69.4198 96.1609C69.4793 96.1311 69.5983 96.0715 69.6876 96.0119Z" fill="#EDF0F7"/>
<path d="M127.8 94.4027C128.187 96.9952 126.193 99.7665 123.486 99.7367C121.819 99.7069 120.361 98.7235 119.617 97.2336C119.141 96.28 118.725 94.1643 119.736 93.3895C120.599 92.734 121.909 92.734 122.95 92.6446C123.694 92.585 124.468 92.585 125.211 92.6744C125.896 92.7638 126.699 92.8532 127.294 93.2107C127.681 93.4491 127.741 93.9855 127.8 94.4027Z" fill="#CBD2E0"/>
<path d="M126.342 96.0119C125.033 95.416 123.575 95.1776 122.147 95.2968C121.016 95.3862 119.617 96.1013 119.915 97.4721C120.153 98.4852 121.284 99.26 122.236 99.5282C123.694 99.9454 125.271 99.5282 126.431 98.6044C126.848 98.2766 127.324 97.8297 127.503 97.2933C127.681 96.6973 127.086 96.3993 126.61 96.1609C126.521 96.1311 126.431 96.0715 126.342 96.0119Z" fill="#EDF0F7"/>
<path d="M94.6525 128.701C94.0276 128.075 93.135 127.807 92.2423 127.777C91.8852 127.748 89.6238 127.718 89.8916 128.344C89.9511 128.463 90.0702 128.582 90.1892 128.642C91.2604 129.297 92.5696 129.029 93.7301 129.416C94.4442 129.655 95.0691 130.042 95.6047 130.549C95.4857 129.595 95.0096 129.059 94.6525 128.701Z" fill="#717D96"/>
<path d="M92.8374 119.076C92.5399 121.52 91.6174 124.231 93.3433 126.347C92.7779 126.019 92.3613 125.453 92.0935 124.827C91.3496 122.92 92.034 120.834 92.8374 119.076Z" fill="#717D96"/>
<path d="M59.7789 94.1941C61.1775 92.4062 63.1116 91.0354 65.2242 90.2905C66.2954 89.9329 67.4261 89.7243 68.5271 89.5455C70.1934 89.3071 71.8895 89.1283 73.5855 89.2177C75.847 89.3965 78.1381 89.9925 80.0425 91.2738C81.4708 92.1976 82.6907 93.3895 83.8512 94.6113C82.0064 93.3895 80.2508 92.0188 78.2274 91.1546C77.2455 90.7076 76.204 90.3799 75.1328 90.1117C72.9904 89.6349 70.7588 89.3369 68.5866 89.7839C67.2178 90.0521 65.9681 90.6182 64.7184 91.1844C64.0042 91.5122 63.2306 91.9294 62.5462 92.3168C61.594 92.8829 60.7014 93.5385 59.8385 94.2239L59.7789 94.1941Z" fill="#717D96"/>
<path d="M88.6121 120.715C87.7492 122.562 87.0648 124.589 87.3624 126.645C87.4814 127.42 87.6599 128.224 88.2253 128.79C88.4931 129.059 88.8799 129.208 89.3263 129.237C88.9097 129.357 88.4336 129.327 88.017 129.088C87.2136 128.582 86.8863 127.628 86.7078 126.764C86.2614 124.589 87.0946 122.265 88.6121 120.715Z" fill="#717D96"/>
<path d="M96.2891 131.085C97.4198 131.592 98.729 131.562 99.83 130.996C98.9968 132.039 97.1817 132.098 96.2891 131.085Z" fill="#717D96"/>
<path d="M81.6493 87.0722C76.9777 85.8802 72.4846 84.0625 67.9022 82.6917C65.6408 82.0362 63.2604 81.4402 60.9394 82.066C58.6185 82.6917 56.6249 84.1519 54.7205 85.5822L54.1254 86.0292C54.7503 85.1352 55.4346 84.3009 56.1488 83.4963C56.6844 82.8705 57.2795 82.2745 57.8448 81.6786C59.0053 80.4866 60.2253 79.3245 61.6536 78.4603C63.1711 77.4471 64.7184 77.0896 66.5632 77.3279C69.0329 77.6557 71.4431 78.3411 73.8236 79.0563C75.1924 79.4735 77.1562 80.129 78.525 80.4866C80.102 80.9038 81.7386 81.172 83.3156 81.5892C84.1488 81.768 85.0117 82.1255 85.5473 82.8109C86.3507 83.7943 86.797 84.9862 87.0648 86.2378C87.1243 86.655 87.1541 87.0722 87.0648 87.4893C87.1243 87.0722 87.0648 86.655 86.9756 86.2676C86.6185 85.1352 86.0829 83.9433 85.2795 83.0791C84.7141 82.4533 84.0298 82.2149 83.2264 82.0958C82.423 81.9468 81.6196 81.7978 80.8162 81.6488C79.1796 81.3806 77.543 81.023 75.966 80.5164C74.5675 80.0992 72.6334 79.5033 71.2349 79.1457C70.4315 78.9371 69.6578 78.7285 68.8544 78.5199C67.3071 78.1623 65.7003 77.7749 64.1233 78.0729C63.3794 78.2219 62.6355 78.5795 61.9511 78.9669C60.5228 79.7714 59.3029 80.8442 58.1126 81.9468C56.9224 83.0493 55.7322 84.2413 54.7503 85.5226L54.6015 85.3736C55.0776 85.016 55.5834 84.6584 56.0595 84.3009C58.6185 82.4831 61.237 80.9336 64.5101 81.2912C65.7301 81.3806 66.9501 81.6786 68.1105 82.0361C72.6929 83.4665 77.0967 85.4034 81.6493 87.0722Z" fill="#717D96"/>
<path d="M72.5144 97.7998C73.8455 97.7998 74.9246 96.7192 74.9246 95.3861C74.9246 94.0531 73.8455 92.9724 72.5144 92.9724C71.1832 92.9724 70.1042 94.0531 70.1042 95.3861C70.1042 96.7192 71.1832 97.7998 72.5144 97.7998Z" fill="#717D96"/>
<path d="M72.5143 99.7665C70.2232 99.7963 68.0213 98.1573 67.932 95.7436C67.9022 94.8497 68.051 93.5683 68.8247 92.9723C69.4198 92.585 70.1934 92.6148 70.848 92.585C71.3836 92.5552 71.9192 92.5254 72.4846 92.4956C73.7343 92.4658 75.0138 92.5254 76.204 92.9127C77.1265 93.3001 77.186 94.4623 77.2157 95.3264C77.186 97.9487 75.0138 99.7963 72.5143 99.7665ZM72.5143 99.7069C74.6568 99.7367 76.4421 97.7699 76.5611 95.684C76.5909 94.9987 76.5909 94.1047 76.204 93.5683C75.8767 93.2703 75.2816 93.2107 74.8353 93.1213C74.0319 92.9425 73.2582 92.8531 72.4548 92.7935C71.4134 92.7637 70.2529 92.6744 69.2412 92.9723C68.2295 93.3299 68.2891 94.8199 68.3783 95.7138C68.5866 97.7699 70.3422 99.7367 72.5143 99.7069Z" fill="#717D96"/>
<path d="M98.0149 177.392C93.0755 177.512 89.4453 176.439 84.9819 174.502C76.7396 171.015 69.4793 165.383 63.4687 158.828C59.5409 154.507 55.9703 149.709 53.7386 144.226C52.5484 141.366 51.9532 138.267 51.3581 135.287C50.2869 129.863 48.9182 124.47 47.4006 119.136C47.1328 118.063 46.9246 116.96 46.6865 115.858C46.508 115.083 46.3294 114.159 46.2104 113.385C45.8831 110.911 45.7046 108.378 45.6153 105.905C45.4963 102.568 45.526 99.2301 45.526 95.8926C45.6153 98.3361 45.8236 103.521 46.0021 105.875C46.1509 108.349 46.4187 110.852 46.7758 113.295C46.9543 114.368 47.0733 115.5 47.2816 116.573C47.5792 117.914 47.9362 119.255 48.3826 120.566C49.9894 125.304 51.5069 130.102 52.5781 134.989C53.4708 139.339 54.3634 143.6 56.2976 147.594C60.9394 157.755 70.1339 164.907 79.6259 170.3C81.5303 171.403 83.4644 172.446 85.4283 173.429C87.3624 174.353 89.4453 175.336 91.4984 175.902C93.6111 176.528 95.7832 176.856 97.9851 176.975L98.0149 177.392Z" fill="#717D96"/>
<path d="M71.2944 94.6707C71.2944 94.9985 71.1158 95.2369 70.5505 95.2369C69.9851 95.2369 69.5388 94.9687 69.5388 94.6707C69.5388 94.343 69.9851 94.1046 70.5505 94.1046C71.1158 94.1046 71.2944 94.343 71.2944 94.6707Z" fill="white"/>
<path d="M74.6865 96.8171C74.6865 97.026 74.5972 97.1752 74.2699 97.1752C73.9426 97.1752 73.7938 96.9962 73.7938 96.8171C73.7938 96.6081 73.9426 96.4589 74.2699 96.4589C74.5972 96.4589 74.6865 96.638 74.6865 96.8171Z" fill="white"/>
<path d="M101.377 128.701C102.002 128.075 102.895 127.807 103.787 127.777C104.145 127.748 106.406 127.718 106.138 128.344C106.079 128.463 105.96 128.582 105.841 128.642C104.769 129.297 103.46 129.029 102.3 129.416C101.586 129.655 100.961 130.042 100.425 130.549C100.544 129.595 101.02 129.059 101.377 128.701Z" fill="#717D96"/>
<path d="M97.9851 177.005C100.187 176.886 102.359 176.558 104.472 175.932C106.584 175.336 108.578 174.412 110.542 173.459C112.506 172.476 114.44 171.433 116.374 170.33C125.866 164.936 135.061 157.815 139.702 147.623C141.637 143.601 142.529 139.369 143.422 135.018C144.553 129.565 146.427 124.291 148.123 118.987C148.421 117.914 148.718 116.841 148.867 115.768C149.373 112.491 149.819 109.183 149.998 105.875C150.206 103.462 150.355 98.3361 150.474 95.8926C150.474 98.1275 150.504 100.333 150.474 102.568C150.444 106.173 150.266 109.809 149.79 113.414C149.611 114.785 149.254 116.156 148.986 117.527C148.659 119.165 148.183 120.804 147.736 122.384C146.546 126.645 145.564 130.966 144.672 135.316C144.225 137.492 143.838 139.697 143.154 141.842C142.827 142.915 142.41 143.988 141.964 145.031C137.233 155.55 126.937 165.741 117.029 171.522C115.095 172.654 113.071 173.638 111.018 174.532C107.923 175.873 104.71 177.035 101.348 177.303C100.217 177.422 99.1158 177.422 97.9851 177.422V177.005Z" fill="#717D96"/>
<path d="M114.38 87.0721C118.933 85.4331 123.337 83.4664 127.949 82.0659C129.109 81.7083 130.3 81.4401 131.549 81.3209C134.823 80.9633 137.441 82.4831 140 84.3306C140.506 84.6882 140.982 85.0458 141.458 85.4033L141.309 85.5523C140.327 84.2412 139.167 83.079 137.947 81.9765C136.757 80.8441 135.537 79.8012 134.108 78.9966C133.424 78.5794 132.68 78.2516 131.936 78.1026C130.359 77.7749 128.752 78.192 127.205 78.5496C126.402 78.7284 125.628 78.937 124.825 79.1754C123.456 79.533 121.492 80.1587 120.094 80.5461C118.516 81.0527 116.88 81.4103 115.243 81.6785C114.44 81.8275 113.637 81.9765 112.833 82.1255C112.03 82.2447 111.316 82.5129 110.78 83.1088C109.977 83.973 109.441 85.165 109.084 86.2973C108.995 86.6847 108.935 87.1019 108.995 87.5191C108.905 87.1019 108.905 86.6847 108.995 86.2675C109.262 85.0458 109.709 83.8538 110.512 82.8406C111.048 82.1553 111.911 81.7679 112.744 81.6189C114.351 81.2315 115.957 80.9335 117.535 80.5163C118.903 80.1588 120.867 79.5032 122.236 79.086C124.616 78.4006 127.027 77.7153 129.496 77.3577C131.311 77.1193 132.859 77.4769 134.406 78.49C135.834 79.3542 137.054 80.5163 138.215 81.7083C138.81 82.2745 139.375 82.9002 139.911 83.526C140.625 84.3306 141.309 85.1947 141.934 86.0589L141.339 85.6119C138.512 83.4366 135.358 81.3209 131.639 81.9467C130.478 82.0957 129.318 82.3937 128.187 82.7513C123.545 84.0624 119.052 85.8801 114.38 87.0721Z" fill="#717D96"/>
<path d="M101.496 105.011C101.615 106.59 101.764 108.855 101.913 110.464C102.002 112.282 102.24 114.1 102.627 115.888C102.835 116.782 103.014 117.675 103.252 118.54C103.877 120.685 104.769 123.218 103.549 125.334C103.311 125.751 102.984 126.109 102.627 126.377L102.597 126.347C104.561 124.172 103.311 121.192 102.776 118.659C102.359 116.871 102.329 115.023 102.002 113.206C101.853 112.312 101.586 111.418 101.467 110.494C101.199 108.676 101.199 106.829 101.496 105.011Z" fill="#717D96"/>
<path d="M106.257 90.4394C103.936 92.7041 102.984 95.9522 102.24 99.0214C101.972 100.064 101.764 101.107 101.526 102.15C101.556 101.882 101.586 101.614 101.615 101.346C102.062 97.5315 103.073 92.8531 106.257 90.4394Z" fill="#717D96"/>
<path d="M78.3762 142.379C82.4825 146.014 88.1955 143.988 93.1052 144.941C94.8013 145.269 96.4378 145.746 98.0149 145.716V146.819C97.0925 146.789 96.2295 146.61 95.3964 146.402C94.5632 146.193 93.7598 145.955 92.9564 145.746C91.3496 145.359 89.6833 145.269 87.9872 145.239C84.6249 145.12 80.8459 144.882 78.3762 142.379Z" fill="#717D96"/>
<path d="M81.8874 141.306C85.339 140.65 88.4931 139.071 91.915 138.266C92.5994 138.117 93.3433 138.058 94.0872 138.117C94.9203 138.207 95.6642 138.475 96.4379 138.743C96.6759 138.833 96.9735 138.952 97.1817 139.071C97.4793 139.22 97.8066 139.339 98.0149 139.339V140.054C97.3305 140.025 96.9437 139.697 96.4081 139.458C93.8491 138.326 92.5994 138.475 89.9809 139.19C87.3029 139.905 84.6546 140.889 81.8874 141.306Z" fill="#717D96"/>
<path d="M85.458 151.587C87.6302 153.345 90.2784 154.417 93.016 154.596C94.6525 154.715 96.3486 154.805 97.9851 154.745V155.848C96.2891 155.788 94.6227 155.58 92.9267 155.311C90.1297 154.894 87.4517 153.523 85.458 151.587Z" fill="#717D96"/>
<path d="M110.512 151.587C108.519 153.523 105.841 154.864 103.044 155.282C101.377 155.55 99.7109 155.758 97.9851 155.818V154.715C99.6217 154.775 101.318 154.686 102.954 154.566C105.722 154.417 108.34 153.345 110.512 151.587Z" fill="#717D96"/>
<path d="M65.6408 92.3764C64.153 92.883 63.0818 93.33 61.6238 93.8067C60.3443 94.2239 59.0053 94.4325 57.6663 94.4027C58.9161 95.5053 61.1775 96.429 61.4453 96.429C61.6238 96.2503 61.9214 95.9821 62.1892 95.8331C64.6886 94.4921 67.2476 93.0022 70.0744 92.6446C73.1987 92.2572 78.2274 93.8961 81.084 95.3265C78.1382 92.9724 75.6982 92.4062 73.3773 91.9294C71.0563 91.4526 67.9022 91.6016 65.6408 92.3764Z" fill="#717D96"/>
<path d="M130.359 92.3764C131.847 92.883 132.918 93.33 134.376 93.8067C135.656 94.2239 136.995 94.4325 138.334 94.4027C137.084 95.5053 134.852 96.3992 134.585 96.3694C134.257 96.3396 134.079 95.9821 133.811 95.8331C131.311 94.4921 128.752 93.0022 125.926 92.6446C122.801 92.2572 117.773 93.8961 114.916 95.3265C117.862 92.9724 120.302 92.4062 122.623 91.9294C124.973 91.4526 128.128 91.6016 130.359 92.3764Z" fill="#717D96"/>
<path d="M78.525 141.783C78.2274 141.902 78.1382 142.289 78.3762 142.557C79.2689 143.511 81.3518 144.256 82.4527 144.375C80.6972 143.928 80.2508 142.975 79.3879 142.17C79.1796 141.961 78.8821 141.663 78.525 141.783C78.5547 141.783 78.5547 141.783 78.525 141.783Z" fill="#717D96"/>
<path d="M117.654 142.379C115.184 144.882 111.405 145.12 108.072 145.21C106.376 145.269 104.71 145.329 103.103 145.716C102.3 145.925 101.496 146.163 100.663 146.372C99.83 146.58 98.9373 146.759 98.0446 146.789V145.686C99.6217 145.746 101.258 145.239 102.954 144.912C107.834 143.988 113.547 146.014 117.654 142.379Z" fill="#717D96"/>
<path d="M114.142 141.306C111.375 140.889 108.727 139.905 106.049 139.19C103.401 138.475 102.151 138.326 99.6217 139.458C99.0861 139.697 98.6993 139.995 98.0149 140.054V139.339C98.4017 139.339 98.9373 139.041 99.3539 138.862C102.062 137.79 103.43 137.998 106.138 138.862C108.816 139.697 111.375 140.77 114.142 141.306Z" fill="#717D96"/>
<path d="M117.475 141.783C117.773 141.902 117.862 142.289 117.624 142.557C116.731 143.511 114.648 144.256 113.547 144.375C115.303 143.928 115.749 142.975 116.612 142.17C116.85 141.961 117.148 141.663 117.475 141.783Z" fill="#717D96"/>
<path d="M45.5856 97.4719C44.3358 95.7137 42.6695 94.194 40.6461 93.4192C39.813 93.1212 38.6227 93.0021 37.9681 93.6278C37.3433 94.2834 37.5515 95.5647 37.5218 96.4587C37.5515 98.6638 37.7301 100.869 38.1467 103.014C38.7715 106.292 39.8725 109.451 40.6164 112.699C40.8544 113.802 41.0627 114.874 41.271 115.977C42.2529 121.192 43.5324 126.973 48.0255 130.31C48.5909 130.698 50.2869 131.949 50.7928 131.204L50.882 131.264C50.3762 132.277 48.3826 131.144 47.6982 130.787C45.7046 129.655 44.1573 127.837 43.0266 125.87C41.3305 122.92 40.7056 119.463 40.1998 116.186C39.5749 111.775 38.7715 107.454 37.7301 103.134C37.1647 100.72 36.5399 98.2168 36.5101 95.6839C36.4208 94.3728 36.7184 92.9126 38.1467 92.4657C41.2412 91.6015 44.4846 94.9092 45.5856 97.4719Z" fill="#717D96"/>
<path d="M39.6344 104.862C39.1881 103.551 38.8608 102.15 38.6525 100.779C38.474 99.8557 38.2954 98.9319 38.3847 97.9486C38.4144 97.6506 38.4144 97.442 38.5632 97.1738C38.95 96.5778 39.7534 97.0248 40.1403 97.3824C43.2944 100.452 45.9426 104.564 46.0616 109.093H46.0021C45.5855 107.276 44.9607 105.547 44.1275 103.938C42.9373 101.733 41.5388 99.5875 39.813 97.7996C39.6344 97.6506 39.1881 97.2632 39.0096 97.442C38.8013 98.038 38.831 98.7233 38.8608 99.3491C39.0096 101.197 39.1881 103.044 39.6344 104.862Z" fill="#717D96"/>
<path d="M41.8066 105.398C43.0266 106.59 44.068 108.021 44.5739 109.69C45.0202 111.358 44.7822 113.116 44.7226 114.815C44.6929 115.5 44.5441 116.573 44.7524 117.229C44.9607 117.944 45.4665 118.57 46.0319 119.106C47.1924 120.238 48.7396 121.49 48.9777 123.218L48.9182 123.248C48.2338 121.669 46.746 120.804 45.526 119.672C42.0744 116.454 46.0616 114.338 44.0383 109.868C43.4134 108.319 42.5802 106.888 41.8066 105.398Z" fill="#717D96"/>
<path d="M150.474 97.3229C151.515 94.8794 154.134 92.2273 156.931 92.2571C158.954 92.3763 159.49 93.9854 159.341 95.7435C159.282 98.2764 158.657 100.75 158.091 103.163C157.05 107.454 156.247 111.775 155.622 116.156C155.116 119.434 154.491 122.86 152.795 125.811C151.396 128.254 149.314 130.459 146.606 131.413C146.13 131.621 145.267 131.77 144.999 131.174L145.088 131.115C145.594 131.86 147.32 130.549 147.855 130.221C148.718 129.595 149.492 128.82 150.147 127.986C153.598 123.635 154.104 117.944 155.265 112.699C156.009 109.451 157.109 106.322 157.734 103.044C158.151 100.869 158.329 98.6638 158.389 96.5183C158.359 95.1774 158.716 93.2404 156.871 93.1212C155.889 93.0319 154.848 93.449 153.985 93.9556C152.587 94.8198 151.426 95.9819 150.474 97.3229Z" fill="#717D96"/>
<path d="M156.247 104.862C156.693 103.163 156.871 101.346 157.05 99.5875C157.109 98.8723 157.169 98.0976 156.901 97.442C156.752 97.3228 156.544 97.4718 156.366 97.591C155.86 97.9784 155.473 98.4849 155.027 98.9915C154.461 99.6769 153.896 100.362 153.39 101.077C151.783 103.193 150.623 105.517 150.087 108.17H150.028C150.028 106.382 150.474 104.534 151.337 102.925C152.259 101.107 153.688 99.5875 155.056 98.0976C155.532 97.591 156.633 96.3394 157.348 97.144C157.556 97.5016 157.526 97.8592 157.556 98.2466C157.586 99.1703 157.377 100.064 157.229 100.928C156.99 102.269 156.693 103.581 156.247 104.862Z" fill="#717D96"/>
<path d="M154.074 105.398C153.301 106.888 152.468 108.319 151.872 109.898C149.819 114.368 153.807 116.484 150.385 119.702C149.135 120.834 147.677 121.698 146.993 123.278L146.933 123.248C147.141 121.49 148.718 120.268 149.879 119.136C150.444 118.57 150.98 117.974 151.158 117.258C151.337 116.633 151.188 115.53 151.188 114.845C151.129 113.146 150.891 111.388 151.337 109.719C151.813 108.021 152.854 106.59 154.074 105.398Z" fill="#717D96"/>
<path d="M107.447 120.715C108.965 122.265 109.828 124.589 109.382 126.764C109.203 127.628 108.846 128.582 108.072 129.088C107.656 129.327 107.18 129.386 106.763 129.237C107.18 129.208 107.596 129.059 107.864 128.79C108.429 128.224 108.608 127.42 108.727 126.645C108.995 124.589 108.34 122.592 107.447 120.715Z" fill="#717D96"/>
<path d="M65.5516 160.347L65.0159 160.377C65.0457 164.877 65.1945 170.121 65.1052 174.561C65.0755 180.7 64.7779 184.467 64.1233 190.546C63.7365 193.556 63.3794 196.625 62.7545 199.605C62.0701 202.525 60.8502 205.327 59.1541 207.83C56.0298 212.508 51.4772 216.114 46.5675 218.796C38.2062 223.206 28.7141 224.964 19.4304 226.305C15.6217 226.841 4.8204 228.659 0 230C0.892667 229.821 1.81509 229.672 2.70776 229.553C6.36769 228.957 10.2657 228.331 13.9256 227.854C21.4538 226.841 28.9224 225.619 36.1828 223.414C43.4431 221.239 50.525 217.931 56.1488 212.717C58.9458 210.094 61.2965 206.906 62.814 203.36C64.3316 199.784 64.7481 195.94 65.254 192.126C65.3433 191.41 65.5218 190.01 65.5813 189.295C66.6227 178.895 66.2359 170.747 65.5516 160.347Z" fill="#717D96"/>
<path d="M130.448 160.347L130.984 160.377C130.954 164.877 130.806 170.121 130.895 174.561C130.925 180.7 131.222 184.467 131.877 190.546C132.264 193.556 132.621 196.625 133.245 199.605C133.93 202.525 135.15 205.327 136.846 207.83C139.97 212.508 144.523 216.114 149.433 218.796C157.794 223.206 167.286 224.964 176.57 226.305C180.378 226.841 191.18 228.659 196 230C195.107 229.821 194.185 229.672 193.292 229.553C189.632 228.957 185.734 228.331 182.074 227.854C174.546 226.841 167.078 225.619 159.817 223.414C152.557 221.239 145.475 217.931 139.851 212.717C137.054 210.094 134.704 206.906 133.186 203.36C131.668 199.784 131.252 195.94 130.746 192.126C130.657 191.41 130.478 190.01 130.419 189.295C129.407 178.895 129.764 170.747 130.448 160.347Z" fill="#717D96"/>
<path d="M81.0542 6.46635C67.7832 4.76782 60.2551 10.7276 52.4293 20.6506C46.8055 27.8619 43.4432 36.5631 41.5686 45.4432C38.1764 61.0279 38.6227 77.2087 40.6759 92.9424C40.6759 92.9722 40.6461 93.002 40.6164 93.002C39.5154 88.6216 38.9501 83.9432 38.474 79.384C37.1945 65.7361 38.1467 51.6413 42.6993 38.6192C45.4963 30.812 49.305 23.3027 54.5122 16.8065C57.9341 12.5453 62.2189 8.76086 67.4559 6.91333C70.729 5.75118 74.2699 5.42339 77.6918 5.75118C78.8225 5.87038 79.9533 6.04917 81.084 6.28756C81.1137 6.28756 81.1435 6.31736 81.1137 6.34716C81.1137 6.43655 81.084 6.46635 81.0542 6.46635Z" fill="#717D96"/>
<path d="M81.3815 25.7165C79.8937 30.4843 76.1445 34.1793 72.1573 37.0102C70.1934 38.3809 67.9617 39.6921 65.9384 40.9734C60.7609 44.1917 55.9702 48.0953 52.0127 52.7142C48.0553 57.333 44.9607 62.7564 43.8597 68.7757H43.8002C44.0382 66.3322 44.6631 63.9185 45.5558 61.5942C48.3528 54.6809 53.7088 49.1085 59.7194 44.8175C62.695 42.7018 65.9086 40.7946 68.8842 38.6789C71.8597 36.5632 74.8055 34.3879 77.305 31.706C78.9713 29.9479 80.3401 27.9216 81.322 25.6569L81.3815 25.7165Z" fill="#717D96"/>
<path d="M91.2306 34.0006C94.7418 36.1163 98.9373 36.2951 102.925 36.2355C110.006 36.3547 117.237 37.0997 123.872 39.7816C128.425 42.0761 132.71 44.9666 136.251 48.6318C148.004 60.5811 147.112 79.0266 153.807 93.4194C152.795 91.6613 151.932 89.8137 151.218 87.9066C149.075 82.215 147.826 76.2255 146.368 70.3253C144.939 64.4848 143.452 58.4356 139.911 53.4592C135.834 47.6783 129.853 43.5362 123.605 40.4074C120.837 39.3048 117.862 38.6194 114.916 38.0532C109.977 37.0997 104.918 36.8315 99.8895 36.6229C96.8544 36.4441 93.7598 35.7587 91.2306 34.0006Z" fill="#717D96"/>
<path d="M80.0723 30.7524C79.6557 35.7586 76.6801 40.4668 72.4251 43.1487C70.3124 44.4897 67.9915 45.473 65.7003 46.3968C63.4091 47.3504 61.1477 48.3039 59.0946 49.7045C60.0468 48.8999 61.0882 48.2145 62.1594 47.5888C65.6408 45.5922 69.509 44.3705 72.7821 42.0462C76.5611 39.3643 79.1201 35.2521 80.0723 30.7524Z" fill="#717D96"/>
<path d="M56.5356 54.6213C54.9288 56.4689 52.6376 59.0614 51.1498 60.9387C49.6323 62.7862 47.5197 65.5873 46.0616 67.5242C48.3528 62.7266 52.3103 57.8694 56.5356 54.6213Z" fill="#717D96"/>
<path d="M55.0181 60.73C54.7503 65.0211 51.3284 68.3287 48.6504 71.398C46.6568 73.6925 44.8119 76.3744 44.4549 79.4735C44.3358 80.4866 44.4549 81.5296 44.7822 82.5428C44.3061 81.619 44.068 80.5164 44.0978 79.4735C44.1871 76.2254 46.0617 73.3349 48.1148 70.951C50.7928 67.8222 54.1552 64.9317 55.0181 60.73Z" fill="#717D96"/>
<path d="M51.6557 72.8581C51.1499 78.4007 45.4963 81.5295 44.1275 86.7741C44.5144 81.2316 50.1679 78.0431 51.6557 72.8581Z" fill="#717D96"/>
<path d="M47.2519 84.7479C46.8055 87.1318 45.2285 89.3071 43.1158 90.499C44.9309 88.8899 46.3295 86.953 47.2519 84.7479Z" fill="#717D96"/>
<path d="M47.728 87.1616C47.1328 89.3369 45.3475 91.1845 43.2051 91.84C45.1095 90.7375 46.6865 89.1283 47.728 87.1616Z" fill="#717D96"/>
<path d="M47.0733 90.648C46.865 91.8102 45.8533 92.7935 44.6631 92.9723C45.6153 92.3167 46.4187 91.5718 47.0733 90.648Z" fill="#717D96"/>
<path d="M81.0244 6.37705C85.8448 2.682 91.8257 0.655687 97.8066 0.119309C100.842 -0.178679 103.906 0.119309 106.882 0.596089C117.296 2.26482 127.592 6.07907 135.923 12.6646C139.464 15.5253 142.38 19.1011 144.82 22.9452C148.837 29.3519 151.575 36.4142 154.045 43.5063C154.55 44.9367 154.937 46.3968 155.265 47.8868C156.544 53.8167 156.752 59.8659 156.812 65.915C156.842 71.9344 156.633 77.9538 156.247 83.9433C156.157 85.4332 156.038 86.953 155.919 88.4429C155.8 89.9329 155.681 91.4526 155.503 92.9425C155.503 92.9723 155.473 93.0021 155.443 93.0021C155.413 93.0021 155.384 92.9723 155.384 92.9425C155.562 89.9329 155.651 86.953 155.741 83.9433C156.038 73.4839 156.187 62.9054 155.146 52.4758C154.848 49.4959 154.372 46.5458 153.479 43.7149C153.033 42.2846 152.587 40.8543 152.111 39.4239C148.361 28.2196 142.083 17.1046 131.698 10.8767C122.95 5.45329 112.506 2.20522 102.3 1.07287C96.3783 0.596089 90.3379 1.75824 84.9819 4.26134C83.6429 4.88712 82.3337 5.63208 81.0839 6.49625C81.0542 6.52605 81.0244 6.49625 80.9947 6.49625C80.9947 6.40685 81.0244 6.37705 81.0244 6.37705Z" fill="#717D96"/>
<path d="M80.0723 15.5848C79.5069 19.6673 75.966 23.2431 72.8714 25.6866C75.728 22.7067 78.9118 19.6971 80.0723 15.5848Z" fill="#717D96"/>
<path d="M80.0723 24.2563C79.3581 26.4913 77.8406 28.607 75.6089 29.5605C77.543 28.1898 78.882 26.2827 80.0723 24.2563Z" fill="#717D96"/>
<path d="M79.8342 10.3105C79.9532 12.6646 79.2689 15.1975 77.543 16.8364C78.8523 14.8995 79.4474 12.605 79.8342 10.3105Z" fill="#717D96"/>
<path d="M81.7981 18.386C85.6366 27.5044 93.4325 32.6 103.341 32.0636C110.661 31.706 118.368 29.6797 125.39 32.6894C138.125 37.8744 142.113 52.4758 145.088 64.6635C141.547 52.893 137.56 38.5598 125.063 33.5238C118.13 30.6333 110.601 32.6 103.371 32.8384C93.2838 33.2556 85.2497 27.862 81.7981 18.386Z" fill="#717D96"/>
<path d="M81.3518 13.5885C82.9883 16.628 84.4463 19.9654 87.3921 21.962C88.3443 22.6175 89.3858 23.1539 90.4272 23.6903C88.7609 23.1241 87.1243 22.3493 85.8151 21.1276C83.6429 19.1013 82.423 16.3002 81.3518 13.5885Z" fill="#717D96"/>
<path d="M146.13 74.2289C146.516 77.179 146.993 81.2615 147.469 84.1519C147.945 86.953 148.57 89.9925 150.831 91.8698C151.158 92.1082 151.515 92.3168 151.902 92.5254C151.099 92.3168 150.325 91.8698 149.73 91.2441C149.462 90.9163 149.194 90.5885 148.956 90.2309C147.796 88.443 147.528 86.2677 147.201 84.2115C146.725 80.8741 146.427 77.5664 146.13 74.2289Z" fill="#717D96"/>
<path d="M147.409 89.9924C147.975 91.9592 148.778 94.1941 150.772 95.088C151.039 95.2072 151.337 95.2668 151.605 95.1178C151.515 95.237 151.337 95.3264 151.188 95.3562C148.778 95.4456 147.707 91.9294 147.409 89.9924Z" fill="#717D96"/>
<path d="M81.8576 28.1303C82.6015 31.5274 85.2497 34.1199 88.1063 35.9078C94.1169 39.6922 101.437 38.2619 108.132 37.8149C111.554 37.5765 115.095 37.6361 118.397 38.7387C111.613 36.9508 104.71 39.1261 97.8363 39.0069C93.8789 38.9771 89.9809 37.9937 86.797 35.5502C84.4463 33.7027 82.3039 31.1996 81.8576 28.1303Z" fill="#717D96"/>
<path d="M93.135 24.4351C99.2051 26.8786 105.87 26.074 112.208 25.5078C118.576 25.0012 125.331 24.4649 131.371 27.0276C138.959 30.3054 143.69 37.6657 147.439 44.728C149.314 48.2145 150.355 52.4757 153.836 54.7106C154.521 55.1278 155.265 55.4556 156.009 55.694V55.7536C155.235 55.545 154.461 55.2768 153.747 54.8596C150.087 52.7737 148.897 48.4231 146.963 44.9664C142.529 36.7122 136.548 27.6235 126.699 25.8058C120.302 24.5543 113.845 26.0442 107.447 26.4018C102.597 26.6998 97.5388 26.5508 93.135 24.4351Z" fill="#717D96"/>
<path d="M131.966 35.1925C137.56 38.2022 141.071 43.8937 143.541 49.5853C144.82 52.446 145.981 55.3365 147.052 58.2866C148.094 61.2366 148.927 64.2463 149.79 67.256C150.385 69.2227 151.01 71.1894 152.021 72.9774C152.795 74.3183 153.777 75.5103 155.056 76.3744C155.473 76.6724 155.949 76.9108 156.395 77.1194L156.366 77.179C153.241 76.1956 151.307 73.335 150.176 70.4147C149.403 68.4778 148.867 66.4514 148.332 64.4251C147.528 61.4154 146.665 58.4356 145.683 55.4855C144.374 51.552 142.559 47.7676 140.268 44.3109C138.066 40.7649 135.418 37.5168 131.966 35.1925Z" fill="#717D96"/>
<path d="M61.3858 96.3395C65.4028 92.0782 71.3836 91.2737 76.7992 93.0914C77.8406 93.449 78.8523 93.9258 79.8045 94.4621C80.6376 94.9389 81.7088 95.7733 82.4825 96.3395C82.8693 96.6076 83.4049 97.0248 83.762 97.3228C84.1785 97.6506 84.5654 98.1274 84.7142 98.634C84.5059 98.1572 84.0893 97.74 83.6727 97.442C83.2561 97.1738 82.7205 96.8162 82.3039 96.5779C81.3815 96.0117 80.4889 95.4157 79.5367 94.9389C77.6323 93.9854 75.5792 93.3894 73.4665 93.1808C70.3124 92.9424 67.1881 93.6874 64.3018 94.9091C63.3496 95.3561 62.3975 95.8627 61.475 96.3991L61.3858 96.3395Z" fill="#717D96"/>
<path d="M82.0956 97.9487C82.1849 97.5315 82.5122 96.9951 82.7503 96.7269C82.4527 96.3098 81.7088 96.0118 81.2923 95.7734C81.5601 96.1012 81.7386 96.3991 81.8874 96.7865C81.9766 97.0249 82.0956 97.5017 82.0956 97.9487Z" fill="#717D96"/>
<path d="M61.6833 96.8463C67.5154 100.899 74.7758 100.988 81.4708 99.558C82.4527 99.3792 83.4644 99.7368 84.3868 99.2898C83.4942 99.7964 82.4527 99.4984 81.4708 99.707C80.5186 99.856 79.5664 100.154 78.5845 100.333C76.6206 100.69 74.627 100.81 72.6631 100.78C70.6695 100.75 68.6461 100.541 66.7715 99.8858C64.8672 99.2302 63.0818 98.2469 61.6536 96.8761L61.6833 96.8463Z" fill="#717D96"/>
<path d="M136.191 94.2537C134.674 93.032 133.067 91.989 131.311 91.2143C130.062 90.6481 128.812 90.0819 127.443 89.8137C125.271 89.3965 123.039 89.6945 120.897 90.1415C119.826 90.3799 118.784 90.7375 117.802 91.1845C115.779 92.0486 114.023 93.4194 112.179 94.6411C113.339 93.4194 114.559 92.2274 115.987 91.3037C117.892 90.0223 120.183 89.4263 122.444 89.2475C124.14 89.1581 125.836 89.3369 127.503 89.5753C128.604 89.7541 129.734 89.9329 130.806 90.3203C131.877 90.6779 132.888 91.2441 133.811 91.8996C134.733 92.5552 135.566 93.33 136.251 94.2239L136.191 94.2537Z" fill="#717D96"/>
<path d="M123.515 97.7998C124.847 97.7998 125.926 96.7192 125.926 95.3861C125.926 94.0531 124.847 92.9724 123.515 92.9724C122.184 92.9724 121.105 94.0531 121.105 95.3861C121.105 96.7192 122.184 97.7998 123.515 97.7998Z" fill="#717D96"/>
<path d="M123.515 99.7069C125.688 99.7367 127.413 97.7699 127.651 95.7138C127.711 94.8199 127.8 93.3299 126.789 92.9723C125.807 92.6744 124.616 92.7935 123.575 92.7935C122.772 92.8531 121.998 92.9425 121.194 93.1213C120.748 93.2107 120.153 93.3001 119.826 93.5683C119.439 94.1345 119.439 94.9987 119.469 95.684C119.588 97.7699 121.373 99.7367 123.515 99.7069ZM123.515 99.7665C121.016 99.7963 118.814 97.9189 118.844 95.3264C118.874 94.4921 118.933 93.3001 119.855 92.9127C121.046 92.5254 122.325 92.4658 123.575 92.4956C124.111 92.5254 124.676 92.5552 125.211 92.585C125.866 92.6446 126.64 92.6148 127.235 92.9723C128.008 93.5683 128.128 94.8199 128.128 95.7436C128.008 98.1573 125.807 99.7963 123.515 99.7665Z" fill="#717D96"/>
<path d="M134.555 96.3993C132.74 95.2967 130.806 94.4027 128.752 93.8366C126.729 93.3002 124.646 92.9724 122.533 93.1512C120.451 93.33 118.368 93.926 116.463 94.9093C115.511 95.3861 114.619 95.9821 113.696 96.5482C113.28 96.7866 112.744 97.1442 112.327 97.4124C111.881 97.7104 111.494 98.0978 111.286 98.6044C111.464 98.0978 111.821 97.6508 112.238 97.2932C112.625 96.9952 113.131 96.578 113.518 96.3099C114.321 95.7437 115.362 94.9391 116.196 94.4325C118.1 93.3002 120.213 92.585 122.414 92.287C124.616 91.989 126.908 92.0784 129.02 92.7936C131.133 93.5088 133.097 94.7007 134.585 96.3099L134.555 96.3993Z" fill="#717D96"/>
<path d="M113.904 97.9487C113.815 97.5315 113.488 96.9951 113.25 96.7269C113.547 96.3098 114.291 96.0118 114.708 95.7734C114.44 96.1012 114.261 96.3991 114.113 96.7865C114.023 97.0249 113.904 97.5017 113.904 97.9487Z" fill="#717D96"/>
<path d="M134.376 96.8762C131.46 99.6474 127.294 100.81 123.337 100.78C121.343 100.81 119.35 100.69 117.416 100.333C116.434 100.154 115.481 99.856 114.529 99.707C113.577 99.4985 112.506 99.7964 111.613 99.2899C112.536 99.7368 113.577 99.3793 114.529 99.5581C115.511 99.6772 116.463 99.9454 117.445 100.094C119.379 100.392 121.343 100.482 123.307 100.392C125.271 100.333 127.205 99.9752 129.05 99.4091C130.925 98.8429 132.68 98.0085 134.317 96.8762H134.376Z" fill="#717D96"/>
<path d="M122.355 94.6707C122.355 94.9985 122.176 95.2369 121.611 95.2369C121.046 95.2369 120.599 94.9687 120.599 94.6707C120.599 94.343 121.046 94.1046 121.611 94.1046C122.176 94.1046 122.355 94.343 122.355 94.6707Z" fill="white"/>
<path d="M125.747 96.8171C125.747 97.026 125.658 97.1752 125.331 97.1752C125.003 97.1752 124.854 96.9962 124.854 96.8171C124.854 96.6081 125.003 96.4589 125.331 96.4589C125.658 96.4589 125.747 96.638 125.747 96.8171Z" fill="white"/>
<path d="M62.0404 95.8629C62.7248 96.7867 63.5877 97.472 64.5994 98.0084C66.2657 98.9322 68.051 99.5878 69.8959 99.9751C68.0213 99.6772 66.1764 99.0812 64.4803 98.217C63.4389 97.7402 62.4867 97.0251 61.7428 96.1013C61.7726 96.1013 62.0404 95.8629 62.0404 95.8629Z" fill="#717D96"/>
<path d="M134.257 96.1013C133.543 97.0251 132.591 97.7402 131.52 98.217C129.824 99.0812 127.979 99.6772 126.104 99.9751C127.949 99.5878 129.764 98.9322 131.401 98.0084C132.412 97.5018 133.275 96.7867 133.96 95.8629C133.989 95.8629 134.257 96.1013 134.257 96.1013Z" fill="#717D96"/>
<path d="M93.9086 114.487C94.0871 113.712 94.4442 111.805 94.5335 110.852C94.712 109.094 94.7715 108.229 94.474 106.412C94.3549 107.991 94.2954 108.885 94.1467 110.464C94.0574 112.282 93.8193 114.1 93.4325 115.888C93.4028 116.007 93.373 116.126 93.3433 116.275C93.5813 115.679 93.7896 115.083 93.9086 114.487Z" fill="#717D96"/>
<path d="M125.331 111.328C125.241 111.328 125.152 111.239 125.152 111.15C125.152 111.03 125.241 110.971 125.331 110.941C131.401 110.673 135.477 108.646 139.405 103.938C139.464 103.849 139.583 103.849 139.673 103.908C139.762 103.968 139.762 104.087 139.702 104.177C135.715 108.974 131.549 111.03 125.331 111.328C125.36 111.328 125.36 111.328 125.331 111.328Z" fill="#B42BAE"/>
<path d="M139.881 105.428L139.316 104.355L138.125 104.028L140.684 102.657L139.881 105.428Z" fill="#B42BAE"/>
<path d="M125.301 116.215C125.212 116.215 125.122 116.126 125.122 116.037C125.122 115.917 125.212 115.858 125.301 115.828C131.549 115.53 135.656 113.623 139.405 109.183C139.464 109.094 139.583 109.094 139.673 109.153C139.762 109.213 139.762 109.332 139.702 109.421C135.864 113.951 131.698 115.917 125.301 116.215C125.331 116.215 125.331 116.215 125.301 116.215Z" fill="#B42BAE"/>
<path d="M139.881 110.673L139.316 109.6L138.125 109.272L140.684 107.902L139.881 110.673Z" fill="#B42BAE"/>
<path d="M118.844 137.253C118.755 137.253 118.695 137.194 118.665 137.134C118.636 137.045 118.665 136.925 118.784 136.896C120.153 136.389 132.412 131.442 138.006 116.543C138.036 116.454 138.155 116.394 138.244 116.424C138.334 116.454 138.393 116.573 138.363 116.662C132.71 131.74 120.302 136.717 118.903 137.223C118.874 137.223 118.874 137.253 118.844 137.253Z" fill="#B42BAE"/>
<path d="M138.929 117.765L138.036 116.931L136.846 117.02L138.78 114.874L138.929 117.765Z" fill="#B42BAE"/>
<path d="M70.7885 111.328C64.5994 111.03 60.4336 108.974 56.4464 104.206C56.3868 104.117 56.3868 103.998 56.4761 103.938C56.5654 103.878 56.6844 103.878 56.7439 103.968C60.6716 108.646 64.7482 110.673 70.8183 110.971C70.9373 110.971 70.9968 111.06 70.9968 111.179C70.9671 111.239 70.9076 111.328 70.7885 111.328Z" fill="#B42BAE"/>
<path d="M57.9936 104.028L56.8332 104.355L56.2678 105.428L55.4644 102.657L57.9936 104.028Z" fill="#B42BAE"/>
<path d="M70.7885 116.216C64.4208 115.918 60.255 113.951 56.4463 109.451C56.3868 109.362 56.3868 109.243 56.4761 109.183C56.5653 109.123 56.6844 109.123 56.7439 109.213C60.4931 113.653 64.5696 115.56 70.8183 115.858C70.9373 115.858 70.9968 115.947 70.9968 116.067C70.967 116.126 70.8778 116.216 70.7885 116.216Z" fill="#B42BAE"/>
<path d="M57.9936 109.272L56.8332 109.6L56.2678 110.673L55.4644 107.902L57.9936 109.272Z" fill="#B42BAE"/>
<path d="M77.305 137.253C77.2752 137.253 77.2752 137.253 77.2455 137.253C75.847 136.747 63.4389 131.741 57.7853 116.692C57.7556 116.603 57.7853 116.484 57.9044 116.454C57.9936 116.424 58.1126 116.454 58.1424 116.573C63.7364 131.472 75.9957 136.419 77.3645 136.926C77.4538 136.955 77.5133 137.075 77.4835 137.164C77.4538 137.194 77.3645 137.253 77.305 137.253Z" fill="#B42BAE"/>
<path d="M59.3029 117.02L58.0829 116.931L57.1902 117.765L57.3688 114.874L59.3029 117.02Z" fill="#B42BAE"/>
</svg>
