<svg width="238" height="20" viewBox="0 0 238 20" fill="none" xmlns="http://www.w3.org/2000/svg">
<path d="M13.7107 13.048H5.91066V19H0.318659V1.144H13.7107C19.2627 1.144 22.0387 3.08 22.0387 6.952V7.192C22.0387 11.096 19.2627 13.048 13.7107 13.048ZM5.91066 5.2V9.04H13.6147C15.3427 9.04 16.2067 8.416 16.2067 7.168V7.096C16.2067 5.832 15.3427 5.2 13.6147 5.2H5.91066ZM42.3539 11.704L38.8979 5.008L35.5859 11.704H42.3539ZM46.0979 19L44.4179 15.736H33.5939L31.9859 19H26.2979L35.3219 1.144H42.5699L52.1219 19H46.0979ZM69.0357 19.312C67.2597 19.312 65.7077 19.16 64.3797 18.856C63.0517 18.552 62.0277 18.184 61.3077 17.752C60.5877 17.32 60.0117 16.8 59.5797 16.192C59.1637 15.568 58.8917 15.008 58.7637 14.512C58.6517 14.016 58.5957 13.488 58.5957 12.928V12.664H64.4277C64.5557 14.552 66.3237 15.496 69.7317 15.496H70.0677C71.1877 15.496 72.1157 15.448 72.8517 15.352C73.5877 15.24 74.1237 15.088 74.4597 14.896C74.7957 14.704 75.0197 14.512 75.1317 14.32C75.2437 14.112 75.2997 13.872 75.2997 13.6C75.2997 13.216 75.2037 12.912 75.0117 12.688C74.8197 12.464 74.3717 12.272 73.6677 12.112C72.9637 11.936 71.9477 11.832 70.6197 11.8L67.5477 11.728C61.7397 11.568 58.8357 9.824 58.8357 6.496V6.28C58.8357 5.544 58.9637 4.88 59.2197 4.288C59.4917 3.696 59.9557 3.128 60.6117 2.584C61.2837 2.024 62.2917 1.592 63.6357 1.288C64.9797 0.983999 66.6197 0.831999 68.5557 0.831999H70.2117C71.8437 0.831999 73.2837 0.943999 74.5317 1.168C75.7797 1.392 76.7717 1.68 77.5077 2.032C78.2597 2.384 78.8677 2.816 79.3317 3.328C79.8117 3.84 80.1397 4.352 80.3157 4.864C80.4917 5.36 80.5797 5.896 80.5797 6.472V6.712H74.7717C74.5797 5.288 72.8597 4.576 69.6117 4.576H69.2277C67.8837 4.576 66.8517 4.664 66.1317 4.84C65.4117 5 64.9717 5.176 64.8117 5.368C64.6677 5.56 64.5957 5.808 64.5957 6.112C64.5957 6.4 64.6757 6.648 64.8357 6.856C64.9957 7.048 65.3957 7.224 66.0357 7.384C66.6757 7.544 67.5717 7.632 68.7237 7.648L71.7237 7.696C75.0677 7.76 77.4757 8.216 78.9477 9.064C80.4197 9.896 81.1557 11.208 81.1557 13V13.336C81.1557 13.992 81.0837 14.584 80.9397 15.112C80.7957 15.624 80.4997 16.152 80.0517 16.696C79.6037 17.24 79.0037 17.696 78.2517 18.064C77.5157 18.432 76.4997 18.736 75.2037 18.976C73.9237 19.2 72.4197 19.312 70.6917 19.312H69.0357ZM99.6263 19.312C97.8503 19.312 96.2983 19.16 94.9703 18.856C93.6423 18.552 92.6183 18.184 91.8983 17.752C91.1783 17.32 90.6023 16.8 90.1703 16.192C89.7543 15.568 89.4823 15.008 89.3543 14.512C89.2423 14.016 89.1863 13.488 89.1863 12.928V12.664H95.0183C95.1463 14.552 96.9143 15.496 100.322 15.496H100.658C101.778 15.496 102.706 15.448 103.442 15.352C104.178 15.24 104.714 15.088 105.05 14.896C105.386 14.704 105.61 14.512 105.722 14.32C105.834 14.112 105.89 13.872 105.89 13.6C105.89 13.216 105.794 12.912 105.602 12.688C105.41 12.464 104.962 12.272 104.258 12.112C103.554 11.936 102.538 11.832 101.21 11.8L98.1383 11.728C92.3303 11.568 89.4263 9.824 89.4263 6.496V6.28C89.4263 5.544 89.5543 4.88 89.8103 4.288C90.0823 3.696 90.5463 3.128 91.2023 2.584C91.8743 2.024 92.8823 1.592 94.2263 1.288C95.5703 0.983999 97.2103 0.831999 99.1463 0.831999H100.802C102.434 0.831999 103.874 0.943999 105.122 1.168C106.37 1.392 107.362 1.68 108.098 2.032C108.85 2.384 109.458 2.816 109.922 3.328C110.402 3.84 110.73 4.352 110.906 4.864C111.082 5.36 111.17 5.896 111.17 6.472V6.712H105.362C105.17 5.288 103.45 4.576 100.202 4.576H99.8183C98.4743 4.576 97.4423 4.664 96.7223 4.84C96.0023 5 95.5623 5.176 95.4023 5.368C95.2583 5.56 95.1863 5.808 95.1863 6.112C95.1863 6.4 95.2663 6.648 95.4263 6.856C95.5863 7.048 95.9863 7.224 96.6263 7.384C97.2663 7.544 98.1623 7.632 99.3143 7.648L102.314 7.696C105.658 7.76 108.066 8.216 109.538 9.064C111.01 9.896 111.746 11.208 111.746 13V13.336C111.746 13.992 111.674 14.584 111.53 15.112C111.386 15.624 111.09 16.152 110.642 16.696C110.194 17.24 109.594 17.696 108.842 18.064C108.106 18.432 107.09 18.736 105.794 18.976C104.514 19.2 103.01 19.312 101.282 19.312H99.6263ZM134.081 13.048H126.281V19H120.689V1.144H134.081C139.633 1.144 142.409 3.08 142.409 6.952V7.192C142.409 11.096 139.633 13.048 134.081 13.048ZM126.281 5.2V9.04H133.985C135.713 9.04 136.577 8.416 136.577 7.168V7.096C136.577 5.832 135.713 5.2 133.985 5.2H126.281ZM163.159 0.831999H164.191C165.743 0.831999 167.151 0.943999 168.415 1.168C169.679 1.376 170.735 1.656 171.583 2.008C172.447 2.36 173.199 2.792 173.839 3.304C174.479 3.816 174.975 4.328 175.327 4.84C175.695 5.352 175.991 5.912 176.215 6.52C176.439 7.128 176.583 7.672 176.647 8.152C176.711 8.632 176.743 9.136 176.743 9.664V10.384C176.743 10.896 176.711 11.392 176.647 11.872C176.583 12.352 176.439 12.904 176.215 13.528C175.991 14.136 175.703 14.704 175.351 15.232C174.999 15.744 174.495 16.264 173.839 16.792C173.199 17.304 172.455 17.744 171.607 18.112C170.759 18.464 169.695 18.752 168.415 18.976C167.151 19.2 165.743 19.312 164.191 19.312H163.159C161.607 19.312 160.191 19.2 158.911 18.976C157.631 18.752 156.567 18.464 155.719 18.112C154.871 17.744 154.119 17.304 153.463 16.792C152.823 16.264 152.319 15.744 151.951 15.232C151.599 14.704 151.311 14.136 151.087 13.528C150.879 12.904 150.743 12.352 150.679 11.872C150.615 11.392 150.583 10.896 150.583 10.384V9.664C150.583 9.136 150.615 8.64 150.679 8.176C150.743 7.696 150.879 7.152 151.087 6.544C151.311 5.92 151.599 5.352 151.951 4.84C152.319 4.328 152.823 3.816 153.463 3.304C154.103 2.792 154.847 2.36 155.695 2.008C156.559 1.656 157.631 1.376 158.911 1.168C160.191 0.943999 161.607 0.831999 163.159 0.831999ZM170.887 9.832C170.887 9.384 170.831 8.96 170.719 8.56C170.607 8.144 170.391 7.728 170.071 7.312C169.751 6.88 169.335 6.512 168.823 6.208C168.311 5.904 167.607 5.656 166.711 5.464C165.831 5.256 164.815 5.152 163.663 5.152C158.847 5.152 156.439 6.712 156.439 9.832V10.12C156.439 10.696 156.535 11.24 156.727 11.752C156.935 12.264 157.279 12.776 157.759 13.288C158.255 13.8 159.007 14.208 160.015 14.512C161.023 14.816 162.239 14.968 163.663 14.968C165.087 14.968 166.295 14.824 167.287 14.536C168.295 14.232 169.047 13.832 169.543 13.336C170.039 12.824 170.383 12.312 170.575 11.8C170.783 11.288 170.887 10.744 170.887 10.168V9.832ZM191.4 5.2V8.704H199.872C200.624 8.704 201.184 8.544 201.552 8.224C201.936 7.904 202.128 7.48 202.128 6.952V6.928C202.128 6.416 201.944 6 201.576 5.68C201.208 5.36 200.64 5.2 199.872 5.2H191.4ZM191.4 12.664V19H185.808V1.144H200.208C205.376 1.144 207.96 2.688 207.96 5.776V6.064C207.96 6.656 207.848 7.2 207.624 7.696C207.4 8.176 207.096 8.568 206.712 8.872C206.344 9.16 205.992 9.392 205.656 9.568C205.336 9.728 205 9.864 204.648 9.976C205.64 10.232 206.448 10.712 207.072 11.416C207.712 12.12 208.032 13.008 208.032 14.08V16.696C208.032 17.704 208.144 18.432 208.368 18.88V19H202.68C202.504 18.776 202.416 18.4 202.416 17.872V15.808C202.416 14.704 202.136 13.904 201.576 13.408C201.016 12.912 200.056 12.664 198.696 12.664H191.4ZM224.039 19V5.368H216.359V1.144H237.383V5.368H229.679V19H224.039Z" fill="#6B1FE0"/>
</svg>
