<svg width="64" height="64" viewBox="0 0 64 64" fill="none" xmlns="http://www.w3.org/2000/svg">
<g clip-path="url(#clip0_1945_2042)">
<path d="M32 0C49.6685 0 64 14.3316 64 32C64 49.6685 49.6685 64 32 64C14.3316 64 0 49.6685 0 32C0 14.3316 14.3316 0 32 0Z" fill="white"/>
<path d="M32 0C49.6685 0 64 14.3316 64 32C64 49.6685 49.6685 64 32 64C14.3316 64 0 49.6685 0 32C0 14.3316 14.3316 0 32 0Z" fill="#A96FE7" fill-opacity="0.1"/>
<path d="M32 64C14.359 64 0 49.641 0 32C0 14.359 14.359 0 32 0C49.641 0 64 14.359 64 32C64 49.641 49.641 64 32 64ZM32 1.05194C14.9375 1.05194 1.05194 14.9375 1.05194 32C1.05194 49.0625 14.9375 62.9481 32 62.9481C49.0625 62.9481 62.9481 49.0625 62.9481 32C62.9481 14.9375 49.0625 1.05194 32 1.05194Z" fill="#A96FE7"/>
<path d="M46.5381 26C44.336 26 43.2553 24.3682 42.3072 22.9272C41.3081 21.4119 40.6046 20.4795 39.2691 20.4795C37.9335 20.4795 37.2301 21.4013 36.2309 22.9166C35.2828 24.3576 34.2021 25.9894 32 25.9894C29.7979 25.9894 28.7172 24.3576 27.7691 22.9166C26.7699 21.4013 26.0665 20.4795 24.7309 20.4795C23.3954 20.4795 22.6919 21.4013 21.6928 22.9166C20.7447 24.3576 19.664 25.9894 17.4619 25.9894C15.2598 25.9894 14.1791 24.3576 13.2309 22.9166C12.2318 21.4013 11.5284 20.4795 10.1928 20.4795C9.53014 20.4795 9 19.9285 9 19.2397C9 18.551 9.53014 18 10.1928 18C12.8741 18 14.2199 20.0344 15.1986 21.5179C16.1467 22.9589 16.5953 23.5099 17.4619 23.5099C18.3285 23.5099 18.7668 22.9589 19.7252 21.5179C20.7039 20.0344 22.0496 18 24.7309 18C27.4122 18 28.758 20.0344 29.7367 21.5179C30.6848 22.9589 31.1334 23.5099 32 23.5099C32.8666 23.5099 33.305 22.9589 34.2633 21.5179C35.242 20.0344 36.5878 18 39.2691 18C41.9504 18 43.2961 20.0344 44.2748 21.5179C45.223 22.9589 45.6715 23.5099 46.5381 23.5099C47.4047 23.5099 47.8431 22.9589 48.8014 21.5179C49.7801 20.0344 51.1259 18 53.8072 18C54.4699 18 55 18.551 55 19.2397C55 19.9285 54.4699 20.4795 53.8072 20.4795C52.4716 20.4795 51.7682 21.4013 50.7691 22.9166C49.8209 24.3576 48.7402 25.9894 46.5381 25.9894V26Z" fill="#A96FE7"/>
<path d="M46.5381 36C44.336 36 43.2553 34.3725 42.3072 32.9353C41.3081 31.4135 40.6046 30.4941 39.2691 30.4941C37.9335 30.4941 37.2301 31.4135 36.2309 32.9247C35.2828 34.362 34.2021 35.9894 32 35.9894C29.7979 35.9894 28.7172 34.362 27.7691 32.9247C26.7699 31.4135 26.0665 30.4835 24.7309 30.4835C23.3954 30.4835 22.6919 31.4029 21.6928 32.9141C20.7447 34.3514 19.664 35.9789 17.4619 35.9789C15.2598 35.9789 14.1791 34.3514 13.2309 32.9141C12.2318 31.4029 11.5284 30.4729 10.1928 30.4729C9.53014 30.4729 9 29.9234 9 29.2365C9 28.5495 9.53014 28 10.1928 28C12.8741 28 14.2199 30.0291 15.1986 31.5086C16.1467 32.9458 16.5953 33.4954 17.4619 33.4954C18.3285 33.4954 18.7668 32.9458 19.7252 31.5086C20.7039 30.0291 22.0496 28 24.7309 28C27.4122 28 28.758 30.0291 29.7367 31.5086C30.6848 32.9458 31.1334 33.4954 32 33.4954C32.8666 33.4954 33.305 32.9564 34.2633 31.5086C35.242 30.0291 36.5878 28 39.2691 28C41.9504 28 43.2961 30.0291 44.2748 31.5086C45.223 32.9458 45.6715 33.4954 46.5381 33.4954C47.4047 33.4954 47.8431 32.9564 48.8014 31.5086C49.7801 30.0291 51.1259 28 53.8072 28C54.4699 28 55 28.5495 55 29.2365C55 29.9234 54.4699 30.4729 53.8072 30.4729C52.4716 30.4729 51.7682 31.3923 50.7691 32.9036C49.8209 34.3408 48.7402 35.9683 46.5381 35.9683V36Z" fill="#A96FE7"/>
<path d="M46.5381 46C44.336 46 43.2553 44.3725 42.3072 42.9353C41.3081 41.424 40.6046 40.4941 39.2691 40.4941C37.9335 40.4941 37.2301 41.4135 36.2309 42.9247C35.2828 44.362 34.2021 45.9894 32 45.9894C29.7979 45.9894 28.7172 44.362 27.7691 42.9247C26.7699 41.4135 26.0665 40.4835 24.7309 40.4835C23.3954 40.4835 22.6919 41.4029 21.6928 42.9141C20.7447 44.3514 19.664 45.9789 17.4619 45.9789C15.2598 45.9789 14.1791 44.3514 13.2309 42.9141C12.2318 41.4029 11.5284 40.4729 10.1928 40.4729C9.53014 40.4729 9 39.9234 9 39.2365C9 38.5495 9.53014 38 10.1928 38C12.8741 38 14.2199 40.0291 15.1986 41.5086C16.1467 42.9458 16.5953 43.4954 17.4619 43.4954C18.3285 43.4954 18.7668 42.9458 19.7252 41.5086C20.7039 40.0291 22.0496 38 24.7309 38C27.4122 38 28.758 40.0291 29.7367 41.5086C30.6848 42.9458 31.1334 43.4954 32 43.4954C32.8666 43.4954 33.305 42.9564 34.2633 41.5086C35.242 40.0291 36.5878 38 39.2691 38C41.9504 38 43.2961 40.0291 44.2748 41.5086C45.223 42.9458 45.6715 43.4954 46.5381 43.4954C47.4047 43.4954 47.8431 42.9564 48.8014 41.5086C49.7801 40.0291 51.1259 38 53.8072 38C54.4699 38 55 38.5495 55 39.2365C55 39.9234 54.4699 40.4729 53.8072 40.4729C52.4716 40.4729 51.7682 41.3923 50.7691 42.9036C49.8209 44.3408 48.7402 45.9683 46.5381 45.9683V46Z" fill="#A96FE7"/>
</g>
<defs>
<clipPath id="clip0_1945_2042">
<rect width="64" height="64" fill="white"/>
</clipPath>
</defs>
</svg>
