<svg width="64" height="64" viewBox="0 0 64 64" fill="none" xmlns="http://www.w3.org/2000/svg">
<g clip-path="url(#clip0_1945_2041)">
<path d="M32 0C49.6685 0 64 14.3315 64 32C64 49.6685 49.6685 64 32 64C14.3316 64 0 49.6685 0 32C0 14.3209 14.3316 0 32 0Z" fill="white"/>
<path d="M32 0C49.6685 0 64 14.3315 64 32C64 49.6685 49.6685 64 32 64C14.3316 64 0 49.6685 0 32C0 14.3209 14.3316 0 32 0Z" fill="#A96FE7" fill-opacity="0.1"/>
<path d="M23.0598 37.0219C22.8443 37.8002 22.7259 38.6332 22.7259 39.4772C22.7259 44.5852 26.8297 48.7175 31.8923 48.7175C36.9548 48.7175 41.0587 44.5852 41.0587 39.4772C41.0587 38.6223 40.9402 37.8002 40.7356 37.0219H63C60.2964 51.8086 47.4461 63 32 63C16.5539 63 3.70361 51.7976 1 37H23.0598V37.0219Z" fill="url(#paint0_linear_1945_2041)" fill-opacity="0.4"/>
<path d="M31.6878 49C26.3333 49 21.9735 44.6026 21.9735 39.202C21.9735 38.6683 22.0159 38.1346 22.1005 37.6117H1V36H24.1217L23.8466 37.0246C23.6561 37.7291 23.5503 38.4655 23.5503 39.202C23.5503 43.7167 27.2011 47.399 31.6773 47.399C36.1534 47.399 39.8042 43.7167 39.8042 39.202C39.8042 38.4655 39.709 37.7291 39.5185 37.0246L39.2434 36.0107H63V37.6223H41.2645C41.3492 38.1346 41.3915 38.6683 41.3915 39.202C41.3915 44.6026 37.0317 49 31.6773 49H31.6878Z" fill="#A96FE7"/>
<path d="M48.1001 7C46.3853 8.27607 44.6493 9.37286 43.1463 10.7228C38.0019 15.3103 35.5991 21.2161 35.2074 27.9761C35.091 29.8849 35.2603 31.8254 35.3768 33.7448C35.4085 34.1983 35.652 34.7256 35.9695 35.063C38.2771 37.5203 38.3935 41.2008 36.1918 43.5632C33.9901 45.9255 30.2747 46.1575 27.7661 44.0905C25.2468 42.0023 24.8869 38.385 26.8875 35.6536C27.2051 35.2107 27.4062 34.6201 27.4909 34.0717C28.4435 27.607 30.5288 21.5852 34.5723 16.3543C38.0654 11.8512 42.6064 8.84556 48.0895 7.01055L48.1001 7Z" fill="#A96FE7"/>
<path d="M32 64C16.9257 64 3.75542 53.3018 0.673241 38.5746C0.220907 36.4287 0 34.2196 0 32C0 14.359 14.359 0 32 0C49.641 0 64 14.359 64 32C64 49.641 49.641 64 32 64ZM32 1.05194C14.9375 1.05194 1.05194 14.9375 1.05194 32C1.05194 34.1354 1.27285 36.2814 1.70414 38.3537C4.68113 52.6075 17.4201 62.9481 32 62.9481C49.0625 62.9481 62.9481 49.0625 62.9481 32C62.9481 14.9375 49.0625 1.05194 32 1.05194Z" fill="#A96FE7"/>
</g>
<defs>
<linearGradient id="paint0_linear_1945_2041" x1="62.9892" y1="50.011" x2="1" y2="50.011" gradientUnits="userSpaceOnUse">
<stop stop-color="#FFEAFF"/>
<stop offset="0.05" stop-color="#F3DBFA"/>
<stop offset="0.2" stop-color="#D3B1ED"/>
<stop offset="0.35" stop-color="#B98FE3"/>
<stop offset="0.51" stop-color="#A474DB"/>
<stop offset="0.67" stop-color="#9561D5"/>
<stop offset="0.83" stop-color="#8C55D2"/>
<stop offset="1" stop-color="#8A52D1"/>
</linearGradient>
<clipPath id="clip0_1945_2041">
<rect width="64" height="64" fill="white"/>
</clipPath>
</defs>
</svg>
