<svg width="64" height="64" viewBox="0 0 64 64" fill="none" xmlns="http://www.w3.org/2000/svg">
<g clip-path="url(#clip0_1945_2039)">
<path d="M32 0C49.6685 0 64 14.3315 64 32C64 49.6684 49.6685 64 32 64C14.3316 64 0 49.6684 0 32C0 14.3209 14.3316 0 32 0Z" fill="white"/>
<path d="M32 0C49.6685 0 64 14.3315 64 32C64 49.6684 49.6685 64 32 64C14.3316 64 0 49.6684 0 32C0 14.3209 14.3316 0 32 0Z" fill="#A96FE7" fill-opacity="0.1"/>
<path d="M32 64C14.359 64 0 49.6515 0 32C0 14.3485 14.359 0 32 0C49.641 0 64 14.359 64 32C64 49.641 49.641 64 32 64ZM32 1.05194C14.9375 1.05194 1.05194 14.9375 1.05194 32C1.05194 49.0625 14.9375 62.9481 32 62.9481C49.0625 62.9481 62.9481 49.0625 62.9481 32C62.9481 14.9375 49.0625 1.05194 32 1.05194Z" fill="#A96FE7"/>
<path d="M55.9901 34.6497C54.5809 46.6766 44.3697 56 31.995 56C19.6204 56 9.39921 46.6667 8 34.6497H56H55.9901Z" fill="#A96FE7"/>
<path opacity="0.6" d="M8.33388 27.9379H55.4796C55.7153 29.2704 55.8332 30.6423 55.8332 32.0439C55.8332 32.2512 55.8332 32.4584 55.8332 32.6657H8C8 32.4584 8 32.2512 8 32.0439C8 30.6423 8.11784 29.2704 8.35352 27.9379H8.33388Z" fill="#A96FE7"/>
<path opacity="0.4" d="M10.1895 21.6012H53.3105C54.0276 23.1015 54.5973 24.6807 55 26.329H8.5C8.90273 24.6807 9.47243 23.1015 10.1895 21.6012Z" fill="#A96FE7"/>
<path opacity="0.2" d="M14.5745 15.2546H48.8168C50.1916 16.676 51.3994 18.2651 52.3913 19.9825H11C12.0016 18.2552 13.1997 16.6661 14.5745 15.2546Z" fill="#A96FE7"/>
<path opacity="0.1" d="M32.3977 8C38.2603 8 43.622 10.1221 47.7857 13.6359H17C21.1637 10.1122 26.5254 8 32.3879 8H32.3977Z" fill="#A96FE7"/>
</g>
<defs>
<clipPath id="clip0_1945_2039">
<rect width="64" height="64" fill="white"/>
</clipPath>
</defs>
</svg>
