<svg width="64" height="64" viewBox="0 0 64 64" fill="none" xmlns="http://www.w3.org/2000/svg">
<g clip-path="url(#clip0_1945_2037)">
<path d="M32 0C49.6684 0 64 14.3315 64 32C64 49.6684 49.6684 64 32 64C14.3315 64 0 49.6684 0 32C0 14.3315 14.3209 0 32 0Z" fill="white"/>
<path d="M32 0C49.6684 0 64 14.3315 64 32C64 49.6684 49.6684 64 32 64C14.3315 64 0 49.6684 0 32C0 14.3315 14.3209 0 32 0Z" fill="#A96FE7" fill-opacity="0.1"/>
<path d="M32 64C14.359 64 0 49.641 0 32C0 14.359 14.359 0 32 0C49.641 0 64 14.359 64 32C64 49.641 49.641 64 32 64ZM32 1.05194C14.9375 1.05194 1.05194 14.927 1.05194 32C1.05194 49.073 14.9375 62.9481 32 62.9481C49.0625 62.9481 62.9481 49.0625 62.9481 32C62.9481 14.9375 49.0625 1.05194 32 1.05194Z" fill="#A96FE7"/>
<path d="M32.0039 33C23.5448 33 16.8926 30.2198 12.7623 27.8556C12.0475 27.4498 11.7893 26.5163 12.1865 25.7857C12.5836 25.0551 13.497 24.7913 14.2119 25.1972C18.1138 27.4295 24.4681 30.0676 32.55 29.9458C40.1454 29.8241 46.1224 27.2976 49.786 25.1972C50.5009 24.7812 51.4143 25.045 51.8115 25.7857C52.2086 26.5163 51.9604 27.4498 51.2356 27.8556C47.2642 30.1285 40.8007 32.8681 32.5798 32.9899C32.3812 32.9899 32.1826 32.9899 31.9841 32.9899L32.0039 33Z" fill="#A96FE7"/>
<path d="M32.4937 26C25.0909 26 19.2766 23.189 15.6801 20.8042C14.9908 20.3475 14.791 19.4038 15.2405 18.6934C15.6901 17.9932 16.6192 17.7902 17.3185 18.2469C20.6553 20.4592 26.1 23.0672 32.9633 22.9454C39.437 22.8338 44.542 20.3272 47.679 18.2469C48.3683 17.7902 49.2974 17.983 49.757 18.6934C50.2065 19.3936 50.0167 20.3374 49.3174 20.8042C45.8508 23.0977 40.2062 25.8681 33.0132 26C32.8434 26 32.6636 26 32.4937 26Z" fill="#A96FE7"/>
<path d="M50.5012 40H13.4888C12.665 40 12 39.33 12 38.5C12 37.67 12.665 37 13.4888 37H50.5112C51.335 37 52 37.67 52 38.5C52 39.33 51.335 40 50.5112 40H50.5012Z" fill="#A96FE7"/>
<path d="M14 46C16 46 16 43 14 43C12 43 12 46 14 46Z" fill="#A96FE7"/>
<path d="M20 46C22 46 22 43 20 43C18 43 18 46 20 46Z" fill="#A96FE7"/>
<path d="M26 46C28 46 28 43 26 43C24 43 24 46 26 46Z" fill="#A96FE7"/>
<path d="M32 46C34 46 34 43 32 43C30 43 30 46 32 46Z" fill="#A96FE7"/>
<path d="M38 46C40 46 40 43 38 43C36 43 36 46 38 46Z" fill="#A96FE7"/>
<path d="M44 46C46 46 46 43 44 43C42 43 42 46 44 46Z" fill="#A96FE7"/>
<path d="M50 46C52 46 52 43 50 43C48 43 48 46 50 46Z" fill="#A96FE7"/>
</g>
<defs>
<clipPath id="clip0_1945_2037">
<rect width="64" height="64" fill="white"/>
</clipPath>
</defs>
</svg>
