<svg width="64" height="64" viewBox="0 0 64 64" fill="none" xmlns="http://www.w3.org/2000/svg">
<g clip-path="url(#clip0_1945_2036)">
<path d="M32 0C49.6684 0 64 14.3315 64 32C64 49.6684 49.6684 64 32 64C14.3315 64 0 49.6684 0 32C0 14.3209 14.3209 0 32 0Z" fill="white"/>
<path d="M32 0C49.6684 0 64 14.3315 64 32C64 49.6684 49.6684 64 32 64C14.3315 64 0 49.6684 0 32C0 14.3209 14.3209 0 32 0Z" fill="#A96FE7" fill-opacity="0.1"/>
<path d="M32 64C14.359 64 0 49.641 0 32C0 14.359 14.359 0 32 0C49.641 0 64 14.359 64 32C64 49.641 49.641 64 32 64ZM32 1.05194C14.9375 1.05194 1.05194 14.9375 1.05194 32C1.05194 49.0625 14.9375 62.9481 32 62.9481C49.0625 62.9481 62.9481 49.0625 62.9481 32C62.9481 14.9375 49.073 1.05194 32 1.05194Z" fill="#A96FE7"/>
<path d="M47.762 41.2728C48.1023 40.903 48.0731 40.3289 47.7036 39.9884C47.3341 39.6478 46.7604 39.677 46.4201 40.0468L43.8627 42.6058L41.6165 40.3581L45.7686 36.2034C45.7686 36.2034 45.8075 36.1645 45.8269 36.145C46.1673 35.7753 46.1381 35.2012 45.7686 34.8606C45.3991 34.5201 44.8254 34.5493 44.485 34.919L37.1338 42.275L34.5667 39.7062L35.8405 38.4316C35.8405 38.4316 35.8794 38.3927 35.8988 38.3732C36.2392 38.0035 36.21 37.4294 35.8405 37.0888C35.471 36.7483 34.8973 36.7775 34.5569 37.1472L33.2831 38.4218L31.3578 36.4953L32.6316 35.2207C32.6316 35.2207 32.6705 35.1817 32.6899 35.1623C33.0303 34.7925 33.0011 34.2185 32.6316 33.8779C32.2621 33.5374 31.6884 33.5665 31.3481 33.9363L30.0742 35.2109L28.1489 33.2844L29.4227 32.0097C29.4227 32.0097 29.4616 31.9708 29.4811 31.9514C29.8214 31.5816 29.7922 31.0075 29.4227 30.667C29.0532 30.3264 28.4795 30.3556 28.1392 30.7254L26.8653 32L24.94 30.0734L26.2138 28.7988C26.2138 28.7988 26.2527 28.7599 26.2722 28.7404C26.6125 28.3707 26.5833 27.7966 26.2138 27.4561C25.8443 27.1155 25.2706 27.1447 24.9303 27.5144L23.6565 28.7891L22.3437 27.4755L22.5966 22.6105L27.4585 22.3575L40.3135 35.2207C40.6635 35.5807 41.2372 35.5904 41.597 35.2401C41.9568 34.8898 41.9665 34.3158 41.6165 33.9557C41.6165 33.9557 41.6067 33.946 41.597 33.9363L28.4503 20.7812C28.2656 20.6061 28.0225 20.5088 27.7697 20.5185L22.0909 20.8104L17.5596 16.2762C17.2095 15.9162 16.6358 15.9065 16.276 16.2567C15.9162 16.607 15.9065 17.1811 16.2566 17.5411C16.2566 17.5411 16.2663 17.5508 16.276 17.5606L20.8074 22.0948L20.5156 27.7771C20.5059 28.0301 20.6032 28.2734 20.7782 28.4583L35.8502 43.5399L34.8875 44.5031C34.5278 44.8534 34.518 45.4275 34.8681 45.7875C35.2182 46.1475 35.7919 46.1573 36.1516 45.807C36.1516 45.807 36.1614 45.7972 36.1711 45.7875L40.3232 41.6328L42.5694 43.8804L40.012 46.4394C39.6522 46.7897 39.6425 47.3638 39.9926 47.7238C40.3426 48.0838 40.9164 48.0935 41.2761 47.7433C41.2761 47.7433 41.2859 47.7335 41.2956 47.7238L47.6842 41.3311C47.6842 41.3311 47.7231 41.2922 47.7425 41.2728H47.762Z" fill="#A96FE7"/>
</g>
<defs>
<clipPath id="clip0_1945_2036">
<rect width="64" height="64" fill="white"/>
</clipPath>
</defs>
</svg>
