<svg width="64" height="64" viewBox="0 0 64 64" fill="none" xmlns="http://www.w3.org/2000/svg">
<g clip-path="url(#clip0_1945_2035)">
<path d="M32 0C49.6685 0 64 14.3316 64 32C64 49.6685 49.6685 64 32 64C14.3316 64 0 49.6685 0 32C0 14.3316 14.3316 0 32 0Z" fill="white"/>
<path d="M32 0C49.6685 0 64 14.3316 64 32C64 49.6685 49.6685 64 32 64C14.3316 64 0 49.6685 0 32C0 14.3316 14.3316 0 32 0Z" fill="#A96FE7" fill-opacity="0.1"/>
<path d="M32 64C14.359 64 0 49.641 0 32C0 14.359 14.359 0 32 0C49.641 0 64 14.359 64 32C64 49.641 49.641 64 32 64ZM32 1.05194C14.9375 1.05194 1.05194 14.9375 1.05194 32C1.05194 49.0625 14.9375 62.9481 32 62.9481C49.0625 62.9481 62.9481 49.0625 62.9481 32C62.9481 14.9375 49.0625 1.05194 32 1.05194Z" fill="#A96FE7"/>
<path d="M45.2949 41.9895L44.7395 40.2919C46.8144 39.6108 48.2081 37.6931 48.2081 35.5135V20.8009C48.2081 18.024 45.9551 15.771 43.1781 15.771H28.4656C26.2859 15.771 24.3683 17.1542 23.6871 19.229L22 18.6737C22.9222 15.8757 25.521 14 28.476 14H43.1886C46.9506 14 50 17.0599 50 20.8114V35.524C50 38.479 48.1138 41.0778 45.3054 42L45.2949 41.9895Z" fill="#A96FE7"/>
<path d="M41.089 45L40.5969 43.3572C42.733 42.7626 44.2199 40.8477 44.2199 38.7111V24.561C44.2199 21.8903 41.9686 19.7234 39.1937 19.7234H24.4921C22.2932 19.7234 20.3665 21.0739 19.6963 23.0896L18 22.5655C18.9005 19.8343 21.5079 18 24.4921 18H39.1937C42.9529 18 46 20.9429 46 24.551V38.701C46 41.6036 43.9791 44.1937 41.089 45Z" fill="#A96FE7"/>
<path d="M35.2692 50H20.7308C17.0133 50 14 46.9763 14 43.2692V28.7308C14 25.0133 17.0237 22 20.7308 22H35.2692C38.9867 22 42 25.0237 42 28.7308V43.2692C42 46.9867 38.9763 50 35.2692 50ZM20.7308 23.75C17.9867 23.75 15.7604 25.9763 15.7604 28.7204V43.2589C15.7604 46.003 17.9867 48.2293 20.7308 48.2293H35.2692C38.0133 48.2293 40.2396 46.003 40.2396 43.2589V28.7204C40.2396 25.9763 38.0133 23.75 35.2692 23.75H20.7308Z" fill="#A96FE7"/>
<path d="M34.5564 33.4289C31.8403 37.5389 31.763 37.4104 28.4766 30.1192C28.3703 29.8821 27.974 30.0303 28.0223 30.2872C29.1436 36.2051 28.3606 36.1557 24.5716 30.465C24.4266 30.2378 24.04 30.465 24.1463 30.7021C26.9881 37.2425 27.655 38.0822 22.5611 33.2708C22.3678 33.093 22.0295 33.3499 22.1745 33.5771C25.9635 39.4259 25.5189 39.663 21.4012 36.6003C21.1982 36.4521 20.8986 36.709 21.0339 36.9164C24.243 42.0835 29.5302 44.504 33.0872 38.3589C33.8025 37.1239 34.4501 35.5432 34.9914 33.5672C35.059 33.3104 34.7111 33.2017 34.5661 33.4289H34.5564Z" fill="#A96FE7"/>
</g>
<defs>
<clipPath id="clip0_1945_2035">
<rect width="64" height="64" fill="white"/>
</clipPath>
</defs>
</svg>
