<svg width="64" height="64" viewBox="0 0 64 64" fill="none" xmlns="http://www.w3.org/2000/svg">
<g clip-path="url(#clip0_1945_2040)">
<path d="M32 0C49.6685 0 64 14.3316 64 32C64 49.6685 49.6685 64 32 64C14.3316 64 0 49.6685 0 32C0 14.3316 14.3316 0 32 0Z" fill="white"/>
<path d="M32 0C49.6685 0 64 14.3316 64 32C64 49.6685 49.6685 64 32 64C14.3316 64 0 49.6685 0 32C0 14.3316 14.3316 0 32 0Z" fill="#A96FE7" fill-opacity="0.1"/>
<path d="M32 64C14.359 64 0 49.641 0 32C0 14.359 14.359 0 32 0C49.641 0 64 14.359 64 32C64 49.641 49.641 64 32 64ZM32 1.05194C14.9375 1.05194 1.05194 14.9375 1.05194 32C1.05194 49.0625 14.9375 62.9481 32 62.9481C49.0625 62.9481 62.9481 49.0625 62.9481 32C62.9481 14.9375 49.0625 1.05194 32 1.05194Z" fill="#A96FE7"/>
<path d="M47.4982 17H16.5018C15.6708 17 15 16.33 15 15.5C15 14.67 15.6708 14 16.5018 14H47.4982C48.3292 14 49 14.67 49 15.5C49 16.33 48.3292 17 47.4982 17Z" fill="#A96FE7"/>
<path d="M50.5149 25H13.4851C12.6634 25 12 24.33 12 23.5C12 22.67 12.6634 22 13.4851 22H50.5149C51.3366 22 52 22.67 52 23.5C52 24.33 51.3366 25 50.5149 25Z" fill="#A96FE7"/>
<path d="M53.4826 33H10.5276C9.68231 33 9 32.33 9 31.5C9 30.67 9.68231 30 10.5276 30H53.4724C54.3177 30 55 30.67 55 31.5C55 32.33 54.3177 33 53.4724 33H53.4826Z" fill="#A96FE7"/>
<path d="M47.4982 49H16.5018C15.6708 49 15 48.33 15 47.5C15 46.67 15.6708 46 16.5018 46H47.4982C48.3292 46 49 46.67 49 47.5C49 48.33 48.3292 49 47.4982 49Z" fill="#A96FE7"/>
<path d="M50.5149 41H13.4851C12.6634 41 12 40.33 12 39.5C12 38.67 12.6634 38 13.4851 38H50.5149C51.3366 38 52 38.67 52 39.5C52 40.33 51.3366 41 50.5149 41Z" fill="#A96FE7"/>
</g>
<defs>
<clipPath id="clip0_1945_2040">
<rect width="64" height="64" fill="white"/>
</clipPath>
</defs>
</svg>
