<svg width="24" height="24" viewBox="0 0 24 24" fill="none" xmlns="http://www.w3.org/2000/svg">
<g id="euiro-square icon">
<path id="Square" fill-rule="evenodd" clip-rule="evenodd" d="M3.37579 3.37579C2.38744 4.36414 1.84615 5.99874 1.84615 8.67692V15.3231C1.84615 18.0013 2.38744 19.6359 3.37579 20.6242C4.36414 21.6126 5.99874 22.1538 8.67692 22.1538H15.3231C18.0013 22.1538 19.6359 21.6126 20.6242 20.6242C21.6126 19.6359 22.1538 18.0013 22.1538 15.3231V8.67692C22.1538 5.99874 21.6126 4.36414 20.6242 3.37579C19.6359 2.38744 18.0013 1.84615 15.3231 1.84615H8.67692C5.99874 1.84615 4.36414 2.38744 3.37579 3.37579ZM2.07036 2.07036C3.57432 0.566401 5.81665 0 8.67692 0H15.3231C18.1834 0 20.4257 0.566401 21.9296 2.07036C23.4336 3.57432 24 5.81665 24 8.67692V15.3231C24 18.1834 23.4336 20.4257 21.9296 21.9296C20.4257 23.4336 18.1834 24 15.3231 24H8.67692C5.81665 24 3.57432 23.4336 2.07036 21.9296C0.566401 20.4257 0 18.1834 0 15.3231V8.67692C0 5.81665 0.566401 3.57432 2.07036 2.07036Z" fill="#101828"/>
<path id="&#226;&#130;&#172;" d="M17 15.4807C17 15.7293 16.9037 15.9448 16.8074 16.0608C15.9406 17.221 14.8652 18 13.2119 18C10.8363 18 9.16693 16.4254 8.55698 14.0718H7.69021C7.30498 14.0718 7 13.7569 7 13.3591C7 12.9779 7.30498 12.6464 7.69021 12.6464H8.31621C8.30016 12.4475 8.30016 12.232 8.30016 12.0166C8.30016 11.768 8.30016 11.5028 8.33226 11.2541H7.69021C7.30498 11.2541 7 10.9392 7 10.558C7 10.1602 7.30498 9.8453 7.69021 9.8453H8.58909C9.21509 7.60774 10.8684 6 13.1477 6C14.8491 6 15.8764 6.69613 16.7111 7.69061C16.8395 7.8232 16.9679 8.07182 16.9679 8.37017C16.9679 8.90055 16.5345 9.33149 16.0209 9.33149C15.6838 9.33149 15.4591 9.16575 15.3307 9C14.7207 8.23757 14.0947 7.8232 13.0995 7.8232C11.9438 7.8232 11.077 8.60221 10.6276 9.8453H13.4848C13.8539 9.8453 14.1589 10.1602 14.1589 10.558C14.1589 10.9392 13.8539 11.2541 13.4848 11.2541H10.3226C10.2905 11.4862 10.2905 11.7348 10.2905 11.9834C10.2905 12.2155 10.2905 12.4309 10.3066 12.6464H13.4848C13.8539 12.6464 14.1589 12.9779 14.1589 13.3591C14.1589 13.7569 13.8539 14.0718 13.4848 14.0718H10.5955C11.0449 15.3978 11.9599 16.1768 13.2279 16.1768C14.191 16.1768 14.817 15.6961 15.427 14.9171C15.5875 14.7182 15.8122 14.5856 16.1172 14.5856C16.5987 14.5856 17 14.9834 17 15.4807Z" fill="#101828"/>
</g>
</svg>
