<svg width="24" height="24" viewBox="0 0 24 24" fill="none" xmlns="http://www.w3.org/2000/svg">
<g id="percentage-square icon">
<path id="Square" fill-rule="evenodd" clip-rule="evenodd" d="M3.37579 3.37579C2.38744 4.36414 1.84615 5.99874 1.84615 8.67692V15.3231C1.84615 18.0013 2.38744 19.6359 3.37579 20.6242C4.36414 21.6126 5.99874 22.1538 8.67692 22.1538H15.3231C18.0013 22.1538 19.6359 21.6126 20.6242 20.6242C21.6126 19.6359 22.1538 18.0013 22.1538 15.3231V8.67692C22.1538 5.99874 21.6126 4.36414 20.6242 3.37579C19.6359 2.38744 18.0013 1.84615 15.3231 1.84615H8.67692C5.99874 1.84615 4.36414 2.38744 3.37579 3.37579ZM2.07036 2.07036C3.57432 0.566401 5.81665 0 8.67692 0H15.3231C18.1834 0 20.4257 0.566401 21.9296 2.07036C23.4336 3.57432 24 5.81665 24 8.67692V15.3231C24 18.1834 23.4336 20.4257 21.9296 21.9296C20.4257 23.4336 18.1834 24 15.3231 24H8.67692C5.81665 24 3.57432 23.4336 2.07036 21.9296C0.566401 20.4257 0 18.1834 0 15.3231V8.67692C0 5.81665 0.566401 3.57432 2.07036 2.07036Z" fill="#101828"/>
<path id="%" fill-rule="evenodd" clip-rule="evenodd" d="M8.26287 8.69231C7.96677 8.69231 7.71429 8.93328 7.71429 9.24573C7.71429 9.55817 7.96675 9.79913 8.26287 9.79913C8.55896 9.79913 8.81141 9.55819 8.81141 9.24573C8.81141 8.93325 8.55893 8.69231 8.26287 8.69231ZM6 9.24573C6 8.01227 7.00625 7 8.26287 7C9.51951 7 10.5257 8.0123 10.5257 9.24573C10.5257 10.4792 9.51948 11.4914 8.26287 11.4914C7.00628 11.4914 6 10.4792 6 9.24573ZM15.8721 8.17834C16.2083 8.50737 16.2106 9.04312 15.8773 9.37497L8.40303 16.8166C8.06973 17.1484 7.52702 17.1507 7.19086 16.8217C6.8547 16.4926 6.85239 15.9569 7.18569 15.625L14.6599 8.18344C14.9932 7.85159 15.5359 7.84931 15.8721 8.17834ZM15.7371 15.2009C15.441 15.2009 15.1886 15.4418 15.1886 15.7543C15.1886 16.0668 15.4411 16.3077 15.7371 16.3077C16.0332 16.3077 16.2857 16.0667 16.2857 15.7543C16.2857 15.4418 16.0333 15.2009 15.7371 15.2009ZM13.4743 15.7543C13.4743 14.5208 14.4805 13.5086 15.7371 13.5086C16.9937 13.5086 18 14.5208 18 15.7543C18 16.9877 16.9937 18 15.7371 18C14.4805 18 13.4743 16.9877 13.4743 15.7543Z" fill="#101828"/>
</g>
</svg>
