<svg width="358" height="76" viewBox="0 0 358 76" fill="none" xmlns="http://www.w3.org/2000/svg">
<path d="M6.516 66.084C6.516 66.78 6.276 67.36 5.796 67.824C5.324 68.28 4.6 68.508 3.624 68.508H2.016V72H0.924V63.636H3.624C4.568 63.636 5.284 63.864 5.772 64.32C6.268 64.776 6.516 65.364 6.516 66.084ZM3.624 67.644C4.224 67.644 4.668 67.508 4.956 67.236C5.252 66.956 5.4 66.572 5.4 66.084C5.4 65.58 5.256 65.192 4.968 64.92C4.68 64.64 4.232 64.5 3.624 64.5H2.016V67.644H3.624ZM10.7412 72.108C10.1252 72.108 9.56522 71.968 9.06122 71.688C8.56522 71.408 8.17322 71.012 7.88522 70.5C7.60522 69.98 7.46522 69.38 7.46522 68.7C7.46522 68.028 7.60922 67.436 7.89722 66.924C8.19322 66.404 8.59322 66.008 9.09722 65.736C9.60122 65.456 10.1652 65.316 10.7892 65.316C11.4132 65.316 11.9772 65.456 12.4812 65.736C12.9852 66.008 13.3812 66.4 13.6692 66.912C13.9652 67.424 14.1132 68.02 14.1132 68.7C14.1132 69.38 13.9612 69.98 13.6572 70.5C13.3612 71.012 12.9572 71.408 12.4452 71.688C11.9332 71.968 11.3652 72.108 10.7412 72.108ZM10.7412 71.184C11.1332 71.184 11.5012 71.092 11.8452 70.908C12.1892 70.716 12.4652 70.432 12.6732 70.056C12.8892 69.68 12.9972 69.228 12.9972 68.7C12.9972 68.172 12.8932 67.724 12.6852 67.356C12.4772 66.98 12.2052 66.7 11.8692 66.516C11.5332 66.332 11.1692 66.24 10.7772 66.24C10.3772 66.24 10.0092 66.332 9.67322 66.516C9.34522 66.7 9.08122 66.98 8.88122 67.356C8.68122 67.724 8.58122 68.172 8.58122 68.7C8.58122 69.236 8.67722 69.692 8.86922 70.068C9.06922 70.436 9.33322 70.716 9.66122 70.908C9.98922 71.092 10.3492 71.184 10.7412 71.184ZM15.141 68.7C15.141 68.02 15.277 67.428 15.549 66.924C15.821 66.412 16.197 66.016 16.677 65.736C17.165 65.456 17.721 65.316 18.345 65.316C19.153 65.316 19.817 65.512 20.337 65.904C20.865 66.296 21.213 66.84 21.381 67.536H20.205C20.093 67.136 19.873 66.82 19.545 66.588C19.225 66.356 18.825 66.24 18.345 66.24C17.721 66.24 17.217 66.456 16.833 66.888C16.449 67.312 16.257 67.916 16.257 68.7C16.257 69.492 16.449 70.104 16.833 70.536C17.217 70.968 17.721 71.184 18.345 71.184C18.825 71.184 19.225 71.072 19.545 70.848C19.865 70.624 20.085 70.304 20.205 69.888H21.381C21.205 70.56 20.853 71.1 20.325 71.508C19.797 71.908 19.137 72.108 18.345 72.108C17.721 72.108 17.165 71.968 16.677 71.688C16.197 71.408 15.821 71.012 15.549 70.5C15.277 69.988 15.141 69.388 15.141 68.7ZM25.7061 72.108C25.0901 72.108 24.5301 71.968 24.0261 71.688C23.5301 71.408 23.1381 71.012 22.8501 70.5C22.5701 69.98 22.4301 69.38 22.4301 68.7C22.4301 68.028 22.5741 67.436 22.8621 66.924C23.1581 66.404 23.5581 66.008 24.0621 65.736C24.5661 65.456 25.1301 65.316 25.7541 65.316C26.3781 65.316 26.9421 65.456 27.4461 65.736C27.9501 66.008 28.3461 66.4 28.6341 66.912C28.9301 67.424 29.0781 68.02 29.0781 68.7C29.0781 69.38 28.9261 69.98 28.6221 70.5C28.3261 71.012 27.9221 71.408 27.4101 71.688C26.8981 71.968 26.3301 72.108 25.7061 72.108ZM25.7061 71.184C26.0981 71.184 26.4661 71.092 26.8101 70.908C27.1541 70.716 27.4301 70.432 27.6381 70.056C27.8541 69.68 27.9621 69.228 27.9621 68.7C27.9621 68.172 27.8581 67.724 27.6501 67.356C27.4421 66.98 27.1701 66.7 26.8341 66.516C26.4981 66.332 26.1341 66.24 25.7421 66.24C25.3421 66.24 24.9741 66.332 24.6381 66.516C24.3101 66.7 24.0461 66.98 23.8461 67.356C23.6461 67.724 23.5461 68.172 23.5461 68.7C23.5461 69.236 23.6421 69.692 23.8341 70.068C24.0341 70.436 24.2981 70.716 24.6261 70.908C24.9541 71.092 25.3141 71.184 25.7061 71.184ZM36.4041 72.108C35.9001 72.108 35.4481 72.024 35.0481 71.856C34.6561 71.68 34.3441 71.44 34.1121 71.136C33.8801 70.824 33.7521 70.468 33.7281 70.068H34.8561C34.8881 70.412 35.0401 70.692 35.3121 70.908C35.5921 71.124 35.9561 71.232 36.4041 71.232C36.8281 71.232 37.1561 71.14 37.3881 70.956C37.6281 70.764 37.7481 70.516 37.7481 70.212C37.7481 69.924 37.6201 69.712 37.3641 69.576C37.1081 69.432 36.7121 69.292 36.1761 69.156C35.6881 69.028 35.2921 68.9 34.9881 68.772C34.6841 68.644 34.4241 68.456 34.2081 68.208C33.9921 67.952 33.8841 67.616 33.8841 67.2C33.8841 66.856 33.9801 66.54 34.1721 66.252C34.3641 65.964 34.6401 65.736 35.0001 65.568C35.3681 65.4 35.7921 65.316 36.2721 65.316C37.0001 65.316 37.5881 65.5 38.0361 65.868C38.4841 66.236 38.7241 66.74 38.7561 67.38H37.6641C37.6401 67.02 37.5001 66.732 37.2441 66.516C36.9961 66.3 36.6601 66.192 36.2361 66.192C35.8361 66.192 35.5201 66.28 35.2881 66.456C35.0641 66.632 34.9521 66.864 34.9521 67.152C34.9521 67.376 35.0241 67.56 35.1681 67.704C35.3121 67.84 35.4881 67.948 35.6961 68.028C35.9041 68.1 36.2001 68.192 36.5841 68.304C37.0641 68.432 37.4481 68.56 37.7361 68.688C38.0241 68.808 38.2721 68.988 38.4801 69.228C38.6881 69.468 38.7921 69.788 38.7921 70.188C38.7921 70.556 38.6921 70.884 38.4921 71.172C38.3001 71.46 38.0241 71.688 37.6641 71.856C37.3041 72.024 36.8841 72.108 36.4041 72.108ZM46.3576 68.436C46.3576 68.636 46.3456 68.852 46.3216 69.084H41.0656C41.0976 69.732 41.3136 70.244 41.7136 70.62C42.1216 70.996 42.6176 71.184 43.2016 71.184C43.6736 71.184 44.0656 71.076 44.3776 70.86C44.6976 70.636 44.9216 70.34 45.0496 69.972H46.2256C46.0496 70.604 45.6976 71.12 45.1696 71.52C44.6416 71.912 43.9856 72.108 43.2016 72.108C42.5776 72.108 42.0176 71.968 41.5216 71.688C41.0336 71.408 40.6496 71.012 40.3696 70.5C40.0896 69.98 39.9496 69.38 39.9496 68.7C39.9496 68.02 40.0856 67.424 40.3576 66.912C40.6296 66.4 41.0096 66.008 41.4976 65.736C41.9936 65.456 42.5616 65.316 43.2016 65.316C43.8256 65.316 44.3736 65.452 44.8456 65.724C45.3256 65.996 45.6976 66.368 45.9616 66.84C46.2256 67.312 46.3576 67.844 46.3576 68.436ZM45.2296 68.292C45.2296 67.86 45.1376 67.492 44.9536 67.188C44.7696 66.876 44.5176 66.64 44.1976 66.48C43.8856 66.32 43.5376 66.24 43.1536 66.24C42.5936 66.24 42.1176 66.424 41.7256 66.792C41.3336 67.152 41.1176 67.652 41.0776 68.292H45.2296ZM51.003 65.304C51.803 65.304 52.451 65.548 52.947 66.036C53.443 66.516 53.691 67.212 53.691 68.124V72H52.611V68.28C52.611 67.624 52.447 67.124 52.119 66.78C51.791 66.428 51.343 66.252 50.775 66.252C50.199 66.252 49.739 66.432 49.395 66.792C49.059 67.152 48.891 67.676 48.891 68.364V72H47.799V65.424H48.891V66.36C49.107 66.024 49.399 65.764 49.767 65.58C50.143 65.396 50.555 65.304 51.003 65.304ZM57.7908 72.108C57.2868 72.108 56.8348 72.024 56.4348 71.856C56.0428 71.68 55.7308 71.44 55.4988 71.136C55.2668 70.824 55.1388 70.468 55.1148 70.068H56.2428C56.2748 70.412 56.4268 70.692 56.6988 70.908C56.9788 71.124 57.3428 71.232 57.7908 71.232C58.2148 71.232 58.5428 71.14 58.7748 70.956C59.0148 70.764 59.1348 70.516 59.1348 70.212C59.1348 69.924 59.0068 69.712 58.7508 69.576C58.4948 69.432 58.0988 69.292 57.5628 69.156C57.0748 69.028 56.6788 68.9 56.3748 68.772C56.0708 68.644 55.8108 68.456 55.5948 68.208C55.3788 67.952 55.2708 67.616 55.2708 67.2C55.2708 66.856 55.3668 66.54 55.5588 66.252C55.7508 65.964 56.0268 65.736 56.3868 65.568C56.7548 65.4 57.1788 65.316 57.6588 65.316C58.3868 65.316 58.9748 65.5 59.4228 65.868C59.8708 66.236 60.1108 66.74 60.1428 67.38H59.0508C59.0268 67.02 58.8868 66.732 58.6308 66.516C58.3828 66.3 58.0468 66.192 57.6228 66.192C57.2228 66.192 56.9068 66.28 56.6748 66.456C56.4508 66.632 56.3388 66.864 56.3388 67.152C56.3388 67.376 56.4108 67.56 56.5548 67.704C56.6988 67.84 56.8748 67.948 57.0828 68.028C57.2908 68.1 57.5868 68.192 57.9708 68.304C58.4508 68.432 58.8348 68.56 59.1228 68.688C59.4108 68.808 59.6588 68.988 59.8668 69.228C60.0748 69.468 60.1788 69.788 60.1788 70.188C60.1788 70.556 60.0788 70.884 59.8788 71.172C59.6868 71.46 59.4108 71.688 59.0508 71.856C58.6908 72.024 58.2708 72.108 57.7908 72.108ZM62.3083 64.356C62.1003 64.356 61.9243 64.284 61.7803 64.14C61.6363 63.996 61.5643 63.82 61.5643 63.612C61.5643 63.404 61.6363 63.228 61.7803 63.084C61.9243 62.94 62.1003 62.868 62.3083 62.868C62.5083 62.868 62.6763 62.94 62.8123 63.084C62.9563 63.228 63.0283 63.404 63.0283 63.612C63.0283 63.82 62.9563 63.996 62.8123 64.14C62.6763 64.284 62.5083 64.356 62.3083 64.356ZM62.8363 65.424V72H61.7443V65.424H62.8363ZM65.7894 66.648C66.0134 66.256 66.3414 65.936 66.7734 65.688C67.2054 65.44 67.6974 65.316 68.2494 65.316C68.8414 65.316 69.3734 65.456 69.8454 65.736C70.3174 66.016 70.6894 66.412 70.9614 66.924C71.2334 67.428 71.3694 68.016 71.3694 68.688C71.3694 69.352 71.2334 69.944 70.9614 70.464C70.6894 70.984 70.3134 71.388 69.8334 71.676C69.3614 71.964 68.8334 72.108 68.2494 72.108C67.6814 72.108 67.1814 71.984 66.7494 71.736C66.3254 71.488 66.0054 71.172 65.7894 70.788V72H64.6974V63.12H65.7894V66.648ZM70.2534 68.688C70.2534 68.192 70.1534 67.76 69.9534 67.392C69.7534 67.024 69.4814 66.744 69.1374 66.552C68.8014 66.36 68.4294 66.264 68.0214 66.264C67.6214 66.264 67.2494 66.364 66.9054 66.564C66.5694 66.756 66.2974 67.04 66.0894 67.416C65.8894 67.784 65.7894 68.212 65.7894 68.7C65.7894 69.196 65.8894 69.632 66.0894 70.008C66.2974 70.376 66.5694 70.66 66.9054 70.86C67.2494 71.052 67.6214 71.148 68.0214 71.148C68.4294 71.148 68.8014 71.052 69.1374 70.86C69.4814 70.66 69.7534 70.376 69.9534 70.008C70.1534 69.632 70.2534 69.192 70.2534 68.688ZM73.8988 63.12V72H72.8068V63.12H73.8988ZM81.7599 68.436C81.7599 68.636 81.7479 68.852 81.7239 69.084H76.4679C76.4999 69.732 76.7159 70.244 77.1159 70.62C77.5239 70.996 78.0199 71.184 78.6039 71.184C79.0759 71.184 79.4679 71.076 79.7799 70.86C80.0999 70.636 80.3239 70.34 80.4519 69.972H81.6279C81.4519 70.604 81.0999 71.12 80.5719 71.52C80.0439 71.912 79.3879 72.108 78.6039 72.108C77.9799 72.108 77.4199 71.968 76.9239 71.688C76.4359 71.408 76.0519 71.012 75.7719 70.5C75.4919 69.98 75.3519 69.38 75.3519 68.7C75.3519 68.02 75.4879 67.424 75.7599 66.912C76.0319 66.4 76.4119 66.008 76.8999 65.736C77.3959 65.456 77.9639 65.316 78.6039 65.316C79.2279 65.316 79.7759 65.452 80.2479 65.724C80.7279 65.996 81.0999 66.368 81.3639 66.84C81.6279 67.312 81.7599 67.844 81.7599 68.436ZM80.6319 68.292C80.6319 67.86 80.5399 67.492 80.3559 67.188C80.1719 66.876 79.9199 66.64 79.5999 66.48C79.2879 66.32 78.9399 66.24 78.5559 66.24C77.9959 66.24 77.5199 66.424 77.1279 66.792C76.7359 67.152 76.5199 67.652 76.4799 68.292H80.6319Z" fill="#112959"/>
<path d="M145.112 70.14H141.464L140.792 72H139.64L142.664 63.684H143.924L146.936 72H145.784L145.112 70.14ZM144.812 69.288L143.288 65.028L141.764 69.288H144.812ZM149.346 63.12V72H148.254V63.12H149.346ZM153.919 65.316C154.487 65.316 154.983 65.44 155.407 65.688C155.839 65.936 156.159 66.248 156.367 66.624V65.424H157.471V72.144C157.471 72.744 157.343 73.276 157.087 73.74C156.831 74.212 156.463 74.58 155.983 74.844C155.511 75.108 154.959 75.24 154.327 75.24C153.463 75.24 152.743 75.036 152.167 74.628C151.591 74.22 151.251 73.664 151.147 72.96H152.227C152.347 73.36 152.595 73.68 152.971 73.92C153.347 74.168 153.799 74.292 154.327 74.292C154.927 74.292 155.415 74.104 155.791 73.728C156.175 73.352 156.367 72.824 156.367 72.144V70.764C156.151 71.148 155.831 71.468 155.407 71.724C154.983 71.98 154.487 72.108 153.919 72.108C153.335 72.108 152.803 71.964 152.323 71.676C151.851 71.388 151.479 70.984 151.207 70.464C150.935 69.944 150.799 69.352 150.799 68.688C150.799 68.016 150.935 67.428 151.207 66.924C151.479 66.412 151.851 66.016 152.323 65.736C152.803 65.456 153.335 65.316 153.919 65.316ZM156.367 68.7C156.367 68.204 156.267 67.772 156.067 67.404C155.867 67.036 155.595 66.756 155.251 66.564C154.915 66.364 154.543 66.264 154.135 66.264C153.727 66.264 153.355 66.36 153.019 66.552C152.683 66.744 152.415 67.024 152.215 67.392C152.015 67.76 151.915 68.192 151.915 68.688C151.915 69.192 152.015 69.632 152.215 70.008C152.415 70.376 152.683 70.66 153.019 70.86C153.355 71.052 153.727 71.148 154.135 71.148C154.543 71.148 154.915 71.052 155.251 70.86C155.595 70.66 155.867 70.376 156.067 70.008C156.267 69.632 156.367 69.196 156.367 68.7ZM162.185 72.108C161.569 72.108 161.009 71.968 160.505 71.688C160.009 71.408 159.617 71.012 159.329 70.5C159.049 69.98 158.909 69.38 158.909 68.7C158.909 68.028 159.053 67.436 159.341 66.924C159.637 66.404 160.037 66.008 160.541 65.736C161.045 65.456 161.609 65.316 162.233 65.316C162.857 65.316 163.421 65.456 163.925 65.736C164.429 66.008 164.825 66.4 165.113 66.912C165.409 67.424 165.557 68.02 165.557 68.7C165.557 69.38 165.405 69.98 165.101 70.5C164.805 71.012 164.401 71.408 163.889 71.688C163.377 71.968 162.809 72.108 162.185 72.108ZM162.185 71.184C162.577 71.184 162.945 71.092 163.289 70.908C163.633 70.716 163.909 70.432 164.117 70.056C164.333 69.68 164.441 69.228 164.441 68.7C164.441 68.172 164.337 67.724 164.129 67.356C163.921 66.98 163.649 66.7 163.313 66.516C162.977 66.332 162.613 66.24 162.221 66.24C161.821 66.24 161.453 66.332 161.117 66.516C160.789 66.7 160.525 66.98 160.325 67.356C160.125 67.724 160.025 68.172 160.025 68.7C160.025 69.236 160.121 69.692 160.313 70.068C160.513 70.436 160.777 70.716 161.105 70.908C161.433 71.092 161.793 71.184 162.185 71.184ZM172.883 72.108C172.379 72.108 171.927 72.024 171.527 71.856C171.135 71.68 170.823 71.44 170.591 71.136C170.359 70.824 170.231 70.468 170.207 70.068H171.335C171.367 70.412 171.519 70.692 171.791 70.908C172.071 71.124 172.435 71.232 172.883 71.232C173.307 71.232 173.635 71.14 173.867 70.956C174.107 70.764 174.227 70.516 174.227 70.212C174.227 69.924 174.099 69.712 173.843 69.576C173.587 69.432 173.191 69.292 172.655 69.156C172.167 69.028 171.771 68.9 171.467 68.772C171.163 68.644 170.903 68.456 170.687 68.208C170.471 67.952 170.363 67.616 170.363 67.2C170.363 66.856 170.459 66.54 170.651 66.252C170.843 65.964 171.119 65.736 171.479 65.568C171.847 65.4 172.271 65.316 172.751 65.316C173.479 65.316 174.067 65.5 174.515 65.868C174.963 66.236 175.203 66.74 175.235 67.38H174.143C174.119 67.02 173.979 66.732 173.723 66.516C173.475 66.3 173.139 66.192 172.715 66.192C172.315 66.192 171.999 66.28 171.767 66.456C171.543 66.632 171.431 66.864 171.431 67.152C171.431 67.376 171.503 67.56 171.647 67.704C171.791 67.84 171.967 67.948 172.175 68.028C172.383 68.1 172.679 68.192 173.063 68.304C173.543 68.432 173.927 68.56 174.215 68.688C174.503 68.808 174.751 68.988 174.959 69.228C175.167 69.468 175.271 69.788 175.271 70.188C175.271 70.556 175.171 70.884 174.971 71.172C174.779 71.46 174.503 71.688 174.143 71.856C173.783 72.024 173.363 72.108 172.883 72.108ZM182.836 68.436C182.836 68.636 182.824 68.852 182.8 69.084H177.544C177.576 69.732 177.792 70.244 178.192 70.62C178.6 70.996 179.096 71.184 179.68 71.184C180.152 71.184 180.544 71.076 180.856 70.86C181.176 70.636 181.4 70.34 181.528 69.972H182.704C182.528 70.604 182.176 71.12 181.648 71.52C181.12 71.912 180.464 72.108 179.68 72.108C179.056 72.108 178.496 71.968 178 71.688C177.512 71.408 177.128 71.012 176.848 70.5C176.568 69.98 176.428 69.38 176.428 68.7C176.428 68.02 176.564 67.424 176.836 66.912C177.108 66.4 177.488 66.008 177.976 65.736C178.472 65.456 179.04 65.316 179.68 65.316C180.304 65.316 180.852 65.452 181.324 65.724C181.804 65.996 182.176 66.368 182.44 66.84C182.704 67.312 182.836 67.844 182.836 68.436ZM181.708 68.292C181.708 67.86 181.616 67.492 181.432 67.188C181.248 66.876 180.996 66.64 180.676 66.48C180.364 66.32 180.016 66.24 179.632 66.24C179.072 66.24 178.596 66.424 178.204 66.792C177.812 67.152 177.596 67.652 177.556 68.292H181.708ZM187.482 65.304C188.282 65.304 188.93 65.548 189.426 66.036C189.922 66.516 190.17 67.212 190.17 68.124V72H189.09V68.28C189.09 67.624 188.926 67.124 188.598 66.78C188.27 66.428 187.822 66.252 187.254 66.252C186.678 66.252 186.218 66.432 185.874 66.792C185.538 67.152 185.37 67.676 185.37 68.364V72H184.278V65.424H185.37V66.36C185.586 66.024 185.878 65.764 186.246 65.58C186.622 65.396 187.034 65.304 187.482 65.304ZM194.269 72.108C193.765 72.108 193.313 72.024 192.913 71.856C192.521 71.68 192.209 71.44 191.977 71.136C191.745 70.824 191.617 70.468 191.593 70.068H192.721C192.753 70.412 192.905 70.692 193.177 70.908C193.457 71.124 193.821 71.232 194.269 71.232C194.693 71.232 195.021 71.14 195.253 70.956C195.493 70.764 195.613 70.516 195.613 70.212C195.613 69.924 195.485 69.712 195.229 69.576C194.973 69.432 194.577 69.292 194.041 69.156C193.553 69.028 193.157 68.9 192.853 68.772C192.549 68.644 192.289 68.456 192.073 68.208C191.857 67.952 191.749 67.616 191.749 67.2C191.749 66.856 191.845 66.54 192.037 66.252C192.229 65.964 192.505 65.736 192.865 65.568C193.233 65.4 193.657 65.316 194.137 65.316C194.865 65.316 195.453 65.5 195.901 65.868C196.349 66.236 196.589 66.74 196.621 67.38H195.529C195.505 67.02 195.365 66.732 195.109 66.516C194.861 66.3 194.525 66.192 194.101 66.192C193.701 66.192 193.385 66.28 193.153 66.456C192.929 66.632 192.817 66.864 192.817 67.152C192.817 67.376 192.889 67.56 193.033 67.704C193.177 67.84 193.353 67.948 193.561 68.028C193.769 68.1 194.065 68.192 194.449 68.304C194.929 68.432 195.313 68.56 195.601 68.688C195.889 68.808 196.137 68.988 196.345 69.228C196.553 69.468 196.657 69.788 196.657 70.188C196.657 70.556 196.557 70.884 196.357 71.172C196.165 71.46 195.889 71.688 195.529 71.856C195.169 72.024 194.749 72.108 194.269 72.108ZM198.787 64.356C198.579 64.356 198.403 64.284 198.259 64.14C198.115 63.996 198.043 63.82 198.043 63.612C198.043 63.404 198.115 63.228 198.259 63.084C198.403 62.94 198.579 62.868 198.787 62.868C198.987 62.868 199.155 62.94 199.291 63.084C199.435 63.228 199.507 63.404 199.507 63.612C199.507 63.82 199.435 63.996 199.291 64.14C199.155 64.284 198.987 64.356 198.787 64.356ZM199.315 65.424V72H198.223V65.424H199.315ZM202.268 66.648C202.492 66.256 202.82 65.936 203.252 65.688C203.684 65.44 204.176 65.316 204.728 65.316C205.32 65.316 205.852 65.456 206.324 65.736C206.796 66.016 207.168 66.412 207.44 66.924C207.712 67.428 207.848 68.016 207.848 68.688C207.848 69.352 207.712 69.944 207.44 70.464C207.168 70.984 206.792 71.388 206.312 71.676C205.84 71.964 205.312 72.108 204.728 72.108C204.16 72.108 203.66 71.984 203.228 71.736C202.804 71.488 202.484 71.172 202.268 70.788V72H201.176V63.12H202.268V66.648ZM206.732 68.688C206.732 68.192 206.632 67.76 206.432 67.392C206.232 67.024 205.96 66.744 205.616 66.552C205.28 66.36 204.908 66.264 204.5 66.264C204.1 66.264 203.728 66.364 203.384 66.564C203.048 66.756 202.776 67.04 202.568 67.416C202.368 67.784 202.268 68.212 202.268 68.7C202.268 69.196 202.368 69.632 202.568 70.008C202.776 70.376 203.048 70.66 203.384 70.86C203.728 71.052 204.1 71.148 204.5 71.148C204.908 71.148 205.28 71.052 205.616 70.86C205.96 70.66 206.232 70.376 206.432 70.008C206.632 69.632 206.732 69.192 206.732 68.688ZM210.377 63.12V72H209.285V63.12H210.377ZM218.238 68.436C218.238 68.636 218.226 68.852 218.202 69.084H212.946C212.978 69.732 213.194 70.244 213.594 70.62C214.002 70.996 214.498 71.184 215.082 71.184C215.554 71.184 215.946 71.076 216.258 70.86C216.578 70.636 216.802 70.34 216.93 69.972H218.106C217.93 70.604 217.578 71.12 217.05 71.52C216.522 71.912 215.866 72.108 215.082 72.108C214.458 72.108 213.898 71.968 213.402 71.688C212.914 71.408 212.53 71.012 212.25 70.5C211.97 69.98 211.83 69.38 211.83 68.7C211.83 68.02 211.966 67.424 212.238 66.912C212.51 66.4 212.89 66.008 213.378 65.736C213.874 65.456 214.442 65.316 215.082 65.316C215.706 65.316 216.254 65.452 216.726 65.724C217.206 65.996 217.578 66.368 217.842 66.84C218.106 67.312 218.238 67.844 218.238 68.436ZM217.11 68.292C217.11 67.86 217.018 67.492 216.834 67.188C216.65 66.876 216.398 66.64 216.078 66.48C215.766 66.32 215.418 66.24 215.034 66.24C214.474 66.24 213.998 66.424 213.606 66.792C213.214 67.152 212.998 67.652 212.958 68.292H217.11Z" fill="#98A2B3"/>
<path d="M289.947 63.696V72H288.855V65.808L286.095 72H285.327L282.555 65.82V72H281.463V63.696H282.639L285.711 70.56L288.783 63.696H289.947ZM297.631 65.424V72H296.539V71.028C296.331 71.364 296.039 71.628 295.663 71.82C295.295 72.004 294.887 72.096 294.439 72.096C293.927 72.096 293.467 71.992 293.059 71.784C292.651 71.568 292.327 71.248 292.087 70.824C291.855 70.4 291.739 69.884 291.739 69.276V65.424H292.819V69.132C292.819 69.78 292.983 70.28 293.311 70.632C293.639 70.976 294.087 71.148 294.655 71.148C295.239 71.148 295.699 70.968 296.035 70.608C296.371 70.248 296.539 69.724 296.539 69.036V65.424H297.631ZM299.919 65.424L301.959 70.728L304.011 65.424H305.139L301.179 75.096H300.039L301.347 71.928L298.695 65.424H299.919ZM312.127 72.108C311.623 72.108 311.171 72.024 310.771 71.856C310.379 71.68 310.067 71.44 309.835 71.136C309.603 70.824 309.475 70.468 309.451 70.068H310.579C310.611 70.412 310.763 70.692 311.035 70.908C311.315 71.124 311.679 71.232 312.127 71.232C312.551 71.232 312.879 71.14 313.111 70.956C313.351 70.764 313.471 70.516 313.471 70.212C313.471 69.924 313.343 69.712 313.087 69.576C312.831 69.432 312.435 69.292 311.899 69.156C311.411 69.028 311.015 68.9 310.711 68.772C310.407 68.644 310.147 68.456 309.931 68.208C309.715 67.952 309.607 67.616 309.607 67.2C309.607 66.856 309.703 66.54 309.895 66.252C310.087 65.964 310.363 65.736 310.723 65.568C311.091 65.4 311.515 65.316 311.995 65.316C312.723 65.316 313.311 65.5 313.759 65.868C314.207 66.236 314.447 66.74 314.479 67.38H313.387C313.363 67.02 313.223 66.732 312.967 66.516C312.719 66.3 312.383 66.192 311.959 66.192C311.559 66.192 311.243 66.28 311.011 66.456C310.787 66.632 310.675 66.864 310.675 67.152C310.675 67.376 310.747 67.56 310.891 67.704C311.035 67.84 311.211 67.948 311.419 68.028C311.627 68.1 311.923 68.192 312.307 68.304C312.787 68.432 313.171 68.56 313.459 68.688C313.747 68.808 313.995 68.988 314.203 69.228C314.411 69.468 314.515 69.788 314.515 70.188C314.515 70.556 314.415 70.884 314.215 71.172C314.023 71.46 313.747 71.688 313.387 71.856C313.027 72.024 312.607 72.108 312.127 72.108ZM322.08 68.436C322.08 68.636 322.068 68.852 322.044 69.084H316.788C316.82 69.732 317.036 70.244 317.436 70.62C317.844 70.996 318.34 71.184 318.924 71.184C319.396 71.184 319.788 71.076 320.1 70.86C320.42 70.636 320.644 70.34 320.772 69.972H321.948C321.772 70.604 321.42 71.12 320.892 71.52C320.364 71.912 319.708 72.108 318.924 72.108C318.3 72.108 317.74 71.968 317.244 71.688C316.756 71.408 316.372 71.012 316.092 70.5C315.812 69.98 315.672 69.38 315.672 68.7C315.672 68.02 315.808 67.424 316.08 66.912C316.352 66.4 316.732 66.008 317.22 65.736C317.716 65.456 318.284 65.316 318.924 65.316C319.548 65.316 320.096 65.452 320.568 65.724C321.048 65.996 321.42 66.368 321.684 66.84C321.948 67.312 322.08 67.844 322.08 68.436ZM320.952 68.292C320.952 67.86 320.86 67.492 320.676 67.188C320.492 66.876 320.24 66.64 319.92 66.48C319.608 66.32 319.26 66.24 318.876 66.24C318.316 66.24 317.84 66.424 317.448 66.792C317.056 67.152 316.84 67.652 316.8 68.292H320.952ZM326.726 65.304C327.526 65.304 328.174 65.548 328.67 66.036C329.166 66.516 329.414 67.212 329.414 68.124V72H328.334V68.28C328.334 67.624 328.17 67.124 327.842 66.78C327.514 66.428 327.066 66.252 326.498 66.252C325.922 66.252 325.462 66.432 325.118 66.792C324.782 67.152 324.614 67.676 324.614 68.364V72H323.522V65.424H324.614V66.36C324.83 66.024 325.122 65.764 325.49 65.58C325.866 65.396 326.278 65.304 326.726 65.304ZM333.513 72.108C333.009 72.108 332.557 72.024 332.157 71.856C331.765 71.68 331.453 71.44 331.221 71.136C330.989 70.824 330.861 70.468 330.837 70.068H331.965C331.997 70.412 332.149 70.692 332.421 70.908C332.701 71.124 333.065 71.232 333.513 71.232C333.937 71.232 334.265 71.14 334.497 70.956C334.737 70.764 334.857 70.516 334.857 70.212C334.857 69.924 334.729 69.712 334.473 69.576C334.217 69.432 333.821 69.292 333.285 69.156C332.797 69.028 332.401 68.9 332.097 68.772C331.793 68.644 331.533 68.456 331.317 68.208C331.101 67.952 330.993 67.616 330.993 67.2C330.993 66.856 331.089 66.54 331.281 66.252C331.473 65.964 331.749 65.736 332.109 65.568C332.477 65.4 332.901 65.316 333.381 65.316C334.109 65.316 334.697 65.5 335.145 65.868C335.593 66.236 335.833 66.74 335.865 67.38H334.773C334.749 67.02 334.609 66.732 334.353 66.516C334.105 66.3 333.769 66.192 333.345 66.192C332.945 66.192 332.629 66.28 332.397 66.456C332.173 66.632 332.061 66.864 332.061 67.152C332.061 67.376 332.133 67.56 332.277 67.704C332.421 67.84 332.597 67.948 332.805 68.028C333.013 68.1 333.309 68.192 333.693 68.304C334.173 68.432 334.557 68.56 334.845 68.688C335.133 68.808 335.381 68.988 335.589 69.228C335.797 69.468 335.901 69.788 335.901 70.188C335.901 70.556 335.801 70.884 335.601 71.172C335.409 71.46 335.133 71.688 334.773 71.856C334.413 72.024 333.993 72.108 333.513 72.108ZM338.031 64.356C337.823 64.356 337.647 64.284 337.503 64.14C337.359 63.996 337.287 63.82 337.287 63.612C337.287 63.404 337.359 63.228 337.503 63.084C337.647 62.94 337.823 62.868 338.031 62.868C338.231 62.868 338.399 62.94 338.535 63.084C338.679 63.228 338.751 63.404 338.751 63.612C338.751 63.82 338.679 63.996 338.535 64.14C338.399 64.284 338.231 64.356 338.031 64.356ZM338.559 65.424V72H337.467V65.424H338.559ZM341.512 66.648C341.736 66.256 342.064 65.936 342.496 65.688C342.928 65.44 343.42 65.316 343.972 65.316C344.564 65.316 345.096 65.456 345.568 65.736C346.04 66.016 346.412 66.412 346.684 66.924C346.956 67.428 347.092 68.016 347.092 68.688C347.092 69.352 346.956 69.944 346.684 70.464C346.412 70.984 346.036 71.388 345.556 71.676C345.084 71.964 344.556 72.108 343.972 72.108C343.404 72.108 342.904 71.984 342.472 71.736C342.048 71.488 341.728 71.172 341.512 70.788V72H340.42V63.12H341.512V66.648ZM345.976 68.688C345.976 68.192 345.876 67.76 345.676 67.392C345.476 67.024 345.204 66.744 344.86 66.552C344.524 66.36 344.152 66.264 343.744 66.264C343.344 66.264 342.972 66.364 342.628 66.564C342.292 66.756 342.02 67.04 341.812 67.416C341.612 67.784 341.512 68.212 341.512 68.7C341.512 69.196 341.612 69.632 341.812 70.008C342.02 70.376 342.292 70.66 342.628 70.86C342.972 71.052 343.344 71.148 343.744 71.148C344.152 71.148 344.524 71.052 344.86 70.86C345.204 70.66 345.476 70.376 345.676 70.008C345.876 69.632 345.976 69.192 345.976 68.688ZM349.621 63.12V72H348.529V63.12H349.621ZM357.483 68.436C357.483 68.636 357.471 68.852 357.447 69.084H352.191C352.223 69.732 352.439 70.244 352.839 70.62C353.247 70.996 353.743 71.184 354.327 71.184C354.799 71.184 355.191 71.076 355.503 70.86C355.823 70.636 356.047 70.34 356.175 69.972H357.351C357.175 70.604 356.823 71.12 356.295 71.52C355.767 71.912 355.111 72.108 354.327 72.108C353.703 72.108 353.143 71.968 352.647 71.688C352.159 71.408 351.775 71.012 351.495 70.5C351.215 69.98 351.075 69.38 351.075 68.7C351.075 68.02 351.211 67.424 351.483 66.912C351.755 66.4 352.135 66.008 352.623 65.736C353.119 65.456 353.687 65.316 354.327 65.316C354.951 65.316 355.499 65.452 355.971 65.724C356.451 65.996 356.823 66.368 357.087 66.84C357.351 67.312 357.483 67.844 357.483 68.436ZM356.355 68.292C356.355 67.86 356.263 67.492 356.079 67.188C355.895 66.876 355.643 66.64 355.323 66.48C355.011 66.32 354.663 66.24 354.279 66.24C353.719 66.24 353.243 66.424 352.851 66.792C352.459 67.152 352.243 67.652 352.203 68.292H356.355Z" fill="#98A2B3"/>
<path d="M13.3333 48C13.3333 49.4728 14.5272 50.6667 16 50.6667C17.4728 50.6667 18.6667 49.4728 18.6667 48C18.6667 46.5272 17.4728 45.3333 16 45.3333C14.5272 45.3333 13.3333 46.5272 13.3333 48ZM339.333 48C339.333 49.4728 340.527 50.6667 342 50.6667C343.473 50.6667 344.667 49.4728 344.667 48C344.667 46.5272 343.473 45.3333 342 45.3333C340.527 45.3333 339.333 46.5272 339.333 48ZM16 48.5H342V47.5H16V48.5Z" fill="#D0D5DD"/>
<circle cx="48" cy="16" r="16" fill="url(#paint0_radial_3002_12425)"/>
<line x1="179.5" y1="40" x2="179.5" y2="48" stroke="#D0D5DD"/>
<defs>
<radialGradient id="paint0_radial_3002_12425" cx="0" cy="0" r="1" gradientUnits="userSpaceOnUse" gradientTransform="translate(48 16) rotate(90) scale(16)">
<stop stop-color="#23D9B7" stop-opacity="0.3"/>
<stop offset="1" stop-color="#23D9B7"/>
</radialGradient>
</defs>
</svg>
