<svg width="64" height="64" viewBox="0 0 64 64" fill="none" xmlns="http://www.w3.org/2000/svg">
<g id="acne">
<path id="Vector" d="M18.6667 32C17.0844 32 15.5377 31.5308 14.2221 30.6518C12.9065 29.7727 11.8811 28.5233 11.2756 27.0615C10.6701 25.5997 10.5117 23.9911 10.8204 22.4393C11.1291 20.8874 11.891 19.462 13.0098 18.3432C14.1286 17.2243 15.5541 16.4624 17.1059 16.1537C18.6578 15.845 20.2663 16.0035 21.7281 16.609C23.1899 17.2145 24.4394 18.2398 25.3184 19.5554C26.1975 20.871 26.6667 22.4178 26.6667 24C26.6649 26.1212 25.8215 28.155 24.3216 29.6549C22.8217 31.1548 20.7879 31.9982 18.6667 32ZM18.6667 20.004C17.8755 20.004 17.1022 20.2386 16.4444 20.6781C15.7866 21.1176 15.2739 21.7424 14.9711 22.4733C14.6684 23.2042 14.5892 24.0084 14.7435 24.7844C14.8979 25.5603 15.2788 26.273 15.8382 26.8324C16.3976 27.3918 17.1104 27.7728 17.8863 27.9271C18.6622 28.0815 19.4665 28.0023 20.1974 27.6995C20.9283 27.3968 21.553 26.8841 21.9925 26.2263C22.4321 25.5685 22.6667 24.7951 22.6667 24.004C22.6672 23.4784 22.5641 22.9578 22.3633 22.472C22.1625 21.9863 21.868 21.5449 21.4965 21.173C21.125 20.8011 20.6839 20.5061 20.1983 20.3049C19.7128 20.1036 19.1923 20 18.6667 20V20.004Z" fill="#23D9B7"/>
<path id="Vector_2" d="M48 61.3333C45.3629 61.3333 42.7851 60.5513 40.5924 59.0862C38.3998 57.6211 36.6908 55.5387 35.6816 53.1024C34.6724 50.6661 34.4084 47.9852 34.9229 45.3987C35.4373 42.8123 36.7072 40.4366 38.5719 38.5719C40.4366 36.7072 42.8124 35.4373 45.3988 34.9228C47.9852 34.4084 50.6661 34.6724 53.1024 35.6816C55.5388 36.6907 57.6212 38.3997 59.0863 40.5924C60.5514 42.785 61.3333 45.3629 61.3333 48C61.3301 51.5352 59.9243 54.9247 57.4245 57.4245C54.9247 59.9242 51.5352 61.3301 48 61.3333ZM48 41.34C46.6815 41.34 45.3925 41.731 44.2962 42.4635C43.1999 43.196 42.3454 44.2372 41.8408 45.4554C41.3362 46.6736 41.2042 48.014 41.4614 49.3072C41.7187 50.6004 42.3536 51.7883 43.286 52.7207C44.2183 53.653 45.4062 54.2879 46.6994 54.5452C47.9926 54.8024 49.3331 54.6704 50.5512 54.1658C51.7694 53.6612 52.8106 52.8068 53.5431 51.7104C54.2757 50.6141 54.6667 49.3252 54.6667 48.0066C54.6667 46.2385 53.9643 44.5428 52.714 43.2926C51.4638 42.0423 49.7681 41.34 48 41.34Z" fill="#23D9B7"/>
<path id="Vector_3" d="M8 56C6.94517 56 5.91402 55.6872 5.03696 55.1012C4.1599 54.5152 3.47631 53.6822 3.07264 52.7077C2.66897 51.7331 2.56336 50.6608 2.76914 49.6262C2.97493 48.5917 3.48288 47.6414 4.22876 46.8955C4.97464 46.1496 5.92495 45.6416 6.95952 45.4359C7.99408 45.2301 9.06643 45.3357 10.041 45.7393C11.0155 46.143 11.8485 46.8266 12.4345 47.7037C13.0205 48.5807 13.3333 49.6119 13.3333 50.6667C13.332 52.0808 12.7697 53.4366 11.7698 54.4365C10.7699 55.4364 9.41409 55.9987 8 56ZM8 48.0027C7.47258 48.0027 6.95701 48.1591 6.51848 48.4521C6.07995 48.7451 5.73816 49.1616 5.53632 49.6489C5.33449 50.1362 5.28168 50.6723 5.38457 51.1896C5.48747 51.7069 5.74144 52.1821 6.11438 52.555C6.48732 52.9279 6.96248 53.1819 7.47976 53.2848C7.99704 53.3877 8.53322 53.3349 9.02049 53.1331C9.50776 52.9312 9.92423 52.5894 10.2172 52.1509C10.5103 51.7124 10.6667 51.1968 10.6667 50.6694C10.6667 49.9621 10.3857 49.2839 9.88562 48.7838C9.38552 48.2837 8.70724 48.0027 8 48.0027Z" fill="#23D9B7"/>
<path id="Vector_4" d="M45.3333 24C43.2237 24 41.1614 23.3744 39.4073 22.2023C37.6531 21.0302 36.286 19.3643 35.4786 17.4153C34.6713 15.4662 34.4601 13.3215 34.8716 11.2523C35.2832 9.18321 36.2991 7.28259 37.7909 5.79083C39.2826 4.29907 41.1832 3.28316 43.2524 2.87159C45.3215 2.46001 47.4662 2.67125 49.4153 3.47859C51.3644 4.28592 53.0303 5.65309 54.2023 7.40722C55.3744 9.16134 56 11.2236 56 13.3333C55.9977 16.1615 54.8731 18.8733 52.8732 20.8732C50.8733 22.873 48.1616 23.9976 45.3333 24ZM45.3333 7.99996C44.2785 7.99996 43.2474 8.31276 42.3703 8.89879C41.4932 9.48483 40.8097 10.3178 40.406 11.2923C40.0023 12.2669 39.8967 13.3392 40.1025 14.3738C40.3083 15.4083 40.8162 16.3587 41.5621 17.1045C42.308 17.8504 43.2583 18.3584 44.2929 18.5642C45.3274 18.7699 46.3998 18.6643 47.3743 18.2607C48.3489 17.857 49.1818 17.1734 49.7678 16.2963C50.3539 15.4193 50.6667 14.3881 50.6667 13.3333C50.6667 11.9188 50.1048 10.5623 49.1046 9.56207C48.1044 8.56187 46.7478 7.99996 45.3333 7.99996Z" fill="#23D9B7"/>
</g>
</svg>
