<svg width="64" height="64" viewBox="0 0 64 64" fill="none" xmlns="http://www.w3.org/2000/svg">
<g id="Firmeza">
<path id="Vector (Stroke)" fill-rule="evenodd" clip-rule="evenodd" d="M0.406464 48.3905C0.66672 48.1405 1.0197 48 1.38776 48H62.6122C62.9803 48 63.3333 48.1405 63.5935 48.3905C63.8538 48.6406 64 48.9797 64 49.3333C64 49.687 63.8538 50.0261 63.5935 50.2761C63.3333 50.5262 62.9803 50.6667 62.6122 50.6667H1.38776C1.0197 50.6667 0.66672 50.5262 0.406464 50.2761C0.146209 50.0261 0 49.687 0 49.3333C0 48.9797 0.146209 48.6406 0.406464 48.3905Z" fill="#23D9B7"/>
<path id="Vector (Stroke)_2" d="M21.7277 27.87C23.9944 23.8136 27.8223 21.3334 32 21.3334C36.1777 21.3334 40.0056 23.8136 42.2723 27.87C44.5778 31.9958 48.8366 34.5456 53.3737 34.5456H62.6122C62.9803 34.5456 63.3333 34.6924 63.5935 34.9538C63.8538 35.2152 64 35.5698 64 35.9395C64 36.3092 63.8538 36.6637 63.5935 36.9251C63.3333 37.1865 62.9803 37.3334 62.6122 37.3334H53.3737C47.8149 37.3334 42.6395 34.2232 39.8521 29.2348C38.0396 25.9909 35.0894 24.1212 32 24.1212C28.9107 24.1212 25.9614 25.9908 24.1481 29.2348C21.3605 34.2232 16.1834 37.3334 10.6263 37.3334H1.38776C1.0197 37.3334 0.666717 37.1865 0.406464 36.9251C0.14621 36.6637 0 36.3092 0 35.9395C0 35.5698 0.146209 35.2152 0.406464 34.9538C0.66672 34.6924 1.0197 34.5456 1.38776 34.5456H10.6263C15.1632 34.5456 19.4222 31.9958 21.7277 27.87Z" fill="#23D9B7"/>
<g id="Vector">
<path fill-rule="evenodd" clip-rule="evenodd" d="M5.23094 13.3334C5.41942 13.3326 5.60618 13.3692 5.78044 13.441C5.95471 13.5128 6.11304 13.6184 6.2463 13.7517C6.37956 13.885 6.48511 14.0433 6.55686 14.2176C6.62861 14.3919 6.66514 14.5787 6.66435 14.7671C6.66356 14.9556 6.62547 15.1421 6.55226 15.3157C6.47947 15.4884 6.37342 15.645 6.24016 15.7767L2.43679 19.5811C2.30431 19.7138 2.14636 19.8196 1.97315 19.8914C1.79967 19.9633 1.6137 20.0002 1.42592 20C1.14374 19.9996 0.867668 19.9156 0.633217 19.7585C0.398767 19.6015 0.216107 19.3785 0.108303 19.1177C0.000498434 18.857 -0.0276155 18.5701 0.0275115 18.2933C0.0826321 18.0166 0.218502 17.7624 0.417966 17.5629L4.22103 13.7576C4.35279 13.6242 4.50953 13.5181 4.68231 13.4454C4.856 13.3722 5.04247 13.3341 5.23094 13.3334Z" fill="#23D9B7"/>
<path d="M0.890538 17.4373C1.06791 17.3656 1.25792 17.3303 1.44922 17.3336C1.64053 17.3369 1.82921 17.3787 2.00402 17.4564C2.17471 17.5324 2.32875 17.6412 2.45741 17.7765L6.24903 21.5679C6.44823 21.7671 6.58396 22.0211 6.63891 22.2974C6.69386 22.5737 6.66565 22.8602 6.55783 23.1205C6.45002 23.3808 6.26745 23.6033 6.03321 23.7598C5.79897 23.9164 5.52356 24 5.24181 24C5.05461 24.0002 4.86923 23.9633 4.69628 23.8917C4.52344 23.82 4.36643 23.715 4.23424 23.5826L0.443823 19.7914C0.30849 19.663 0.199678 19.5091 0.123614 19.3386C0.04566 19.1639 0.00369894 18.9752 0.000233706 18.7839C-0.00323153 18.5926 0.0318698 18.4026 0.103444 18.2252C0.175018 18.0477 0.281599 17.8865 0.416828 17.7512C0.552059 17.6158 0.713166 17.5091 0.890538 17.4373Z" fill="#23D9B7"/>
<path fill-rule="evenodd" clip-rule="evenodd" d="M0.325304 17.7239C0.533592 17.4739 0.816092 17.3334 1.11066 17.3334H14.8893C15.1839 17.3334 15.4664 17.4739 15.6747 17.7239C15.883 17.9739 16 18.3131 16 18.6667C16 19.0203 15.883 19.3595 15.6747 19.6095C15.4664 19.8596 15.1839 20 14.8893 20H1.11066C0.816094 20 0.533593 19.8596 0.325304 19.6095C0.117015 19.3595 0 19.0203 0 18.6667C0 18.3131 0.117016 17.9739 0.325304 17.7239Z" fill="#23D9B7"/>
</g>
<g id="Vector_2">
<path fill-rule="evenodd" clip-rule="evenodd" d="M58.7691 13.3334C58.5806 13.3326 58.3938 13.3692 58.2196 13.441C58.0453 13.5128 57.887 13.6184 57.7537 13.7517C57.6204 13.885 57.5149 14.0433 57.4431 14.2176C57.3714 14.3919 57.3349 14.5787 57.3356 14.7671C57.3364 14.9556 57.3745 15.1421 57.4477 15.3157C57.5205 15.4884 57.6266 15.645 57.7598 15.7767L61.5632 19.5811C61.6957 19.7138 61.8536 19.8196 62.0268 19.8914C62.2003 19.9633 62.3863 20.0002 62.5741 20C62.8563 19.9996 63.1323 19.9156 63.3668 19.7585C63.6012 19.6015 63.7839 19.3785 63.8917 19.1177C63.9995 18.857 64.0276 18.5701 63.9725 18.2933C63.9174 18.0166 63.7815 17.7624 63.582 17.5629L59.779 13.7576C59.6472 13.6242 59.4905 13.5181 59.3177 13.4454C59.144 13.3722 58.9575 13.3341 58.7691 13.3334Z" fill="#23D9B7"/>
<path d="M63.1095 17.4373C62.9321 17.3656 62.7421 17.3303 62.5508 17.3336C62.3595 17.3369 62.1708 17.3787 61.996 17.4564C61.8253 17.5324 61.6713 17.6412 61.5426 17.7765L57.751 21.5679C57.5518 21.7671 57.416 22.0211 57.3611 22.2974C57.3061 22.5737 57.3344 22.8602 57.4422 23.1205C57.55 23.3808 57.7325 23.6033 57.9668 23.7598C58.201 23.9164 58.4764 24 58.7582 24C58.9454 24.0002 59.1308 23.9633 59.3037 23.8917C59.4766 23.82 59.6336 23.715 59.7658 23.5826L63.5562 19.7914C63.6915 19.663 63.8003 19.5091 63.8764 19.3386C63.9543 19.1639 63.9963 18.9752 63.9998 18.7839C64.0032 18.5926 63.9681 18.4026 63.8966 18.2252C63.825 18.0477 63.7184 17.8865 63.5832 17.7512C63.4479 17.6158 63.2868 17.5091 63.1095 17.4373Z" fill="#23D9B7"/>
<path fill-rule="evenodd" clip-rule="evenodd" d="M63.6747 17.7239C63.4664 17.4739 63.1839 17.3334 62.8893 17.3334H49.1107C48.8161 17.3334 48.5336 17.4739 48.3253 17.7239C48.117 17.9739 48 18.3131 48 18.6667C48 19.0203 48.117 19.3595 48.3253 19.6095C48.5336 19.8596 48.8161 20 49.1107 20H62.8893C63.1839 20 63.4664 19.8596 63.6747 19.6095C63.883 19.3595 64 19.0203 64 18.6667C64 18.3131 63.883 17.9739 63.6747 17.7239Z" fill="#23D9B7"/>
</g>
</g>
</svg>
