<svg width="64" height="64" viewBox="0 0 64 64" fill="none" xmlns="http://www.w3.org/2000/svg">
<g id="lineas">
<path id="Vector" d="M62.4327 50.9425C60.3429 50.9425 58.5143 52.0459 57.4694 53.7011C56.6857 54.8046 56.1633 55.3563 54.8571 55.3563C53.551 55.3563 53.0286 54.8046 52.2449 53.977C51.7224 53.4252 51.4612 52.8735 50.6775 52.3218C49.3714 51.2183 47.8041 50.9425 45.9755 51.2183C44.4082 51.4942 42.8408 52.5977 42.0571 53.7011C41.2735 54.8046 40.751 55.3563 39.4449 55.3563C38.1388 55.3563 37.6163 54.8046 36.8327 53.977C36.5714 53.1494 36.049 52.5977 35.5265 52.0459C34.2204 50.9425 32.6531 50.6666 30.8245 50.9425C29.2571 51.2183 27.6898 52.3218 26.9061 53.4252C26.1224 54.2528 25.6 55.0804 24.2939 55.0804C23.249 55.0804 22.4653 54.5287 21.6816 53.4252C20.3755 51.7701 18.5469 50.6666 16.7184 50.6666C14.6286 50.6666 12.8 51.7701 11.7551 53.4252C10.9714 54.5287 10.449 55.0804 9.14286 55.0804C7.83673 55.0804 7.31429 54.5287 6.53061 53.4252C5.22449 51.7701 3.39592 50.6666 1.56735 50.6666C0.783673 50.9425 0 51.7701 0 52.5977C0 53.7011 0.783673 54.2528 1.56735 54.2528C2.61224 54.2528 3.39592 54.8046 4.17959 55.908C5.48571 57.5632 7.31429 58.6666 9.14286 58.6666C11.2327 58.6666 13.0612 57.5632 14.1061 55.908C14.8898 55.0804 15.4122 54.2528 16.7184 54.2528C17.7633 54.2528 18.5469 54.8046 19.3306 55.908C20.6367 57.5632 22.4653 58.6666 24.2939 58.6666C26.3837 58.6666 28.2122 57.5632 29.2571 55.908C30.0408 54.8046 30.5633 54.2528 31.8694 54.2528C33.1755 54.2528 33.698 54.8046 34.4816 55.6321C35.0041 56.1839 35.2653 56.7356 36.049 57.2873C37.0939 58.1149 38.4 58.3908 39.7061 58.3908C39.9673 58.3908 40.4898 58.3908 40.751 58.3908C42.3184 58.1149 43.8857 57.0115 44.6694 55.908C45.4531 54.8046 45.9755 54.2528 47.2816 54.2528C48.5878 54.2528 49.1102 54.8046 49.8939 55.908C51.2 57.5632 53.0286 58.6666 54.8571 58.6666C56.9469 58.6666 58.7755 57.5632 59.8204 55.908C60.6041 55.0804 61.1265 54.2528 62.4327 54.2528C63.4776 54.2528 64 53.4252 64 52.5977C64 51.7701 63.2163 50.9425 62.4327 50.9425Z" fill="#23D9B7"/>
<path id="Vector_2" d="M1.56735 40H10.9714C16.4571 40 21.6816 37.361 25.3388 33.1387C25.8612 32.6109 26.1224 32.0831 26.6449 31.8192C28.4735 30.4997 30.5633 29.708 32.9143 29.9719C35.2653 30.2358 37.0939 31.2914 38.6612 33.1387C42.0571 37.6249 47.2816 40 53.0286 40H62.4327C63.4776 40 64 39.2083 64 38.4166C64 37.361 63.2163 36.8332 62.4327 36.8332H53.0286C48.3265 36.8332 44.1469 34.722 41.2735 31.0275C40.751 30.2358 39.9673 29.708 39.4449 29.1802C34.4816 25.2218 26.9061 26.0135 22.9878 31.0275C19.8531 34.722 15.6735 36.8332 11.2327 36.8332H1.56735C0.783673 36.8332 0 37.6249 0 38.4166C0 39.4722 0.783673 40 1.56735 40Z" fill="#23D9B7"/>
<g id="Vector_3">
<path fill-rule="evenodd" clip-rule="evenodd" d="M53.3333 21.4357C53.334 21.2472 53.2975 21.0604 53.2257 20.8862C53.1539 20.7119 53.0483 20.5536 52.915 20.4203C52.7817 20.2871 52.6234 20.1815 52.4491 20.1098C52.2748 20.038 52.088 20.0015 51.8996 20.0023C51.7111 20.0031 51.5246 20.0412 51.3509 20.1144C51.1783 20.1872 51.0216 20.2932 50.89 20.4265L47.0856 24.2298C46.9529 24.3623 46.847 24.5203 46.7753 24.6935C46.7034 24.867 46.6665 25.0529 46.6666 25.2407C46.6671 25.5229 46.7511 25.799 46.9082 26.0334C47.0652 26.2679 47.2882 26.4505 47.549 26.5583C47.8097 26.6661 48.0966 26.6942 48.3734 26.6391C48.6501 26.584 48.9042 26.4481 49.1038 26.2487L52.9091 22.4456C53.0425 22.3138 53.1486 22.1571 53.2213 21.9843C53.2945 21.8106 53.3326 21.6242 53.3333 21.4357Z" fill="#23D9B7"/>
<path d="M49.2294 25.7761C49.3011 25.5987 49.3364 25.4087 49.3331 25.2174C49.3298 25.0261 49.288 24.8374 49.2102 24.6626C49.1343 24.4919 49.0255 24.3379 48.8902 24.2092L45.0988 20.4176C44.8996 20.2184 44.6456 20.0827 44.3693 20.0277C44.0929 19.9728 43.8065 20.001 43.5462 20.1088C43.2859 20.2166 43.0634 20.3992 42.9069 20.6334C42.7503 20.8677 42.6667 21.1431 42.6666 21.4248C42.6665 21.612 42.7034 21.7974 42.775 21.9703C42.8467 22.1432 42.9517 22.3002 43.0841 22.4324L46.8753 26.2228C47.0037 26.3581 47.1576 26.4669 47.3281 26.543C47.5028 26.621 47.6914 26.6629 47.8827 26.6664C48.074 26.6699 48.2641 26.6348 48.4415 26.5632C48.619 26.4916 48.7802 26.385 48.9155 26.2498C49.0509 26.1146 49.1576 25.9535 49.2294 25.7761Z" fill="#23D9B7"/>
<path fill-rule="evenodd" clip-rule="evenodd" d="M48.9428 26.3413C49.1928 26.133 49.3333 25.8505 49.3333 25.556L49.3333 11.7773C49.3333 11.4827 49.1928 11.2002 48.9428 10.9919C48.6927 10.7836 48.3536 10.6666 48 10.6666C47.6464 10.6666 47.3072 10.7836 47.0572 10.9919C46.8071 11.2002 46.6666 11.4827 46.6666 11.7773L46.6666 25.556C46.6666 25.8505 46.8071 26.133 47.0572 26.3413C47.3072 26.5496 47.6464 26.6666 48 26.6666C48.3536 26.6666 48.6927 26.5496 48.9428 26.3413Z" fill="#23D9B7"/>
</g>
<g id="Vector_4">
<path fill-rule="evenodd" clip-rule="evenodd" d="M21.3333 21.4357C21.334 21.2472 21.2975 21.0604 21.2257 20.8862C21.1539 20.7119 21.0483 20.5536 20.915 20.4203C20.7817 20.2871 20.6234 20.1815 20.4491 20.1098C20.2748 20.038 20.088 20.0015 19.8996 20.0023C19.7111 20.0031 19.5246 20.0412 19.3509 20.1144C19.1783 20.1872 19.0216 20.2932 18.89 20.4265L15.0856 24.2298C14.9529 24.3623 14.847 24.5203 14.7753 24.6935C14.7034 24.867 14.6665 25.0529 14.6666 25.2407C14.6671 25.5229 14.7511 25.799 14.9082 26.0334C15.0652 26.2679 15.2882 26.4505 15.549 26.5583C15.8097 26.6661 16.0966 26.6942 16.3734 26.6391C16.6501 26.584 16.9042 26.4481 17.1038 26.2487L20.9091 22.4456C21.0425 22.3138 21.1486 22.1571 21.2213 21.9843C21.2945 21.8106 21.3326 21.6242 21.3333 21.4357Z" fill="#23D9B7"/>
<path d="M17.2294 25.7761C17.3011 25.5987 17.3364 25.4087 17.3331 25.2174C17.3298 25.0261 17.288 24.8374 17.2102 24.6626C17.1343 24.4919 17.0255 24.3379 16.8902 24.2092L13.0988 20.4176C12.8995 20.2184 12.6456 20.0827 12.3693 20.0277C12.0929 19.9728 11.8065 20.001 11.5462 20.1088C11.2859 20.2166 11.0634 20.3992 10.9069 20.6334C10.7503 20.8677 10.6667 21.1431 10.6666 21.4248C10.6665 21.612 10.7034 21.7974 10.775 21.9703C10.8467 22.1432 10.9517 22.3002 11.0841 22.4324L14.8753 26.2228C15.0037 26.3581 15.1576 26.4669 15.3281 26.543C15.5028 26.621 15.6914 26.6629 15.8827 26.6664C16.074 26.6699 16.2641 26.6348 16.4415 26.5632C16.619 26.4916 16.7802 26.385 16.9155 26.2498C17.0509 26.1146 17.1576 25.9535 17.2294 25.7761Z" fill="#23D9B7"/>
<path fill-rule="evenodd" clip-rule="evenodd" d="M16.9428 26.3413C17.1928 26.133 17.3333 25.8505 17.3333 25.556L17.3333 11.7773C17.3333 11.4827 17.1928 11.2002 16.9428 10.9919C16.6927 10.7836 16.3536 10.6666 16 10.6666C15.6464 10.6666 15.3072 10.7836 15.0572 10.9919C14.8071 11.2002 14.6666 11.4827 14.6666 11.7773L14.6666 25.556C14.6666 25.8505 14.8071 26.133 15.0572 26.3413C15.3072 26.5496 15.6464 26.6666 16 26.6666C16.3536 26.6666 16.6927 26.5496 16.9428 26.3413Z" fill="#23D9B7"/>
</g>
<g id="Vector_5">
<path fill-rule="evenodd" clip-rule="evenodd" d="M37.3333 16.1024C37.334 15.914 37.2975 15.7272 37.2257 15.5529C37.1539 15.3787 37.0483 15.2203 36.915 15.0871C36.7817 14.9538 36.6234 14.8483 36.4491 14.7765C36.2748 14.7048 36.088 14.6682 35.8996 14.669C35.7111 14.6698 35.5246 14.7079 35.3509 14.7811C35.1783 14.8539 35.0216 14.9599 34.89 15.0932L31.0856 18.8966C30.9529 19.0291 30.847 19.187 30.7753 19.3602C30.7034 19.5337 30.6665 19.7197 30.6666 19.9075C30.6671 20.1896 30.7511 20.4657 30.9082 20.7002C31.0652 20.9346 31.2882 21.1173 31.549 21.2251C31.8097 21.3329 32.0966 21.361 32.3734 21.3059C32.6501 21.2507 32.9042 21.1149 33.1038 20.9154L36.9091 17.1123C37.0425 16.9806 37.1486 16.8238 37.2213 16.6511C37.2945 16.4774 37.3326 16.2909 37.3333 16.1024Z" fill="#23D9B7"/>
<path d="M33.2294 20.4428C33.3011 20.2655 33.3364 20.0755 33.3331 19.8842C33.3298 19.6928 33.288 19.5042 33.2102 19.3294C33.1343 19.1587 33.0255 19.0046 32.8902 18.876L29.0988 15.0843C28.8996 14.8851 28.6456 14.7494 28.3693 14.6945C28.0929 14.6395 27.8065 14.6677 27.5462 14.7755C27.2859 14.8834 27.0634 15.0659 26.9069 15.3002C26.7503 15.5344 26.6667 15.8098 26.6666 16.0916C26.6665 16.2788 26.7034 16.4641 26.775 16.6371C26.8467 16.8099 26.9517 16.9669 27.0841 17.0991L30.8753 20.8896C31.0037 21.0249 31.1576 21.1337 31.3281 21.2098C31.5028 21.2877 31.6914 21.3297 31.8827 21.3331C32.074 21.3366 32.2641 21.3015 32.4415 21.2299C32.619 21.1584 32.7802 21.0518 32.9155 20.9165C33.0509 20.7813 33.1576 20.6202 33.2294 20.4428Z" fill="#23D9B7"/>
<path fill-rule="evenodd" clip-rule="evenodd" d="M32.9428 21.0081C33.1928 20.7998 33.3333 20.5173 33.3333 20.2227L33.3333 6.44403C33.3333 6.14947 33.1928 5.86697 32.9428 5.65868C32.6927 5.45039 32.3536 5.33337 32 5.33337C31.6464 5.33337 31.3072 5.45039 31.0572 5.65868C30.8071 5.86697 30.6666 6.14947 30.6666 6.44403L30.6666 20.2227C30.6666 20.5173 30.8071 20.7998 31.0572 21.0081C31.3072 21.2164 31.6464 21.3334 32 21.3334C32.3536 21.3334 32.6927 21.2164 32.9428 21.0081Z" fill="#23D9B7"/>
</g>
</g>
</svg>
