<svg width="64" height="64" viewBox="0 0 64 64" fill="none" xmlns="http://www.w3.org/2000/svg">
<g id="poros">
<path id="Vector (Stroke)" d="M0.569089 16.5467C0.933472 16.1967 1.42768 16 1.94299 16H15.7083L15.7376 16.0021C16.8896 16.0861 18.4987 16.5003 19.8403 17.4747C21.2127 18.4716 22.285 20.0458 22.285 22.3465V22.3793C22.1985 24.2744 21.4724 26.0909 20.2179 27.5553C18.3869 29.9132 17.4684 32.8106 17.6209 35.749L17.6228 35.7862C17.6228 39.4496 19.1367 42.963 21.8331 45.5534C24.5295 48.1438 28.1867 49.5991 32 49.5991C35.8133 49.5991 39.4705 48.1438 42.1669 45.5534C44.8633 42.963 46.3781 39.4496 46.3781 35.7862V35.7489C46.5306 32.8105 45.6131 29.9132 43.7821 27.5553C42.5276 26.0909 41.8023 24.2743 41.7157 22.3792L41.7142 22.3465C41.7142 20.0462 42.7868 18.4732 44.1455 17.4768C45.4738 16.5028 47.0594 16.0869 48.1688 16.0023L48.1994 16H62.057C62.5723 16 63.0665 16.1967 63.4309 16.5467C63.7953 16.8968 64 17.3716 64 17.8666C64 18.3617 63.7953 18.8365 63.4309 19.1865C63.0665 19.5366 62.5723 19.7332 62.057 19.7332H48.3644C48.1802 19.7546 47.4997 19.8529 46.8582 20.2075C46.2065 20.5677 45.61 21.1739 45.601 22.3202C45.6908 23.441 46.1518 24.505 46.917 25.3561L46.9359 25.3771L46.953 25.3994C49.2677 28.3978 50.4369 32.0703 50.2643 35.7992C50.2872 38.1043 49.8323 40.3907 48.926 42.5252C48.0169 44.6662 46.6719 46.6113 44.97 48.2463C43.268 49.8814 41.2434 51.1735 39.0148 52.0468C36.7887 52.9192 34.4039 53.3562 32 53.3324C29.5961 53.3562 27.2113 52.9192 24.9853 52.0468C22.7566 51.1735 20.732 49.8814 19.03 48.2463C17.3281 46.6113 15.9831 44.6662 15.074 42.5252C14.1677 40.3907 13.7128 38.1042 13.7357 35.7992C13.5631 32.0703 14.7323 28.3978 17.047 25.3994L17.0642 25.3771L17.083 25.3561C17.8482 24.505 18.3092 23.441 18.399 22.3202C18.39 21.1748 17.7946 20.5697 17.134 20.2097C16.4624 19.8437 15.7383 19.7503 15.5502 19.7332H1.94299C1.42768 19.7332 0.933472 19.5366 0.569089 19.1865C0.204707 18.8365 0 18.3617 0 17.8666C0 17.3716 0.204707 16.8968 0.569089 16.5467Z" fill="#23D9B7"/>
<path id="Vector" d="M37.4444 41.6593C38.1022 42.0988 38.8755 42.3334 39.6667 42.3334C40.7275 42.3334 41.7449 41.912 42.4951 41.1618C43.2452 40.4117 43.6667 39.3942 43.6667 38.3334C43.6667 37.5423 43.4321 36.7689 42.9925 36.1111C42.553 35.4533 41.9283 34.9406 41.1974 34.6379C40.4665 34.3351 39.6622 34.2559 38.8863 34.4102C38.1104 34.5646 37.3976 34.9455 36.8382 35.505C36.2788 36.0644 35.8979 36.7771 35.7435 37.553C35.5892 38.3289 35.6684 39.1332 35.9711 39.8641C36.2739 40.595 36.7866 41.2197 37.4444 41.6593Z" fill="#23D9B7"/>
<path id="Vector_2" d="M21.5185 35.2173C21.957 35.5103 22.4726 35.6667 23 35.6667C23.7072 35.6667 24.3855 35.3858 24.8856 34.8857C25.3857 34.3856 25.6667 33.7073 25.6667 33C25.6667 32.4726 25.5103 31.9571 25.2172 31.5185C24.9242 31.08 24.5078 30.7382 24.0205 30.5364C23.5332 30.3345 22.997 30.2817 22.4798 30.3846C21.9625 30.4875 21.4873 30.7415 21.1144 31.1144C20.7414 31.4874 20.4875 31.9625 20.3846 32.4798C20.2817 32.9971 20.3345 33.5333 20.5363 34.0205C20.7382 34.5078 21.0799 34.9243 21.5185 35.2173Z" fill="#23D9B7"/>
<path id="Vector_3" d="M33.3333 34C34.0697 34 34.6667 33.4031 34.6667 32.6667C34.6667 31.9303 34.0697 31.3334 33.3333 31.3334C32.597 31.3334 32 31.9303 32 32.6667C32 33.4031 32.597 34 33.3333 34Z" fill="#23D9B7"/>
<path id="Vector_4" d="M38.3333 29C39.0697 29 39.6667 28.4031 39.6667 27.6667C39.6667 26.9303 39.0697 26.3334 38.3333 26.3334C37.597 26.3334 37 26.9303 37 27.6667C37 28.4031 37.597 29 38.3333 29Z" fill="#23D9B7"/>
<path id="Vector_5" d="M30.3333 44C31.0697 44 31.6667 43.4031 31.6667 42.6667C31.6667 41.9303 31.0697 41.3334 30.3333 41.3334C29.597 41.3334 29 41.9303 29 42.6667C29 43.4031 29.597 44 30.3333 44Z" fill="#23D9B7"/>
<path id="Vector_6" d="M29.3333 26.3333C30.0697 26.3333 30.6667 25.7363 30.6667 25C30.6667 24.2636 30.0697 23.6666 29.3333 23.6666C28.597 23.6666 28 24.2636 28 25C28 25.7363 28.597 26.3333 29.3333 26.3333Z" fill="#23D9B7"/>
<path id="Vector_7" d="M25.3333 41C26.0697 41 26.6667 40.4031 26.6667 39.6667C26.6667 38.9303 26.0697 38.3334 25.3333 38.3334C24.597 38.3334 24 38.9303 24 39.6667C24 40.4031 24.597 41 25.3333 41Z" fill="#23D9B7"/>
</g>
</svg>
