<svg width="64" height="64" viewBox="0 0 64 64" fill="none" xmlns="http://www.w3.org/2000/svg">
<g id="puntos negros">
<path id="Vector (Stroke)" fill-rule="evenodd" clip-rule="evenodd" d="M0.406464 45.7239C0.66672 45.4738 1.0197 45.3334 1.38776 45.3334H62.6122C62.9803 45.3334 63.3333 45.4738 63.5935 45.7239C63.8538 45.9739 64 46.3131 64 46.6667C64 47.0203 63.8538 47.3595 63.5935 47.6095C63.3333 47.8596 62.9803 48 62.6122 48H1.38776C1.0197 48 0.66672 47.8596 0.406464 47.6095C0.146209 47.3595 0 47.0203 0 46.6667C0 46.3131 0.146209 45.9739 0.406464 45.7239Z" fill="#23D9B7"/>
<path id="Vector (Stroke)_2" d="M21.7277 22.5366C23.9944 18.4802 27.8223 16 32 16C36.1777 16 40.0056 18.4802 42.2723 22.5366C44.5778 26.6624 48.8366 29.2122 53.3737 29.2122H62.6122C62.9803 29.2122 63.3333 29.3591 63.5935 29.6205C63.8538 29.8819 64 30.2364 64 30.6061C64 30.9758 63.8538 31.3303 63.5935 31.5917C63.3333 31.8531 62.9803 32 62.6122 32H53.3737C47.8149 32 42.6395 28.8898 39.8521 23.9014C38.0396 20.6575 35.0894 18.7878 32 18.7878C28.9107 18.7878 25.9614 20.6575 24.1481 23.9015C21.3605 28.8899 16.1834 32 10.6263 32H1.38776C1.0197 32 0.666717 31.8531 0.406464 31.5917C0.14621 31.3303 0 30.9758 0 30.6061C0 30.2364 0.146209 29.8819 0.406464 29.6205C0.66672 29.3591 1.0197 29.2122 1.38776 29.2122H10.6263C15.1632 29.2122 19.4222 26.6624 21.7277 22.5366Z" fill="#23D9B7"/>
<circle id="spot" cx="32" cy="32" r="8" fill="#23D9B7"/>
</g>
</svg>
