<svg width="64" height="64" viewBox="0 0 64 64" fill="none" xmlns="http://www.w3.org/2000/svg">
<g id="Rosacea">
<path id="Vector (Stroke)" fill-rule="evenodd" clip-rule="evenodd" d="M0.406464 53.7239C0.66672 53.4738 1.0197 53.3334 1.38776 53.3334H62.6122C62.9803 53.3334 63.3333 53.4738 63.5935 53.7239C63.8538 53.9739 64 54.3131 64 54.6667C64 55.0203 63.8538 55.3595 63.5935 55.6095C63.3333 55.8596 62.9803 56 62.6122 56H1.38776C1.0197 56 0.66672 55.8596 0.406464 55.6095C0.146209 55.3595 0 55.0203 0 54.6667C0 54.3131 0.146209 53.9739 0.406464 53.7239Z" fill="#23D9B7"/>
<path id="Vector (Stroke)_2" d="M21.7277 33.2032C23.9944 29.1468 27.8223 26.6666 32 26.6666C36.1777 26.6666 40.0056 29.1468 42.2723 33.2032C44.5778 37.329 48.8366 39.8788 53.3737 39.8788H62.6122C62.9803 39.8788 63.3333 40.0257 63.5935 40.2871C63.8538 40.5485 64 40.903 64 41.2727C64 41.6424 63.8538 41.997 63.5935 42.2584C63.3333 42.5198 62.9803 42.6666 62.6122 42.6666H53.3737C47.8149 42.6666 42.6395 39.5564 39.8521 34.568C38.0396 31.3242 35.0894 29.4544 32 29.4544C28.9107 29.4544 25.9614 31.3241 24.1481 34.5681C21.3605 39.5565 16.1834 42.6666 10.6263 42.6666H1.38776C1.0197 42.6666 0.666717 42.5198 0.406464 42.2584C0.14621 41.997 0 41.6424 0 41.2727C0 40.903 0.146209 40.5485 0.406464 40.2871C0.66672 40.0257 1.0197 39.8788 1.38776 39.8788H10.6263C15.1632 39.8788 19.4222 37.329 21.7277 33.2032Z" fill="#23D9B7"/>
<path id="Vector (Stroke)_3" fill-rule="evenodd" clip-rule="evenodd" d="M29.9191 8.62838C30.2942 8.22604 30.8029 8 31.3333 8C31.8637 8 32.3725 8.22604 32.7475 8.62838C33.1226 9.03073 33.3333 9.57643 33.3333 10.1454V16.5212C33.3333 17.0902 33.1226 17.6359 32.7475 18.0383C32.3725 18.4406 31.8637 18.6667 31.3333 18.6667C30.8029 18.6667 30.2942 18.4406 29.9191 18.0383C29.544 17.6359 29.3333 17.0902 29.3333 16.5212V10.1454C29.3333 9.57643 29.544 9.03073 29.9191 8.62838Z" fill="#23D9B7"/>
<path id="Vector (Stroke)_4" fill-rule="evenodd" clip-rule="evenodd" d="M47.6061 16.2662C48.0749 16.0026 48.6319 15.9312 49.1547 16.0679C49.6775 16.2047 50.1231 16.5382 50.3936 16.9951C50.664 17.4521 50.7372 17.9951 50.5969 18.5046C50.4567 19.014 50.1146 19.4483 49.6459 19.712L44.3989 22.664L44.3963 22.6655C44.0859 22.8411 43.7334 22.9335 43.3745 22.9333C42.9254 22.9335 42.4888 22.7893 42.1324 22.523C41.7756 22.2564 41.5191 21.8824 41.4028 21.4591C41.2865 21.0359 41.3168 20.587 41.4892 20.1823C41.6613 19.7779 41.9656 19.4402 42.3548 19.2216" fill="#23D9B7"/>
<path id="Vector (Stroke)_5" fill-rule="evenodd" clip-rule="evenodd" d="M15.0606 16.2662C14.5918 16.0026 14.0347 15.9312 13.5119 16.0679C12.9892 16.2047 12.5435 16.5382 12.2731 16.9951C12.0026 17.4521 11.9294 17.9951 12.0697 18.5046C12.2099 19.014 12.552 19.4483 13.0207 19.712L18.2677 22.664L18.2703 22.6655C18.5807 22.8411 18.9332 22.9335 19.2922 22.9333C19.7412 22.9335 20.1778 22.7893 20.5342 22.523C20.891 22.2564 21.1475 21.8824 21.2638 21.4591C21.3802 21.0359 21.3498 20.587 21.1775 20.1823C21.0053 19.7779 20.701 19.4402 20.3118 19.2216" fill="#23D9B7"/>
</g>
</svg>
