<svg width="74" height="20" viewBox="0 0 74 20" fill="none" xmlns="http://www.w3.org/2000/svg">
<path d="M65.708 16.2303C63.4214 16.2303 61.5745 14.3758 61.5745 12.097C61.5745 9.81818 63.4214 7.96364 65.708 7.96364C67.9946 7.96364 69.8414 9.81818 69.8414 12.097C69.8414 14.3758 67.982 16.2303 65.708 16.2303ZM69.8289 4.55758V6.65455C69.2258 5.87879 68.4469 5.26061 67.5548 4.82424C66.6628 4.38788 65.6703 4.1697 64.6778 4.1697C60.5694 4.1697 57.3908 7.70909 57.3908 12.0848C57.3908 16.4606 60.5694 20 64.6778 20C65.7457 20 66.801 19.7455 67.7433 19.2485C68.6856 18.7636 69.4896 18.0485 70.0801 17.1879V19.6121H74V4.55758H69.8289ZM21.999 0.387879H26.1701V19.6242H21.999V0.387879ZM30.9694 11.0788C30.9694 6.93333 33.6078 4.18182 37.2513 4.18182C39.5127 4.18182 41.3093 5.15152 42.3898 6.81212C43.4703 5.15152 45.2669 4.18182 47.5284 4.18182C51.1844 4.18182 53.8102 6.95758 53.8102 11.0788V19.6242H49.639V10.6545C49.639 9.04242 48.5334 7.98788 47.0635 7.98788C45.5935 7.98788 44.4879 9.04242 44.4879 10.6545V19.6242H40.3168V10.6545C40.3168 9.04242 39.2112 7.98788 37.7413 7.98788C36.2713 7.98788 35.1657 9.04242 35.1657 10.6545V19.6242H30.982L30.9694 11.0788ZM14.4357 4.71515C13.4431 1.13939 11.3576 0 9.35993 0C7.36231 0 5.27674 1.13939 4.29677 4.71515L0 19.6242H4.23396C4.51036 18.5212 5.17623 17.5273 6.10594 16.8242C7.03565 16.1212 8.17895 15.7333 9.37249 15.7333C10.5535 15.7333 11.6968 16.1212 12.639 16.8242C13.5688 17.5273 14.2221 18.5091 14.511 19.6242H18.745L14.4357 4.71515ZM9.35993 12.2667C8.07844 12.2545 6.83463 12.7273 5.89236 13.5636L8.31715 4.88485C8.54329 4.06061 8.89508 3.79394 9.35993 3.79394C9.82479 3.79394 10.1766 4.04848 10.4027 4.88485L12.8275 13.5636C11.8852 12.7273 10.6414 12.2667 9.35993 12.2667Z" fill="#FA5022"/>
</svg>
