<svg width="298" height="160" viewBox="0 0 298 160" fill="none" xmlns="http://www.w3.org/2000/svg">
<path d="M30.8755 140.387L24.4545 145.206L12.9392 129.633L19.3027 124.858L21.2932 127.55C21.657 124.126 23.3649 121.269 26.4171 118.979L26.6187 118.827C29.6133 116.58 32.4402 116.064 35.0996 117.279C35.7228 113.601 37.5604 110.616 40.6126 108.326L40.843 108.153C43.2233 106.367 45.4508 105.625 47.5257 105.929C49.6005 106.232 51.2515 107.213 52.4787 108.873L59.756 118.715L53.2773 123.576L47.5839 115.877C45.6718 113.291 43.5448 112.877 41.2029 114.634C39.8592 115.643 39.0767 116.845 38.8555 118.241C38.6343 119.637 38.9804 120.953 39.8936 122.188L45.3302 129.54L38.8515 134.402L33.1581 126.702C32.2734 125.506 31.2863 124.776 30.1967 124.514C29.1071 124.251 27.9576 124.574 26.7483 125.481C25.4046 126.49 24.6221 127.692 24.4009 129.088C24.1797 130.484 24.5257 131.8 25.439 133.035L30.8755 140.387Z" fill="#6B1FE0"/>
<path d="M73.6827 118.27L71.3792 112.99L75.5268 111.154C76.0974 110.901 76.3011 110.588 76.1379 110.214C76.0516 110.016 75.5037 109.511 74.4944 108.698L58.9516 96.2094L66.8517 92.7113L77.7868 102.2L78.0766 87.741L85.45 84.4761L84.4309 107.526C84.3429 109.665 83.9779 111.349 83.3359 112.578C82.7158 113.798 81.6377 114.747 80.1016 115.428L73.6827 118.27Z" fill="#6B1FE0"/>
<path d="M123.583 85.0074L123.567 95.0154L115.539 95.0025L115.57 75.6345L123.526 75.6473L123.521 79.0673C123.761 78.7077 124.05 78.3482 124.387 77.9887C124.747 77.6293 125.24 77.2221 125.865 76.7671C126.489 76.3121 127.282 75.9414 128.242 75.6549C129.203 75.3684 130.247 75.2261 131.375 75.2279L131.771 75.2286C134.459 75.2329 136.438 76.0161 137.707 77.5781C139.001 79.1402 139.645 81.2412 139.641 83.8812L139.639 84.9972L131.899 84.9848C131.902 83.6168 131.567 82.5003 130.897 81.6352C130.25 80.7701 129.219 80.3365 127.803 80.3342L127.767 80.3341C126.471 80.3321 125.45 80.7864 124.705 81.6972C123.959 82.584 123.585 83.6874 123.583 85.0074Z" fill="#6B1FE0"/>
<path d="M179.988 86.6635L172.763 104.633L165.396 101.628L166.645 98.5212C166.124 98.7233 165.77 98.864 165.583 98.9432C165.405 99.0001 164.904 99.1198 164.081 99.3022C163.28 99.4936 162.556 99.5874 161.911 99.5834C161.297 99.5662 160.495 99.4719 159.503 99.3005C158.502 99.1514 157.513 98.8774 156.536 98.4784L156.269 98.3696C153.425 97.209 151.578 95.626 150.729 93.6205C149.888 91.5929 149.853 89.6215 150.623 87.7065L155.122 76.5171L162.622 79.5773L159.05 88.4621C158.495 89.8426 158.445 91.0924 158.9 92.2114C159.356 93.3304 160.339 94.1982 161.85 94.8148C163.45 95.4676 164.918 95.5482 166.254 95.0564C167.589 94.5647 168.553 93.584 169.144 92.1144L172.555 83.6305L179.988 86.6635Z" fill="#6B1FE0"/>
<path d="M202.318 88.2542L192.338 113.109L184.903 110.08L194.884 85.2246L202.318 88.2542Z" fill="#6B1FE0"/>
<path d="M222.24 108.046C218.771 106.916 216.395 107.291 215.111 109.169L227.434 113.184C227.599 110.941 225.879 109.232 222.274 108.058L222.24 108.046ZM233.404 120.733C233.22 121.305 232.957 121.85 232.614 122.369C232.278 122.865 231.73 123.356 230.969 123.84C230.209 124.324 229.314 124.676 228.286 124.897C227.265 125.094 225.904 125.092 224.204 124.892C222.519 124.721 220.628 124.294 218.528 123.61L216.577 122.974C214.204 122.201 212.231 121.281 210.658 120.213C209.093 119.122 207.977 117.964 207.312 116.737C206.647 115.511 206.259 114.286 206.148 113.064C206.059 111.848 206.22 110.601 206.631 109.321L206.873 108.567C207.276 107.31 207.852 106.223 208.601 105.306C209.349 104.389 210.322 103.633 211.521 103.039C212.75 102.43 214.301 102.153 216.174 102.208C218.077 102.248 220.227 102.658 222.623 103.438L224.711 104.119C233.245 106.9 236.448 111.603 234.321 118.23L233.913 119.498L213.753 112.929C213.484 115.492 215.267 117.398 219.101 118.647L219.135 118.659C220.093 118.971 220.96 119.177 221.734 119.278C222.531 119.387 223.164 119.416 223.634 119.367C224.103 119.318 224.5 119.22 224.824 119.074C225.179 118.912 225.427 118.765 225.57 118.635C225.713 118.505 225.817 118.375 225.884 118.245L233.415 120.699L233.404 120.733Z" fill="#6B1FE0"/>
<path d="M256.526 133.201C248.261 132.4 244.346 129.719 244.781 125.155L244.802 124.94L253.043 125.739C252.972 127.492 254.537 128.524 257.738 128.834L257.81 128.841C259.196 128.975 260.28 128.983 261.062 128.866C261.869 128.751 262.379 128.584 262.593 128.363C262.807 128.143 262.931 127.854 262.965 127.495L262.972 127.424C263.025 126.874 262.789 126.441 262.264 126.125C261.766 125.788 260.646 125.523 258.905 125.33L255.472 124.925C248.56 124.087 245.288 121.744 245.655 117.898L245.675 117.683C245.737 117.038 245.864 116.459 246.058 115.948C246.275 115.438 246.673 114.934 247.251 114.435C247.829 113.937 248.565 113.55 249.459 113.275C250.356 112.976 251.568 112.78 253.096 112.687C254.623 112.594 256.402 112.645 258.433 112.842L259.866 112.981C267.917 113.761 271.749 116.169 271.364 120.207L271.34 120.458L263.206 119.67C263.212 118.344 261.686 117.534 258.628 117.237L258.592 117.234C256.777 117.058 255.547 117.06 254.903 117.238C254.262 117.393 253.917 117.721 253.869 118.223L253.862 118.295C253.817 118.773 254.056 119.17 254.58 119.486C255.129 119.804 256.19 120.051 257.764 120.228L261.197 120.633C264.083 120.961 266.302 121.453 267.855 122.11C269.408 122.766 270.408 123.526 270.856 124.39C271.33 125.231 271.501 126.345 271.369 127.731L271.348 127.946C271.255 128.925 270.994 129.768 270.565 130.474C270.162 131.158 269.488 131.78 268.542 132.339C267.621 132.901 266.272 133.265 264.496 133.431C262.718 133.62 260.551 133.591 257.995 133.343L256.526 133.201Z" fill="#6B1FE0"/>
<path d="M292.331 125.768L293.536 131.952L285.026 133.636L283.82 127.453L292.331 125.768Z" fill="#6B1FE0"/>
<path d="M24.9016 89.1749L8.86449 67.7227L18.366 60.5316L35.7233 68.298L33.1493 49.3429L42.3063 42.4125L58.3434 63.8646L51.7411 68.8615L40.6402 54.0122L43.3305 75.2271L39.7423 77.9428L20.2307 69.4591L31.3316 84.3083L24.9016 89.1749Z" fill="#6B1FE0"/>
<path d="M72.2661 63.2582L69.9012 58.0061L74.0285 56.1246C74.5963 55.8657 74.7965 55.5503 74.6289 55.1783C74.5403 54.9813 73.9864 54.4821 72.9675 53.6805L57.2768 41.368L65.1385 37.7841L76.1856 47.1493L76.3086 32.6921L83.6461 29.3471L82.8929 52.4001C82.8295 54.5391 82.4838 56.2264 81.8559 57.4622C81.2497 58.6881 80.1824 59.6494 78.6537 60.3463L72.2661 63.2582Z" fill="#6B1FE0"/>
<path d="M127.766 24.3885L127.55 24.3859C125.15 24.3574 123.441 24.7452 122.424 25.5492C121.406 26.3532 120.89 27.3791 120.876 28.627L120.873 28.807C120.859 30.0549 121.374 31.1291 122.42 32.0296C123.489 32.9063 125.164 33.3582 127.444 33.3853L127.66 33.3878C130.06 33.4163 131.877 33.0058 133.111 32.1564C134.369 31.2833 135.006 30.2347 135.02 29.0108L135.022 28.8668C135.036 27.6189 134.425 26.5676 133.187 25.7128C131.949 24.8581 130.142 24.4166 127.766 24.3885ZM129.417 46.2256L126.861 46.1953C124.557 46.1679 122.544 45.94 120.821 45.5116C119.121 45.1074 117.831 44.6361 116.949 44.0976C116.091 43.5594 115.403 42.9271 114.883 42.2009C114.363 41.4987 114.046 40.9189 113.932 40.4615C113.817 40.0041 113.762 39.5595 113.767 39.1275L113.769 39.0195L121.868 39.1156C122.022 40.3175 124.079 40.9419 128.038 40.9889L128.146 40.9901C132.754 41.0448 135.08 39.2122 135.124 35.4925C132.989 37.4113 129.834 38.346 125.658 38.2964L125.226 38.2913C120.93 38.2404 117.761 37.3387 115.717 35.5864C113.674 33.834 112.668 31.6019 112.7 28.8901L112.708 28.1702C112.739 25.5783 113.7 23.4416 115.592 21.7599C117.484 20.0782 120.434 19.2612 124.442 19.3087L125.198 19.3176C129.733 19.3714 133.081 20.4312 135.241 22.497L135.271 19.9052L143.335 20.0008L143.148 35.8397C143.138 36.6796 143.044 37.5066 142.867 38.3205C142.689 39.1345 142.295 40.0419 141.683 41.0427C141.095 42.0438 140.329 42.9108 139.384 43.6436C138.439 44.4004 137.099 45.0206 135.366 45.5041C133.656 46.0118 131.673 46.2523 129.417 46.2256Z" fill="#6B1FE0"/>
<path d="M168.792 18.5422L159.975 43.8335L152.405 41.1617L161.221 15.8704L168.792 18.5422Z" fill="#6B1FE0"/>
<path d="M183.595 54.3446C181.599 53.5194 179.902 52.597 178.504 51.5775C177.127 50.5671 176.096 49.5694 175.409 48.5844C174.732 47.5772 174.262 46.5388 173.998 45.4691C173.744 44.3772 173.67 43.3855 173.775 42.4939C173.888 41.5801 174.131 40.6677 174.503 39.7568L174.748 39.1568C175.111 38.2681 175.567 37.4696 176.115 36.7614C176.664 36.0532 177.394 35.4072 178.306 34.8235C179.241 34.249 180.292 33.8654 181.459 33.6728C182.636 33.4579 184.062 33.4891 185.737 33.7662C187.444 34.0303 189.296 34.5749 191.292 35.4001L193.654 36.3766C202.193 39.9066 205.229 44.6933 202.761 50.7369L202.516 51.3368C202.135 52.27 201.697 53.0888 201.202 53.7931C200.729 54.5066 200.039 55.182 199.13 55.8193C198.222 56.4567 197.191 56.8873 196.036 57.1113C194.913 57.3223 193.472 57.2977 191.712 57.0375C189.983 56.7642 188.053 56.1875 185.924 55.3073L183.595 54.3446ZM182.334 46.5776C182.96 47.9012 184.426 49.0397 186.733 49.9933C189.04 50.9468 190.878 51.1744 192.248 50.676C193.618 50.1776 194.562 49.2952 195.079 48.0287L195.147 47.862C195.673 46.5733 195.614 45.2894 194.97 44.0103C194.326 42.7311 192.861 41.6194 190.577 40.675L190.544 40.6612C188.215 39.6985 186.374 39.4441 185.022 39.8981C183.702 40.339 182.774 41.2149 182.238 42.5258L182.17 42.6925C181.653 43.959 181.708 45.254 182.334 46.5776Z" fill="#6B1FE0"/>
<path d="M224.304 69.3068L216.289 67.0892L213.658 46.2655L221.708 48.4928L222.711 61.6195L230.174 50.8352L238.293 53.0817L239.365 66.2276L246.759 55.4242L253.975 57.421L241.652 74.107L233.464 71.8413L232.263 58.2115L224.304 69.3068Z" fill="#6B1FE0"/>
<path d="M267.907 81.2832L263.337 81.1456C264.123 79.7526 264.602 78.5905 264.773 77.6593L261.031 77.5465L261.218 71.2493L269.89 71.5105L269.735 76.7282C269.715 77.3999 269.512 78.1622 269.127 79.0149C268.765 79.8924 268.358 80.6485 267.907 81.2832Z" fill="#6B1FE0"/>
</svg>
