<svg width="176" height="56" viewBox="0 0 176 56" fill="none" xmlns="http://www.w3.org/2000/svg">
<path d="M7.032 23.944H0.504L2.16 11.512H5.376L7.032 23.944ZM0.864 10.288V6.088H6.672V10.288H0.864ZM21.0589 19.312H20.0749C18.6509 19.312 17.3469 19.2 16.1629 18.976C14.9789 18.752 13.9789 18.464 13.1629 18.112C12.3629 17.744 11.6509 17.304 11.0269 16.792C10.4029 16.28 9.91488 15.76 9.56288 15.232C9.21088 14.704 8.91488 14.136 8.67488 13.528C8.45088 12.92 8.29888 12.368 8.21888 11.872C8.15488 11.376 8.12288 10.872 8.12288 10.36V9.664C8.12288 8.912 8.19488 8.192 8.33887 7.504C8.48288 6.8 8.80288 6.024 9.29888 5.176C9.81088 4.328 10.4749 3.6 11.2909 2.992C12.1229 2.384 13.2909 1.872 14.7949 1.456C16.3149 1.04 18.0749 0.831999 20.0749 0.831999H21.0589C22.7069 0.831999 24.1949 0.959999 25.5229 1.216C26.8509 1.456 27.9309 1.784 28.7629 2.2C29.5949 2.616 30.3069 3.072 30.8989 3.568C31.4909 4.048 31.9309 4.568 32.2189 5.128C32.5069 5.688 32.7069 6.184 32.8189 6.616C32.9469 7.048 33.0109 7.464 33.0109 7.864V8.128H27.0829C27.0189 7.936 26.9549 7.768 26.8909 7.624C26.8269 7.464 26.6429 7.216 26.3389 6.88C26.0509 6.544 25.6909 6.264 25.2589 6.04C24.8429 5.816 24.2189 5.616 23.3869 5.44C22.5709 5.248 21.6269 5.152 20.5549 5.152C19.2749 5.152 18.1789 5.288 17.2669 5.56C16.3709 5.816 15.6909 6.176 15.2269 6.64C14.7789 7.104 14.4589 7.592 14.2669 8.104C14.0749 8.616 13.9789 9.176 13.9789 9.784V10.072C13.9789 10.648 14.0829 11.2 14.2909 11.728C14.5149 12.256 14.8589 12.776 15.3229 13.288C15.7869 13.8 16.4749 14.208 17.3869 14.512C18.2989 14.816 19.3709 14.968 20.6029 14.968C24.3149 14.968 26.4829 13.912 27.1069 11.8H33.0349V12.064C33.0349 12.496 32.9709 12.944 32.8429 13.408C32.7149 13.856 32.4989 14.368 32.1949 14.944C31.9069 15.52 31.4589 16.056 30.8509 16.552C30.2589 17.048 29.5469 17.512 28.7149 17.944C27.8829 18.36 26.8029 18.696 25.4749 18.952C24.1629 19.192 22.6909 19.312 21.0589 19.312ZM43.2831 19.36C41.8431 19.36 40.5631 19.224 39.4431 18.952C38.3391 18.68 37.4511 18.328 36.7791 17.896C36.1071 17.448 35.5551 16.928 35.1231 16.336C34.6911 15.728 34.3951 15.136 34.2351 14.56C34.0751 13.968 33.9951 13.344 33.9951 12.688V12.256C33.9951 11.616 34.0751 11.008 34.2351 10.432C34.3951 9.856 34.6831 9.272 35.0991 8.68C35.5311 8.088 36.0831 7.584 36.7551 7.168C37.4271 6.736 38.3151 6.392 39.4191 6.136C40.5391 5.864 41.8191 5.728 43.2591 5.728H44.9631C51.1231 5.728 54.2031 7.904 54.2031 12.256V12.688C54.2031 13.36 54.1391 13.976 54.0111 14.536C53.8991 15.096 53.6431 15.688 53.2431 16.312C52.8431 16.936 52.3151 17.464 51.6591 17.896C51.0191 18.312 50.1231 18.664 48.9711 18.952C47.8351 19.224 46.4991 19.36 44.9631 19.36H43.2831ZM40.5471 14.896C41.2671 15.552 42.4591 15.88 44.1231 15.88C45.7871 15.88 46.9791 15.552 47.6991 14.896C48.4191 14.24 48.7791 13.456 48.7791 12.544V12.424C48.7791 11.496 48.4191 10.72 47.6991 10.096C46.9791 9.472 45.7951 9.16 44.1471 9.16H44.1231C42.4431 9.16 41.2431 9.472 40.5231 10.096C39.8191 10.704 39.4671 11.48 39.4671 12.424V12.544C39.4671 13.456 39.8271 14.24 40.5471 14.896ZM61.0643 19H55.7123V6.088H61.0163V8.32C62.5683 6.64 64.6163 5.8 67.1603 5.8H67.3282C69.8243 5.8 71.5443 6.656 72.4883 8.368C74.2803 6.656 76.4483 5.8 78.9923 5.8H79.1843C81.1683 5.8 82.6563 6.296 83.6483 7.288C84.6403 8.28 85.1363 9.464 85.1363 10.84V19H79.7363V12.616C79.7363 10.472 78.7603 9.4 76.8083 9.4C75.6883 9.4 74.7923 9.728 74.1203 10.384C73.4483 11.04 73.1123 11.88 73.1123 12.904V19H67.7123V12.616C67.7123 11.624 67.4723 10.84 66.9922 10.264C66.5123 9.688 65.7683 9.4 64.7603 9.4C63.6403 9.4 62.7443 9.728 62.0723 10.384C61.4003 11.04 61.0643 11.88 61.0643 12.904V19ZM92.5408 12.448V12.544C92.5408 13.44 92.9488 14.224 93.7648 14.896C94.5968 15.568 95.7808 15.904 97.3168 15.904H97.4368C99.0208 15.904 100.149 15.576 100.821 14.92C101.509 14.264 101.853 13.472 101.853 12.544V12.448C101.853 11.472 101.517 10.672 100.845 10.048C100.173 9.424 99.0368 9.112 97.4368 9.112H97.3168C95.7488 9.112 94.5568 9.44 93.7408 10.096C92.9408 10.736 92.5408 11.52 92.5408 12.448ZM87.1888 6.088H92.5408V7.936C92.7488 7.744 92.9968 7.56 93.2848 7.384C93.5728 7.192 93.9808 6.96 94.5088 6.688C95.0528 6.416 95.7248 6.2 96.5248 6.04C97.3248 5.864 98.1808 5.776 99.0928 5.776H99.5248C100.949 5.776 102.173 5.944 103.197 6.28C104.237 6.616 105.045 7.088 105.621 7.696C106.213 8.304 106.645 8.984 106.917 9.736C107.189 10.488 107.325 11.328 107.325 12.256V12.712C107.325 14.6 106.685 16.176 105.405 17.44C104.125 18.688 102.109 19.312 99.3568 19.312H98.9728C97.8048 19.312 96.7168 19.16 95.7088 18.856C94.7008 18.536 93.9728 18.24 93.5248 17.968C93.0928 17.68 92.7648 17.416 92.5408 17.176V23.512H87.1888V6.088ZM120.245 13.264V12.856L115.133 13.648C114.429 13.76 113.925 13.904 113.621 14.08C113.333 14.24 113.189 14.496 113.189 14.848V14.872C113.189 15.272 113.373 15.616 113.741 15.904C114.109 16.192 114.709 16.336 115.541 16.336C116.917 16.336 118.045 16.032 118.925 15.424C119.805 14.8 120.245 14.08 120.245 13.264ZM120.389 17.224C119.189 18.568 117.197 19.24 114.413 19.24H114.101C112.069 19.24 110.557 18.84 109.565 18.04C108.589 17.24 108.101 16.232 108.101 15.016V14.848C108.101 13.664 108.517 12.768 109.349 12.16C110.197 11.552 111.589 11.16 113.525 10.984L119.429 10.432C119.973 10.384 120.245 10.16 120.245 9.76C120.245 9.552 120.189 9.384 120.077 9.256C119.965 9.128 119.645 9.008 119.117 8.896C118.589 8.768 117.845 8.704 116.885 8.704H116.765C116.013 8.704 115.389 8.76 114.893 8.872C114.413 8.968 114.069 9.104 113.861 9.28C113.669 9.456 113.541 9.608 113.477 9.736C113.429 9.848 113.397 9.984 113.381 10.144H108.413V10.096C108.413 9.68 108.445 9.312 108.509 8.992C108.573 8.656 108.757 8.272 109.061 7.84C109.365 7.408 109.773 7.048 110.285 6.76C110.797 6.472 111.549 6.232 112.541 6.04C113.549 5.832 114.741 5.728 116.117 5.728H117.437C118.877 5.728 120.109 5.816 121.133 5.992C122.157 6.168 122.941 6.384 123.485 6.64C124.029 6.896 124.453 7.232 124.757 7.648C125.061 8.048 125.245 8.408 125.309 8.728C125.373 9.048 125.405 9.44 125.405 9.904V14.848C125.405 15.28 125.629 15.496 126.077 15.496H126.773V19H122.429C121.901 19 121.453 18.848 121.085 18.544C120.717 18.24 120.485 17.8 120.389 17.224ZM133.252 12.328V19H127.9V6.088H133.204V8.368C133.364 8.128 133.556 7.888 133.78 7.648C134.02 7.408 134.348 7.136 134.764 6.832C135.18 6.528 135.708 6.28 136.348 6.088C136.988 5.896 137.684 5.8 138.436 5.8H138.7C140.492 5.8 141.812 6.32 142.66 7.36C143.524 8.4 143.956 9.8 143.956 11.56V12.304H138.796C138.796 11.392 138.572 10.648 138.124 10.072C137.692 9.496 137.004 9.208 136.06 9.208H136.036C135.172 9.208 134.492 9.512 133.996 10.12C133.5 10.712 133.252 11.448 133.252 12.328ZM154.936 19H150.304C148.176 19 147.112 17.776 147.112 15.328V9.64H144.592V6.088H147.112V2.32H152.392V6.088H154.936V9.64H152.392V14.32C152.392 14.704 152.464 14.992 152.608 15.184C152.752 15.36 153.04 15.448 153.472 15.448H154.936V19ZM165.542 8.728C163.11 8.728 161.678 9.456 161.246 10.912H169.886C169.534 9.456 168.094 8.728 165.566 8.728H165.542ZM175.214 14.464C175.214 14.864 175.158 15.264 175.046 15.664C174.934 16.048 174.686 16.472 174.302 16.936C173.918 17.4 173.422 17.808 172.814 18.16C172.206 18.496 171.342 18.776 170.222 19C169.118 19.24 167.83 19.36 166.358 19.36H164.99C163.326 19.36 161.886 19.184 160.67 18.832C159.454 18.464 158.51 17.96 157.838 17.32C157.166 16.68 156.67 15.984 156.35 15.232C156.046 14.48 155.894 13.656 155.894 12.76V12.232C155.894 11.352 156.038 10.544 156.326 9.808C156.614 9.072 157.078 8.392 157.718 7.768C158.374 7.128 159.302 6.632 160.502 6.28C161.718 5.912 163.166 5.728 164.846 5.728H166.31C172.294 5.728 175.286 8.048 175.286 12.688V13.576H161.15C161.502 15.256 163.022 16.096 165.71 16.096H165.734C166.406 16.096 166.998 16.048 167.51 15.952C168.038 15.856 168.446 15.744 168.734 15.616C169.022 15.488 169.254 15.344 169.43 15.184C169.622 15.008 169.75 14.864 169.814 14.752C169.878 14.64 169.918 14.536 169.934 14.44H175.214V14.464ZM10.608 51H5.976C3.848 51 2.784 49.776 2.784 47.328V41.64H0.264V38.088H2.784V34.32H8.064V38.088H10.608V41.64H8.064V46.32C8.064 46.704 8.136 46.992 8.28 47.184C8.424 47.36 8.712 47.448 9.144 47.448H10.608V51ZM30.1386 38.088V51H24.8346V48.768C24.5626 49.024 24.3786 49.2 24.2826 49.296C24.1866 49.376 23.9066 49.576 23.4426 49.896C22.9946 50.216 22.5706 50.456 22.1706 50.616C21.7866 50.76 21.2666 50.904 20.6106 51.048C19.9546 51.208 19.2746 51.288 18.5706 51.288H18.3786C16.3306 51.288 14.7946 50.776 13.7706 49.752C12.7466 48.712 12.2346 47.504 12.2346 46.128V38.088H17.6346V44.472C17.6346 45.464 17.9146 46.248 18.4746 46.824C19.0346 47.4 19.8586 47.688 20.9466 47.688C22.0986 47.688 23.0266 47.368 23.7306 46.728C24.4346 46.088 24.7866 45.24 24.7866 44.184V38.088H30.1386ZM49.0421 41.136H48.8981C47.2981 41.136 46.1621 41.408 45.4901 41.952C44.8181 42.496 44.4821 43.184 44.4821 44.016V44.136C44.4821 44.968 44.8341 45.68 45.5381 46.272C46.2581 46.848 47.3781 47.136 48.8981 47.136H49.0421C50.6421 47.136 51.8501 46.848 52.6661 46.272C53.4981 45.68 53.9141 44.976 53.9141 44.16V44.064C53.9141 43.232 53.4981 42.536 52.6661 41.976C51.8341 41.416 50.6261 41.136 49.0421 41.136ZM50.3141 55.68H48.6101C47.0741 55.68 45.7301 55.544 44.5781 55.272C43.4421 55.016 42.5781 54.712 41.9861 54.36C41.4101 54.008 40.9461 53.592 40.5941 53.112C40.2421 52.648 40.0261 52.264 39.9461 51.96C39.8661 51.656 39.8261 51.36 39.8261 51.072V51H45.2261C45.3381 51.8 46.7141 52.2 49.3541 52.2H49.4261C52.4981 52.2 54.0341 50.96 54.0341 48.48C52.6261 49.776 50.5301 50.424 47.7461 50.424H47.4581C44.5941 50.424 42.4741 49.848 41.0981 48.696C39.7221 47.544 39.0341 46.064 39.0341 44.256V43.776C39.0341 42.048 39.6581 40.616 40.9061 39.48C42.1541 38.344 44.1141 37.776 46.7861 37.776H47.2901C50.3141 37.776 52.5541 38.456 54.0101 39.816V38.088H59.3861V48.648C59.3861 49.208 59.3301 49.76 59.2181 50.304C59.1061 50.848 58.8501 51.456 58.4501 52.128C58.0661 52.8 57.5621 53.384 56.9381 53.88C56.3141 54.392 55.4261 54.816 54.2741 55.152C53.1381 55.504 51.8181 55.68 50.3141 55.68ZM66.8533 33.144V51H61.5013V33.144H66.8533ZM77.6424 51.36C76.2024 51.36 74.9224 51.224 73.8024 50.952C72.6984 50.68 71.8104 50.328 71.1384 49.896C70.4664 49.448 69.9144 48.928 69.4824 48.336C69.0504 47.728 68.7544 47.136 68.5944 46.56C68.4344 45.968 68.3544 45.344 68.3544 44.688V44.256C68.3544 43.616 68.4344 43.008 68.5944 42.432C68.7544 41.856 69.0424 41.272 69.4584 40.68C69.8904 40.088 70.4424 39.584 71.1144 39.168C71.7864 38.736 72.6744 38.392 73.7784 38.136C74.8984 37.864 76.1784 37.728 77.6184 37.728H79.3224C85.4824 37.728 88.5624 39.904 88.5624 44.256V44.688C88.5624 45.36 88.4984 45.976 88.3704 46.536C88.2584 47.096 88.0024 47.688 87.6024 48.312C87.2024 48.936 86.6744 49.464 86.0184 49.896C85.3784 50.312 84.4824 50.664 83.3304 50.952C82.1944 51.224 80.8584 51.36 79.3224 51.36H77.6424ZM74.9064 46.896C75.6264 47.552 76.8184 47.88 78.4824 47.88C80.1464 47.88 81.3384 47.552 82.0584 46.896C82.7784 46.24 83.1384 45.456 83.1384 44.544V44.424C83.1384 43.496 82.7784 42.72 82.0584 42.096C81.3384 41.472 80.1544 41.16 78.5064 41.16H78.4824C76.8024 41.16 75.6024 41.472 74.8824 42.096C74.1784 42.704 73.8264 43.48 73.8264 44.424V44.544C73.8264 45.456 74.1864 46.24 74.9064 46.896ZM99.0137 51H93.4697L88.1177 38.088H93.6857L96.6377 46.344L99.5417 38.088H105.158L108.158 46.344L111.014 38.088H116.006L111.014 51H105.35L102.182 42.456L99.0137 51ZM116.192 33.144H122.72L121.064 45.576H117.848L116.192 33.144ZM122.36 46.8V51H116.552V46.8H122.36Z" fill="#A96FE7"/>
</svg>
