<svg width="196" height="251" viewBox="0 0 196 251" fill="none" xmlns="http://www.w3.org/2000/svg">
<rect y="0.226318" width="196" height="133" rx="8" fill="white" fill-opacity="0.6"/>
<mask id="mask0_561_5198" style="mask-type:alpha" maskUnits="userSpaceOnUse" x="0" y="0" width="196" height="133">
<rect width="196" height="133" rx="8" fill="white" fill-opacity="0.6"/>
</mask>
<g mask="url(#mask0_561_5198)">
<path d="M121.382 27.1587C112.571 20.1803 111.654 22.0167 110.736 3.10158C110.736 3.10158 103 6.00119 96 2.00047C87.5 -2.00007 81.1838 -1.70836 81.1838 3.10158C83.2029 10.08 83.7536 23.3022 70.3542 30.8316C56.7713 38.3609 46.3088 36.8918 34.5615 41.2992C22.8141 45.7066 18.9595 57.827 18.2253 83.537C17.124 121.367 11.2503 156.627 6.66147 179.766C2.07265 202.905 5.19305 251.57 6.11081 264.976C7.02857 278.381 0.604231 292.706 0.0535734 299.5C-0.497084 306.479 3.35752 316.763 4.27528 324.292C5.19305 331.821 7.76278 327.414 11.9845 329.434C16.2062 331.454 17.3075 331.638 20.795 330.536C24.2825 329.434 20.4279 328.883 18.4088 323.19C16.3898 317.497 14.9213 308.682 16.0227 302.806C17.124 296.929 20.4279 303.724 21.8963 313.457C23.3648 323.19 25.2003 318.415 26.6687 317.13C28.1371 315.845 27.2194 302.071 25.7509 296.011C24.2825 289.951 22.0799 285.727 20.795 278.749C19.5102 271.77 21.8963 255.426 30.5233 219.432C39.1503 183.438 33.093 179.215 37.1312 161.585C41.1694 143.955 45.7582 113.103 45.7582 113.103C45.7582 113.103 51.999 129.815 56.2207 158.463C60.4424 187.111 44.4733 215.209 40.2516 250.652C40.1677 254.47 41.9 262.394 49.5 263.541C59 264.976 82.5 268.542 86 270.042C89.5 271.543 110.5 273.043 117 270.042C123.5 267.042 127.5 261.541 138.5 261.541C145.78 261.541 156.171 254.764 155.834 250.652C154.977 239.207 153.525 228.768 151.484 220.901C145.244 196.661 139.003 180.5 140.838 156.627C142.858 132.753 149.833 113.287 149.833 113.287C152.953 122.836 159.928 153.688 160.846 163.238C161.763 172.787 158.276 179.949 162.865 200.884C167.454 221.82 177.182 268.648 177.365 275.26C177.549 281.871 170.941 287.931 171.308 293.073C171.675 298.215 169.289 309.05 168.188 313.09C167.086 317.13 171.859 318.966 174.429 313.641C177.182 308.315 176.448 300.602 179.017 301.704C181.587 302.806 180.302 306.479 180.302 313.824C180.302 321.17 178.65 322.272 177.365 324.108C176.081 325.945 176.815 330.72 178.1 330.352L178.229 330.32C179.785 329.932 183.526 329 187.094 326.679C190.581 324.292 190.948 321.905 194.069 319.517C197.189 317.13 196.271 294.358 193.151 285.911C190.214 277.463 191.866 271.036 191.682 228.431C191.499 185.826 190.398 165.441 186.91 156.443C183.606 147.445 180.302 120.816 179.201 102.452C178.1 84.0879 177.733 62.0508 173.694 52.685C169.656 43.3193 164.15 40.1973 150.75 37.9936C139.921 36.1572 131.11 34.8717 121.382 27.1587Z" fill="#C09DFE" fill-opacity="0.3"/>
<path d="M121.015 47.9306C105.229 57.2964 100.09 83.5573 110.185 101.003C120.281 118.633 148.181 105.227 148.181 89.9847C148.181 74.7424 150.75 73.2733 158.092 80.9863C165.618 88.8829 169.84 104.125 169.84 87.0465C169.84 69.9677 170.39 52.7053 159.744 48.4816C149.098 44.2578 133.496 40.5849 121.015 47.9306Z" fill="white" fill-opacity="0.2"/>
<path d="M132.395 49.7672C115.324 53.0728 104.311 87.4139 117.71 98.7997C131.11 110.002 148.914 94.025 146.345 77.6809C143.958 61.3367 161.947 75.6608 164.333 78.7827C166.719 81.9046 165.618 64.8259 158.826 57.1129C152.035 49.5836 139.37 48.4817 132.395 49.7672Z" fill="white" fill-opacity="0.2"/>
<path d="M77.8796 47.9306C93.6652 57.1128 98.8046 83.3736 88.7092 101.003C78.6138 118.633 50.7138 105.227 50.7138 89.9847C50.7138 74.7424 48.1441 73.2733 40.802 80.9863C33.2764 88.8829 29.0546 104.125 29.0546 87.0465C29.0546 69.9677 28.504 52.7053 39.15 48.4816C49.7961 44.2578 65.5816 40.5849 77.8796 47.9306Z" fill="white" fill-opacity="0.2"/>
<path d="M66.6832 49.7672C83.7536 53.0728 94.7667 87.4139 81.3674 98.7997C67.9681 110.186 50.1635 94.025 52.7332 77.6809C55.1194 61.3367 37.1312 75.6608 34.745 78.7827C32.3589 82.0883 33.4602 64.8259 40.2516 57.1129C46.8595 49.5836 59.5246 48.4817 66.6832 49.7672Z" fill="white" fill-opacity="0.2"/>
<path d="M83.7531 110.553C97.1525 111.838 98.6209 98.7997 98.6209 98.7997C98.6209 98.7997 99.5387 110.553 114.039 112.022C114.039 112.022 101.191 116.613 98.8045 107.982C98.8045 107.982 94.7663 114.593 88.5255 113.491C82.2847 112.389 83.7531 110.553 83.7531 110.553Z" fill="white" fill-opacity="0.1"/>
<path d="M150.75 38.014C143.041 36.7285 136.249 35.6266 129.274 32.321C126.705 39.1158 112.571 45.176 114.04 45.176C115.875 45.176 148.18 37.6467 163.415 41.6868C160.295 40.034 156.257 38.9322 150.75 38.014Z" fill="#AA88E8" fill-opacity="0.3"/>
<path d="M186.91 156.463C183.423 147.465 180.119 120.837 179.201 102.472C178.283 84.108 177.916 62.071 173.694 52.7052C173.511 52.3379 173.327 52.1543 173.327 51.787C176.631 70.8858 174.428 80.0679 174.061 94.0247C173.878 109.451 173.694 124.509 174.979 114.96C176.264 105.411 177.549 98.7994 177.732 110.553C177.916 122.122 177.916 143.241 181.22 152.974C184.524 162.707 188.929 177.582 191.132 203.108C190.765 177.215 189.48 163.258 186.91 156.463Z" fill="#AA88E8" fill-opacity="0.3"/>
<path d="M163.415 185.479C166.352 163.074 170.207 175.011 169.656 170.053C169.105 164.911 168.188 143.792 166.536 148.016C165.067 152.24 166.536 156.647 160.478 138.466C154.421 120.286 153.136 106.513 154.972 98.7996C156.807 91.0866 163.782 92.1885 160.111 89.4338C156.44 86.6792 147.997 77.4971 149.465 84.6591C150.934 91.8212 150.199 102.105 146.345 108.533C142.49 114.776 120.28 116.613 126.154 118.266C132.028 119.918 138.819 135.712 136.984 146.547C135.148 157.382 129.091 159.218 132.395 167.115C135.515 175.011 139.003 184.193 135.882 189.886C132.945 195.028 140.838 195.946 147.446 206.598C142.857 189.703 139.186 175.562 140.655 156.647C142.49 132.773 149.649 113.307 149.649 113.307C152.769 122.857 159.744 153.709 160.662 163.258C161.58 172.807 158.276 179.97 162.681 200.905C166.536 218.351 173.878 253.794 176.264 268.852C174.795 237.633 160.478 207.883 163.415 185.479Z" fill="#AA88E8" fill-opacity="0.1"/>
<path d="M162.498 199.436C162.498 190.621 162.314 171.706 163.232 167.849C164.333 162.707 169.656 168.584 168.004 162.156C166.169 155.729 166.352 152.607 166.169 157.014C165.985 161.238 161.763 156.464 159.928 147.649C158.092 138.834 153.687 123.041 151.852 114.042C150.016 105.044 155.523 93.1069 157.542 92.556C159.561 92.0051 159.01 89.8014 156.073 88.3322C153.136 86.8631 151.668 82.4557 151.852 88.3322C152.035 94.2088 152.035 103.391 148.364 112.022L149.098 115.511C149.649 114.042 149.832 113.124 149.832 113.124C152.953 122.673 159.928 153.525 160.846 163.075C161.58 172.44 158.276 179.602 162.498 199.436Z" fill="#AA88E8" fill-opacity="0.1"/>
<path d="M88.7093 8.99854C89.6271 5.32569 89.1013 1.88746 88 -0.499893C85.5 -1.50004 81 0.50032 81.1837 3.12198C81.9179 5.69298 82.4685 5.69298 82.285 9.73311C82.8356 13.406 83.2027 17.2624 83.2027 21.1189C83.2027 37.0958 83.5698 35.6267 73.658 34.8921C70.9047 34.7085 66.8665 34.5248 62.2777 34.5248C54.385 37.2795 47.41 37.8304 40.0679 39.6668C56.0369 40.585 67.0501 40.7687 73.2909 40.7687C80.4494 40.7687 91.4626 52.8891 89.8106 50.1344C88.1586 47.3798 85.5889 21.8535 88.7093 8.99854Z" fill="#AA88E8" fill-opacity="0.3"/>
<path d="M92.0134 37.6468C98.6213 46.6452 98.9884 44.4415 101.375 38.7486C103.577 33.0557 103.027 30.1174 103.027 30.1174C103.027 30.1174 100.457 37.6468 97.7036 39.2996C94.7667 40.9523 92.0134 37.6468 92.0134 37.6468Z" fill="#AA88E8" fill-opacity="0.3"/>
<path d="M16.7571 140.854C16.7571 123.224 20.9788 95.3105 24.4663 106.696C28.1373 118.082 25.384 105.227 23.9156 92.7395C22.6307 82.8228 17.6748 70.7024 22.4472 53.4401C19.6939 60.2348 18.409 69.9679 18.0419 83.5574C17.1242 121.388 11.8011 156.647 7.39588 179.602C5.0097 191.355 4.64259 209.72 5.0097 226.615C6.47812 216.882 7.94654 206.965 9.2314 199.068C13.4531 173.359 16.7571 158.483 16.7571 140.854Z" fill="#AA88E8" fill-opacity="0.1"/>
<path d="M42.6374 87.4137C40.4348 81.7208 42.6374 87.4137 37.3144 89.4338C31.9914 91.4539 40.4348 100.82 39.8841 108.533C39.517 116.246 36.0295 154.076 29.2381 162.523C22.4467 170.971 28.871 172.257 31.0736 184.377C33.2763 196.497 21.896 248.284 20.7947 270.322C21.5289 260.956 24.4657 245.163 30.7065 219.269C39.3335 183.275 33.2763 179.051 37.3144 161.422C41.3526 143.792 45.9414 112.94 45.9414 112.94C45.9414 112.94 51.9986 129.651 56.4039 158.3C59.1572 176.48 53.6506 194.477 48.3276 214.127C54.9355 206.781 64.2966 203.292 62.8282 197.966C60.9927 191.539 61.1763 174.828 64.8473 167.115C68.5184 159.585 61.5434 153.341 62.8282 140.486C64.1131 127.631 77.5124 114.96 77.5124 114.96C77.5124 114.96 67.2335 114.593 55.3026 110.185C43.3716 106.145 44.8401 93.1066 42.6374 87.4137Z" fill="#AA88E8" fill-opacity="0.1"/>
<path d="M71 132.226C75.7724 153.529 75.2217 161.793 84.7664 162.711C94.3112 163.446 97.6151 162.711 97.6151 162.711C97.6151 162.711 84.2158 162.16 79.0763 154.447C73.7533 146.367 71 132.226 71 132.226Z" fill="white" fill-opacity="0.1"/>
<path d="M128.085 132.226C123.313 153.529 123.863 161.793 114.319 162.711C104.774 163.446 101.47 162.711 101.47 162.711C101.47 162.711 114.869 162.16 120.009 154.447C125.148 146.367 128.085 132.226 128.085 132.226Z" fill="white" fill-opacity="0.1"/>
<path d="M37.4981 161.422C41.5363 143.976 46.1251 112.94 46.1251 112.94C46.1251 112.94 46.6758 114.225 47.41 116.98L49.4291 108.533C44.4731 103.023 41.3527 94.7594 41.3527 91.0865C41.3527 87.5973 35.8462 92.9229 37.3146 93.2902C38.783 93.8412 40.9856 100.085 42.087 110.369C43.1883 120.653 38.2323 153.525 34.9284 159.218C31.6245 164.911 26.485 164.176 30.5231 171.706C34.3777 179.235 33.6435 204.394 30.8902 218.902C39.5172 183.275 33.46 178.868 37.4981 161.422Z" fill="#AA88E8" fill-opacity="0.1"/>
<path d="M178.467 89.9846C178.283 84.4754 177.916 78.9661 177.549 73.8241C176.631 86.8627 174.979 94.392 174.979 100.636C174.796 108.165 176.264 95.3103 178.467 89.9846Z" fill="#AA88E8" fill-opacity="0.3"/>
<path d="M186.911 156.463C184.708 150.587 182.322 136.814 180.853 122.857C180.853 126.162 180.853 129.284 180.853 132.406C181.037 147.465 187.461 165.645 190.214 175.195C189.297 166.196 188.379 160.136 186.911 156.463Z" fill="#AA88E8" fill-opacity="0.3"/>
<path d="M17.3071 112.206C18.7755 93.8414 22.8136 102.289 22.4465 97.3306C22.263 93.8414 20.0603 84.8429 18.5919 73.2734C18.4084 76.3954 18.2248 79.8846 18.0413 83.5574C17.1235 121.388 11.8005 156.647 7.39522 179.602C5.9268 186.581 5.37614 195.947 5.00903 206.047C7.02811 184.928 12.5347 171.706 13.0853 160.32C13.636 148.75 15.8386 130.57 17.3071 112.206Z" fill="#AA88E8" fill-opacity="0.1"/>
<path d="M98.6209 132.59C99.1715 161.605 97.7031 163.074 97.7031 163.074C97.7031 163.074 98.0702 192.457 98.2538 202.006C98.4373 211.556 100.456 214.494 100.456 214.494C100.456 214.494 101.741 211.739 101.558 201.823C101.374 191.906 101.007 168.767 100.824 163.074C100.456 157.381 98.6209 132.59 98.6209 132.59Z" fill="white" fill-opacity="0.1"/>
<path d="M99.1718 94.3921C98.9882 88.8829 95.5007 79.7008 96.602 78.7825C97.7033 78.048 98.9882 57.2964 98.9882 57.2964C98.9882 57.2964 100.64 76.7625 101.741 78.7825C102.843 80.8026 101.007 83.0063 100.273 87.5974C99.5389 92.1884 99.1718 94.3921 99.1718 94.3921Z" fill="white" fill-opacity="0.1"/>
<path d="M121.382 27.1789C112.571 20.3841 111.654 22.0369 110.736 3.12175C110.736 3.12175 99.7227 0.734399 91.0957 0.183472C92.0135 20.9351 89.4437 30.1172 93.849 34.341C98.4378 38.5647 102.292 23.1388 103.027 13.2221C103.577 3.30539 110.919 24.4243 108.9 34.1573C107.065 43.8904 113.673 38.5647 125.053 31.219C125.42 31.0354 125.604 30.8517 125.971 30.4845C124.502 29.5662 123.034 28.4644 121.382 27.1789Z" fill="white" fill-opacity="0.2"/>
<path d="M161.946 96.7796C154.421 111.471 162.314 145.078 165.617 146.179C168.921 147.281 170.206 142.874 171.491 154.627C172.776 166.38 170.39 170.604 166.719 180.521C163.048 190.437 173.694 228.635 178.466 252.325C183.239 276.015 184.707 286.115 186.726 268.853C188.562 251.59 191.315 199.803 186.726 182.173C182.137 164.727 177.365 145.445 174.979 132.406C172.592 119.368 170.206 107.431 167.269 100.82C163.966 94.2087 162.864 94.9432 161.946 96.7796Z" fill="white" fill-opacity="0.2"/>
<path d="M163.415 102.472C161.947 106.145 161.763 135.528 168.004 143.057C174.428 150.403 173.143 129.835 169.839 116.429C166.536 103.023 164.516 100.085 163.415 102.472Z" fill="white" fill-opacity="0.2"/>
<path d="M34.9285 101.738C38.5996 113.675 32.1752 152.423 26.4851 159.402C20.795 166.38 28.3206 177.031 29.2384 191.906C30.1561 206.598 20.795 270.873 15.839 272.525C10.8831 274.178 4.64233 234.511 10.3325 206.047C16.0226 177.582 20.6114 147.465 20.4279 131.304C20.2443 115.144 23.3647 108.716 25.2002 113.675C27.0357 118.633 30.3397 103.574 31.8081 98.7997C33.093 94.025 34.9285 101.738 34.9285 101.738Z" fill="white" fill-opacity="0.2"/>
<path d="M27.9533 120.653C22.0797 122.857 19.3264 161.789 21.8961 162.891C24.4658 163.993 31.4408 140.119 31.9915 127.264C32.5422 114.593 27.9533 120.653 27.9533 120.653Z" fill="white" fill-opacity="0.2"/>
<path d="M101.374 126.529C103.026 143.057 100.64 158.851 102.843 159.401C105.045 159.952 120.096 156.096 121.748 140.119C123.4 124.142 123.217 125.979 115.691 125.611C108.166 125.244 100.823 120.469 101.374 126.529Z" fill="white" fill-opacity="0.2"/>
<path d="M96.6019 126.529C94.9499 143.057 97.3361 158.851 95.1335 159.401C92.9309 159.952 77.8796 156.096 76.4111 140.119C74.9427 124.142 74.9427 125.979 82.4684 125.611C89.8105 125.244 97.1526 120.469 96.6019 126.529Z" fill="white" fill-opacity="0.2"/>
</g>
<path d="M110.736 3.12207C111.654 22.0372 112.571 20.2008 121.382 27.1792C131.11 34.8922 139.921 36.1777 150.75 38.0141C164.15 40.2178 169.656 43.3398 173.694 52.7055C177.733 62.0713 178.1 84.1084 179.201 102.473C180.302 120.837 183.606 147.465 186.91 156.463C190.142 164.804 191.325 182.925 191.627 219.453M40.2516 250.672C44.4733 215.229 60.4424 187.132 56.2207 158.484C51.999 129.835 45.7582 113.124 45.7582 113.124C45.7582 113.124 41.1694 143.976 37.1312 161.605C33.093 179.235 39.1503 183.459 30.5233 219.453M81.1838 3.12207C83.2029 10.1005 83.7536 23.3227 70.3542 30.8521C56.7713 38.3814 46.3088 36.9123 34.5615 41.3197C22.8141 45.7271 18.9595 57.8475 18.2253 83.5574C17.124 121.388 11.2503 156.647 6.66147 179.786C4.6661 189.848 4.12839 204.736 4.2334 219.453M155.834 250.672C154.977 239.227 153.525 228.789 151.484 220.922C145.244 196.681 139.003 180.521 140.838 156.647C142.858 132.774 149.833 113.308 149.833 113.308C152.953 122.857 159.928 153.709 160.846 163.258C161.763 172.808 158.276 179.97 162.865 200.905C163.962 205.909 165.352 212.393 166.836 219.453" stroke="#6B1FE0" stroke-opacity="0.3" stroke-width="1.5"/>
</svg>
