<svg width="196" height="246" viewBox="0 0 196 246" fill="none" xmlns="http://www.w3.org/2000/svg">
<rect width="196" height="88" rx="8" fill="white" fill-opacity="0.6"/>
<mask id="mask0_554_2995" style="mask-type:alpha" maskUnits="userSpaceOnUse" x="0" y="0" width="196" height="88">
<rect width="196" height="88" rx="8" fill="white" fill-opacity="0.6"/>
</mask>
<g mask="url(#mask0_554_2995)">
<path d="M186.056 241.472C187.356 239.66 188.384 237.682 189.049 235.507C189.472 234.148 189.729 232.653 189.23 231.324C187.915 227.761 179.573 228.591 176.581 228.168C167.303 226.824 157.828 225.088 149.456 220.678C144.544 217.99 139.996 214.396 136.868 209.73C135.19 207.223 133.981 204.445 133.286 201.515C132.742 199.009 132.425 196.441 132.077 193.889C130.657 182.73 130.853 171.329 131.019 160.094C135.613 155.412 139.527 150.097 141.975 144.676C142.429 143.664 142.822 142.577 143.154 141.504C143.834 139.345 144.227 137.14 144.68 134.981C144.937 133.743 145.194 132.519 145.466 131.281C145.829 131.372 146.297 131.251 146.615 131.13C149.32 130.194 151.42 127.989 152.81 125.543C154.503 122.613 155.138 119.185 155.636 115.908C156.256 111.529 157.042 107.225 158.1 102.937C158.659 100.521 159.278 98.0591 159.354 95.5372C159.505 93.7553 158.976 92.1546 156.951 92.0489C156.483 92.0489 156.029 92.1093 155.591 92.2301C155.742 90.8862 155.863 89.5573 155.969 88.2133C156.09 86.7183 156.196 85.2233 156.301 83.7283C156.694 77.7333 156.906 71.7382 156.876 65.7281C156.83 59.7028 156.604 53.6625 155.334 47.7429C155.002 46.263 154.609 44.7982 154.11 43.3788C151.647 36.2964 148.897 29.2443 144.892 22.8566C142.474 19.0361 139.557 15.4723 136.006 12.6182C127.604 6.06444 117.328 2.25901 106.901 0.582813C103.909 0.114685 100.841 -0.172232 97.8187 0.114685C91.8193 0.658317 85.8501 2.66674 81.0446 6.33625C79.9414 6.09464 78.808 5.91343 77.6746 5.79262C74.2292 5.4453 70.7081 5.77752 67.4288 6.95539C62.2002 8.7675 57.9235 12.5729 54.4931 16.8163C49.2796 23.2795 45.4714 30.7846 42.6908 38.5767C38.1271 51.5483 37.175 65.6073 38.4595 79.2434C38.9129 83.6075 39.4569 88.0623 40.4694 92.2906C39.7138 92.0489 38.9431 92.0036 38.1875 92.1999C36.7519 92.6379 36.4497 94.1027 36.5403 95.4013C36.5857 97.9232 37.2053 100.415 37.7644 102.831C38.8222 107.135 39.6382 111.454 40.2427 115.848C40.7414 119.125 41.361 122.583 43.0686 125.528C44.1869 127.506 45.7283 129.303 47.7231 130.435C48.2973 130.737 49.7934 131.583 50.549 131.251C50.821 132.489 51.093 133.743 51.3348 134.981C51.9393 137.941 52.5286 141.051 53.7073 143.89C55.9288 149.342 59.5103 154.129 63.4393 158.448C63.9531 159.006 64.4669 159.55 65.011 160.094C65.0412 164.548 65.1772 169.743 65.1016 174.168C65.0714 180.283 64.7843 186.414 64.1042 192.5C63.7265 195.505 63.3638 198.556 62.7291 201.53C62.0339 204.46 60.825 207.239 59.1325 209.745C56.0043 214.427 51.4406 218.006 46.5443 220.693C38.1724 225.103 28.5311 227.202 19.2524 228.546C14.3109 229.256 10.7747 229.875 4.9869 230.887C2.23655 235.085 3.76285 242.967 6.84565 246.425C11.2583 251.378 18.0435 253.342 24.4509 255.063C36.0568 258.189 47.6777 261.315 59.2836 264.441C79.8205 269.968 101.748 275.495 122.013 269.062C130.052 266.51 137.427 262.176 145.421 259.427C153.627 256.603 162.376 255.516 170.506 252.466C176.506 250.216 182.369 246.576 186.056 241.472Z" fill="#C09DFE" fill-opacity="0.3"/>
<path d="M143.093 86.5975C142.081 92.3661 143.35 98.6632 143.683 104.568C144.03 110.714 141.718 116.014 139.361 121.526C138.726 123.021 138.076 124.546 137.94 126.177C137.819 127.747 138.182 129.303 138.363 130.873C139.451 140.191 135.492 149.568 129.357 156.409C126.697 159.369 124.037 162.344 121.106 165.032C117.585 168.278 110.135 173.579 104.619 175.587C111.132 174.107 121.302 167.357 126.486 163.129C131.155 159.323 135.946 155.397 138.923 150.157C140.827 146.805 141.9 143.06 142.942 139.36C143.169 138.575 144.68 131.311 144.997 131.236C149.561 130.164 152.977 125.467 152.584 120.801C152.432 118.929 151.737 117.147 151.45 115.289C151.118 113.1 151.36 110.819 152.145 108.751C152.569 107.648 153.143 106.531 152.977 105.368C152.795 104.099 151.798 103.118 151.299 101.94C150.846 100.823 150.861 99.5843 150.891 98.3913C151.163 86.1596 151.103 74.4413 147.491 62.5871C145.693 56.6827 141.431 51.8353 137.366 47.3654C132.001 41.461 125.367 38.9995 117.539 37.8368C111.706 36.9609 105.465 35.5565 99.5865 35.4659C92.8467 35.3602 86.5148 31.7209 81.3013 27.7343C82.9485 28.8819 83.4925 31.8719 84.7316 33.5028C86.6055 35.9642 88.8421 38.2747 91.7889 39.3921C93.6325 40.1019 95.6273 40.2982 97.5767 40.4643C106.296 41.2194 115.529 41.1892 123.796 44.4207C140.464 50.9141 145.98 70.2735 143.093 86.5975Z" fill="#AA88E8" fill-opacity="0.3"/>
<path d="M52.6949 86.3257C52.8309 88.1378 52.9669 89.9348 52.7856 91.8376C52.2869 97.5155 51.1082 103.224 51.9998 108.841C52.6345 112.873 54.3119 116.648 55.6417 120.514C56.7449 123.7 57.6516 127.068 57.5005 130.481C57.3493 133.607 57.3493 136.627 57.9992 139.738C59.2988 145.838 62.3816 151.516 66.5373 156.137C69.197 159.097 71.8567 162.072 74.7884 164.76C78.3094 168.006 85.7595 173.307 91.2753 175.315C84.7621 173.835 74.7581 168.037 69.5899 163.824C64.9204 160.018 59.9637 155.141 56.9867 149.9C55.0372 146.473 53.7527 142.516 52.8611 138.696C52.5287 137.276 52.6798 135.872 52.3625 134.467C51.894 132.414 50.9419 130.375 50.3375 128.352C49.0076 123.897 47.9347 119.366 47.3 114.761C46.7409 110.729 46.0155 106.576 45.9853 102.499C45.9702 99.7957 45.5621 97.1984 46.3026 94.5406C47.0733 91.7922 48.8867 89.3157 49.0227 86.4616C49.0983 84.9968 48.7205 83.5019 49.0379 82.0673C49.2948 80.98 49.9295 80.0136 50.277 78.9565C50.8211 77.2803 50.6699 75.3021 51.8033 73.943C51.7429 74.0185 52.2416 75.4078 52.2869 75.6645C52.4229 76.4497 52.4531 77.2803 52.4833 78.0806C52.5438 79.787 52.4531 81.4783 52.5136 83.1847C52.5287 84.2418 52.6042 85.2838 52.6949 86.3257Z" fill="white" fill-opacity="0.3"/>
<path d="M63.817 81.3274C63.8472 81.3274 63.8623 81.3274 63.8925 81.3274C65.6455 81.3727 67.338 82.0069 68.9701 82.6411C74.3197 84.6798 79.3066 86.6127 85.0037 87.6244C85.4571 87.6999 86.5602 87.866 86.9078 87.4885C87.21 87.1563 87.0287 85.7066 86.8625 85.2838C86.4544 84.272 85.9406 83.2452 85.0642 82.5958C84.4143 82.1126 83.6285 81.871 82.8578 81.6294C79.4426 80.5723 76.0273 79.9079 72.612 78.8508C70.0733 78.0656 67.3985 76.8877 64.769 77.3256C61.248 77.9297 58.5883 80.7384 56.1855 83.3811C55.4601 84.1965 55.0975 84.6798 54.3872 85.4952C54.9312 85.0573 55.309 84.7553 55.8984 84.3626C56.6993 83.8341 57.5154 83.3056 58.3616 82.8525C60.039 81.9616 61.8827 81.282 63.817 81.3274Z" fill="#AA88E8" fill-opacity="0.5"/>
<path d="M132.243 81.3274C132.213 81.3274 132.198 81.3274 132.168 81.3274C130.415 81.3727 128.722 82.0069 127.09 82.6411C121.741 84.6798 116.754 86.6127 111.057 87.6244C110.603 87.6999 109.5 87.866 109.153 87.4885C108.85 87.1563 109.032 85.7066 109.198 85.2838C109.606 84.272 110.12 83.2452 110.996 82.5958C111.646 82.1126 112.432 81.871 113.202 81.6294C116.618 80.5723 120.033 79.9079 123.448 78.8508C125.987 78.0656 128.662 76.8877 131.291 77.3256C134.812 77.9297 137.472 80.7384 139.875 83.3811C140.6 84.1965 140.963 84.6798 141.673 85.4952C141.129 85.0573 140.751 84.7553 140.162 84.3626C139.361 83.8341 138.545 83.3056 137.699 82.8525C136.006 81.9616 134.163 81.282 132.243 81.3274Z" fill="#AA88E8" fill-opacity="0.5"/>
<path d="M71.222 6.39665C70.0886 6.66847 68.9703 7.01579 67.8823 7.45372C63.5905 9.16012 59.6766 11.984 56.4729 15.3062C54.055 17.828 51.8638 20.5613 49.9446 23.4758C47.2698 27.5228 45.1088 31.9021 43.5221 36.4776C41.8295 41.3552 40.409 46.4593 39.729 51.5936C39.4872 53.4359 39.3663 55.2934 39.2605 57.1508C39.0792 60.0199 38.8979 62.8891 38.7165 65.7583C38.5503 68.3556 38.5654 70.8624 38.5805 73.4597C38.5956 76.4044 38.7467 79.3491 39.0339 82.2938C39.3059 85.027 39.5174 87.8962 40.2126 90.5539C40.2428 90.6899 40.6508 92.5171 40.6508 92.5171C41.3762 92.7587 41.9504 93.106 42.5851 93.5137C43.2954 93.9667 43.7034 94.5557 44.2021 95.1899C44.5497 95.6278 45.4413 96.3829 45.4866 96.9416C45.3506 95.3258 45.139 93.3627 46.0004 91.913C46.2271 91.5506 46.4991 91.2184 46.7258 90.856C47.6022 89.4969 47.8591 87.8358 48.0858 86.2653C48.4183 83.9699 48.4183 81.5991 48.9623 79.334C49.3552 77.7182 50.2015 76.2534 50.9268 74.7584C52.982 70.5 53.8283 65.8489 55.5208 61.4696C57.2285 57.0602 59.9637 53.0584 63.4545 49.8721C67.0965 46.5499 72.2043 43.9073 75.4231 40.1925C79.0348 36.0246 81.3469 30.8148 81.3469 25.5295C81.3469 27.9456 82.6767 31.1017 84.2181 32.8534C87.2254 36.2511 91.1847 37.7159 95.28 38.5465C100.116 39.528 105.178 38.0783 110.09 37.9424C120.592 37.6555 131.11 42.4274 137.789 50.5215C140.766 54.1155 142.716 58.4343 143.985 62.9042C144.635 65.1693 145.119 67.4798 145.481 69.8053C145.844 72.1006 145.889 74.4564 146.297 76.7366C146.645 78.745 146.826 80.7686 147.053 82.7921C147.174 83.834 147.31 84.8609 147.476 85.9029C147.627 86.7485 147.718 87.7452 148.247 88.4549C147.401 87.8207 147.008 87.3525 146.071 84.6042C146.222 87.0505 146.826 89.4667 147.854 91.6865C148.549 93.1815 149.274 95.1597 151.949 95.1597C153.113 93.9969 155.123 92.9097 155.289 92.8795C155.606 92.4869 155.591 91.7469 155.621 91.2637C155.682 90.4784 155.682 89.7083 155.742 88.923C155.742 87.1411 156.029 85.3139 156.15 83.532C156.271 81.735 156.407 79.938 156.437 78.141C156.589 67.1778 156.997 55.6256 154.171 44.9492C152.78 39.6941 150.695 34.6202 148.277 29.7577C146.01 25.2124 143.426 20.5915 139.996 16.8012C139.678 16.4387 139.346 16.0914 138.998 15.7592C135.991 12.739 132.334 10.5494 128.556 8.63159C124.612 6.63827 120.577 4.88656 116.376 3.52748C106.342 0.159983 95.3404 -0.383649 85.5177 3.905C84.3995 4.38823 83.3265 4.94697 82.2989 5.5812C81.8909 5.83792 81.3771 6.35135 80.9086 6.42685C80.5309 6.48726 79.881 6.18524 79.5032 6.10974C76.7529 5.61141 73.927 5.76242 71.222 6.39665Z" fill="#AA88E8" fill-opacity="0.5"/>
<path d="M56.382 92.8493C56.3518 92.8191 56.3367 92.7889 56.3064 92.7587C54.7348 90.4633 55.8833 87.9415 58.1803 86.7485C63.4392 84.0304 70.3302 85.4045 75.302 88.0774C76.8736 88.923 78.279 90.0103 79.6391 91.158C80.8933 92.215 82.2232 93.257 83.3717 94.4349C84.4446 95.5372 84.9282 97.002 85.2304 98.5121C84.6411 97.9836 84.1726 97.4702 83.3868 96.8963C80.9236 95.0993 78.6266 93.3174 75.5438 92.6681C71.0102 91.7167 66.5069 92.4265 62.3361 94.3594C61.4445 94.7671 60.4773 95.2503 59.495 94.9181C58.2559 94.4953 57.1376 93.9063 56.382 92.8493Z" fill="#AA88E8" fill-opacity="0.1"/>
<path d="M139.633 92.8493C139.663 92.8191 139.678 92.7889 139.708 92.7587C141.28 90.4633 140.132 87.9415 137.835 86.7485C132.576 84.0304 125.685 85.4045 120.713 88.0774C119.141 88.923 117.736 90.0103 116.376 91.158C115.122 92.215 113.792 93.257 112.643 94.4349C111.57 95.5372 111.087 97.002 110.784 98.5121C111.374 97.9836 111.842 97.4702 112.628 96.8963C115.091 95.0993 117.388 93.3174 120.471 92.6681C125.005 91.7167 129.508 92.4265 133.679 94.3594C134.57 94.7671 135.538 95.2503 136.52 94.9181C137.744 94.4953 138.862 93.9063 139.633 92.8493Z" fill="#AA88E8" fill-opacity="0.1"/>
<path opacity="0.5" d="M64.0739 65.9093C63.9076 66.7851 63.7716 67.6761 63.9832 68.5368C64.1796 69.3976 64.8143 70.213 65.6757 70.3942C67.0509 70.6661 68.1691 69.3221 68.819 68.0838C70.1035 65.562 70.4964 62.6777 69.9221 59.884C69.7559 59.0686 69.3328 58.1172 68.5016 58.0115C67.9425 57.936 67.4287 58.2984 67.0055 58.691C64.8143 60.7297 64.5877 63.1458 64.0739 65.9093Z" fill="white" fill-opacity="0.3"/>
<path d="M53.7829 28.6252C53.39 30.105 53.1029 31.8718 54.1607 32.9893C54.5838 33.4423 55.1883 33.6991 55.6266 34.137C56.6693 35.1487 56.6693 36.7947 56.5937 38.2444C56.4577 40.7965 56.3217 43.3334 56.2008 45.8855C57.3795 45.4778 58.5582 45.07 59.737 44.6623C58.4222 45.7798 57.6969 47.4711 57.44 49.1775C57.168 50.8839 57.304 52.6205 57.4551 54.342C58.6489 52.696 60.1148 51.2463 61.7922 50.0835C63.1673 49.1171 64.7843 48.2563 65.4794 46.7311C65.6457 46.3838 65.7212 45.9157 65.4492 45.6439C65.1772 45.3871 64.7541 45.4475 64.3763 45.4324C63.4242 45.4022 62.578 44.7227 62.2153 43.8469C61.8375 42.971 61.9131 41.9592 62.2304 41.0834C60.7646 41.7327 58.8454 40.872 58.3467 39.3619C57.8631 37.9122 58.5885 36.387 59.072 34.9373C59.5405 33.4876 59.6463 31.6 58.392 30.7393C57.7271 30.2863 56.775 30.2107 56.3368 29.5312C56.0043 29.0178 56.095 28.3382 56.2008 27.7342C56.8657 23.9741 58.1351 19.8213 58.1804 16.031C56.9262 17.375 56.3368 20.3952 55.7474 22.1771C55.0976 24.0194 53.7829 26.6469 53.7829 28.6252Z" fill="white" fill-opacity="0.3"/>
<path d="M90.4892 21.7241C88.5549 23.1134 88.7815 26.5564 90.867 27.6889C91.7888 28.1873 93.028 28.3836 93.4511 29.3349C93.9649 30.4826 92.8768 31.2679 92.9675 32.2947C93.0733 33.4424 94.6147 34.3484 95.5667 34.6354C96.9268 35.0431 98.3775 34.9072 99.798 34.8317C103.38 34.6354 106.976 34.8166 110.527 35.3602C109.515 35.2092 108.578 34.5296 107.641 34.1672C106.432 33.6991 105.238 33.3065 103.939 33.1857C102.488 33.0498 99.2842 32.7024 99.0576 30.8148C98.9971 30.2561 99.2087 29.6974 99.2238 29.1235C99.2691 27.3567 97.4255 26.1638 95.733 25.6805C94.0404 25.1973 92.1212 24.9708 90.9123 23.6872C92.0155 22.9171 93.2546 21.86 93.0582 20.516C92.8466 19.0965 91.2296 18.4774 89.9451 17.8734C86.6357 16.318 84.656 13.4186 83.4773 10.0813C83.3866 14.9287 85.8196 19.8667 90.4892 21.7241Z" fill="white" fill-opacity="0.3"/>
<path d="M101.506 24.6839C102.171 24.8953 102.896 25.1823 103.214 25.8014C103.607 26.5715 103.183 27.5229 103.44 28.3535C103.773 29.4709 105.103 29.8786 106.221 30.1958C109.561 31.1169 112.734 32.6421 115.56 34.6656C115.076 34.0465 114.638 33.3216 114.623 32.5213C114.593 31.736 115.092 30.8753 115.877 30.7394C113.55 29.1085 109.878 30.1203 107.944 28.0363C108.563 27.5531 108.986 26.8434 109.137 26.0732C108.034 24.4574 105.828 24.1554 103.894 23.8836C101.959 23.6118 99.7228 23.0077 98.9975 21.1805C98.8615 20.8332 98.7708 20.4557 98.4988 20.2141C98.3023 20.048 98.0454 19.9725 97.7885 19.8969C96.5947 19.5798 95.4009 19.2627 94.207 18.9607C96.5191 19.3986 95.5973 20.652 96.3831 22.1017C97.3049 23.8685 99.6473 24.0648 101.506 24.6839Z" fill="white" fill-opacity="0.3"/>
<path d="M43.5976 46.2782C43.1594 49.7967 42.9025 53.5719 44.6252 56.6676C45.1844 57.6793 45.94 58.5703 46.3631 59.6425C46.9827 61.213 46.8013 62.9496 46.9373 64.6258C47.1489 67.4798 48.2672 70.2433 50.0806 72.448C50.4282 72.8708 50.8211 73.3088 50.8815 73.8524C50.9571 74.4262 50.6246 74.985 50.3677 75.4984C48.1765 79.8022 49.2797 85.1781 47.2698 89.5724C46.2724 91.747 45.2902 94.6312 45.5773 97.2286C43.9452 94.299 42.3131 93.8158 40.6357 92.4869C39.6837 90.554 37.8854 71.5571 38.505 64.218C38.8072 60.5787 38.9734 56.6072 39.593 53.0132C41.3913 42.5634 44.0359 33.2008 50.2166 23.2644C46.1666 30.2863 44.5799 38.3351 43.5976 46.2782Z" fill="white" fill-opacity="0.3"/>
<path d="M153.657 44.9191C153.4 43.0013 153.067 41.0835 152.568 39.2865C151.662 36.0247 149.803 32.7176 148.277 29.6672C146.01 25.1218 143.426 20.501 139.995 16.7106C139.678 16.3482 139.346 16.0009 138.998 15.6687C135.991 12.6485 132.334 10.4589 128.556 8.54105C124.899 6.68364 121.03 4.66012 116.995 3.87488C121.635 4.69033 125.005 8.58636 128.813 11.3498C129.976 12.1955 131.2 12.9354 132.243 13.917C133.815 15.3969 134.903 17.3147 135.945 19.2023C137.411 21.8751 138.877 24.5933 139.814 27.5078C140.343 29.1689 140.978 31.1169 140.57 32.8535C140.524 33.0498 140.464 33.2461 140.313 33.3669C140.011 33.6236 139.542 33.4273 139.195 33.2159C138.318 32.6874 137.426 32.1589 136.55 31.6303C137.789 34.122 138.787 36.7344 139.482 39.4224C139.557 39.7395 139.572 40.1774 139.27 40.268C139.119 40.3133 138.968 40.2378 138.817 40.1623C135.371 38.4106 133.089 35.0884 129.553 33.5481C128.405 33.0498 126.954 33.0951 125.896 32.3854C128.798 34.3485 130.959 36.2814 133.21 38.9845C136.233 42.6238 139.376 46.5349 139.98 51.2162C134.344 42.065 127.332 37.6254 114.593 37.2026C122.708 39.7395 129.266 41.5969 135.069 47.8034C136.898 49.7665 138.59 51.8957 139.859 54.2515C140.524 55.4746 141.068 56.7582 141.612 58.0267C142.67 60.5032 144.076 63.0402 144.665 65.6526C144.967 66.9966 145.224 68.3406 145.436 69.6997C145.798 71.995 145.844 74.3508 146.252 76.631C146.599 78.6394 146.781 80.6629 147.007 82.6865C147.128 83.7284 147.264 84.7553 147.43 85.7972C147.582 86.6429 147.672 87.6395 148.201 88.3493C147.355 87.715 146.962 87.2469 146.025 84.4986C146.176 86.9449 146.781 89.3611 147.808 91.5809C148.7 93.5289 150.8 96.4736 152.523 94.0725C154.337 91.5658 153.657 85.465 153.203 82.6261C153.022 81.5086 152.78 80.4062 152.84 79.2737C152.886 78.2619 153.173 77.2954 153.415 76.3139C155.485 68.2047 155.304 59.7482 154.352 51.5031C154.155 49.389 153.959 47.1389 153.657 44.9191Z" fill="#AA88E8" fill-opacity="0.5"/>
<path d="M81.6338 86.8693C76.9642 85.6914 72.476 83.8642 67.8669 82.49C65.6153 81.8256 63.2276 81.2367 60.9155 81.8709C58.5883 82.5051 56.6087 83.9397 54.7046 85.3743L54.1001 85.8273C54.7197 84.9515 55.3997 84.0907 56.11 83.2904C56.654 82.6712 57.2282 82.0672 57.8176 81.4934C58.9812 80.3155 60.1901 79.1376 61.6258 78.292C63.1521 77.2802 64.6935 76.9178 66.522 77.1594C69.0003 77.4916 71.388 78.1712 73.7757 78.8658C75.1508 79.2886 77.1154 79.938 78.4754 80.3004C80.0622 80.7081 81.6791 80.995 83.281 81.4028C84.097 81.5689 84.9735 81.9464 85.5024 82.641C86.3184 83.6377 86.7567 84.8307 87.0287 86.0538C87.1043 86.4616 87.1043 86.8844 87.0136 87.2921C87.074 86.8844 87.0136 86.4767 86.9229 86.084C86.5754 84.9364 86.0464 83.7736 85.2455 82.8977C84.6864 82.2786 83.9912 82.037 83.1752 81.9162C82.3743 81.7652 81.5582 81.6142 80.7573 81.4783C79.1252 81.2064 77.4932 80.844 75.9215 80.3457C74.5161 79.938 72.5818 79.349 71.1915 78.9715C70.4057 78.7601 69.6048 78.5487 68.819 78.3524C67.2776 77.99 65.6606 77.5973 64.089 77.9145C63.3334 78.0655 62.608 78.4128 61.9129 78.8205C60.4924 79.636 59.2683 80.693 58.0745 81.7954C56.8656 82.8977 55.7019 84.0756 54.7197 85.3743L54.5535 85.2082C55.037 84.8458 55.5206 84.4984 56.0193 84.1511C58.5732 82.3239 61.1875 80.7987 64.4517 81.1611C65.6757 81.2669 66.8847 81.5538 68.0332 81.9011C72.6876 83.2753 77.0851 85.2233 81.6338 86.8693Z" fill="#6B1FE0" fill-opacity="0.3"/>
<path d="M114.381 86.8694C118.915 85.2234 123.327 83.2754 127.952 81.871C129.115 81.5237 130.309 81.2368 131.533 81.131C134.797 80.7686 137.427 82.2938 139.965 84.121C140.464 84.4683 140.948 84.8308 141.431 85.1781L141.265 85.3442C140.283 84.0455 139.119 82.8677 137.91 81.7653C136.716 80.6478 135.492 79.5908 134.057 78.7904C133.362 78.3827 132.636 78.0354 131.881 77.8844C130.309 77.5672 128.707 77.9599 127.151 78.3223C126.35 78.5186 125.564 78.73 124.778 78.9414C123.403 79.3038 121.438 79.9079 120.048 80.3156C118.476 80.8139 116.829 81.1764 115.212 81.4482C114.396 81.5841 113.595 81.7351 112.794 81.8861C111.993 82.0069 111.283 82.2636 110.724 82.8677C109.923 83.7435 109.394 84.9063 109.047 86.0539C108.956 86.4466 108.896 86.8543 108.956 87.262C108.865 86.8543 108.865 86.4315 108.941 86.0237C109.213 84.8006 109.636 83.6076 110.467 82.6109C110.996 81.9314 111.873 81.5388 112.689 81.3727C114.29 80.98 115.907 80.678 117.494 80.2703C118.854 79.9079 120.834 79.2585 122.194 78.8357C124.582 78.1411 126.969 77.4615 129.448 77.1293C131.276 76.8877 132.818 77.2652 134.344 78.2619C135.779 79.1226 136.988 80.2854 138.152 81.4633C138.741 82.0371 139.316 82.6411 139.86 83.2603C140.57 84.0606 141.265 84.9063 141.869 85.7972L141.265 85.3442C138.439 83.1848 135.296 81.0555 131.563 81.6747C130.4 81.8257 129.251 82.1277 128.103 82.475C123.539 83.8643 119.051 85.6915 114.381 86.8694Z" fill="#6B1FE0" fill-opacity="0.3"/>
<path d="M81.0596 6.4419C67.7764 4.7355 60.2658 10.6853 52.4228 20.6065C46.8012 27.7946 43.4464 36.4776 41.5574 45.3267C38.1573 60.8806 38.5955 77.0084 40.6507 92.7284C40.6507 92.7586 40.6356 92.7888 40.6054 92.7888C39.5173 88.4096 38.9582 83.7585 38.4746 79.2131C37.1901 65.5921 38.1421 51.5332 42.7059 38.5464C45.4865 30.7543 49.3098 23.2492 54.5082 16.786C57.9386 12.5427 62.2152 8.73724 67.4439 6.92513C70.7232 5.76236 74.2442 5.43014 77.6897 5.76236C78.8382 5.88317 79.9565 6.06438 81.0748 6.30599C81.105 6.30599 81.1201 6.33619 81.1201 6.3664C81.105 6.4268 81.0899 6.4419 81.0596 6.4419Z" fill="#6B1FE0" fill-opacity="0.3"/>
<path d="M81.3772 25.6503C79.8962 30.4071 76.1485 34.1068 72.159 36.9156C70.2096 38.2747 67.973 39.6035 65.9481 40.8569C60.7647 44.0583 55.9894 47.9694 52.015 52.5903C48.0708 57.1961 44.9729 62.6173 43.8546 68.6275L43.7791 68.6124C44.0057 66.166 44.6253 63.7499 45.5471 61.4545C48.3428 54.5534 53.7075 48.9812 59.6918 44.7228C62.6688 42.6086 65.8876 40.7059 68.8495 38.5918C71.8114 36.4626 74.7733 34.3031 77.2819 31.6454C78.9442 29.8786 80.3194 27.855 81.3167 25.6201L81.3772 25.6503Z" fill="#6B1FE0" fill-opacity="0.3"/>
<path d="M91.2146 33.9257C94.7356 36.0398 98.9216 36.2059 102.911 36.1606C109.999 36.2965 117.237 37.0213 123.871 39.6942C128.405 41.9744 132.696 44.8587 136.233 48.5131C148.005 60.4428 147.098 78.8508 153.777 93.1967C152.75 91.445 151.919 89.5876 151.193 87.6999C149.063 82.0069 147.793 76.0572 146.342 70.1678C144.907 64.3389 143.411 58.3136 139.89 53.3454C135.81 47.592 129.84 43.4392 123.569 40.3435C120.804 39.2261 117.826 38.5616 114.895 37.9878C109.953 37.0364 104.906 36.7797 99.8585 36.5683C96.8362 36.3569 93.7383 35.6623 91.2146 33.9257Z" fill="#6B1FE0" fill-opacity="0.3"/>
<path d="M80.0621 30.679C79.639 35.6623 76.6619 40.3737 72.4155 43.0466C70.2999 44.3906 67.9878 45.357 65.6908 46.2933C63.4089 47.2446 61.1421 48.2111 59.0869 49.5853C60.0238 48.7698 61.0666 48.0903 62.1546 47.4711C65.6303 45.4778 69.5141 44.2547 72.7782 41.9291C76.541 39.2865 79.11 35.179 80.0621 30.679Z" fill="#6B1FE0" fill-opacity="0.3"/>
<path d="M56.5333 54.5081C54.9314 56.3504 52.6495 58.9477 51.1384 60.8202C49.6121 62.6625 47.5115 65.4562 46.0608 67.3891C48.3578 62.587 52.3171 57.7245 56.5333 54.5081Z" fill="#6B1FE0" fill-opacity="0.3"/>
<path d="M55.0069 60.5938C54.75 64.8824 51.3197 68.1744 48.6449 71.2399C46.6501 73.5352 44.8065 76.2081 44.4438 79.2887C44.338 80.3004 44.4287 81.3424 44.7762 82.339C44.2927 81.4028 44.0811 80.3306 44.0962 79.2585C44.202 76.0118 46.0607 73.1426 48.116 70.7567C50.8059 67.6761 54.1456 64.7616 55.0069 60.5938Z" fill="#6B1FE0" fill-opacity="0.3"/>
<path d="M51.6521 72.7047C51.1383 78.2316 45.5016 81.3726 44.1265 86.5824C44.5194 81.0404 50.1863 77.8541 51.6521 72.7047Z" fill="#6B1FE0" fill-opacity="0.3"/>
<path d="M47.2547 84.5438C46.8164 86.9147 45.2448 89.1043 43.1292 90.2671C44.9275 88.6966 46.3329 86.7486 47.2547 84.5438Z" fill="#6B1FE0" fill-opacity="0.3"/>
<path d="M47.7381 86.975C47.1488 89.1495 45.3505 90.9918 43.2046 91.6412C45.1087 90.5237 46.6803 88.923 47.7381 86.975Z" fill="#6B1FE0" fill-opacity="0.3"/>
<path d="M81.0294 6.35135C85.835 2.66674 91.8192 0.658317 97.8186 0.114685C100.841 -0.172232 103.909 0.114685 106.901 0.582813C117.313 2.25901 127.604 6.06444 135.946 12.6182C139.482 15.4723 142.414 19.0361 144.831 22.8566C148.836 29.2594 151.571 36.2964 154.05 43.3788C154.548 44.7982 154.956 46.263 155.274 47.7429C156.543 53.6625 156.77 59.7028 156.815 65.7281C156.86 71.7382 156.634 77.7333 156.241 83.7284C156.135 85.2233 156.029 86.7183 155.908 88.2133C155.787 89.7083 155.667 91.2033 155.485 92.6983C155.485 92.7285 155.455 92.7436 155.425 92.7436C155.395 92.7436 155.379 92.7134 155.379 92.6832C155.561 89.6932 155.651 86.6881 155.727 83.6981C156.029 73.2634 156.165 62.7079 155.138 52.3034C154.835 49.3436 154.352 46.3989 153.475 43.5449C153.037 42.1103 152.599 40.6757 152.115 39.2713C148.368 28.0815 142.081 16.9824 131.714 10.791C122.95 5.3849 112.522 2.1382 102.307 1.00564C96.3981 0.552611 90.3685 1.70028 84.9887 4.22213C83.6438 4.85637 82.3441 5.59631 81.105 6.44196C81.0747 6.45706 81.0445 6.45706 81.0294 6.42686C80.9992 6.39666 81.0143 6.36646 81.0294 6.35135Z" fill="#6B1FE0" fill-opacity="0.3"/>
<path d="M80.0624 15.5629C79.4881 19.625 75.9671 23.1737 72.8691 25.6352C75.7253 22.6603 78.8987 19.6401 80.0624 15.5629Z" fill="#6B1FE0" fill-opacity="0.3"/>
<path d="M80.0623 24.2006C79.352 26.4355 77.8106 28.5496 75.6194 29.4859C77.5386 28.1117 78.8835 26.209 80.0623 24.2006Z" fill="#6B1FE0" fill-opacity="0.3"/>
<path d="M79.8356 10.2927C79.9565 12.6334 79.2765 15.1552 77.5537 16.8012C78.8533 14.8532 79.4578 12.5881 79.8356 10.2927Z" fill="#6B1FE0" fill-opacity="0.3"/>
<path d="M81.7849 18.3263C85.6233 27.4321 93.421 32.5211 103.334 31.9624C110.648 31.6 118.355 29.5916 125.382 32.5966C138.137 37.7762 142.096 52.3335 145.073 64.4897C141.522 52.7412 137.532 38.4558 125.05 33.4272C118.129 30.5278 110.588 32.506 103.365 32.7627C93.285 33.1856 85.2455 27.7946 81.7849 18.3263Z" fill="#6B1FE0" fill-opacity="0.3"/>
<path d="M81.3467 13.5393C82.9939 16.5595 84.4446 19.9119 87.3763 21.9052C88.3283 22.5545 89.371 23.0982 90.4138 23.6116C88.7515 23.0378 87.1194 22.2676 85.8047 21.0747C83.6286 19.0511 82.4196 16.2575 81.3467 13.5393Z" fill="#6B1FE0" fill-opacity="0.3"/>
<path d="M146.116 74.0487C146.509 76.9783 146.977 81.0706 147.446 83.9549C147.929 86.7486 148.534 89.7838 150.816 91.6714C151.148 91.9131 151.496 92.1245 151.874 92.3208C151.073 92.1094 150.287 91.6866 149.713 91.0372C149.425 90.705 149.184 90.3728 148.942 90.0255C147.778 88.2285 147.506 86.069 147.174 84.0153C146.72 80.6931 146.418 77.3709 146.116 74.0487Z" fill="#6B1FE0" fill-opacity="0.3"/>
<path d="M81.8606 28.0664C82.6011 31.4641 85.2607 34.0464 88.1018 35.8434C94.1163 39.6035 101.43 38.1991 108.125 37.7461C111.555 37.5196 115.091 37.5649 118.386 38.6521C111.616 36.8702 104.679 39.0448 97.8338 38.9089C93.8896 38.8635 89.9605 37.9122 86.8022 35.4507C84.4447 33.6235 82.2988 31.1168 81.8606 28.0664Z" fill="#6B1FE0" fill-opacity="0.3"/>
<path d="M93.1191 24.3667C99.1941 26.7979 105.858 25.9976 112.19 25.454C118.567 24.9556 125.322 24.412 131.352 26.9641C138.953 30.2409 143.668 37.58 147.416 44.617C149.29 48.0751 150.332 52.3487 153.823 54.5836C154.503 55.0064 155.244 55.3386 155.999 55.5803L155.984 55.6256C155.198 55.4292 154.428 55.1423 153.717 54.7346C150.06 52.6507 148.867 48.3016 146.932 44.8586C142.504 36.6286 136.535 27.553 126.667 25.7258C120.275 24.4724 113.807 25.9523 107.4 26.3147C102.609 26.6318 97.5469 26.4808 93.1191 24.3667Z" fill="#6B1FE0" fill-opacity="0.3"/>
<path d="M131.956 35.1035C137.547 38.1086 141.068 43.7865 143.532 49.4494C144.801 52.2883 145.98 55.1877 147.023 58.1173C148.05 61.0469 148.881 64.0821 149.743 67.057C150.332 69.0201 150.967 70.9983 151.979 72.7803C152.75 74.1091 153.747 75.3021 155.032 76.1629C155.455 76.4498 155.908 76.6914 156.377 76.9179L156.362 76.9783C153.249 75.9967 151.299 73.1276 150.166 70.2282C149.38 68.2953 148.866 66.2718 148.322 64.2482C147.506 61.2432 146.66 58.2683 145.662 55.3236C144.363 51.3974 142.534 47.6373 140.268 44.1792C138.061 40.6757 135.402 37.414 131.956 35.1035Z" fill="#6B1FE0" fill-opacity="0.3"/>
</g>
<path d="M68.1996 93.7968C67.8218 96.3686 69.8014 99.1209 72.5216 99.0908C74.199 99.0758 75.6497 98.0681 76.3751 96.6093C76.8587 95.6467 77.2516 93.5562 76.2391 92.8042C75.3626 92.1575 74.0781 92.1424 73.0354 92.0522C72.2798 91.992 71.5242 92.0071 70.7837 92.0973C70.1037 92.1876 69.3028 92.2778 68.6983 92.6237C68.3205 92.8493 68.26 93.3757 68.1996 93.7968Z" fill="#CBD2E0"/>
<path d="M69.6804 95.4211C70.9951 94.8346 72.4458 94.5939 73.8815 94.7142C74.9997 94.8045 76.4203 95.4963 76.1029 96.88C75.8762 97.8876 74.7277 98.6547 73.7908 98.9103C72.3401 99.3164 70.7533 98.8953 69.5897 97.9779C69.1666 97.6319 68.683 97.2259 68.5168 96.6844C68.3354 96.0979 68.9248 95.7821 69.3933 95.5565C69.4839 95.5113 69.5897 95.4662 69.6804 95.4211Z" fill="#EDF0F7"/>
<path d="M127.8 93.7968C128.178 96.3686 126.199 99.1209 123.478 99.0908C121.801 99.0758 120.35 98.0681 119.625 96.6093C119.141 95.6467 118.749 93.5562 119.761 92.8042C120.637 92.1575 121.922 92.1424 122.965 92.0522C123.72 91.992 124.476 92.0071 125.216 92.0973C125.896 92.1876 126.697 92.2778 127.302 92.6237C127.68 92.8493 127.74 93.3757 127.8 93.7968Z" fill="#CBD2E0"/>
<path d="M126.319 95.4211C125.005 94.8346 123.554 94.5939 122.118 94.7142C121 94.8045 119.58 95.4963 119.897 96.88C120.124 97.8876 121.272 98.6547 122.209 98.9103C123.66 99.3164 125.247 98.8953 126.41 97.9779C126.833 97.6319 127.317 97.2259 127.483 96.6844C127.664 96.0979 127.075 95.7821 126.607 95.5565C126.516 95.5113 126.425 95.4662 126.319 95.4211Z" fill="#EDF0F7"/>
<path d="M94.6299 127.892C94.0103 127.275 93.1036 127.005 92.2271 126.959C91.8644 126.944 89.6128 126.914 89.8848 127.531C89.9452 127.666 90.0661 127.757 90.187 127.832C91.26 128.478 92.5596 128.223 93.7232 128.599C94.4183 128.824 95.0681 129.215 95.5971 129.727C95.4762 128.779 94.9926 128.238 94.6299 127.892Z" fill="#6B1FE0" fill-opacity="0.3"/>
<path d="M92.8468 118.327C92.5597 120.763 91.6228 123.44 93.3606 125.561C92.7864 125.23 92.3633 124.659 92.1215 124.042C91.3357 122.147 92.0308 120.071 92.8468 118.327Z" fill="#6B1FE0" fill-opacity="0.3"/>
<path d="M59.7671 93.6164C61.1574 91.8568 63.1068 90.4882 65.2224 89.7362C66.2954 89.3602 67.4137 89.1797 68.5168 88.9992C70.1791 88.7586 71.8716 88.5781 73.5642 88.6834C75.8309 88.8488 78.1128 89.4504 80.0169 90.7288C81.4374 91.6613 82.6766 92.8193 83.8251 94.0375C81.9814 92.8344 80.2133 91.4657 78.2035 90.5934C77.2212 90.1573 76.1785 89.8114 75.1207 89.5557C72.9748 89.0895 70.7383 88.7887 68.5622 89.2248C67.2021 89.4955 65.9478 90.052 64.6935 90.6235C63.9833 90.9544 63.1975 91.3454 62.5174 91.7665C61.5805 92.323 60.6889 92.9697 59.8124 93.6615L59.7671 93.6164Z" fill="#6B1FE0" fill-opacity="0.3"/>
<path d="M88.6155 119.966C87.739 121.816 87.0741 123.801 87.3612 125.846C87.4821 126.614 87.6634 127.426 88.2075 127.982C88.4795 128.238 88.8724 128.388 89.2955 128.418C88.8875 128.554 88.4039 128.509 87.9808 128.268C87.195 127.757 86.8474 126.824 86.6661 125.967C86.2429 123.816 87.0892 121.5 88.6155 119.966Z" fill="#6B1FE0" fill-opacity="0.3"/>
<path d="M96.2922 130.268C97.4256 130.78 98.7252 130.735 99.8284 130.178C99.0124 131.217 97.1687 131.262 96.2922 130.268Z" fill="#6B1FE0" fill-opacity="0.3"/>
<path d="M81.6338 86.5175C76.9642 85.3444 72.476 83.5246 67.8669 82.156C65.6153 81.4943 63.2276 80.9077 60.9155 81.5394C58.5883 82.1711 56.6087 83.5998 54.7046 85.0286L54.1001 85.4798C54.7197 84.6075 55.3997 83.7502 56.11 82.9531C56.654 82.3365 57.2282 81.7349 57.8176 81.1634C58.9812 79.9903 60.1901 78.8172 61.6258 77.975C63.1521 76.9673 64.6935 76.6063 66.522 76.847C69.0003 77.1779 71.388 77.8546 73.7757 78.5465C75.1508 78.9676 77.1154 79.6143 78.4754 79.9752C80.0622 80.3813 81.6791 80.6671 83.281 81.0732C84.097 81.2386 84.9735 81.6146 85.5024 82.3064C86.3184 83.299 86.7567 84.4872 87.0287 85.7054C87.1043 86.1115 87.1043 86.5326 87.0136 86.9387C87.074 86.5326 87.0136 86.1265 86.9229 85.7355C86.5754 84.5925 86.0464 83.4344 85.2455 82.5621C84.6864 81.9455 83.9912 81.7048 83.1752 81.5845C82.3743 81.4341 81.5582 81.2837 80.7573 81.1483C79.1252 80.8776 77.4932 80.5167 75.9215 80.0204C74.5161 79.6143 72.5818 79.0277 71.1915 78.6518C70.4057 78.4412 69.6048 78.2306 68.819 78.0351C67.2776 77.6742 65.6606 77.2831 64.089 77.599C63.3334 77.7494 62.608 78.0953 61.9129 78.5014C60.4924 79.3135 59.2683 80.3663 58.0745 81.4642C56.8656 82.5621 55.7019 83.7352 54.7197 85.0286L54.5535 84.8632C55.037 84.5022 55.5206 84.1563 56.0193 83.8104C58.5732 81.9906 61.1875 80.4716 64.4517 80.8325C65.6757 80.9378 66.8847 81.2236 68.0332 81.5695C72.6876 82.9381 77.0851 84.8782 81.6338 86.5175Z" fill="#6B1FE0" fill-opacity="0.3"/>
<path d="M74.7012 95.7055C75.2139 94.4874 74.6374 93.0863 73.4135 92.576C72.1896 92.0656 70.7818 92.6394 70.269 93.8575C69.7563 95.0755 70.3328 96.4767 71.5567 96.987C72.7806 97.4973 74.1884 96.9236 74.7012 95.7055Z" fill="#6B1FE0" fill-opacity="0.3"/>
<path d="M72.4913 99.1512C70.2094 99.1812 68.0031 97.557 67.8973 95.1506C67.8822 94.2482 68.0182 92.9849 68.7889 92.4134C69.3934 92.0374 70.149 92.0674 70.8139 92.0223C71.3579 91.9922 71.9019 91.9471 72.446 91.9321C73.6851 91.902 74.9696 91.9622 76.1635 92.3532C77.0853 92.7292 77.1306 93.9023 77.176 94.7445C77.1911 97.3163 74.9999 99.1662 72.4913 99.1512ZM72.4913 99.091C74.6372 99.1061 76.4204 97.1509 76.5564 95.1055C76.5866 94.4287 76.5866 93.5413 76.1937 92.9999C75.8764 92.7142 75.2719 92.639 74.8336 92.5487C74.0327 92.3833 73.262 92.278 72.446 92.2329C71.4033 92.2178 70.2397 92.0975 69.2423 92.3983C68.2298 92.7593 68.3053 94.2332 68.3658 95.1205C68.5925 97.1659 70.3303 99.1061 72.4913 99.091Z" fill="#6B1FE0" fill-opacity="0.3"/>
<path d="M98 176.275C93.0585 176.395 89.4316 175.327 84.9736 173.387C76.7226 169.913 69.4841 164.333 63.4545 157.806C59.5254 153.505 55.9439 148.737 53.7225 143.308C52.5286 140.48 51.9393 137.382 51.3499 134.434C50.277 129.035 48.9018 123.696 47.4057 118.387C47.1337 117.304 46.9373 116.221 46.6955 115.138C46.5292 114.371 46.3328 113.469 46.227 112.687C45.9097 110.22 45.7283 107.724 45.6225 105.242C45.5016 101.933 45.5319 98.6095 45.547 95.3008C45.6528 97.7372 45.8492 102.896 46.0306 105.227C46.1817 107.694 46.4386 110.175 46.8164 112.612C46.9977 113.679 47.1035 114.807 47.3151 115.875C47.6173 117.214 47.9649 118.537 48.4031 119.846C50.0201 124.553 51.5464 129.321 52.6042 134.194C53.4807 138.525 54.3723 142.736 56.3217 146.722C60.961 156.828 70.149 163.912 79.6392 169.281C81.5433 170.364 83.4927 171.417 85.4572 172.38C87.3915 173.297 89.4619 174.275 91.5322 174.846C93.6327 175.463 95.8239 175.779 98.0151 175.914L98 176.275Z" fill="#6B1FE0" fill-opacity="0.3"/>
<path d="M71.2974 94.068C71.2974 94.3841 71.116 94.64 70.5418 94.64C69.9826 94.64 69.5142 94.3841 69.5142 94.068C69.5142 93.752 69.9675 93.4961 70.5418 93.4961C71.116 93.4961 71.2974 93.752 71.2974 94.068Z" fill="white" fill-opacity="0.7"/>
<path d="M74.6826 96.2186C74.6826 96.4293 74.5769 96.5948 74.2746 96.5948C73.9573 96.5948 73.8062 96.4293 73.8062 96.2186C73.8062 96.0078 73.9573 95.8423 74.2746 95.8423C74.592 95.8423 74.6826 96.0078 74.6826 96.2186Z" fill="white" fill-opacity="0.7"/>
<path d="M97.9849 175.899C100.176 175.764 102.367 175.448 104.468 174.831C106.583 174.23 108.578 173.312 110.543 172.365C112.522 171.402 114.457 170.349 116.361 169.266C125.851 163.897 135.054 156.814 139.693 146.707C141.628 142.721 142.519 138.495 143.396 134.179C144.529 128.749 146.388 123.516 148.08 118.252C148.383 117.199 148.655 116.131 148.836 115.048C149.335 111.785 149.788 108.506 149.985 105.212C150.181 102.821 150.347 97.7073 150.468 95.2859C150.468 97.4967 150.498 99.7076 150.468 101.918C150.423 105.513 150.257 109.107 149.788 112.687C149.607 114.056 149.244 115.409 148.972 116.763C148.64 118.387 148.186 120.011 147.718 121.59C146.509 125.832 145.557 130.133 144.665 134.434C144.212 136.585 143.819 138.781 143.139 140.932C142.806 141.984 142.414 143.067 141.96 144.09C137.245 154.558 126.924 164.664 117.026 170.409C115.091 171.522 113.082 172.515 111.026 173.387C107.944 174.726 104.725 175.869 101.355 176.155C100.237 176.26 99.1182 176.29 98 176.275L97.9849 175.899Z" fill="#6B1FE0" fill-opacity="0.3"/>
<path d="M114.381 86.5177C118.915 84.8783 123.327 82.9382 127.952 81.5395C129.115 81.1936 130.309 80.9078 131.533 80.8025C134.797 80.4416 137.427 81.9606 139.965 83.7804C140.464 84.1263 140.948 84.4873 141.431 84.8332L141.265 84.9986C140.283 83.7052 139.119 82.5321 137.91 81.4342C136.716 80.3213 135.492 79.2685 134.057 78.4714C133.362 78.0653 132.636 77.7194 131.881 77.569C130.309 77.2532 128.707 77.6442 127.151 78.0052C126.35 78.2007 125.564 78.4112 124.778 78.6218C123.403 78.9827 121.438 79.5843 120.048 79.9904C118.476 80.4867 116.829 80.8477 115.212 81.1184C114.396 81.2537 113.595 81.4041 112.794 81.5545C111.993 81.6749 111.283 81.9305 110.724 82.5321C109.923 83.4044 109.394 84.5625 109.047 85.7055C108.956 86.0966 108.896 86.5026 108.956 86.9087C108.865 86.5026 108.865 86.0815 108.941 85.6754C109.213 84.4572 109.636 83.2691 110.467 82.2764C110.996 81.5997 111.873 81.2086 112.689 81.0432C114.29 80.6522 115.907 80.3514 117.494 79.9453C118.854 79.5843 120.834 78.9376 122.194 78.5165C124.582 77.8247 126.969 77.1479 129.448 76.817C131.276 76.5764 132.818 76.9524 134.344 77.945C135.779 78.8023 136.988 79.9603 138.152 81.1334C138.741 81.7049 139.316 82.3065 139.86 82.9232C140.57 83.7203 141.265 84.5625 141.869 85.4498L141.265 84.9986C138.439 82.848 135.296 80.7274 131.563 81.344C130.4 81.4944 129.251 81.7952 128.103 82.1411C123.539 83.5247 119.051 85.3446 114.381 86.5177Z" fill="#6B1FE0" fill-opacity="0.3"/>
<path d="M101.476 104.34C101.581 105.904 101.748 108.175 101.884 109.754C101.989 111.559 102.216 113.379 102.594 115.153C102.79 116.041 102.987 116.913 103.213 117.785C103.833 119.921 104.74 122.433 103.516 124.538C103.274 124.944 102.956 125.305 102.579 125.576L102.548 125.531C104.528 123.365 103.274 120.402 102.715 117.906C102.292 116.116 102.276 114.281 101.959 112.491C101.808 111.604 101.551 110.717 101.43 109.799C101.188 107.994 101.188 106.144 101.476 104.34Z" fill="#6B1FE0" fill-opacity="0.3"/>
<path d="M106.251 89.8566C103.939 92.1125 102.987 95.331 102.216 98.3691C101.959 99.4068 101.733 100.445 101.506 101.497C101.536 101.227 101.551 100.971 101.581 100.7C102.05 96.9253 103.077 92.278 106.251 89.8566Z" fill="#6B1FE0" fill-opacity="0.3"/>
<path d="M101.37 127.892C101.989 127.275 102.896 127.005 103.773 126.959C104.135 126.944 106.387 126.914 106.115 127.531C106.054 127.666 105.934 127.757 105.813 127.832C104.74 128.478 103.44 128.223 102.276 128.599C101.581 128.824 100.932 129.215 100.403 129.727C100.539 128.779 101.022 128.238 101.37 127.892Z" fill="#6B1FE0" fill-opacity="0.3"/>
<path d="M78.3699 141.473C82.4652 145.082 88.1774 143.082 93.0888 144.015C94.7813 144.33 96.4134 144.827 98.0001 144.782V145.865C97.0934 145.834 96.2169 145.669 95.3858 145.458C94.5546 145.248 93.7386 145.007 92.9376 144.812C91.3358 144.421 89.6584 144.345 87.9508 144.3C84.6413 144.21 80.8633 143.954 78.3699 141.473Z" fill="#6B1FE0" fill-opacity="0.3"/>
<path d="M81.8906 140.42C85.3361 139.758 88.4945 138.194 91.9249 137.397C92.62 137.262 93.3454 137.187 94.0858 137.262C94.917 137.352 95.6726 137.608 96.4282 137.878C96.6851 137.969 96.9571 138.089 97.1838 138.194C97.486 138.33 97.8033 138.45 98.03 138.45V139.172C97.35 139.127 96.9722 138.811 96.4433 138.585C93.8894 137.457 92.6351 137.608 90.0057 138.315C87.3006 139.036 84.641 139.999 81.8906 140.42Z" fill="#6B1FE0" fill-opacity="0.3"/>
<path d="M85.4573 150.632C87.6334 152.392 90.2628 153.445 93.0283 153.625C94.6755 153.745 96.3529 153.821 97.985 153.76V154.843C96.2773 154.768 94.615 154.572 92.9376 154.317C90.1419 153.911 87.4671 152.572 85.4573 150.632Z" fill="#6B1FE0" fill-opacity="0.3"/>
<path d="M110.513 150.632C108.503 152.557 105.828 153.896 103.032 154.302C101.355 154.557 99.6925 154.768 97.9849 154.828V153.745C99.6169 153.805 101.309 153.73 102.942 153.61C105.707 153.445 108.336 152.392 110.513 150.632Z" fill="#6B1FE0" fill-opacity="0.3"/>
<path d="M65.6458 91.7816C64.1648 92.2779 63.107 92.7291 61.6109 93.1953C60.3264 93.6014 58.9966 93.8119 57.6516 93.7969C58.9059 94.8948 61.1575 95.8122 61.4447 95.7972C61.6411 95.6167 61.9131 95.361 62.2003 95.2106C64.7088 93.8721 67.2476 92.3831 70.0735 92.0523C73.2168 91.6763 78.2188 93.3156 81.0749 94.7143C78.1432 92.3831 75.6951 91.8116 73.3528 91.3454C71.0407 90.8792 67.8974 91.0296 65.6458 91.7816Z" fill="#6B1FE0" fill-opacity="0.3"/>
<path d="M130.37 91.7816C131.851 92.2779 132.908 92.7291 134.404 93.1953C135.689 93.6014 137.019 93.8119 138.364 93.7969C137.109 94.8948 134.888 95.7821 134.616 95.7521C134.299 95.737 134.102 95.361 133.83 95.2106C131.322 93.8721 128.783 92.3831 125.957 92.0523C122.814 91.6763 117.812 93.3156 114.956 94.7143C117.887 92.3831 120.335 91.8116 122.678 91.3454C124.975 90.8792 128.118 91.0296 130.37 91.7816Z" fill="#6B1FE0" fill-opacity="0.3"/>
<path d="M78.5363 140.886C78.2189 141.007 78.1585 141.398 78.3852 141.638C79.2768 142.586 81.3622 143.338 82.4653 143.443C80.7124 142.992 80.259 142.044 79.3977 141.262C79.171 141.067 78.8687 140.766 78.5514 140.871L78.5363 140.886Z" fill="#6B1FE0" fill-opacity="0.3"/>
<path d="M117.645 141.473C115.167 143.954 111.389 144.21 108.064 144.285C106.372 144.345 104.695 144.406 103.078 144.797C102.262 144.992 101.461 145.233 100.629 145.443C99.7983 145.654 98.9218 145.819 98.0151 145.849V144.767C99.6019 144.812 101.234 144.315 102.926 144C107.823 143.082 113.55 145.082 117.645 141.473Z" fill="#6B1FE0" fill-opacity="0.3"/>
<path d="M114.124 140.42C111.359 139.999 108.714 139.036 106.024 138.299C103.395 137.593 102.14 137.442 99.5865 138.57C99.0576 138.796 98.6798 139.112 97.9998 139.157V138.435C98.3927 138.45 98.9216 138.119 99.3296 137.969C102.035 136.901 103.41 137.096 106.13 137.954C108.805 138.811 111.374 139.879 114.124 140.42Z" fill="#6B1FE0" fill-opacity="0.3"/>
<path d="M117.479 140.886C117.796 141.007 117.857 141.398 117.63 141.638C116.739 142.586 114.653 143.338 113.55 143.443C115.303 142.992 115.756 142.044 116.618 141.262C116.844 141.067 117.147 140.766 117.464 140.871L117.479 140.886Z" fill="#6B1FE0" fill-opacity="0.3"/>
<path d="M45.5772 96.8499C44.3078 95.1053 42.6606 93.5863 40.6357 92.8193C39.8045 92.5335 38.6258 92.3981 37.976 93.0148C37.3564 93.6765 37.568 94.9399 37.5226 95.8122C37.5529 97.9929 37.7342 100.189 38.1422 102.339C38.7618 105.588 39.8801 108.731 40.6206 111.95C40.8623 113.033 41.0739 114.116 41.2855 115.198C42.2829 120.372 43.5674 126.132 48.0556 129.426C48.6298 129.802 50.3223 131.065 50.821 130.328L50.9117 130.374C50.413 131.381 48.4334 130.253 47.7382 129.892C45.7435 128.764 44.2021 126.975 43.0838 125.004C41.3913 122.072 40.7566 118.643 40.2579 115.364C39.6383 110.987 38.8374 106.686 37.7795 102.4C37.2204 99.9932 36.6008 97.5117 36.5555 95C36.4648 93.6916 36.767 92.2477 38.2027 91.8116C41.225 91.0145 44.4741 94.3082 45.5772 96.8499Z" fill="#6B1FE0" fill-opacity="0.3"/>
<path d="M39.6381 104.204C39.1697 102.896 38.8825 101.527 38.671 100.159C38.5047 99.2413 38.3083 98.3088 38.3839 97.3613C38.4141 97.0756 38.4141 96.865 38.5652 96.5793C38.9581 95.9777 39.759 96.4289 40.1519 96.7748C43.3254 99.8429 45.97 103.904 46.0758 108.416L46.0002 108.431C45.5922 106.626 44.9575 104.911 44.1112 103.302C42.9174 101.121 41.5271 98.9856 39.7892 97.1959C39.6079 97.0455 39.1697 96.6545 38.9732 96.85C38.7465 97.4365 38.7768 98.1284 38.8221 98.745C39.0185 100.565 39.1848 102.415 39.6381 104.204Z" fill="#6B1FE0" fill-opacity="0.3"/>
<path d="M41.7991 104.731C43.0231 105.919 44.0658 107.348 44.5645 108.987C45.0179 110.641 44.7761 112.386 44.7156 114.085C44.6854 114.762 44.5494 115.845 44.7308 116.477C44.9272 117.199 45.441 117.8 46.0153 118.357C47.1789 119.5 48.7354 120.718 48.947 122.463L48.8714 122.478C48.1762 120.898 46.7104 120.056 45.4712 118.913C42.0257 115.725 46.0153 113.619 43.9752 109.182C43.4009 107.633 42.5698 106.22 41.7991 104.731Z" fill="#6B1FE0" fill-opacity="0.3"/>
<path d="M150.453 96.7145C151.481 94.2931 154.095 91.6311 156.921 91.6762C158.946 91.7815 159.49 93.3908 159.324 95.1504C159.263 97.6621 158.629 100.114 158.069 102.52C157.012 106.791 156.226 111.078 155.606 115.439C155.108 118.703 154.473 122.117 152.78 125.034C151.39 127.471 149.29 129.667 146.584 130.599C146.101 130.795 145.24 130.975 144.968 130.374L145.058 130.328C145.572 131.08 147.28 129.787 147.824 129.441C148.7 128.809 149.456 128.057 150.121 127.23C153.566 122.929 154.08 117.259 155.244 112.04C155.984 108.822 157.102 105.693 157.722 102.46C158.16 100.309 158.326 98.1283 158.357 95.9626C158.326 94.624 158.689 92.714 156.845 92.5937C155.848 92.5034 154.82 92.9245 153.959 93.4208C152.569 94.233 151.42 95.391 150.453 96.7145Z" fill="#6B1FE0" fill-opacity="0.3"/>
<path d="M156.241 104.204C156.679 102.505 156.86 100.7 157.027 98.9555C157.072 98.2487 157.147 97.4816 156.891 96.8199C156.755 96.6996 156.528 96.8349 156.347 96.9703C155.833 97.3463 155.455 97.8727 155.017 98.369C154.443 99.0458 153.898 99.7376 153.37 100.429C151.768 102.535 150.589 104.851 150.075 107.483H150C149.985 105.693 150.453 103.889 151.299 102.264C152.221 100.444 153.642 98.9555 155.002 97.4816C155.47 96.9703 156.588 95.737 157.284 96.5341C157.495 96.8951 157.465 97.256 157.495 97.632C157.525 98.5495 157.314 99.4218 157.163 100.309C156.981 101.633 156.679 102.941 156.241 104.204Z" fill="#6B1FE0" fill-opacity="0.3"/>
<path d="M154.08 104.731C153.324 106.22 152.478 107.633 151.889 109.182C149.848 113.619 153.838 115.725 150.392 118.913C149.153 120.056 147.687 120.898 146.992 122.478L146.917 122.463C147.128 120.718 148.685 119.5 149.848 118.357C150.423 117.8 150.936 117.199 151.133 116.477C151.329 115.845 151.178 114.747 151.148 114.085C151.088 112.401 150.861 110.641 151.299 108.987C151.813 107.333 152.856 105.919 154.08 104.731Z" fill="#6B1FE0" fill-opacity="0.3"/>
<path d="M107.46 119.966C108.986 121.5 109.833 123.816 109.394 125.967C109.213 126.824 108.865 127.757 108.08 128.268C107.672 128.509 107.173 128.554 106.765 128.418C107.203 128.388 107.581 128.238 107.853 127.982C108.412 127.426 108.578 126.614 108.699 125.846C109.001 123.801 108.321 121.816 107.46 119.966Z" fill="#6B1FE0" fill-opacity="0.3"/>
<path d="M65.555 159.34L65.0261 159.355C65.0563 163.822 65.1923 169.026 65.1167 173.462C65.0865 179.554 64.7994 185.66 64.1194 191.721C63.7416 194.714 63.3789 197.752 62.7442 200.714C62.049 203.632 60.8401 206.399 59.1476 208.896C56.0194 213.558 51.4557 217.123 46.5594 219.8C38.1875 224.192 28.7124 225.921 19.4338 227.26C15.6105 227.801 4.80555 229.591 0 230.929C0.891596 230.764 1.7983 230.614 2.70501 230.478C6.36207 229.892 10.2609 229.275 13.9331 228.794C21.4588 227.786 28.924 226.568 36.1928 224.387C43.4615 222.236 50.5338 218.928 56.1403 213.739C58.9511 211.137 61.3086 207.979 62.7895 204.429C64.3007 200.895 64.7238 197.045 65.2225 193.27C65.3132 192.563 65.4794 191.164 65.5399 190.442C66.6128 180.125 66.235 169.672 65.555 159.34Z" fill="#6B1FE0" fill-opacity="0.3"/>
<path d="M130.445 159.34L130.974 159.355C130.944 163.822 130.808 169.026 130.883 173.462C130.913 179.554 131.201 185.66 131.881 191.721C132.258 194.714 132.621 197.752 133.256 200.714C133.951 203.632 135.16 206.399 136.852 208.896C139.98 213.558 144.544 217.123 149.44 219.8C157.812 224.192 167.288 225.921 176.566 227.26C180.389 227.801 191.194 229.591 196 230.929C195.108 230.764 194.202 230.614 193.295 230.478C189.638 229.892 185.739 229.275 182.067 228.794C174.541 227.786 167.076 226.568 159.807 224.387C152.538 222.236 145.466 218.928 139.86 213.739C137.049 211.137 134.691 207.979 133.21 204.429C131.699 200.895 131.276 197.045 130.777 193.27C130.687 192.563 130.521 191.164 130.46 190.442C129.402 180.125 129.765 169.672 130.445 159.34Z" fill="#6B1FE0" fill-opacity="0.3"/>
<path d="M106.553 246C108.73 242.481 112.22 239.954 116.285 239.127C115.364 239.548 114.442 239.969 113.565 240.435C112.719 240.886 111.797 241.443 111.011 241.999C109.379 243.142 107.974 244.571 106.553 246Z" fill="#6B1FE0" fill-opacity="0.3"/>
<path d="M120.683 237.803C122.965 237.081 125.352 236.675 127.74 236.42C132.515 235.938 137.336 236.089 142.111 236.014L149.289 235.818L163.646 235.517C168.361 235.277 173.408 234.525 177.866 236.525L177.02 236.239C176.173 235.984 175.282 235.788 174.405 235.683C170.839 235.217 167.257 235.848 163.691 236.074C158.221 236.344 151.224 236.48 145.738 236.615C137.381 236.991 128.889 235.848 120.683 237.803Z" fill="#6B1FE0" fill-opacity="0.3"/>
<path d="M89.8698 246C86.515 242.526 84.5203 241.082 80.0774 239.127C84.1727 239.954 87.6786 242.481 89.8698 246Z" fill="#6B1FE0" fill-opacity="0.3"/>
<path d="M75.6649 237.803C67.4139 235.848 58.8757 236.976 50.4887 236.63C44.9577 236.495 37.9308 236.36 32.4301 236.089C28.8335 235.848 25.2368 235.216 21.6554 235.698C20.7638 235.803 19.8722 236.014 19.0108 236.254L18.1494 236.54C22.6376 234.54 27.7152 235.292 32.4603 235.532L46.9072 235.833L54.1306 236.029C58.9361 236.119 63.787 235.953 68.5926 236.435C70.95 236.69 73.3528 237.096 75.6649 237.803Z" fill="#6B1FE0" fill-opacity="0.3"/>
<path d="M81.0596 6.41583C67.7764 4.71634 60.2658 10.642 52.4228 20.5231C46.8012 27.682 43.4464 36.3299 41.5574 45.1432C38.1573 60.6342 38.5955 76.6966 40.6507 92.353C40.6507 92.3831 40.6356 92.4132 40.6054 92.4132C39.5173 88.0516 38.9582 83.4194 38.4746 78.8924C37.1901 65.3266 38.1421 51.3246 42.7059 38.3904C45.4865 30.6298 49.3098 23.1551 54.5082 16.7181C57.9386 12.4919 62.2152 8.70187 67.4439 6.8971C70.7232 5.73904 74.2442 5.40816 77.6897 5.73904C78.8382 5.85936 79.9565 6.03983 81.0748 6.28047C81.105 6.28047 81.1201 6.31055 81.1201 6.34063C81.105 6.40079 81.0899 6.41583 81.0596 6.41583Z" fill="#6B1FE0" fill-opacity="0.3"/>
<path d="M81.3772 25.5464C79.8962 30.284 76.1485 33.9687 72.159 36.7661C70.2096 38.1197 67.973 39.4432 65.9481 40.6915C60.7647 43.8799 55.9894 47.7752 52.015 52.3774C48.0708 56.9645 44.9729 62.3638 43.8546 68.3496L43.7791 68.3346C44.0057 65.8981 44.6253 63.4917 45.5471 61.2057C48.3428 54.3325 53.7075 48.7829 59.6918 44.5417C62.6688 42.4361 65.8876 40.5411 68.8495 38.4355C71.8114 36.3149 74.7733 34.1642 77.2819 31.5172C78.9442 29.7576 80.3194 27.7422 81.3167 25.5164L81.3772 25.5464Z" fill="#6B1FE0" fill-opacity="0.3"/>
<path d="M91.2146 33.7883C94.7356 35.8939 98.9216 36.0593 102.911 36.0142C109.999 36.1496 117.237 36.8715 123.871 39.5335C128.405 41.8045 132.696 44.6771 136.233 48.3167C148.005 60.1981 147.098 78.5316 153.777 92.8194C152.75 91.0748 151.919 89.2249 151.193 87.3449C149.063 81.6749 147.793 75.7493 146.342 69.8838C144.907 64.0784 143.411 58.0775 139.89 53.1295C135.81 47.3993 129.84 43.2634 123.569 40.1802C120.804 39.0673 117.826 38.4055 114.895 37.834C109.953 36.8865 104.906 36.6308 99.8585 36.4203C96.8362 36.2097 93.7383 35.5179 91.2146 33.7883Z" fill="#6B1FE0" fill-opacity="0.3"/>
<path d="M80.0621 30.5548C79.639 35.5179 76.6619 40.2103 72.4155 42.8724C70.2999 44.2109 67.9878 45.1735 65.6908 46.1059C63.4089 47.0534 61.1421 48.016 59.0869 49.3846C60.0238 48.5724 61.0666 47.8957 62.1546 47.279C65.6303 45.2938 69.5141 44.0756 72.7782 41.7594C76.541 39.1275 79.11 35.0367 80.0621 30.5548Z" fill="#6B1FE0" fill-opacity="0.3"/>
<path d="M56.5333 54.2874C54.9314 56.1222 52.6495 58.709 51.1384 60.574C49.6121 62.4088 47.5115 65.1912 46.0608 67.1163C48.3578 62.3336 52.3171 57.4908 56.5333 54.2874Z" fill="#6B1FE0" fill-opacity="0.3"/>
<path d="M55.0069 60.3484C54.75 64.6197 51.3197 67.8983 48.6449 70.9514C46.6501 73.2375 44.8065 75.8995 44.4438 78.9676C44.338 79.9753 44.4287 81.013 44.7762 82.0056C44.2927 81.0732 44.0811 80.0054 44.0962 78.9375C44.202 75.704 46.0607 72.8464 48.116 70.4701C50.8059 67.402 54.1456 64.4994 55.0069 60.3484Z" fill="#6B1FE0" fill-opacity="0.3"/>
<path d="M51.6521 72.4104C51.1383 77.915 45.5016 81.0432 44.1265 86.2319C44.5194 80.7124 50.1863 77.539 51.6521 72.4104Z" fill="#6B1FE0" fill-opacity="0.3"/>
<path d="M47.2547 84.2015C46.8164 86.5628 45.2448 88.7435 43.1292 89.9016C44.9275 88.3375 46.3329 86.3973 47.2547 84.2015Z" fill="#6B1FE0" fill-opacity="0.3"/>
<path d="M47.7381 86.6228C47.1488 88.7885 45.3505 90.6234 43.2046 91.2701C45.1087 90.1571 46.6803 88.5629 47.7381 86.6228Z" fill="#6B1FE0" fill-opacity="0.3"/>
<path d="M47.0732 90.067C46.8767 91.2251 45.834 92.2177 44.6704 92.3681C45.6225 91.7364 46.4083 90.9844 47.0732 90.067Z" fill="#6B1FE0" fill-opacity="0.3"/>
<path d="M81.0294 6.32564C85.835 2.65594 91.8192 0.655652 97.8186 0.114221C100.841 -0.171535 103.909 0.114221 106.901 0.580453C117.313 2.24987 127.604 6.03989 135.946 12.5671C139.482 15.4097 142.414 18.959 144.831 22.7641C148.836 29.141 151.571 36.1495 154.05 43.2031C154.548 44.6169 154.956 46.0757 155.274 47.5496C156.543 53.4452 156.77 59.4611 156.815 65.462C156.86 71.4478 156.634 77.4186 156.241 83.3894C156.135 84.8783 156.029 86.3672 155.908 87.8562C155.787 89.3451 155.667 90.8341 155.485 92.323C155.485 92.3531 155.455 92.3681 155.425 92.3681C155.395 92.3681 155.379 92.338 155.379 92.3079C155.561 89.3301 155.651 86.3372 155.727 83.3593C156.029 72.9668 156.165 62.454 155.138 52.0916C154.835 49.1438 154.352 46.2111 153.475 43.3686C153.037 41.9398 152.599 40.511 152.115 39.1123C148.368 27.9679 142.081 16.9136 131.714 10.7473C122.95 5.3631 112.522 2.12955 102.307 1.00157C96.3981 0.550374 90.3685 1.6934 84.9887 4.20504C83.6438 4.83671 82.3441 5.57365 81.105 6.41588C81.0747 6.43092 81.0445 6.43092 81.0294 6.40084C80.9992 6.37076 81.0143 6.34068 81.0294 6.32564Z" fill="#6B1FE0" fill-opacity="0.3"/>
<path d="M80.0624 15.4999C79.4881 19.5456 75.9671 23.0799 72.8691 25.5314C75.7253 22.5686 78.8987 19.5606 80.0624 15.4999Z" fill="#6B1FE0" fill-opacity="0.3"/>
<path d="M80.0623 24.1025C79.352 26.3284 77.8106 28.434 75.6194 29.3665C77.5386 27.9978 78.8835 26.1028 80.0623 24.1025Z" fill="#6B1FE0" fill-opacity="0.3"/>
<path d="M79.8356 10.2511C79.9565 12.5823 79.2765 15.0939 77.5537 16.7332C78.8533 14.7931 79.4578 12.5371 79.8356 10.2511Z" fill="#6B1FE0" fill-opacity="0.3"/>
<path d="M81.7849 18.2521C85.6233 27.321 93.421 32.3894 103.334 31.833C110.648 31.472 118.355 29.4717 125.382 32.4646C138.137 37.6233 142.096 52.1216 145.073 64.2286C141.522 52.5277 137.532 38.3001 125.05 33.2918C118.129 30.4042 110.588 32.3744 103.365 32.6301C93.285 33.0512 85.2455 27.682 81.7849 18.2521Z" fill="#6B1FE0" fill-opacity="0.3"/>
<path d="M81.3467 13.4845C82.9939 16.4924 84.4446 19.8313 87.3763 21.8165C88.3283 22.4632 89.371 23.0047 90.4138 23.516C88.7515 22.9445 87.1194 22.1775 85.8047 20.9893C83.6286 18.974 82.4196 16.1917 81.3467 13.4845Z" fill="#6B1FE0" fill-opacity="0.3"/>
<path d="M146.116 73.7489C146.509 76.6666 146.977 80.7424 147.446 83.615C147.929 86.3973 148.534 89.4203 150.816 91.3003C151.148 91.5409 151.496 91.7515 151.874 91.947C151.073 91.7365 150.287 91.3153 149.713 90.6686C149.425 90.3378 149.184 90.0069 148.942 89.661C147.778 87.8712 147.506 85.7206 147.174 83.6751C146.72 80.3664 146.418 77.0576 146.116 73.7489Z" fill="#6B1FE0" fill-opacity="0.3"/>
<path d="M147.416 89.4354C147.99 91.3906 148.776 93.6165 150.77 94.4888C151.042 94.5941 151.329 94.6693 151.617 94.5189C151.511 94.6392 151.36 94.7144 151.193 94.7445C148.76 94.8347 147.718 91.3605 147.416 89.4354Z" fill="#6B1FE0" fill-opacity="0.3"/>
<path d="M81.8606 27.9528C82.6011 31.3367 85.2607 33.9085 88.1018 35.6982C94.1163 39.4431 101.43 38.0444 108.125 37.5932C111.555 37.3676 115.091 37.4128 118.386 38.4956C111.616 36.7209 104.679 38.8867 97.8338 38.7513C93.8896 38.7062 89.9605 37.7587 86.8022 35.3072C84.4447 33.4874 82.2988 30.9908 81.8606 27.9528Z" fill="#6B1FE0" fill-opacity="0.3"/>
<path d="M93.1191 24.2681C99.1941 26.6895 105.858 25.8924 112.19 25.3509C118.567 24.8546 125.322 24.3132 131.352 26.8549C138.953 30.1185 143.668 37.4279 147.416 44.4364C149.29 47.8805 150.332 52.1367 153.823 54.3626C154.503 54.7837 155.244 55.1146 155.999 55.3553L155.984 55.4004C155.198 55.2049 154.428 54.9191 153.717 54.513C150.06 52.4375 148.867 48.1061 146.932 44.677C142.504 36.4804 136.535 27.4415 126.667 25.6216C120.275 24.3733 113.807 25.8472 107.4 26.2082C102.609 26.524 97.5469 26.3736 93.1191 24.2681Z" fill="#6B1FE0" fill-opacity="0.3"/>
<path d="M131.956 34.9614C137.547 37.9543 141.068 43.6093 143.532 49.2492C144.801 52.0767 145.98 54.9643 147.023 57.882C148.05 60.7997 148.881 63.8227 149.743 66.7856C150.332 68.7407 150.967 70.7109 151.979 72.4856C152.75 73.8091 153.747 74.9973 155.032 75.8545C155.455 76.1403 155.908 76.3809 156.377 76.6065L156.362 76.6667C153.249 75.6891 151.299 72.8315 150.166 69.9439C149.38 68.0188 148.866 66.0035 148.322 63.9882C147.506 60.9952 146.66 58.0324 145.662 55.0997C144.363 51.1893 142.534 47.4444 140.268 44.0003C138.061 40.5111 135.402 37.2625 131.956 34.9614Z" fill="#6B1FE0" fill-opacity="0.3"/>
<path d="M61.3843 95.722C65.404 91.4808 71.3732 90.6837 76.7832 92.4885C77.8259 92.8494 78.8233 93.3156 79.7753 93.8571C80.6065 94.3383 81.6643 95.1505 82.4501 95.722C82.843 95.9927 83.3568 96.4138 83.7346 96.6996C84.1577 97.0305 84.5204 97.4817 84.6867 97.993C84.4751 97.5117 84.0671 97.1057 83.6288 96.8199C83.2208 96.5492 82.6768 96.2033 82.2688 95.9476C81.347 95.3911 80.4402 94.7895 79.5033 94.3233C77.6143 93.3608 75.544 92.7742 73.4435 92.5937C70.3002 92.3681 67.157 93.09 64.2706 94.3083C63.3035 94.7444 62.3665 95.2407 61.4296 95.7972L61.3843 95.722Z" fill="#6B1FE0" fill-opacity="0.3"/>
<path d="M82.1022 97.3311C82.1929 96.925 82.5102 96.3836 82.752 96.1279C82.4347 95.7068 81.6942 95.4211 81.3013 95.1804C81.5582 95.5113 81.7395 95.782 81.8906 96.173C81.9813 96.4137 82.1022 96.895 82.1022 97.3311Z" fill="#6B1FE0" fill-opacity="0.3"/>
<path d="M61.6714 96.2333C67.4894 100.249 74.7733 100.354 81.4678 98.9104C82.435 98.7299 83.4777 99.0908 84.3995 98.6547C83.5079 99.151 82.4501 98.8652 81.498 99.0758C80.5309 99.2262 79.594 99.527 78.6117 99.7075C76.6623 100.068 74.6675 100.189 72.6879 100.159C70.6931 100.144 68.6832 99.918 66.7791 99.2713C64.8902 98.6246 63.0919 97.632 61.6562 96.2784L61.6714 96.2333Z" fill="#6B1FE0" fill-opacity="0.3"/>
<path d="M136.187 93.6615C134.676 92.4584 133.059 91.4206 131.306 90.6235C130.067 90.052 128.798 89.4955 127.438 89.2248C125.262 88.8037 123.025 89.0895 120.879 89.5557C119.821 89.7963 118.779 90.1573 117.796 90.5934C115.771 91.4657 114.018 92.8344 112.175 94.0375C113.323 92.8193 114.562 91.6462 115.983 90.7288C117.887 89.4504 120.169 88.8488 122.436 88.6834C124.128 88.5781 125.821 88.7586 127.483 88.9992C128.586 89.1647 129.704 89.3602 130.777 89.7362C131.85 90.0971 132.863 90.6536 133.785 91.3003C134.706 91.9621 135.553 92.714 136.233 93.6164L136.187 93.6615Z" fill="#6B1FE0" fill-opacity="0.3"/>
<path d="M123.745 97.1538C125.066 97.0233 126.03 95.8521 125.899 94.5378C125.767 93.2236 124.591 92.2641 123.27 92.3946C121.95 92.5252 120.985 93.6964 121.117 95.0106C121.248 96.3248 122.425 97.2844 123.745 97.1538Z" fill="#6B1FE0" fill-opacity="0.3"/>
<path d="M123.509 99.0908C125.685 99.1059 127.408 97.1657 127.634 95.1053C127.695 94.2179 127.77 92.744 126.758 92.3831C125.76 92.0823 124.597 92.1876 123.554 92.2176C122.738 92.2628 121.967 92.368 121.166 92.5335C120.728 92.6237 120.124 92.6989 119.806 92.9847C119.413 93.5411 119.413 94.4134 119.444 95.0902C119.58 97.1507 121.363 99.1059 123.509 99.0908ZM123.509 99.151C121 99.1811 118.809 97.3161 118.839 94.7293C118.869 93.8871 118.915 92.714 119.852 92.338C121.045 91.9469 122.33 91.9018 123.569 91.9169C124.113 91.9319 124.657 91.977 125.201 92.0071C125.866 92.0672 126.622 92.0372 127.226 92.3981C127.982 92.9847 128.133 94.248 128.118 95.1354C127.997 97.5417 125.791 99.166 123.509 99.151Z" fill="#6B1FE0" fill-opacity="0.3"/>
<path d="M134.555 95.8122C132.727 94.6993 130.808 93.827 128.752 93.2855C126.727 92.7592 124.642 92.4283 122.542 92.6088C120.441 92.8043 118.386 93.3908 116.482 94.3383C115.53 94.8046 114.638 95.4212 113.716 95.9626C113.308 96.2033 112.749 96.5642 112.356 96.8349C111.918 97.1207 111.51 97.5268 111.298 98.008C111.465 97.4967 111.842 97.0455 112.25 96.7146C112.628 96.4138 113.157 96.0077 113.535 95.737C114.336 95.1806 115.379 94.3684 116.21 93.8721C118.114 92.7592 120.245 92.0372 122.436 91.7515C124.642 91.4657 126.924 91.5409 129.055 92.2478C131.17 92.9547 133.135 94.1278 134.616 95.737L134.555 95.8122Z" fill="#6B1FE0" fill-opacity="0.3"/>
<path d="M113.898 97.3311C113.807 96.925 113.49 96.3836 113.248 96.1279C113.565 95.7068 114.306 95.4211 114.699 95.1804C114.442 95.5113 114.26 95.782 114.109 96.173C114.018 96.4137 113.898 96.895 113.898 97.3311Z" fill="#6B1FE0" fill-opacity="0.3"/>
<path d="M134.359 96.2784C131.442 99.0307 127.287 100.189 123.327 100.174C121.348 100.204 119.353 100.083 117.404 99.7225C116.421 99.542 115.484 99.2412 114.517 99.0908C113.565 98.8803 112.492 99.166 111.616 98.6697C112.538 99.1059 113.565 98.76 114.547 98.9254C115.545 99.0457 116.497 99.3164 117.464 99.4518C119.398 99.7526 121.378 99.8278 123.342 99.7375C125.307 99.6623 127.226 99.3164 129.085 98.76C130.944 98.2035 132.727 97.3462 134.344 96.2333L134.359 96.2784Z" fill="#6B1FE0" fill-opacity="0.3"/>
<path d="M122.36 94.068C122.36 94.3841 122.179 94.64 121.605 94.64C121.046 94.64 120.577 94.3841 120.577 94.068C120.577 93.752 121.031 93.4961 121.605 93.4961C122.179 93.4961 122.36 93.752 122.36 94.068Z" fill="white" fill-opacity="0.7"/>
<path d="M125.745 96.2186C125.745 96.4293 125.64 96.5948 125.337 96.5948C125.02 96.5948 124.869 96.4293 124.869 96.2186C124.869 96.0078 125.02 95.8423 125.337 95.8423C125.64 95.8423 125.745 96.0078 125.745 96.2186Z" fill="white" fill-opacity="0.7"/>
<path d="M62.0339 95.2557C62.6989 96.1581 63.5754 96.865 64.5878 97.3763C66.2501 98.2938 68.0333 98.9405 69.8921 99.3315C68.0182 99.0307 66.1746 98.4291 64.4821 97.5869C63.4393 97.1056 62.4722 96.3837 61.7468 95.4813C61.7619 95.4813 62.0339 95.2557 62.0339 95.2557Z" fill="#6B1FE0" fill-opacity="0.3"/>
<path d="M134.253 95.4813C133.528 96.3837 132.576 97.0906 131.518 97.5869C129.811 98.4442 127.982 99.0307 126.108 99.3315C127.967 98.9555 129.765 98.2938 131.412 97.3763C132.41 96.865 133.286 96.1581 133.966 95.2557C133.981 95.2557 134.253 95.4813 134.253 95.4813Z" fill="#6B1FE0" fill-opacity="0.3"/>
<path d="M93.9046 113.755C94.086 112.988 94.4486 111.078 94.5393 110.145C94.7207 108.4 94.766 107.528 94.4789 105.723C94.3731 107.288 94.2975 108.175 94.1615 109.754C94.0557 111.559 93.8291 113.379 93.4513 115.153C93.421 115.274 93.3908 115.409 93.3606 115.529C93.5873 114.943 93.7686 114.356 93.9046 113.755Z" fill="#6B1FE0" fill-opacity="0.3"/>
</svg>
