<svg width="196" height="247" viewBox="0 0 196 247" fill="none" xmlns="http://www.w3.org/2000/svg">
<rect width="196" height="104" rx="8" fill="white" fill-opacity="0.6"/>
<mask id="mask0_554_2993" style="mask-type:alpha" maskUnits="userSpaceOnUse" x="0" y="0" width="196" height="104">
<rect width="196" height="104" rx="8" fill="white" fill-opacity="0.6"/>
</mask>
<g mask="url(#mask0_554_2993)">
<path d="M186.056 241.472C187.356 239.66 188.384 237.682 189.049 235.507C189.472 234.148 189.729 232.653 189.23 231.324C187.915 227.761 179.573 228.591 176.581 228.168C167.303 226.824 157.828 225.088 149.456 220.678C144.544 217.99 139.996 214.396 136.868 209.73C135.19 207.223 133.981 204.445 133.286 201.515C132.742 199.009 132.425 196.441 132.077 193.889C130.657 182.73 130.853 171.329 131.019 160.094C135.613 155.412 139.527 150.097 141.975 144.676C142.429 143.664 142.822 142.577 143.154 141.504C143.834 139.345 144.227 137.14 144.68 134.981C144.937 133.743 145.194 132.519 145.466 131.281C145.829 131.372 146.297 131.251 146.615 131.13C149.32 130.194 151.42 127.989 152.81 125.543C154.503 122.613 155.138 119.185 155.636 115.908C156.256 111.529 157.042 107.225 158.1 102.937C158.659 100.521 159.278 98.0591 159.354 95.5372C159.505 93.7553 158.976 92.1546 156.951 92.0489C156.483 92.0489 156.029 92.1093 155.591 92.2301C155.742 90.8862 155.863 89.5573 155.969 88.2133C156.09 86.7183 156.196 85.2233 156.301 83.7283C156.694 77.7333 156.906 71.7382 156.876 65.7281C156.83 59.7028 156.604 53.6625 155.334 47.7429C155.002 46.263 154.609 44.7982 154.11 43.3787C151.647 36.2964 148.897 29.2443 144.892 22.8566C142.474 19.0361 139.557 15.4723 136.006 12.6182C127.604 6.06444 117.328 2.25901 106.901 0.582813C103.909 0.114685 100.841 -0.172232 97.8187 0.114685C91.8193 0.658317 85.8501 2.66674 81.0446 6.33625C79.9414 6.09464 78.808 5.91343 77.6746 5.79262C74.2291 5.4453 70.7081 5.77752 67.4288 6.95539C62.2002 8.7675 57.9235 12.5729 54.4931 16.8163C49.2796 23.2795 45.4714 30.7846 42.6908 38.5767C38.1271 51.5483 37.175 65.6073 38.4595 79.2434C38.9129 83.6075 39.4569 88.0623 40.4694 92.2906C39.7138 92.0489 38.9431 92.0036 38.1875 92.1999C36.7519 92.6379 36.4497 94.1027 36.5403 95.4013C36.5857 97.9232 37.2052 100.415 37.7644 102.831C38.8222 107.135 39.6382 111.454 40.2427 115.848C40.7414 119.125 41.361 122.583 43.0686 125.528C44.1869 127.506 45.7283 129.303 47.7231 130.435C48.2973 130.737 49.7934 131.583 50.549 131.251C50.821 132.489 51.093 133.743 51.3348 134.981C51.9393 137.941 52.5286 141.051 53.7073 143.89C55.9288 149.342 59.5103 154.129 63.4393 158.448C63.9531 159.006 64.4669 159.55 65.011 160.094C65.0412 164.548 65.1772 169.743 65.1016 174.168C65.0714 180.283 64.7843 186.414 64.1042 192.5C63.7265 195.505 63.3638 198.556 62.7291 201.53C62.0339 204.46 60.825 207.239 59.1325 209.745C56.0043 214.427 51.4406 218.006 46.5443 220.693C38.1724 225.103 28.5311 227.202 19.2524 228.546C14.3109 229.256 10.7747 229.875 4.9869 230.887C2.23655 235.085 3.76285 242.967 6.84565 246.425C11.2583 251.378 18.0435 253.342 24.4509 255.063C36.0568 258.189 47.6777 261.315 59.2836 264.441C79.8205 269.968 101.748 275.495 122.013 269.062C130.052 266.51 137.427 262.176 145.421 259.427C153.627 256.603 162.376 255.516 170.506 252.466C176.506 250.216 182.369 246.576 186.056 241.472Z" fill="#C09DFE" fill-opacity="0.3"/>
<path d="M143.093 86.5975C142.081 92.3661 143.35 98.6632 143.683 104.568C144.03 110.714 141.718 116.014 139.361 121.526C138.726 123.021 138.076 124.546 137.94 126.177C137.819 127.747 138.182 129.303 138.363 130.873C139.451 140.191 135.492 149.568 129.357 156.409C126.697 159.369 124.037 162.344 121.106 165.032C117.585 168.278 110.135 173.579 104.619 175.587C111.132 174.107 121.302 167.357 126.486 163.129C131.155 159.323 135.946 155.397 138.923 150.157C140.827 146.805 141.9 143.06 142.942 139.36C143.169 138.575 144.68 131.311 144.997 131.236C149.561 130.164 152.977 125.467 152.584 120.801C152.432 118.929 151.737 117.147 151.45 115.289C151.118 113.1 151.36 110.819 152.145 108.751C152.568 107.648 153.143 106.531 152.977 105.368C152.795 104.099 151.798 103.118 151.299 101.94C150.846 100.823 150.861 99.5843 150.891 98.3913C151.163 86.1596 151.103 74.4413 147.491 62.5871C145.693 56.6827 141.431 51.8353 137.366 47.3654C132.001 41.461 125.367 38.9995 117.539 37.8368C111.706 36.9609 105.465 35.5565 99.5865 35.4659C92.8467 35.3602 86.5148 31.7209 81.3013 27.7343C82.9485 28.8819 83.4925 31.8719 84.7316 33.5028C86.6055 35.9642 88.8421 38.2747 91.7889 39.3921C93.6325 40.1019 95.6273 40.2982 97.5767 40.4643C106.296 41.2194 115.529 41.1892 123.796 44.4207C140.464 50.9141 145.98 70.2735 143.093 86.5975Z" fill="#AA88E8" fill-opacity="0.3"/>
<path d="M52.6949 86.3257C52.8309 88.1378 52.9669 89.9348 52.7856 91.8376C52.2869 97.5155 51.1082 103.224 51.9998 108.841C52.6345 112.873 54.3119 116.648 55.6417 120.514C56.7449 123.7 57.6516 127.068 57.5005 130.481C57.3493 133.607 57.3493 136.627 57.9992 139.738C59.2988 145.838 62.3816 151.516 66.5373 156.137C69.197 159.097 71.8567 162.072 74.7884 164.76C78.3094 168.006 85.7595 173.307 91.2753 175.315C84.7621 173.835 74.7581 168.037 69.5899 163.824C64.9204 160.018 59.9637 155.141 56.9867 149.9C55.0372 146.473 53.7527 142.516 52.8611 138.696C52.5287 137.276 52.6798 135.872 52.3625 134.467C51.894 132.414 50.9419 130.375 50.3375 128.352C49.0076 123.897 47.9347 119.366 47.3 114.761C46.7409 110.729 46.0155 106.576 45.9853 102.499C45.9702 99.7957 45.5621 97.1984 46.3026 94.5406C47.0733 91.7922 48.8867 89.3157 49.0227 86.4616C49.0983 84.9968 48.7205 83.5019 49.0379 82.0673C49.2948 80.98 49.9295 80.0136 50.277 78.9565C50.8211 77.2803 50.6699 75.3021 51.8033 73.943C51.7429 74.0185 52.2416 75.4078 52.2869 75.6645C52.4229 76.4497 52.4531 77.2803 52.4833 78.0806C52.5438 79.787 52.4531 81.4783 52.5136 83.1847C52.5287 84.2418 52.6042 85.2838 52.6949 86.3257Z" fill="white" fill-opacity="0.3"/>
<path d="M63.817 81.3274C63.8472 81.3274 63.8623 81.3274 63.8925 81.3274C65.6455 81.3727 67.338 82.0069 68.9701 82.6411C74.3197 84.6798 79.3066 86.6127 85.0037 87.6244C85.4571 87.6999 86.5602 87.866 86.9078 87.4885C87.21 87.1563 87.0287 85.7066 86.8625 85.2838C86.4544 84.272 85.9406 83.2452 85.0642 82.5958C84.4143 82.1126 83.6285 81.871 82.8578 81.6294C79.4426 80.5723 76.0273 79.9079 72.612 78.8508C70.0733 78.0656 67.3985 76.8877 64.769 77.3256C61.248 77.9297 58.5883 80.7384 56.1855 83.3811C55.4601 84.1965 55.0975 84.6798 54.3872 85.4952C54.9312 85.0573 55.309 84.7553 55.8984 84.3626C56.6993 83.8341 57.5154 83.3056 58.3616 82.8525C60.039 81.9616 61.8827 81.2821 63.817 81.3274Z" fill="#AA88E8" fill-opacity="0.5"/>
<path d="M132.243 81.3274C132.213 81.3274 132.198 81.3274 132.168 81.3274C130.415 81.3727 128.722 82.0069 127.09 82.6411C121.741 84.6798 116.754 86.6127 111.057 87.6244C110.603 87.6999 109.5 87.866 109.153 87.4885C108.85 87.1563 109.032 85.7066 109.198 85.2838C109.606 84.272 110.12 83.2452 110.996 82.5958C111.646 82.1126 112.432 81.871 113.202 81.6294C116.618 80.5723 120.033 79.9079 123.448 78.8508C125.987 78.0656 128.662 76.8877 131.291 77.3256C134.812 77.9297 137.472 80.7384 139.875 83.3811C140.6 84.1965 140.963 84.6798 141.673 85.4952C141.129 85.0573 140.751 84.7553 140.162 84.3626C139.361 83.8341 138.545 83.3056 137.699 82.8525C136.006 81.9616 134.163 81.2821 132.243 81.3274Z" fill="#AA88E8" fill-opacity="0.5"/>
<path d="M71.222 6.39665C70.0886 6.66847 68.9703 7.01579 67.8823 7.45372C63.5905 9.16012 59.6766 11.984 56.4729 15.3062C54.055 17.828 51.8638 20.5613 49.9446 23.4758C47.2698 27.5228 45.1088 31.9021 43.5221 36.4776C41.8295 41.3552 40.409 46.4593 39.729 51.5936C39.4872 53.4359 39.3663 55.2934 39.2605 57.1508C39.0792 60.0199 38.8979 62.8891 38.7165 65.7583C38.5503 68.3556 38.5654 70.8624 38.5805 73.4597C38.5956 76.4044 38.7467 79.3491 39.0339 82.2938C39.3059 85.027 39.5174 87.8962 40.2126 90.5539C40.2428 90.6898 40.6508 92.5171 40.6508 92.5171C41.3762 92.7587 41.9504 93.106 42.5851 93.5137C43.2954 93.9667 43.7034 94.5557 44.2021 95.1899C44.5497 95.6278 45.4413 96.3829 45.4866 96.9416C45.3506 95.3258 45.139 93.3627 46.0004 91.913C46.2271 91.5506 46.4991 91.2184 46.7258 90.856C47.6022 89.4969 47.8591 87.8358 48.0858 86.2653C48.4183 83.9699 48.4183 81.5991 48.9623 79.334C49.3552 77.7182 50.2015 76.2534 50.9268 74.7584C52.982 70.5 53.8283 65.8489 55.5208 61.4696C57.2285 57.0602 59.9637 53.0584 63.4545 49.8721C67.0965 46.5499 72.2043 43.9073 75.4231 40.1925C79.0348 36.0246 81.3469 30.8148 81.3469 25.5295C81.3469 27.9456 82.6767 31.1017 84.2181 32.8534C87.2254 36.2511 91.1847 37.7159 95.28 38.5465C100.116 39.528 105.178 38.0783 110.09 37.9424C120.592 37.6555 131.11 42.4274 137.789 50.5215C140.766 54.1155 142.716 58.4343 143.985 62.9042C144.635 65.1693 145.119 67.4798 145.481 69.8053C145.844 72.1006 145.889 74.4564 146.297 76.7366C146.645 78.745 146.826 80.7686 147.053 82.7921C147.174 83.834 147.31 84.8609 147.476 85.9029C147.627 86.7485 147.718 87.7452 148.247 88.4549C147.401 87.8207 147.008 87.3525 146.071 84.6042C146.222 87.0505 146.826 89.4667 147.854 91.6865C148.549 93.1815 149.274 95.1597 151.949 95.1597C153.113 93.9969 155.123 92.9097 155.289 92.8795C155.606 92.4869 155.591 91.7469 155.621 91.2637C155.682 90.4784 155.682 89.7083 155.742 88.923C155.742 87.1411 156.029 85.3139 156.15 83.532C156.271 81.735 156.407 79.938 156.437 78.141C156.589 67.1778 156.997 55.6256 154.171 44.9492C152.78 39.6941 150.695 34.6202 148.277 29.7577C146.01 25.2124 143.426 20.5915 139.996 16.8012C139.678 16.4387 139.346 16.0914 138.998 15.7592C135.991 12.739 132.334 10.5494 128.556 8.63159C124.612 6.63827 120.577 4.88656 116.376 3.52748C106.342 0.159983 95.3404 -0.383649 85.5177 3.905C84.3995 4.38823 83.3265 4.94697 82.2989 5.5812C81.8909 5.83792 81.3771 6.35135 80.9086 6.42685C80.5308 6.48726 79.881 6.18524 79.5032 6.10974C76.7529 5.61141 73.927 5.76242 71.222 6.39665Z" fill="#AA88E8" fill-opacity="0.5"/>
<path d="M83.3115 96.9114C83.1755 96.8057 82.4954 96.4282 82.0119 96.1111C82.2688 97.2286 82.1932 98.5272 81.498 99.4635C82.299 99.3125 83.0697 99.3125 83.9159 99.2219C85.7898 99.0105 83.9764 97.4249 83.3115 96.9114Z" fill="#C09DFE" fill-opacity="0.2"/>
<path d="M82.0116 96.096C81.7245 95.9148 81.5129 95.7487 81.5129 95.6581C80.304 94.8427 79.0799 93.9517 77.7198 93.393C76.2389 92.7889 74.6673 92.2755 73.0805 92.0339C71.1009 91.7319 69.1817 91.9131 67.2322 92.2302C65.6908 92.4869 64.1646 92.8796 62.744 93.544C59.5403 95.0239 62.1245 97.4098 64.1646 98.3914C66.8696 99.6901 69.8617 100.385 72.8689 100.385C74.637 100.385 76.3598 100.037 78.1127 99.9468C79.0497 99.9015 80.0773 99.7807 80.984 99.5541C81.1502 99.5088 81.3164 99.4786 81.4978 99.4484C82.1929 98.5122 82.2685 97.2135 82.0116 96.096Z" fill="#EDF0F7" fill-opacity="0.5"/>
<path d="M68.1996 94.1781C67.8218 96.7603 69.8014 99.5238 72.5216 99.4936C74.199 99.4785 75.6497 98.4667 76.3751 97.002C76.8587 96.0355 77.2516 93.9365 76.2391 93.1814C75.3626 92.5321 74.0781 92.517 73.0354 92.4264C72.2798 92.366 71.5242 92.3811 70.7837 92.4717C70.1037 92.5623 69.3028 92.6529 68.6983 93.0002C68.3205 93.2267 68.26 93.7553 68.1996 94.1781Z" fill="#CBD2E0"/>
<path d="M69.6804 95.809C70.9951 95.2201 72.4458 94.9784 73.8815 95.0992C74.9997 95.1898 76.4203 95.8845 76.1029 97.2738C75.8762 98.2855 74.7277 99.0557 73.7908 99.3124C72.3401 99.7201 70.7533 99.2973 69.5897 98.3761C69.1666 98.0288 68.683 97.6211 68.5168 97.0775C68.3354 96.4885 68.9248 96.1714 69.3933 95.9449C69.4839 95.8996 69.5897 95.8543 69.6804 95.809Z" fill="#EDF0F7"/>
<path d="M56.382 92.8493C56.3518 92.8191 56.3367 92.7889 56.3064 92.7587C54.7348 90.4633 55.8833 87.9415 58.1803 86.7485C63.4392 84.0304 70.3302 85.4045 75.302 88.0774C76.8736 88.923 78.279 90.0103 79.6391 91.158C80.8933 92.215 82.2232 93.257 83.3717 94.4349C84.4446 95.5372 84.9282 97.002 85.2304 98.5121C84.6411 97.9836 84.1726 97.4702 83.3868 96.8963C80.9236 95.0993 78.6266 93.3174 75.5438 92.6681C71.0102 91.7167 66.5069 92.4265 62.3361 94.3594C61.4445 94.7671 60.4773 95.2503 59.495 94.9181C58.2559 94.4953 57.1376 93.9063 56.382 92.8493Z" fill="#AA88E8" fill-opacity="0.1"/>
<path d="M83.0694 98.5429C82.9032 98.7242 82.6312 98.7998 82.3894 98.7242C82.3289 98.7091 82.2685 98.6789 82.2383 98.6184C82.2232 98.5882 82.2231 98.5429 82.2231 98.5127C82.2383 98.3011 82.3592 98.0744 82.5103 97.9233C82.6614 97.7722 82.9938 97.6664 83.1147 97.9082C83.2508 98.1197 83.2508 98.3464 83.0694 98.5429Z" fill="white" fill-opacity="0.3"/>
<path d="M112.704 96.851C112.84 96.7453 113.52 96.3678 114.004 96.0507C113.747 97.1681 113.822 98.4668 114.517 99.4031C113.716 99.2521 112.946 99.2521 112.099 99.1614C110.21 98.95 112.024 97.3644 112.704 96.851Z" fill="#C09DFE" fill-opacity="0.2"/>
<path d="M113.988 96.096C114.275 95.9148 114.487 95.7487 114.487 95.6581C115.696 94.8427 116.92 93.9517 118.28 93.393C119.761 92.7889 121.332 92.2755 122.919 92.0339C124.899 91.7319 126.818 91.9131 128.767 92.2302C130.309 92.4869 131.835 92.8796 133.256 93.544C136.459 95.0239 133.875 97.4098 131.835 98.3914C129.13 99.6901 126.138 100.385 123.131 100.385C121.363 100.385 119.64 100.037 117.887 99.9468C116.95 99.9015 115.922 99.7807 115.016 99.5541C114.849 99.5088 114.683 99.4786 114.502 99.4484C113.807 98.5122 113.746 97.2135 113.988 96.096Z" fill="#EDF0F7" fill-opacity="0.5"/>
<path d="M127.8 94.1781C128.178 96.7603 126.199 99.5238 123.478 99.4936C121.801 99.4785 120.35 98.4667 119.625 97.002C119.141 96.0355 118.749 93.9365 119.761 93.1814C120.637 92.5321 121.922 92.517 122.965 92.4264C123.72 92.366 124.476 92.3811 125.216 92.4717C125.896 92.5623 126.697 92.6529 127.302 93.0002C127.68 93.2267 127.74 93.7553 127.8 94.1781Z" fill="#CBD2E0"/>
<path d="M126.319 95.809C125.005 95.2201 123.554 94.9784 122.118 95.0992C121 95.1898 119.58 95.8845 119.897 97.2738C120.124 98.2855 121.272 99.0557 122.209 99.3124C123.66 99.7201 125.247 99.2973 126.41 98.3761C126.833 98.0288 127.317 97.6211 127.483 97.0775C127.664 96.4885 127.075 96.1714 126.607 95.9449C126.516 95.8996 126.425 95.8543 126.319 95.809Z" fill="#EDF0F7"/>
<path d="M139.633 92.8493C139.663 92.8191 139.678 92.7889 139.708 92.7587C141.28 90.4633 140.132 87.9415 137.835 86.7485C132.576 84.0304 125.685 85.4045 120.713 88.0774C119.141 88.923 117.736 90.0103 116.376 91.158C115.122 92.215 113.792 93.257 112.643 94.4349C111.57 95.5372 111.087 97.002 110.784 98.5121C111.374 97.9836 111.842 97.4702 112.628 96.8963C115.091 95.0993 117.388 93.3174 120.471 92.6681C125.005 91.7167 129.508 92.4265 133.679 94.3594C134.57 94.7671 135.538 95.2503 136.52 94.9181C137.744 94.4953 138.862 93.9063 139.633 92.8493Z" fill="#AA88E8" fill-opacity="0.1"/>
<path d="M111.858 98.3767C112.009 98.5279 112.266 98.5883 112.477 98.5279C112.538 98.5128 112.583 98.4825 112.613 98.4372C112.628 98.407 112.628 98.3767 112.628 98.3465C112.613 98.1652 112.507 97.9838 112.371 97.8478C112.235 97.7269 111.933 97.6211 111.812 97.8327C111.691 98.0292 111.691 98.2256 111.858 98.3767Z" fill="white" fill-opacity="0.3"/>
<path d="M63.9835 89.0288C62.7595 89.2251 61.5656 89.5422 60.4171 90.0405C59.7824 90.3123 59.1629 90.6597 58.7246 91.2033C58.2864 91.7318 58.0748 92.502 58.3468 93.1362C58.9815 94.6916 61.1576 94.3141 62.427 93.997C64.5124 93.4835 66.4316 92.4265 68.4415 91.6563C69.9527 91.0825 71.4639 90.4935 73.0506 90.2066C73.912 90.0405 74.7884 89.965 75.6649 89.965C71.9172 88.8173 67.8975 88.4247 63.9835 89.0288Z" fill="#AA88E8" fill-opacity="0.3"/>
<path d="M131.548 89.0288C132.772 89.2251 133.966 89.5422 135.114 90.0405C135.749 90.3123 136.369 90.6597 136.807 91.2033C137.245 91.7318 137.457 92.502 137.185 93.1362C136.55 94.6916 134.374 94.3141 133.105 93.997C131.019 93.4835 129.1 92.4265 127.09 91.6563C125.579 91.0825 124.068 90.4935 122.481 90.2066C121.62 90.0405 120.743 89.965 119.867 89.965C123.614 88.8173 127.634 88.4247 131.548 89.0288Z" fill="#AA88E8" fill-opacity="0.3"/>
<path opacity="0.5" d="M64.0739 65.9093C63.9076 66.7851 63.7716 67.6761 63.9832 68.5368C64.1796 69.3976 64.8143 70.213 65.6757 70.3942C67.0509 70.6661 68.1691 69.3221 68.819 68.0838C70.1035 65.562 70.4964 62.6777 69.9221 59.884C69.7559 59.0686 69.3328 58.1172 68.5016 58.0115C67.9425 57.936 67.4287 58.2984 67.0055 58.691C64.8143 60.7297 64.5877 63.1458 64.0739 65.9093Z" fill="white" fill-opacity="0.3"/>
<path d="M94.7814 110.261C94.7512 111.061 94.721 111.861 94.7058 112.662C94.6907 113.145 94.8116 113.779 95.2952 113.824C95.7788 113.87 95.9903 113.251 96.0508 112.767C96.625 107.799 95.6428 102.589 94.4338 97.7571C94.9174 101.925 94.9325 106.063 94.7814 110.261Z" fill="white" fill-opacity="0.3"/>
<path d="M67.7614 101.895C70.0584 102.257 72.4007 102.62 74.7128 102.333C76.6773 102.091 78.5512 101.396 80.3948 100.687C81.3318 100.339 82.314 99.9467 82.9487 99.1916C81.7398 99.2067 80.5611 99.5994 79.3824 99.9014C76.1787 100.702 72.7785 100.732 69.5597 99.9618C67.3685 99.4332 65.2075 98.5423 62.9709 98.6631C63.0767 98.6631 63.4092 99.4483 63.4847 99.5541C63.7568 99.9467 64.1497 100.294 64.5275 100.581C65.4795 101.321 66.5827 101.713 67.7614 101.895Z" fill="#AA88E8" fill-opacity="0.1"/>
<path d="M66.6734 98.8443C65.3738 98.3158 64.044 97.7419 62.971 96.8057C62.6688 96.5339 62.5328 96.1564 62.1399 96.0204C61.2634 95.7184 60.9914 97.153 61.1274 97.6966C61.3087 98.4819 61.7319 98.8141 62.2608 99.3728C63.0164 100.173 64.4066 100.732 65.4494 101.094C66.6734 101.532 67.9881 101.729 69.2878 101.759C71.8719 101.834 74.4862 101.276 76.8739 100.324C76.9041 100.309 76.9343 100.294 76.9645 100.279C76.6623 100.4 75.9823 100.249 75.6498 100.249C75.1965 100.249 74.728 100.249 74.2746 100.249C73.4435 100.264 72.6275 100.339 71.7963 100.279C70.0131 100.143 68.3055 99.5087 66.6734 98.8443Z" fill="#AA88E8" fill-opacity="0.3"/>
<path d="M128.208 101.88C125.911 102.242 123.569 102.605 121.257 102.318C119.292 102.076 117.419 101.381 115.575 100.672C114.638 100.324 113.656 99.9317 113.021 99.1766C114.23 99.1917 115.409 99.5844 116.587 99.8864C119.791 100.687 123.191 100.717 126.41 99.9468C128.601 99.4182 130.762 98.5273 132.999 98.6481C132.893 98.6481 132.561 99.4333 132.485 99.539C132.213 99.9317 131.82 100.279 131.442 100.566C130.505 101.306 129.387 101.698 128.208 101.88Z" fill="#AA88E8" fill-opacity="0.1"/>
<path d="M129.296 98.8292C130.596 98.3006 131.926 97.7268 132.999 96.7906C133.301 96.5187 133.437 96.1412 133.83 96.0053C134.706 95.7033 134.978 97.1379 134.842 97.6815C134.661 98.4668 134.238 98.799 133.709 99.3577C132.953 100.158 131.563 100.717 130.52 101.079C129.296 101.517 127.982 101.713 126.682 101.744C124.098 101.819 121.483 101.26 119.096 100.309C119.066 100.294 119.035 100.279 119.005 100.264C119.307 100.385 119.987 100.234 120.32 100.234C120.773 100.234 121.242 100.234 121.695 100.234C122.526 100.249 123.342 100.324 124.173 100.264C125.972 100.128 127.664 99.4936 129.296 98.8292Z" fill="#AA88E8" fill-opacity="0.3"/>
<path d="M53.7829 28.6252C53.39 30.105 53.1029 31.8718 54.1607 32.9893C54.5838 33.4423 55.1883 33.6991 55.6266 34.137C56.6693 35.1487 56.6693 36.7947 56.5937 38.2444C56.4577 40.7965 56.3217 43.3334 56.2008 45.8855C57.3795 45.4778 58.5582 45.07 59.737 44.6623C58.4222 45.7798 57.6969 47.4711 57.44 49.1775C57.168 50.8839 57.304 52.6205 57.4551 54.342C58.6489 52.696 60.1148 51.2463 61.7922 50.0835C63.1673 49.1171 64.7843 48.2563 65.4794 46.7311C65.6457 46.3838 65.7212 45.9157 65.4492 45.6439C65.1772 45.3871 64.7541 45.4475 64.3763 45.4324C63.4242 45.4022 62.578 44.7227 62.2153 43.8469C61.8375 42.971 61.9131 41.9592 62.2304 41.0834C60.7646 41.7327 58.8454 40.872 58.3467 39.3619C57.8631 37.9122 58.5885 36.387 59.072 34.9373C59.5405 33.4876 59.6463 31.6 58.392 30.7393C57.7271 30.2863 56.775 30.2107 56.3368 29.5312C56.0043 29.0178 56.095 28.3382 56.2008 27.7342C56.8657 23.9741 58.1351 19.8213 58.1804 16.031C56.9262 17.375 56.3368 20.3952 55.7474 22.1771C55.0976 24.0194 53.7829 26.6469 53.7829 28.6252Z" fill="white" fill-opacity="0.3"/>
<path d="M90.4892 21.7241C88.5549 23.1134 88.7815 26.5564 90.867 27.6889C91.7888 28.1873 93.028 28.3836 93.4511 29.3349C93.9649 30.4826 92.8768 31.2679 92.9675 32.2947C93.0733 33.4424 94.6147 34.3484 95.5667 34.6354C96.9268 35.0431 98.3775 34.9072 99.798 34.8317C103.38 34.6354 106.976 34.8166 110.527 35.3602C109.515 35.2092 108.578 34.5296 107.641 34.1672C106.432 33.6991 105.238 33.3065 103.939 33.1857C102.488 33.0498 99.2842 32.7024 99.0576 30.8148C98.9971 30.2561 99.2087 29.6974 99.2238 29.1235C99.2691 27.3567 97.4255 26.1638 95.733 25.6805C94.0404 25.1973 92.1212 24.9708 90.9123 23.6872C92.0155 22.9171 93.2546 21.86 93.0582 20.516C92.8466 19.0965 91.2296 18.4774 89.9451 17.8734C86.6357 16.318 84.656 13.4186 83.4773 10.0813C83.3866 14.9287 85.8196 19.8667 90.4892 21.7241Z" fill="white" fill-opacity="0.3"/>
<path d="M101.506 24.6839C102.171 24.8953 102.896 25.1823 103.214 25.8014C103.607 26.5715 103.183 27.5229 103.44 28.3535C103.773 29.4709 105.103 29.8786 106.221 30.1958C109.561 31.1169 112.734 32.6421 115.56 34.6656C115.076 34.0465 114.638 33.3216 114.623 32.5213C114.593 31.736 115.092 30.8753 115.877 30.7394C113.55 29.1085 109.878 30.1203 107.944 28.0363C108.563 27.5531 108.986 26.8434 109.137 26.0732C108.034 24.4574 105.828 24.1554 103.894 23.8836C101.959 23.6118 99.7228 23.0077 98.9975 21.1805C98.8615 20.8332 98.7708 20.4557 98.4988 20.2141C98.3023 20.048 98.0454 19.9725 97.7885 19.8969C96.5947 19.5798 95.4009 19.2627 94.207 18.9607C96.5191 19.3986 95.5973 20.652 96.3831 22.1017C97.3049 23.8685 99.6473 24.0648 101.506 24.6839Z" fill="white" fill-opacity="0.3"/>
<path d="M43.5976 46.2782C43.1594 49.7967 42.9025 53.5719 44.6252 56.6676C45.1844 57.6793 45.94 58.5703 46.3631 59.6425C46.9827 61.213 46.8013 62.9496 46.9373 64.6258C47.1489 67.4798 48.2672 70.2433 50.0806 72.448C50.4282 72.8708 50.8211 73.3088 50.8815 73.8524C50.9571 74.4262 50.6246 74.985 50.3677 75.4984C48.1765 79.8022 49.2797 85.1781 47.2698 89.5724C46.2724 91.747 45.2902 94.6312 45.5773 97.2286C43.9452 94.299 42.3131 93.8158 40.6357 92.4869C39.6837 90.554 37.8854 71.5571 38.505 64.218C38.8072 60.5787 38.9734 56.6072 39.593 53.0132C41.3913 42.5634 44.0359 33.2008 50.2166 23.2644C46.1666 30.2863 44.5799 38.3351 43.5976 46.2782Z" fill="white" fill-opacity="0.3"/>
<path d="M153.657 44.9191C153.4 43.0013 153.067 41.0835 152.568 39.2865C151.662 36.0247 149.803 32.7176 148.277 29.6672C146.01 25.1218 143.426 20.501 139.995 16.7106C139.678 16.3482 139.346 16.0009 138.998 15.6687C135.991 12.6485 132.334 10.4589 128.556 8.54105C124.899 6.68364 121.03 4.66012 116.995 3.87488C121.635 4.69033 125.005 8.58636 128.813 11.3498C129.976 12.1955 131.2 12.9354 132.243 13.917C133.815 15.3969 134.903 17.3147 135.945 19.2023C137.411 21.8751 138.877 24.5933 139.814 27.5078C140.343 29.1689 140.978 31.1169 140.57 32.8535C140.524 33.0498 140.464 33.2461 140.313 33.3669C140.011 33.6236 139.542 33.4273 139.195 33.2159C138.318 32.6874 137.426 32.1589 136.55 31.6303C137.789 34.122 138.787 36.7344 139.482 39.4224C139.557 39.7395 139.572 40.1774 139.27 40.268C139.119 40.3133 138.968 40.2378 138.817 40.1623C135.371 38.4106 133.089 35.0884 129.553 33.5481C128.405 33.0498 126.954 33.0951 125.896 32.3854C128.798 34.3485 130.959 36.2814 133.21 38.9845C136.233 42.6238 139.376 46.5349 139.98 51.2162C134.344 42.065 127.332 37.6254 114.593 37.2026C122.708 39.7395 129.266 41.5969 135.069 47.8034C136.898 49.7665 138.59 51.8957 139.859 54.2515C140.524 55.4746 141.068 56.7582 141.612 58.0267C142.67 60.5032 144.076 63.0402 144.665 65.6526C144.967 66.9966 145.224 68.3406 145.436 69.6997C145.798 71.995 145.844 74.3508 146.252 76.631C146.599 78.6394 146.781 80.6629 147.007 82.6864C147.128 83.7284 147.264 84.7553 147.43 85.7972C147.582 86.6429 147.672 87.6395 148.201 88.3493C147.355 87.715 146.962 87.2469 146.025 84.4986C146.176 86.9449 146.781 89.3611 147.808 91.5809C148.7 93.5289 150.8 96.4736 152.523 94.0725C154.337 91.5658 153.657 85.465 153.203 82.6261C153.022 81.5086 152.78 80.4062 152.84 79.2737C152.886 78.2619 153.173 77.2954 153.415 76.3139C155.485 68.2047 155.304 59.7482 154.352 51.5031C154.155 49.389 153.959 47.1389 153.657 44.9191Z" fill="#AA88E8" fill-opacity="0.5"/>
<path d="M59.7671 93.997C61.1574 92.2302 63.1068 90.856 65.2224 90.1009C66.2954 89.7234 67.4137 89.5422 68.5168 89.361C70.1791 89.1194 71.8716 88.9382 73.5642 89.0439C75.8309 89.21 78.1128 89.814 80.0169 91.0976C81.4374 92.0338 82.6766 93.1966 83.8251 94.4198C81.9814 93.2117 80.2133 91.8375 78.2035 90.9617C77.2212 90.5238 76.1785 90.1764 75.1207 89.9197C72.9748 89.4516 70.7383 89.1496 68.5622 89.5875C67.2021 89.8593 65.9478 90.418 64.6935 90.9919C63.9833 91.3241 63.1975 91.7167 62.5174 92.1396C61.5805 92.6983 60.6889 93.3476 59.8124 94.0423L59.7671 93.997Z" fill="#6B1FE0" fill-opacity="0.3"/>
<path d="M81.6338 86.8693C76.9642 85.6914 72.476 83.8642 67.8669 82.49C65.6153 81.8256 63.2276 81.2367 60.9155 81.8709C58.5883 82.5051 56.6087 83.9397 54.7046 85.3743L54.1001 85.8273C54.7197 84.9515 55.3997 84.0907 56.11 83.2904C56.654 82.6712 57.2282 82.0672 57.8176 81.4934C58.9812 80.3155 60.1901 79.1376 61.6258 78.292C63.1521 77.2802 64.6935 76.9178 66.522 77.1594C69.0003 77.4916 71.388 78.1712 73.7757 78.8658C75.1508 79.2886 77.1154 79.938 78.4754 80.3004C80.0622 80.7081 81.6791 80.995 83.281 81.4028C84.097 81.5689 84.9735 81.9464 85.5024 82.641C86.3184 83.6377 86.7567 84.8307 87.0287 86.0538C87.1043 86.4616 87.1043 86.8844 87.0136 87.2921C87.074 86.8844 87.0136 86.4767 86.9229 86.084C86.5754 84.9364 86.0464 83.7736 85.2455 82.8977C84.6864 82.2786 83.9912 82.037 83.1752 81.9162C82.3743 81.7652 81.5582 81.6142 80.7573 81.4783C79.1252 81.2064 77.4932 80.844 75.9215 80.3457C74.5161 79.938 72.5818 79.349 71.1915 78.9715C70.4057 78.7601 69.6048 78.5487 68.819 78.3524C67.2776 77.99 65.6606 77.5973 64.089 77.9145C63.3334 78.0655 62.608 78.4128 61.9129 78.8205C60.4924 79.636 59.2683 80.693 58.0745 81.7954C56.8656 82.8977 55.7019 84.0756 54.7197 85.3743L54.5535 85.2082C55.037 84.8458 55.5206 84.4984 56.0193 84.1511C58.5732 82.3239 61.1875 80.7987 64.4517 81.1611C65.6757 81.2669 66.8847 81.5538 68.0332 81.9011C72.6876 83.2753 77.0851 85.2233 81.6338 86.8693Z" fill="#6B1FE0" fill-opacity="0.3"/>
<path d="M74.7012 96.0945C75.2139 94.8715 74.6374 93.4647 73.4135 92.9523C72.1896 92.4399 70.7818 93.016 70.269 94.239C69.7563 95.462 70.3328 96.8689 71.5567 97.3813C72.7806 97.8936 74.1884 97.3176 74.7012 96.0945Z" fill="#6B1FE0" fill-opacity="0.3"/>
<path d="M72.4913 99.5542C70.2094 99.5844 68.0031 97.9535 67.8973 95.5374C67.8822 94.6313 68.0182 93.3628 68.7889 92.789C69.3934 92.4115 70.149 92.4417 70.8139 92.3964C71.3579 92.3662 71.9019 92.3209 72.446 92.3058C73.6851 92.2756 74.9696 92.336 76.1635 92.7286C77.0853 93.1061 77.1306 94.284 77.176 95.1296C77.1911 97.7119 74.9999 99.5693 72.4913 99.5542ZM72.4913 99.4938C74.6372 99.5089 76.4204 97.5458 76.5564 95.4921C76.5866 94.8125 76.5866 93.9216 76.1937 93.3779C75.8764 93.091 75.2719 93.0155 74.8336 92.9249C74.0327 92.7588 73.262 92.6531 72.446 92.6078C71.4033 92.5927 70.2397 92.4719 69.2423 92.7739C68.2298 93.1363 68.3053 94.6162 68.3658 95.5072C68.5925 97.5609 70.3303 99.5089 72.4913 99.4938Z" fill="#6B1FE0" fill-opacity="0.3"/>
<path d="M98 176.991C93.0585 177.112 89.4316 176.04 84.9736 174.092C76.7226 170.604 69.4841 165.001 63.4545 158.448C59.5254 154.129 55.9439 149.342 53.7225 143.89C52.5286 141.051 51.9393 137.941 51.3499 134.981C50.277 129.56 48.9018 124.199 47.4057 118.868C47.1337 117.781 46.9373 116.694 46.6955 115.606C46.5292 114.836 46.3328 113.93 46.227 113.145C45.9097 110.668 45.7283 108.162 45.6225 105.67C45.5016 102.348 45.5319 99.0104 45.547 95.6882C45.6528 98.1346 45.8492 103.314 46.0306 105.655C46.1817 108.131 46.4386 110.623 46.8164 113.069C46.9977 114.142 47.1035 115.274 47.3151 116.346C47.6173 117.69 47.9649 119.019 48.4031 120.333C50.0201 125.059 51.5464 129.846 52.6042 134.739C53.4807 139.088 54.3723 143.316 56.3217 147.318C60.961 157.466 70.149 164.579 79.6392 169.97C81.5433 171.057 83.4927 172.114 85.4572 173.08C87.3915 174.001 89.4619 174.983 91.5322 175.557C93.6327 176.176 95.8239 176.493 98.0151 176.629L98 176.991Z" fill="#6B1FE0" fill-opacity="0.3"/>
<path d="M71.2974 94.4504C71.2974 94.7677 71.116 95.0246 70.5418 95.0246C69.9826 95.0246 69.5142 94.7677 69.5142 94.4504C69.5142 94.133 69.9675 93.8761 70.5418 93.8761C71.116 93.8761 71.2974 94.133 71.2974 94.4504Z" fill="white" fill-opacity="0.7"/>
<path d="M74.6826 96.6097C74.6826 96.8213 74.5769 96.9875 74.2746 96.9875C73.9573 96.9875 73.8062 96.8213 73.8062 96.6097C73.8062 96.3982 73.9573 96.2319 74.2746 96.2319C74.592 96.2319 74.6826 96.3982 74.6826 96.6097Z" fill="white" fill-opacity="0.7"/>
<path d="M97.9849 176.614C100.176 176.478 102.367 176.161 104.468 175.542C106.583 174.938 108.578 174.017 110.543 173.065C112.522 172.099 114.457 171.042 116.361 169.955C125.851 164.564 135.054 157.451 139.693 147.303C141.628 143.301 142.519 139.058 143.396 134.724C144.529 129.273 146.388 124.018 148.08 118.732C148.383 117.675 148.655 116.603 148.836 115.516C149.335 112.239 149.788 108.947 149.985 105.64C150.181 103.239 150.347 98.1045 150.468 95.6732C150.468 97.893 150.498 100.113 150.468 102.333C150.423 105.942 150.257 109.551 149.788 113.145C149.607 114.519 149.244 115.878 148.972 117.237C148.64 118.868 148.186 120.499 147.718 122.085C146.509 126.343 145.557 130.662 144.665 134.981C144.212 137.14 143.819 139.345 143.139 141.504C142.806 142.561 142.414 143.649 141.96 144.676C137.245 155.186 126.924 165.334 117.026 171.102C115.091 172.22 113.082 173.216 111.026 174.092C107.944 175.436 104.725 176.584 101.355 176.871C100.237 176.976 99.1182 177.007 98 176.992L97.9849 176.614Z" fill="#6B1FE0" fill-opacity="0.3"/>
<path d="M114.381 86.8694C118.915 85.2234 123.327 83.2754 127.952 81.871C129.115 81.5237 130.309 81.2368 131.533 81.131C134.797 80.7686 137.427 82.2938 139.965 84.121C140.464 84.4683 140.948 84.8308 141.431 85.1781L141.265 85.3442C140.283 84.0455 139.119 82.8677 137.91 81.7653C136.716 80.6478 135.492 79.5908 134.057 78.7904C133.362 78.3827 132.636 78.0354 131.881 77.8844C130.309 77.5672 128.707 77.9599 127.151 78.3223C126.35 78.5186 125.564 78.73 124.778 78.9414C123.403 79.3038 121.438 79.9079 120.048 80.3156C118.476 80.8139 116.829 81.1764 115.212 81.4482C114.396 81.5841 113.595 81.7351 112.794 81.8861C111.993 82.0069 111.283 82.2636 110.724 82.8677C109.923 83.7435 109.394 84.9063 109.047 86.0539C108.956 86.4466 108.896 86.8543 108.956 87.262C108.865 86.8543 108.865 86.4315 108.941 86.0237C109.213 84.8006 109.636 83.6076 110.467 82.6109C110.996 81.9314 111.873 81.5388 112.689 81.3727C114.29 80.98 115.907 80.678 117.494 80.2703C118.854 79.9079 120.834 79.2585 122.194 78.8357C124.582 78.1411 126.969 77.4615 129.448 77.1293C131.276 76.8877 132.818 77.2652 134.344 78.2619C135.779 79.1226 136.988 80.2854 138.152 81.4633C138.741 82.0371 139.316 82.6411 139.86 83.2603C140.57 84.0606 141.265 84.9063 141.869 85.7972L141.265 85.3442C138.439 83.1848 135.296 81.0555 131.563 81.6747C130.4 81.8257 129.251 82.1277 128.103 82.475C123.539 83.8643 119.051 85.6915 114.381 86.8694Z" fill="#6B1FE0" fill-opacity="0.3"/>
<path d="M106.251 90.2218C103.939 92.4869 102.987 95.7185 102.216 98.7689C101.959 99.8109 101.733 100.853 101.506 101.91C101.536 101.638 101.551 101.381 101.581 101.11C102.05 97.3192 103.077 92.653 106.251 90.2218Z" fill="#6B1FE0" fill-opacity="0.3"/>
<path d="M65.6458 92.1546C64.1648 92.653 63.107 93.106 61.6109 93.5741C60.3264 93.9819 58.9966 94.1933 57.6516 94.1782C58.9059 95.2805 61.1575 96.2017 61.4447 96.1866C61.6411 96.0054 61.9131 95.7487 62.2003 95.5976C64.7088 94.2537 67.2476 92.7587 70.0735 92.4265C73.2168 92.0489 78.2188 93.6949 81.0749 95.0993C78.1432 92.7587 75.6951 92.1849 73.3528 91.7167C71.0407 91.2486 67.8974 91.3996 65.6458 92.1546Z" fill="#6B1FE0" fill-opacity="0.3"/>
<path d="M130.37 92.1546C131.851 92.653 132.908 93.106 134.404 93.5741C135.689 93.9819 137.019 94.1933 138.364 94.1782C137.109 95.2805 134.888 96.1715 134.616 96.1413C134.299 96.1262 134.102 95.7487 133.83 95.5976C131.322 94.2537 128.783 92.7587 125.957 92.4265C122.814 92.0489 117.812 93.6949 114.956 95.0993C117.887 92.7587 120.335 92.1849 122.678 91.7167C124.975 91.2486 128.118 91.3996 130.37 92.1546Z" fill="#6B1FE0" fill-opacity="0.3"/>
<path d="M45.5772 97.2436C44.3078 95.4919 42.6606 93.9667 40.6357 93.1965C39.8045 92.9096 38.6258 92.7737 37.976 93.3928C37.3564 94.0573 37.568 95.3257 37.5226 96.2016C37.5529 98.3912 37.7342 100.596 38.1422 102.755C38.7618 106.017 39.8801 109.173 40.6206 112.405C40.8623 113.492 41.0739 114.579 41.2855 115.667C42.2829 120.861 43.5674 126.645 48.0556 129.952C48.6298 130.33 50.3223 131.598 50.821 130.858L50.9117 130.903C50.413 131.915 48.4334 130.783 47.7382 130.42C45.7435 129.288 44.2021 127.491 43.0838 125.512C41.3913 122.568 40.7566 119.125 40.2579 115.833C39.6383 111.438 38.8374 107.12 37.7795 102.816C37.2204 100.4 36.6008 97.908 36.5555 95.3862C36.4648 94.0724 36.767 92.6227 38.2027 92.1848C41.225 91.3844 44.4741 94.6915 45.5772 97.2436Z" fill="#6B1FE0" fill-opacity="0.3"/>
<path d="M39.6381 104.628C39.1697 103.314 38.8825 101.94 38.671 100.566C38.5047 99.6447 38.3083 98.7084 38.3839 97.7571C38.4141 97.4701 38.4141 97.2587 38.5652 96.9718C38.9581 96.3678 39.759 96.8208 40.1519 97.1681C43.3254 100.249 45.97 104.326 46.0758 108.856L46.0002 108.871C45.5922 107.059 44.9575 105.338 44.1112 103.722C42.9174 101.532 41.5271 99.388 39.7892 97.591C39.6079 97.4399 39.1697 97.0473 38.9732 97.2436C38.7465 97.8326 38.7768 98.5272 38.8221 99.1463C39.0185 100.974 39.1848 102.831 39.6381 104.628Z" fill="#6B1FE0" fill-opacity="0.3"/>
<path d="M150.453 97.1077C151.481 94.6765 154.095 92.0036 156.921 92.0489C158.946 92.1546 159.49 93.7704 159.324 95.5372C159.263 98.0591 158.629 100.521 158.069 102.937C157.012 107.225 156.226 111.529 155.606 115.908C155.108 119.185 154.473 122.613 152.78 125.543C151.39 127.989 149.29 130.194 146.584 131.13C146.101 131.326 145.24 131.508 144.968 130.904L145.058 130.858C145.572 131.613 147.28 130.315 147.824 129.967C148.7 129.333 149.456 128.578 150.121 127.747C153.566 123.429 154.08 117.736 155.244 112.496C155.984 109.264 157.102 106.123 157.722 102.876C158.16 100.717 158.326 98.5272 158.357 96.3527C158.326 95.0087 158.689 93.0909 156.845 92.9701C155.848 92.8795 154.82 93.3023 153.959 93.8006C152.569 94.6161 151.42 95.7788 150.453 97.1077Z" fill="#6B1FE0" fill-opacity="0.3"/>
<path d="M156.241 104.628C156.679 102.922 156.86 101.11 157.027 99.3578C157.072 98.6481 157.147 97.8779 156.891 97.2135C156.755 97.0927 156.528 97.2286 156.347 97.3645C155.833 97.742 155.455 98.2705 155.017 98.7689C154.443 99.4484 153.898 100.143 153.37 100.838C151.768 102.952 150.589 105.277 150.075 107.92H150C149.985 106.123 150.453 104.311 151.299 102.68C152.221 100.853 153.642 99.3578 155.002 97.8779C155.47 97.3645 156.588 96.1262 157.284 96.9266C157.495 97.289 157.465 97.6514 157.495 98.0289C157.525 98.9501 157.314 99.8259 157.163 100.717C156.981 102.046 156.679 103.36 156.241 104.628Z" fill="#6B1FE0" fill-opacity="0.3"/>
<path d="M81.0596 6.4419C67.7764 4.7355 60.2658 10.6853 52.4228 20.6065C46.8012 27.7946 43.4464 36.4776 41.5574 45.3267C38.1573 60.8806 38.5955 77.0084 40.6507 92.7284C40.6507 92.7586 40.6356 92.7888 40.6054 92.7888C39.5173 88.4096 38.9582 83.7585 38.4746 79.2131C37.1901 65.5921 38.1421 51.5332 42.7059 38.5464C45.4865 30.7543 49.3098 23.2492 54.5082 16.786C57.9386 12.5427 62.2152 8.73724 67.4439 6.92513C70.7232 5.76236 74.2442 5.43014 77.6897 5.76236C78.8382 5.88317 79.9565 6.06438 81.0748 6.30599C81.105 6.30599 81.1201 6.33619 81.1201 6.3664C81.105 6.4268 81.0899 6.4419 81.0596 6.4419Z" fill="#6B1FE0" fill-opacity="0.3"/>
<path d="M81.3772 25.6503C79.8962 30.4071 76.1485 34.1068 72.159 36.9156C70.2096 38.2747 67.973 39.6035 65.9481 40.8569C60.7647 44.0583 55.9894 47.9694 52.015 52.5903C48.0708 57.1961 44.9729 62.6173 43.8546 68.6275L43.7791 68.6124C44.0057 66.166 44.6253 63.7499 45.5471 61.4545C48.3428 54.5534 53.7075 48.9812 59.6918 44.7228C62.6688 42.6086 65.8876 40.7059 68.8495 38.5918C71.8114 36.4626 74.7733 34.3031 77.2819 31.6454C78.9442 29.8786 80.3194 27.855 81.3167 25.6201L81.3772 25.6503Z" fill="#6B1FE0" fill-opacity="0.3"/>
<path d="M91.2146 33.9257C94.7356 36.0398 98.9216 36.2059 102.911 36.1606C109.999 36.2965 117.237 37.0213 123.871 39.6942C128.405 41.9744 132.696 44.8587 136.233 48.5131C148.005 60.4428 147.098 78.8508 153.777 93.1967C152.75 91.445 151.919 89.5876 151.193 87.6999C149.063 82.0069 147.793 76.0572 146.342 70.1678C144.907 64.3389 143.411 58.3136 139.89 53.3454C135.81 47.592 129.84 43.4392 123.569 40.3435C120.804 39.2261 117.826 38.5616 114.895 37.9878C109.953 37.0364 104.906 36.7797 99.8585 36.5683C96.8362 36.3569 93.7383 35.6623 91.2146 33.9257Z" fill="#6B1FE0" fill-opacity="0.3"/>
<path d="M80.0621 30.679C79.639 35.6623 76.6619 40.3737 72.4155 43.0466C70.2999 44.3906 67.9878 45.357 65.6908 46.2933C63.4089 47.2446 61.1421 48.2111 59.0869 49.5853C60.0238 48.7698 61.0666 48.0903 62.1546 47.4711C65.6303 45.4778 69.5141 44.2547 72.7782 41.9291C76.541 39.2865 79.11 35.179 80.0621 30.679Z" fill="#6B1FE0" fill-opacity="0.3"/>
<path d="M56.5333 54.5081C54.9314 56.3504 52.6495 58.9477 51.1384 60.8202C49.6121 62.6625 47.5115 65.4562 46.0608 67.3891C48.3578 62.587 52.3171 57.7245 56.5333 54.5081Z" fill="#6B1FE0" fill-opacity="0.3"/>
<path d="M55.0069 60.5938C54.75 64.8824 51.3197 68.1744 48.6449 71.2399C46.6501 73.5352 44.8065 76.2081 44.4438 79.2887C44.338 80.3004 44.4287 81.3424 44.7762 82.339C44.2927 81.4028 44.0811 80.3306 44.0962 79.2585C44.202 76.0118 46.0607 73.1426 48.116 70.7567C50.8059 67.6761 54.1456 64.7616 55.0069 60.5938Z" fill="#6B1FE0" fill-opacity="0.3"/>
<path d="M51.6521 72.7047C51.1383 78.2316 45.5016 81.3726 44.1265 86.5824C44.5194 81.0404 50.1863 77.8541 51.6521 72.7047Z" fill="#6B1FE0" fill-opacity="0.3"/>
<path d="M47.2547 84.5438C46.8164 86.9147 45.2448 89.1043 43.1292 90.2671C44.9275 88.6966 46.3329 86.7486 47.2547 84.5438Z" fill="#6B1FE0" fill-opacity="0.3"/>
<path d="M47.7381 86.975C47.1488 89.1495 45.3505 90.9918 43.2046 91.6412C45.1087 90.5237 46.6803 88.923 47.7381 86.975Z" fill="#6B1FE0" fill-opacity="0.3"/>
<path d="M47.0732 90.4331C46.8767 91.5959 45.834 92.5925 44.6704 92.7435C45.6225 92.1093 46.4083 91.3543 47.0732 90.4331Z" fill="#6B1FE0" fill-opacity="0.3"/>
<path d="M81.0294 6.35136C85.835 2.66674 91.8192 0.658317 97.8186 0.114685C100.841 -0.172232 103.909 0.114685 106.901 0.582813C117.313 2.25901 127.604 6.06444 135.946 12.6182C139.482 15.4723 142.414 19.0361 144.831 22.8566C148.836 29.2594 151.571 36.2964 154.05 43.3788C154.548 44.7982 154.956 46.263 155.274 47.7429C156.543 53.6625 156.77 59.7028 156.815 65.7281C156.86 71.7382 156.634 77.7333 156.241 83.7283C156.135 85.2233 156.029 86.7183 155.908 88.2133C155.787 89.7083 155.667 91.2033 155.485 92.6983C155.485 92.7285 155.455 92.7436 155.425 92.7436C155.395 92.7436 155.379 92.7134 155.379 92.6832C155.561 89.6932 155.651 86.6881 155.727 83.6981C156.029 73.2634 156.165 62.7079 155.138 52.3034C154.835 49.3436 154.352 46.3989 153.475 43.5449C153.037 42.1103 152.599 40.6757 152.115 39.2713C148.368 28.0815 142.081 16.9824 131.714 10.791C122.95 5.3849 112.522 2.13821 102.307 1.00564C96.3981 0.552611 90.3685 1.70028 84.9887 4.22213C83.6438 4.85637 82.3441 5.59631 81.105 6.44196C81.0747 6.45706 81.0445 6.45706 81.0294 6.42686C80.9992 6.39666 81.0143 6.36646 81.0294 6.35136Z" fill="#6B1FE0" fill-opacity="0.3"/>
<path d="M80.0624 15.5629C79.4881 19.625 75.9671 23.1737 72.8691 25.6352C75.7253 22.6603 78.8987 19.6401 80.0624 15.5629Z" fill="#6B1FE0" fill-opacity="0.3"/>
<path d="M80.0623 24.2006C79.352 26.4355 77.8106 28.5496 75.6194 29.4859C77.5386 28.1117 78.8835 26.209 80.0623 24.2006Z" fill="#6B1FE0" fill-opacity="0.3"/>
<path d="M79.8356 10.2927C79.9565 12.6334 79.2765 15.1552 77.5537 16.8012C78.8533 14.8532 79.4578 12.5881 79.8356 10.2927Z" fill="#6B1FE0" fill-opacity="0.3"/>
<path d="M81.7849 18.3263C85.6233 27.4321 93.421 32.5211 103.334 31.9624C110.648 31.6 118.355 29.5916 125.382 32.5966C138.137 37.7762 142.096 52.3335 145.073 64.4897C141.522 52.7412 137.532 38.4558 125.05 33.4272C118.129 30.5278 110.588 32.506 103.365 32.7627C93.285 33.1856 85.2455 27.7946 81.7849 18.3263Z" fill="#6B1FE0" fill-opacity="0.3"/>
<path d="M81.3467 13.5393C82.9939 16.5595 84.4446 19.9119 87.3763 21.9052C88.3283 22.5545 89.371 23.0982 90.4138 23.6116C88.7515 23.0378 87.1194 22.2676 85.8047 21.0747C83.6286 19.0511 82.4196 16.2575 81.3467 13.5393Z" fill="#6B1FE0" fill-opacity="0.3"/>
<path d="M146.116 74.0487C146.509 76.9783 146.977 81.0706 147.446 83.9549C147.929 86.7486 148.534 89.7838 150.816 91.6714C151.148 91.9131 151.496 92.1245 151.874 92.3208C151.073 92.1094 150.287 91.6866 149.713 91.0372C149.425 90.705 149.184 90.3728 148.942 90.0255C147.778 88.2285 147.506 86.069 147.174 84.0153C146.72 80.6931 146.418 77.3709 146.116 74.0487Z" fill="#6B1FE0" fill-opacity="0.3"/>
<path d="M147.416 89.799C147.99 91.7621 148.776 93.997 150.77 94.8728C151.042 94.9786 151.329 95.0541 151.617 94.9031C151.511 95.0239 151.36 95.0994 151.193 95.1296C148.76 95.2202 147.718 91.7319 147.416 89.799Z" fill="#6B1FE0" fill-opacity="0.3"/>
<path d="M81.8606 28.0664C82.6011 31.4641 85.2607 34.0464 88.1018 35.8434C94.1163 39.6035 101.43 38.1991 108.125 37.7461C111.555 37.5196 115.091 37.5649 118.386 38.6521C111.616 36.8702 104.679 39.0448 97.8338 38.9089C93.8896 38.8635 89.9605 37.9122 86.8022 35.4507C84.4447 33.6235 82.2988 31.1168 81.8606 28.0664Z" fill="#6B1FE0" fill-opacity="0.3"/>
<path d="M93.1191 24.3667C99.1941 26.7979 105.858 25.9976 112.19 25.454C118.567 24.9556 125.322 24.412 131.352 26.9641C138.953 30.2409 143.668 37.58 147.416 44.617C149.29 48.0751 150.332 52.3487 153.823 54.5836C154.503 55.0064 155.244 55.3386 155.999 55.5803L155.984 55.6256C155.198 55.4292 154.428 55.1423 153.717 54.7346C150.06 52.6507 148.867 48.3016 146.932 44.8586C142.504 36.6286 136.535 27.553 126.667 25.7258C120.275 24.4724 113.807 25.9523 107.4 26.3147C102.609 26.6318 97.5469 26.4808 93.1191 24.3667Z" fill="#6B1FE0" fill-opacity="0.3"/>
<path d="M131.956 35.1035C137.547 38.1086 141.068 43.7865 143.532 49.4494C144.801 52.2883 145.98 55.1877 147.023 58.1173C148.05 61.0469 148.881 64.0821 149.743 67.057C150.332 69.0201 150.967 70.9983 151.979 72.7803C152.75 74.1091 153.747 75.3021 155.032 76.1629C155.455 76.4498 155.908 76.6914 156.377 76.9179L156.362 76.9783C153.249 75.9967 151.299 73.1276 150.166 70.2282C149.38 68.2953 148.866 66.2718 148.322 64.2482C147.506 61.2432 146.66 58.2683 145.662 55.3236C144.363 51.3974 142.534 47.6373 140.268 44.1792C138.061 40.6757 135.402 37.414 131.956 35.1035Z" fill="#6B1FE0" fill-opacity="0.3"/>
<path d="M61.3843 96.1112C65.404 91.8527 71.3732 91.0523 76.7832 92.8645C77.8259 93.2269 78.8233 93.695 79.7753 94.2386C80.6065 94.7219 81.6643 95.5373 82.4501 96.1112C82.843 96.383 83.3568 96.8058 83.7346 97.0927C84.1577 97.4249 84.5204 97.878 84.6867 98.3914C84.4751 97.9082 84.0671 97.5004 83.6288 97.2135C83.2208 96.9417 82.6768 96.5944 82.2688 96.3377C81.347 95.7789 80.4402 95.1749 79.5033 94.7068C77.6143 93.7403 75.544 93.1514 73.4435 92.9702C70.3002 92.7437 67.157 93.4685 64.2706 94.6917C63.3035 95.1296 62.3665 95.6279 61.4296 96.1867L61.3843 96.1112Z" fill="#6B1FE0" fill-opacity="0.3"/>
<path d="M82.1022 97.7268C82.1929 97.3191 82.5102 96.7755 82.752 96.5187C82.4347 96.0959 81.6942 95.809 81.3013 95.5674C81.5582 95.8996 81.7395 96.1714 81.8906 96.564C81.9813 96.8057 82.1022 97.2889 82.1022 97.7268Z" fill="#6B1FE0" fill-opacity="0.3"/>
<path d="M61.6714 96.6245C67.4894 100.656 74.7733 100.762 81.4678 99.3125C82.435 99.1313 83.4777 99.4937 84.3995 99.0558C83.5079 99.5541 82.4501 99.2672 81.498 99.4786C80.5309 99.6296 79.594 99.9316 78.6117 100.113C76.6623 100.475 74.6675 100.596 72.6879 100.566C70.6931 100.551 68.6832 100.324 66.7791 99.6749C64.8902 99.0255 63.0919 98.0289 61.6562 96.6698L61.6714 96.6245Z" fill="#6B1FE0" fill-opacity="0.3"/>
<path d="M136.187 94.0423C134.676 92.8342 133.059 91.7922 131.306 90.9919C130.067 90.418 128.798 89.8593 127.438 89.5875C125.262 89.1647 123.025 89.4516 120.879 89.9197C119.821 90.1613 118.779 90.5238 117.796 90.9617C115.771 91.8375 114.018 93.2117 112.175 94.4198C113.323 93.1966 114.562 92.0187 115.983 91.0976C117.887 89.814 120.169 89.21 122.436 89.0439C124.128 88.9382 125.821 89.1194 127.483 89.361C128.586 89.5271 129.704 89.7234 130.777 90.1009C131.85 90.4634 132.863 91.0221 133.785 91.6714C134.706 92.3359 135.553 93.0909 136.233 93.997L136.187 94.0423Z" fill="#6B1FE0" fill-opacity="0.3"/>
<path d="M123.745 97.5488C125.066 97.4177 126.03 96.2417 125.899 94.9222C125.767 93.6026 124.591 92.6392 123.27 92.7702C121.95 92.9013 120.985 94.0773 121.117 95.3968C121.248 96.7164 122.425 97.6799 123.745 97.5488Z" fill="#6B1FE0" fill-opacity="0.3"/>
<path d="M123.509 99.4936C125.685 99.5087 127.408 97.5607 127.634 95.4919C127.695 94.601 127.77 93.1211 126.758 92.7586C125.76 92.4566 124.597 92.5623 123.554 92.5925C122.738 92.6378 121.967 92.7435 121.166 92.9097C120.728 93.0003 120.124 93.0758 119.806 93.3627C119.413 93.9214 119.413 94.7973 119.444 95.4768C119.58 97.5456 121.363 99.5087 123.509 99.4936ZM123.509 99.554C121 99.5842 118.809 97.7117 118.839 95.1144C118.869 94.2687 118.915 93.0909 119.852 92.7133C121.045 92.3207 122.33 92.2754 123.569 92.2905C124.113 92.3056 124.657 92.3509 125.201 92.3811C125.866 92.4415 126.622 92.4113 127.226 92.7737C127.982 93.3627 128.133 94.6312 128.118 95.5221C127.997 97.9382 125.791 99.5691 123.509 99.554Z" fill="#6B1FE0" fill-opacity="0.3"/>
<path d="M134.555 96.2017C132.727 95.0842 130.808 94.2084 128.752 93.6647C126.727 93.1362 124.642 92.804 122.542 92.9852C120.441 93.1815 118.386 93.7704 116.482 94.7218C115.53 95.1899 114.638 95.8091 113.716 96.3527C113.308 96.5943 112.749 96.9567 112.356 97.2285C111.918 97.5155 111.51 97.9232 111.298 98.4064C111.465 97.893 111.842 97.4399 112.25 97.1077C112.628 96.8057 113.157 96.398 113.535 96.1262C114.336 95.5674 115.379 94.752 116.21 94.2537C118.114 93.1362 120.245 92.4114 122.436 92.1244C124.642 91.8375 126.924 91.913 129.055 92.6228C131.17 93.3325 133.135 94.5104 134.616 96.1262L134.555 96.2017Z" fill="#6B1FE0" fill-opacity="0.3"/>
<path d="M113.898 97.7268C113.807 97.3191 113.49 96.7755 113.248 96.5187C113.565 96.0959 114.306 95.809 114.699 95.5674C114.442 95.8996 114.26 96.1714 114.109 96.564C114.018 96.8057 113.898 97.2889 113.898 97.7268Z" fill="#6B1FE0" fill-opacity="0.3"/>
<path d="M134.359 96.6698C131.442 99.4333 127.287 100.596 123.327 100.581C121.348 100.611 119.353 100.49 117.404 100.128C116.421 99.9467 115.484 99.6447 114.517 99.4937C113.565 99.2823 112.492 99.5692 111.616 99.0708C112.538 99.5088 113.565 99.1615 114.547 99.3276C115.545 99.4484 116.497 99.7202 117.464 99.8561C119.398 100.158 121.378 100.234 123.342 100.143C125.307 100.068 127.226 99.7202 129.085 99.1615C130.944 98.6027 132.727 97.742 134.344 96.6245L134.359 96.6698Z" fill="#6B1FE0" fill-opacity="0.3"/>
<path d="M122.36 94.4504C122.36 94.7677 122.179 95.0246 121.605 95.0246C121.046 95.0246 120.577 94.7677 120.577 94.4504C120.577 94.133 121.031 93.8761 121.605 93.8761C122.179 93.8761 122.36 94.133 122.36 94.4504Z" fill="white" fill-opacity="0.7"/>
<path d="M125.745 96.6097C125.745 96.8213 125.64 96.9875 125.337 96.9875C125.02 96.9875 124.869 96.8213 124.869 96.6097C124.869 96.3982 125.02 96.2319 125.337 96.2319C125.64 96.2319 125.745 96.3982 125.745 96.6097Z" fill="white" fill-opacity="0.7"/>
<path d="M62.0339 95.6429C62.6989 96.549 63.5754 97.2587 64.5878 97.7722C66.2501 98.6933 68.0333 99.3427 69.8921 99.7353C68.0182 99.4333 66.1746 98.8292 64.4821 97.9836C63.4393 97.5004 62.4722 96.7755 61.7468 95.8695C61.7619 95.8695 62.0339 95.6429 62.0339 95.6429Z" fill="#6B1FE0" fill-opacity="0.3"/>
<path d="M134.253 95.8695C133.528 96.7755 132.576 97.4853 131.518 97.9836C129.811 98.8443 127.982 99.4333 126.108 99.7353C127.967 99.3578 129.765 98.6933 131.412 97.7722C132.41 97.2587 133.286 96.549 133.966 95.6429C133.981 95.6429 134.253 95.8695 134.253 95.8695Z" fill="#6B1FE0" fill-opacity="0.3"/>
</g>
<path d="M68.1996 93.8005C67.8218 96.3723 69.8014 99.1246 72.5216 99.0945C74.199 99.0794 75.6497 98.0718 76.3751 96.6129C76.8587 95.6504 77.2516 93.5598 76.2391 92.8079C75.3626 92.1611 74.0781 92.1461 73.0354 92.0559C72.2798 91.9957 71.5242 92.0108 70.7837 92.101C70.1037 92.1912 69.3028 92.2815 68.6983 92.6274C68.3205 92.853 68.26 93.3794 68.1996 93.8005Z" fill="#CBD2E0"/>
<path d="M69.6804 95.4194C70.9951 94.8328 72.4458 94.5922 73.8815 94.7125C74.9997 94.8028 76.4203 95.4946 76.1029 96.8783C75.8762 97.8859 74.7277 98.6529 73.7908 98.9086C72.3401 99.3147 70.7533 98.8936 69.5897 97.9762C69.1666 97.6302 68.683 97.2242 68.5168 96.6827C68.3354 96.0962 68.9248 95.7804 69.3933 95.5548C69.4839 95.5096 69.5897 95.4645 69.6804 95.4194Z" fill="#EDF0F7"/>
<path d="M127.8 93.8005C128.178 96.3723 126.199 99.1246 123.478 99.0945C121.801 99.0794 120.35 98.0718 119.625 96.6129C119.141 95.6504 118.749 93.5598 119.761 92.8079C120.637 92.1611 121.922 92.1461 122.965 92.0559C123.72 91.9957 124.476 92.0108 125.216 92.101C125.896 92.1912 126.697 92.2815 127.302 92.6274C127.68 92.853 127.74 93.3794 127.8 93.8005Z" fill="#CBD2E0"/>
<path d="M126.319 95.4194C125.005 94.8328 123.554 94.5922 122.118 94.7125C121 94.8028 119.58 95.4946 119.897 96.8783C120.124 97.8859 121.272 98.6529 122.209 98.9086C123.66 99.3147 125.247 98.8936 126.41 97.9762C126.833 97.6302 127.317 97.2242 127.483 96.6827C127.664 96.0962 127.075 95.7804 126.607 95.5548C126.516 95.5096 126.425 95.4645 126.319 95.4194Z" fill="#EDF0F7"/>
<path d="M94.6299 127.892C94.0103 127.275 93.1036 127.005 92.2271 126.96C91.8644 126.945 89.6128 126.914 89.8848 127.531C89.9452 127.666 90.0661 127.757 90.187 127.832C91.26 128.479 92.5596 128.223 93.7232 128.599C94.4183 128.825 95.0681 129.216 95.5971 129.727C95.4762 128.779 94.9926 128.238 94.6299 127.892Z" fill="#6B1FE0" fill-opacity="0.3"/>
<path d="M92.8468 118.325C92.5597 120.762 91.6228 123.439 93.3606 125.56C92.7864 125.229 92.3633 124.657 92.1215 124.041C91.3357 122.146 92.0308 120.07 92.8468 118.325Z" fill="#6B1FE0" fill-opacity="0.3"/>
<path d="M59.7671 93.6202C61.1574 91.8606 63.1068 90.4919 65.2224 89.74C66.2954 89.364 67.4137 89.1835 68.5168 89.003C70.1791 88.7624 71.8716 88.5819 73.5642 88.6872C75.8309 88.8526 78.1128 89.4542 80.0169 90.7326C81.4374 91.665 82.6766 92.8231 83.8251 94.0413C81.9814 92.8381 80.2133 91.4695 78.2035 90.5972C77.2212 90.1611 76.1785 89.8152 75.1207 89.5595C72.9748 89.0932 70.7383 88.7925 68.5622 89.2286C67.2021 89.4993 65.9478 90.0558 64.6935 90.6273C63.9833 90.9582 63.1975 91.3492 62.5174 91.7703C61.5805 92.3268 60.6889 92.9735 59.8124 93.6653L59.7671 93.6202Z" fill="#6B1FE0" fill-opacity="0.3"/>
<path d="M88.6155 119.967C87.739 121.817 87.0741 123.802 87.3612 125.848C87.4821 126.615 87.6634 127.427 88.2075 127.983C88.4795 128.239 88.8724 128.389 89.2955 128.419C88.8875 128.555 88.4039 128.51 87.9808 128.269C87.195 127.758 86.8474 126.825 86.6661 125.968C86.2429 123.817 87.0892 121.501 88.6155 119.967Z" fill="#6B1FE0" fill-opacity="0.3"/>
<path d="M96.2922 130.267C97.4256 130.779 98.7252 130.734 99.8284 130.177C99.0124 131.216 97.1687 131.261 96.2922 130.267Z" fill="#6B1FE0" fill-opacity="0.3"/>
<path d="M81.6338 86.5173C76.9642 85.3442 72.476 83.5244 67.8669 82.1558C65.6153 81.494 63.2276 80.9075 60.9155 81.5391C58.5883 82.1708 56.6087 83.5996 54.7046 85.0284L54.1001 85.4796C54.7197 84.6073 55.3997 83.75 56.11 82.9529C56.654 82.3362 57.2282 81.7347 57.8176 81.1632C58.9812 79.99 60.1901 78.8169 61.6258 77.9747C63.1521 76.9671 64.6935 76.6061 66.522 76.8467C69.0003 77.1776 71.388 77.8544 73.7757 78.5462C75.1508 78.9673 77.1154 79.6141 78.4754 79.975C80.0622 80.3811 81.6791 80.6668 83.281 81.0729C84.097 81.2383 84.9735 81.6143 85.5024 82.3062C86.3184 83.2988 86.7567 84.4869 87.0287 85.7052C87.1043 86.1112 87.1043 86.5323 87.0136 86.9384C87.074 86.5323 87.0136 86.1263 86.9229 85.7352C86.5754 84.5922 86.0464 83.4342 85.2455 82.5618C84.6864 81.9452 83.9912 81.7046 83.1752 81.5843C82.3743 81.4339 81.5582 81.2835 80.7573 81.1481C79.1252 80.8774 77.4932 80.5164 75.9215 80.0201C74.5161 79.614 72.5818 79.0275 71.1915 78.6515C70.4057 78.441 69.6048 78.2304 68.819 78.0349C67.2776 77.6739 65.6606 77.2829 64.089 77.5987C63.3334 77.7491 62.608 78.095 61.9129 78.5011C60.4924 79.3133 59.2683 80.366 58.0745 81.4639C56.8656 82.5618 55.7019 83.735 54.7197 85.0284L54.5535 84.8629C55.037 84.502 55.5206 84.1561 56.0193 83.8101C58.5732 81.9903 61.1875 80.4713 64.4517 80.8323C65.6757 80.9376 66.8847 81.2233 68.0332 81.5692C72.6876 82.9378 77.0851 84.878 81.6338 86.5173Z" fill="#6B1FE0" fill-opacity="0.3"/>
<path d="M74.7012 95.7062C75.2139 94.4881 74.6374 93.087 73.4135 92.5767C72.1896 92.0664 70.7818 92.6401 70.269 93.8582C69.7563 95.0763 70.3328 96.4774 71.5567 96.9877C72.7806 97.498 74.1884 96.9243 74.7012 95.7062Z" fill="#6B1FE0" fill-opacity="0.3"/>
<path d="M72.4913 99.1554C70.2094 99.1855 68.0031 97.5612 67.8973 95.1549C67.8822 94.2525 68.0182 92.9891 68.7889 92.4176C69.3934 92.0416 70.149 92.0717 70.8139 92.0266C71.3579 91.9965 71.9019 91.9514 72.446 91.9364C73.6851 91.9063 74.9696 91.9664 76.1635 92.3575C77.0853 92.7335 77.1306 93.9066 77.176 94.7488C77.1911 97.3206 74.9999 99.1705 72.4913 99.1554ZM72.4913 99.0953C74.6372 99.1103 76.4204 97.1552 76.5564 95.1097C76.5866 94.433 76.5866 93.5456 76.1937 93.0042C75.8764 92.7184 75.2719 92.6432 74.8336 92.553C74.0327 92.3876 73.262 92.2823 72.446 92.2371C71.4033 92.2221 70.2397 92.1018 69.2423 92.4026C68.2298 92.7635 68.3053 94.2374 68.3658 95.1248C68.5925 97.1702 70.3303 99.1103 72.4913 99.0953Z" fill="#6B1FE0" fill-opacity="0.3"/>
<path d="M98 176.277C93.0585 176.397 89.4316 175.33 84.9736 173.389C76.7226 169.915 69.4841 164.335 63.4545 157.808C59.5254 153.507 55.9439 148.739 53.7225 143.31C52.5286 140.482 51.9393 137.384 51.3499 134.436C50.277 129.037 48.9018 123.698 47.4057 118.389C47.1337 117.306 46.9373 116.223 46.6955 115.14C46.5292 114.373 46.3328 113.471 46.227 112.689C45.9097 110.222 45.7283 107.726 45.6225 105.244C45.5016 101.936 45.5319 98.6117 45.547 95.303C45.6528 97.7394 45.8492 102.898 46.0306 105.229C46.1817 107.696 46.4386 110.177 46.8164 112.614C46.9977 113.682 47.1035 114.81 47.3151 115.877C47.6173 117.216 47.9649 118.539 48.4031 119.848C50.0201 124.555 51.5464 129.323 52.6042 134.196C53.4807 138.527 54.3723 142.738 56.3217 146.724C60.961 156.831 70.149 163.914 79.6392 169.284C81.5433 170.366 83.4927 171.419 85.4572 172.382C87.3915 173.299 89.4619 174.277 91.5322 174.848C93.6327 175.465 95.8239 175.781 98.0151 175.916L98 176.277Z" fill="#6B1FE0" fill-opacity="0.3"/>
<path d="M71.2974 94.0682C71.2974 94.3842 71.116 94.6401 70.5418 94.6401C69.9826 94.6401 69.5142 94.3842 69.5142 94.0682C69.5142 93.7521 69.9675 93.4962 70.5418 93.4962C71.116 93.4962 71.2974 93.7521 71.2974 94.0682Z" fill="white" fill-opacity="0.7"/>
<path d="M74.6826 96.2198C74.6826 96.4305 74.5769 96.5961 74.2746 96.5961C73.9573 96.5961 73.8062 96.4305 73.8062 96.2198C73.8062 96.0091 73.9573 95.8435 74.2746 95.8435C74.592 95.8435 74.6826 96.0091 74.6826 96.2198Z" fill="white" fill-opacity="0.7"/>
<path d="M97.9849 175.901C100.176 175.766 102.367 175.45 104.468 174.833C106.583 174.232 108.578 173.314 110.543 172.367C112.522 171.404 114.457 170.351 116.361 169.269C125.851 163.899 135.054 156.816 139.693 146.709C141.628 142.723 142.519 138.497 143.396 134.181C144.529 128.751 146.388 123.518 148.08 118.254C148.383 117.201 148.655 116.133 148.836 115.05C149.335 111.787 149.788 108.508 149.985 105.214C150.181 102.823 150.347 97.7094 150.468 95.288C150.468 97.4988 150.498 99.7097 150.468 101.921C150.423 105.515 150.257 109.11 149.788 112.689C149.607 114.058 149.244 115.411 148.972 116.765C148.64 118.389 148.186 120.013 147.718 121.593C146.509 125.834 145.557 130.135 144.665 134.436C144.212 136.587 143.819 138.783 143.139 140.934C142.806 141.986 142.414 143.069 141.96 144.092C137.245 154.56 126.924 164.666 117.026 170.412C115.091 171.524 113.082 172.517 111.026 173.389C107.944 174.728 104.725 175.871 101.355 176.157C100.237 176.262 99.1182 176.292 98 176.277L97.9849 175.901Z" fill="#6B1FE0" fill-opacity="0.3"/>
<path d="M114.381 86.5159C118.915 84.8766 123.327 82.9365 127.952 81.5378C129.115 81.1919 130.309 80.9061 131.533 80.8008C134.797 80.4399 137.427 81.9589 139.965 83.7787C140.464 84.1246 140.948 84.4856 141.431 84.8315L141.265 84.9969C140.283 83.7035 139.119 82.5304 137.91 81.4325C136.716 80.3196 135.492 79.2668 134.057 78.4697C133.362 78.0636 132.636 77.7177 131.881 77.5673C130.309 77.2515 128.707 77.6425 127.151 78.0034C126.35 78.199 125.564 78.4095 124.778 78.6201C123.403 78.981 121.438 79.5826 120.048 79.9887C118.476 80.485 116.829 80.846 115.212 81.1167C114.396 81.252 113.595 81.4024 112.794 81.5528C111.993 81.6731 111.283 81.9288 110.724 82.5304C109.923 83.4027 109.394 84.5608 109.047 85.7038C108.956 86.0948 108.896 86.5009 108.956 86.907C108.865 86.5009 108.865 86.0798 108.941 85.6737C109.213 84.4555 109.636 83.2674 110.467 82.2747C110.996 81.5979 111.873 81.2069 112.689 81.0415C114.29 80.6504 115.907 80.3496 117.494 79.9436C118.854 79.5826 120.834 78.9359 122.194 78.5148C124.582 77.823 126.969 77.1462 129.448 76.8153C131.276 76.5747 132.818 76.9507 134.344 77.9433C135.779 78.8006 136.988 79.9586 138.152 81.1317C138.741 81.7032 139.316 82.3048 139.86 82.9215C140.57 83.7186 141.265 84.5608 141.869 85.4481L141.265 84.9969C138.439 82.8463 135.296 80.7256 131.563 81.3423C130.4 81.4927 129.251 81.7935 128.103 82.1394C123.539 83.523 119.051 85.3428 114.381 86.5159Z" fill="#6B1FE0" fill-opacity="0.3"/>
<path d="M101.476 104.342C101.581 105.906 101.748 108.177 101.884 109.756C101.989 111.561 102.216 113.381 102.594 115.155C102.79 116.043 102.987 116.915 103.213 117.787C103.833 119.923 104.74 122.435 103.516 124.54C103.274 124.946 102.956 125.307 102.579 125.578L102.548 125.533C104.528 123.367 103.274 120.404 102.715 117.908C102.292 116.118 102.276 114.283 101.959 112.493C101.808 111.606 101.551 110.719 101.43 109.801C101.188 107.996 101.188 106.147 101.476 104.342Z" fill="#6B1FE0" fill-opacity="0.3"/>
<path d="M106.251 89.8577C103.939 92.1136 102.987 95.3321 102.216 98.3702C101.959 99.4079 101.733 100.446 101.506 101.498C101.536 101.228 101.551 100.972 101.581 100.701C102.05 96.9263 103.077 92.2791 106.251 89.8577Z" fill="#6B1FE0" fill-opacity="0.3"/>
<path d="M101.37 127.892C101.989 127.275 102.896 127.005 103.773 126.96C104.135 126.945 106.387 126.914 106.115 127.531C106.054 127.666 105.934 127.757 105.813 127.832C104.74 128.479 103.44 128.223 102.276 128.599C101.581 128.825 100.932 129.216 100.403 129.727C100.539 128.779 101.022 128.238 101.37 127.892Z" fill="#6B1FE0" fill-opacity="0.3"/>
<path d="M78.3699 141.473C82.4652 145.083 88.1774 143.082 93.0888 144.015C94.7813 144.331 96.4134 144.827 98.0001 144.782V145.865C97.0934 145.835 96.2169 145.669 95.3858 145.459C94.5546 145.248 93.7386 145.007 92.9376 144.812C91.3358 144.421 89.6584 144.346 87.9508 144.3C84.6413 144.21 80.8633 143.955 78.3699 141.473Z" fill="#6B1FE0" fill-opacity="0.3"/>
<path d="M81.8906 140.417C85.3361 139.755 88.4945 138.191 91.9249 137.394C92.62 137.259 93.3454 137.183 94.0858 137.259C94.917 137.349 95.6726 137.605 96.4282 137.875C96.6851 137.966 96.9571 138.086 97.1838 138.191C97.486 138.327 97.8033 138.447 98.03 138.447V139.169C97.35 139.124 96.9722 138.808 96.4433 138.582C93.8894 137.454 92.6351 137.605 90.0057 138.311C87.3006 139.033 84.641 139.996 81.8906 140.417Z" fill="#6B1FE0" fill-opacity="0.3"/>
<path d="M85.4573 150.632C87.6334 152.392 90.2628 153.444 93.0283 153.625C94.6755 153.745 96.3529 153.82 97.985 153.76V154.843C96.2773 154.768 94.615 154.572 92.9376 154.317C90.1419 153.911 87.4671 152.572 85.4573 150.632Z" fill="#6B1FE0" fill-opacity="0.3"/>
<path d="M110.513 150.632C108.503 152.557 105.828 153.896 103.032 154.302C101.355 154.557 99.6925 154.768 97.9849 154.828V153.745C99.6169 153.805 101.309 153.73 102.942 153.61C105.707 153.444 108.336 152.392 110.513 150.632Z" fill="#6B1FE0" fill-opacity="0.3"/>
<path d="M65.6458 91.7802C64.1648 92.2765 63.107 92.7277 61.6109 93.194C60.3264 93.6 58.9966 93.8106 57.6516 93.7955C58.9059 94.8934 61.1575 95.8109 61.4447 95.7958C61.6411 95.6154 61.9131 95.3597 62.2003 95.2093C64.7088 93.8707 67.2476 92.3818 70.0735 92.0509C73.2168 91.6749 78.2188 93.3143 81.0749 94.713C78.1432 92.3818 75.6951 91.8103 73.3528 91.3441C71.0407 90.8778 67.8974 91.0282 65.6458 91.7802Z" fill="#6B1FE0" fill-opacity="0.3"/>
<path d="M130.37 91.7802C131.851 92.2765 132.908 92.7277 134.404 93.194C135.689 93.6 137.019 93.8106 138.364 93.7955C137.109 94.8934 134.888 95.7808 134.616 95.7507C134.299 95.7357 134.102 95.3597 133.83 95.2093C131.322 93.8707 128.783 92.3818 125.957 92.0509C122.814 91.6749 117.812 93.3143 114.956 94.713C117.887 92.3818 120.335 91.8103 122.678 91.3441C124.975 90.8778 128.118 91.0282 130.37 91.7802Z" fill="#6B1FE0" fill-opacity="0.3"/>
<path d="M78.5363 140.884C78.2189 141.005 78.1585 141.396 78.3852 141.636C79.2768 142.584 81.3622 143.336 82.4653 143.441C80.7124 142.99 80.259 142.042 79.3977 141.26C79.171 141.065 78.8687 140.764 78.5514 140.869L78.5363 140.884Z" fill="#6B1FE0" fill-opacity="0.3"/>
<path d="M117.645 141.473C115.167 143.955 111.389 144.21 108.064 144.285C106.372 144.346 104.695 144.406 103.078 144.797C102.262 144.992 101.461 145.233 100.629 145.444C99.7983 145.654 98.9218 145.82 98.0151 145.85V144.767C99.6019 144.812 101.234 144.316 102.926 144C107.823 143.082 113.55 145.083 117.645 141.473Z" fill="#6B1FE0" fill-opacity="0.3"/>
<path d="M114.124 140.421C111.359 140 108.714 139.038 106.024 138.301C103.395 137.594 102.14 137.444 99.5865 138.571C99.0576 138.797 98.6798 139.113 97.9998 139.158V138.436C98.3927 138.451 98.9216 138.12 99.3296 137.97C102.035 136.902 103.41 137.098 106.13 137.955C108.805 138.812 111.374 139.88 114.124 140.421Z" fill="#6B1FE0" fill-opacity="0.3"/>
<path d="M117.479 140.884C117.796 141.005 117.857 141.396 117.63 141.636C116.739 142.584 114.653 143.336 113.55 143.441C115.303 142.99 115.756 142.042 116.618 141.26C116.844 141.065 117.147 140.764 117.464 140.869L117.479 140.884Z" fill="#6B1FE0" fill-opacity="0.3"/>
<path d="M45.5772 96.8492C44.3078 95.1046 42.6606 93.5856 40.6357 92.8185C39.8045 92.5328 38.6258 92.3974 37.976 93.014C37.3564 93.6758 37.568 94.9391 37.5226 95.8114C37.5529 97.9922 37.7342 100.188 38.1422 102.339C38.7618 105.587 39.8801 108.731 40.6206 111.949C40.8623 113.032 41.0739 114.115 41.2855 115.198C42.2829 120.371 43.5674 126.132 48.0556 129.425C48.6298 129.801 50.3223 131.065 50.821 130.328L50.9117 130.373C50.413 131.38 48.4334 130.252 47.7382 129.892C45.7435 128.764 44.2021 126.974 43.0838 125.004C41.3913 122.071 40.7566 118.642 40.2579 115.363C39.6383 110.987 38.8374 106.685 37.7795 102.399C37.2204 99.9925 36.6008 97.5109 36.5555 94.9993C36.4648 93.6908 36.767 92.247 38.2027 91.8109C41.225 91.0138 44.4741 94.3075 45.5772 96.8492Z" fill="#6B1FE0" fill-opacity="0.3"/>
<path d="M39.6381 104.204C39.1697 102.895 38.8825 101.526 38.671 100.158C38.5047 99.2404 38.3083 98.308 38.3839 97.3605C38.4141 97.0747 38.4141 96.8642 38.5652 96.5784C38.9581 95.9768 39.759 96.428 40.1519 96.7739C43.3254 99.842 45.97 103.903 46.0758 108.415L46.0002 108.43C45.5922 106.625 44.9575 104.91 44.1112 103.301C42.9174 101.12 41.5271 98.9848 39.7892 97.195C39.6079 97.0446 39.1697 96.6536 38.9732 96.8491C38.7465 97.4357 38.7768 98.1275 38.8221 98.7441C39.0185 100.564 39.1848 102.414 39.6381 104.204Z" fill="#6B1FE0" fill-opacity="0.3"/>
<path d="M41.7991 104.732C43.0231 105.92 44.0658 107.349 44.5645 108.988C45.0179 110.643 44.7761 112.387 44.7156 114.087C44.6854 114.764 44.5494 115.847 44.7308 116.478C44.9272 117.2 45.441 117.802 46.0153 118.358C47.1789 119.501 48.7354 120.719 48.947 122.464L48.8714 122.479C48.1762 120.9 46.7104 120.058 45.4712 118.915C42.0257 115.726 46.0153 113.621 43.9752 109.184C43.4009 107.635 42.5698 106.221 41.7991 104.732Z" fill="#6B1FE0" fill-opacity="0.3"/>
<path d="M150.453 96.7133C151.481 94.2919 154.095 91.6299 156.921 91.675C158.946 91.7803 159.49 93.3895 159.324 95.1492C159.263 97.6608 158.629 100.112 158.069 102.519C157.012 106.79 156.226 111.076 155.606 115.438C155.108 118.701 154.473 122.115 152.78 125.033C151.39 127.47 149.29 129.665 146.584 130.598C146.101 130.793 145.24 130.974 144.968 130.372L145.058 130.327C145.572 131.079 147.28 129.786 147.824 129.44C148.7 128.808 149.456 128.056 150.121 127.229C153.566 122.928 154.08 117.258 155.244 112.039C155.984 108.82 157.102 105.692 157.722 102.459C158.16 100.308 158.326 98.1271 158.357 95.9613C158.326 94.6228 158.689 92.7128 156.845 92.5924C155.848 92.5022 154.82 92.9233 153.959 93.4196C152.569 94.2318 151.42 95.3898 150.453 96.7133Z" fill="#6B1FE0" fill-opacity="0.3"/>
<path d="M156.241 104.206C156.679 102.506 156.86 100.701 157.027 98.9566C157.072 98.2498 157.147 97.4827 156.891 96.821C156.755 96.7007 156.528 96.836 156.347 96.9714C155.833 97.3474 155.455 97.8738 155.017 98.3701C154.443 99.0469 153.898 99.7387 153.37 100.431C151.768 102.536 150.589 104.852 150.075 107.484H150C149.985 105.694 150.453 103.89 151.299 102.265C152.221 100.446 153.642 98.9566 155.002 97.4827C155.47 96.9714 156.588 95.7381 157.284 96.5352C157.495 96.8962 157.465 97.2571 157.495 97.6331C157.525 98.5506 157.314 99.4229 157.163 100.31C156.981 101.634 156.679 102.942 156.241 104.206Z" fill="#6B1FE0" fill-opacity="0.3"/>
<path d="M154.08 104.732C153.324 106.221 152.478 107.635 151.889 109.184C149.848 113.621 153.838 115.726 150.392 118.915C149.153 120.058 147.687 120.9 146.992 122.479L146.917 122.464C147.128 120.719 148.685 119.501 149.848 118.358C150.423 117.802 150.936 117.2 151.133 116.478C151.329 115.847 151.178 114.749 151.148 114.087C151.088 112.402 150.861 110.643 151.299 108.988C151.813 107.334 152.856 105.92 154.08 104.732Z" fill="#6B1FE0" fill-opacity="0.3"/>
<path d="M107.46 119.967C108.986 121.501 109.833 123.817 109.394 125.968C109.213 126.825 108.865 127.758 108.08 128.269C107.672 128.51 107.173 128.555 106.765 128.419C107.203 128.389 107.581 128.239 107.853 127.983C108.412 127.427 108.578 126.615 108.699 125.848C109.001 123.802 108.321 121.817 107.46 119.967Z" fill="#6B1FE0" fill-opacity="0.3"/>
<path d="M65.555 159.34L65.0261 159.355C65.0563 163.822 65.1923 169.026 65.1167 173.463C65.0865 179.554 64.7994 185.66 64.1194 191.721C63.7416 194.714 63.3789 197.752 62.7442 200.715C62.049 203.633 60.8401 206.4 59.1476 208.896C56.0194 213.559 51.4557 217.123 46.5594 219.8C38.1875 224.192 28.7124 225.921 19.4338 227.26C15.6105 227.801 4.80555 229.591 0 230.93C0.891596 230.764 1.7983 230.614 2.70501 230.479C6.36207 229.892 10.2609 229.275 13.9331 228.794C21.4588 227.786 28.924 226.568 36.1928 224.387C43.4615 222.237 50.5338 218.928 56.1403 213.739C58.9511 211.137 61.3086 207.979 62.7895 204.43C64.3007 200.895 64.7238 197.045 65.2225 193.27C65.3132 192.563 65.4794 191.165 65.5399 190.443C66.6128 180.125 66.235 169.673 65.555 159.34Z" fill="#6B1FE0" fill-opacity="0.3"/>
<path d="M130.445 159.34L130.974 159.355C130.944 163.822 130.808 169.026 130.883 173.463C130.913 179.554 131.201 185.66 131.881 191.721C132.258 194.714 132.621 197.752 133.256 200.715C133.951 203.633 135.16 206.4 136.852 208.896C139.98 213.559 144.544 217.123 149.44 219.8C157.812 224.192 167.288 225.921 176.566 227.26C180.389 227.801 191.194 229.591 196 230.93C195.108 230.764 194.202 230.614 193.295 230.479C189.638 229.892 185.739 229.275 182.067 228.794C174.541 227.786 167.076 226.568 159.807 224.387C152.538 222.237 145.466 218.928 139.86 213.739C137.049 211.137 134.691 207.979 133.21 204.43C131.699 200.895 131.276 197.045 130.777 193.27C130.687 192.563 130.521 191.165 130.46 190.443C129.402 180.125 129.765 169.673 130.445 159.34Z" fill="#6B1FE0" fill-opacity="0.3"/>
<path d="M106.553 246.001C108.73 242.482 112.22 239.955 116.285 239.128C115.364 239.549 114.442 239.971 113.565 240.437C112.719 240.888 111.797 241.444 111.011 242.001C109.379 243.144 107.974 244.573 106.553 246.001Z" fill="#6B1FE0" fill-opacity="0.3"/>
<path d="M120.683 237.805C122.965 237.083 125.352 236.677 127.74 236.421C132.515 235.94 137.336 236.09 142.111 236.015L149.289 235.82L163.646 235.519C168.361 235.278 173.408 234.526 177.866 236.526L177.02 236.241C176.173 235.985 175.282 235.789 174.405 235.684C170.839 235.218 167.257 235.85 163.691 236.075C158.221 236.346 151.224 236.481 145.738 236.617C137.381 236.993 128.889 235.85 120.683 237.805Z" fill="#6B1FE0" fill-opacity="0.3"/>
<path d="M89.8698 246.001C86.515 242.527 84.5203 241.083 80.0774 239.128C84.1727 239.955 87.6786 242.482 89.8698 246.001Z" fill="#6B1FE0" fill-opacity="0.3"/>
<path d="M75.6649 237.805C67.4139 235.85 58.8757 236.978 50.4887 236.632C44.9577 236.496 37.9308 236.361 32.4301 236.09C28.8335 235.85 25.2368 235.218 21.6554 235.699C20.7638 235.804 19.8722 236.015 19.0108 236.256L18.1494 236.541C22.6376 234.541 27.7152 235.293 32.4603 235.534L46.9072 235.835L54.1306 236.03C58.9361 236.12 63.787 235.955 68.5926 236.436C70.95 236.692 73.3528 237.098 75.6649 237.805Z" fill="#6B1FE0" fill-opacity="0.3"/>
<path d="M81.0596 6.41888C67.7764 4.71939 60.2658 10.6451 52.4228 20.5262C46.8012 27.6851 43.4464 36.333 41.5574 45.1463C38.1573 60.6372 38.5955 76.6997 40.6507 92.3561C40.6507 92.3861 40.6356 92.4162 40.6054 92.4162C39.5173 88.0547 38.9582 83.4224 38.4746 78.8955C37.1901 65.3296 38.1421 51.3276 42.7059 38.3934C45.4865 30.6329 49.3098 23.1581 54.5082 16.7211C57.9386 12.4949 62.2152 8.70492 67.4439 6.90015C70.7232 5.74209 74.2442 5.41122 77.6897 5.74209C78.8382 5.86241 79.9565 6.04289 81.0748 6.28352C81.105 6.28352 81.1201 6.3136 81.1201 6.34368C81.105 6.40384 81.0899 6.41888 81.0596 6.41888Z" fill="#6B1FE0" fill-opacity="0.3"/>
<path d="M81.3772 25.545C79.8962 30.2825 76.1485 33.9672 72.159 36.7646C70.2096 38.1182 67.973 39.4417 65.9481 40.69C60.7647 43.8784 55.9894 47.7737 52.015 52.3759C48.0708 56.963 44.9729 62.3623 43.8546 68.3481L43.7791 68.3331C44.0057 65.8966 44.6253 63.4903 45.5471 61.2042C48.3428 54.3311 53.7075 48.7814 59.6918 44.5402C62.6688 42.4346 65.8876 40.5396 68.8495 38.434C71.8114 36.3134 74.7733 34.1628 77.2819 31.5158C78.9442 29.7561 80.3194 27.7408 81.3167 25.5149L81.3772 25.545Z" fill="#6B1FE0" fill-opacity="0.3"/>
<path d="M91.2146 33.788C94.7356 35.8935 98.9216 36.059 102.911 36.0138C109.999 36.1492 117.237 36.8711 123.871 39.5332C128.405 41.8042 132.696 44.6767 136.233 48.3164C148.005 60.1978 147.098 78.5312 153.777 92.819C152.75 91.0744 151.919 89.2245 151.193 87.3445C149.063 81.6746 147.793 75.7489 146.342 69.8834C144.907 64.078 143.411 58.0772 139.89 53.1291C135.81 47.3989 129.84 43.263 123.569 40.1799C120.804 39.0669 117.826 38.4052 114.895 37.8337C109.953 36.8862 104.906 36.6305 99.8585 36.4199C96.8362 36.2094 93.7383 35.5175 91.2146 33.788Z" fill="#6B1FE0" fill-opacity="0.3"/>
<path d="M80.0621 30.5548C79.639 35.5179 76.6619 40.2103 72.4155 42.8724C70.2999 44.2109 67.9878 45.1735 65.6908 46.1059C63.4089 47.0534 61.1421 48.016 59.0869 49.3846C60.0238 48.5724 61.0666 47.8957 62.1546 47.279C65.6303 45.2938 69.5141 44.0756 72.7782 41.7594C76.541 39.1275 79.11 35.0367 80.0621 30.5548Z" fill="#6B1FE0" fill-opacity="0.3"/>
<path d="M56.5333 54.288C54.9314 56.1228 52.6495 58.7097 51.1384 60.5746C49.6121 62.4094 47.5115 65.1918 46.0608 67.1169C48.3578 62.3342 52.3171 57.4914 56.5333 54.288Z" fill="#6B1FE0" fill-opacity="0.3"/>
<path d="M55.0069 60.3489C54.75 64.6202 51.3197 67.8988 48.6449 70.9519C46.6501 73.2379 44.8065 75.9 44.4438 78.9681C44.338 79.9758 44.4287 81.0135 44.7762 82.0061C44.2927 81.0737 44.0811 80.0058 44.0962 78.938C44.202 75.7045 46.0607 72.8469 48.116 70.4706C50.8059 67.4025 54.1456 64.4999 55.0069 60.3489Z" fill="#6B1FE0" fill-opacity="0.3"/>
<path d="M51.6521 72.4106C51.1383 77.9152 45.5016 81.0435 44.1265 86.2322C44.5194 80.7126 50.1863 77.5392 51.6521 72.4106Z" fill="#6B1FE0" fill-opacity="0.3"/>
<path d="M47.2547 84.2021C46.8164 86.5634 45.2448 88.7441 43.1292 89.9022C44.9275 88.3381 46.3329 86.398 47.2547 84.2021Z" fill="#6B1FE0" fill-opacity="0.3"/>
<path d="M47.7381 86.6245C47.1488 88.7902 45.3505 90.6251 43.2046 91.2718C45.1087 90.1589 46.6803 88.5646 47.7381 86.6245Z" fill="#6B1FE0" fill-opacity="0.3"/>
<path d="M47.0732 90.0679C46.8767 91.2259 45.834 92.2186 44.6704 92.369C45.6225 91.7373 46.4083 90.9853 47.0732 90.0679Z" fill="#6B1FE0" fill-opacity="0.3"/>
<path d="M81.0294 6.32564C85.835 2.65594 91.8192 0.655652 97.8186 0.114221C100.841 -0.171535 103.909 0.114221 106.901 0.580453C117.313 2.24987 127.604 6.03989 135.946 12.5671C139.482 15.4097 142.414 18.959 144.831 22.7641C148.836 29.141 151.571 36.1495 154.05 43.2031C154.548 44.6169 154.956 46.0757 155.274 47.5496C156.543 53.4452 156.77 59.4611 156.815 65.462C156.86 71.4478 156.634 77.4186 156.241 83.3894C156.135 84.8783 156.029 86.3672 155.908 87.8562C155.787 89.3451 155.667 90.8341 155.485 92.323C155.485 92.3531 155.455 92.3681 155.425 92.3681C155.395 92.3681 155.379 92.338 155.379 92.3079C155.561 89.3301 155.651 86.3372 155.727 83.3593C156.029 72.9668 156.165 62.454 155.138 52.0916C154.835 49.1438 154.352 46.2111 153.475 43.3686C153.037 41.9398 152.599 40.511 152.115 39.1123C148.368 27.9679 142.081 16.9136 131.714 10.7473C122.95 5.3631 112.522 2.12955 102.307 1.00157C96.3981 0.550374 90.3685 1.6934 84.9887 4.20504C83.6438 4.83671 82.3441 5.57365 81.105 6.41588C81.0747 6.43092 81.0445 6.43092 81.0294 6.40084C80.9992 6.37076 81.0143 6.34068 81.0294 6.32564Z" fill="#6B1FE0" fill-opacity="0.3"/>
<path d="M80.0624 15.5001C79.4881 19.5458 75.9671 23.0802 72.8691 25.5316C75.7253 22.5688 78.8987 19.5609 80.0624 15.5001Z" fill="#6B1FE0" fill-opacity="0.3"/>
<path d="M80.0623 24.1035C79.352 26.3294 77.8106 28.435 75.6194 29.3674C77.5386 27.9988 78.8835 26.1038 80.0623 24.1035Z" fill="#6B1FE0" fill-opacity="0.3"/>
<path d="M79.8356 10.25C79.9565 12.5812 79.2765 15.0928 77.5537 16.7321C78.8533 14.792 79.4578 12.536 79.8356 10.25Z" fill="#6B1FE0" fill-opacity="0.3"/>
<path d="M81.7849 18.2478C85.6233 27.3168 93.421 32.3852 103.334 31.8287C110.648 31.4677 118.355 29.4675 125.382 32.4604C138.137 37.619 142.096 52.1173 145.073 64.2243C141.522 52.5234 137.532 38.2958 125.05 33.2876C118.129 30.3999 110.588 32.3701 103.365 32.6258C93.285 33.0469 85.2455 27.6777 81.7849 18.2478Z" fill="#6B1FE0" fill-opacity="0.3"/>
<path d="M81.3467 13.4832C82.9939 16.4911 84.4446 19.8299 87.3763 21.8152C88.3283 22.4619 89.371 23.0033 90.4138 23.5147C88.7515 22.9432 87.1194 22.1761 85.8047 20.988C83.6286 18.9727 82.4196 16.1903 81.3467 13.4832Z" fill="#6B1FE0" fill-opacity="0.3"/>
<path d="M146.116 73.7469C146.509 76.6647 146.977 80.7404 147.446 83.613C147.929 86.3954 148.534 89.4184 150.816 91.2983C151.148 91.539 151.496 91.7495 151.874 91.9451C151.073 91.7345 150.287 91.3134 149.713 90.6667C149.425 90.3358 149.184 90.0049 148.942 89.659C147.778 87.8693 147.506 85.7186 147.174 83.6732C146.72 80.3644 146.418 77.0557 146.116 73.7469Z" fill="#6B1FE0" fill-opacity="0.3"/>
<path d="M147.416 89.4373C147.99 91.3924 148.776 93.6183 150.77 94.4906C151.042 94.5959 151.329 94.6711 151.617 94.5207C151.511 94.641 151.36 94.7162 151.193 94.7463C148.76 94.8365 147.718 91.3623 147.416 89.4373Z" fill="#6B1FE0" fill-opacity="0.3"/>
<path d="M81.8606 27.9523C82.6011 31.3362 85.2607 33.908 88.1018 35.6977C94.1163 39.4426 101.43 38.0439 108.125 37.5928C111.555 37.3672 115.091 37.4123 118.386 38.4951C111.616 36.7205 104.679 38.8862 97.8338 38.7508C93.8896 38.7057 89.9605 37.7582 86.8022 35.3067C84.4447 33.4869 82.2988 30.9903 81.8606 27.9523Z" fill="#6B1FE0" fill-opacity="0.3"/>
<path d="M93.1191 24.2687C99.1941 26.6901 105.858 25.893 112.19 25.3515C118.567 24.8552 125.322 24.3138 131.352 26.8555C138.953 30.1191 143.668 37.4285 147.416 44.437C149.29 47.8811 150.332 52.1374 153.823 54.3632C154.503 54.7844 155.244 55.1152 155.999 55.3559L155.984 55.401C155.198 55.2055 154.428 54.9197 153.717 54.5136C150.06 52.4382 148.867 48.1067 146.932 44.6776C142.504 36.481 136.535 27.4421 126.667 25.6223C120.275 24.374 113.807 25.8479 107.4 26.2088C102.609 26.5246 97.5469 26.3742 93.1191 24.2687Z" fill="#6B1FE0" fill-opacity="0.3"/>
<path d="M131.956 34.9641C137.547 37.957 141.068 43.612 143.532 49.2519C144.801 52.0794 145.98 54.967 147.023 57.8847C148.05 60.8024 148.881 63.8254 149.743 66.7882C150.332 68.7434 150.967 70.7136 151.979 72.4883C152.75 73.8118 153.747 74.9999 155.032 75.8572C155.455 76.143 155.908 76.3836 156.377 76.6092L156.362 76.6694C153.249 75.6918 151.299 72.8342 150.166 69.9466C149.38 68.0215 148.866 66.0062 148.322 63.9908C147.506 60.9979 146.66 58.0351 145.662 55.1023C144.363 51.192 142.534 47.4471 140.268 44.003C138.061 40.5138 135.402 37.2652 131.956 34.9641Z" fill="#6B1FE0" fill-opacity="0.3"/>
<path d="M61.3843 95.7193C65.404 91.4781 71.3732 90.681 76.7832 92.4858C77.8259 92.8467 78.8233 93.313 79.7753 93.8544C80.6065 94.3357 81.6643 95.1478 82.4501 95.7193C82.843 95.99 83.3568 96.4112 83.7346 96.6969C84.1577 97.0278 84.5204 97.479 84.6867 97.9903C84.4751 97.509 84.0671 97.103 83.6288 96.8172C83.2208 96.5465 82.6768 96.2006 82.2688 95.9449C81.347 95.3884 80.4402 94.7869 79.5033 94.3206C77.6143 93.3581 75.544 92.7715 73.4435 92.5911C70.3002 92.3655 67.157 93.0874 64.2706 94.3056C63.3035 94.7417 62.3665 95.238 61.4296 95.7945L61.3843 95.7193Z" fill="#6B1FE0" fill-opacity="0.3"/>
<path d="M82.1022 97.3335C82.1929 96.9275 82.5102 96.386 82.752 96.1304C82.4347 95.7093 81.6942 95.4235 81.3013 95.1829C81.5582 95.5137 81.7395 95.7844 81.8906 96.1755C81.9813 96.4161 82.1022 96.8974 82.1022 97.3335Z" fill="#6B1FE0" fill-opacity="0.3"/>
<path d="M61.6714 96.2339C67.4894 100.25 74.7733 100.355 81.4678 98.911C82.435 98.7305 83.4777 99.0914 84.3995 98.6553C83.5079 99.1516 82.4501 98.8658 81.498 99.0764C80.5309 99.2268 79.594 99.5276 78.6117 99.7081C76.6623 100.069 74.6675 100.189 72.6879 100.159C70.6931 100.144 68.6832 99.9186 66.7791 99.2719C64.8902 98.6252 63.0919 97.6326 61.6562 96.279L61.6714 96.2339Z" fill="#6B1FE0" fill-opacity="0.3"/>
<path d="M136.187 93.6653C134.676 92.4622 133.059 91.4244 131.306 90.6273C130.067 90.0558 128.798 89.4993 127.438 89.2286C125.262 88.8075 123.025 89.0932 120.879 89.5595C119.821 89.8001 118.779 90.1611 117.796 90.5972C115.771 91.4695 114.018 92.8381 112.175 94.0413C113.323 92.8231 114.562 91.65 115.983 90.7326C117.887 89.4542 120.169 88.8526 122.436 88.6872C124.128 88.5819 125.821 88.7624 127.483 89.003C128.586 89.1684 129.704 89.364 130.777 89.74C131.85 90.1009 132.863 90.6574 133.785 91.3041C134.706 91.9658 135.553 92.7178 136.233 93.6202L136.187 93.6653Z" fill="#6B1FE0" fill-opacity="0.3"/>
<path d="M123.745 97.1532C125.066 97.0227 126.03 95.8514 125.899 94.5372C125.767 93.223 124.591 92.2634 123.27 92.394C121.95 92.5245 120.985 93.6958 121.117 95.01C121.248 96.3242 122.425 97.2837 123.745 97.1532Z" fill="#6B1FE0" fill-opacity="0.3"/>
<path d="M123.509 99.0911C125.685 99.1061 127.408 97.166 127.634 95.1055C127.695 94.2182 127.77 92.7443 126.758 92.3833C125.76 92.0825 124.597 92.1878 123.554 92.2179C122.738 92.263 121.967 92.3683 121.166 92.5337C120.728 92.624 120.124 92.6992 119.806 92.9849C119.413 93.5414 119.413 94.4137 119.444 95.0905C119.58 97.1509 121.363 99.1061 123.509 99.0911ZM123.509 99.1512C121 99.1813 118.809 97.3164 118.839 94.7295C118.869 93.8873 118.915 92.7142 119.852 92.3382C121.045 91.9472 122.33 91.9021 123.569 91.9171C124.113 91.9321 124.657 91.9772 125.201 92.0073C125.866 92.0675 126.622 92.0374 127.226 92.3984C127.982 92.9849 128.133 94.2483 128.118 95.1356C127.997 97.542 125.791 99.1663 123.509 99.1512Z" fill="#6B1FE0" fill-opacity="0.3"/>
<path d="M134.555 95.8159C132.727 94.7029 130.808 93.8306 128.752 93.2892C126.727 92.7628 124.642 92.4319 122.542 92.6124C120.441 92.8079 118.386 93.3945 116.482 94.342C115.53 94.8082 114.638 95.4248 113.716 95.9663C113.308 96.2069 112.749 96.5679 112.356 96.8386C111.918 97.1243 111.51 97.5304 111.298 98.0117C111.465 97.5003 111.842 97.0491 112.25 96.7183C112.628 96.4175 113.157 96.0114 113.535 95.7407C114.336 95.1842 115.379 94.3721 116.21 93.8758C118.114 92.7628 120.245 92.0409 122.436 91.7551C124.642 91.4694 126.924 91.5446 129.055 92.2515C131.17 92.9583 133.135 94.1314 134.616 95.7407L134.555 95.8159Z" fill="#6B1FE0" fill-opacity="0.3"/>
<path d="M113.898 97.3335C113.807 96.9275 113.49 96.386 113.248 96.1304C113.565 95.7093 114.306 95.4235 114.699 95.1829C114.442 95.5137 114.26 95.7844 114.109 96.1755C114.018 96.4161 113.898 96.8974 113.898 97.3335Z" fill="#6B1FE0" fill-opacity="0.3"/>
<path d="M134.359 96.279C131.442 99.0313 127.287 100.189 123.327 100.174C121.348 100.204 119.353 100.084 117.404 99.7231C116.421 99.5426 115.484 99.2418 114.517 99.0914C113.565 98.8809 112.492 99.1666 111.616 98.6703C112.538 99.1065 113.565 98.7606 114.547 98.926C115.545 99.0463 116.497 99.317 117.464 99.4524C119.398 99.7532 121.378 99.8284 123.342 99.7381C125.307 99.663 127.226 99.317 129.085 98.7606C130.944 98.2041 132.727 97.3468 134.344 96.2339L134.359 96.279Z" fill="#6B1FE0" fill-opacity="0.3"/>
<path d="M122.36 94.0682C122.36 94.3842 122.179 94.6401 121.605 94.6401C121.046 94.6401 120.577 94.3842 120.577 94.0682C120.577 93.7521 121.031 93.4962 121.605 93.4962C122.179 93.4962 122.36 93.7521 122.36 94.0682Z" fill="white" fill-opacity="0.7"/>
<path d="M125.745 96.2198C125.745 96.4305 125.64 96.5961 125.337 96.5961C125.02 96.5961 124.869 96.4305 124.869 96.2198C124.869 96.0091 125.02 95.8435 125.337 95.8435C125.64 95.8435 125.745 96.0091 125.745 96.2198Z" fill="white" fill-opacity="0.7"/>
<path d="M62.0339 95.2579C62.6989 96.1603 63.5754 96.8672 64.5878 97.3785C66.2501 98.296 68.0333 98.9427 69.8921 99.3337C68.0182 99.0329 66.1746 98.4313 64.4821 97.5891C63.4393 97.1078 62.4722 96.3859 61.7468 95.4835C61.7619 95.4835 62.0339 95.2579 62.0339 95.2579Z" fill="#6B1FE0" fill-opacity="0.3"/>
<path d="M134.253 95.4835C133.528 96.3859 132.576 97.0928 131.518 97.5891C129.811 98.4464 127.982 99.0329 126.108 99.3337C127.967 98.9577 129.765 98.296 131.412 97.3785C132.41 96.8672 133.286 96.1603 133.966 95.2579C133.981 95.2579 134.253 95.4835 134.253 95.4835Z" fill="#6B1FE0" fill-opacity="0.3"/>
<path d="M93.9046 113.754C94.086 112.987 94.4486 111.077 94.5393 110.145C94.7207 108.4 94.766 107.528 94.4789 105.723C94.3731 107.287 94.2975 108.175 94.1615 109.754C94.0557 111.559 93.8291 113.378 93.4513 115.153C93.421 115.273 93.3908 115.409 93.3606 115.529C93.5873 114.943 93.7686 114.356 93.9046 113.754Z" fill="#6B1FE0" fill-opacity="0.3"/>
</svg>
