<svg width="196" height="272" viewBox="0 0 196 272" fill="none" xmlns="http://www.w3.org/2000/svg">
<rect y="134" width="196" height="138" rx="8" fill="white" fill-opacity="0.6"/>
<mask id="mask0_554_2991" style="mask-type:alpha" maskUnits="userSpaceOnUse" x="0" y="134" width="196" height="138">
<rect y="134" width="196" height="138" rx="8" fill="white" fill-opacity="0.6"/>
</mask>
<g mask="url(#mask0_554_2991)">
<path d="M186.056 241.472C187.356 239.66 188.384 237.682 189.049 235.507C189.472 234.148 189.729 232.653 189.23 231.324C187.915 227.761 179.573 228.591 176.581 228.168C167.303 226.824 157.828 225.088 149.456 220.678C144.544 217.99 139.996 214.396 136.868 209.73C135.19 207.223 133.981 204.445 133.286 201.515C132.742 199.009 132.425 196.441 132.077 193.889C130.657 182.73 130.853 171.329 131.019 160.094C135.613 155.412 139.527 150.097 141.975 144.676C142.429 143.664 142.822 142.577 143.154 141.504C143.834 139.345 144.227 137.14 144.68 134.981C144.937 133.743 145.194 132.519 145.466 131.281C145.829 131.372 146.297 131.251 146.615 131.13C149.32 130.194 151.42 127.989 152.81 125.543C154.503 122.613 155.138 119.185 155.636 115.908C156.256 111.529 157.042 107.225 158.1 102.937C158.659 100.521 159.278 98.0591 159.354 95.5372C159.505 93.7553 158.976 92.1546 156.951 92.0489C156.483 92.0489 156.029 92.1093 155.591 92.2301C155.742 90.8862 155.863 89.5573 155.969 88.2133C156.09 86.7183 156.196 85.2233 156.301 83.7283C156.694 77.7333 156.906 71.7382 156.876 65.7281C156.83 59.7028 156.604 53.6625 155.334 47.7429C155.002 46.263 154.609 44.7982 154.11 43.3787C151.647 36.2964 148.897 29.2443 144.892 22.8566C142.474 19.0361 139.557 15.4723 136.006 12.6182C127.604 6.06444 117.328 2.25901 106.901 0.582813C103.909 0.114685 100.841 -0.172232 97.8187 0.114685C91.8193 0.658317 85.8501 2.66674 81.0446 6.33625C79.9414 6.09464 78.808 5.91343 77.6746 5.79262C74.2291 5.4453 70.7081 5.77752 67.4288 6.95539C62.2002 8.7675 57.9235 12.5729 54.4931 16.8163C49.2796 23.2795 45.4714 30.7846 42.6908 38.5767C38.1271 51.5483 37.175 65.6073 38.4595 79.2434C38.9129 83.6075 39.4569 88.0623 40.4694 92.2906C39.7138 92.0489 38.9431 92.0036 38.1875 92.1999C36.7519 92.6379 36.4497 94.1027 36.5403 95.4013C36.5857 97.9232 37.2052 100.415 37.7644 102.831C38.8222 107.135 39.6382 111.454 40.2427 115.848C40.7414 119.125 41.361 122.583 43.0686 125.528C44.1869 127.506 45.7283 129.303 47.7231 130.435C48.2973 130.737 49.7934 131.583 50.549 131.251C50.821 132.489 51.093 133.743 51.3348 134.981C51.9393 137.941 52.5286 141.051 53.7073 143.89C55.9288 149.342 59.5103 154.129 63.4393 158.448C63.9531 159.006 64.4669 159.55 65.011 160.094C65.0412 164.548 65.1772 169.743 65.1016 174.168C65.0714 180.283 64.7843 186.414 64.1042 192.5C63.7265 195.505 63.3638 198.556 62.7291 201.53C62.0339 204.46 60.825 207.239 59.1325 209.745C56.0043 214.427 51.4406 218.006 46.5443 220.693C38.1724 225.103 28.5311 227.202 19.2524 228.546C14.3109 229.256 10.7747 229.875 4.9869 230.887C2.23655 235.085 3.76285 242.967 6.84565 246.425C11.2583 251.378 18.0435 253.342 24.4509 255.063C36.0568 258.189 47.6777 261.315 59.2836 264.441C79.8205 269.968 101.748 275.495 122.013 269.062C130.052 266.51 137.427 262.176 145.421 259.427C153.627 256.603 162.376 255.516 170.506 252.466C176.506 250.216 182.369 246.576 186.056 241.472Z" fill="#C09DFE" fill-opacity="0.3"/>
<path d="M143.093 86.5975C142.081 92.3661 143.35 98.6632 143.683 104.568C144.03 110.714 141.718 116.014 139.361 121.526C138.726 123.021 138.076 124.546 137.94 126.177C137.819 127.747 138.182 129.303 138.363 130.873C139.451 140.191 135.492 149.568 129.357 156.409C126.697 159.369 124.037 162.344 121.106 165.032C117.585 168.278 110.135 173.579 104.619 175.587C111.132 174.107 121.302 167.357 126.486 163.129C131.155 159.323 135.946 155.397 138.923 150.157C140.827 146.805 141.9 143.06 142.942 139.36C143.169 138.575 144.68 131.311 144.997 131.236C149.561 130.164 152.977 125.467 152.584 120.801C152.432 118.929 151.737 117.147 151.45 115.289C151.118 113.1 151.36 110.819 152.145 108.751C152.568 107.648 153.143 106.531 152.977 105.368C152.795 104.099 151.798 103.118 151.299 101.94C150.846 100.823 150.861 99.5843 150.891 98.3913C151.163 86.1596 151.103 74.4413 147.491 62.5871C145.693 56.6827 141.431 51.8353 137.366 47.3654C132.001 41.461 125.367 38.9995 117.539 37.8368C111.706 36.9609 105.465 35.5565 99.5865 35.4659C92.8467 35.3602 86.5148 31.7209 81.3013 27.7343C82.9485 28.8819 83.4925 31.8719 84.7316 33.5028C86.6055 35.9642 88.8421 38.2747 91.7889 39.3921C93.6325 40.1019 95.6273 40.2982 97.5767 40.4643C106.296 41.2194 115.529 41.1892 123.796 44.4207C140.464 50.9141 145.98 70.2735 143.093 86.5975Z" fill="#AA88E8" fill-opacity="0.3"/>
<path d="M52.6949 86.3257C52.8309 88.1378 52.9669 89.9348 52.7856 91.8376C52.2869 97.5155 51.1082 103.224 51.9998 108.841C52.6345 112.873 54.3119 116.648 55.6417 120.514C56.7449 123.7 57.6516 127.068 57.5005 130.481C57.3493 133.607 57.3493 136.627 57.9992 139.738C59.2988 145.838 62.3816 151.516 66.5373 156.137C69.197 159.097 71.8567 162.072 74.7884 164.76C78.3094 168.006 85.7595 173.307 91.2753 175.315C84.7621 173.835 74.7581 168.037 69.5899 163.824C64.9204 160.018 59.9637 155.141 56.9867 149.9C55.0372 146.473 53.7527 142.516 52.8611 138.696C52.5287 137.276 52.6798 135.872 52.3625 134.467C51.894 132.414 50.9419 130.375 50.3375 128.352C49.0076 123.897 47.9347 119.366 47.3 114.761C46.7409 110.729 46.0155 106.576 45.9853 102.499C45.9702 99.7957 45.5621 97.1984 46.3026 94.5406C47.0733 91.7922 48.8867 89.3157 49.0227 86.4616C49.0983 84.9968 48.7205 83.5019 49.0379 82.0673C49.2948 80.98 49.9295 80.0136 50.277 78.9565C50.8211 77.2803 50.6699 75.3021 51.8033 73.943C51.7429 74.0185 52.2416 75.4078 52.2869 75.6645C52.4229 76.4497 52.4531 77.2803 52.4833 78.0806C52.5438 79.787 52.4531 81.4783 52.5136 83.1847C52.5287 84.2418 52.6042 85.2838 52.6949 86.3257Z" fill="white" fill-opacity="0.3"/>
<path d="M116.119 142.441C116.013 142.154 115.167 142.078 114.91 141.988C112.568 141.112 110.21 140.266 107.853 139.451C105.783 138.741 103.591 137.593 101.355 138.228C100.418 138.499 99.5717 139.058 98.6046 139.209C98.3779 139.239 98.1815 139.254 97.9699 139.239C97.7734 139.254 97.5619 139.239 97.3352 139.209C96.368 139.058 95.5218 138.484 94.5849 138.228C92.3483 137.578 90.1571 138.741 88.0868 139.451C85.7142 140.266 83.3719 141.112 81.0296 141.988C80.7727 142.078 79.9113 142.154 79.8206 142.441C79.6846 142.833 80.546 143.528 80.7727 143.77C81.5736 144.645 82.0421 145.733 82.6314 146.729C83.1906 147.681 83.8857 148.617 84.5808 149.478C85.276 150.338 85.9862 151.199 86.8929 151.849C87.5428 152.317 88.2832 152.664 89.0237 152.981C91.7892 154.129 94.8871 154.944 97.9699 155.05C101.053 154.944 104.166 154.144 106.916 152.981C107.657 152.664 108.397 152.317 109.047 151.849C109.938 151.199 110.664 150.338 111.359 149.478C112.039 148.617 112.749 147.681 113.308 146.729C113.898 145.733 114.366 144.63 115.167 143.77C115.394 143.528 116.255 142.833 116.119 142.441Z" fill="#DCAACD" fill-opacity="0.5"/>
<path d="M88.0262 146.503C87.8297 146.563 87.6182 146.654 87.4822 146.82C87.2706 147.077 87.2857 147.469 87.4368 147.771C87.603 148.073 87.8751 148.285 88.1622 148.451C89.0084 148.964 89.9756 149.206 90.9276 149.447C92.197 149.749 95.3554 149.372 93.6629 147.515C92.4237 146.14 89.6583 145.974 88.0262 146.503Z" fill="white" fill-opacity="0.3"/>
<path d="M102.851 147.182C102.488 147.107 102.095 147.062 101.718 147.107C101.249 147.167 100.645 147.273 100.312 147.62C99.8134 148.134 100.282 148.738 100.871 148.813C101.355 148.874 101.854 148.783 102.307 148.587C102.654 148.436 103.259 148.164 103.41 147.786C103.546 147.454 103.108 147.243 102.851 147.182Z" fill="white" fill-opacity="0.3"/>
<path d="M109.878 127.642C109.742 127.128 109.485 126.645 109.289 126.132C109.168 125.814 109.092 125.512 109.047 125.195C109.243 124.002 108.941 122.734 108.14 121.767C108.261 122.462 108.2 123.021 107.808 123.625C106.78 125.241 105.556 123.715 105.072 122.568C104.468 121.103 104.196 119.608 103.486 118.204C102.972 117.177 102.579 116.074 102.337 114.957C102.7 116.633 102.715 118.596 102.67 120.303C102.639 121.707 102.473 123.232 101.974 124.576C101.718 125.256 101.536 125.814 100.947 126.298C100.886 126.358 100.403 126.63 99.9645 126.826C99.6472 126.872 99.3298 126.917 98.9974 126.932C97.9547 126.977 96.8968 127.007 95.8692 126.856C94.9625 126.721 94.1012 126.298 93.1642 126.283C91.6077 126.252 90.1268 127.053 88.7365 125.935C87.9355 125.301 87.3915 124.108 87.1951 123.126C87.6635 125.512 86.3941 128.367 89.7338 129.424C90.293 129.605 90.9126 129.635 91.4415 129.907C92.1215 130.239 92.5446 130.858 92.998 131.432C93.4967 132.051 94.1465 132.549 94.8416 132.927C95.6879 133.38 96.6097 133.682 97.5315 133.969C98.1813 134.165 98.8463 134.346 99.5263 134.286C100.796 134.15 101.808 133.199 103.032 132.897C104.498 132.519 106.009 132.187 107.4 131.553C108.896 130.873 110.392 129.499 109.878 127.642Z" fill="#AA88E8" fill-opacity="0.3"/>
<path d="M65.3739 160.426C65.2983 162.042 65.0716 164.246 65.0868 165.334C65.1321 168.278 65.1623 171.223 65.117 174.168C65.0867 180.283 64.7996 186.414 64.1196 192.5C63.7418 195.505 63.3791 198.556 62.7444 201.53C62.0493 204.46 60.8403 207.239 59.1478 209.745C56.0197 214.427 51.4559 218.005 46.5597 220.693C38.1878 225.103 28.7127 226.84 19.434 228.183C13.8426 228.984 8.41751 230.388 2.81104 231.173C18.9202 229.467 26.2948 228.244 31.9012 227.277C47.7082 224.559 62.1248 216.042 65.2681 207.223C67.7313 200.292 68.5322 193.935 68.6229 186.641C68.7287 178.955 68.8496 171.027 68.5625 163.34C68.0033 162.812 66.1597 161.045 65.3739 160.426Z" fill="white" fill-opacity="0.3"/>
<path d="M93.2095 154.974C92.333 155.171 91.4565 155.443 90.6254 155.775C90.2022 155.941 89.0235 156.364 88.9933 156.907C88.9782 157.3 90.2174 157.194 90.5045 157.194C93.4664 157.27 96.4434 157.3 99.4053 157.285C100.176 157.285 107.581 157.33 107.49 156.726C107.309 155.609 103.878 154.989 103.017 154.854C99.7529 154.385 96.383 154.265 93.2095 154.974Z" fill="#AA88E8" fill-opacity="0.1"/>
<path d="M94.2672 136.868C94.9019 136.748 95.5668 136.657 96.1562 136.914C96.534 137.095 96.8362 137.397 97.1989 137.593C97.9243 137.986 98.8159 137.91 99.6017 137.699C100.403 137.488 101.173 137.155 101.989 137.095C103.501 136.974 104.936 137.774 106.221 138.59C104.634 138.303 103.002 138.016 101.415 138.333C100.176 138.59 98.9972 139.209 97.7278 139.224C96.1864 139.239 94.781 138.348 93.2547 138.107C91.2449 137.79 89.2501 138.635 87.3914 139.451C89.6732 138.439 91.7738 137.367 94.2672 136.868Z" fill="white" fill-opacity="0.3"/>
<path d="M76.1634 142.894C76.1029 143.317 76.3901 143.709 76.7074 143.996C77.463 144.706 78.4453 145.159 79.4729 145.295C79.896 145.34 80.3796 145.325 80.6818 145.008C80.9992 144.676 80.984 144.132 80.7725 143.724C80.5609 143.317 80.1831 143.03 79.8204 142.758C79.0044 142.154 76.4354 140.946 76.1634 142.894Z" fill="white" fill-opacity="0.3"/>
<path d="M119.625 142.894C119.685 143.317 119.398 143.709 119.081 143.996C118.325 144.706 117.343 145.159 116.315 145.295C115.892 145.34 115.409 145.325 115.107 145.008C114.789 144.676 114.804 144.132 115.016 143.724C115.227 143.317 115.605 143.03 115.968 142.758C116.784 142.154 119.353 140.946 119.625 142.894Z" fill="white" fill-opacity="0.3"/>
<path d="M159.535 225.163C156.226 224.152 152.931 222.777 149.864 221.207C140.963 216.646 134.57 209.398 132.5 199.613C132.213 198.284 131.745 195.747 131.382 194.448C130.188 187.305 130.415 171.797 130.536 167.931C130.581 166.602 130.672 161.891 130.793 159.927C129.977 160.758 128.843 161.921 127.861 162.54C126.319 163.522 124.944 164.714 123.433 165.741C121.907 166.768 120.32 167.735 118.748 168.701C117.403 169.517 116.104 170.423 114.759 171.208C110.709 173.594 106.387 175.723 101.717 176.312C91.8948 177.58 83.0695 172.914 74.758 167.538C73.7455 166.874 72.8841 166.27 71.7659 165.756C72.5517 166.119 73.5793 168.173 74.1384 168.882C74.9696 169.909 75.9821 170.876 76.6923 171.993C78.1128 174.183 80.0471 175.965 81.8606 177.867C84.626 180.752 87.4519 183.666 90.7614 185.931C94.1162 188.227 97.9546 189.601 101.959 190.356C103.319 190.613 104.694 190.779 106.085 190.733C110.467 190.552 114.608 188.045 118.99 188.393C120.441 188.498 122.133 189.057 123.433 189.706C126.727 191.383 127.755 195.49 127.982 198.888C127.982 198.888 127.997 198.873 128.027 198.843C128.36 205.14 131.216 211.799 135.749 215.846C137.351 217.281 139.21 218.368 141.099 219.38C149.713 223.955 159.308 226.658 169.04 227.277C165.776 226.975 162.633 226.1 159.535 225.163Z" fill="#AA88E8" fill-opacity="0.3"/>
<path d="M98 176.991C93.0585 177.112 89.4316 176.04 84.9736 174.092C76.7226 170.604 69.4841 165.001 63.4545 158.448C59.5254 154.129 55.9439 149.342 53.7225 143.89C52.5286 141.051 51.9393 137.941 51.3499 134.981C50.277 129.56 48.9018 124.199 47.4057 118.868C47.1337 117.781 46.9373 116.694 46.6955 115.606C46.5292 114.836 46.3328 113.93 46.227 113.145C45.9097 110.668 45.7283 108.162 45.6225 105.67C45.5016 102.348 45.5319 99.0104 45.547 95.6882C45.6528 98.1346 45.8492 103.314 46.0306 105.655C46.1817 108.131 46.4386 110.623 46.8164 113.069C46.9977 114.142 47.1035 115.274 47.3151 116.346C47.6173 117.69 47.9649 119.019 48.4031 120.333C50.0201 125.059 51.5464 129.846 52.6042 134.739C53.4807 139.088 54.3723 143.316 56.3217 147.318C60.961 157.466 70.149 164.579 79.6392 169.97C81.5433 171.057 83.4927 172.114 85.4572 173.08C87.3915 174.001 89.4619 174.983 91.5322 175.557C93.6327 176.176 95.8239 176.493 98.0151 176.629L98 176.991Z" fill="#6B1FE0" fill-opacity="0.3"/>
<path d="M97.9849 176.614C100.176 176.478 102.367 176.161 104.468 175.542C106.583 174.938 108.578 174.017 110.543 173.065C112.522 172.099 114.457 171.042 116.361 169.955C125.851 164.564 135.054 157.451 139.693 147.303C141.628 143.301 142.519 139.058 143.396 134.724C144.529 129.273 146.388 124.018 148.08 118.732C148.383 117.675 148.655 116.603 148.836 115.516C149.335 112.239 149.788 108.947 149.985 105.64C150.181 103.239 150.347 98.1045 150.468 95.6732C150.468 97.893 150.498 100.113 150.468 102.333C150.423 105.942 150.257 109.551 149.788 113.145C149.607 114.519 149.244 115.878 148.972 117.237C148.64 118.868 148.186 120.499 147.718 122.085C146.509 126.343 145.557 130.662 144.665 134.981C144.212 137.14 143.819 139.345 143.139 141.504C142.806 142.561 142.414 143.649 141.96 144.676C137.245 155.186 126.924 165.334 117.026 171.102C115.091 172.22 113.082 173.216 111.026 174.092C107.944 175.436 104.725 176.584 101.355 176.871C100.237 176.976 99.1182 177.007 98 176.992L97.9849 176.614Z" fill="#6B1FE0" fill-opacity="0.3"/>
<path d="M78.3699 142.048C82.4652 145.672 88.1774 143.664 93.0888 144.6C94.7813 144.917 96.4134 145.415 98.0001 145.37V146.457C97.0934 146.427 96.2169 146.261 95.3858 146.05C94.5546 145.838 93.7386 145.597 92.9376 145.4C91.3358 145.008 89.6584 144.932 87.9508 144.887C84.6413 144.796 80.8633 144.54 78.3699 142.048Z" fill="#6B1FE0" fill-opacity="0.3"/>
<path d="M81.8906 140.991C85.3361 140.326 88.4945 138.756 91.9249 137.956C92.62 137.82 93.3454 137.744 94.0858 137.82C94.917 137.91 95.6726 138.167 96.4282 138.439C96.6851 138.529 96.9571 138.65 97.1838 138.756C97.486 138.892 97.8033 139.013 98.03 139.013V139.738C97.35 139.692 96.9722 139.375 96.4433 139.149C93.8894 138.016 92.6351 138.167 90.0057 138.877C87.3006 139.602 84.641 140.568 81.8906 140.991Z" fill="#6B1FE0" fill-opacity="0.3"/>
<path d="M85.4573 151.244C87.6334 153.011 90.2628 154.068 93.0283 154.249C94.6755 154.37 96.3529 154.446 97.985 154.385V155.473C96.2773 155.397 94.615 155.201 92.9376 154.944C90.1419 154.536 87.4671 153.192 85.4573 151.244Z" fill="#6B1FE0" fill-opacity="0.3"/>
<path d="M110.513 151.244C108.503 153.177 105.828 154.521 103.032 154.929C101.355 155.186 99.6925 155.397 97.9849 155.458V154.37C99.6169 154.431 101.309 154.355 102.942 154.234C105.707 154.068 108.336 153.011 110.513 151.244Z" fill="#6B1FE0" fill-opacity="0.3"/>
<path d="M78.5363 141.459C78.2189 141.58 78.1585 141.972 78.3852 142.214C79.2768 143.165 81.3622 143.92 82.4653 144.026C80.7124 143.573 80.259 142.622 79.3977 141.837C79.171 141.64 78.8687 141.338 78.5514 141.444L78.5363 141.459Z" fill="#6B1FE0" fill-opacity="0.3"/>
<path d="M117.645 142.048C115.167 144.54 111.389 144.796 108.064 144.872C106.372 144.932 104.695 144.993 103.078 145.385C102.262 145.582 101.461 145.823 100.629 146.035C99.7983 146.246 98.9218 146.412 98.0151 146.442V145.355C99.6019 145.4 101.234 144.902 102.926 144.585C107.823 143.664 113.55 145.672 117.645 142.048Z" fill="#6B1FE0" fill-opacity="0.3"/>
<path d="M114.124 140.991C111.359 140.568 108.714 139.602 106.024 138.862C103.395 138.152 102.14 138.001 99.5865 139.133C99.0576 139.36 98.6798 139.677 97.9998 139.722V138.998C98.3927 139.013 98.9216 138.68 99.3296 138.529C102.035 137.457 103.41 137.654 106.13 138.514C108.805 139.375 111.374 140.447 114.124 140.991Z" fill="#6B1FE0" fill-opacity="0.3"/>
<path d="M117.479 141.459C117.796 141.58 117.857 141.972 117.63 142.214C116.739 143.165 114.653 143.92 113.55 144.026C115.303 143.573 115.756 142.622 116.618 141.837C116.844 141.64 117.147 141.338 117.464 141.444L117.479 141.459Z" fill="#6B1FE0" fill-opacity="0.3"/>
<path d="M65.555 159.988L65.0261 160.003C65.0563 164.488 65.1923 169.713 65.1167 174.168C65.0865 180.283 64.7994 186.414 64.1194 192.5C63.7416 195.505 63.3789 198.555 62.7442 201.53C62.049 204.46 60.8401 207.238 59.1476 209.745C56.0194 214.427 51.4557 218.005 46.5594 220.693C38.1875 225.103 28.7124 226.839 19.4338 228.183C15.6105 228.727 4.80555 230.524 0 231.868C0.891596 231.702 1.7983 231.551 2.70501 231.415C6.36207 230.826 10.2609 230.207 13.9331 229.724C21.4587 228.712 28.924 227.489 36.1928 225.299C43.4615 223.14 50.5338 219.818 56.1403 214.608C58.9511 211.995 61.3086 208.824 62.7895 205.26C64.3007 201.712 64.7238 197.846 65.2225 194.055C65.3132 193.346 65.4794 191.941 65.5399 191.216C66.6128 180.857 66.235 170.362 65.555 159.988Z" fill="#6B1FE0" fill-opacity="0.3"/>
<path d="M130.445 159.988L130.974 160.003C130.944 164.488 130.808 169.713 130.883 174.168C130.913 180.283 131.201 186.414 131.881 192.5C132.258 195.505 132.621 198.555 133.256 201.53C133.951 204.46 135.16 207.238 136.852 209.745C139.98 214.427 144.544 218.005 149.44 220.693C157.812 225.103 167.288 226.839 176.566 228.183C180.389 228.727 191.194 230.524 196 231.868C195.108 231.702 194.202 231.551 193.295 231.415C189.638 230.826 185.739 230.207 182.067 229.724C174.541 228.712 167.076 227.489 159.807 225.299C152.538 223.14 145.466 219.818 139.86 214.608C137.049 211.995 134.691 208.824 133.21 205.26C131.699 201.712 131.276 197.846 130.777 194.055C130.687 193.346 130.521 191.941 130.46 191.216C129.402 180.857 129.765 170.362 130.445 159.988Z" fill="#6B1FE0" fill-opacity="0.3"/>
<path d="M106.553 246.999C108.73 243.466 112.22 240.929 116.285 240.098C115.364 240.521 114.442 240.944 113.565 241.412C112.719 241.865 111.797 242.424 111.011 242.982C109.379 244.13 107.974 245.565 106.553 246.999Z" fill="#6B1FE0" fill-opacity="0.3"/>
<path d="M120.683 238.769C122.965 238.044 125.352 237.637 127.74 237.38C132.515 236.897 137.336 237.048 142.111 236.972L149.289 236.776L163.646 236.474C168.361 236.232 173.408 235.477 177.866 237.486L177.02 237.199C176.173 236.942 175.282 236.746 174.405 236.64C170.839 236.172 167.257 236.806 163.691 237.033C158.221 237.304 151.224 237.44 145.738 237.576C137.381 237.954 128.889 236.806 120.683 238.769Z" fill="#6B1FE0" fill-opacity="0.3"/>
<path d="M89.8698 246.999C86.515 243.511 84.5203 242.061 80.0774 240.098C84.1727 240.929 87.6786 243.466 89.8698 246.999Z" fill="#6B1FE0" fill-opacity="0.3"/>
<path d="M75.6649 238.769C67.4139 236.806 58.8757 237.939 50.4887 237.591C44.9577 237.455 37.9308 237.32 32.4301 237.048C28.8335 236.806 25.2368 236.172 21.6554 236.655C20.7638 236.761 19.8722 236.972 19.0108 237.214L18.1494 237.501C22.6376 235.492 27.7152 236.247 32.4603 236.489L46.9072 236.791L54.1306 236.987C58.9361 237.078 63.787 236.912 68.5926 237.395C70.95 237.652 73.3528 238.06 75.6649 238.769Z" fill="#6B1FE0" fill-opacity="0.3"/>
</g>
<path d="M68.1996 94.1781C67.8218 96.7603 69.8014 99.5238 72.5216 99.4936C74.199 99.4785 75.6497 98.4667 76.3751 97.002C76.8587 96.0355 77.2516 93.9365 76.2391 93.1814C75.3626 92.5321 74.0781 92.517 73.0354 92.4264C72.2798 92.366 71.5242 92.3811 70.7837 92.4717C70.1037 92.5623 69.3028 92.6529 68.6983 93.0002C68.3205 93.2267 68.26 93.7553 68.1996 94.1781Z" fill="#CBD2E0"/>
<path d="M69.6804 95.809C70.9951 95.2201 72.4458 94.9784 73.8815 95.0992C74.9997 95.1898 76.4203 95.8845 76.1029 97.2738C75.8762 98.2855 74.7277 99.0557 73.7908 99.3124C72.3401 99.7201 70.7533 99.2973 69.5897 98.3761C69.1666 98.0288 68.683 97.6211 68.5168 97.0775C68.3354 96.4885 68.9248 96.1714 69.3933 95.9449C69.4839 95.8996 69.5897 95.8543 69.6804 95.809Z" fill="#EDF0F7"/>
<path d="M127.8 94.1781C128.178 96.7603 126.199 99.5238 123.478 99.4936C121.801 99.4785 120.35 98.4667 119.625 97.002C119.141 96.0355 118.749 93.9365 119.761 93.1814C120.637 92.5321 121.922 92.517 122.965 92.4264C123.72 92.366 124.476 92.3811 125.216 92.4717C125.896 92.5623 126.697 92.6529 127.302 93.0002C127.68 93.2267 127.74 93.7553 127.8 94.1781Z" fill="#CBD2E0"/>
<path d="M126.319 95.809C125.005 95.2201 123.554 94.9784 122.118 95.0992C121 95.1898 119.58 95.8845 119.897 97.2738C120.124 98.2855 121.272 99.0557 122.209 99.3124C123.66 99.7201 125.247 99.2973 126.41 98.3761C126.833 98.0288 127.317 97.6211 127.483 97.0775C127.664 96.4885 127.075 96.1714 126.607 95.9449C126.516 95.8996 126.425 95.8543 126.319 95.809Z" fill="#EDF0F7"/>
<path d="M94.6299 128.412C94.0103 127.793 93.1036 127.521 92.2271 127.476C91.8644 127.461 89.6128 127.43 89.8848 128.049C89.9452 128.185 90.0661 128.276 90.187 128.351C91.26 129.001 92.5596 128.744 93.7232 129.122C94.4183 129.348 95.0681 129.741 95.5971 130.254C95.4762 129.303 94.9926 128.759 94.6299 128.412Z" fill="#6B1FE0" fill-opacity="0.3"/>
<path d="M92.8468 118.808C92.5597 121.254 91.6228 123.942 93.3606 126.071C92.7864 125.739 92.3633 125.165 92.1215 124.546C91.3357 122.643 92.0308 120.559 92.8468 118.808Z" fill="#6B1FE0" fill-opacity="0.3"/>
<path d="M59.7671 93.997C61.1574 92.2302 63.1068 90.856 65.2224 90.1009C66.2954 89.7234 67.4137 89.5422 68.5168 89.361C70.1791 89.1194 71.8716 88.9382 73.5642 89.0439C75.8309 89.21 78.1128 89.814 80.0169 91.0976C81.4374 92.0338 82.6766 93.1966 83.8251 94.4198C81.9814 93.2117 80.2133 91.8375 78.2035 90.9617C77.2212 90.5238 76.1785 90.1764 75.1207 89.9197C72.9748 89.4516 70.7383 89.1496 68.5622 89.5875C67.2021 89.8593 65.9478 90.418 64.6935 90.9919C63.9833 91.3241 63.1975 91.7167 62.5174 92.1396C61.5805 92.6983 60.6889 93.3476 59.8124 94.0423L59.7671 93.997Z" fill="#6B1FE0" fill-opacity="0.3"/>
<path d="M88.6155 120.454C87.739 122.311 87.0741 124.304 87.3612 126.358C87.4821 127.128 87.6634 127.944 88.2075 128.502C88.4795 128.759 88.8724 128.91 89.2955 128.94C88.8875 129.076 88.4039 129.031 87.9808 128.789C87.195 128.276 86.8474 127.34 86.6661 126.479C86.2429 124.319 87.0892 121.994 88.6155 120.454Z" fill="#6B1FE0" fill-opacity="0.3"/>
<path d="M96.2922 130.798C97.4256 131.312 98.7252 131.266 99.8284 130.707C99.0124 131.75 97.1687 131.795 96.2922 130.798Z" fill="#6B1FE0" fill-opacity="0.3"/>
<path d="M81.6338 86.8693C76.9642 85.6914 72.476 83.8642 67.8669 82.49C65.6153 81.8256 63.2276 81.2367 60.9155 81.8709C58.5883 82.5051 56.6087 83.9397 54.7046 85.3743L54.1001 85.8273C54.7197 84.9515 55.3997 84.0907 56.11 83.2904C56.654 82.6712 57.2282 82.0672 57.8176 81.4934C58.9812 80.3155 60.1901 79.1376 61.6258 78.292C63.1521 77.2802 64.6935 76.9178 66.522 77.1594C69.0003 77.4916 71.388 78.1712 73.7757 78.8658C75.1508 79.2886 77.1154 79.938 78.4754 80.3004C80.0622 80.7081 81.6791 80.995 83.281 81.4028C84.097 81.5689 84.9735 81.9464 85.5024 82.641C86.3184 83.6377 86.7567 84.8307 87.0287 86.0538C87.1043 86.4616 87.1043 86.8844 87.0136 87.2921C87.074 86.8844 87.0136 86.4767 86.9229 86.084C86.5754 84.9364 86.0464 83.7736 85.2455 82.8977C84.6864 82.2786 83.9912 82.037 83.1752 81.9162C82.3743 81.7652 81.5582 81.6142 80.7573 81.4783C79.1252 81.2064 77.4932 80.844 75.9215 80.3457C74.5161 79.938 72.5818 79.349 71.1915 78.9715C70.4057 78.7601 69.6048 78.5487 68.819 78.3524C67.2776 77.99 65.6606 77.5973 64.089 77.9145C63.3334 78.0655 62.608 78.4128 61.9129 78.8205C60.4924 79.636 59.2683 80.693 58.0745 81.7954C56.8656 82.8977 55.7019 84.0756 54.7197 85.3743L54.5535 85.2082C55.037 84.8458 55.5206 84.4984 56.0193 84.1511C58.5732 82.3239 61.1875 80.7987 64.4517 81.1611C65.6757 81.2669 66.8847 81.5538 68.0332 81.9011C72.6876 83.2753 77.0851 85.2233 81.6338 86.8693Z" fill="#6B1FE0" fill-opacity="0.3"/>
<path d="M74.7012 96.0945C75.2139 94.8715 74.6374 93.4647 73.4135 92.9523C72.1896 92.4399 70.7818 93.016 70.269 94.239C69.7563 95.462 70.3328 96.8689 71.5567 97.3813C72.7806 97.8936 74.1884 97.3176 74.7012 96.0945Z" fill="#6B1FE0" fill-opacity="0.3"/>
<path d="M72.4913 99.5542C70.2094 99.5844 68.0031 97.9535 67.8973 95.5374C67.8822 94.6313 68.0182 93.3628 68.7889 92.789C69.3934 92.4115 70.149 92.4417 70.8139 92.3964C71.3579 92.3662 71.9019 92.3209 72.446 92.3058C73.6851 92.2756 74.9696 92.336 76.1635 92.7286C77.0853 93.1061 77.1306 94.284 77.176 95.1296C77.1911 97.7119 74.9999 99.5693 72.4913 99.5542ZM72.4913 99.4938C74.6372 99.5089 76.4204 97.5458 76.5564 95.4921C76.5866 94.8125 76.5866 93.9216 76.1937 93.3779C75.8764 93.091 75.2719 93.0155 74.8336 92.9249C74.0327 92.7588 73.262 92.6531 72.446 92.6078C71.4033 92.5927 70.2397 92.4719 69.2423 92.7739C68.2298 93.1363 68.3053 94.6162 68.3658 95.5072C68.5925 97.5609 70.3303 99.5089 72.4913 99.4938Z" fill="#6B1FE0" fill-opacity="0.3"/>
<path d="M98 176.991C93.0585 177.112 89.4316 176.04 84.9736 174.092C76.7226 170.604 69.4841 165.001 63.4545 158.448C59.5254 154.129 55.9439 149.342 53.7225 143.89C52.5286 141.051 51.9393 137.941 51.3499 134.981C50.277 129.56 48.9018 124.199 47.4057 118.868C47.1337 117.781 46.9373 116.694 46.6955 115.606C46.5292 114.836 46.3328 113.93 46.227 113.145C45.9097 110.668 45.7283 108.162 45.6225 105.67C45.5016 102.348 45.5319 99.0104 45.547 95.6882C45.6528 98.1346 45.8492 103.314 46.0306 105.655C46.1817 108.131 46.4386 110.623 46.8164 113.069C46.9977 114.142 47.1035 115.274 47.3151 116.346C47.6173 117.69 47.9649 119.019 48.4031 120.333C50.0201 125.059 51.5464 129.846 52.6042 134.739C53.4807 139.088 54.3723 143.316 56.3217 147.318C60.961 157.466 70.149 164.579 79.6392 169.97C81.5433 171.057 83.4927 172.114 85.4572 173.08C87.3915 174.001 89.4619 174.983 91.5322 175.557C93.6327 176.176 95.8239 176.493 98.0151 176.629L98 176.991Z" fill="#6B1FE0" fill-opacity="0.3"/>
<path d="M71.2974 94.4504C71.2974 94.7677 71.116 95.0246 70.5418 95.0246C69.9826 95.0246 69.5142 94.7677 69.5142 94.4504C69.5142 94.133 69.9675 93.8761 70.5418 93.8761C71.116 93.8761 71.2974 94.133 71.2974 94.4504Z" fill="white" fill-opacity="0.7"/>
<path d="M74.6826 96.6097C74.6826 96.8213 74.5769 96.9875 74.2746 96.9875C73.9573 96.9875 73.8062 96.8213 73.8062 96.6097C73.8062 96.3982 73.9573 96.2319 74.2746 96.2319C74.592 96.2319 74.6826 96.3982 74.6826 96.6097Z" fill="white" fill-opacity="0.7"/>
<path d="M97.9849 176.614C100.176 176.478 102.367 176.161 104.468 175.542C106.583 174.938 108.578 174.017 110.543 173.065C112.522 172.099 114.457 171.042 116.361 169.955C125.851 164.564 135.054 157.451 139.693 147.303C141.628 143.301 142.519 139.058 143.396 134.724C144.529 129.273 146.388 124.018 148.08 118.732C148.383 117.675 148.655 116.603 148.836 115.516C149.335 112.239 149.788 108.947 149.985 105.64C150.181 103.239 150.347 98.1045 150.468 95.6732C150.468 97.893 150.498 100.113 150.468 102.333C150.423 105.942 150.257 109.551 149.788 113.145C149.607 114.519 149.244 115.878 148.972 117.237C148.64 118.868 148.186 120.499 147.718 122.085C146.509 126.343 145.557 130.662 144.665 134.981C144.212 137.14 143.819 139.345 143.139 141.504C142.806 142.561 142.414 143.649 141.96 144.676C137.245 155.186 126.924 165.334 117.026 171.102C115.091 172.22 113.082 173.216 111.026 174.092C107.944 175.436 104.725 176.584 101.355 176.871C100.237 176.976 99.1182 177.007 98 176.992L97.9849 176.614Z" fill="#6B1FE0" fill-opacity="0.3"/>
<path d="M114.381 86.8694C118.915 85.2234 123.327 83.2754 127.952 81.871C129.115 81.5237 130.309 81.2368 131.533 81.131C134.797 80.7686 137.427 82.2938 139.965 84.121C140.464 84.4683 140.948 84.8308 141.431 85.1781L141.265 85.3442C140.283 84.0455 139.119 82.8677 137.91 81.7653C136.716 80.6478 135.492 79.5908 134.057 78.7904C133.362 78.3827 132.636 78.0354 131.881 77.8844C130.309 77.5672 128.707 77.9599 127.151 78.3223C126.35 78.5186 125.564 78.73 124.778 78.9414C123.403 79.3038 121.438 79.9079 120.048 80.3156C118.476 80.8139 116.829 81.1764 115.212 81.4482C114.396 81.5841 113.595 81.7351 112.794 81.8861C111.993 82.0069 111.283 82.2636 110.724 82.8677C109.923 83.7435 109.394 84.9063 109.047 86.0539C108.956 86.4466 108.896 86.8543 108.956 87.262C108.865 86.8543 108.865 86.4315 108.941 86.0237C109.213 84.8006 109.636 83.6076 110.467 82.6109C110.996 81.9314 111.873 81.5388 112.689 81.3727C114.29 80.98 115.907 80.678 117.494 80.2703C118.854 79.9079 120.834 79.2585 122.194 78.8357C124.582 78.1411 126.969 77.4615 129.448 77.1293C131.276 76.8877 132.818 77.2652 134.344 78.2619C135.779 79.1226 136.988 80.2854 138.152 81.4633C138.741 82.0371 139.316 82.6411 139.86 83.2603C140.57 84.0606 141.265 84.9063 141.869 85.7972L141.265 85.3442C138.439 83.1848 135.296 81.0555 131.563 81.6747C130.4 81.8257 129.251 82.1277 128.103 82.475C123.539 83.8643 119.051 85.6915 114.381 86.8694Z" fill="#6B1FE0" fill-opacity="0.3"/>
<path d="M101.476 104.764C101.581 106.334 101.748 108.615 101.884 110.2C101.989 112.012 102.216 113.84 102.594 115.621C102.79 116.512 102.987 117.388 103.213 118.264C103.833 120.408 104.74 122.93 103.516 125.044C103.274 125.452 102.956 125.815 102.579 126.086L102.548 126.041C104.528 123.867 103.274 120.892 102.715 118.385C102.292 116.588 102.276 114.746 101.959 112.949C101.808 112.058 101.551 111.167 101.43 110.246C101.188 108.433 101.188 106.576 101.476 104.764Z" fill="#6B1FE0" fill-opacity="0.3"/>
<path d="M106.251 90.2218C103.939 92.4869 102.987 95.7185 102.216 98.7689C101.959 99.8109 101.733 100.853 101.506 101.91C101.536 101.638 101.551 101.381 101.581 101.11C102.05 97.3192 103.077 92.653 106.251 90.2218Z" fill="#6B1FE0" fill-opacity="0.3"/>
<path d="M101.37 128.412C101.989 127.793 102.896 127.521 103.773 127.476C104.135 127.461 106.387 127.43 106.115 128.049C106.054 128.185 105.934 128.276 105.813 128.351C104.74 129.001 103.44 128.744 102.276 129.122C101.581 129.348 100.932 129.741 100.403 130.254C100.539 129.303 101.022 128.759 101.37 128.412Z" fill="#6B1FE0" fill-opacity="0.3"/>
<path d="M78.3699 142.048C82.4652 145.672 88.1774 143.664 93.0888 144.6C94.7813 144.917 96.4134 145.415 98.0001 145.37V146.457C97.0934 146.427 96.2169 146.261 95.3858 146.05C94.5546 145.838 93.7386 145.597 92.9376 145.4C91.3358 145.008 89.6584 144.932 87.9508 144.887C84.6413 144.796 80.8633 144.54 78.3699 142.048Z" fill="#6B1FE0" fill-opacity="0.3"/>
<path d="M81.8906 140.991C85.3361 140.326 88.4945 138.756 91.9249 137.956C92.62 137.82 93.3454 137.744 94.0858 137.82C94.917 137.91 95.6726 138.167 96.4282 138.439C96.6851 138.529 96.9571 138.65 97.1838 138.756C97.486 138.892 97.8033 139.013 98.03 139.013V139.738C97.35 139.692 96.9722 139.375 96.4433 139.149C93.8894 138.016 92.6351 138.167 90.0057 138.877C87.3006 139.602 84.641 140.568 81.8906 140.991Z" fill="#6B1FE0" fill-opacity="0.3"/>
<path d="M85.4573 151.244C87.6334 153.011 90.2628 154.068 93.0283 154.249C94.6755 154.37 96.3529 154.446 97.985 154.385V155.473C96.2773 155.397 94.615 155.201 92.9376 154.944C90.1419 154.536 87.4671 153.192 85.4573 151.244Z" fill="#6B1FE0" fill-opacity="0.3"/>
<path d="M110.513 151.244C108.503 153.177 105.828 154.521 103.032 154.929C101.355 155.186 99.6925 155.397 97.9849 155.458V154.37C99.6169 154.431 101.309 154.355 102.942 154.234C105.707 154.068 108.336 153.011 110.513 151.244Z" fill="#6B1FE0" fill-opacity="0.3"/>
<path d="M65.6458 92.1546C64.1648 92.653 63.107 93.106 61.6109 93.5741C60.3264 93.9819 58.9966 94.1933 57.6516 94.1782C58.9059 95.2805 61.1575 96.2017 61.4447 96.1866C61.6411 96.0054 61.9131 95.7487 62.2003 95.5976C64.7088 94.2537 67.2476 92.7587 70.0735 92.4265C73.2168 92.0489 78.2188 93.6949 81.0749 95.0993C78.1432 92.7587 75.6951 92.1849 73.3528 91.7167C71.0407 91.2486 67.8974 91.3996 65.6458 92.1546Z" fill="#6B1FE0" fill-opacity="0.3"/>
<path d="M130.37 92.1546C131.851 92.653 132.908 93.106 134.404 93.5741C135.689 93.9819 137.019 94.1933 138.364 94.1782C137.109 95.2805 134.888 96.1715 134.616 96.1413C134.299 96.1262 134.102 95.7487 133.83 95.5976C131.322 94.2537 128.783 92.7587 125.957 92.4265C122.814 92.0489 117.812 93.6949 114.956 95.0993C117.887 92.7587 120.335 92.1849 122.678 91.7167C124.975 91.2486 128.118 91.3996 130.37 92.1546Z" fill="#6B1FE0" fill-opacity="0.3"/>
<path d="M78.5363 141.459C78.2189 141.58 78.1585 141.972 78.3852 142.214C79.2768 143.165 81.3622 143.92 82.4653 144.026C80.7124 143.573 80.259 142.622 79.3977 141.837C79.171 141.64 78.8687 141.338 78.5514 141.444L78.5363 141.459Z" fill="#6B1FE0" fill-opacity="0.3"/>
<path d="M117.645 142.048C115.167 144.54 111.389 144.796 108.064 144.872C106.372 144.932 104.695 144.993 103.078 145.385C102.262 145.582 101.461 145.823 100.629 146.035C99.7983 146.246 98.9218 146.412 98.0151 146.442V145.355C99.6019 145.4 101.234 144.902 102.926 144.585C107.823 143.664 113.55 145.672 117.645 142.048Z" fill="#6B1FE0" fill-opacity="0.3"/>
<path d="M114.124 140.991C111.359 140.568 108.714 139.602 106.024 138.862C103.395 138.152 102.14 138.001 99.5865 139.133C99.0576 139.36 98.6798 139.677 97.9998 139.722V138.998C98.3927 139.013 98.9216 138.68 99.3296 138.529C102.035 137.457 103.41 137.654 106.13 138.514C108.805 139.375 111.374 140.447 114.124 140.991Z" fill="#6B1FE0" fill-opacity="0.3"/>
<path d="M117.479 141.459C117.796 141.58 117.857 141.972 117.63 142.214C116.739 143.165 114.653 143.92 113.55 144.026C115.303 143.573 115.756 142.622 116.618 141.837C116.844 141.64 117.147 141.338 117.464 141.444L117.479 141.459Z" fill="#6B1FE0" fill-opacity="0.3"/>
<path d="M45.5772 97.2436C44.3078 95.4919 42.6606 93.9667 40.6357 93.1965C39.8045 92.9096 38.6258 92.7737 37.976 93.3928C37.3564 94.0573 37.568 95.3257 37.5226 96.2016C37.5529 98.3912 37.7342 100.596 38.1422 102.755C38.7618 106.017 39.8801 109.173 40.6206 112.405C40.8623 113.492 41.0739 114.579 41.2855 115.667C42.2829 120.861 43.5674 126.645 48.0556 129.952C48.6298 130.33 50.3223 131.598 50.821 130.858L50.9117 130.903C50.413 131.915 48.4334 130.783 47.7382 130.42C45.7435 129.288 44.2021 127.491 43.0838 125.512C41.3913 122.568 40.7566 119.125 40.2579 115.833C39.6383 111.438 38.8374 107.12 37.7795 102.816C37.2204 100.4 36.6008 97.908 36.5555 95.3862C36.4648 94.0724 36.767 92.6227 38.2027 92.1848C41.225 91.3844 44.4741 94.6915 45.5772 97.2436Z" fill="#6B1FE0" fill-opacity="0.3"/>
<path d="M39.6381 104.628C39.1697 103.314 38.8825 101.94 38.671 100.566C38.5047 99.6447 38.3083 98.7084 38.3839 97.7571C38.4141 97.4701 38.4141 97.2587 38.5652 96.9718C38.9581 96.3678 39.759 96.8208 40.1519 97.1681C43.3254 100.249 45.97 104.326 46.0758 108.856L46.0002 108.871C45.5922 107.059 44.9575 105.338 44.1112 103.722C42.9174 101.532 41.5271 99.388 39.7892 97.591C39.6079 97.4399 39.1697 97.0473 38.9732 97.2436C38.7465 97.8326 38.7768 98.5272 38.8221 99.1463C39.0185 100.974 39.1848 102.831 39.6381 104.628Z" fill="#6B1FE0" fill-opacity="0.3"/>
<path d="M41.7991 105.156C43.0231 106.349 44.0658 107.784 44.5645 109.43C45.0179 111.091 44.7761 112.843 44.7156 114.549C44.6854 115.229 44.5494 116.316 44.7308 116.95C44.9272 117.675 45.441 118.279 46.0153 118.838C47.1789 119.986 48.7354 121.209 48.9469 122.96L48.8714 122.976C48.1762 121.39 46.7104 120.544 45.4712 119.397C42.0257 116.195 46.0153 114.081 43.9752 109.626C43.4009 108.071 42.5698 106.651 41.7991 105.156Z" fill="#6B1FE0" fill-opacity="0.3"/>
<path d="M150.453 97.1077C151.481 94.6765 154.095 92.0036 156.921 92.0489C158.946 92.1546 159.49 93.7704 159.324 95.5372C159.263 98.0591 158.629 100.521 158.069 102.937C157.012 107.225 156.226 111.529 155.606 115.908C155.108 119.185 154.473 122.613 152.78 125.543C151.39 127.989 149.29 130.194 146.584 131.13C146.101 131.326 145.24 131.508 144.968 130.904L145.058 130.858C145.572 131.613 147.28 130.315 147.824 129.967C148.7 129.333 149.456 128.578 150.121 127.747C153.566 123.429 154.08 117.736 155.244 112.496C155.984 109.264 157.102 106.123 157.722 102.876C158.16 100.717 158.326 98.5272 158.357 96.3527C158.326 95.0087 158.689 93.0909 156.845 92.9701C155.848 92.8795 154.82 93.3023 153.959 93.8006C152.569 94.6161 151.42 95.7788 150.453 97.1077Z" fill="#6B1FE0" fill-opacity="0.3"/>
<path d="M156.241 104.628C156.679 102.922 156.86 101.11 157.027 99.3578C157.072 98.6481 157.147 97.8779 156.891 97.2135C156.755 97.0927 156.528 97.2286 156.347 97.3645C155.833 97.742 155.455 98.2705 155.017 98.7689C154.443 99.4484 153.898 100.143 153.37 100.838C151.768 102.952 150.589 105.277 150.075 107.92H150C149.985 106.123 150.453 104.311 151.299 102.68C152.221 100.853 153.642 99.3578 155.002 97.8779C155.47 97.3645 156.588 96.1262 157.284 96.9266C157.495 97.289 157.465 97.6514 157.495 98.0289C157.525 98.9501 157.314 99.8259 157.163 100.717C156.981 102.046 156.679 103.36 156.241 104.628Z" fill="#6B1FE0" fill-opacity="0.3"/>
<path d="M154.08 105.156C153.324 106.651 152.478 108.071 151.889 109.626C149.848 114.081 153.838 116.195 150.392 119.397C149.153 120.544 147.687 121.39 146.992 122.976L146.917 122.96C147.128 121.209 148.685 119.986 149.848 118.838C150.423 118.279 150.936 117.675 151.133 116.95C151.329 116.316 151.178 115.214 151.148 114.549C151.088 112.858 150.861 111.091 151.299 109.43C151.813 107.769 152.856 106.349 154.08 105.156Z" fill="#6B1FE0" fill-opacity="0.3"/>
<path d="M107.46 120.454C108.986 121.994 109.833 124.319 109.394 126.479C109.213 127.34 108.865 128.276 108.08 128.789C107.672 129.031 107.173 129.076 106.765 128.94C107.203 128.91 107.581 128.759 107.853 128.502C108.412 127.944 108.578 127.128 108.699 126.358C109.001 124.304 108.321 122.311 107.46 120.454Z" fill="#6B1FE0" fill-opacity="0.3"/>
<path d="M65.555 159.988L65.0261 160.003C65.0563 164.488 65.1923 169.713 65.1167 174.168C65.0865 180.283 64.7994 186.414 64.1194 192.5C63.7416 195.505 63.3789 198.555 62.7442 201.53C62.049 204.46 60.8401 207.238 59.1476 209.745C56.0194 214.427 51.4557 218.005 46.5594 220.693C38.1875 225.103 28.7124 226.839 19.4338 228.183C15.6105 228.727 4.80555 230.524 0 231.868C0.891596 231.702 1.7983 231.551 2.70501 231.415C6.36207 230.826 10.2609 230.207 13.9331 229.724C21.4587 228.712 28.924 227.489 36.1928 225.299C43.4615 223.14 50.5338 219.818 56.1403 214.608C58.9511 211.995 61.3086 208.824 62.7895 205.26C64.3007 201.712 64.7238 197.846 65.2225 194.055C65.3132 193.346 65.4794 191.941 65.5399 191.216C66.6128 180.857 66.235 170.362 65.555 159.988Z" fill="#6B1FE0" fill-opacity="0.3"/>
<path d="M130.445 159.988L130.974 160.003C130.944 164.488 130.808 169.713 130.883 174.168C130.913 180.283 131.201 186.414 131.881 192.5C132.258 195.505 132.621 198.555 133.256 201.53C133.951 204.46 135.16 207.238 136.852 209.745C139.98 214.427 144.544 218.005 149.44 220.693C157.812 225.103 167.288 226.839 176.566 228.183C180.389 228.727 191.194 230.524 196 231.868C195.108 231.702 194.202 231.551 193.295 231.415C189.638 230.826 185.739 230.207 182.067 229.724C174.541 228.712 167.076 227.489 159.807 225.299C152.538 223.14 145.466 219.818 139.86 214.608C137.049 211.995 134.691 208.824 133.21 205.26C131.699 201.712 131.276 197.846 130.777 194.055C130.687 193.346 130.521 191.941 130.46 191.216C129.402 180.857 129.765 170.362 130.445 159.988Z" fill="#6B1FE0" fill-opacity="0.3"/>
<path d="M106.553 247C108.73 243.466 112.22 240.929 116.285 240.099C115.364 240.522 114.442 240.945 113.565 241.413C112.719 241.866 111.797 242.424 111.011 242.983C109.379 244.131 107.974 245.565 106.553 247Z" fill="#6B1FE0" fill-opacity="0.3"/>
<path d="M120.683 238.77C122.965 238.045 125.352 237.638 127.74 237.381C132.515 236.898 137.336 237.049 142.111 236.973L149.289 236.777L163.646 236.475C168.361 236.233 173.408 235.478 177.866 237.486L177.02 237.2C176.173 236.943 175.282 236.747 174.405 236.641C170.839 236.173 167.257 236.807 163.691 237.033C158.221 237.305 151.224 237.441 145.738 237.577C137.381 237.955 128.889 236.807 120.683 238.77Z" fill="#6B1FE0" fill-opacity="0.3"/>
<path d="M89.8698 247C86.515 243.512 84.5203 242.062 80.0774 240.099C84.1727 240.929 87.6786 243.466 89.8698 247Z" fill="#6B1FE0" fill-opacity="0.3"/>
<path d="M75.6649 238.77C67.4139 236.807 58.8757 237.939 50.4887 237.592C44.9577 237.456 37.9308 237.32 32.4301 237.048C28.8335 236.807 25.2368 236.173 21.6554 236.656C20.7638 236.762 19.8722 236.973 19.0108 237.215L18.1494 237.502C22.6376 235.493 27.7152 236.248 32.4603 236.49L46.9072 236.792L54.1306 236.988C58.9361 237.079 63.787 236.913 68.5926 237.396C70.95 237.653 73.3528 238.06 75.6649 238.77Z" fill="#6B1FE0" fill-opacity="0.3"/>
<path d="M81.0596 6.4419C67.7764 4.7355 60.2658 10.6853 52.4228 20.6065C46.8012 27.7946 43.4464 36.4776 41.5574 45.3267C38.1573 60.8806 38.5955 77.0084 40.6507 92.7284C40.6507 92.7586 40.6356 92.7888 40.6054 92.7888C39.5173 88.4096 38.9582 83.7585 38.4746 79.2131C37.1901 65.5921 38.1421 51.5332 42.7059 38.5464C45.4865 30.7543 49.3098 23.2492 54.5082 16.786C57.9386 12.5427 62.2152 8.73724 67.4439 6.92513C70.7232 5.76236 74.2442 5.43014 77.6897 5.76236C78.8382 5.88317 79.9565 6.06438 81.0748 6.30599C81.105 6.30599 81.1201 6.33619 81.1201 6.3664C81.105 6.4268 81.0899 6.4419 81.0596 6.4419Z" fill="#6B1FE0" fill-opacity="0.3"/>
<path d="M81.3772 25.6503C79.8962 30.4071 76.1485 34.1068 72.159 36.9156C70.2096 38.2747 67.973 39.6035 65.9481 40.8569C60.7647 44.0583 55.9894 47.9694 52.015 52.5903C48.0708 57.1961 44.9729 62.6173 43.8546 68.6275L43.7791 68.6124C44.0057 66.166 44.6253 63.7499 45.5471 61.4545C48.3428 54.5534 53.7075 48.9812 59.6918 44.7228C62.6688 42.6086 65.8876 40.7059 68.8495 38.5918C71.8114 36.4626 74.7733 34.3031 77.2819 31.6454C78.9442 29.8786 80.3194 27.855 81.3167 25.6201L81.3772 25.6503Z" fill="#6B1FE0" fill-opacity="0.3"/>
<path d="M91.2146 33.9257C94.7356 36.0398 98.9216 36.2059 102.911 36.1606C109.999 36.2965 117.237 37.0213 123.871 39.6942C128.405 41.9744 132.696 44.8587 136.233 48.5131C148.005 60.4428 147.098 78.8508 153.777 93.1967C152.75 91.445 151.919 89.5876 151.193 87.6999C149.063 82.0069 147.793 76.0572 146.342 70.1678C144.907 64.3389 143.411 58.3136 139.89 53.3454C135.81 47.592 129.84 43.4392 123.569 40.3435C120.804 39.2261 117.826 38.5616 114.895 37.9878C109.953 37.0364 104.906 36.7797 99.8585 36.5683C96.8362 36.3569 93.7383 35.6623 91.2146 33.9257Z" fill="#6B1FE0" fill-opacity="0.3"/>
<path d="M80.0621 30.679C79.639 35.6623 76.6619 40.3737 72.4155 43.0466C70.2999 44.3906 67.9878 45.357 65.6908 46.2933C63.4089 47.2446 61.1421 48.2111 59.0869 49.5853C60.0238 48.7698 61.0666 48.0903 62.1546 47.4711C65.6303 45.4778 69.5141 44.2547 72.7782 41.9291C76.541 39.2865 79.11 35.179 80.0621 30.679Z" fill="#6B1FE0" fill-opacity="0.3"/>
<path d="M56.5333 54.5081C54.9314 56.3504 52.6495 58.9477 51.1384 60.8202C49.6121 62.6625 47.5115 65.4562 46.0608 67.3891C48.3578 62.587 52.3171 57.7245 56.5333 54.5081Z" fill="#6B1FE0" fill-opacity="0.3"/>
<path d="M55.0069 60.5938C54.75 64.8824 51.3197 68.1744 48.6449 71.2399C46.6501 73.5352 44.8065 76.2081 44.4438 79.2887C44.338 80.3004 44.4287 81.3424 44.7762 82.339C44.2927 81.4028 44.0811 80.3306 44.0962 79.2585C44.202 76.0118 46.0607 73.1426 48.116 70.7567C50.8059 67.6761 54.1456 64.7616 55.0069 60.5938Z" fill="#6B1FE0" fill-opacity="0.3"/>
<path d="M51.6521 72.7047C51.1383 78.2316 45.5016 81.3726 44.1265 86.5824C44.5194 81.0404 50.1863 77.8541 51.6521 72.7047Z" fill="#6B1FE0" fill-opacity="0.3"/>
<path d="M47.2547 84.5438C46.8164 86.9147 45.2448 89.1043 43.1292 90.2671C44.9275 88.6966 46.3329 86.7486 47.2547 84.5438Z" fill="#6B1FE0" fill-opacity="0.3"/>
<path d="M47.7381 86.975C47.1488 89.1495 45.3505 90.9918 43.2046 91.6412C45.1087 90.5237 46.6803 88.923 47.7381 86.975Z" fill="#6B1FE0" fill-opacity="0.3"/>
<path d="M47.0732 90.4331C46.8767 91.5959 45.834 92.5925 44.6704 92.7435C45.6225 92.1093 46.4083 91.3543 47.0732 90.4331Z" fill="#6B1FE0" fill-opacity="0.3"/>
<path d="M81.0294 6.35136C85.835 2.66674 91.8192 0.658317 97.8186 0.114685C100.841 -0.172232 103.909 0.114685 106.901 0.582813C117.313 2.25901 127.604 6.06444 135.946 12.6182C139.482 15.4723 142.414 19.0361 144.831 22.8566C148.836 29.2594 151.571 36.2964 154.05 43.3788C154.548 44.7982 154.956 46.263 155.274 47.7429C156.543 53.6625 156.77 59.7028 156.815 65.7281C156.86 71.7382 156.634 77.7333 156.241 83.7283C156.135 85.2233 156.029 86.7183 155.908 88.2133C155.787 89.7083 155.667 91.2033 155.485 92.6983C155.485 92.7285 155.455 92.7436 155.425 92.7436C155.395 92.7436 155.379 92.7134 155.379 92.6832C155.561 89.6932 155.651 86.6881 155.727 83.6981C156.029 73.2634 156.165 62.7079 155.138 52.3034C154.835 49.3436 154.352 46.3989 153.475 43.5449C153.037 42.1103 152.599 40.6757 152.115 39.2713C148.368 28.0815 142.081 16.9824 131.714 10.791C122.95 5.3849 112.522 2.13821 102.307 1.00564C96.3981 0.552611 90.3685 1.70028 84.9887 4.22213C83.6438 4.85637 82.3441 5.59631 81.105 6.44196C81.0747 6.45706 81.0445 6.45706 81.0294 6.42686C80.9992 6.39666 81.0143 6.36646 81.0294 6.35136Z" fill="#6B1FE0" fill-opacity="0.3"/>
<path d="M80.0624 15.5629C79.4881 19.625 75.9671 23.1737 72.8691 25.6352C75.7253 22.6603 78.8987 19.6401 80.0624 15.5629Z" fill="#6B1FE0" fill-opacity="0.3"/>
<path d="M80.0623 24.2006C79.352 26.4355 77.8106 28.5496 75.6194 29.4859C77.5386 28.1117 78.8835 26.209 80.0623 24.2006Z" fill="#6B1FE0" fill-opacity="0.3"/>
<path d="M79.8356 10.2927C79.9565 12.6334 79.2765 15.1552 77.5537 16.8012C78.8533 14.8532 79.4578 12.5881 79.8356 10.2927Z" fill="#6B1FE0" fill-opacity="0.3"/>
<path d="M81.7849 18.3263C85.6233 27.4321 93.421 32.5211 103.334 31.9624C110.648 31.6 118.355 29.5916 125.382 32.5966C138.137 37.7762 142.096 52.3335 145.073 64.4897C141.522 52.7412 137.532 38.4558 125.05 33.4272C118.129 30.5278 110.588 32.506 103.365 32.7627C93.285 33.1856 85.2455 27.7946 81.7849 18.3263Z" fill="#6B1FE0" fill-opacity="0.3"/>
<path d="M81.3467 13.5393C82.9939 16.5595 84.4446 19.9119 87.3763 21.9052C88.3283 22.5545 89.371 23.0982 90.4138 23.6116C88.7515 23.0378 87.1194 22.2676 85.8047 21.0747C83.6286 19.0511 82.4196 16.2575 81.3467 13.5393Z" fill="#6B1FE0" fill-opacity="0.3"/>
<path d="M146.116 74.0487C146.509 76.9783 146.977 81.0706 147.446 83.9549C147.929 86.7486 148.534 89.7838 150.816 91.6714C151.148 91.9131 151.496 92.1245 151.874 92.3208C151.073 92.1094 150.287 91.6866 149.713 91.0372C149.425 90.705 149.184 90.3728 148.942 90.0255C147.778 88.2285 147.506 86.069 147.174 84.0153C146.72 80.6931 146.418 77.3709 146.116 74.0487Z" fill="#6B1FE0" fill-opacity="0.3"/>
<path d="M147.416 89.799C147.99 91.7621 148.776 93.997 150.77 94.8728C151.042 94.9786 151.329 95.0541 151.617 94.9031C151.511 95.0239 151.36 95.0994 151.193 95.1296C148.76 95.2202 147.718 91.7319 147.416 89.799Z" fill="#6B1FE0" fill-opacity="0.3"/>
<path d="M81.8606 28.0664C82.6011 31.4641 85.2607 34.0464 88.1018 35.8434C94.1163 39.6035 101.43 38.1991 108.125 37.7461C111.555 37.5196 115.091 37.5649 118.386 38.6521C111.616 36.8702 104.679 39.0448 97.8338 38.9089C93.8896 38.8635 89.9605 37.9122 86.8022 35.4507C84.4447 33.6235 82.2988 31.1168 81.8606 28.0664Z" fill="#6B1FE0" fill-opacity="0.3"/>
<path d="M93.1191 24.3667C99.1941 26.7979 105.858 25.9976 112.19 25.454C118.567 24.9556 125.322 24.412 131.352 26.9641C138.953 30.2409 143.668 37.58 147.416 44.617C149.29 48.0751 150.332 52.3487 153.823 54.5836C154.503 55.0064 155.244 55.3386 155.999 55.5803L155.984 55.6256C155.198 55.4292 154.428 55.1423 153.717 54.7346C150.06 52.6507 148.867 48.3016 146.932 44.8586C142.504 36.6286 136.535 27.553 126.667 25.7258C120.275 24.4724 113.807 25.9523 107.4 26.3147C102.609 26.6318 97.5469 26.4808 93.1191 24.3667Z" fill="#6B1FE0" fill-opacity="0.3"/>
<path d="M131.956 35.1035C137.547 38.1086 141.068 43.7865 143.532 49.4494C144.801 52.2883 145.98 55.1877 147.023 58.1173C148.05 61.0469 148.881 64.0821 149.743 67.057C150.332 69.0201 150.967 70.9983 151.979 72.7803C152.75 74.1091 153.747 75.3021 155.032 76.1629C155.455 76.4498 155.908 76.6914 156.377 76.9179L156.362 76.9783C153.249 75.9967 151.299 73.1276 150.166 70.2282C149.38 68.2953 148.866 66.2718 148.322 64.2482C147.506 61.2432 146.66 58.2683 145.662 55.3236C144.363 51.3974 142.534 47.6373 140.268 44.1792C138.061 40.6757 135.402 37.414 131.956 35.1035Z" fill="#6B1FE0" fill-opacity="0.3"/>
<path d="M61.3843 96.1112C65.404 91.8527 71.3732 91.0523 76.7832 92.8645C77.8259 93.2269 78.8233 93.695 79.7753 94.2386C80.6065 94.7219 81.6643 95.5373 82.4501 96.1112C82.843 96.383 83.3568 96.8058 83.7346 97.0927C84.1577 97.4249 84.5204 97.878 84.6867 98.3914C84.4751 97.9082 84.0671 97.5004 83.6288 97.2135C83.2208 96.9417 82.6768 96.5944 82.2688 96.3377C81.347 95.7789 80.4402 95.1749 79.5033 94.7068C77.6143 93.7403 75.544 93.1514 73.4435 92.9702C70.3002 92.7437 67.157 93.4685 64.2706 94.6917C63.3035 95.1296 62.3665 95.6279 61.4296 96.1867L61.3843 96.1112Z" fill="#6B1FE0" fill-opacity="0.3"/>
<path d="M82.1022 97.7268C82.1929 97.3191 82.5102 96.7755 82.752 96.5187C82.4347 96.0959 81.6942 95.809 81.3013 95.5674C81.5582 95.8996 81.7395 96.1714 81.8906 96.564C81.9813 96.8057 82.1022 97.2889 82.1022 97.7268Z" fill="#6B1FE0" fill-opacity="0.3"/>
<path d="M61.6714 96.6245C67.4894 100.656 74.7733 100.762 81.4678 99.3125C82.435 99.1313 83.4777 99.4937 84.3995 99.0558C83.5079 99.5541 82.4501 99.2672 81.498 99.4786C80.5309 99.6296 79.594 99.9316 78.6117 100.113C76.6623 100.475 74.6675 100.596 72.6879 100.566C70.6931 100.551 68.6832 100.324 66.7791 99.6749C64.8902 99.0255 63.0919 98.0289 61.6562 96.6698L61.6714 96.6245Z" fill="#6B1FE0" fill-opacity="0.3"/>
<path d="M136.187 94.0423C134.676 92.8342 133.059 91.7922 131.306 90.9919C130.067 90.418 128.798 89.8593 127.438 89.5875C125.262 89.1647 123.025 89.4516 120.879 89.9197C119.821 90.1613 118.779 90.5238 117.796 90.9617C115.771 91.8375 114.018 93.2117 112.175 94.4198C113.323 93.1966 114.562 92.0187 115.983 91.0976C117.887 89.814 120.169 89.21 122.436 89.0439C124.128 88.9382 125.821 89.1194 127.483 89.361C128.586 89.5271 129.704 89.7234 130.777 90.1009C131.85 90.4634 132.863 91.0221 133.785 91.6714C134.706 92.3359 135.553 93.0909 136.233 93.997L136.187 94.0423Z" fill="#6B1FE0" fill-opacity="0.3"/>
<path d="M123.745 97.5488C125.066 97.4177 126.03 96.2417 125.899 94.9222C125.767 93.6026 124.591 92.6392 123.27 92.7702C121.95 92.9013 120.985 94.0773 121.117 95.3968C121.248 96.7164 122.425 97.6799 123.745 97.5488Z" fill="#6B1FE0" fill-opacity="0.3"/>
<path d="M123.509 99.4936C125.685 99.5087 127.408 97.5607 127.634 95.4919C127.695 94.601 127.77 93.1211 126.758 92.7586C125.76 92.4566 124.597 92.5623 123.554 92.5925C122.738 92.6378 121.967 92.7435 121.166 92.9097C120.728 93.0003 120.124 93.0758 119.806 93.3627C119.413 93.9214 119.413 94.7973 119.444 95.4768C119.58 97.5456 121.363 99.5087 123.509 99.4936ZM123.509 99.554C121 99.5842 118.809 97.7117 118.839 95.1144C118.869 94.2687 118.915 93.0909 119.852 92.7133C121.045 92.3207 122.33 92.2754 123.569 92.2905C124.113 92.3056 124.657 92.3509 125.201 92.3811C125.866 92.4415 126.622 92.4113 127.226 92.7737C127.982 93.3627 128.133 94.6312 128.118 95.5221C127.997 97.9382 125.791 99.5691 123.509 99.554Z" fill="#6B1FE0" fill-opacity="0.3"/>
<path d="M134.555 96.2017C132.727 95.0842 130.808 94.2084 128.752 93.6647C126.727 93.1362 124.642 92.804 122.542 92.9852C120.441 93.1815 118.386 93.7704 116.482 94.7218C115.53 95.1899 114.638 95.8091 113.716 96.3527C113.308 96.5943 112.749 96.9567 112.356 97.2285C111.918 97.5155 111.51 97.9232 111.298 98.4064C111.465 97.893 111.842 97.4399 112.25 97.1077C112.628 96.8057 113.157 96.398 113.535 96.1262C114.336 95.5674 115.379 94.752 116.21 94.2537C118.114 93.1362 120.245 92.4114 122.436 92.1244C124.642 91.8375 126.924 91.913 129.055 92.6228C131.17 93.3325 133.135 94.5104 134.616 96.1262L134.555 96.2017Z" fill="#6B1FE0" fill-opacity="0.3"/>
<path d="M113.898 97.7268C113.807 97.3191 113.49 96.7755 113.248 96.5187C113.565 96.0959 114.306 95.809 114.699 95.5674C114.442 95.8996 114.26 96.1714 114.109 96.564C114.018 96.8057 113.898 97.2889 113.898 97.7268Z" fill="#6B1FE0" fill-opacity="0.3"/>
<path d="M134.359 96.6698C131.442 99.4333 127.287 100.596 123.327 100.581C121.348 100.611 119.353 100.49 117.404 100.128C116.421 99.9467 115.484 99.6447 114.517 99.4937C113.565 99.2823 112.492 99.5692 111.616 99.0708C112.538 99.5088 113.565 99.1615 114.547 99.3276C115.545 99.4484 116.497 99.7202 117.464 99.8561C119.398 100.158 121.378 100.234 123.342 100.143C125.307 100.068 127.226 99.7202 129.085 99.1615C130.944 98.6027 132.727 97.742 134.344 96.6245L134.359 96.6698Z" fill="#6B1FE0" fill-opacity="0.3"/>
<path d="M122.36 94.4504C122.36 94.7677 122.179 95.0246 121.605 95.0246C121.046 95.0246 120.577 94.7677 120.577 94.4504C120.577 94.133 121.031 93.8761 121.605 93.8761C122.179 93.8761 122.36 94.133 122.36 94.4504Z" fill="white" fill-opacity="0.7"/>
<path d="M125.745 96.6097C125.745 96.8213 125.64 96.9875 125.337 96.9875C125.02 96.9875 124.869 96.8213 124.869 96.6097C124.869 96.3982 125.02 96.2319 125.337 96.2319C125.64 96.2319 125.745 96.3982 125.745 96.6097Z" fill="white" fill-opacity="0.7"/>
<path d="M62.0339 95.6429C62.6989 96.549 63.5754 97.2587 64.5878 97.7722C66.2501 98.6933 68.0333 99.3427 69.8921 99.7353C68.0182 99.4333 66.1746 98.8292 64.4821 97.9836C63.4393 97.5004 62.4722 96.7755 61.7468 95.8695C61.7619 95.8695 62.0339 95.6429 62.0339 95.6429Z" fill="#6B1FE0" fill-opacity="0.3"/>
<path d="M134.253 95.8695C133.528 96.7755 132.576 97.4853 131.518 97.9836C129.811 98.8443 127.982 99.4333 126.108 99.7353C127.967 99.3578 129.765 98.6933 131.412 97.7722C132.41 97.2587 133.286 96.549 133.966 95.6429C133.981 95.6429 134.253 95.8695 134.253 95.8695Z" fill="#6B1FE0" fill-opacity="0.3"/>
<path d="M93.9046 114.217C94.086 113.447 94.4486 111.529 94.5393 110.593C94.7207 108.841 94.766 107.965 94.4789 106.153C94.3731 107.724 94.2975 108.615 94.1615 110.2C94.0557 112.012 93.8291 113.84 93.4513 115.621C93.421 115.742 93.3908 115.878 93.3606 115.999C93.5873 115.41 93.7686 114.821 93.9046 114.217Z" fill="#6B1FE0" fill-opacity="0.3"/>
</svg>
