<svg width="196" height="272" viewBox="0 0 196 272" fill="none" xmlns="http://www.w3.org/2000/svg">
<rect width="196" height="272" rx="8" fill="white" fill-opacity="0.6"/>
<path d="M186.504 241.472C187.804 239.66 188.831 237.682 189.496 235.507C189.919 234.148 190.176 232.653 189.678 231.324C188.363 227.761 180.021 228.591 177.029 228.168C167.75 226.824 158.275 225.088 149.903 220.678C144.992 217.99 140.443 214.396 137.315 209.73C135.638 207.223 134.429 204.445 133.734 201.515C133.19 199.009 132.872 196.441 132.525 193.889C131.104 182.73 131.301 171.329 131.467 160.094C136.061 155.412 139.975 150.097 142.423 144.676C142.876 143.664 143.269 142.577 143.602 141.504C144.282 139.345 144.675 137.14 145.128 134.981C145.385 133.742 145.642 132.519 145.914 131.281C146.277 131.372 146.745 131.251 147.062 131.13C149.767 130.194 151.868 127.989 153.258 125.543C154.951 122.613 155.585 119.185 156.084 115.908C156.704 111.529 157.49 107.225 158.547 102.937C159.106 100.521 159.726 98.0591 159.802 95.5372C159.953 93.7553 159.424 92.1546 157.399 92.0489C156.93 92.0489 156.477 92.1093 156.039 92.2301C156.19 90.8861 156.311 89.5573 156.417 88.2133C156.537 86.7183 156.643 85.2233 156.749 83.7283C157.142 77.7333 157.354 71.7382 157.323 65.7281C157.278 59.7028 157.051 53.6625 155.782 47.7429C155.449 46.263 155.057 44.7982 154.558 43.3787C152.095 36.2964 149.344 29.2443 145.34 22.8566C142.922 19.0361 140.005 15.4723 136.454 12.6182C128.052 6.06444 117.776 2.25901 107.349 0.582813C104.356 0.114685 101.289 -0.172232 98.2664 0.114685C92.267 0.658317 86.2979 2.66674 81.4923 6.33625C80.3892 6.09464 79.2558 5.91343 78.1224 5.79262C74.6769 5.4453 71.1559 5.77752 67.8766 6.95539C62.6479 8.7675 58.3713 12.5729 54.9409 16.8163C49.7273 23.2795 45.9192 30.7846 43.1386 38.5767C38.5748 51.5483 37.6228 65.6073 38.9073 79.2434C39.3606 83.6075 39.9047 88.0623 40.9171 92.2906C40.1616 92.0489 39.3909 92.0036 38.6353 92.1999C37.1996 92.6379 36.8974 94.1026 36.9881 95.4013C37.0334 97.9232 37.653 100.415 38.2121 102.831C39.27 107.135 40.086 111.454 40.6905 115.848C41.1892 119.125 41.8087 122.583 43.5164 125.528C44.6347 127.506 46.1761 129.303 48.1708 130.435C48.7451 130.737 50.2411 131.583 50.9967 131.251C51.2687 132.489 51.5407 133.742 51.7825 134.981C52.387 137.941 52.9764 141.051 54.1551 143.89C56.3765 149.342 59.958 154.129 63.8871 158.448C64.4009 159.006 64.9147 159.55 65.4587 160.094C65.4889 164.548 65.6249 169.743 65.5494 174.168C65.5192 180.283 65.232 186.414 64.552 192.5C64.1742 195.505 63.8115 198.556 63.1768 201.53C62.4817 204.46 61.2727 207.239 59.5802 209.745C56.4521 214.427 51.8883 218.005 46.9921 220.693C38.6202 225.103 28.9788 227.202 19.7002 228.546C14.7586 229.256 11.2225 229.875 5.43466 230.887C2.68431 235.085 4.2106 242.967 7.29341 246.425C11.7061 251.378 18.4912 253.342 24.8986 255.063C36.5045 258.189 48.1255 261.315 59.7313 264.441C80.2683 269.968 102.195 275.495 122.46 269.062C130.5 266.51 137.874 262.176 145.869 259.427C154.074 256.603 162.824 255.516 170.954 252.466C176.954 250.216 182.817 246.576 186.504 241.472Z" fill="#C09DFE" fill-opacity="0.3"/>
<path d="M143.093 86.5975C142.081 92.3661 143.35 98.6632 143.683 104.568C144.03 110.714 141.718 116.014 139.361 121.526C138.726 123.021 138.076 124.546 137.94 126.177C137.819 127.747 138.182 129.303 138.363 130.873C139.451 140.191 135.492 149.568 129.357 156.409C126.697 159.369 124.037 162.344 121.106 165.032C117.585 168.278 110.135 173.579 104.619 175.587C111.132 174.107 121.302 167.357 126.486 163.129C131.155 159.323 135.946 155.397 138.923 150.157C140.827 146.805 141.9 143.06 142.942 139.36C143.169 138.575 144.68 131.311 144.997 131.236C149.561 130.164 152.977 125.467 152.584 120.801C152.432 118.929 151.737 117.147 151.45 115.289C151.118 113.1 151.36 110.819 152.145 108.751C152.568 107.648 153.143 106.531 152.977 105.368C152.795 104.099 151.798 103.118 151.299 101.94C150.846 100.823 150.861 99.5843 150.891 98.3913C151.163 86.1596 151.103 74.4413 147.491 62.5871C145.693 56.6827 141.431 51.8353 137.366 47.3654C132.001 41.461 125.367 38.9995 117.539 37.8368C111.706 36.9609 105.465 35.5565 99.5865 35.4659C92.8467 35.3602 86.5148 31.7209 81.3013 27.7343C82.9485 28.8819 83.4925 31.8719 84.7316 33.5028C86.6055 35.9642 88.8421 38.2747 91.7889 39.3921C93.6325 40.1019 95.6273 40.2982 97.5767 40.4643C106.296 41.2194 115.529 41.1892 123.796 44.4207C140.464 50.9141 145.98 70.2735 143.093 86.5975Z" fill="#AA88E8" fill-opacity="0.3"/>
<path d="M52.6949 86.3257C52.8309 88.1378 52.9669 89.9348 52.7856 91.8376C52.2869 97.5155 51.1082 103.224 51.9998 108.841C52.6345 112.873 54.3119 116.648 55.6417 120.514C56.7449 123.7 57.6516 127.068 57.5005 130.481C57.3493 133.607 57.3493 136.627 57.9992 139.738C59.2988 145.838 62.3816 151.516 66.5373 156.137C69.197 159.097 71.8567 162.072 74.7884 164.76C78.3094 168.006 85.7595 173.307 91.2753 175.315C84.7621 173.835 74.7581 168.037 69.5899 163.824C64.9204 160.018 59.9637 155.141 56.9867 149.9C55.0372 146.473 53.7527 142.516 52.8611 138.696C52.5287 137.276 52.6798 135.872 52.3625 134.467C51.894 132.414 50.9419 130.375 50.3375 128.352C49.0076 123.897 47.9347 119.366 47.3 114.761C46.7409 110.729 46.0155 106.576 45.9853 102.499C45.9702 99.7957 45.5621 97.1984 46.3026 94.5406C47.0733 91.7922 48.8867 89.3157 49.0227 86.4616C49.0983 84.9968 48.7205 83.5019 49.0379 82.0673C49.2948 80.98 49.9295 80.0136 50.277 78.9565C50.8211 77.2803 50.6699 75.3021 51.8033 73.943C51.7429 74.0185 52.2416 75.4078 52.2869 75.6645C52.4229 76.4497 52.4531 77.2803 52.4833 78.0806C52.5438 79.787 52.4531 81.4783 52.5136 83.1847C52.5287 84.2418 52.6042 85.2838 52.6949 86.3257Z" fill="white" fill-opacity="0.3"/>
<path d="M63.817 81.3274C63.8472 81.3274 63.8623 81.3274 63.8925 81.3274C65.6455 81.3727 67.338 82.0069 68.9701 82.6411C74.3197 84.6798 79.3066 86.6127 85.0037 87.6244C85.4571 87.6999 86.5602 87.866 86.9078 87.4885C87.21 87.1563 87.0287 85.7066 86.8625 85.2838C86.4544 84.272 85.9406 83.2452 85.0642 82.5958C84.4143 82.1126 83.6285 81.871 82.8578 81.6294C79.4426 80.5723 76.0273 79.9079 72.612 78.8508C70.0733 78.0656 67.3985 76.8877 64.769 77.3256C61.248 77.9297 58.5883 80.7384 56.1855 83.3811C55.4601 84.1965 55.0975 84.6798 54.3872 85.4952C54.9312 85.0573 55.309 84.7553 55.8984 84.3626C56.6993 83.8341 57.5154 83.3056 58.3616 82.8525C60.039 81.9616 61.8827 81.282 63.817 81.3274Z" fill="#AA88E8" fill-opacity="0.5"/>
<path d="M132.243 81.3274C132.213 81.3274 132.198 81.3274 132.168 81.3274C130.415 81.3727 128.722 82.0069 127.09 82.6411C121.741 84.6798 116.754 86.6127 111.057 87.6244C110.603 87.6999 109.5 87.866 109.153 87.4885C108.85 87.1563 109.032 85.7066 109.198 85.2838C109.606 84.272 110.12 83.2452 110.996 82.5958C111.646 82.1126 112.432 81.871 113.202 81.6294C116.618 80.5723 120.033 79.9079 123.448 78.8508C125.987 78.0656 128.662 76.8877 131.291 77.3256C134.812 77.9297 137.472 80.7384 139.875 83.3811C140.6 84.1965 140.963 84.6798 141.673 85.4952C141.129 85.0573 140.751 84.7553 140.162 84.3626C139.361 83.8341 138.545 83.3056 137.699 82.8525C136.006 81.9616 134.163 81.2821 132.243 81.3274Z" fill="#AA88E8" fill-opacity="0.5"/>
<path d="M116.119 142.441C116.013 142.154 115.167 142.078 114.91 141.988C112.568 141.112 110.21 140.266 107.853 139.451C105.783 138.741 103.591 137.593 101.355 138.228C100.418 138.499 99.5717 139.058 98.6046 139.209C98.3779 139.239 98.1815 139.254 97.9699 139.239C97.7734 139.254 97.5619 139.239 97.3352 139.209C96.368 139.058 95.5218 138.484 94.5849 138.228C92.3483 137.578 90.1571 138.741 88.0868 139.451C85.7142 140.266 83.3719 141.112 81.0296 141.988C80.7727 142.078 79.9113 142.154 79.8206 142.441C79.6846 142.833 80.546 143.528 80.7727 143.77C81.5736 144.645 82.0421 145.733 82.6314 146.729C83.1906 147.681 83.8857 148.617 84.5808 149.478C85.276 150.338 85.9862 151.199 86.8929 151.849C87.5428 152.317 88.2832 152.664 89.0237 152.981C91.7892 154.129 94.8871 154.944 97.9699 155.05C101.053 154.944 104.166 154.144 106.916 152.981C107.657 152.664 108.397 152.317 109.047 151.849C109.938 151.199 110.664 150.338 111.359 149.478C112.039 148.617 112.749 147.681 113.308 146.729C113.898 145.733 114.366 144.63 115.167 143.77C115.394 143.528 116.255 142.833 116.119 142.441Z" fill="#DCAACD" fill-opacity="0.5"/>
<path d="M71.222 6.39665C70.0886 6.66847 68.9703 7.01579 67.8823 7.45372C63.5905 9.16012 59.6766 11.984 56.4729 15.3062C54.055 17.828 51.8638 20.5613 49.9446 23.4758C47.2698 27.5228 45.1088 31.9021 43.5221 36.4776C41.8295 41.3552 40.409 46.4593 39.729 51.5936C39.4872 53.4359 39.3663 55.2934 39.2605 57.1508C39.0792 60.0199 38.8979 62.8891 38.7165 65.7583C38.5503 68.3556 38.5654 70.8624 38.5805 73.4597C38.5956 76.4044 38.7467 79.3491 39.0339 82.2938C39.3059 85.027 39.5174 87.8962 40.2126 90.5539C40.2428 90.6898 40.6508 92.5171 40.6508 92.5171C41.3762 92.7587 41.9504 93.106 42.5851 93.5137C43.2954 93.9667 43.7034 94.5557 44.2021 95.1899C44.5497 95.6278 45.4413 96.3829 45.4866 96.9416C45.3506 95.3258 45.139 93.3627 46.0004 91.913C46.2271 91.5506 46.4991 91.2184 46.7258 90.856C47.6022 89.4969 47.8591 87.8358 48.0858 86.2653C48.4183 83.9699 48.4183 81.5991 48.9623 79.334C49.3552 77.7182 50.2015 76.2534 50.9268 74.7584C52.982 70.5 53.8283 65.8489 55.5208 61.4696C57.2285 57.0602 59.9637 53.0584 63.4545 49.8721C67.0965 46.5499 72.2043 43.9073 75.4231 40.1925C79.0348 36.0246 81.3469 30.8148 81.3469 25.5295C81.3469 27.9456 82.6767 31.1017 84.2181 32.8534C87.2254 36.2511 91.1847 37.7159 95.28 38.5465C100.116 39.528 105.178 38.0783 110.09 37.9424C120.592 37.6555 131.11 42.4274 137.789 50.5215C140.766 54.1155 142.716 58.4343 143.985 62.9042C144.635 65.1693 145.119 67.4798 145.481 69.8053C145.844 72.1006 145.889 74.4564 146.297 76.7366C146.645 78.745 146.826 80.7686 147.053 82.7921C147.174 83.834 147.31 84.8609 147.476 85.9029C147.627 86.7485 147.718 87.7452 148.247 88.4549C147.401 87.8207 147.008 87.3525 146.071 84.6042C146.222 87.0505 146.826 89.4667 147.854 91.6865C148.549 93.1815 149.274 95.1597 151.949 95.1597C153.113 93.9969 155.123 92.9097 155.289 92.8795C155.606 92.4869 155.591 91.7469 155.621 91.2637C155.682 90.4784 155.682 89.7083 155.742 88.923C155.742 87.1411 156.029 85.3139 156.15 83.532C156.271 81.735 156.407 79.938 156.437 78.141C156.589 67.1778 156.997 55.6256 154.171 44.9492C152.78 39.6941 150.695 34.6202 148.277 29.7577C146.01 25.2124 143.426 20.5915 139.996 16.8012C139.678 16.4387 139.346 16.0914 138.998 15.7592C135.991 12.739 132.334 10.5494 128.556 8.63159C124.612 6.63827 120.577 4.88656 116.376 3.52748C106.342 0.159983 95.3404 -0.383649 85.5177 3.905C84.3995 4.38823 83.3265 4.94697 82.2989 5.5812C81.8909 5.83792 81.3771 6.35135 80.9086 6.42685C80.5308 6.48726 79.881 6.18524 79.5032 6.10974C76.7529 5.61141 73.927 5.76242 71.222 6.39665Z" fill="#AA88E8" fill-opacity="0.5"/>
<path d="M83.3115 96.9114C83.1755 96.8057 82.4954 96.4282 82.0119 96.1111C82.2688 97.2286 82.1932 98.5272 81.498 99.4635C82.299 99.3125 83.0697 99.3125 83.9159 99.2219C85.7898 99.0105 83.9764 97.4249 83.3115 96.9114Z" fill="#C09DFE" fill-opacity="0.2"/>
<path d="M82.0116 96.096C81.7245 95.9148 81.5129 95.7487 81.5129 95.6581C80.304 94.8427 79.0799 93.9517 77.7198 93.393C76.2389 92.7889 74.6673 92.2755 73.0805 92.0339C71.1009 91.7319 69.1817 91.9131 67.2322 92.2302C65.6908 92.4869 64.1646 92.8796 62.744 93.544C59.5403 95.0239 62.1245 97.4098 64.1646 98.3914C66.8696 99.6901 69.8617 100.385 72.8689 100.385C74.637 100.385 76.3598 100.037 78.1127 99.9468C79.0497 99.9015 80.0773 99.7807 80.984 99.5541C81.1502 99.5088 81.3164 99.4786 81.4978 99.4484C82.1929 98.5122 82.2685 97.2135 82.0116 96.096Z" fill="#EDF0F7" fill-opacity="0.5"/>
<path d="M68.1996 94.1781C67.8218 96.7603 69.8014 99.5238 72.5216 99.4936C74.199 99.4785 75.6497 98.4667 76.3751 97.002C76.8587 96.0355 77.2516 93.9365 76.2391 93.1814C75.3626 92.5321 74.0781 92.517 73.0354 92.4264C72.2798 92.366 71.5242 92.3811 70.7837 92.4717C70.1037 92.5623 69.3028 92.6529 68.6983 93.0002C68.3205 93.2267 68.26 93.7553 68.1996 94.1781Z" fill="#CBD2E0"/>
<path d="M69.6804 95.809C70.9951 95.2201 72.4458 94.9784 73.8815 95.0992C74.9997 95.1898 76.4203 95.8845 76.1029 97.2738C75.8762 98.2855 74.7277 99.0557 73.7908 99.3124C72.3401 99.7201 70.7533 99.2973 69.5897 98.3761C69.1666 98.0288 68.683 97.6211 68.5168 97.0775C68.3354 96.4885 68.9248 96.1714 69.3933 95.9449C69.4839 95.8996 69.5897 95.8543 69.6804 95.809Z" fill="#EDF0F7"/>
<path d="M56.382 92.8493C56.3518 92.8191 56.3367 92.7889 56.3064 92.7587C54.7348 90.4633 55.8833 87.9415 58.1803 86.7485C63.4392 84.0304 70.3302 85.4045 75.302 88.0774C76.8736 88.923 78.279 90.0103 79.6391 91.158C80.8933 92.215 82.2232 93.257 83.3717 94.4349C84.4446 95.5372 84.9282 97.002 85.2304 98.5121C84.6411 97.9836 84.1726 97.4702 83.3868 96.8963C80.9236 95.0993 78.6266 93.3174 75.5438 92.6681C71.0102 91.7167 66.5069 92.4265 62.3361 94.3594C61.4445 94.7671 60.4773 95.2503 59.495 94.9181C58.2559 94.4953 57.1376 93.9063 56.382 92.8493Z" fill="#AA88E8" fill-opacity="0.1"/>
<path d="M88.0262 146.503C87.8297 146.563 87.6182 146.654 87.4822 146.82C87.2706 147.077 87.2857 147.469 87.4368 147.771C87.603 148.073 87.8751 148.285 88.1622 148.451C89.0084 148.964 89.9756 149.206 90.9276 149.447C92.197 149.749 95.3554 149.372 93.6629 147.515C92.4237 146.14 89.6583 145.974 88.0262 146.503Z" fill="white" fill-opacity="0.3"/>
<path d="M102.851 147.182C102.488 147.107 102.095 147.062 101.718 147.107C101.249 147.167 100.645 147.273 100.312 147.62C99.8134 148.134 100.282 148.738 100.871 148.813C101.355 148.874 101.854 148.783 102.307 148.587C102.654 148.436 103.259 148.164 103.41 147.786C103.546 147.454 103.108 147.243 102.851 147.182Z" fill="white" fill-opacity="0.3"/>
<path d="M109.878 127.642C109.742 127.128 109.485 126.645 109.289 126.132C109.168 125.814 109.092 125.512 109.047 125.195C109.243 124.002 108.941 122.734 108.14 121.767C108.261 122.462 108.2 123.021 107.808 123.625C106.78 125.241 105.556 123.715 105.072 122.568C104.468 121.103 104.196 119.608 103.486 118.204C102.972 117.177 102.579 116.074 102.337 114.957C102.7 116.633 102.715 118.596 102.67 120.303C102.639 121.707 102.473 123.232 101.974 124.576C101.718 125.256 101.536 125.814 100.947 126.298C100.886 126.358 100.403 126.63 99.9645 126.826C99.6472 126.872 99.3298 126.917 98.9974 126.932C97.9547 126.977 96.8968 127.007 95.8692 126.856C94.9625 126.721 94.1012 126.298 93.1642 126.283C91.6077 126.252 90.1268 127.053 88.7365 125.935C87.9355 125.301 87.3915 124.108 87.1951 123.126C87.6635 125.512 86.3941 128.367 89.7338 129.424C90.293 129.605 90.9126 129.635 91.4415 129.907C92.1215 130.239 92.5446 130.858 92.998 131.432C93.4967 132.051 94.1465 132.549 94.8416 132.927C95.6879 133.38 96.6097 133.682 97.5315 133.969C98.1813 134.165 98.8463 134.346 99.5263 134.286C100.796 134.15 101.808 133.199 103.032 132.897C104.498 132.519 106.009 132.187 107.4 131.553C108.896 130.873 110.392 129.499 109.878 127.642Z" fill="#AA88E8" fill-opacity="0.3"/>
<path d="M95.0835 122.538C95.8844 122.704 96.5947 122.417 96.9876 121.692C97.4863 120.786 97.3654 119.668 97.2445 118.642C97.1992 118.294 97.1387 117.917 96.8818 117.69C96.6098 117.449 96.1867 117.449 95.8693 117.6C95.5369 117.751 95.28 118.007 95.0231 118.264C94.0408 119.276 92.9376 122.1 95.0835 122.538Z" fill="white" fill-opacity="0.3"/>
<path d="M83.0694 98.5429C82.9032 98.7242 82.6312 98.7998 82.3894 98.7242C82.3289 98.7091 82.2685 98.6789 82.2383 98.6184C82.2232 98.5882 82.2231 98.5429 82.2231 98.5127C82.2383 98.3011 82.3592 98.0744 82.5103 97.9233C82.6614 97.7722 82.9938 97.6664 83.1147 97.9082C83.2508 98.1197 83.2508 98.3464 83.0694 98.5429Z" fill="white" fill-opacity="0.3"/>
<path d="M112.704 96.851C112.84 96.7453 113.52 96.3678 114.004 96.0507C113.747 97.1681 113.822 98.4668 114.517 99.4031C113.716 99.2521 112.946 99.2521 112.099 99.1614C110.21 98.95 112.024 97.3644 112.704 96.851Z" fill="#C09DFE" fill-opacity="0.2"/>
<path d="M113.988 96.096C114.275 95.9148 114.487 95.7487 114.487 95.6581C115.696 94.8427 116.92 93.9517 118.28 93.393C119.761 92.7889 121.332 92.2755 122.919 92.0339C124.899 91.7319 126.818 91.9131 128.767 92.2302C130.309 92.4869 131.835 92.8796 133.256 93.544C136.459 95.0239 133.875 97.4098 131.835 98.3914C129.13 99.6901 126.138 100.385 123.131 100.385C121.363 100.385 119.64 100.037 117.887 99.9468C116.95 99.9015 115.922 99.7807 115.016 99.5541C114.849 99.5088 114.683 99.4786 114.502 99.4484C113.807 98.5122 113.746 97.2135 113.988 96.096Z" fill="#EDF0F7" fill-opacity="0.5"/>
<path d="M127.8 94.1781C128.178 96.7603 126.199 99.5238 123.478 99.4936C121.801 99.4785 120.35 98.4667 119.625 97.002C119.141 96.0355 118.749 93.9365 119.761 93.1814C120.637 92.5321 121.922 92.517 122.965 92.4264C123.72 92.366 124.476 92.3811 125.216 92.4717C125.896 92.5623 126.697 92.6529 127.302 93.0002C127.68 93.2267 127.74 93.7553 127.8 94.1781Z" fill="#CBD2E0"/>
<path d="M126.319 95.809C125.005 95.2201 123.554 94.9784 122.118 95.0992C121 95.1898 119.58 95.8845 119.897 97.2738C120.124 98.2855 121.272 99.0557 122.209 99.3124C123.66 99.7201 125.247 99.2973 126.41 98.3761C126.833 98.0288 127.317 97.6211 127.483 97.0775C127.664 96.4885 127.075 96.1714 126.607 95.9449C126.516 95.8996 126.425 95.8543 126.319 95.809Z" fill="#EDF0F7"/>
<path d="M139.633 92.8493C139.663 92.8191 139.678 92.7889 139.708 92.7587C141.28 90.4633 140.132 87.9415 137.835 86.7485C132.576 84.0304 125.685 85.4045 120.713 88.0774C119.141 88.923 117.736 90.0103 116.376 91.158C115.122 92.215 113.792 93.257 112.643 94.4349C111.57 95.5372 111.087 97.002 110.784 98.5121C111.374 97.9836 111.842 97.4702 112.628 96.8963C115.091 95.0993 117.388 93.3174 120.471 92.6681C125.005 91.7167 129.508 92.4265 133.679 94.3594C134.57 94.7671 135.538 95.2503 136.52 94.9181C137.744 94.4953 138.862 93.9063 139.633 92.8493Z" fill="#AA88E8" fill-opacity="0.1"/>
<path d="M111.858 98.3767C112.009 98.5279 112.266 98.5883 112.477 98.5279C112.538 98.5128 112.583 98.4825 112.613 98.4372C112.628 98.407 112.628 98.3767 112.628 98.3465C112.613 98.1652 112.507 97.9838 112.371 97.8478C112.235 97.7269 111.933 97.6211 111.812 97.8327C111.691 98.0292 111.691 98.2256 111.858 98.3767Z" fill="white" fill-opacity="0.3"/>
<path d="M63.9835 89.0288C62.7595 89.2251 61.5656 89.5422 60.4171 90.0405C59.7824 90.3123 59.1629 90.6597 58.7246 91.2033C58.2864 91.7318 58.0748 92.502 58.3468 93.1362C58.9815 94.6916 61.1576 94.3141 62.427 93.997C64.5124 93.4835 66.4316 92.4265 68.4415 91.6563C69.9527 91.0825 71.4639 90.4935 73.0506 90.2066C73.912 90.0405 74.7884 89.965 75.6649 89.965C71.9172 88.8173 67.8975 88.4247 63.9835 89.0288Z" fill="#AA88E8" fill-opacity="0.3"/>
<path d="M131.548 89.0288C132.772 89.2251 133.966 89.5422 135.114 90.0405C135.749 90.3123 136.369 90.6597 136.807 91.2033C137.245 91.7318 137.457 92.502 137.185 93.1362C136.55 94.6916 134.374 94.3141 133.105 93.997C131.019 93.4835 129.1 92.4265 127.09 91.6563C125.579 91.0825 124.068 90.4935 122.481 90.2066C121.62 90.0405 120.743 89.965 119.867 89.965C123.614 88.8173 127.634 88.4247 131.548 89.0288Z" fill="#AA88E8" fill-opacity="0.3"/>
<path opacity="0.5" d="M64.0739 65.9093C63.9076 66.7851 63.7716 67.6761 63.9832 68.5368C64.1796 69.3976 64.8143 70.213 65.6757 70.3942C67.0509 70.6661 68.1691 69.3221 68.819 68.0838C70.1035 65.562 70.4964 62.6777 69.9221 59.884C69.7559 59.0686 69.3328 58.1172 68.5016 58.0115C67.9425 57.936 67.4287 58.2984 67.0055 58.691C64.8143 60.7297 64.5877 63.1458 64.0739 65.9093Z" fill="white" fill-opacity="0.3"/>
<path d="M94.7814 110.261C94.7512 111.061 94.721 111.861 94.7058 112.662C94.6907 113.145 94.8116 113.779 95.2952 113.824C95.7788 113.87 95.9903 113.251 96.0508 112.767C96.625 107.799 95.6428 102.589 94.4338 97.7571C94.9174 101.925 94.9325 106.063 94.7814 110.261Z" fill="white" fill-opacity="0.3"/>
<path d="M65.3739 160.426C65.2983 162.042 65.0716 164.246 65.0868 165.334C65.1321 168.278 65.1623 171.223 65.117 174.168C65.0867 180.283 64.7996 186.414 64.1196 192.5C63.7418 195.505 63.3791 198.556 62.7444 201.53C62.0493 204.46 60.8403 207.239 59.1478 209.745C56.0197 214.427 51.4559 218.005 46.5597 220.693C38.1878 225.103 28.7127 226.84 19.434 228.183C13.8426 228.984 8.41751 230.388 2.81104 231.173C18.9202 229.467 26.2948 228.244 31.9012 227.277C47.7082 224.559 62.1248 216.042 65.2681 207.223C67.7313 200.292 68.5322 193.935 68.6229 186.641C68.7287 178.955 68.8496 171.027 68.5625 163.34C68.0033 162.812 66.1597 161.045 65.3739 160.426Z" fill="white" fill-opacity="0.3"/>
<path d="M67.7614 101.895C70.0584 102.257 72.4007 102.62 74.7128 102.333C76.6773 102.091 78.5512 101.396 80.3948 100.687C81.3318 100.339 82.314 99.9467 82.9487 99.1916C81.7398 99.2067 80.5611 99.5994 79.3824 99.9014C76.1787 100.702 72.7785 100.732 69.5597 99.9618C67.3685 99.4332 65.2075 98.5423 62.9709 98.6631C63.0767 98.6631 63.4092 99.4483 63.4847 99.5541C63.7568 99.9467 64.1497 100.294 64.5275 100.581C65.4795 101.321 66.5827 101.713 67.7614 101.895Z" fill="#AA88E8" fill-opacity="0.1"/>
<path d="M66.6734 98.8443C65.3738 98.3158 64.044 97.7419 62.971 96.8057C62.6688 96.5339 62.5328 96.1564 62.1399 96.0204C61.2634 95.7184 60.9914 97.153 61.1274 97.6966C61.3087 98.4819 61.7319 98.8141 62.2608 99.3728C63.0164 100.173 64.4066 100.732 65.4494 101.094C66.6734 101.532 67.9881 101.729 69.2878 101.759C71.8719 101.834 74.4862 101.276 76.8739 100.324C76.9041 100.309 76.9343 100.294 76.9645 100.279C76.6623 100.4 75.9823 100.249 75.6498 100.249C75.1965 100.249 74.728 100.249 74.2746 100.249C73.4435 100.264 72.6275 100.339 71.7963 100.279C70.0131 100.143 68.3055 99.5087 66.6734 98.8443Z" fill="#AA88E8" fill-opacity="0.3"/>
<path d="M128.208 101.88C125.911 102.242 123.569 102.605 121.257 102.318C119.292 102.076 117.419 101.381 115.575 100.672C114.638 100.324 113.656 99.9317 113.021 99.1766C114.23 99.1917 115.409 99.5844 116.587 99.8864C119.791 100.687 123.191 100.717 126.41 99.9468C128.601 99.4182 130.762 98.5273 132.999 98.6481C132.893 98.6481 132.561 99.4333 132.485 99.539C132.213 99.9317 131.82 100.279 131.442 100.566C130.505 101.306 129.387 101.698 128.208 101.88Z" fill="#AA88E8" fill-opacity="0.1"/>
<path d="M129.296 98.8292C130.596 98.3006 131.926 97.7268 132.999 96.7906C133.301 96.5187 133.437 96.1412 133.83 96.0053C134.706 95.7033 134.978 97.1379 134.842 97.6815C134.661 98.4668 134.238 98.799 133.709 99.3577C132.953 100.158 131.563 100.717 130.52 101.079C129.296 101.517 127.982 101.713 126.682 101.744C124.098 101.819 121.483 101.26 119.096 100.309C119.066 100.294 119.035 100.279 119.005 100.264C119.307 100.385 119.987 100.234 120.32 100.234C120.773 100.234 121.242 100.234 121.695 100.234C122.526 100.249 123.342 100.324 124.173 100.264C125.972 100.128 127.664 99.4936 129.296 98.8292Z" fill="#AA88E8" fill-opacity="0.3"/>
<path d="M93.2095 154.974C92.333 155.171 91.4565 155.443 90.6254 155.775C90.2022 155.941 89.0235 156.364 88.9933 156.907C88.9782 157.3 90.2174 157.194 90.5045 157.194C93.4664 157.27 96.4434 157.3 99.4053 157.285C100.176 157.285 107.581 157.33 107.49 156.726C107.309 155.609 103.878 154.989 103.017 154.854C99.7529 154.385 96.383 154.265 93.2095 154.974Z" fill="#AA88E8" fill-opacity="0.1"/>
<path d="M94.2672 136.868C94.9019 136.748 95.5668 136.657 96.1562 136.914C96.534 137.095 96.8362 137.397 97.1989 137.593C97.9243 137.986 98.8159 137.91 99.6017 137.699C100.403 137.488 101.173 137.155 101.989 137.095C103.501 136.974 104.936 137.774 106.221 138.59C104.634 138.303 103.002 138.016 101.415 138.333C100.176 138.59 98.9972 139.209 97.7278 139.224C96.1864 139.239 94.781 138.348 93.2547 138.107C91.2449 137.79 89.2501 138.635 87.3914 139.451C89.6732 138.439 91.7738 137.367 94.2672 136.868Z" fill="white" fill-opacity="0.3"/>
<path d="M76.1634 142.894C76.1029 143.317 76.3901 143.709 76.7074 143.996C77.463 144.706 78.4453 145.159 79.4729 145.295C79.896 145.34 80.3796 145.325 80.6818 145.008C80.9992 144.676 80.984 144.132 80.7725 143.724C80.5609 143.317 80.1831 143.03 79.8204 142.758C79.0044 142.154 76.4354 140.946 76.1634 142.894Z" fill="white" fill-opacity="0.3"/>
<path d="M119.625 142.894C119.685 143.317 119.398 143.709 119.081 143.996C118.325 144.706 117.343 145.159 116.315 145.295C115.892 145.34 115.409 145.325 115.107 145.008C114.789 144.676 114.804 144.132 115.016 143.724C115.227 143.317 115.605 143.03 115.968 142.758C116.784 142.154 119.353 140.946 119.625 142.894Z" fill="white" fill-opacity="0.3"/>
<path d="M159.535 225.163C156.226 224.152 152.931 222.777 149.864 221.207C140.963 216.646 134.57 209.398 132.5 199.613C132.213 198.284 131.745 195.747 131.382 194.448C130.188 187.305 130.415 171.797 130.536 167.931C130.581 166.602 130.672 161.891 130.793 159.927C129.977 160.758 128.843 161.921 127.861 162.54C126.319 163.522 124.944 164.714 123.433 165.741C121.907 166.768 120.32 167.735 118.748 168.701C117.403 169.517 116.104 170.423 114.759 171.208C110.709 173.594 106.387 175.723 101.717 176.312C91.8948 177.58 83.0695 172.914 74.758 167.538C73.7455 166.874 72.8841 166.27 71.7659 165.756C72.5517 166.119 73.5793 168.173 74.1384 168.882C74.9696 169.909 75.9821 170.876 76.6923 171.993C78.1128 174.183 80.0471 175.965 81.8606 177.867C84.626 180.752 87.4519 183.666 90.7614 185.931C94.1162 188.227 97.9546 189.601 101.959 190.356C103.319 190.613 104.694 190.779 106.085 190.733C110.467 190.552 114.608 188.045 118.99 188.393C120.441 188.498 122.133 189.057 123.433 189.706C126.727 191.383 127.755 195.49 127.982 198.888C127.982 198.888 127.997 198.873 128.027 198.843C128.36 205.14 131.216 211.799 135.749 215.846C137.351 217.281 139.21 218.368 141.099 219.38C149.713 223.955 159.308 226.658 169.04 227.277C165.776 226.975 162.633 226.1 159.535 225.163Z" fill="#AA88E8" fill-opacity="0.3"/>
<path d="M53.7829 28.6252C53.39 30.105 53.1029 31.8718 54.1607 32.9893C54.5838 33.4423 55.1883 33.6991 55.6266 34.137C56.6693 35.1487 56.6693 36.7947 56.5937 38.2444C56.4577 40.7965 56.3217 43.3334 56.2008 45.8855C57.3795 45.4778 58.5582 45.07 59.737 44.6623C58.4222 45.7798 57.6969 47.4711 57.44 49.1775C57.168 50.8839 57.304 52.6205 57.4551 54.342C58.6489 52.696 60.1148 51.2463 61.7922 50.0835C63.1673 49.1171 64.7843 48.2563 65.4794 46.7311C65.6457 46.3838 65.7212 45.9157 65.4492 45.6439C65.1772 45.3871 64.7541 45.4475 64.3763 45.4324C63.4242 45.4022 62.578 44.7227 62.2153 43.8469C61.8375 42.971 61.9131 41.9592 62.2304 41.0834C60.7646 41.7327 58.8454 40.872 58.3467 39.3619C57.8631 37.9122 58.5885 36.387 59.072 34.9373C59.5405 33.4876 59.6463 31.6 58.392 30.7393C57.7271 30.2863 56.775 30.2107 56.3368 29.5312C56.0043 29.0178 56.095 28.3382 56.2008 27.7342C56.8657 23.9741 58.1351 19.8213 58.1804 16.031C56.9262 17.375 56.3368 20.3952 55.7474 22.1771C55.0976 24.0194 53.7829 26.6469 53.7829 28.6252Z" fill="white" fill-opacity="0.3"/>
<path d="M90.4892 21.7241C88.5549 23.1134 88.7815 26.5564 90.867 27.6889C91.7888 28.1873 93.028 28.3836 93.4511 29.3349C93.9649 30.4826 92.8768 31.2679 92.9675 32.2947C93.0733 33.4424 94.6147 34.3484 95.5667 34.6354C96.9268 35.0431 98.3775 34.9072 99.798 34.8317C103.38 34.6354 106.976 34.8166 110.527 35.3602C109.515 35.2092 108.578 34.5296 107.641 34.1672C106.432 33.6991 105.238 33.3065 103.939 33.1857C102.488 33.0498 99.2842 32.7024 99.0576 30.8148C98.9971 30.2561 99.2087 29.6974 99.2238 29.1235C99.2691 27.3567 97.4255 26.1638 95.733 25.6805C94.0404 25.1973 92.1212 24.9708 90.9123 23.6872C92.0155 22.9171 93.2546 21.86 93.0582 20.516C92.8466 19.0965 91.2296 18.4774 89.9451 17.8734C86.6357 16.318 84.656 13.4186 83.4773 10.0813C83.3866 14.9287 85.8196 19.8667 90.4892 21.7241Z" fill="white" fill-opacity="0.3"/>
<path d="M101.506 24.6839C102.171 24.8953 102.896 25.1823 103.214 25.8014C103.607 26.5715 103.183 27.5229 103.44 28.3535C103.773 29.4709 105.103 29.8786 106.221 30.1958C109.561 31.1169 112.734 32.6421 115.56 34.6656C115.076 34.0465 114.638 33.3216 114.623 32.5213C114.593 31.736 115.092 30.8753 115.877 30.7394C113.55 29.1085 109.878 30.1203 107.944 28.0363C108.563 27.5531 108.986 26.8434 109.137 26.0732C108.034 24.4574 105.828 24.1554 103.894 23.8836C101.959 23.6118 99.7228 23.0077 98.9975 21.1805C98.8615 20.8332 98.7708 20.4557 98.4988 20.2141C98.3023 20.048 98.0454 19.9725 97.7885 19.8969C96.5947 19.5798 95.4009 19.2627 94.207 18.9607C96.5191 19.3986 95.5973 20.652 96.3831 22.1017C97.3049 23.8685 99.6473 24.0648 101.506 24.6839Z" fill="white" fill-opacity="0.3"/>
<path d="M43.5976 46.2782C43.1594 49.7967 42.9025 53.5719 44.6252 56.6676C45.1844 57.6793 45.94 58.5703 46.3631 59.6425C46.9827 61.213 46.8013 62.9496 46.9373 64.6258C47.1489 67.4798 48.2672 70.2433 50.0806 72.448C50.4282 72.8708 50.8211 73.3088 50.8815 73.8524C50.9571 74.4262 50.6246 74.985 50.3677 75.4984C48.1765 79.8022 49.2797 85.1781 47.2698 89.5724C46.2724 91.747 45.2902 94.6312 45.5773 97.2286C43.9452 94.299 42.3131 93.8158 40.6357 92.4869C39.6837 90.554 37.8854 71.5571 38.505 64.218C38.8072 60.5787 38.9734 56.6072 39.593 53.0132C41.3913 42.5634 44.0359 33.2008 50.2166 23.2644C46.1666 30.2863 44.5799 38.3351 43.5976 46.2782Z" fill="white" fill-opacity="0.3"/>
<path d="M153.657 44.9191C153.4 43.0013 153.067 41.0835 152.568 39.2865C151.662 36.0247 149.803 32.7176 148.277 29.6672C146.01 25.1218 143.426 20.501 139.995 16.7106C139.678 16.3482 139.346 16.0009 138.998 15.6687C135.991 12.6485 132.334 10.4589 128.556 8.54105C124.899 6.68364 121.03 4.66012 116.995 3.87488C121.635 4.69033 125.005 8.58636 128.813 11.3498C129.976 12.1955 131.2 12.9354 132.243 13.917C133.815 15.3969 134.903 17.3147 135.945 19.2023C137.411 21.8751 138.877 24.5933 139.814 27.5078C140.343 29.1689 140.978 31.1169 140.57 32.8535C140.524 33.0498 140.464 33.2461 140.313 33.3669C140.011 33.6236 139.542 33.4273 139.195 33.2159C138.318 32.6874 137.426 32.1589 136.55 31.6303C137.789 34.122 138.787 36.7344 139.482 39.4224C139.557 39.7395 139.572 40.1774 139.27 40.268C139.119 40.3133 138.968 40.2378 138.817 40.1623C135.371 38.4106 133.089 35.0884 129.553 33.5481C128.405 33.0498 126.954 33.0951 125.896 32.3854C128.798 34.3485 130.959 36.2814 133.21 38.9845C136.233 42.6238 139.376 46.5349 139.98 51.2162C134.344 42.065 127.332 37.6254 114.593 37.2026C122.708 39.7395 129.266 41.5969 135.069 47.8034C136.898 49.7665 138.59 51.8957 139.859 54.2515C140.524 55.4746 141.068 56.7582 141.612 58.0267C142.67 60.5032 144.076 63.0402 144.665 65.6526C144.967 66.9966 145.224 68.3406 145.436 69.6997C145.798 71.995 145.844 74.3508 146.252 76.631C146.599 78.6394 146.781 80.6629 147.007 82.6864C147.128 83.7284 147.264 84.7553 147.43 85.7972C147.582 86.6429 147.672 87.6395 148.201 88.3493C147.355 87.715 146.962 87.2469 146.025 84.4986C146.176 86.9449 146.781 89.3611 147.808 91.5809C148.7 93.5289 150.8 96.4736 152.523 94.0725C154.337 91.5658 153.657 85.465 153.203 82.6261C153.022 81.5086 152.78 80.4062 152.84 79.2737C152.886 78.2619 153.173 77.2954 153.415 76.3139C155.485 68.2047 155.304 59.7482 154.352 51.5031C154.155 49.389 153.959 47.1389 153.657 44.9191Z" fill="#AA88E8" fill-opacity="0.5"/>
<path d="M94.6299 128.412C94.0103 127.793 93.1036 127.521 92.2271 127.476C91.8644 127.461 89.6128 127.43 89.8848 128.049C89.9452 128.185 90.0661 128.276 90.187 128.351C91.26 129.001 92.5596 128.744 93.7232 129.122C94.4183 129.348 95.0681 129.741 95.5971 130.254C95.4762 129.303 94.9926 128.759 94.6299 128.412Z" fill="#6B1FE0" fill-opacity="0.3"/>
<path d="M92.8468 118.808C92.5597 121.254 91.6228 123.942 93.3606 126.071C92.7864 125.739 92.3633 125.165 92.1215 124.546C91.3357 122.643 92.0308 120.559 92.8468 118.808Z" fill="#6B1FE0" fill-opacity="0.3"/>
<path d="M59.7671 93.997C61.1574 92.2302 63.1068 90.856 65.2224 90.1009C66.2954 89.7234 67.4137 89.5422 68.5168 89.361C70.1791 89.1194 71.8716 88.9382 73.5642 89.0439C75.8309 89.21 78.1128 89.814 80.0169 91.0976C81.4374 92.0338 82.6766 93.1966 83.8251 94.4198C81.9814 93.2117 80.2133 91.8375 78.2035 90.9617C77.2212 90.5238 76.1785 90.1764 75.1207 89.9197C72.9748 89.4516 70.7383 89.1496 68.5622 89.5875C67.2021 89.8593 65.9478 90.418 64.6935 90.9919C63.9833 91.3241 63.1975 91.7167 62.5174 92.1396C61.5805 92.6983 60.6889 93.3476 59.8124 94.0423L59.7671 93.997Z" fill="#6B1FE0" fill-opacity="0.3"/>
<path d="M88.6155 120.454C87.739 122.311 87.0741 124.304 87.3612 126.358C87.4821 127.128 87.6634 127.944 88.2075 128.502C88.4795 128.759 88.8724 128.91 89.2955 128.94C88.8875 129.076 88.4039 129.031 87.9808 128.789C87.195 128.276 86.8474 127.34 86.6661 126.479C86.2429 124.319 87.0892 121.994 88.6155 120.454Z" fill="#6B1FE0" fill-opacity="0.3"/>
<path d="M96.2922 130.798C97.4256 131.312 98.7252 131.266 99.8284 130.707C99.0124 131.75 97.1687 131.795 96.2922 130.798Z" fill="#6B1FE0" fill-opacity="0.3"/>
<path d="M81.6338 86.8693C76.9642 85.6914 72.476 83.8642 67.8669 82.49C65.6153 81.8256 63.2276 81.2367 60.9155 81.8709C58.5883 82.5051 56.6087 83.9397 54.7046 85.3743L54.1001 85.8273C54.7197 84.9515 55.3997 84.0907 56.11 83.2904C56.654 82.6712 57.2282 82.0672 57.8176 81.4934C58.9812 80.3155 60.1901 79.1376 61.6258 78.292C63.1521 77.2802 64.6935 76.9178 66.522 77.1594C69.0003 77.4916 71.388 78.1712 73.7757 78.8658C75.1508 79.2886 77.1154 79.938 78.4754 80.3004C80.0622 80.7081 81.6791 80.995 83.281 81.4028C84.097 81.5689 84.9735 81.9464 85.5024 82.641C86.3184 83.6377 86.7567 84.8307 87.0287 86.0538C87.1043 86.4616 87.1043 86.8844 87.0136 87.2921C87.074 86.8844 87.0136 86.4767 86.9229 86.084C86.5754 84.9364 86.0464 83.7736 85.2455 82.8977C84.6864 82.2786 83.9912 82.037 83.1752 81.9162C82.3743 81.7652 81.5582 81.6142 80.7573 81.4783C79.1252 81.2064 77.4932 80.844 75.9215 80.3457C74.5161 79.938 72.5818 79.349 71.1915 78.9715C70.4057 78.7601 69.6048 78.5487 68.819 78.3524C67.2776 77.99 65.6606 77.5973 64.089 77.9145C63.3334 78.0655 62.608 78.4128 61.9129 78.8205C60.4924 79.636 59.2683 80.693 58.0745 81.7954C56.8656 82.8977 55.7019 84.0756 54.7197 85.3743L54.5535 85.2082C55.037 84.8458 55.5206 84.4984 56.0193 84.1511C58.5732 82.3239 61.1875 80.7987 64.4517 81.1611C65.6757 81.2669 66.8847 81.5538 68.0332 81.9011C72.6876 83.2753 77.0851 85.2233 81.6338 86.8693Z" fill="#6B1FE0" fill-opacity="0.3"/>
<path d="M74.7012 96.0945C75.2139 94.8715 74.6374 93.4647 73.4135 92.9523C72.1896 92.4399 70.7818 93.016 70.269 94.239C69.7563 95.462 70.3328 96.8689 71.5567 97.3813C72.7806 97.8936 74.1884 97.3176 74.7012 96.0945Z" fill="#6B1FE0" fill-opacity="0.3"/>
<path d="M72.4913 99.5542C70.2094 99.5844 68.0031 97.9535 67.8973 95.5374C67.8822 94.6313 68.0182 93.3628 68.7889 92.789C69.3934 92.4115 70.149 92.4417 70.8139 92.3964C71.3579 92.3662 71.9019 92.3209 72.446 92.3058C73.6851 92.2756 74.9696 92.336 76.1635 92.7286C77.0853 93.1061 77.1306 94.284 77.176 95.1296C77.1911 97.7119 74.9999 99.5693 72.4913 99.5542ZM72.4913 99.4938C74.6372 99.5089 76.4204 97.5458 76.5564 95.4921C76.5866 94.8125 76.5866 93.9216 76.1937 93.3779C75.8764 93.091 75.2719 93.0155 74.8336 92.9249C74.0327 92.7588 73.262 92.6531 72.446 92.6078C71.4033 92.5927 70.2397 92.4719 69.2423 92.7739C68.2298 93.1363 68.3053 94.6162 68.3658 95.5072C68.5925 97.5609 70.3303 99.5089 72.4913 99.4938Z" fill="#6B1FE0" fill-opacity="0.3"/>
<path d="M98 176.991C93.0585 177.112 89.4316 176.04 84.9736 174.092C76.7226 170.604 69.4841 165.001 63.4545 158.448C59.5254 154.129 55.9439 149.342 53.7225 143.89C52.5286 141.051 51.9393 137.941 51.3499 134.981C50.277 129.56 48.9018 124.199 47.4057 118.868C47.1337 117.781 46.9373 116.694 46.6955 115.606C46.5292 114.836 46.3328 113.93 46.227 113.145C45.9097 110.668 45.7283 108.162 45.6225 105.67C45.5016 102.348 45.5319 99.0104 45.547 95.6882C45.6528 98.1346 45.8492 103.314 46.0306 105.655C46.1817 108.131 46.4386 110.623 46.8164 113.069C46.9977 114.142 47.1035 115.274 47.3151 116.346C47.6173 117.69 47.9649 119.019 48.4031 120.333C50.0201 125.059 51.5464 129.846 52.6042 134.739C53.4807 139.088 54.3723 143.316 56.3217 147.318C60.961 157.466 70.149 164.579 79.6392 169.97C81.5433 171.057 83.4927 172.114 85.4572 173.08C87.3915 174.001 89.4619 174.983 91.5322 175.557C93.6327 176.176 95.8239 176.493 98.0151 176.629L98 176.991Z" fill="#6B1FE0" fill-opacity="0.3"/>
<path d="M71.2974 94.4504C71.2974 94.7677 71.116 95.0246 70.5418 95.0246C69.9826 95.0246 69.5142 94.7677 69.5142 94.4504C69.5142 94.133 69.9675 93.8761 70.5418 93.8761C71.116 93.8761 71.2974 94.133 71.2974 94.4504Z" fill="white" fill-opacity="0.7"/>
<path d="M74.6826 96.6097C74.6826 96.8213 74.5769 96.9875 74.2746 96.9875C73.9573 96.9875 73.8062 96.8213 73.8062 96.6097C73.8062 96.3982 73.9573 96.2319 74.2746 96.2319C74.592 96.2319 74.6826 96.3982 74.6826 96.6097Z" fill="white" fill-opacity="0.7"/>
<path d="M97.9849 176.614C100.176 176.478 102.367 176.161 104.468 175.542C106.583 174.938 108.578 174.017 110.543 173.065C112.522 172.099 114.457 171.042 116.361 169.955C125.851 164.564 135.054 157.451 139.693 147.303C141.628 143.301 142.519 139.058 143.396 134.724C144.529 129.273 146.388 124.018 148.08 118.732C148.383 117.675 148.655 116.603 148.836 115.516C149.335 112.239 149.788 108.947 149.985 105.64C150.181 103.239 150.347 98.1045 150.468 95.6732C150.468 97.893 150.498 100.113 150.468 102.333C150.423 105.942 150.257 109.551 149.788 113.145C149.607 114.519 149.244 115.878 148.972 117.237C148.64 118.868 148.186 120.499 147.718 122.085C146.509 126.343 145.557 130.662 144.665 134.981C144.212 137.14 143.819 139.345 143.139 141.504C142.806 142.561 142.414 143.649 141.96 144.676C137.245 155.186 126.924 165.334 117.026 171.102C115.091 172.22 113.082 173.216 111.026 174.092C107.944 175.436 104.725 176.584 101.355 176.871C100.237 176.976 99.1182 177.007 98 176.992L97.9849 176.614Z" fill="#6B1FE0" fill-opacity="0.3"/>
<path d="M114.381 86.8694C118.915 85.2234 123.327 83.2754 127.952 81.871C129.115 81.5237 130.309 81.2368 131.533 81.131C134.797 80.7686 137.427 82.2938 139.965 84.121C140.464 84.4683 140.948 84.8308 141.431 85.1781L141.265 85.3442C140.283 84.0455 139.119 82.8677 137.91 81.7653C136.716 80.6478 135.492 79.5908 134.057 78.7904C133.362 78.3827 132.636 78.0354 131.881 77.8844C130.309 77.5672 128.707 77.9599 127.151 78.3223C126.35 78.5186 125.564 78.73 124.778 78.9414C123.403 79.3038 121.438 79.9079 120.048 80.3156C118.476 80.8139 116.829 81.1764 115.212 81.4482C114.396 81.5841 113.595 81.7351 112.794 81.8861C111.993 82.0069 111.283 82.2636 110.724 82.8677C109.923 83.7435 109.394 84.9063 109.047 86.0539C108.956 86.4466 108.896 86.8543 108.956 87.262C108.865 86.8543 108.865 86.4315 108.941 86.0237C109.213 84.8006 109.636 83.6076 110.467 82.6109C110.996 81.9314 111.873 81.5388 112.689 81.3727C114.29 80.98 115.907 80.678 117.494 80.2703C118.854 79.9079 120.834 79.2585 122.194 78.8357C124.582 78.1411 126.969 77.4615 129.448 77.1293C131.276 76.8877 132.818 77.2652 134.344 78.2619C135.779 79.1226 136.988 80.2854 138.152 81.4633C138.741 82.0371 139.316 82.6411 139.86 83.2603C140.57 84.0606 141.265 84.9063 141.869 85.7972L141.265 85.3442C138.439 83.1848 135.296 81.0555 131.563 81.6747C130.4 81.8257 129.251 82.1277 128.103 82.475C123.539 83.8643 119.051 85.6915 114.381 86.8694Z" fill="#6B1FE0" fill-opacity="0.3"/>
<path d="M101.476 104.764C101.581 106.334 101.748 108.615 101.884 110.2C101.989 112.012 102.216 113.84 102.594 115.621C102.79 116.512 102.987 117.388 103.213 118.264C103.833 120.408 104.74 122.93 103.516 125.044C103.274 125.452 102.956 125.815 102.579 126.086L102.548 126.041C104.528 123.867 103.274 120.892 102.715 118.385C102.292 116.588 102.276 114.746 101.959 112.949C101.808 112.058 101.551 111.167 101.43 110.246C101.188 108.433 101.188 106.576 101.476 104.764Z" fill="#6B1FE0" fill-opacity="0.3"/>
<path d="M106.251 90.2218C103.939 92.4869 102.987 95.7185 102.216 98.7689C101.959 99.8109 101.733 100.853 101.506 101.91C101.536 101.638 101.551 101.381 101.581 101.11C102.05 97.3192 103.077 92.653 106.251 90.2218Z" fill="#6B1FE0" fill-opacity="0.3"/>
<path d="M101.37 128.412C101.989 127.793 102.896 127.521 103.773 127.476C104.135 127.461 106.387 127.43 106.115 128.049C106.054 128.185 105.934 128.276 105.813 128.351C104.74 129.001 103.44 128.744 102.276 129.122C101.581 129.348 100.932 129.741 100.403 130.254C100.539 129.303 101.022 128.759 101.37 128.412Z" fill="#6B1FE0" fill-opacity="0.3"/>
<path d="M78.3699 142.048C82.4652 145.672 88.1774 143.664 93.0888 144.6C94.7813 144.917 96.4134 145.415 98.0001 145.37V146.457C97.0934 146.427 96.2169 146.261 95.3858 146.05C94.5546 145.838 93.7386 145.597 92.9376 145.4C91.3358 145.008 89.6584 144.932 87.9508 144.887C84.6413 144.796 80.8633 144.54 78.3699 142.048Z" fill="#6B1FE0" fill-opacity="0.3"/>
<path d="M81.8906 140.991C85.3361 140.326 88.4945 138.756 91.9249 137.956C92.62 137.82 93.3454 137.744 94.0858 137.82C94.917 137.91 95.6726 138.167 96.4282 138.439C96.6851 138.529 96.9571 138.65 97.1838 138.756C97.486 138.892 97.8033 139.013 98.03 139.013V139.738C97.35 139.692 96.9722 139.375 96.4433 139.149C93.8894 138.016 92.6351 138.167 90.0057 138.877C87.3006 139.602 84.641 140.568 81.8906 140.991Z" fill="#6B1FE0" fill-opacity="0.3"/>
<path d="M85.4573 151.244C87.6334 153.011 90.2628 154.068 93.0283 154.249C94.6755 154.37 96.3529 154.446 97.985 154.385V155.473C96.2773 155.397 94.615 155.201 92.9376 154.944C90.1419 154.536 87.4671 153.192 85.4573 151.244Z" fill="#6B1FE0" fill-opacity="0.3"/>
<path d="M110.513 151.244C108.503 153.177 105.828 154.521 103.032 154.929C101.355 155.186 99.6925 155.397 97.9849 155.458V154.37C99.6169 154.431 101.309 154.355 102.942 154.234C105.707 154.068 108.336 153.011 110.513 151.244Z" fill="#6B1FE0" fill-opacity="0.3"/>
<path d="M65.6458 92.1546C64.1648 92.653 63.107 93.106 61.6109 93.5741C60.3264 93.9819 58.9966 94.1933 57.6516 94.1782C58.9059 95.2805 61.1575 96.2017 61.4447 96.1866C61.6411 96.0054 61.9131 95.7487 62.2003 95.5976C64.7088 94.2537 67.2476 92.7587 70.0735 92.4265C73.2168 92.0489 78.2188 93.6949 81.0749 95.0993C78.1432 92.7587 75.6951 92.1849 73.3528 91.7167C71.0407 91.2486 67.8974 91.3996 65.6458 92.1546Z" fill="#6B1FE0" fill-opacity="0.3"/>
<path d="M130.37 92.1546C131.851 92.653 132.908 93.106 134.404 93.5741C135.689 93.9819 137.019 94.1933 138.364 94.1782C137.109 95.2805 134.888 96.1715 134.616 96.1413C134.299 96.1262 134.102 95.7487 133.83 95.5976C131.322 94.2537 128.783 92.7587 125.957 92.4265C122.814 92.0489 117.812 93.6949 114.956 95.0993C117.887 92.7587 120.335 92.1849 122.678 91.7167C124.975 91.2486 128.118 91.3996 130.37 92.1546Z" fill="#6B1FE0" fill-opacity="0.3"/>
<path d="M78.5363 141.459C78.2189 141.58 78.1585 141.972 78.3852 142.214C79.2768 143.165 81.3622 143.92 82.4653 144.026C80.7124 143.573 80.259 142.622 79.3977 141.837C79.171 141.64 78.8687 141.338 78.5514 141.444L78.5363 141.459Z" fill="#6B1FE0" fill-opacity="0.3"/>
<path d="M117.645 142.048C115.167 144.54 111.389 144.796 108.064 144.872C106.372 144.932 104.695 144.993 103.078 145.385C102.262 145.582 101.461 145.823 100.629 146.035C99.7983 146.246 98.9218 146.412 98.0151 146.442V145.355C99.6019 145.4 101.234 144.902 102.926 144.585C107.823 143.664 113.55 145.672 117.645 142.048Z" fill="#6B1FE0" fill-opacity="0.3"/>
<path d="M114.124 140.991C111.359 140.568 108.714 139.602 106.024 138.862C103.395 138.152 102.14 138.001 99.5865 139.133C99.0576 139.36 98.6798 139.677 97.9998 139.722V138.998C98.3927 139.013 98.9216 138.68 99.3296 138.529C102.035 137.457 103.41 137.654 106.13 138.514C108.805 139.375 111.374 140.447 114.124 140.991Z" fill="#6B1FE0" fill-opacity="0.3"/>
<path d="M117.479 141.459C117.796 141.58 117.857 141.972 117.63 142.214C116.739 143.165 114.653 143.92 113.55 144.026C115.303 143.573 115.756 142.622 116.618 141.837C116.844 141.64 117.147 141.338 117.464 141.444L117.479 141.459Z" fill="#6B1FE0" fill-opacity="0.3"/>
<path d="M45.5772 97.2436C44.3078 95.4919 42.6606 93.9667 40.6357 93.1965C39.8045 92.9096 38.6258 92.7737 37.976 93.3928C37.3564 94.0573 37.568 95.3257 37.5226 96.2016C37.5529 98.3912 37.7342 100.596 38.1422 102.755C38.7618 106.017 39.8801 109.173 40.6206 112.405C40.8623 113.492 41.0739 114.579 41.2855 115.667C42.2829 120.861 43.5674 126.645 48.0556 129.952C48.6298 130.33 50.3223 131.598 50.821 130.858L50.9117 130.903C50.413 131.915 48.4334 130.783 47.7382 130.42C45.7435 129.288 44.2021 127.491 43.0838 125.512C41.3913 122.568 40.7566 119.125 40.2579 115.833C39.6383 111.438 38.8374 107.12 37.7795 102.816C37.2204 100.4 36.6008 97.908 36.5555 95.3862C36.4648 94.0724 36.767 92.6227 38.2027 92.1848C41.225 91.3844 44.4741 94.6915 45.5772 97.2436Z" fill="#6B1FE0" fill-opacity="0.3"/>
<path d="M39.6381 104.628C39.1697 103.314 38.8825 101.94 38.671 100.566C38.5047 99.6447 38.3083 98.7084 38.3839 97.7571C38.4141 97.4701 38.4141 97.2587 38.5652 96.9718C38.9581 96.3678 39.759 96.8208 40.1519 97.1681C43.3254 100.249 45.97 104.326 46.0758 108.856L46.0002 108.871C45.5922 107.059 44.9575 105.338 44.1112 103.722C42.9174 101.532 41.5271 99.388 39.7892 97.591C39.6079 97.4399 39.1697 97.0473 38.9732 97.2436C38.7465 97.8326 38.7768 98.5272 38.8221 99.1463C39.0185 100.974 39.1848 102.831 39.6381 104.628Z" fill="#6B1FE0" fill-opacity="0.3"/>
<path d="M41.7991 105.156C43.0231 106.349 44.0658 107.784 44.5645 109.43C45.0179 111.091 44.7761 112.843 44.7156 114.549C44.6854 115.229 44.5494 116.316 44.7308 116.95C44.9272 117.675 45.441 118.279 46.0153 118.838C47.1789 119.986 48.7354 121.209 48.9469 122.96L48.8714 122.976C48.1762 121.39 46.7104 120.544 45.4712 119.397C42.0257 116.195 46.0153 114.081 43.9752 109.626C43.4009 108.071 42.5698 106.651 41.7991 105.156Z" fill="#6B1FE0" fill-opacity="0.3"/>
<path d="M150.453 97.1077C151.481 94.6765 154.095 92.0036 156.921 92.0489C158.946 92.1546 159.49 93.7704 159.324 95.5372C159.263 98.0591 158.629 100.521 158.069 102.937C157.012 107.225 156.226 111.529 155.606 115.908C155.108 119.185 154.473 122.613 152.78 125.543C151.39 127.989 149.29 130.194 146.584 131.13C146.101 131.326 145.24 131.508 144.968 130.904L145.058 130.858C145.572 131.613 147.28 130.315 147.824 129.967C148.7 129.333 149.456 128.578 150.121 127.747C153.566 123.429 154.08 117.736 155.244 112.496C155.984 109.264 157.102 106.123 157.722 102.876C158.16 100.717 158.326 98.5272 158.357 96.3527C158.326 95.0087 158.689 93.0909 156.845 92.9701C155.848 92.8795 154.82 93.3023 153.959 93.8006C152.569 94.6161 151.42 95.7788 150.453 97.1077Z" fill="#6B1FE0" fill-opacity="0.3"/>
<path d="M156.241 104.628C156.679 102.922 156.86 101.11 157.027 99.3578C157.072 98.6481 157.147 97.8779 156.891 97.2135C156.755 97.0927 156.528 97.2286 156.347 97.3645C155.833 97.742 155.455 98.2705 155.017 98.7689C154.443 99.4484 153.898 100.143 153.37 100.838C151.768 102.952 150.589 105.277 150.075 107.92H150C149.985 106.123 150.453 104.311 151.299 102.68C152.221 100.853 153.642 99.3578 155.002 97.8779C155.47 97.3645 156.588 96.1262 157.284 96.9266C157.495 97.289 157.465 97.6514 157.495 98.0289C157.525 98.9501 157.314 99.8259 157.163 100.717C156.981 102.046 156.679 103.36 156.241 104.628Z" fill="#6B1FE0" fill-opacity="0.3"/>
<path d="M154.08 105.156C153.324 106.651 152.478 108.071 151.889 109.626C149.848 114.081 153.838 116.195 150.392 119.397C149.153 120.544 147.687 121.39 146.992 122.976L146.917 122.96C147.128 121.209 148.685 119.986 149.848 118.838C150.423 118.279 150.936 117.675 151.133 116.95C151.329 116.316 151.178 115.214 151.148 114.549C151.088 112.858 150.861 111.091 151.299 109.43C151.813 107.769 152.856 106.349 154.08 105.156Z" fill="#6B1FE0" fill-opacity="0.3"/>
<path d="M107.46 120.454C108.986 121.994 109.833 124.319 109.394 126.479C109.213 127.34 108.865 128.276 108.08 128.789C107.672 129.031 107.173 129.076 106.765 128.94C107.203 128.91 107.581 128.759 107.853 128.502C108.412 127.944 108.578 127.128 108.699 126.358C109.001 124.304 108.321 122.311 107.46 120.454Z" fill="#6B1FE0" fill-opacity="0.3"/>
<path d="M65.555 159.988L65.0261 160.003C65.0563 164.488 65.1923 169.713 65.1167 174.168C65.0865 180.283 64.7994 186.414 64.1194 192.5C63.7416 195.505 63.3789 198.555 62.7442 201.53C62.049 204.46 60.8401 207.238 59.1476 209.745C56.0194 214.427 51.4557 218.005 46.5594 220.693C38.1875 225.103 28.7124 226.839 19.4338 228.183C15.6105 228.727 4.80555 230.524 0 231.868C0.891596 231.702 1.7983 231.551 2.70501 231.415C6.36207 230.826 10.2609 230.207 13.9331 229.724C21.4587 228.712 28.924 227.489 36.1928 225.299C43.4615 223.14 50.5338 219.818 56.1403 214.608C58.9511 211.995 61.3086 208.824 62.7895 205.26C64.3007 201.712 64.7238 197.846 65.2225 194.055C65.3132 193.346 65.4794 191.941 65.5399 191.216C66.6128 180.857 66.235 170.362 65.555 159.988Z" fill="#6B1FE0" fill-opacity="0.3"/>
<path d="M130.445 159.988L130.974 160.003C130.944 164.488 130.808 169.713 130.883 174.168C130.913 180.283 131.201 186.414 131.881 192.5C132.258 195.505 132.621 198.555 133.256 201.53C133.951 204.46 135.16 207.238 136.852 209.745C139.98 214.427 144.544 218.005 149.44 220.693C157.812 225.103 167.288 226.839 176.566 228.183C180.389 228.727 191.194 230.524 196 231.868C195.108 231.702 194.202 231.551 193.295 231.415C189.638 230.826 185.739 230.207 182.067 229.724C174.541 228.712 167.076 227.489 159.807 225.299C152.538 223.14 145.466 219.818 139.86 214.608C137.049 211.995 134.691 208.824 133.21 205.26C131.699 201.712 131.276 197.846 130.777 194.055C130.687 193.346 130.521 191.941 130.46 191.216C129.402 180.857 129.765 170.362 130.445 159.988Z" fill="#6B1FE0" fill-opacity="0.3"/>
<path d="M106.553 246.999C108.73 243.466 112.22 240.929 116.285 240.098C115.364 240.521 114.442 240.944 113.565 241.412C112.719 241.865 111.797 242.424 111.011 242.982C109.379 244.13 107.974 245.565 106.553 246.999Z" fill="#6B1FE0" fill-opacity="0.3"/>
<path d="M120.683 238.769C122.965 238.044 125.352 237.637 127.74 237.38C132.515 236.897 137.336 237.048 142.111 236.972L149.289 236.776L163.646 236.474C168.361 236.232 173.408 235.477 177.866 237.486L177.02 237.199C176.173 236.942 175.282 236.746 174.405 236.64C170.839 236.172 167.257 236.806 163.691 237.033C158.221 237.304 151.224 237.44 145.738 237.576C137.381 237.954 128.889 236.806 120.683 238.769Z" fill="#6B1FE0" fill-opacity="0.3"/>
<path d="M89.8698 246.999C86.515 243.511 84.5203 242.061 80.0774 240.098C84.1727 240.929 87.6786 243.466 89.8698 246.999Z" fill="#6B1FE0" fill-opacity="0.3"/>
<path d="M75.6649 238.769C67.4139 236.806 58.8757 237.939 50.4887 237.591C44.9577 237.455 37.9308 237.32 32.4301 237.048C28.8335 236.806 25.2368 236.172 21.6554 236.655C20.7638 236.761 19.8722 236.972 19.0108 237.214L18.1494 237.501C22.6376 235.492 27.7152 236.247 32.4603 236.489L46.9072 236.791L54.1306 236.987C58.9361 237.078 63.787 236.912 68.5926 237.395C70.95 237.652 73.3528 238.06 75.6649 238.769Z" fill="#6B1FE0" fill-opacity="0.3"/>
<path d="M81.0596 6.4419C67.7764 4.7355 60.2658 10.6853 52.4228 20.6065C46.8012 27.7946 43.4464 36.4776 41.5574 45.3267C38.1573 60.8806 38.5955 77.0084 40.6507 92.7284C40.6507 92.7586 40.6356 92.7888 40.6054 92.7888C39.5173 88.4096 38.9582 83.7585 38.4746 79.2131C37.1901 65.5921 38.1421 51.5332 42.7059 38.5464C45.4865 30.7543 49.3098 23.2492 54.5082 16.786C57.9386 12.5427 62.2152 8.73724 67.4439 6.92513C70.7232 5.76236 74.2442 5.43014 77.6897 5.76236C78.8382 5.88317 79.9565 6.06438 81.0748 6.30599C81.105 6.30599 81.1201 6.33619 81.1201 6.3664C81.105 6.4268 81.0899 6.4419 81.0596 6.4419Z" fill="#6B1FE0" fill-opacity="0.3"/>
<path d="M81.3772 25.6503C79.8962 30.4071 76.1485 34.1068 72.159 36.9156C70.2096 38.2747 67.973 39.6035 65.9481 40.8569C60.7647 44.0583 55.9894 47.9694 52.015 52.5903C48.0708 57.1961 44.9729 62.6173 43.8546 68.6275L43.7791 68.6124C44.0057 66.166 44.6253 63.7499 45.5471 61.4545C48.3428 54.5534 53.7075 48.9812 59.6918 44.7228C62.6688 42.6086 65.8876 40.7059 68.8495 38.5918C71.8114 36.4626 74.7733 34.3031 77.2819 31.6454C78.9442 29.8786 80.3194 27.855 81.3167 25.6201L81.3772 25.6503Z" fill="#6B1FE0" fill-opacity="0.3"/>
<path d="M91.2146 33.9257C94.7356 36.0398 98.9216 36.2059 102.911 36.1606C109.999 36.2965 117.237 37.0213 123.871 39.6942C128.405 41.9744 132.696 44.8587 136.233 48.5131C148.005 60.4428 147.098 78.8508 153.777 93.1967C152.75 91.445 151.919 89.5876 151.193 87.6999C149.063 82.0069 147.793 76.0572 146.342 70.1678C144.907 64.3389 143.411 58.3136 139.89 53.3454C135.81 47.592 129.84 43.4392 123.569 40.3435C120.804 39.2261 117.826 38.5616 114.895 37.9878C109.953 37.0364 104.906 36.7797 99.8585 36.5683C96.8362 36.3569 93.7383 35.6623 91.2146 33.9257Z" fill="#6B1FE0" fill-opacity="0.3"/>
<path d="M80.0621 30.679C79.639 35.6623 76.6619 40.3737 72.4155 43.0466C70.2999 44.3906 67.9878 45.357 65.6908 46.2933C63.4089 47.2446 61.1421 48.2111 59.0869 49.5853C60.0238 48.7698 61.0666 48.0903 62.1546 47.4711C65.6303 45.4778 69.5141 44.2547 72.7782 41.9291C76.541 39.2865 79.11 35.179 80.0621 30.679Z" fill="#6B1FE0" fill-opacity="0.3"/>
<path d="M56.5333 54.5081C54.9314 56.3504 52.6495 58.9477 51.1384 60.8202C49.6121 62.6625 47.5115 65.4562 46.0608 67.3891C48.3578 62.587 52.3171 57.7245 56.5333 54.5081Z" fill="#6B1FE0" fill-opacity="0.3"/>
<path d="M55.0069 60.5938C54.75 64.8824 51.3197 68.1744 48.6449 71.2399C46.6501 73.5352 44.8065 76.2081 44.4438 79.2887C44.338 80.3004 44.4287 81.3424 44.7762 82.339C44.2927 81.4028 44.0811 80.3306 44.0962 79.2585C44.202 76.0118 46.0607 73.1426 48.116 70.7567C50.8059 67.6761 54.1456 64.7616 55.0069 60.5938Z" fill="#6B1FE0" fill-opacity="0.3"/>
<path d="M51.6521 72.7047C51.1383 78.2316 45.5016 81.3726 44.1265 86.5824C44.5194 81.0404 50.1863 77.8541 51.6521 72.7047Z" fill="#6B1FE0" fill-opacity="0.3"/>
<path d="M47.2547 84.5438C46.8164 86.9147 45.2448 89.1043 43.1292 90.2671C44.9275 88.6966 46.3329 86.7486 47.2547 84.5438Z" fill="#6B1FE0" fill-opacity="0.3"/>
<path d="M47.7381 86.975C47.1488 89.1495 45.3505 90.9918 43.2046 91.6412C45.1087 90.5237 46.6803 88.923 47.7381 86.975Z" fill="#6B1FE0" fill-opacity="0.3"/>
<path d="M47.0732 90.4331C46.8767 91.5959 45.834 92.5925 44.6704 92.7435C45.6225 92.1093 46.4083 91.3543 47.0732 90.4331Z" fill="#6B1FE0" fill-opacity="0.3"/>
<path d="M81.0294 6.35136C85.835 2.66674 91.8192 0.658317 97.8186 0.114685C100.841 -0.172232 103.909 0.114685 106.901 0.582813C117.313 2.25901 127.604 6.06444 135.946 12.6182C139.482 15.4723 142.414 19.0361 144.831 22.8566C148.836 29.2594 151.571 36.2964 154.05 43.3788C154.548 44.7982 154.956 46.263 155.274 47.7429C156.543 53.6625 156.77 59.7028 156.815 65.7281C156.86 71.7382 156.634 77.7333 156.241 83.7283C156.135 85.2233 156.029 86.7183 155.908 88.2133C155.787 89.7083 155.667 91.2033 155.485 92.6983C155.485 92.7285 155.455 92.7436 155.425 92.7436C155.395 92.7436 155.379 92.7134 155.379 92.6832C155.561 89.6932 155.651 86.6881 155.727 83.6981C156.029 73.2634 156.165 62.7079 155.138 52.3034C154.835 49.3436 154.352 46.3989 153.475 43.5449C153.037 42.1103 152.599 40.6757 152.115 39.2713C148.368 28.0815 142.081 16.9824 131.714 10.791C122.95 5.3849 112.522 2.13821 102.307 1.00564C96.3981 0.552611 90.3685 1.70028 84.9887 4.22213C83.6438 4.85637 82.3441 5.59631 81.105 6.44196C81.0747 6.45706 81.0445 6.45706 81.0294 6.42686C80.9992 6.39666 81.0143 6.36646 81.0294 6.35136Z" fill="#6B1FE0" fill-opacity="0.3"/>
<path d="M80.0624 15.5629C79.4881 19.625 75.9671 23.1737 72.8691 25.6352C75.7253 22.6603 78.8987 19.6401 80.0624 15.5629Z" fill="#6B1FE0" fill-opacity="0.3"/>
<path d="M80.0623 24.2006C79.352 26.4355 77.8106 28.5496 75.6194 29.4859C77.5386 28.1117 78.8835 26.209 80.0623 24.2006Z" fill="#6B1FE0" fill-opacity="0.3"/>
<path d="M79.8356 10.2927C79.9565 12.6334 79.2765 15.1552 77.5537 16.8012C78.8533 14.8532 79.4578 12.5881 79.8356 10.2927Z" fill="#6B1FE0" fill-opacity="0.3"/>
<path d="M81.7849 18.3263C85.6233 27.4321 93.421 32.5211 103.334 31.9624C110.648 31.6 118.355 29.5916 125.382 32.5966C138.137 37.7762 142.096 52.3335 145.073 64.4897C141.522 52.7412 137.532 38.4558 125.05 33.4272C118.129 30.5278 110.588 32.506 103.365 32.7627C93.285 33.1856 85.2455 27.7946 81.7849 18.3263Z" fill="#6B1FE0" fill-opacity="0.3"/>
<path d="M81.3467 13.5393C82.9939 16.5595 84.4446 19.9119 87.3763 21.9052C88.3283 22.5545 89.371 23.0982 90.4138 23.6116C88.7515 23.0378 87.1194 22.2676 85.8047 21.0747C83.6286 19.0511 82.4196 16.2575 81.3467 13.5393Z" fill="#6B1FE0" fill-opacity="0.3"/>
<path d="M146.116 74.0487C146.509 76.9783 146.977 81.0706 147.446 83.9549C147.929 86.7486 148.534 89.7838 150.816 91.6714C151.148 91.9131 151.496 92.1245 151.874 92.3208C151.073 92.1094 150.287 91.6866 149.713 91.0372C149.425 90.705 149.184 90.3728 148.942 90.0255C147.778 88.2285 147.506 86.069 147.174 84.0153C146.72 80.6931 146.418 77.3709 146.116 74.0487Z" fill="#6B1FE0" fill-opacity="0.3"/>
<path d="M147.416 89.799C147.99 91.7621 148.776 93.997 150.77 94.8728C151.042 94.9786 151.329 95.0541 151.617 94.9031C151.511 95.0239 151.36 95.0994 151.193 95.1296C148.76 95.2202 147.718 91.7319 147.416 89.799Z" fill="#6B1FE0" fill-opacity="0.3"/>
<path d="M81.8606 28.0664C82.6011 31.4641 85.2607 34.0464 88.1018 35.8434C94.1163 39.6035 101.43 38.1991 108.125 37.7461C111.555 37.5196 115.091 37.5649 118.386 38.6521C111.616 36.8702 104.679 39.0448 97.8338 38.9089C93.8896 38.8635 89.9605 37.9122 86.8022 35.4507C84.4447 33.6235 82.2988 31.1168 81.8606 28.0664Z" fill="#6B1FE0" fill-opacity="0.3"/>
<path d="M93.1191 24.3667C99.1941 26.7979 105.858 25.9976 112.19 25.454C118.567 24.9556 125.322 24.412 131.352 26.9641C138.953 30.2409 143.668 37.58 147.416 44.617C149.29 48.0751 150.332 52.3487 153.823 54.5836C154.503 55.0064 155.244 55.3386 155.999 55.5803L155.984 55.6256C155.198 55.4292 154.428 55.1423 153.717 54.7346C150.06 52.6507 148.867 48.3016 146.932 44.8586C142.504 36.6286 136.535 27.553 126.667 25.7258C120.275 24.4724 113.807 25.9523 107.4 26.3147C102.609 26.6318 97.5469 26.4808 93.1191 24.3667Z" fill="#6B1FE0" fill-opacity="0.3"/>
<path d="M131.956 35.1035C137.547 38.1086 141.068 43.7865 143.532 49.4494C144.801 52.2883 145.98 55.1877 147.023 58.1173C148.05 61.0469 148.881 64.0821 149.743 67.057C150.332 69.0201 150.967 70.9983 151.979 72.7803C152.75 74.1091 153.747 75.3021 155.032 76.1629C155.455 76.4498 155.908 76.6914 156.377 76.9179L156.362 76.9783C153.249 75.9967 151.299 73.1276 150.166 70.2282C149.38 68.2953 148.866 66.2718 148.322 64.2482C147.506 61.2432 146.66 58.2683 145.662 55.3236C144.363 51.3974 142.534 47.6373 140.268 44.1792C138.061 40.6757 135.402 37.414 131.956 35.1035Z" fill="#6B1FE0" fill-opacity="0.3"/>
<path d="M61.3843 96.1112C65.404 91.8527 71.3732 91.0523 76.7832 92.8645C77.8259 93.2269 78.8233 93.695 79.7753 94.2386C80.6065 94.7219 81.6643 95.5373 82.4501 96.1112C82.843 96.383 83.3568 96.8058 83.7346 97.0927C84.1577 97.4249 84.5204 97.878 84.6867 98.3914C84.4751 97.9082 84.0671 97.5004 83.6288 97.2135C83.2208 96.9417 82.6768 96.5944 82.2688 96.3377C81.347 95.7789 80.4402 95.1749 79.5033 94.7068C77.6143 93.7403 75.544 93.1514 73.4435 92.9702C70.3002 92.7437 67.157 93.4685 64.2706 94.6917C63.3035 95.1296 62.3665 95.6279 61.4296 96.1867L61.3843 96.1112Z" fill="#6B1FE0" fill-opacity="0.3"/>
<path d="M82.1022 97.7268C82.1929 97.3191 82.5102 96.7755 82.752 96.5187C82.4347 96.0959 81.6942 95.809 81.3013 95.5674C81.5582 95.8996 81.7395 96.1714 81.8906 96.564C81.9813 96.8057 82.1022 97.2889 82.1022 97.7268Z" fill="#6B1FE0" fill-opacity="0.3"/>
<path d="M61.6714 96.6245C67.4894 100.656 74.7733 100.762 81.4678 99.3125C82.435 99.1313 83.4777 99.4937 84.3995 99.0558C83.5079 99.5541 82.4501 99.2672 81.498 99.4786C80.5309 99.6296 79.594 99.9316 78.6117 100.113C76.6623 100.475 74.6675 100.596 72.6879 100.566C70.6931 100.551 68.6832 100.324 66.7791 99.6749C64.8902 99.0255 63.0919 98.0289 61.6562 96.6698L61.6714 96.6245Z" fill="#6B1FE0" fill-opacity="0.3"/>
<path d="M136.187 94.0423C134.676 92.8342 133.059 91.7922 131.306 90.9919C130.067 90.418 128.798 89.8593 127.438 89.5875C125.262 89.1647 123.025 89.4516 120.879 89.9197C119.821 90.1613 118.779 90.5238 117.796 90.9617C115.771 91.8375 114.018 93.2117 112.175 94.4198C113.323 93.1966 114.562 92.0187 115.983 91.0976C117.887 89.814 120.169 89.21 122.436 89.0439C124.128 88.9382 125.821 89.1194 127.483 89.361C128.586 89.5271 129.704 89.7234 130.777 90.1009C131.85 90.4634 132.863 91.0221 133.785 91.6714C134.706 92.3359 135.553 93.0909 136.233 93.997L136.187 94.0423Z" fill="#6B1FE0" fill-opacity="0.3"/>
<path d="M123.745 97.5488C125.066 97.4177 126.03 96.2417 125.899 94.9222C125.767 93.6026 124.591 92.6392 123.27 92.7702C121.95 92.9013 120.985 94.0773 121.117 95.3968C121.248 96.7164 122.425 97.6799 123.745 97.5488Z" fill="#6B1FE0" fill-opacity="0.3"/>
<path d="M123.509 99.4936C125.685 99.5087 127.408 97.5607 127.634 95.4919C127.695 94.601 127.77 93.1211 126.758 92.7586C125.76 92.4566 124.597 92.5623 123.554 92.5925C122.738 92.6378 121.967 92.7435 121.166 92.9097C120.728 93.0003 120.124 93.0758 119.806 93.3627C119.413 93.9214 119.413 94.7973 119.444 95.4768C119.58 97.5456 121.363 99.5087 123.509 99.4936ZM123.509 99.554C121 99.5842 118.809 97.7117 118.839 95.1144C118.869 94.2687 118.915 93.0909 119.852 92.7133C121.045 92.3207 122.33 92.2754 123.569 92.2905C124.113 92.3056 124.657 92.3509 125.201 92.3811C125.866 92.4415 126.622 92.4113 127.226 92.7737C127.982 93.3627 128.133 94.6312 128.118 95.5221C127.997 97.9382 125.791 99.5691 123.509 99.554Z" fill="#6B1FE0" fill-opacity="0.3"/>
<path d="M134.555 96.2017C132.727 95.0842 130.808 94.2084 128.752 93.6647C126.727 93.1362 124.642 92.804 122.542 92.9852C120.441 93.1815 118.386 93.7704 116.482 94.7218C115.53 95.1899 114.638 95.8091 113.716 96.3527C113.308 96.5943 112.749 96.9567 112.356 97.2285C111.918 97.5155 111.51 97.9232 111.298 98.4064C111.465 97.893 111.842 97.4399 112.25 97.1077C112.628 96.8057 113.157 96.398 113.535 96.1262C114.336 95.5674 115.379 94.752 116.21 94.2537C118.114 93.1362 120.245 92.4114 122.436 92.1244C124.642 91.8375 126.924 91.913 129.055 92.6228C131.17 93.3325 133.135 94.5104 134.616 96.1262L134.555 96.2017Z" fill="#6B1FE0" fill-opacity="0.3"/>
<path d="M113.898 97.7268C113.807 97.3191 113.49 96.7755 113.248 96.5187C113.565 96.0959 114.306 95.809 114.699 95.5674C114.442 95.8996 114.26 96.1714 114.109 96.564C114.018 96.8057 113.898 97.2889 113.898 97.7268Z" fill="#6B1FE0" fill-opacity="0.3"/>
<path d="M134.359 96.6698C131.442 99.4333 127.287 100.596 123.327 100.581C121.348 100.611 119.353 100.49 117.404 100.128C116.421 99.9467 115.484 99.6447 114.517 99.4937C113.565 99.2823 112.492 99.5692 111.616 99.0708C112.538 99.5088 113.565 99.1615 114.547 99.3276C115.545 99.4484 116.497 99.7202 117.464 99.8561C119.398 100.158 121.378 100.234 123.342 100.143C125.307 100.068 127.226 99.7202 129.085 99.1615C130.944 98.6027 132.727 97.742 134.344 96.6245L134.359 96.6698Z" fill="#6B1FE0" fill-opacity="0.3"/>
<path d="M122.36 94.4504C122.36 94.7677 122.179 95.0246 121.605 95.0246C121.046 95.0246 120.577 94.7677 120.577 94.4504C120.577 94.133 121.031 93.8761 121.605 93.8761C122.179 93.8761 122.36 94.133 122.36 94.4504Z" fill="white" fill-opacity="0.7"/>
<path d="M125.745 96.6097C125.745 96.8213 125.64 96.9875 125.337 96.9875C125.02 96.9875 124.869 96.8213 124.869 96.6097C124.869 96.3982 125.02 96.2319 125.337 96.2319C125.64 96.2319 125.745 96.3982 125.745 96.6097Z" fill="white" fill-opacity="0.7"/>
<path d="M62.0339 95.6429C62.6989 96.549 63.5754 97.2587 64.5878 97.7722C66.2501 98.6933 68.0333 99.3427 69.8921 99.7353C68.0182 99.4333 66.1746 98.8292 64.4821 97.9836C63.4393 97.5004 62.4722 96.7755 61.7468 95.8695C61.7619 95.8695 62.0339 95.6429 62.0339 95.6429Z" fill="#6B1FE0" fill-opacity="0.3"/>
<path d="M134.253 95.8695C133.528 96.7755 132.576 97.4853 131.518 97.9836C129.811 98.8443 127.982 99.4333 126.108 99.7353C127.967 99.3578 129.765 98.6933 131.412 97.7722C132.41 97.2587 133.286 96.549 133.966 95.6429C133.981 95.6429 134.253 95.8695 134.253 95.8695Z" fill="#6B1FE0" fill-opacity="0.3"/>
<path d="M93.9046 114.217C94.086 113.447 94.4486 111.529 94.5393 110.593C94.7207 108.841 94.766 107.965 94.4789 106.153C94.3731 107.724 94.2975 108.615 94.1615 110.2C94.0557 112.012 93.8291 113.84 93.4513 115.621C93.421 115.742 93.3908 115.878 93.3606 115.999C93.5873 115.41 93.7686 114.821 93.9046 114.217Z" fill="#6B1FE0" fill-opacity="0.3"/>
<path d="M68.1996 94.1781C67.8218 96.7603 69.8014 99.5238 72.5216 99.4936C74.199 99.4785 75.6497 98.4667 76.3751 97.002C76.8587 96.0355 77.2516 93.9365 76.2391 93.1814C75.3626 92.5321 74.0781 92.517 73.0354 92.4264C72.2798 92.366 71.5242 92.3811 70.7837 92.4717C70.1037 92.5623 69.3028 92.6529 68.6983 93.0002C68.3205 93.2267 68.26 93.7553 68.1996 94.1781Z" fill="#CBD2E0"/>
<path d="M69.6804 95.809C70.9951 95.2201 72.4458 94.9784 73.8815 95.0992C74.9997 95.1898 76.4203 95.8845 76.1029 97.2738C75.8762 98.2855 74.7277 99.0557 73.7908 99.3124C72.3401 99.7201 70.7533 99.2973 69.5897 98.3761C69.1666 98.0288 68.683 97.6211 68.5168 97.0775C68.3354 96.4885 68.9248 96.1714 69.3933 95.9449C69.4839 95.8996 69.5897 95.8543 69.6804 95.809Z" fill="#EDF0F7"/>
<path d="M127.8 94.1781C128.178 96.7603 126.199 99.5238 123.478 99.4936C121.801 99.4785 120.35 98.4667 119.625 97.002C119.141 96.0355 118.749 93.9365 119.761 93.1814C120.637 92.5321 121.922 92.517 122.965 92.4264C123.72 92.366 124.476 92.3811 125.216 92.4717C125.896 92.5623 126.697 92.6529 127.302 93.0002C127.68 93.2267 127.74 93.7553 127.8 94.1781Z" fill="#CBD2E0"/>
<path d="M126.319 95.809C125.005 95.2201 123.554 94.9784 122.118 95.0992C121 95.1898 119.58 95.8845 119.897 97.2738C120.124 98.2855 121.272 99.0557 122.209 99.3124C123.66 99.7201 125.247 99.2973 126.41 98.3761C126.833 98.0288 127.317 97.6211 127.483 97.0775C127.664 96.4885 127.075 96.1714 126.607 95.9449C126.516 95.8996 126.425 95.8543 126.319 95.809Z" fill="#EDF0F7"/>
<path d="M94.6299 128.412C94.0103 127.793 93.1036 127.521 92.2271 127.476C91.8644 127.461 89.6128 127.43 89.8848 128.049C89.9452 128.185 90.0661 128.276 90.187 128.351C91.26 129.001 92.5596 128.744 93.7232 129.122C94.4183 129.348 95.0681 129.741 95.5971 130.254C95.4762 129.303 94.9926 128.759 94.6299 128.412Z" fill="#6B1FE0" fill-opacity="0.3"/>
<path d="M92.8468 118.808C92.5597 121.254 91.6228 123.942 93.3606 126.071C92.7864 125.739 92.3633 125.165 92.1215 124.546C91.3357 122.643 92.0308 120.559 92.8468 118.808Z" fill="#6B1FE0" fill-opacity="0.3"/>
<path d="M59.7671 93.997C61.1574 92.2302 63.1068 90.856 65.2224 90.1009C66.2954 89.7234 67.4137 89.5422 68.5168 89.361C70.1791 89.1194 71.8716 88.9382 73.5642 89.0439C75.8309 89.21 78.1128 89.814 80.0169 91.0976C81.4374 92.0338 82.6766 93.1966 83.8251 94.4198C81.9814 93.2117 80.2133 91.8375 78.2035 90.9617C77.2212 90.5238 76.1785 90.1764 75.1207 89.9197C72.9748 89.4516 70.7383 89.1496 68.5622 89.5875C67.2021 89.8593 65.9478 90.418 64.6935 90.9919C63.9833 91.3241 63.1975 91.7167 62.5174 92.1396C61.5805 92.6983 60.6889 93.3476 59.8124 94.0423L59.7671 93.997Z" fill="#6B1FE0" fill-opacity="0.3"/>
<path d="M88.6155 120.454C87.739 122.311 87.0741 124.304 87.3612 126.358C87.4821 127.128 87.6634 127.944 88.2075 128.502C88.4795 128.759 88.8724 128.91 89.2955 128.94C88.8875 129.076 88.4039 129.031 87.9808 128.789C87.195 128.276 86.8474 127.34 86.6661 126.479C86.2429 124.319 87.0892 121.994 88.6155 120.454Z" fill="#6B1FE0" fill-opacity="0.3"/>
<path d="M96.2922 130.798C97.4256 131.312 98.7252 131.266 99.8284 130.707C99.0124 131.75 97.1687 131.795 96.2922 130.798Z" fill="#6B1FE0" fill-opacity="0.3"/>
<path d="M81.6338 86.8693C76.9642 85.6914 72.476 83.8642 67.8669 82.49C65.6153 81.8256 63.2276 81.2367 60.9155 81.8709C58.5883 82.5051 56.6087 83.9397 54.7046 85.3743L54.1001 85.8273C54.7197 84.9515 55.3997 84.0907 56.11 83.2904C56.654 82.6712 57.2282 82.0672 57.8176 81.4934C58.9812 80.3155 60.1901 79.1376 61.6258 78.292C63.1521 77.2802 64.6935 76.9178 66.522 77.1594C69.0003 77.4916 71.388 78.1712 73.7757 78.8658C75.1508 79.2886 77.1154 79.938 78.4754 80.3004C80.0622 80.7081 81.6791 80.995 83.281 81.4028C84.097 81.5689 84.9735 81.9464 85.5024 82.641C86.3184 83.6377 86.7567 84.8307 87.0287 86.0538C87.1043 86.4616 87.1043 86.8844 87.0136 87.2921C87.074 86.8844 87.0136 86.4767 86.9229 86.084C86.5754 84.9364 86.0464 83.7736 85.2455 82.8977C84.6864 82.2786 83.9912 82.037 83.1752 81.9162C82.3743 81.7652 81.5582 81.6142 80.7573 81.4783C79.1252 81.2064 77.4932 80.844 75.9215 80.3457C74.5161 79.938 72.5818 79.349 71.1915 78.9715C70.4057 78.7601 69.6048 78.5487 68.819 78.3524C67.2776 77.99 65.6606 77.5973 64.089 77.9145C63.3334 78.0655 62.608 78.4128 61.9129 78.8205C60.4924 79.636 59.2683 80.693 58.0745 81.7954C56.8656 82.8977 55.7019 84.0756 54.7197 85.3743L54.5535 85.2082C55.037 84.8458 55.5206 84.4984 56.0193 84.1511C58.5732 82.3239 61.1875 80.7987 64.4517 81.1611C65.6757 81.2669 66.8847 81.5538 68.0332 81.9011C72.6876 83.2753 77.0851 85.2233 81.6338 86.8693Z" fill="#6B1FE0" fill-opacity="0.3"/>
<path d="M74.7012 96.0945C75.2139 94.8715 74.6374 93.4647 73.4135 92.9523C72.1896 92.4399 70.7818 93.016 70.269 94.239C69.7563 95.462 70.3328 96.8689 71.5567 97.3813C72.7806 97.8936 74.1884 97.3176 74.7012 96.0945Z" fill="#6B1FE0" fill-opacity="0.3"/>
<path d="M72.4913 99.5542C70.2094 99.5844 68.0031 97.9535 67.8973 95.5374C67.8822 94.6313 68.0182 93.3628 68.7889 92.789C69.3934 92.4115 70.149 92.4417 70.8139 92.3964C71.3579 92.3662 71.9019 92.3209 72.446 92.3058C73.6851 92.2756 74.9696 92.336 76.1635 92.7286C77.0853 93.1061 77.1306 94.284 77.176 95.1296C77.1911 97.7119 74.9999 99.5693 72.4913 99.5542ZM72.4913 99.4938C74.6372 99.5089 76.4204 97.5458 76.5564 95.4921C76.5866 94.8125 76.5866 93.9216 76.1937 93.3779C75.8764 93.091 75.2719 93.0155 74.8336 92.9249C74.0327 92.7588 73.262 92.6531 72.446 92.6078C71.4033 92.5927 70.2397 92.4719 69.2423 92.7739C68.2298 93.1363 68.3053 94.6162 68.3658 95.5072C68.5925 97.5609 70.3303 99.5089 72.4913 99.4938Z" fill="#6B1FE0" fill-opacity="0.3"/>
<path d="M98 176.991C93.0585 177.112 89.4316 176.04 84.9736 174.092C76.7226 170.604 69.4841 165.001 63.4545 158.448C59.5254 154.129 55.9439 149.342 53.7225 143.89C52.5286 141.051 51.9393 137.941 51.3499 134.981C50.277 129.56 48.9018 124.199 47.4057 118.868C47.1337 117.781 46.9373 116.694 46.6955 115.606C46.5292 114.836 46.3328 113.93 46.227 113.145C45.9097 110.668 45.7283 108.162 45.6225 105.67C45.5016 102.348 45.5319 99.0104 45.547 95.6882C45.6528 98.1346 45.8492 103.314 46.0306 105.655C46.1817 108.131 46.4386 110.623 46.8164 113.069C46.9977 114.142 47.1035 115.274 47.3151 116.346C47.6173 117.69 47.9649 119.019 48.4031 120.333C50.0201 125.059 51.5464 129.846 52.6042 134.739C53.4807 139.088 54.3723 143.316 56.3217 147.318C60.961 157.466 70.149 164.579 79.6392 169.97C81.5433 171.057 83.4927 172.114 85.4572 173.08C87.3915 174.001 89.4619 174.983 91.5322 175.557C93.6327 176.176 95.8239 176.493 98.0151 176.629L98 176.991Z" fill="#6B1FE0" fill-opacity="0.3"/>
<path d="M71.2974 94.4504C71.2974 94.7677 71.116 95.0246 70.5418 95.0246C69.9826 95.0246 69.5142 94.7677 69.5142 94.4504C69.5142 94.133 69.9675 93.8761 70.5418 93.8761C71.116 93.8761 71.2974 94.133 71.2974 94.4504Z" fill="white" fill-opacity="0.7"/>
<path d="M74.6826 96.6097C74.6826 96.8213 74.5769 96.9875 74.2746 96.9875C73.9573 96.9875 73.8062 96.8213 73.8062 96.6097C73.8062 96.3982 73.9573 96.2319 74.2746 96.2319C74.592 96.2319 74.6826 96.3982 74.6826 96.6097Z" fill="white" fill-opacity="0.7"/>
<path d="M97.9849 176.614C100.176 176.478 102.367 176.161 104.468 175.542C106.583 174.938 108.578 174.017 110.543 173.065C112.522 172.099 114.457 171.042 116.361 169.955C125.851 164.564 135.054 157.451 139.693 147.303C141.628 143.301 142.519 139.058 143.396 134.724C144.529 129.273 146.388 124.018 148.08 118.732C148.383 117.675 148.655 116.603 148.836 115.516C149.335 112.239 149.788 108.947 149.985 105.64C150.181 103.239 150.347 98.1045 150.468 95.6732C150.468 97.893 150.498 100.113 150.468 102.333C150.423 105.942 150.257 109.551 149.788 113.145C149.607 114.519 149.244 115.878 148.972 117.237C148.64 118.868 148.186 120.499 147.718 122.085C146.509 126.343 145.557 130.662 144.665 134.981C144.212 137.14 143.819 139.345 143.139 141.504C142.806 142.561 142.414 143.649 141.96 144.676C137.245 155.186 126.924 165.334 117.026 171.102C115.091 172.22 113.082 173.216 111.026 174.092C107.944 175.436 104.725 176.584 101.355 176.871C100.237 176.976 99.1182 177.007 98 176.992L97.9849 176.614Z" fill="#6B1FE0" fill-opacity="0.3"/>
<path d="M114.381 86.8694C118.915 85.2234 123.327 83.2754 127.952 81.871C129.115 81.5237 130.309 81.2368 131.533 81.131C134.797 80.7686 137.427 82.2938 139.965 84.121C140.464 84.4683 140.948 84.8308 141.431 85.1781L141.265 85.3442C140.283 84.0455 139.119 82.8677 137.91 81.7653C136.716 80.6478 135.492 79.5908 134.057 78.7904C133.362 78.3827 132.636 78.0354 131.881 77.8844C130.309 77.5672 128.707 77.9599 127.151 78.3223C126.35 78.5186 125.564 78.73 124.778 78.9414C123.403 79.3038 121.438 79.9079 120.048 80.3156C118.476 80.8139 116.829 81.1764 115.212 81.4482C114.396 81.5841 113.595 81.7351 112.794 81.8861C111.993 82.0069 111.283 82.2636 110.724 82.8677C109.923 83.7435 109.394 84.9063 109.047 86.0539C108.956 86.4466 108.896 86.8543 108.956 87.262C108.865 86.8543 108.865 86.4315 108.941 86.0237C109.213 84.8006 109.636 83.6076 110.467 82.6109C110.996 81.9314 111.873 81.5388 112.689 81.3727C114.29 80.98 115.907 80.678 117.494 80.2703C118.854 79.9079 120.834 79.2585 122.194 78.8357C124.582 78.1411 126.969 77.4615 129.448 77.1293C131.276 76.8877 132.818 77.2652 134.344 78.2619C135.779 79.1226 136.988 80.2854 138.152 81.4633C138.741 82.0371 139.316 82.6411 139.86 83.2603C140.57 84.0606 141.265 84.9063 141.869 85.7972L141.265 85.3442C138.439 83.1848 135.296 81.0555 131.563 81.6747C130.4 81.8257 129.251 82.1277 128.103 82.475C123.539 83.8643 119.051 85.6915 114.381 86.8694Z" fill="#6B1FE0" fill-opacity="0.3"/>
<path d="M101.476 104.764C101.581 106.334 101.748 108.615 101.884 110.2C101.989 112.012 102.216 113.84 102.594 115.621C102.79 116.512 102.987 117.388 103.213 118.264C103.833 120.408 104.74 122.93 103.516 125.044C103.274 125.452 102.956 125.815 102.579 126.086L102.548 126.041C104.528 123.867 103.274 120.892 102.715 118.385C102.292 116.588 102.276 114.746 101.959 112.949C101.808 112.058 101.551 111.167 101.43 110.246C101.188 108.433 101.188 106.576 101.476 104.764Z" fill="#6B1FE0" fill-opacity="0.3"/>
<path d="M106.251 90.2218C103.939 92.4869 102.987 95.7185 102.216 98.7689C101.959 99.8109 101.733 100.853 101.506 101.91C101.536 101.638 101.551 101.381 101.581 101.11C102.05 97.3192 103.077 92.653 106.251 90.2218Z" fill="#6B1FE0" fill-opacity="0.3"/>
<path d="M101.37 128.412C101.989 127.793 102.896 127.521 103.773 127.476C104.135 127.461 106.387 127.43 106.115 128.049C106.054 128.185 105.934 128.276 105.813 128.351C104.74 129.001 103.44 128.744 102.276 129.122C101.581 129.348 100.932 129.741 100.403 130.254C100.539 129.303 101.022 128.759 101.37 128.412Z" fill="#6B1FE0" fill-opacity="0.3"/>
<path d="M78.3699 142.048C82.4652 145.672 88.1774 143.664 93.0888 144.6C94.7813 144.917 96.4134 145.415 98.0001 145.37V146.457C97.0934 146.427 96.2169 146.261 95.3858 146.05C94.5546 145.838 93.7386 145.597 92.9376 145.4C91.3358 145.008 89.6584 144.932 87.9508 144.887C84.6413 144.796 80.8633 144.54 78.3699 142.048Z" fill="#6B1FE0" fill-opacity="0.3"/>
<path d="M81.8906 140.991C85.3361 140.326 88.4945 138.756 91.9249 137.956C92.62 137.82 93.3454 137.744 94.0858 137.82C94.917 137.91 95.6726 138.167 96.4282 138.439C96.6851 138.529 96.9571 138.65 97.1838 138.756C97.486 138.892 97.8033 139.013 98.03 139.013V139.738C97.35 139.692 96.9722 139.375 96.4433 139.149C93.8894 138.016 92.6351 138.167 90.0057 138.877C87.3006 139.602 84.641 140.568 81.8906 140.991Z" fill="#6B1FE0" fill-opacity="0.3"/>
<path d="M85.4573 151.244C87.6334 153.011 90.2628 154.068 93.0283 154.249C94.6755 154.37 96.3529 154.446 97.985 154.385V155.473C96.2773 155.397 94.615 155.201 92.9376 154.944C90.1419 154.536 87.4671 153.192 85.4573 151.244Z" fill="#6B1FE0" fill-opacity="0.3"/>
<path d="M110.513 151.244C108.503 153.177 105.828 154.521 103.032 154.929C101.355 155.186 99.6925 155.397 97.9849 155.458V154.37C99.6169 154.431 101.309 154.355 102.942 154.234C105.707 154.068 108.336 153.011 110.513 151.244Z" fill="#6B1FE0" fill-opacity="0.3"/>
<path d="M65.6458 92.1546C64.1648 92.653 63.107 93.106 61.6109 93.5741C60.3264 93.9819 58.9966 94.1933 57.6516 94.1782C58.9059 95.2805 61.1575 96.2017 61.4447 96.1866C61.6411 96.0054 61.9131 95.7487 62.2003 95.5976C64.7088 94.2537 67.2476 92.7587 70.0735 92.4265C73.2168 92.0489 78.2188 93.6949 81.0749 95.0993C78.1432 92.7587 75.6951 92.1849 73.3528 91.7167C71.0407 91.2486 67.8974 91.3996 65.6458 92.1546Z" fill="#6B1FE0" fill-opacity="0.3"/>
<path d="M130.37 92.1546C131.851 92.653 132.908 93.106 134.404 93.5741C135.689 93.9819 137.019 94.1933 138.364 94.1782C137.109 95.2805 134.888 96.1715 134.616 96.1413C134.299 96.1262 134.102 95.7487 133.83 95.5976C131.322 94.2537 128.783 92.7587 125.957 92.4265C122.814 92.0489 117.812 93.6949 114.956 95.0993C117.887 92.7587 120.335 92.1849 122.678 91.7167C124.975 91.2486 128.118 91.3996 130.37 92.1546Z" fill="#6B1FE0" fill-opacity="0.3"/>
<path d="M78.5363 141.459C78.2189 141.58 78.1585 141.972 78.3852 142.214C79.2768 143.165 81.3622 143.92 82.4653 144.026C80.7124 143.573 80.259 142.622 79.3977 141.837C79.171 141.64 78.8687 141.338 78.5514 141.444L78.5363 141.459Z" fill="#6B1FE0" fill-opacity="0.3"/>
<path d="M117.645 142.048C115.167 144.54 111.389 144.796 108.064 144.872C106.372 144.932 104.695 144.993 103.078 145.385C102.262 145.582 101.461 145.823 100.629 146.035C99.7983 146.246 98.9218 146.412 98.0151 146.442V145.355C99.6019 145.4 101.234 144.902 102.926 144.585C107.823 143.664 113.55 145.672 117.645 142.048Z" fill="#6B1FE0" fill-opacity="0.3"/>
<path d="M114.124 140.991C111.359 140.568 108.714 139.602 106.024 138.862C103.395 138.152 102.14 138.001 99.5865 139.133C99.0576 139.36 98.6798 139.677 97.9998 139.722V138.998C98.3927 139.013 98.9216 138.68 99.3296 138.529C102.035 137.457 103.41 137.654 106.13 138.514C108.805 139.375 111.374 140.447 114.124 140.991Z" fill="#6B1FE0" fill-opacity="0.3"/>
<path d="M117.479 141.459C117.796 141.58 117.857 141.972 117.63 142.214C116.739 143.165 114.653 143.92 113.55 144.026C115.303 143.573 115.756 142.622 116.618 141.837C116.844 141.64 117.147 141.338 117.464 141.444L117.479 141.459Z" fill="#6B1FE0" fill-opacity="0.3"/>
<path d="M45.5772 97.2436C44.3078 95.4919 42.6606 93.9667 40.6357 93.1965C39.8045 92.9096 38.6258 92.7737 37.976 93.3928C37.3564 94.0573 37.568 95.3257 37.5226 96.2016C37.5529 98.3912 37.7342 100.596 38.1422 102.755C38.7618 106.017 39.8801 109.173 40.6206 112.405C40.8623 113.492 41.0739 114.579 41.2855 115.667C42.2829 120.861 43.5674 126.645 48.0556 129.952C48.6298 130.33 50.3223 131.598 50.821 130.858L50.9117 130.903C50.413 131.915 48.4334 130.783 47.7382 130.42C45.7435 129.288 44.2021 127.491 43.0838 125.512C41.3913 122.568 40.7566 119.125 40.2579 115.833C39.6383 111.438 38.8374 107.12 37.7795 102.816C37.2204 100.4 36.6008 97.908 36.5555 95.3862C36.4648 94.0724 36.767 92.6227 38.2027 92.1848C41.225 91.3844 44.4741 94.6915 45.5772 97.2436Z" fill="#6B1FE0" fill-opacity="0.3"/>
<path d="M39.6381 104.628C39.1697 103.314 38.8825 101.94 38.671 100.566C38.5047 99.6447 38.3083 98.7084 38.3839 97.7571C38.4141 97.4701 38.4141 97.2587 38.5652 96.9718C38.9581 96.3678 39.759 96.8208 40.1519 97.1681C43.3254 100.249 45.97 104.326 46.0758 108.856L46.0002 108.871C45.5922 107.059 44.9575 105.338 44.1112 103.722C42.9174 101.532 41.5271 99.388 39.7892 97.591C39.6079 97.4399 39.1697 97.0473 38.9732 97.2436C38.7465 97.8326 38.7768 98.5272 38.8221 99.1463C39.0185 100.974 39.1848 102.831 39.6381 104.628Z" fill="#6B1FE0" fill-opacity="0.3"/>
<path d="M41.7991 105.156C43.0231 106.349 44.0658 107.784 44.5645 109.43C45.0179 111.091 44.7761 112.843 44.7156 114.549C44.6854 115.229 44.5494 116.316 44.7308 116.95C44.9272 117.675 45.441 118.279 46.0153 118.838C47.1789 119.986 48.7354 121.209 48.9469 122.96L48.8714 122.976C48.1762 121.39 46.7104 120.544 45.4712 119.397C42.0257 116.195 46.0153 114.081 43.9752 109.626C43.4009 108.071 42.5698 106.651 41.7991 105.156Z" fill="#6B1FE0" fill-opacity="0.3"/>
<path d="M150.453 97.1077C151.481 94.6765 154.095 92.0036 156.921 92.0489C158.946 92.1546 159.49 93.7704 159.324 95.5372C159.263 98.0591 158.629 100.521 158.069 102.937C157.012 107.225 156.226 111.529 155.606 115.908C155.108 119.185 154.473 122.613 152.78 125.543C151.39 127.989 149.29 130.194 146.584 131.13C146.101 131.326 145.24 131.508 144.968 130.904L145.058 130.858C145.572 131.613 147.28 130.315 147.824 129.967C148.7 129.333 149.456 128.578 150.121 127.747C153.566 123.429 154.08 117.736 155.244 112.496C155.984 109.264 157.102 106.123 157.722 102.876C158.16 100.717 158.326 98.5272 158.357 96.3527C158.326 95.0087 158.689 93.0909 156.845 92.9701C155.848 92.8795 154.82 93.3023 153.959 93.8006C152.569 94.6161 151.42 95.7788 150.453 97.1077Z" fill="#6B1FE0" fill-opacity="0.3"/>
<path d="M156.241 104.628C156.679 102.922 156.86 101.11 157.027 99.3578C157.072 98.6481 157.147 97.8779 156.891 97.2135C156.755 97.0927 156.528 97.2286 156.347 97.3645C155.833 97.742 155.455 98.2705 155.017 98.7689C154.443 99.4484 153.898 100.143 153.37 100.838C151.768 102.952 150.589 105.277 150.075 107.92H150C149.985 106.123 150.453 104.311 151.299 102.68C152.221 100.853 153.642 99.3578 155.002 97.8779C155.47 97.3645 156.588 96.1262 157.284 96.9266C157.495 97.289 157.465 97.6514 157.495 98.0289C157.525 98.9501 157.314 99.8259 157.163 100.717C156.981 102.046 156.679 103.36 156.241 104.628Z" fill="#6B1FE0" fill-opacity="0.3"/>
<path d="M154.08 105.156C153.324 106.651 152.478 108.071 151.889 109.626C149.848 114.081 153.838 116.195 150.392 119.397C149.153 120.544 147.687 121.39 146.992 122.976L146.917 122.96C147.128 121.209 148.685 119.986 149.848 118.838C150.423 118.279 150.936 117.675 151.133 116.95C151.329 116.316 151.178 115.214 151.148 114.549C151.088 112.858 150.861 111.091 151.299 109.43C151.813 107.769 152.856 106.349 154.08 105.156Z" fill="#6B1FE0" fill-opacity="0.3"/>
<path d="M107.46 120.454C108.986 121.994 109.833 124.319 109.394 126.479C109.213 127.34 108.865 128.276 108.08 128.789C107.672 129.031 107.173 129.076 106.765 128.94C107.203 128.91 107.581 128.759 107.853 128.502C108.412 127.944 108.578 127.128 108.699 126.358C109.001 124.304 108.321 122.311 107.46 120.454Z" fill="#6B1FE0" fill-opacity="0.3"/>
<path d="M65.555 159.988L65.0261 160.003C65.0563 164.488 65.1923 169.713 65.1167 174.168C65.0865 180.283 64.7994 186.414 64.1194 192.5C63.7416 195.505 63.3789 198.555 62.7442 201.53C62.049 204.46 60.8401 207.238 59.1476 209.745C56.0194 214.427 51.4557 218.005 46.5594 220.693C38.1875 225.103 28.7124 226.839 19.4338 228.183C15.6105 228.727 4.80555 230.524 0 231.868C0.891596 231.702 1.7983 231.551 2.70501 231.415C6.36207 230.826 10.2609 230.207 13.9331 229.724C21.4587 228.712 28.924 227.489 36.1928 225.299C43.4615 223.14 50.5338 219.818 56.1403 214.608C58.9511 211.995 61.3086 208.824 62.7895 205.26C64.3007 201.712 64.7238 197.846 65.2225 194.055C65.3132 193.346 65.4794 191.941 65.5399 191.216C66.6128 180.857 66.235 170.362 65.555 159.988Z" fill="#6B1FE0" fill-opacity="0.3"/>
<path d="M130.445 159.988L130.974 160.003C130.944 164.488 130.808 169.713 130.883 174.168C130.913 180.283 131.201 186.414 131.881 192.5C132.258 195.505 132.621 198.555 133.256 201.53C133.951 204.46 135.16 207.238 136.852 209.745C139.98 214.427 144.544 218.005 149.44 220.693C157.812 225.103 167.288 226.839 176.566 228.183C180.389 228.727 191.194 230.524 196 231.868C195.108 231.702 194.202 231.551 193.295 231.415C189.638 230.826 185.739 230.207 182.067 229.724C174.541 228.712 167.076 227.489 159.807 225.299C152.538 223.14 145.466 219.818 139.86 214.608C137.049 211.995 134.691 208.824 133.21 205.26C131.699 201.712 131.276 197.846 130.777 194.055C130.687 193.346 130.521 191.941 130.46 191.216C129.402 180.857 129.765 170.362 130.445 159.988Z" fill="#6B1FE0" fill-opacity="0.3"/>
<path d="M106.553 247C108.73 243.466 112.22 240.929 116.285 240.099C115.364 240.522 114.442 240.945 113.565 241.413C112.719 241.866 111.797 242.424 111.011 242.983C109.379 244.131 107.974 245.565 106.553 247Z" fill="#6B1FE0" fill-opacity="0.3"/>
<path d="M120.683 238.77C122.965 238.045 125.352 237.638 127.74 237.381C132.515 236.898 137.336 237.049 142.111 236.973L149.289 236.777L163.646 236.475C168.361 236.233 173.408 235.478 177.866 237.486L177.02 237.2C176.173 236.943 175.282 236.747 174.405 236.641C170.839 236.173 167.257 236.807 163.691 237.033C158.221 237.305 151.224 237.441 145.738 237.577C137.381 237.955 128.889 236.807 120.683 238.77Z" fill="#6B1FE0" fill-opacity="0.3"/>
<path d="M89.8698 247C86.515 243.512 84.5203 242.062 80.0774 240.099C84.1727 240.929 87.6786 243.466 89.8698 247Z" fill="#6B1FE0" fill-opacity="0.3"/>
<path d="M75.6649 238.77C67.4139 236.807 58.8757 237.939 50.4887 237.592C44.9577 237.456 37.9308 237.32 32.4301 237.048C28.8335 236.807 25.2368 236.173 21.6554 236.656C20.7638 236.762 19.8722 236.973 19.0108 237.215L18.1494 237.502C22.6376 235.493 27.7152 236.248 32.4603 236.49L46.9072 236.792L54.1306 236.988C58.9361 237.079 63.787 236.913 68.5926 237.396C70.95 237.653 73.3528 238.06 75.6649 238.77Z" fill="#6B1FE0" fill-opacity="0.3"/>
<path d="M81.0596 6.4419C67.7764 4.7355 60.2658 10.6853 52.4228 20.6065C46.8012 27.7946 43.4464 36.4776 41.5574 45.3267C38.1573 60.8806 38.5955 77.0084 40.6507 92.7284C40.6507 92.7586 40.6356 92.7888 40.6054 92.7888C39.5173 88.4096 38.9582 83.7585 38.4746 79.2131C37.1901 65.5921 38.1421 51.5332 42.7059 38.5464C45.4865 30.7543 49.3098 23.2492 54.5082 16.786C57.9386 12.5427 62.2152 8.73724 67.4439 6.92513C70.7232 5.76236 74.2442 5.43014 77.6897 5.76236C78.8382 5.88317 79.9565 6.06438 81.0748 6.30599C81.105 6.30599 81.1201 6.33619 81.1201 6.3664C81.105 6.4268 81.0899 6.4419 81.0596 6.4419Z" fill="#6B1FE0" fill-opacity="0.3"/>
<path d="M81.3772 25.6503C79.8962 30.4071 76.1485 34.1068 72.159 36.9156C70.2096 38.2747 67.973 39.6035 65.9481 40.8569C60.7647 44.0583 55.9894 47.9694 52.015 52.5903C48.0708 57.1961 44.9729 62.6173 43.8546 68.6275L43.7791 68.6124C44.0057 66.166 44.6253 63.7499 45.5471 61.4545C48.3428 54.5534 53.7075 48.9812 59.6918 44.7228C62.6688 42.6086 65.8876 40.7059 68.8495 38.5918C71.8114 36.4626 74.7733 34.3031 77.2819 31.6454C78.9442 29.8786 80.3194 27.855 81.3167 25.6201L81.3772 25.6503Z" fill="#6B1FE0" fill-opacity="0.3"/>
<path d="M91.2146 33.9257C94.7356 36.0398 98.9216 36.2059 102.911 36.1606C109.999 36.2965 117.237 37.0213 123.871 39.6942C128.405 41.9744 132.696 44.8587 136.233 48.5131C148.005 60.4428 147.098 78.8508 153.777 93.1967C152.75 91.445 151.919 89.5876 151.193 87.6999C149.063 82.0069 147.793 76.0572 146.342 70.1678C144.907 64.3389 143.411 58.3136 139.89 53.3454C135.81 47.592 129.84 43.4392 123.569 40.3435C120.804 39.2261 117.826 38.5616 114.895 37.9878C109.953 37.0364 104.906 36.7797 99.8585 36.5683C96.8362 36.3569 93.7383 35.6623 91.2146 33.9257Z" fill="#6B1FE0" fill-opacity="0.3"/>
<path d="M80.0621 30.679C79.639 35.6623 76.6619 40.3737 72.4155 43.0466C70.2999 44.3906 67.9878 45.357 65.6908 46.2933C63.4089 47.2446 61.1421 48.2111 59.0869 49.5853C60.0238 48.7698 61.0666 48.0903 62.1546 47.4711C65.6303 45.4778 69.5141 44.2547 72.7782 41.9291C76.541 39.2865 79.11 35.179 80.0621 30.679Z" fill="#6B1FE0" fill-opacity="0.3"/>
<path d="M56.5333 54.5081C54.9314 56.3504 52.6495 58.9477 51.1384 60.8202C49.6121 62.6625 47.5115 65.4562 46.0608 67.3891C48.3578 62.587 52.3171 57.7245 56.5333 54.5081Z" fill="#6B1FE0" fill-opacity="0.3"/>
<path d="M55.0069 60.5938C54.75 64.8824 51.3197 68.1744 48.6449 71.2399C46.6501 73.5352 44.8065 76.2081 44.4438 79.2887C44.338 80.3004 44.4287 81.3424 44.7762 82.339C44.2927 81.4028 44.0811 80.3306 44.0962 79.2585C44.202 76.0118 46.0607 73.1426 48.116 70.7567C50.8059 67.6761 54.1456 64.7616 55.0069 60.5938Z" fill="#6B1FE0" fill-opacity="0.3"/>
<path d="M51.6521 72.7047C51.1383 78.2316 45.5016 81.3726 44.1265 86.5824C44.5194 81.0404 50.1863 77.8541 51.6521 72.7047Z" fill="#6B1FE0" fill-opacity="0.3"/>
<path d="M47.2547 84.5438C46.8164 86.9147 45.2448 89.1043 43.1292 90.2671C44.9275 88.6966 46.3329 86.7486 47.2547 84.5438Z" fill="#6B1FE0" fill-opacity="0.3"/>
<path d="M47.7381 86.975C47.1488 89.1495 45.3505 90.9918 43.2046 91.6412C45.1087 90.5237 46.6803 88.923 47.7381 86.975Z" fill="#6B1FE0" fill-opacity="0.3"/>
<path d="M47.0732 90.4331C46.8767 91.5959 45.834 92.5925 44.6704 92.7435C45.6225 92.1093 46.4083 91.3543 47.0732 90.4331Z" fill="#6B1FE0" fill-opacity="0.3"/>
<path d="M81.0294 6.35136C85.835 2.66674 91.8192 0.658317 97.8186 0.114685C100.841 -0.172232 103.909 0.114685 106.901 0.582813C117.313 2.25901 127.604 6.06444 135.946 12.6182C139.482 15.4723 142.414 19.0361 144.831 22.8566C148.836 29.2594 151.571 36.2964 154.05 43.3788C154.548 44.7982 154.956 46.263 155.274 47.7429C156.543 53.6625 156.77 59.7028 156.815 65.7281C156.86 71.7382 156.634 77.7333 156.241 83.7283C156.135 85.2233 156.029 86.7183 155.908 88.2133C155.787 89.7083 155.667 91.2033 155.485 92.6983C155.485 92.7285 155.455 92.7436 155.425 92.7436C155.395 92.7436 155.379 92.7134 155.379 92.6832C155.561 89.6932 155.651 86.6881 155.727 83.6981C156.029 73.2634 156.165 62.7079 155.138 52.3034C154.835 49.3436 154.352 46.3989 153.475 43.5449C153.037 42.1103 152.599 40.6757 152.115 39.2713C148.368 28.0815 142.081 16.9824 131.714 10.791C122.95 5.3849 112.522 2.13821 102.307 1.00564C96.3981 0.552611 90.3685 1.70028 84.9887 4.22213C83.6438 4.85637 82.3441 5.59631 81.105 6.44196C81.0747 6.45706 81.0445 6.45706 81.0294 6.42686C80.9992 6.39666 81.0143 6.36646 81.0294 6.35136Z" fill="#6B1FE0" fill-opacity="0.3"/>
<path d="M80.0624 15.5629C79.4881 19.625 75.9671 23.1737 72.8691 25.6352C75.7253 22.6603 78.8987 19.6401 80.0624 15.5629Z" fill="#6B1FE0" fill-opacity="0.3"/>
<path d="M80.0623 24.2006C79.352 26.4355 77.8106 28.5496 75.6194 29.4859C77.5386 28.1117 78.8835 26.209 80.0623 24.2006Z" fill="#6B1FE0" fill-opacity="0.3"/>
<path d="M79.8356 10.2927C79.9565 12.6334 79.2765 15.1552 77.5537 16.8012C78.8533 14.8532 79.4578 12.5881 79.8356 10.2927Z" fill="#6B1FE0" fill-opacity="0.3"/>
<path d="M81.7849 18.3263C85.6233 27.4321 93.421 32.5211 103.334 31.9624C110.648 31.6 118.355 29.5916 125.382 32.5966C138.137 37.7762 142.096 52.3335 145.073 64.4897C141.522 52.7412 137.532 38.4558 125.05 33.4272C118.129 30.5278 110.588 32.506 103.365 32.7627C93.285 33.1856 85.2455 27.7946 81.7849 18.3263Z" fill="#6B1FE0" fill-opacity="0.3"/>
<path d="M81.3467 13.5393C82.9939 16.5595 84.4446 19.9119 87.3763 21.9052C88.3283 22.5545 89.371 23.0982 90.4138 23.6116C88.7515 23.0378 87.1194 22.2676 85.8047 21.0747C83.6286 19.0511 82.4196 16.2575 81.3467 13.5393Z" fill="#6B1FE0" fill-opacity="0.3"/>
<path d="M146.116 74.0487C146.509 76.9783 146.977 81.0706 147.446 83.9549C147.929 86.7486 148.534 89.7838 150.816 91.6714C151.148 91.9131 151.496 92.1245 151.874 92.3208C151.073 92.1094 150.287 91.6866 149.713 91.0372C149.425 90.705 149.184 90.3728 148.942 90.0255C147.778 88.2285 147.506 86.069 147.174 84.0153C146.72 80.6931 146.418 77.3709 146.116 74.0487Z" fill="#6B1FE0" fill-opacity="0.3"/>
<path d="M147.416 89.799C147.99 91.7621 148.776 93.997 150.77 94.8728C151.042 94.9786 151.329 95.0541 151.617 94.9031C151.511 95.0239 151.36 95.0994 151.193 95.1296C148.76 95.2202 147.718 91.7319 147.416 89.799Z" fill="#6B1FE0" fill-opacity="0.3"/>
<path d="M81.8606 28.0664C82.6011 31.4641 85.2607 34.0464 88.1018 35.8434C94.1163 39.6035 101.43 38.1991 108.125 37.7461C111.555 37.5196 115.091 37.5649 118.386 38.6521C111.616 36.8702 104.679 39.0448 97.8338 38.9089C93.8896 38.8635 89.9605 37.9122 86.8022 35.4507C84.4447 33.6235 82.2988 31.1168 81.8606 28.0664Z" fill="#6B1FE0" fill-opacity="0.3"/>
<path d="M93.1191 24.3667C99.1941 26.7979 105.858 25.9976 112.19 25.454C118.567 24.9556 125.322 24.412 131.352 26.9641C138.953 30.2409 143.668 37.58 147.416 44.617C149.29 48.0751 150.332 52.3487 153.823 54.5836C154.503 55.0064 155.244 55.3386 155.999 55.5803L155.984 55.6256C155.198 55.4292 154.428 55.1423 153.717 54.7346C150.06 52.6507 148.867 48.3016 146.932 44.8586C142.504 36.6286 136.535 27.553 126.667 25.7258C120.275 24.4724 113.807 25.9523 107.4 26.3147C102.609 26.6318 97.5469 26.4808 93.1191 24.3667Z" fill="#6B1FE0" fill-opacity="0.3"/>
<path d="M131.956 35.1035C137.547 38.1086 141.068 43.7865 143.532 49.4494C144.801 52.2883 145.98 55.1877 147.023 58.1173C148.05 61.0469 148.881 64.0821 149.743 67.057C150.332 69.0201 150.967 70.9983 151.979 72.7803C152.75 74.1091 153.747 75.3021 155.032 76.1629C155.455 76.4498 155.908 76.6914 156.377 76.9179L156.362 76.9783C153.249 75.9967 151.299 73.1276 150.166 70.2282C149.38 68.2953 148.866 66.2718 148.322 64.2482C147.506 61.2432 146.66 58.2683 145.662 55.3236C144.363 51.3974 142.534 47.6373 140.268 44.1792C138.061 40.6757 135.402 37.414 131.956 35.1035Z" fill="#6B1FE0" fill-opacity="0.3"/>
<path d="M61.3843 96.1112C65.404 91.8527 71.3732 91.0523 76.7832 92.8645C77.8259 93.2269 78.8233 93.695 79.7753 94.2386C80.6065 94.7219 81.6643 95.5373 82.4501 96.1112C82.843 96.383 83.3568 96.8058 83.7346 97.0927C84.1577 97.4249 84.5204 97.878 84.6867 98.3914C84.4751 97.9082 84.0671 97.5004 83.6288 97.2135C83.2208 96.9417 82.6768 96.5944 82.2688 96.3377C81.347 95.7789 80.4402 95.1749 79.5033 94.7068C77.6143 93.7403 75.544 93.1514 73.4435 92.9702C70.3002 92.7437 67.157 93.4685 64.2706 94.6917C63.3035 95.1296 62.3665 95.6279 61.4296 96.1867L61.3843 96.1112Z" fill="#6B1FE0" fill-opacity="0.3"/>
<path d="M82.1022 97.7268C82.1929 97.3191 82.5102 96.7755 82.752 96.5187C82.4347 96.0959 81.6942 95.809 81.3013 95.5674C81.5582 95.8996 81.7395 96.1714 81.8906 96.564C81.9813 96.8057 82.1022 97.2889 82.1022 97.7268Z" fill="#6B1FE0" fill-opacity="0.3"/>
<path d="M61.6714 96.6245C67.4894 100.656 74.7733 100.762 81.4678 99.3125C82.435 99.1313 83.4777 99.4937 84.3995 99.0558C83.5079 99.5541 82.4501 99.2672 81.498 99.4786C80.5309 99.6296 79.594 99.9316 78.6117 100.113C76.6623 100.475 74.6675 100.596 72.6879 100.566C70.6931 100.551 68.6832 100.324 66.7791 99.6749C64.8902 99.0255 63.0919 98.0289 61.6562 96.6698L61.6714 96.6245Z" fill="#6B1FE0" fill-opacity="0.3"/>
<path d="M136.187 94.0423C134.676 92.8342 133.059 91.7922 131.306 90.9919C130.067 90.418 128.798 89.8593 127.438 89.5875C125.262 89.1647 123.025 89.4516 120.879 89.9197C119.821 90.1613 118.779 90.5238 117.796 90.9617C115.771 91.8375 114.018 93.2117 112.175 94.4198C113.323 93.1966 114.562 92.0187 115.983 91.0976C117.887 89.814 120.169 89.21 122.436 89.0439C124.128 88.9382 125.821 89.1194 127.483 89.361C128.586 89.5271 129.704 89.7234 130.777 90.1009C131.85 90.4634 132.863 91.0221 133.785 91.6714C134.706 92.3359 135.553 93.0909 136.233 93.997L136.187 94.0423Z" fill="#6B1FE0" fill-opacity="0.3"/>
<path d="M123.745 97.5488C125.066 97.4177 126.03 96.2417 125.899 94.9222C125.767 93.6026 124.591 92.6392 123.27 92.7702C121.95 92.9013 120.985 94.0773 121.117 95.3968C121.248 96.7164 122.425 97.6799 123.745 97.5488Z" fill="#6B1FE0" fill-opacity="0.3"/>
<path d="M123.509 99.4936C125.685 99.5087 127.408 97.5607 127.634 95.4919C127.695 94.601 127.77 93.1211 126.758 92.7586C125.76 92.4566 124.597 92.5623 123.554 92.5925C122.738 92.6378 121.967 92.7435 121.166 92.9097C120.728 93.0003 120.124 93.0758 119.806 93.3627C119.413 93.9214 119.413 94.7973 119.444 95.4768C119.58 97.5456 121.363 99.5087 123.509 99.4936ZM123.509 99.554C121 99.5842 118.809 97.7117 118.839 95.1144C118.869 94.2687 118.915 93.0909 119.852 92.7133C121.045 92.3207 122.33 92.2754 123.569 92.2905C124.113 92.3056 124.657 92.3509 125.201 92.3811C125.866 92.4415 126.622 92.4113 127.226 92.7737C127.982 93.3627 128.133 94.6312 128.118 95.5221C127.997 97.9382 125.791 99.5691 123.509 99.554Z" fill="#6B1FE0" fill-opacity="0.3"/>
<path d="M134.555 96.2017C132.727 95.0842 130.808 94.2084 128.752 93.6647C126.727 93.1362 124.642 92.804 122.542 92.9852C120.441 93.1815 118.386 93.7704 116.482 94.7218C115.53 95.1899 114.638 95.8091 113.716 96.3527C113.308 96.5943 112.749 96.9567 112.356 97.2285C111.918 97.5155 111.51 97.9232 111.298 98.4064C111.465 97.893 111.842 97.4399 112.25 97.1077C112.628 96.8057 113.157 96.398 113.535 96.1262C114.336 95.5674 115.379 94.752 116.21 94.2537C118.114 93.1362 120.245 92.4114 122.436 92.1244C124.642 91.8375 126.924 91.913 129.055 92.6228C131.17 93.3325 133.135 94.5104 134.616 96.1262L134.555 96.2017Z" fill="#6B1FE0" fill-opacity="0.3"/>
<path d="M113.898 97.7268C113.807 97.3191 113.49 96.7755 113.248 96.5187C113.565 96.0959 114.306 95.809 114.699 95.5674C114.442 95.8996 114.26 96.1714 114.109 96.564C114.018 96.8057 113.898 97.2889 113.898 97.7268Z" fill="#6B1FE0" fill-opacity="0.3"/>
<path d="M134.359 96.6698C131.442 99.4333 127.287 100.596 123.327 100.581C121.348 100.611 119.353 100.49 117.404 100.128C116.421 99.9467 115.484 99.6447 114.517 99.4937C113.565 99.2823 112.492 99.5692 111.616 99.0708C112.538 99.5088 113.565 99.1615 114.547 99.3276C115.545 99.4484 116.497 99.7202 117.464 99.8561C119.398 100.158 121.378 100.234 123.342 100.143C125.307 100.068 127.226 99.7202 129.085 99.1615C130.944 98.6027 132.727 97.742 134.344 96.6245L134.359 96.6698Z" fill="#6B1FE0" fill-opacity="0.3"/>
<path d="M122.36 94.4504C122.36 94.7677 122.179 95.0246 121.605 95.0246C121.046 95.0246 120.577 94.7677 120.577 94.4504C120.577 94.133 121.031 93.8761 121.605 93.8761C122.179 93.8761 122.36 94.133 122.36 94.4504Z" fill="white" fill-opacity="0.7"/>
<path d="M125.745 96.6097C125.745 96.8213 125.64 96.9875 125.337 96.9875C125.02 96.9875 124.869 96.8213 124.869 96.6097C124.869 96.3982 125.02 96.2319 125.337 96.2319C125.64 96.2319 125.745 96.3982 125.745 96.6097Z" fill="white" fill-opacity="0.7"/>
<path d="M62.0339 95.6429C62.6989 96.549 63.5754 97.2587 64.5878 97.7722C66.2501 98.6933 68.0333 99.3427 69.8921 99.7353C68.0182 99.4333 66.1746 98.8292 64.4821 97.9836C63.4393 97.5004 62.4722 96.7755 61.7468 95.8695C61.7619 95.8695 62.0339 95.6429 62.0339 95.6429Z" fill="#6B1FE0" fill-opacity="0.3"/>
<path d="M134.253 95.8695C133.528 96.7755 132.576 97.4853 131.518 97.9836C129.811 98.8443 127.982 99.4333 126.108 99.7353C127.967 99.3578 129.765 98.6933 131.412 97.7722C132.41 97.2587 133.286 96.549 133.966 95.6429C133.981 95.6429 134.253 95.8695 134.253 95.8695Z" fill="#6B1FE0" fill-opacity="0.3"/>
<path d="M93.9046 114.217C94.086 113.447 94.4486 111.529 94.5393 110.593C94.7207 108.841 94.766 107.965 94.4789 106.153C94.3731 107.724 94.2975 108.615 94.1615 110.2C94.0557 112.012 93.8291 113.84 93.4513 115.621C93.421 115.742 93.3908 115.878 93.3606 115.999C93.5873 115.41 93.7686 114.821 93.9046 114.217Z" fill="#6B1FE0" fill-opacity="0.3"/>
</svg>
