<svg width="24" height="24" viewBox="0 0 24 24" fill="none" xmlns="http://www.w3.org/2000/svg">
<path fill-rule="evenodd" clip-rule="evenodd" d="M0 12C0 5.39839 5.39839 0 12 0C18.6016 0 24 5.39839 24 12C24 18.6016 18.6016 24 12 24C5.39839 24 0 18.6016 0 12ZM12 1.41176C6.17808 1.41176 1.41176 6.17808 1.41176 12C1.41176 17.8219 6.17808 22.5882 12 22.5882C17.8219 22.5882 22.5882 17.8219 22.5882 12C22.5882 6.17808 17.8219 1.41176 12 1.41176Z" fill="#A96FE7"/>
<path fill-rule="evenodd" clip-rule="evenodd" d="M17.7752 8.21239C18.0753 8.49521 18.0749 8.95337 17.7742 9.2357L10.7958 15.7885C10.4953 16.0707 10.0086 16.0705 9.70838 15.7881L6.2253 12.5117C5.9249 12.2291 5.9249 11.7709 6.2253 11.4883C6.52571 11.2058 7.01276 11.2058 7.31316 11.4883L10.2528 14.2536L16.6873 8.21148C16.988 7.92915 17.475 7.92956 17.7752 8.21239Z" fill="#A96FE7"/>
</svg>
